<svg width="28" height="28" viewBox="0 0 28 28" fill="none" xmlns="http://www.w3.org/2000/svg">
<path d="M9.53127 13.792V22.2907C9.53127 22.4786 9.45663 22.6588 9.32376 22.7917C9.19089 22.9246 9.01068 22.9992 8.82278 22.9992H5.7353C5.54824 22.9979 5.36928 22.9227 5.23746 22.79C5.10565 22.6572 5.03167 22.4778 5.03168 22.2907V5.70932C5.03168 5.52142 5.10632 5.34121 5.23919 5.20834C5.37206 5.07547 5.55227 5.00083 5.74017 5.00083H8.82765C9.01556 5.00083 9.19577 5.07547 9.32863 5.20834C9.4615 5.34121 9.53615 5.52142 9.53615 5.70932L9.53127 13.792ZM22.9683 5.70932V22.2842C22.9679 22.4723 22.8929 22.6525 22.7597 22.7853C22.6266 22.9181 22.4462 22.9927 22.2582 22.9927H18.2656C18.1552 22.9926 18.0464 22.9669 17.9477 22.9176C17.849 22.8682 17.7631 22.7966 17.6968 22.7083L10.9223 13.6376C10.8301 13.5155 10.7804 13.3665 10.7809 13.2135V6.99469C10.7819 6.92061 10.8061 6.84872 10.8501 6.78912C10.8941 6.72952 10.9557 6.68521 11.0262 6.66243C11.0967 6.63965 11.1725 6.63954 11.2431 6.66212C11.3136 6.68471 11.3753 6.72884 11.4195 6.78832L17.8301 15.3699C17.8745 15.4297 17.9367 15.474 18.0077 15.4964C18.0787 15.5189 18.155 15.5184 18.2257 15.495C18.2964 15.4716 18.358 15.4265 18.4016 15.3661C18.4452 15.3057 18.4687 15.2331 18.4687 15.1586V5.70932C18.4687 5.52142 18.5434 5.34121 18.6762 5.20834C18.8091 5.07547 18.9893 5.00083 19.1772 5.00083H22.2647C22.4517 5.00211 22.6307 5.07733 22.7625 5.21006C22.8943 5.34279 22.9683 5.52226 22.9683 5.70932V5.70932Z" fill="#FF7532"/>
<path d="M22.2564 5.0008H19.1689C18.981 5.0008 18.8008 5.07544 18.6679 5.20831C18.535 5.34118 18.4604 5.52139 18.4604 5.70929V15.157C18.4607 15.2316 18.4375 15.3044 18.394 15.3651C18.3505 15.4257 18.289 15.4711 18.2182 15.4947C18.1474 15.5183 18.0709 15.5189 17.9998 15.4965C17.9286 15.4741 17.8663 15.4298 17.8218 15.3698L11.4177 6.78829C11.373 6.72905 11.3108 6.68536 11.2399 6.66336C11.169 6.64137 11.0931 6.64219 11.0227 6.66572C10.9523 6.68924 10.8911 6.73427 10.8476 6.79446C10.8042 6.85465 10.7808 6.92695 10.7807 7.00116V13.2135C10.7805 13.3662 10.8295 13.5149 10.9205 13.6376L11.7703 14.7751L22.9665 18.303V5.70929C22.9665 5.61612 22.9481 5.52385 22.9124 5.43779C22.8767 5.35172 22.8244 5.27355 22.7584 5.20774C22.6924 5.14193 22.6142 5.08977 22.528 5.05426C22.4419 5.01875 22.3496 5.00059 22.2564 5.0008V5.0008Z" fill="#FF304C"/>
<path d="M9.53127 5.70932C9.53127 5.52142 9.45663 5.34121 9.32376 5.20834C9.19089 5.07547 9.01068 5.00083 8.82278 5.00083H5.7353C5.54824 5.00211 5.36928 5.07733 5.23746 5.21006C5.10565 5.34279 5.03167 5.52226 5.03168 5.70932V12.6513L9.53127 14.0699V5.70932Z" fill="#FF304C"/>
<path d="M22.2564 5.0008H19.1689C18.981 5.0008 18.8008 5.07544 18.6679 5.20831C18.535 5.34118 18.4604 5.52139 18.4604 5.70929V10.7224L22.96 12.141V5.70929C22.96 5.52223 22.886 5.34276 22.7542 5.21003C22.6224 5.0773 22.4434 5.00208 22.2564 5.0008V5.0008Z" fill="#FF684C"/>
<path d="M11.0228 6.65824C10.9521 6.68157 10.8906 6.72668 10.8471 6.7871C10.8036 6.84753 10.7804 6.92017 10.7807 6.99461V8.2946L13.0963 9.02422L11.4177 6.78824C11.3741 6.72753 11.3124 6.68223 11.2415 6.65886C11.1705 6.6355 11.0939 6.63528 11.0228 6.65824V6.65824Z" fill="#FF684C"/>
<path d="M8.82278 5.00083H5.7353C5.54824 5.00211 5.36928 5.07733 5.23746 5.21006C5.10565 5.34279 5.03167 5.52226 5.03168 5.70932V6.48769L9.53127 7.90631V5.70932C9.53127 5.52142 9.45663 5.34121 9.32376 5.20834C9.19089 5.07547 9.01068 5.00083 8.82278 5.00083V5.00083Z" fill="#FF684C"/>
</svg>
