<svg width="80" height="80" viewBox="0 0 80 80" fill="none" xmlns="http://www.w3.org/2000/svg">
<path d="M37.5 67.667V41.917L15 28.917V54.667L37.5 67.667ZM42.5 67.667L65 54.667V28.8337L42.5 41.9035V67.667ZM40 37.667L62.1667 24.7503L40 11.917L17.75 24.7503L40 37.667ZM12.5 59.0003C11.7083 58.5322 11.0938 57.9152 10.6562 57.1492C10.2187 56.3833 10 55.5559 10 54.667V26.3337C10 25.4448 10.2187 24.6174 10.6562 23.8514C11.0938 23.0855 11.7083 22.4684 12.5 22.0003L37.5 7.58366C38.296 7.13921 39.1339 6.91699 40.0137 6.91699C40.8934 6.91699 41.7222 7.13921 42.5 7.58366L67.5 22.0003C68.2917 22.4684 68.9062 23.0855 69.3438 23.8514C69.7812 24.6174 70 25.4448 70 26.3337V54.667C70 55.5559 69.7812 56.3833 69.3438 57.1492C68.9062 57.9152 68.2917 58.5322 67.5 59.0003L42.5 73.417C41.704 73.8614 40.8661 74.0837 39.9863 74.0837C39.1066 74.0837 38.2778 73.8614 37.5 73.417L12.5 59.0003Z" fill="#2F3438"/>
</svg>
