<svg width="20" height="20" viewBox="0 0 20 20" fill="none" xmlns="http://www.w3.org/2000/svg">
<mask id="mask0_2366_5474" style="mask-type:alpha" maskUnits="userSpaceOnUse" x="0" y="0" width="20" height="20">
<rect width="20" height="20" fill="#D9D9D9"/>
</mask>
<g mask="url(#mask0_2366_5474)">
<path d="M9.99971 15.625C9.82254 15.625 9.66719 15.5581 9.53365 15.4244C9.4001 15.2908 9.33333 15.1376 9.33333 14.9648V10.6666H5.03512C4.86239 10.6666 4.70919 10.5998 4.57552 10.466C4.44184 10.3323 4.375 10.1769 4.375 9.99971C4.375 9.82254 4.44184 9.66719 4.57552 9.53365C4.70919 9.4001 4.86239 9.33333 5.03512 9.33333H9.33333V5.03513C9.33333 4.86239 9.40019 4.70918 9.53392 4.5755C9.66765 4.44183 9.8231 4.375 10.0002 4.375C10.1774 4.375 10.3328 4.44183 10.4663 4.5755C10.5999 4.70918 10.6666 4.86239 10.6666 5.03513V9.33333H14.9648C15.1376 9.33333 15.2908 9.4002 15.4245 9.53392C15.5581 9.66765 15.625 9.8231 15.625 10.0003C15.625 10.1774 15.5581 10.3328 15.4245 10.4663C15.2908 10.5999 15.1376 10.6666 14.9648 10.6666H10.6666V14.9648C10.6666 15.1376 10.5998 15.2908 10.466 15.4244C10.3323 15.5581 10.1769 15.625 9.99971 15.625Z" fill="currentColor"/>
</g>
</svg>
