<svg width="20" height="20" viewBox="0 0 20 20" fill="none" xmlns="http://www.w3.org/2000/svg">
<mask id="mask0_2370_2870" style="mask-type:alpha" maskUnits="userSpaceOnUse" x="0" y="0" width="20" height="20">
<rect width="20" height="20" fill="#D9D9D9"/>
</mask>
<g mask="url(#mask0_2370_2870)">
<path d="M9.46001 11.6427L7.72286 9.90552C7.47179 9.65445 7.41116 9.36439 7.54097 9.03533C7.67077 8.70628 7.91836 8.54175 8.28374 8.54175H11.7949C12.1464 8.54175 12.3871 8.70628 12.5169 9.03533C12.6467 9.36439 12.586 9.65445 12.335 9.90552L10.5978 11.6427C10.5198 11.7207 10.4306 11.7813 10.3302 11.8246C10.2298 11.8678 10.1293 11.8895 10.0289 11.8895C9.9285 11.8895 9.82806 11.8678 9.72763 11.8246C9.62722 11.7813 9.53801 11.7207 9.46001 11.6427Z" fill="currentColor"/>
</g>
</svg>
