<svg width="20" height="20" viewBox="0 0 20 20" fill="none" xmlns="http://www.w3.org/2000/svg">
<mask id="mask0_2366_5419" style="mask-type:alpha" maskUnits="userSpaceOnUse" x="0" y="0" width="20" height="20">
<rect width="20" height="20" fill="#D9D9D9"/>
</mask>
<g mask="url(#mask0_2366_5419)">
<path d="M9.22591 15.8654L3.9086 10.5689C3.81673 10.477 3.75129 10.3843 3.71229 10.2909C3.6733 10.1974 3.65381 10.1004 3.65381 10C3.65381 9.89957 3.6733 9.80262 3.71229 9.70915C3.75129 9.61566 3.81673 9.52298 3.9086 9.4311L9.23391 4.10579C9.36319 3.97651 9.51517 3.90974 9.68985 3.90546C9.86452 3.90119 10.0234 3.97064 10.1666 4.11379C10.2959 4.2484 10.3592 4.40652 10.3565 4.58815C10.3538 4.76976 10.2878 4.9252 10.1586 5.05448L5.8797 9.33335H15.3653C15.5427 9.33335 15.6981 9.40013 15.8316 9.53367C15.9652 9.66721 16.032 9.82265 16.032 10C16.032 10.1773 15.9652 10.3328 15.8316 10.4663C15.6981 10.5999 15.5427 10.6666 15.3653 10.6666H5.8797L10.1666 14.9535C10.2959 15.0828 10.3626 15.23 10.3669 15.395C10.3712 15.5601 10.3017 15.7169 10.1586 15.8654C10.024 15.9946 9.86719 16.0593 9.68825 16.0593C9.50929 16.0593 9.35518 15.9946 9.22591 15.8654Z" fill="currentColor"/>
</g>
</svg>
