<svg width="20" height="20" viewBox="0 0 20 20" fill="none" xmlns="http://www.w3.org/2000/svg">
<mask id="mask0_2731_7430" style="mask-type:alpha" maskUnits="userSpaceOnUse" x="0" y="0" width="20" height="20">
<rect width="20" height="20" fill="#D9D9D9"/>
</mask>
<g mask="url(#mask0_2731_7430)">
<path d="M13.6203 6.06556L5.34305 14.3348C5.22767 14.4502 5.10347 14.5031 4.97047 14.4935C4.83746 14.4839 4.71326 14.4214 4.59789 14.306C4.4825 14.1906 4.4248 14.0643 4.4248 13.927C4.4248 13.7897 4.4825 13.6634 4.59789 13.548L12.8463 5.29154H5.66197C5.5085 5.29154 5.37985 5.24003 5.27603 5.137C5.17223 5.03397 5.12033 4.90631 5.12033 4.754C5.12033 4.6017 5.17223 4.47266 5.27603 4.3669C5.37985 4.26113 5.5085 4.20825 5.66197 4.20825H14.0338C14.2236 4.20825 14.3826 4.27245 14.511 4.40084C14.6394 4.52922 14.7036 4.68831 14.7036 4.87811V13.2499C14.7036 13.4034 14.6521 13.532 14.5491 13.6358C14.446 13.7396 14.3184 13.7915 14.1661 13.7915C14.0138 13.7915 13.8847 13.7396 13.779 13.6358C13.6732 13.532 13.6203 13.4034 13.6203 13.2499V6.06556Z" fill="currentColor"/>
</g>
</svg>
