<svg width="20" height="20" viewBox="0 0 20 20" fill="none" xmlns="http://www.w3.org/2000/svg">
<mask id="mask0_2366_5420" style="mask-type:alpha" maskUnits="userSpaceOnUse" x="0" y="0" width="20" height="20">
<rect width="20" height="20" fill="#D9D9D9"/>
</mask>
<g mask="url(#mask0_2366_5420)">
<path d="M9.54002 15.8863C9.3915 15.7378 9.31511 15.5845 9.31085 15.4263C9.30657 15.2682 9.37868 15.1149 9.52718 14.9664L13.8269 10.6667H4.32045C4.14311 10.6667 3.98766 10.5999 3.85412 10.4664C3.72058 10.3329 3.65381 10.1774 3.65381 10.0001C3.65381 9.82272 3.72058 9.66728 3.85412 9.53374C3.98766 9.4002 4.14311 9.33343 4.32045 9.33343H13.8269L9.52718 5.05455C9.37868 4.90605 9.30657 4.74927 9.31085 4.58422C9.31511 4.41915 9.3915 4.26236 9.54002 4.11386C9.68852 3.96536 9.84182 3.89111 9.99993 3.89111C10.158 3.89111 10.3114 3.96536 10.4599 4.11386L15.7772 9.43118C15.869 9.51451 15.9345 9.60505 15.9735 9.7028C16.0125 9.80055 16.032 9.89964 16.032 10.0001C16.032 10.0952 16.0125 10.1908 15.9735 10.2869C15.9345 10.3831 15.869 10.4771 15.7772 10.569L10.4599 15.8863C10.3114 16.0348 10.158 16.109 9.99993 16.109C9.84182 16.109 9.68852 16.0348 9.54002 15.8863Z" fill="currentColor"/>
</g>
</svg>
