<svg width="20" height="20" viewBox="0 0 20 20" fill="none" xmlns="http://www.w3.org/2000/svg">
<mask id="mask0_2366_5595" style="mask-type:alpha" maskUnits="userSpaceOnUse" x="0" y="0" width="20" height="20">
<rect width="20" height="20" fill="#D9D9D9"/>
</mask>
<g mask="url(#mask0_2366_5595)">
<path d="M2.4167 8.15078V4.95188C2.4167 4.54283 2.55604 4.21677 2.8347 3.97371C3.11337 3.73066 3.45404 3.60913 3.8567 3.60913H16.146C16.5487 3.60913 16.8889 3.73066 17.1667 3.97371C17.4444 4.21677 17.5833 4.54283 17.5833 4.95188V8.15078H16.5V4.94886C16.5 4.88475 16.4733 4.82599 16.4199 4.77257C16.3665 4.71914 16.3077 4.69242 16.2436 4.69242H3.75645C3.69234 4.69242 3.63357 4.71914 3.58014 4.77257C3.52672 4.82599 3.50002 4.88475 3.50002 4.94886V8.15078H2.4167ZM3.85406 14.2757C3.45138 14.2757 3.11115 14.1542 2.83337 13.9112C2.55559 13.6681 2.4167 13.343 2.4167 12.936V9.23409H3.50002V12.936C3.50002 13.0001 3.52672 13.0589 3.58014 13.1123C3.63357 13.1657 3.69234 13.1924 3.75645 13.1924H16.2436C16.3077 13.1924 16.3665 13.1657 16.4199 13.1123C16.4733 13.0589 16.5 13.0001 16.5 12.936V9.23409H17.5833V12.936C17.5833 13.343 17.444 13.6681 17.1653 13.9112C16.8867 14.1542 16.546 14.2757 16.1433 14.2757H3.85406ZM1.8622 16.359C1.70847 16.359 1.57976 16.3076 1.47608 16.2048C1.3724 16.1019 1.32056 15.9743 1.32056 15.8218C1.32056 15.6693 1.3724 15.5401 1.47608 15.4344C1.57976 15.3286 1.70847 15.2757 1.8622 15.2757H18.1378C18.2916 15.2757 18.4203 15.3272 18.524 15.43C18.6276 15.5328 18.6795 15.6605 18.6795 15.813C18.6795 15.9655 18.6276 16.0946 18.524 16.2004C18.4203 16.3062 18.2916 16.359 18.1378 16.359H1.8622ZM2.4167 9.23409V8.15078H6.85418C7.01122 8.15078 7.14877 8.18871 7.26683 8.26457C7.38488 8.34042 7.47756 8.4387 7.54487 8.55942L8.54168 10.436L11.0433 6.40878C11.0967 6.32439 11.1603 6.26296 11.234 6.22451C11.3078 6.18603 11.389 6.1668 11.4776 6.1668C11.5663 6.1668 11.6488 6.17909 11.7252 6.20367C11.8016 6.22824 11.8665 6.27044 11.9199 6.33026L13.2468 8.15078H17.5833V9.23409H13.1843C13.0476 9.23409 12.9164 9.20203 12.7909 9.13792C12.6654 9.07383 12.5567 8.98729 12.4648 8.87832L11.5417 7.54817L8.94872 11.7261C8.89531 11.8051 8.82995 11.8679 8.75266 11.9144C8.67538 11.9609 8.59384 11.9841 8.50804 11.9841C8.40793 11.9841 8.31452 11.9566 8.22783 11.9015C8.14113 11.8465 8.07108 11.7795 8.01766 11.7004L6.66989 9.23409H2.4167Z" fill="currentColor"/>
</g>
</svg>
