<svg width="20" height="20" viewBox="0 0 20 20" fill="none" xmlns="http://www.w3.org/2000/svg">
<mask id="mask0_2494_8478" style="mask-type:alpha" maskUnits="userSpaceOnUse" x="0" y="0" width="20" height="20">
<rect width="20" height="20" fill="#D9D9D9"/>
</mask>
<g mask="url(#mask0_2494_8478)">
<path d="M5.12513 17.423C4.75003 17.423 4.43297 17.2935 4.17394 17.0345C3.91491 16.7754 3.7854 16.4584 3.7854 16.0833V6.21474C3.7854 6.06101 3.83682 5.9323 3.93967 5.82862C4.0425 5.72494 4.17017 5.6731 4.32267 5.6731C4.47516 5.6731 4.60428 5.72494 4.71005 5.82862C4.81582 5.9323 4.86871 6.06101 4.86871 6.21474V16.0833C4.86871 16.1474 4.89542 16.2061 4.94884 16.2596C5.00225 16.313 5.06102 16.3397 5.12513 16.3397H12.9937C13.1474 16.3397 13.2761 16.3911 13.3798 16.494C13.4835 16.5968 13.5353 16.7245 13.5353 16.877C13.5353 17.0295 13.4835 17.1586 13.3798 17.2643C13.2761 17.3701 13.1474 17.423 12.9937 17.423H5.12513ZM7.70844 14.8397C7.33333 14.8397 7.01626 14.7102 6.75723 14.4512C6.49822 14.1921 6.36871 13.8751 6.36871 13.5V4.01283C6.36871 3.63773 6.49822 3.32067 6.75723 3.06164C7.01626 2.80261 7.33333 2.6731 7.70844 2.6731H15.1956C15.5707 2.6731 15.8877 2.80261 16.1468 3.06164C16.4058 3.32067 16.5353 3.63773 16.5353 4.01283V13.5C16.5353 13.8751 16.4058 14.1921 16.1468 14.4512C15.8877 14.7102 15.5707 14.8397 15.1956 14.8397H7.70844ZM7.70844 13.7564H15.1956C15.2597 13.7564 15.3184 13.7297 15.3719 13.6763C15.4253 13.6228 15.452 13.5641 15.452 13.5V4.01283C15.452 3.94871 15.4253 3.88995 15.3719 3.83653C15.3184 3.78312 15.2597 3.75641 15.1956 3.75641H7.70844C7.64433 3.75641 7.58557 3.78312 7.53215 3.83653C7.47872 3.88995 7.452 3.94871 7.452 4.01283V13.5C7.452 13.5641 7.47872 13.6228 7.53215 13.6763C7.58557 13.7297 7.64433 13.7564 7.70844 13.7564Z" fill="currentColor"/>
</g>
</svg>
