<svg width="20" height="20" viewBox="0 0 20 20" fill="none" xmlns="http://www.w3.org/2000/svg">
<mask id="mask0_2366_5594" style="mask-type:alpha" maskUnits="userSpaceOnUse" x="0" y="0" width="20" height="20">
<rect width="20" height="20" fill="#D9D9D9"/>
</mask>
<g mask="url(#mask0_2366_5594)">
<path d="M9.41659 15.5529V10.343L4.99992 7.7901V12.7116C4.99992 12.797 5.02129 12.8772 5.06402 12.952C5.10676 13.0267 5.17086 13.0908 5.25634 13.1443L9.41659 15.5529ZM10.5833 15.5529L14.7435 13.1443C14.829 13.0908 14.8931 13.0267 14.9358 12.952C14.9785 12.8772 14.9999 12.797 14.9999 12.7116V7.7901L10.5833 10.343V15.5529ZM9.99992 9.31414L14.5208 6.71958L10.2563 4.24843C10.1709 4.19501 10.0854 4.16831 9.99992 4.16831C9.91445 4.16831 9.82897 4.19501 9.7435 4.24843L5.47909 6.71958L9.99992 9.31414ZM4.42298 14.0065C4.23891 13.899 4.09461 13.7525 3.99006 13.567C3.88552 13.3815 3.83325 13.1813 3.83325 12.9664V7.01285C3.83325 6.8024 3.88552 6.60622 3.99006 6.4243C4.09461 6.2424 4.23891 6.09884 4.42298 5.99362L9.41017 3.09458C9.59468 2.98774 9.79172 2.93433 10.0013 2.93433C10.2108 2.93433 10.407 2.98774 10.5897 3.09458L15.5769 5.99362C15.7609 6.09884 15.9052 6.2424 16.0098 6.4243C16.1143 6.60622 16.1666 6.8024 16.1666 7.01285V12.9872C16.1666 13.1977 16.1143 13.3938 16.0098 13.5757C15.9052 13.7576 15.7609 13.9012 15.5769 14.0065L10.5897 16.9055C10.4052 17.0123 10.2081 17.0657 9.99854 17.0657C9.78899 17.0657 9.59286 17.0123 9.41017 16.9055L4.42298 14.0065Z" fill="currentColor"/>
</g>
</svg>
