<svg width="20" height="20" viewBox="0 0 20 20" fill="none" xmlns="http://www.w3.org/2000/svg">
<mask id="mask0_2494_8497" style="mask-type:alpha" maskUnits="userSpaceOnUse" x="0" y="0" width="20" height="20">
<rect width="20" height="20" fill="#D9D9D9"/>
</mask>
<g mask="url(#mask0_2494_8497)">
<path d="M4.37821 15.7499H5.47115L13 8.22105L11.9071 7.12809L4.37821 14.657V15.7499ZM15.8189 7.31722L12.8189 4.30124L13.7677 3.35253C14.0347 3.08545 14.3504 2.9519 14.7148 2.9519C15.0791 2.9519 15.3948 3.08545 15.6618 3.35253L16.7756 4.4663C17.0288 4.71949 17.1527 5.03786 17.1474 5.4214C17.1421 5.80495 17.0128 6.12331 16.7596 6.37651L15.8189 7.31722ZM3.83978 17.0832C3.62504 17.0832 3.43888 17.0044 3.2813 16.8468C3.12371 16.6893 3.04492 16.5031 3.04492 16.2884V14.3974C3.04492 14.297 3.06308 14.2013 3.0994 14.1105C3.13572 14.0197 3.19288 13.9353 3.27088 13.8573L11.8943 5.2339L14.8942 8.23386L6.27082 16.8573C6.19283 16.9353 6.10844 16.9924 6.01763 17.0287C5.92681 17.0651 5.83119 17.0832 5.73075 17.0832H3.83978Z" fill="currentColor"/>
</g>
</svg>
