<svg width="20" height="20" viewBox="0 0 20 20" fill="none" xmlns="http://www.w3.org/2000/svg">
<mask id="mask0_2370_2871" style="mask-type:alpha" maskUnits="userSpaceOnUse" x="0" y="0" width="20" height="20">
<rect width="20" height="20" fill="#D9D9D9"/>
</mask>
<g mask="url(#mask0_2370_2871)">
<path d="M10 12.2179C9.90495 12.2179 9.80933 12.1984 9.71318 12.1594C9.61702 12.1204 9.52301 12.055 9.43113 11.9631L5.75645 8.28846C5.62184 8.15385 5.56014 7.99226 5.57136 7.80369C5.58257 7.61512 5.64854 7.46047 5.76928 7.33975C5.91778 7.19125 6.07803 7.12047 6.25003 7.12742C6.42203 7.13436 6.57534 7.20514 6.70995 7.33975L10 10.6507L13.3029 7.34777C13.4375 7.21316 13.5887 7.14451 13.7564 7.14183C13.9242 7.13917 14.0823 7.21208 14.2308 7.36058C14.3654 7.4952 14.4327 7.65198 14.4327 7.83094C14.4327 8.00988 14.3654 8.16666 14.2308 8.30127L10.5689 11.9631C10.4771 12.055 10.3844 12.1204 10.2909 12.1594C10.1974 12.1984 10.1005 12.2179 10 12.2179Z" fill="currentColor"/>
</g>
</svg>
