<svg width="20" height="20" viewBox="0 0 20 20" fill="none" xmlns="http://www.w3.org/2000/svg">
<mask id="mask0_2491_3580" style="mask-type:alpha" maskUnits="userSpaceOnUse" x="0" y="0" width="20" height="20">
<rect width="20" height="20" fill="#D9D9D9"/>
</mask>
<g mask="url(#mask0_2491_3580)">
<path d="M9.99765 15C10.277 15 10.5139 14.9036 10.7083 14.7107C10.9028 14.5178 11 14.2817 11 14.0024C11 13.723 10.9036 13.4861 10.7107 13.2917C10.5178 13.0972 10.2817 13 10.0024 13C9.72301 13 9.48611 13.0964 9.29167 13.2893C9.09722 13.4822 9 13.7183 9 13.9976C9 14.277 9.09644 14.5139 9.28931 14.7083C9.4822 14.9028 9.71831 15 9.99765 15ZM10.0058 18C8.9047 18 7.86806 17.7917 6.89583 17.375C5.92361 16.9583 5.07292 16.3854 4.34375 15.6562C3.61458 14.9271 3.04167 14.0767 2.625 13.105C2.20833 12.1334 2 11.0952 2 9.99046C2 8.88571 2.20833 7.85069 2.625 6.88542C3.04167 5.92014 3.61458 5.07292 4.34375 4.34375C5.07292 3.61458 5.92332 3.04167 6.89496 2.625C7.86661 2.20833 8.90481 2 10.0095 2C11.1143 2 12.1493 2.20833 13.1146 2.625C14.0799 3.04167 14.9271 3.61458 15.6562 4.34375C16.3854 5.07292 16.9583 5.92169 17.375 6.89008C17.7917 7.85849 18 8.89321 18 9.99425C18 11.0953 17.7917 12.1319 17.375 13.1042C16.9583 14.0764 16.3854 14.9271 15.6562 15.6562C14.9271 16.3854 14.0783 16.9583 13.1099 17.375C12.1415 17.7917 11.1068 18 10.0058 18ZM10 16.5C11.8056 16.5 13.3403 15.8681 14.6042 14.6042C15.8681 13.3403 16.5 11.8056 16.5 10C16.5 8.19444 15.8681 6.65972 14.6042 5.39583C13.3403 4.13194 11.8056 3.5 10 3.5C8.19444 3.5 6.65972 4.13194 5.39583 5.39583C4.13194 6.65972 3.5 8.19444 3.5 10C3.5 11.8056 4.13194 13.3403 5.39583 14.6042C6.65972 15.8681 8.19444 16.5 10 16.5ZM10.0672 6.41667C10.4188 6.41667 10.7246 6.5292 10.9848 6.75427C11.2449 6.97934 11.375 7.26068 11.375 7.59829C11.375 7.90776 11.2847 8.18056 11.1042 8.41667C10.9236 8.65278 10.7153 8.86806 10.4792 9.0625C10.1597 9.34028 9.875 9.65278 9.625 10C9.375 10.3472 9.25694 10.7361 9.27083 11.1667C9.27083 11.3611 9.34083 11.5174 9.48083 11.6354C9.62083 11.7535 9.78417 11.8125 9.97083 11.8125C10.1708 11.8125 10.3403 11.7535 10.4792 11.6354C10.6181 11.5174 10.7083 11.3611 10.75 11.1667C10.8194 10.8611 10.9514 10.5914 11.1458 10.3574C11.3403 10.1235 11.5486 9.90017 11.7708 9.6875C12.0903 9.38194 12.3507 9.04167 12.5521 8.66667C12.7535 8.29167 12.8542 7.88889 12.8542 7.45833C12.8542 6.75 12.5799 6.16319 12.0312 5.69792C11.4826 5.23264 10.8305 5 10.0748 5C9.55272 5 9.05903 5.11458 8.59375 5.34375C8.12847 5.57292 7.75583 5.91158 7.47583 6.35973C7.36694 6.52269 7.33681 6.70139 7.38542 6.89583C7.43403 7.09028 7.54861 7.22917 7.72917 7.3125C7.92361 7.40972 8.11806 7.43056 8.3125 7.375C8.50694 7.31944 8.66667 7.21528 8.79167 7.0625C8.94444 6.86806 9.13194 6.71181 9.35417 6.59375C9.57639 6.47569 9.81406 6.41667 10.0672 6.41667Z" fill="currentColor"/>
</g>
</svg>
