<svg width="20" height="20" viewBox="0 0 20 20" fill="none" xmlns="http://www.w3.org/2000/svg">
<mask id="mask0_2370_2886" style="mask-type:alpha" maskUnits="userSpaceOnUse" x="0" y="0" width="20" height="20">
<rect width="20" height="20" fill="#D9D9D9"/>
</mask>
<g mask="url(#mask0_2370_2886)">
<path d="M4.20602 15.7211C4.03052 15.7211 3.87594 15.6542 3.74227 15.5205C3.60859 15.3867 3.54175 15.2313 3.54175 15.0541C3.54175 14.877 3.60859 14.7216 3.74227 14.5881C3.87594 14.4545 4.03131 14.3877 4.20839 14.3877H5.18758V8.44249C5.18758 7.35151 5.5348 6.36611 6.22925 5.48631C6.92369 4.6065 7.81953 4.04374 8.91675 3.79801V3.21468C8.91675 2.90931 9.02119 2.65241 9.23008 2.44399C9.43898 2.23556 9.69646 2.13135 10.0025 2.13135C10.3086 2.13135 10.5652 2.23556 10.7725 2.44399C10.9797 2.65241 11.0834 2.90931 11.0834 3.21468V3.79801C12.1821 4.04374 13.0749 4.6065 13.7616 5.48631C14.4483 6.36611 14.7917 7.35151 14.7917 8.44249V14.3877H15.7917C15.9688 14.3877 16.1242 14.4546 16.2579 14.5883C16.3915 14.7221 16.4584 14.8775 16.4584 15.0547C16.4584 15.2318 16.3915 15.3872 16.2579 15.5207C16.1242 15.6543 15.9696 15.7211 15.7941 15.7211H4.20602ZM10.0001 18.173C9.57592 18.173 9.21882 18.0306 8.92875 17.7459C8.63869 17.4612 8.49366 17.1014 8.49366 16.6666H11.5065C11.5065 17.1014 11.3641 17.4612 11.0794 17.7459C10.7947 18.0306 10.4349 18.173 10.0001 18.173ZM6.52087 14.3877H13.4584V8.45024C13.4584 7.49919 13.1254 6.68504 12.4592 6.00779C11.7931 5.33052 10.9729 4.99189 9.9985 4.99189C9.05189 4.99189 8.23563 5.33052 7.54973 6.00779C6.86382 6.68504 6.52087 7.49919 6.52087 8.45024V14.3877Z" fill="currentColor"/>
</g>
</svg>
