<svg width="20" height="20" viewBox="0 0 20 20" fill="none" xmlns="http://www.w3.org/2000/svg">
<mask id="mask0_2494_8788" style="mask-type:alpha" maskUnits="userSpaceOnUse" x="0" y="0" width="20" height="20">
<rect width="20" height="20" fill="#D9D9D9"/>
</mask>
<g mask="url(#mask0_2494_8788)">
<path d="M10.0001 17.7082C9.0866 17.7082 8.23071 17.5355 7.43239 17.1901C6.63407 16.8447 5.93792 16.375 5.34394 15.781C4.74996 15.187 4.28028 14.4909 3.93487 13.6926C3.58946 12.8942 3.41675 12.0384 3.41675 11.1249C3.41675 10.9712 3.46817 10.8424 3.57102 10.7388C3.67387 10.6351 3.80153 10.5832 3.95402 10.5832C4.10652 10.5832 4.23565 10.6351 4.34141 10.7388C4.44718 10.8424 4.50006 10.9712 4.50006 11.1249C4.50006 12.6388 5.03825 13.9339 6.11464 15.0103C7.19103 16.0867 8.48617 16.6249 10.0001 16.6249C11.5139 16.6249 12.8091 16.0867 13.8855 15.0103C14.9619 13.9339 15.5001 12.6388 15.5001 11.1249C15.5001 9.611 14.9619 8.31587 13.8855 7.23948C12.8091 6.16309 11.5112 5.62489 9.99194 5.62489H9.77889L10.4969 6.34285C10.6069 6.45289 10.6646 6.58056 10.6699 6.72585C10.6753 6.87114 10.6209 7.00148 10.5068 7.11687C10.3848 7.23225 10.2538 7.2886 10.1139 7.28593C9.97391 7.28327 9.84624 7.22424 9.73085 7.10885L8.16998 5.53998C8.03323 5.40827 7.96485 5.25461 7.96485 5.07902C7.96485 4.90342 8.03323 4.74725 8.16998 4.6105L9.74689 3.0416C9.85692 2.93156 9.97978 2.87386 10.1155 2.86852C10.2511 2.86318 10.38 2.91821 10.502 3.03358C10.6161 3.14897 10.6718 3.27798 10.6691 3.4206C10.6665 3.56323 10.6074 3.69223 10.4921 3.8076L9.75806 4.54158H10.0001C10.9135 4.54158 11.7694 4.71429 12.5677 5.05971C13.366 5.40511 14.0622 5.8748 14.6562 6.46877C15.2502 7.06275 15.7198 7.75891 16.0652 8.55723C16.4107 9.35555 16.5834 10.2114 16.5834 11.1249C16.5834 12.0384 16.4107 12.8942 16.0652 13.6926C15.7198 14.4909 15.2502 15.187 14.6562 15.781C14.0622 16.375 13.366 16.8447 12.5677 17.1901C11.7694 17.5355 10.9135 17.7082 10.0001 17.7082Z" fill="currentColor"/>
</g>
</svg>
