<svg width="20" height="20" viewBox="0 0 20 20" fill="none" xmlns="http://www.w3.org/2000/svg">
<mask id="mask0_2366_5593" style="mask-type:alpha" maskUnits="userSpaceOnUse" x="0" y="0" width="20" height="20">
<rect width="20" height="20" fill="#D9D9D9"/>
</mask>
<g mask="url(#mask0_2366_5593)">
<path d="M11.2789 17.9165H8.7132C8.51234 17.9165 8.34007 17.8503 8.19637 17.7178C8.05268 17.5853 7.96694 17.4187 7.93916 17.2178L7.71802 15.4198C7.53639 15.3311 7.32485 15.2194 7.08339 15.0848C6.84193 14.9502 6.63573 14.8198 6.46479 14.6938L4.80775 15.4069C4.61544 15.4903 4.42447 15.4972 4.23483 15.4278C4.04519 15.3583 3.90015 15.2344 3.79972 15.056L2.52572 12.8316C2.42529 12.6532 2.39805 12.4705 2.44399 12.2836C2.48993 12.0966 2.58821 11.939 2.73885 11.8108L4.1411 10.7339C4.13575 10.6238 4.12907 10.5028 4.12106 10.3709C4.11304 10.239 4.10904 10.118 4.10904 10.0079C4.10904 9.90321 4.11304 9.78622 4.12106 9.65694C4.12907 9.52766 4.13575 9.39732 4.1411 9.26592L2.73885 8.18898C2.58821 8.06079 2.48993 7.9032 2.44399 7.71623C2.39805 7.52927 2.42529 7.34659 2.52572 7.16817L3.79972 4.95988C3.9055 4.78679 4.05054 4.6642 4.23483 4.59209C4.41912 4.51997 4.60742 4.52559 4.79972 4.60892L6.45677 5.31404C6.64374 5.18263 6.85127 5.05095 7.07937 4.919C7.30748 4.78704 7.51769 4.67406 7.71 4.58004L7.93916 2.78198C7.96694 2.58112 8.05268 2.41445 8.19637 2.28198C8.34007 2.1495 8.51234 2.08325 8.7132 2.08325H11.2789C11.4797 2.08325 11.6533 2.1495 11.7997 2.28198C11.9461 2.41445 12.0331 2.58112 12.0609 2.78198L12.2821 4.58806C12.4904 4.69276 12.6993 4.80574 12.9087 4.927C13.1181 5.04827 13.3189 5.17728 13.5112 5.31404L15.2003 4.60892C15.3927 4.52559 15.5823 4.5173 15.7692 4.58406C15.9562 4.65084 16.0999 4.77344 16.2003 4.95186L17.4952 7.16817C17.5956 7.34659 17.6263 7.52927 17.5873 7.71623C17.5483 7.9032 17.4466 8.06079 17.2821 8.18898L15.8478 9.28994C15.8638 9.41068 15.8731 9.53301 15.8758 9.65694C15.8785 9.78087 15.8798 9.89519 15.8798 9.9999C15.8798 10.0993 15.8771 10.2109 15.8718 10.3348C15.8665 10.4588 15.8611 10.5891 15.8558 10.7259L17.274 11.8108C17.4439 11.9337 17.547 12.0899 17.5833 12.2795C17.6197 12.4692 17.5876 12.6532 17.4872 12.8316L16.1923 15.064C16.0919 15.2424 15.9482 15.3636 15.7612 15.4278C15.5743 15.4918 15.3846 15.4822 15.1923 15.3989L13.5112 14.6858C13.3189 14.8225 13.1154 14.9542 12.9007 15.0808C12.6859 15.2074 12.4797 15.3177 12.2821 15.4117L12.0609 17.2178C12.0331 17.4187 11.9461 17.5853 11.7997 17.7178C11.6533 17.8503 11.4797 17.9165 11.2789 17.9165ZM9.96797 12.5624C10.6752 12.5624 11.2791 12.3121 11.7797 11.8116C12.2802 11.311 12.5305 10.7071 12.5305 9.9999C12.5305 9.29265 12.2802 8.68875 11.7797 8.18821C11.2791 7.68768 10.6752 7.43742 9.96797 7.43742C9.26607 7.43742 8.66352 7.68768 8.16031 8.18821C7.65711 8.68875 7.40552 9.29265 7.40552 9.9999C7.40552 10.7071 7.65711 11.311 8.16031 11.8116C8.66352 12.3121 9.26607 12.5624 9.96797 12.5624ZM9.96797 11.2291C9.63464 11.2291 9.34645 11.1075 9.10339 10.8645C8.86034 10.6214 8.73881 10.3332 8.73881 9.9999C8.73881 9.66656 8.86034 9.37837 9.10339 9.13531C9.34645 8.89226 9.63464 8.77073 9.96797 8.77073C10.3013 8.77073 10.5895 8.89226 10.8326 9.13531C11.0756 9.37837 11.1971 9.66656 11.1971 9.9999C11.1971 10.3332 11.0756 10.6214 10.8326 10.8645C10.5895 11.1075 10.3013 11.2291 9.96797 11.2291ZM9.1667 16.5832H10.8253L11.0834 14.3925C11.4808 14.2814 11.859 14.1201 12.218 13.9085C12.5769 13.697 12.9199 13.4305 13.2468 13.1089L15.2757 13.9791L16.117 12.6041L14.3302 11.2419C14.3996 11.0261 14.4469 10.818 14.472 10.6177C14.4971 10.4174 14.5096 10.2114 14.5096 9.9999C14.5096 9.8108 14.4971 9.62223 14.472 9.43419C14.4469 9.24616 14.4066 9.03302 14.351 8.79477L16.1539 7.39573L15.3125 6.02073L13.2596 6.90375C12.9669 6.60567 12.6258 6.34231 12.2364 6.11369C11.847 5.88505 11.4669 5.72319 11.0962 5.62811L10.8334 3.41656H9.15868L8.90389 5.62009C8.50645 5.72052 8.1277 5.87436 7.76766 6.08163C7.40762 6.28889 7.06414 6.55599 6.73722 6.88292L4.70837 6.02073L3.86702 7.39573L5.62504 8.75792C5.56948 8.96945 5.52781 9.18205 5.50004 9.39573C5.47226 9.60941 5.45837 9.81347 5.45837 10.0079C5.45837 10.197 5.47226 10.3923 5.50004 10.5936C5.52781 10.795 5.56681 11.0042 5.61702 11.221L3.86702 12.6041L4.70837 13.9791L6.7292 13.1249C7.04544 13.4358 7.38358 13.6949 7.74362 13.9021C8.10366 14.1094 8.48775 14.2686 8.89587 14.3797L9.1667 16.5832Z" fill="currentColor"/>
</g>
</svg>
