<?xml version="1.0" encoding="UTF-8" standalone="no"?>
<!DOCTYPE svg PUBLIC "-//W3C//DTD SVG 1.1//EN"
 "http://www.w3.org/Graphics/SVG/1.1/DTD/svg11.dtd">
<!-- Generated by graphviz version 2.40.1 (20161225.0304)
 -->
<!-- Title: applications Pages: 1 -->
<svg width="1895pt" height="1109pt"
 viewBox="0.00 0.00 1895.00 1109.00" xmlns="http://www.w3.org/2000/svg" xmlns:xlink="http://www.w3.org/1999/xlink">
<g id="graph0" class="graph" transform="scale(1 1) rotate(0) translate(4 1105)">
<title>applications</title>
<polygon fill="#ffffff" stroke="transparent" points="-4,4 -4,-1105 1891,-1105 1891,4 -4,4"/>
<!-- applications -->
<g id="node1" class="node">
<title>applications</title>
<polygon fill="#efefef" stroke="transparent" points="888.5,-592.5 888.5,-627.5 1117.5,-627.5 1117.5,-592.5 888.5,-592.5"/>
<polygon fill="none" stroke="#000000" points="888.5,-592.5 888.5,-627.5 1117.5,-627.5 1117.5,-592.5 888.5,-592.5"/>
<text text-anchor="start" x="906.8621" y="-605.3" font-family="Arial Bold" font-size="18.00" fill="#000000">applications</text>
<text text-anchor="start" x="1001.8841" y="-605.3" font-family="Arial" font-size="14.00" fill="#000000"> </text>
<text text-anchor="start" x="1005.7747" y="-605.3" font-family="Arial" font-size="14.00" fill="#666666">[BASE TABLE]</text>
<polygon fill="none" stroke="#000000" points="888.5,-562.5 888.5,-592.5 1117.5,-592.5 1117.5,-562.5 888.5,-562.5"/>
<text text-anchor="start" x="895.5" y="-573.9" font-family="Arial" font-size="14.00" fill="#000000">id </text>
<text text-anchor="start" x="910.2798" y="-573.9" font-family="Arial" font-size="14.00" fill="#666666">[char(22)]</text>
<polygon fill="none" stroke="#000000" points="888.5,-532.5 888.5,-562.5 1117.5,-562.5 1117.5,-532.5 888.5,-532.5"/>
<text text-anchor="start" x="895.5" y="-543.9" font-family="Arial" font-size="14.00" fill="#000000">name </text>
<text text-anchor="start" x="934.399" y="-543.9" font-family="Arial" font-size="14.00" fill="#666666">[varchar(100)]</text>
<polygon fill="none" stroke="#000000" points="888.5,-502.5 888.5,-532.5 1117.5,-532.5 1117.5,-502.5 888.5,-502.5"/>
<text text-anchor="start" x="895.5" y="-513.9" font-family="Arial" font-size="14.00" fill="#000000">repository_id </text>
<text text-anchor="start" x="979.5112" y="-513.9" font-family="Arial" font-size="14.00" fill="#666666">[varchar(22)]</text>
<polygon fill="none" stroke="#000000" points="888.5,-472.5 888.5,-502.5 1117.5,-502.5 1117.5,-472.5 888.5,-472.5"/>
<text text-anchor="start" x="895.5" y="-483.9" font-family="Arial" font-size="14.00" fill="#000000">ref_name </text>
<text text-anchor="start" x="958.5154" y="-483.9" font-family="Arial" font-size="14.00" fill="#666666">[varchar(100)]</text>
<polygon fill="none" stroke="#000000" points="888.5,-442.5 888.5,-472.5 1117.5,-472.5 1117.5,-442.5 888.5,-442.5"/>
<text text-anchor="start" x="895.3008" y="-453.9" font-family="Arial" font-size="14.00" fill="#000000">build_type </text>
<text text-anchor="start" x="962.9908" y="-453.9" font-family="Arial" font-size="14.00" fill="#666666">[enum(&#39;runtime&#39;,&#39;static&#39;)]</text>
<polygon fill="none" stroke="#000000" points="888.5,-412.5 888.5,-442.5 1117.5,-442.5 1117.5,-412.5 888.5,-412.5"/>
<text text-anchor="start" x="895.5" y="-423.9" font-family="Arial" font-size="14.00" fill="#000000">running </text>
<text text-anchor="start" x="946.0708" y="-423.9" font-family="Arial" font-size="14.00" fill="#666666">[tinyint(1)]</text>
<polygon fill="none" stroke="#000000" points="888.5,-382.5 888.5,-412.5 1117.5,-412.5 1117.5,-382.5 888.5,-382.5"/>
<text text-anchor="start" x="895.5" y="-393.9" font-family="Arial" font-size="14.00" fill="#000000">current_commit </text>
<text text-anchor="start" x="995.8338" y="-393.9" font-family="Arial" font-size="14.00" fill="#666666">[char(40)]</text>
<polygon fill="none" stroke="#000000" points="888.5,-352.5 888.5,-382.5 1117.5,-382.5 1117.5,-352.5 888.5,-352.5"/>
<text text-anchor="start" x="895.5" y="-363.9" font-family="Arial" font-size="14.00" fill="#000000">want_commit </text>
<text text-anchor="start" x="981.8366" y="-363.9" font-family="Arial" font-size="14.00" fill="#666666">[char(40)]</text>
<polygon fill="none" stroke="#000000" points="888.5,-322.5 888.5,-352.5 1117.5,-352.5 1117.5,-322.5 888.5,-322.5"/>
<text text-anchor="start" x="895.5" y="-333.9" font-family="Arial" font-size="14.00" fill="#000000">created_at </text>
<text text-anchor="start" x="965.528" y="-333.9" font-family="Arial" font-size="14.00" fill="#666666">[datetime(6)]</text>
<polygon fill="none" stroke="#000000" points="888.5,-292.5 888.5,-322.5 1117.5,-322.5 1117.5,-292.5 888.5,-292.5"/>
<text text-anchor="start" x="895.5" y="-303.9" font-family="Arial" font-size="14.00" fill="#000000">updated_at </text>
<text text-anchor="start" x="969.4326" y="-303.9" font-family="Arial" font-size="14.00" fill="#666666">[datetime(6)]</text>
<polygon fill="none" stroke="#000000" stroke-width="3" points="886.5,-291.5 886.5,-629.5 1118.5,-629.5 1118.5,-291.5 886.5,-291.5"/>
</g>
<!-- repositories -->
<g id="node7" class="node">
<title>repositories</title>
<polygon fill="#efefef" stroke="transparent" points="901.5,-132.5 901.5,-167.5 1105.5,-167.5 1105.5,-132.5 901.5,-132.5"/>
<polygon fill="none" stroke="#000000" points="901.5,-132.5 901.5,-167.5 1105.5,-167.5 1105.5,-132.5 901.5,-132.5"/>
<text text-anchor="start" x="908.3701" y="-145.3" font-family="Arial Bold" font-size="18.00" fill="#000000">repositories</text>
<text text-anchor="start" x="1001.3761" y="-145.3" font-family="Arial" font-size="14.00" fill="#000000"> </text>
<text text-anchor="start" x="1005.2667" y="-145.3" font-family="Arial" font-size="14.00" fill="#666666">[BASE TABLE]</text>
<polygon fill="none" stroke="#000000" points="901.5,-102.5 901.5,-132.5 1105.5,-132.5 1105.5,-102.5 901.5,-102.5"/>
<text text-anchor="start" x="908.5" y="-113.9" font-family="Arial" font-size="14.00" fill="#000000">id </text>
<text text-anchor="start" x="923.2798" y="-113.9" font-family="Arial" font-size="14.00" fill="#666666">[char(22)]</text>
<polygon fill="none" stroke="#000000" points="901.5,-72.5 901.5,-102.5 1105.5,-102.5 1105.5,-72.5 901.5,-72.5"/>
<text text-anchor="start" x="908.5" y="-83.9" font-family="Arial" font-size="14.00" fill="#000000">name </text>
<text text-anchor="start" x="947.399" y="-83.9" font-family="Arial" font-size="14.00" fill="#666666">[varchar(256)]</text>
<polygon fill="none" stroke="#000000" points="901.5,-42.5 901.5,-72.5 1105.5,-72.5 1105.5,-42.5 901.5,-42.5"/>
<text text-anchor="start" x="908.5" y="-53.9" font-family="Arial" font-size="14.00" fill="#000000">url </text>
<text text-anchor="start" x="927.9404" y="-53.9" font-family="Arial" font-size="14.00" fill="#666666">[varchar(256)]</text>
</g>
<!-- applications&#45;&gt;repositories -->
<g id="edge6" class="edge">
<title>applications:repository_id&#45;&gt;repositories:id</title>
<path fill="none" stroke="#000000" d="M1127.6506,-517.0464C1235.201,-507.1 1192.932,-336.0445 1117.5,-247 1054.5921,-172.7397 964.4079,-285.2603 901.5,-211 874.6395,-179.2923 859.9444,-117.5 901.5,-117.5"/>
<polygon fill="#000000" stroke="#000000" points="1127.49,-517.0535 1117.2991,-513.0045 1122.495,-517.2767 1117.5,-517.5 1117.5,-517.5 1117.5,-517.5 1122.495,-517.2767 1117.7009,-521.9955 1127.49,-517.0535 1127.49,-517.0535"/>
<text text-anchor="start" x="1124.611" y="-527.5" font-family="Arial" font-size="10.00" fill="#000000">FOREIGN KEY (repository_id) REFERENCES repositories (id)</text>
</g>
<!-- application_config -->
<g id="node2" class="node">
<title>application_config</title>
<polygon fill="#efefef" stroke="transparent" points="43.5,-1022.5 43.5,-1057.5 298.5,-1057.5 298.5,-1022.5 43.5,-1022.5"/>
<polygon fill="none" stroke="#000000" points="43.5,-1022.5 43.5,-1057.5 298.5,-1057.5 298.5,-1022.5 43.5,-1022.5"/>
<text text-anchor="start" x="50.3515" y="-1035.3" font-family="Arial Bold" font-size="18.00" fill="#000000">application_config</text>
<text text-anchor="start" x="194.3947" y="-1035.3" font-family="Arial" font-size="14.00" fill="#000000"> </text>
<text text-anchor="start" x="198.2853" y="-1035.3" font-family="Arial" font-size="14.00" fill="#666666">[BASE TABLE]</text>
<polygon fill="none" stroke="#000000" points="43.5,-992.5 43.5,-1022.5 298.5,-1022.5 298.5,-992.5 43.5,-992.5"/>
<text text-anchor="start" x="50.5" y="-1003.9" font-family="Arial" font-size="14.00" fill="#000000">application_id </text>
<text text-anchor="start" x="139.9684" y="-1003.9" font-family="Arial" font-size="14.00" fill="#666666">[char(22)]</text>
<polygon fill="none" stroke="#000000" points="43.5,-962.5 43.5,-992.5 298.5,-992.5 298.5,-962.5 43.5,-962.5"/>
<text text-anchor="start" x="50.5" y="-973.9" font-family="Arial" font-size="14.00" fill="#000000">use_mariadb </text>
<text text-anchor="start" x="135.2966" y="-973.9" font-family="Arial" font-size="14.00" fill="#666666">[tinyint(1)]</text>
<polygon fill="none" stroke="#000000" points="43.5,-932.5 43.5,-962.5 298.5,-962.5 298.5,-932.5 43.5,-932.5"/>
<text text-anchor="start" x="50.5" y="-943.9" font-family="Arial" font-size="14.00" fill="#000000">use_mongodb </text>
<text text-anchor="start" x="143.0946" y="-943.9" font-family="Arial" font-size="14.00" fill="#666666">[tinyint(1)]</text>
<polygon fill="none" stroke="#000000" points="43.5,-902.5 43.5,-932.5 298.5,-932.5 298.5,-902.5 43.5,-902.5"/>
<text text-anchor="start" x="50.5" y="-913.9" font-family="Arial" font-size="14.00" fill="#000000">base_image </text>
<text text-anchor="start" x="130.636" y="-913.9" font-family="Arial" font-size="14.00" fill="#666666">[varchar(1000)]</text>
<polygon fill="none" stroke="#000000" points="43.5,-872.5 43.5,-902.5 298.5,-902.5 298.5,-872.5 43.5,-872.5"/>
<text text-anchor="start" x="50.5" y="-883.9" font-family="Arial" font-size="14.00" fill="#000000">dockerfile_name </text>
<text text-anchor="start" x="157.0764" y="-883.9" font-family="Arial" font-size="14.00" fill="#666666">[varchar(100)]</text>
<polygon fill="none" stroke="#000000" points="43.5,-842.5 43.5,-872.5 298.5,-872.5 298.5,-842.5 43.5,-842.5"/>
<text text-anchor="start" x="50.5" y="-853.9" font-family="Arial" font-size="14.00" fill="#000000">artifact_path </text>
<text text-anchor="start" x="131.4158" y="-853.9" font-family="Arial" font-size="14.00" fill="#666666">[varchar(100)]</text>
<polygon fill="none" stroke="#000000" points="43.5,-812.5 43.5,-842.5 298.5,-842.5 298.5,-812.5 43.5,-812.5"/>
<text text-anchor="start" x="50.5" y="-823.9" font-family="Arial" font-size="14.00" fill="#000000">build_cmd </text>
<text text-anchor="start" x="118.1774" y="-823.9" font-family="Arial" font-size="14.00" fill="#666666">[text]</text>
<polygon fill="none" stroke="#000000" points="43.5,-782.5 43.5,-812.5 298.5,-812.5 298.5,-782.5 43.5,-782.5"/>
<text text-anchor="start" x="50.5" y="-793.9" font-family="Arial" font-size="14.00" fill="#000000">entrypoint_cmd </text>
<text text-anchor="start" x="150.0778" y="-793.9" font-family="Arial" font-size="14.00" fill="#666666">[text]</text>
<polygon fill="none" stroke="#000000" points="43.5,-752.5 43.5,-782.5 298.5,-782.5 298.5,-752.5 43.5,-752.5"/>
<text text-anchor="start" x="50.5" y="-763.9" font-family="Arial" font-size="14.00" fill="#000000">authentication </text>
<text text-anchor="start" x="141.5364" y="-763.9" font-family="Arial" font-size="14.00" fill="#666666">[enum(&#39;off&#39;,&#39;soft&#39;,&#39;hard&#39;)]</text>
</g>
<!-- application_config&#45;&gt;applications -->
<g id="edge1" class="edge">
<title>application_config:application_id&#45;&gt;applications:id</title>
<path fill="none" stroke="#000000" d="M308.3871,-1005.3444C359.1392,-980.9262 306.2901,-756.4046 349.5,-710 433.5546,-619.7309 765.1562,-577.5 888.5,-577.5"/>
<polygon fill="#000000" stroke="#000000" points="308.2705,-1005.3698 297.5414,-1003.1033 303.3852,-1006.4349 298.5,-1007.5 298.5,-1007.5 298.5,-1007.5 303.3852,-1006.4349 299.4586,-1011.8967 308.2705,-1005.3698 308.2705,-1005.3698"/>
<text text-anchor="start" x="305.102" y="-1017.5" font-family="Arial" font-size="10.00" fill="#000000">FOREIGN KEY (application_id) REFERENCES applications (id)</text>
</g>
<!-- application_owners -->
<g id="node3" class="node">
<title>application_owners</title>
<polygon fill="#efefef" stroke="transparent" points="402.5,-917.5 402.5,-952.5 667.5,-952.5 667.5,-917.5 402.5,-917.5"/>
<polygon fill="none" stroke="#000000" points="402.5,-917.5 402.5,-952.5 667.5,-952.5 667.5,-917.5 402.5,-917.5"/>
<text text-anchor="start" x="409.3565" y="-930.3" font-family="Arial Bold" font-size="18.00" fill="#000000">application_owners</text>
<text text-anchor="start" x="563.3897" y="-930.3" font-family="Arial" font-size="14.00" fill="#000000"> </text>
<text text-anchor="start" x="567.2803" y="-930.3" font-family="Arial" font-size="14.00" fill="#666666">[BASE TABLE]</text>
<polygon fill="none" stroke="#000000" points="402.5,-887.5 402.5,-917.5 667.5,-917.5 667.5,-887.5 402.5,-887.5"/>
<text text-anchor="start" x="409.5" y="-898.9" font-family="Arial" font-size="14.00" fill="#000000">user_id </text>
<text text-anchor="start" x="459.2882" y="-898.9" font-family="Arial" font-size="14.00" fill="#666666">[char(22)]</text>
<polygon fill="none" stroke="#000000" points="402.5,-857.5 402.5,-887.5 667.5,-887.5 667.5,-857.5 402.5,-857.5"/>
<text text-anchor="start" x="409.5" y="-868.9" font-family="Arial" font-size="14.00" fill="#000000">application_id </text>
<text text-anchor="start" x="498.9684" y="-868.9" font-family="Arial" font-size="14.00" fill="#666666">[char(22)]</text>
</g>
<!-- application_owners&#45;&gt;applications -->
<g id="edge2" class="edge">
<title>application_owners:application_id&#45;&gt;applications:id</title>
<path fill="none" stroke="#000000" d="M677.6148,-871.799C737.0373,-862.8005 678.3115,-769.2102 719.5,-710 774.0037,-631.6487 793.0559,-577.5 888.5,-577.5"/>
<polygon fill="#000000" stroke="#000000" points="677.4761,-871.8086 667.1889,-868.0108 672.488,-872.1543 667.5,-872.5 667.5,-872.5 667.5,-872.5 672.488,-872.1543 667.8111,-876.9892 677.4761,-871.8086 677.4761,-871.8086"/>
<text text-anchor="start" x="674.102" y="-882.5" font-family="Arial" font-size="10.00" fill="#000000">FOREIGN KEY (application_id) REFERENCES applications (id)</text>
</g>
<!-- builds -->
<g id="node4" class="node">
<title>builds</title>
<polygon fill="#efefef" stroke="transparent" points="771.5,-1007.5 771.5,-1042.5 1235.5,-1042.5 1235.5,-1007.5 771.5,-1007.5"/>
<polygon fill="none" stroke="#000000" points="771.5,-1007.5 771.5,-1042.5 1235.5,-1042.5 1235.5,-1007.5 771.5,-1007.5"/>
<text text-anchor="start" x="931.3696" y="-1020.3" font-family="Arial Bold" font-size="18.00" fill="#000000">builds</text>
<text text-anchor="start" x="978.3766" y="-1020.3" font-family="Arial" font-size="14.00" fill="#000000"> </text>
<text text-anchor="start" x="982.2672" y="-1020.3" font-family="Arial" font-size="14.00" fill="#666666">[BASE TABLE]</text>
<polygon fill="none" stroke="#000000" points="771.5,-977.5 771.5,-1007.5 1235.5,-1007.5 1235.5,-977.5 771.5,-977.5"/>
<text text-anchor="start" x="778.5" y="-988.9" font-family="Arial" font-size="14.00" fill="#000000">id </text>
<text text-anchor="start" x="793.2798" y="-988.9" font-family="Arial" font-size="14.00" fill="#666666">[char(22)]</text>
<polygon fill="none" stroke="#000000" points="771.5,-947.5 771.5,-977.5 1235.5,-977.5 1235.5,-947.5 771.5,-947.5"/>
<text text-anchor="start" x="778.5" y="-958.9" font-family="Arial" font-size="14.00" fill="#000000">commit </text>
<text text-anchor="start" x="827.4916" y="-958.9" font-family="Arial" font-size="14.00" fill="#666666">[char(40)]</text>
<polygon fill="none" stroke="#000000" points="771.5,-917.5 771.5,-947.5 1235.5,-947.5 1235.5,-917.5 771.5,-917.5"/>
<text text-anchor="start" x="778.3779" y="-928.9" font-family="Arial" font-size="14.00" fill="#000000">status </text>
<text text-anchor="start" x="819.6149" y="-928.9" font-family="Arial" font-size="14.00" fill="#666666">[enum(&#39;building&#39;,&#39;succeeded&#39;,&#39;failed&#39;,&#39;canceled&#39;,&#39;queued&#39;,&#39;skipped&#39;)]</text>
<polygon fill="none" stroke="#000000" points="771.5,-887.5 771.5,-917.5 1235.5,-917.5 1235.5,-887.5 771.5,-887.5"/>
<text text-anchor="start" x="778.5" y="-898.9" font-family="Arial" font-size="14.00" fill="#000000">started_at </text>
<text text-anchor="start" x="844.636" y="-898.9" font-family="Arial" font-size="14.00" fill="#666666">[datetime(6)]</text>
<polygon fill="none" stroke="#000000" points="771.5,-857.5 771.5,-887.5 1235.5,-887.5 1235.5,-857.5 771.5,-857.5"/>
<text text-anchor="start" x="778.5" y="-868.9" font-family="Arial" font-size="14.00" fill="#000000">updated_at </text>
<text text-anchor="start" x="852.4326" y="-868.9" font-family="Arial" font-size="14.00" fill="#666666">[datetime(6)]</text>
<polygon fill="none" stroke="#000000" points="771.5,-827.5 771.5,-857.5 1235.5,-857.5 1235.5,-827.5 771.5,-827.5"/>
<text text-anchor="start" x="778.5" y="-838.9" font-family="Arial" font-size="14.00" fill="#000000">finished_at </text>
<text text-anchor="start" x="850.0806" y="-838.9" font-family="Arial" font-size="14.00" fill="#666666">[datetime(6)]</text>
<polygon fill="none" stroke="#000000" points="771.5,-797.5 771.5,-827.5 1235.5,-827.5 1235.5,-797.5 771.5,-797.5"/>
<text text-anchor="start" x="778.5" y="-808.9" font-family="Arial" font-size="14.00" fill="#000000">retriable </text>
<text text-anchor="start" x="832.946" y="-808.9" font-family="Arial" font-size="14.00" fill="#666666">[tinyint(1)]</text>
<polygon fill="none" stroke="#000000" points="771.5,-767.5 771.5,-797.5 1235.5,-797.5 1235.5,-767.5 771.5,-767.5"/>
<text text-anchor="start" x="778.5" y="-778.9" font-family="Arial" font-size="14.00" fill="#000000">application_id </text>
<text text-anchor="start" x="867.9684" y="-778.9" font-family="Arial" font-size="14.00" fill="#666666">[char(22)]</text>
</g>
<!-- builds&#45;&gt;applications -->
<g id="edge3" class="edge">
<title>builds:application_id&#45;&gt;applications:id</title>
<path fill="none" stroke="#000000" d="M1004.3013,-757.2628C1013.0533,-705.2226 1091.0615,-729.8778 1117.5,-674 1135.8432,-635.2317 1160.3889,-577.5 1117.5,-577.5"/>
<polygon fill="#000000" stroke="#000000" points="1004.2804,-757.5305 999.0137,-767.1488 1003.8902,-762.5152 1003.5,-767.5 1003.5,-767.5 1003.5,-767.5 1003.8902,-762.5152 1007.9863,-767.8512 1004.2804,-757.5305 1004.2804,-757.5305"/>
<text text-anchor="start" x="714.102" y="-777.5" font-family="Arial" font-size="10.00" fill="#000000">FOREIGN KEY (application_id) REFERENCES applications (id)</text>
</g>
<!-- environments -->
<g id="node5" class="node">
<title>environments</title>
<polygon fill="#efefef" stroke="transparent" points="1340.5,-947.5 1340.5,-982.5 1559.5,-982.5 1559.5,-947.5 1340.5,-947.5"/>
<polygon fill="none" stroke="#000000" points="1340.5,-947.5 1340.5,-982.5 1559.5,-982.5 1559.5,-947.5 1340.5,-947.5"/>
<text text-anchor="start" x="1347.3641" y="-960.3" font-family="Arial Bold" font-size="18.00" fill="#000000">environments</text>
<text text-anchor="start" x="1455.3821" y="-960.3" font-family="Arial" font-size="14.00" fill="#000000"> </text>
<text text-anchor="start" x="1459.2727" y="-960.3" font-family="Arial" font-size="14.00" fill="#666666">[BASE TABLE]</text>
<polygon fill="none" stroke="#000000" points="1340.5,-917.5 1340.5,-947.5 1559.5,-947.5 1559.5,-917.5 1340.5,-917.5"/>
<text text-anchor="start" x="1347.5" y="-928.9" font-family="Arial" font-size="14.00" fill="#000000">application_id </text>
<text text-anchor="start" x="1436.9684" y="-928.9" font-family="Arial" font-size="14.00" fill="#666666">[char(22)]</text>
<polygon fill="none" stroke="#000000" points="1340.5,-887.5 1340.5,-917.5 1559.5,-917.5 1559.5,-887.5 1340.5,-887.5"/>
<text text-anchor="start" x="1347.5" y="-898.9" font-family="Arial" font-size="14.00" fill="#000000">key </text>
<text text-anchor="start" x="1373.1732" y="-898.9" font-family="Arial" font-size="14.00" fill="#666666">[varchar(100)]</text>
<polygon fill="none" stroke="#000000" points="1340.5,-857.5 1340.5,-887.5 1559.5,-887.5 1559.5,-857.5 1340.5,-857.5"/>
<text text-anchor="start" x="1347.5" y="-868.9" font-family="Arial" font-size="14.00" fill="#000000">value </text>
<text text-anchor="start" x="1384.845" y="-868.9" font-family="Arial" font-size="14.00" fill="#666666">[text]</text>
<polygon fill="none" stroke="#000000" points="1340.5,-827.5 1340.5,-857.5 1559.5,-857.5 1559.5,-827.5 1340.5,-827.5"/>
<text text-anchor="start" x="1347.5" y="-838.9" font-family="Arial" font-size="14.00" fill="#000000">system </text>
<text text-anchor="start" x="1395.7244" y="-838.9" font-family="Arial" font-size="14.00" fill="#666666">[tinyint(1)]</text>
</g>
<!-- environments&#45;&gt;applications -->
<g id="edge4" class="edge">
<title>environments:application_id&#45;&gt;applications:id</title>
<path fill="none" stroke="#000000" d="M1330.2675,-931.9723C1246.1256,-922.6678 1340.4809,-792.4233 1287.5,-710 1235.7023,-629.4175 1213.2943,-577.5 1117.5,-577.5"/>
<polygon fill="#000000" stroke="#000000" points="1330.5133,-931.9849 1340.2682,-936.994 1335.5066,-932.2425 1340.5,-932.5 1340.5,-932.5 1340.5,-932.5 1335.5066,-932.2425 1340.7318,-928.006 1330.5133,-931.9849 1330.5133,-931.9849"/>
<text text-anchor="start" x="1125.102" y="-916.5" font-family="Arial" font-size="10.00" fill="#000000">FOREIGN KEY (application_id) REFERENCES applications (id)</text>
</g>
<!-- websites -->
<g id="node6" class="node">
<title>websites</title>
<polygon fill="#efefef" stroke="transparent" points="1663.5,-992.5 1663.5,-1027.5 1844.5,-1027.5 1844.5,-992.5 1663.5,-992.5"/>
<polygon fill="none" stroke="#000000" points="1663.5,-992.5 1663.5,-1027.5 1844.5,-1027.5 1844.5,-992.5 1663.5,-992.5"/>
<text text-anchor="start" x="1670.3685" y="-1005.3" font-family="Arial Bold" font-size="18.00" fill="#000000">websites</text>
<text text-anchor="start" x="1740.3777" y="-1005.3" font-family="Arial" font-size="14.00" fill="#000000"> </text>
<text text-anchor="start" x="1744.2683" y="-1005.3" font-family="Arial" font-size="14.00" fill="#666666">[BASE TABLE]</text>
<polygon fill="none" stroke="#000000" points="1663.5,-962.5 1663.5,-992.5 1844.5,-992.5 1844.5,-962.5 1663.5,-962.5"/>
<text text-anchor="start" x="1670.5" y="-973.9" font-family="Arial" font-size="14.00" fill="#000000">id </text>
<text text-anchor="start" x="1685.2798" y="-973.9" font-family="Arial" font-size="14.00" fill="#666666">[char(22)]</text>
<polygon fill="none" stroke="#000000" points="1663.5,-932.5 1663.5,-962.5 1844.5,-962.5 1844.5,-932.5 1663.5,-932.5"/>
<text text-anchor="start" x="1670.5" y="-943.9" font-family="Arial" font-size="14.00" fill="#000000">fqdn </text>
<text text-anchor="start" x="1701.629" y="-943.9" font-family="Arial" font-size="14.00" fill="#666666">[varchar(100)]</text>
<polygon fill="none" stroke="#000000" points="1663.5,-902.5 1663.5,-932.5 1844.5,-932.5 1844.5,-902.5 1663.5,-902.5"/>
<text text-anchor="start" x="1670.5" y="-913.9" font-family="Arial" font-size="14.00" fill="#000000">path_prefix </text>
<text text-anchor="start" x="1743.6346" y="-913.9" font-family="Arial" font-size="14.00" fill="#666666">[varchar(100)]</text>
<polygon fill="none" stroke="#000000" points="1663.5,-872.5 1663.5,-902.5 1844.5,-902.5 1844.5,-872.5 1663.5,-872.5"/>
<text text-anchor="start" x="1670.5" y="-883.9" font-family="Arial" font-size="14.00" fill="#000000">strip_prefix </text>
<text text-anchor="start" x="1742.8366" y="-883.9" font-family="Arial" font-size="14.00" fill="#666666">[tinyint(1)]</text>
<polygon fill="none" stroke="#000000" points="1663.5,-842.5 1663.5,-872.5 1844.5,-872.5 1844.5,-842.5 1663.5,-842.5"/>
<text text-anchor="start" x="1670.5" y="-853.9" font-family="Arial" font-size="14.00" fill="#000000">https </text>
<text text-anchor="start" x="1704.737" y="-853.9" font-family="Arial" font-size="14.00" fill="#666666">[tinyint(1)]</text>
<polygon fill="none" stroke="#000000" points="1663.5,-812.5 1663.5,-842.5 1844.5,-842.5 1844.5,-812.5 1663.5,-812.5"/>
<text text-anchor="start" x="1670.5" y="-823.9" font-family="Arial" font-size="14.00" fill="#000000">http_port </text>
<text text-anchor="start" x="1729.636" y="-823.9" font-family="Arial" font-size="14.00" fill="#666666">[int(11)]</text>
<polygon fill="none" stroke="#000000" points="1663.5,-782.5 1663.5,-812.5 1844.5,-812.5 1844.5,-782.5 1663.5,-782.5"/>
<text text-anchor="start" x="1670.5" y="-793.9" font-family="Arial" font-size="14.00" fill="#000000">application_id </text>
<text text-anchor="start" x="1759.9684" y="-793.9" font-family="Arial" font-size="14.00" fill="#666666">[char(22)]</text>
</g>
<!-- websites&#45;&gt;applications -->
<g id="edge5" class="edge">
<title>websites:application_id&#45;&gt;applications:id</title>
<path fill="none" stroke="#000000" d="M1653.3997,-796.2257C1622.8148,-787.3987 1644.4603,-734.9693 1611.5,-710 1520.9033,-641.3678 1231.158,-577.5 1117.5,-577.5"/>
<polygon fill="#000000" stroke="#000000" points="1653.5787,-796.2481 1662.9367,-801.9646 1658.5393,-796.8741 1663.5,-797.5 1663.5,-797.5 1663.5,-797.5 1658.5393,-796.8741 1664.0633,-793.0354 1653.5787,-796.2481 1653.5787,-796.2481"/>
<text text-anchor="start" x="1374.102" y="-781.5" font-family="Arial" font-size="10.00" fill="#000000">FOREIGN KEY (application_id) REFERENCES applications (id)</text>
</g>
</g>
</svg>
