<?xml version="1.0" encoding="UTF-8" standalone="no"?>
<!DOCTYPE svg PUBLIC "-//W3C//DTD SVG 1.1//EN"
        "http://www.w3.org/Graphics/SVG/1.1/DTD/svg11.dtd">
<!-- Generated by graphviz version 2.40.1 (20161225.0304)
 -->
<!-- Title: applications Pages: 1 -->
<svg width="871pt" height="989pt"
     viewBox="0.00 0.00 870.50 989.00" xmlns="http://www.w3.org/2000/svg" xmlns:xlink="http://www.w3.org/1999/xlink">
    <g id="graph0" class="graph" transform="scale(1 1) rotate(0) translate(4 985)">
        <title>applications</title>
        <polygon fill="#ffffff" stroke="transparent" points="-4,4 -4,-985 866.5,-985 866.5,4 -4,4"/>
        <!-- applications -->
        <g id="node1" class="node">
            <title>applications</title>
            <polygon fill="#efefef" stroke="transparent"
                     points="349.5,-532.5 349.5,-567.5 569.5,-567.5 569.5,-532.5 349.5,-532.5"/>
            <polygon fill="none" stroke="#000000"
                     points="349.5,-532.5 349.5,-567.5 569.5,-567.5 569.5,-532.5 349.5,-532.5"/>
            <text text-anchor="start" x="363.3621" y="-545.3" font-family="Arial Bold" font-size="18.00" fill="#000000">
                applications
            </text>
            <text text-anchor="start" x="458.3841" y="-545.3" font-family="Arial" font-size="14.00"
                  fill="#000000"></text>
            <text text-anchor="start" x="462.2747" y="-545.3" font-family="Arial" font-size="14.00" fill="#666666">[BASE
                TABLE]
            </text>
            <polygon fill="none" stroke="#000000"
                     points="349.5,-502.5 349.5,-532.5 569.5,-532.5 569.5,-502.5 349.5,-502.5"/>
            <text text-anchor="start" x="356.5" y="-513.9" font-family="Arial" font-size="14.00" fill="#000000">id
            </text>
            <text text-anchor="start" x="371.2798" y="-513.9" font-family="Arial" font-size="14.00" fill="#666666">
                [varchar(22)]
            </text>
            <polygon fill="none" stroke="#000000"
                     points="349.5,-472.5 349.5,-502.5 569.5,-502.5 569.5,-472.5 349.5,-472.5"/>
            <text text-anchor="start" x="356.5" y="-483.9" font-family="Arial" font-size="14.00" fill="#000000">owner
            </text>
            <text text-anchor="start" x="398.5056" y="-483.9" font-family="Arial" font-size="14.00" fill="#666666">
                [varchar(100)]
            </text>
            <polygon fill="none" stroke="#000000"
                     points="349.5,-442.5 349.5,-472.5 569.5,-472.5 569.5,-442.5 349.5,-442.5"/>
            <text text-anchor="start" x="356.5" y="-453.9" font-family="Arial" font-size="14.00" fill="#000000">name
            </text>
            <text text-anchor="start" x="395.399" y="-453.9" font-family="Arial" font-size="14.00" fill="#666666">
                [varchar(100)]
            </text>
            <polygon fill="none" stroke="#000000"
                     points="349.5,-412.5 349.5,-442.5 569.5,-442.5 569.5,-412.5 349.5,-412.5"/>
            <text text-anchor="start" x="356.5" y="-423.9" font-family="Arial" font-size="14.00" fill="#000000">
                repository_id
            </text>
            <text text-anchor="start" x="440.5112" y="-423.9" font-family="Arial" font-size="14.00" fill="#666666">
                [varchar(22)]
            </text>
            <polygon fill="none" stroke="#000000"
                     points="349.5,-382.5 349.5,-412.5 569.5,-412.5 569.5,-382.5 349.5,-382.5"/>
            <text text-anchor="start" x="356.5" y="-393.9" font-family="Arial" font-size="14.00" fill="#000000">
                created_at
            </text>
            <text text-anchor="start" x="426.528" y="-393.9" font-family="Arial" font-size="14.00" fill="#666666">
                [datetime(6)]
            </text>
            <polygon fill="none" stroke="#000000"
                     points="349.5,-352.5 349.5,-382.5 569.5,-382.5 569.5,-352.5 349.5,-352.5"/>
            <text text-anchor="start" x="356.5" y="-363.9" font-family="Arial" font-size="14.00" fill="#000000">
                updated_at
            </text>
            <text text-anchor="start" x="430.4326" y="-363.9" font-family="Arial" font-size="14.00" fill="#666666">
                [datetime(6)]
            </text>
            <polygon fill="none" stroke="#000000"
                     points="349.5,-322.5 349.5,-352.5 569.5,-352.5 569.5,-322.5 349.5,-322.5"/>
            <text text-anchor="start" x="356.5" y="-333.9" font-family="Arial" font-size="14.00" fill="#000000">
                deleted_at
            </text>
            <text text-anchor="start" x="425.7566" y="-333.9" font-family="Arial" font-size="14.00" fill="#666666">
                [datetime(6)]
            </text>
            <polygon fill="none" stroke="#000000"
                     points="349.5,-292.5 349.5,-322.5 569.5,-322.5 569.5,-292.5 349.5,-292.5"/>
            <text text-anchor="start" x="356.0764" y="-303.9" font-family="Arial" font-size="14.00" fill="#000000">
                build_type
            </text>
            <text text-anchor="start" x="423.7664" y="-303.9" font-family="Arial" font-size="14.00" fill="#666666">
                [enum(&#39;image&#39;,&#39;static&#39;)]
            </text>
            <polygon fill="none" stroke="#000000" stroke-width="3"
                     points="348,-291.5 348,-569.5 571,-569.5 571,-291.5 348,-291.5"/>
        </g>
        <!-- repositories -->
        <g id="node4" class="node">
            <title>repositories</title>
            <polygon fill="#efefef" stroke="transparent"
                     points="357.5,-132.5 357.5,-167.5 561.5,-167.5 561.5,-132.5 357.5,-132.5"/>
            <polygon fill="none" stroke="#000000"
                     points="357.5,-132.5 357.5,-167.5 561.5,-167.5 561.5,-132.5 357.5,-132.5"/>
            <text text-anchor="start" x="364.3701" y="-145.3" font-family="Arial Bold" font-size="18.00" fill="#000000">
                repositories
            </text>
            <text text-anchor="start" x="457.3761" y="-145.3" font-family="Arial" font-size="14.00"
                  fill="#000000"></text>
            <text text-anchor="start" x="461.2667" y="-145.3" font-family="Arial" font-size="14.00" fill="#666666">[BASE
                TABLE]
            </text>
            <polygon fill="none" stroke="#000000"
                     points="357.5,-102.5 357.5,-132.5 561.5,-132.5 561.5,-102.5 357.5,-102.5"/>
            <text text-anchor="start" x="364.5" y="-113.9" font-family="Arial" font-size="14.00" fill="#000000">id
            </text>
            <text text-anchor="start" x="379.2798" y="-113.9" font-family="Arial" font-size="14.00" fill="#666666">
                [varchar(22)]
            </text>
            <polygon fill="none" stroke="#000000"
                     points="357.5,-72.5 357.5,-102.5 561.5,-102.5 561.5,-72.5 357.5,-72.5"/>
            <text text-anchor="start" x="364.5" y="-83.9" font-family="Arial" font-size="14.00" fill="#000000">remote
            </text>
            <text text-anchor="start" x="411.9502" y="-83.9" font-family="Arial" font-size="14.00" fill="#666666">
                [text]
            </text>
            <polygon fill="none" stroke="#000000" points="357.5,-42.5 357.5,-72.5 561.5,-72.5 561.5,-42.5 357.5,-42.5"/>
            <text text-anchor="start" x="364.5" y="-53.9" font-family="Arial" font-size="14.00" fill="#000000">refs
            </text>
            <text text-anchor="start" x="391.7244" y="-53.9" font-family="Arial" font-size="14.00" fill="#666666">
                [text]
            </text>
        </g>
        <!-- applications&#45;&gt;repositories -->
        <g id="edge3" class="edge">
            <title>applications:repository_id&#45;&gt;repositories:id</title>
            <path fill="none" stroke="#000000" d="M579.7165,-426.9106C706.8337,-411.9577 695.8242,-117.5 561.5,-117.5"/>
            <polygon fill="#000000" stroke="#000000"
                     points="579.4834,-426.9239 569.2408,-423.0075 574.4917,-427.212 569.5,-427.5 569.5,-427.5 569.5,-427.5 574.4917,-427.212 569.7592,-431.9925 579.4834,-426.9239 579.4834,-426.9239"/>
            <text text-anchor="start" x="576.611" y="-437.5" font-family="Arial" font-size="10.00" fill="#000000">
                FOREIGN KEY (repository_id) REFERENCES repositories (id)
            </text>
        </g>
        <!-- build_logs -->
        <g id="node2" class="node">
            <title>build_logs</title>
            <polygon fill="#efefef" stroke="transparent"
                     points="43.5,-872.5 43.5,-907.5 462.5,-907.5 462.5,-872.5 43.5,-872.5"/>
            <polygon fill="none" stroke="#000000"
                     points="43.5,-872.5 43.5,-907.5 462.5,-907.5 462.5,-872.5 43.5,-872.5"/>
            <text text-anchor="start" x="163.8632" y="-885.3" font-family="Arial Bold" font-size="18.00" fill="#000000">
                build_logs
            </text>
            <text text-anchor="start" x="244.883" y="-885.3" font-family="Arial" font-size="14.00"
                  fill="#000000"></text>
            <text text-anchor="start" x="248.7736" y="-885.3" font-family="Arial" font-size="14.00" fill="#666666">[BASE
                TABLE]
            </text>
            <polygon fill="none" stroke="#000000"
                     points="43.5,-842.5 43.5,-872.5 462.5,-872.5 462.5,-842.5 43.5,-842.5"/>
            <text text-anchor="start" x="50.5" y="-853.9" font-family="Arial" font-size="14.00" fill="#000000">id</text>
            <text text-anchor="start" x="65.2798" y="-853.9" font-family="Arial" font-size="14.00" fill="#666666">
                [varchar(22)]
            </text>
            <polygon fill="none" stroke="#000000"
                     points="43.5,-812.5 43.5,-842.5 462.5,-842.5 462.5,-812.5 43.5,-812.5"/>
            <text text-anchor="start" x="50.5" y="-823.9" font-family="Arial" font-size="14.00" fill="#000000">
                application_id
            </text>
            <text text-anchor="start" x="139.9684" y="-823.9" font-family="Arial" font-size="14.00" fill="#666666">
                [varchar(22)]
            </text>
            <polygon fill="none" stroke="#000000"
                     points="43.5,-782.5 43.5,-812.5 462.5,-812.5 462.5,-782.5 43.5,-782.5"/>
            <text text-anchor="start" x="50.0742" y="-793.9" font-family="Arial" font-size="14.00" fill="#000000">
                result
            </text>
            <text text-anchor="start" x="88.1878" y="-793.9" font-family="Arial" font-size="14.00" fill="#666666">[enum(&#39;BUILDING&#39;,&#39;SUCCEEDED&#39;,&#39;FAILED&#39;,&#39;CANCELED&#39;)]</text>
            <polygon fill="none" stroke="#000000"
                     points="43.5,-752.5 43.5,-782.5 462.5,-782.5 462.5,-752.5 43.5,-752.5"/>
            <text text-anchor="start" x="50.5" y="-763.9" font-family="Arial" font-size="14.00" fill="#000000">
                started_at
            </text>
            <text text-anchor="start" x="116.636" y="-763.9" font-family="Arial" font-size="14.00" fill="#666666">
                [datetime(6)]
            </text>
            <polygon fill="none" stroke="#000000"
                     points="43.5,-722.5 43.5,-752.5 462.5,-752.5 462.5,-722.5 43.5,-722.5"/>
            <text text-anchor="start" x="50.5" y="-733.9" font-family="Arial" font-size="14.00" fill="#000000">
                finished_at
            </text>
            <text text-anchor="start" x="122.0806" y="-733.9" font-family="Arial" font-size="14.00" fill="#666666">
                [datetime(6)]
            </text>
        </g>
        <!-- build_logs&#45;&gt;applications -->
        <g id="edge1" class="edge">
            <title>build_logs:application_id&#45;&gt;applications:id</title>
            <path fill="none" stroke="#000000"
                  d="M472.7095,-826.6502C524.3272,-817.34 493.2865,-733.6347 462.5,-680 433.5461,-629.5581 378.4539,-664.4419 349.5,-614 328.149,-576.8034 306.6111,-517.5 349.5,-517.5"/>
            <polygon fill="#000000" stroke="#000000"
                     points="472.4655,-826.6704 462.1267,-823.0155 467.4828,-827.0852 462.5,-827.5 462.5,-827.5 462.5,-827.5 467.4828,-827.0852 462.8733,-831.9845 472.4655,-826.6704 472.4655,-826.6704"/>
            <text text-anchor="start" x="469.102" y="-837.5" font-family="Arial" font-size="10.00" fill="#000000">
                FOREIGN KEY (application_id) REFERENCES applications (id)
            </text>
        </g>
        <!-- sites -->
        <g id="node3" class="node">
            <title>sites</title>
            <polygon fill="#efefef" stroke="transparent"
                     points="566.5,-902.5 566.5,-937.5 763.5,-937.5 763.5,-902.5 566.5,-902.5"/>
            <polygon fill="none" stroke="#000000"
                     points="566.5,-902.5 566.5,-937.5 763.5,-937.5 763.5,-902.5 566.5,-902.5"/>
            <text text-anchor="start" x="597.8718" y="-915.3" font-family="Arial Bold" font-size="18.00" fill="#000000">
                sites
            </text>
            <text text-anchor="start" x="634.8744" y="-915.3" font-family="Arial" font-size="14.00"
                  fill="#000000"></text>
            <text text-anchor="start" x="638.765" y="-915.3" font-family="Arial" font-size="14.00" fill="#666666">[BASE
                TABLE]
            </text>
            <polygon fill="none" stroke="#000000"
                     points="566.5,-872.5 566.5,-902.5 763.5,-902.5 763.5,-872.5 566.5,-872.5"/>
            <text text-anchor="start" x="573.5" y="-883.9" font-family="Arial" font-size="14.00" fill="#000000">id
            </text>
            <text text-anchor="start" x="588.2798" y="-883.9" font-family="Arial" font-size="14.00" fill="#666666">
                [varchar(22)]
            </text>
            <polygon fill="none" stroke="#000000"
                     points="566.5,-842.5 566.5,-872.5 763.5,-872.5 763.5,-842.5 566.5,-842.5"/>
            <text text-anchor="start" x="573.5" y="-853.9" font-family="Arial" font-size="14.00" fill="#000000">fqdn
            </text>
            <text text-anchor="start" x="604.629" y="-853.9" font-family="Arial" font-size="14.00" fill="#666666">
                [varchar(50)]
            </text>
            <polygon fill="none" stroke="#000000"
                     points="566.5,-812.5 566.5,-842.5 763.5,-842.5 763.5,-812.5 566.5,-812.5"/>
            <text text-anchor="start" x="573.5" y="-823.9" font-family="Arial" font-size="14.00" fill="#000000">
                path_prefix
            </text>
            <text text-anchor="start" x="646.6346" y="-823.9" font-family="Arial" font-size="14.00" fill="#666666">
                [varchar(50)]
            </text>
            <polygon fill="none" stroke="#000000"
                     points="566.5,-782.5 566.5,-812.5 763.5,-812.5 763.5,-782.5 566.5,-782.5"/>
            <text text-anchor="start" x="573.2482" y="-793.9" font-family="Arial" font-size="14.00" fill="#000000">
                type
            </text>
            <text text-anchor="start" x="603.5946" y="-793.9" font-family="Arial" font-size="14.00" fill="#666666">
                [enum(&#39;static&#39;,&#39;dynamic&#39;)]
            </text>
            <polygon fill="none" stroke="#000000"
                     points="566.5,-752.5 566.5,-782.5 763.5,-782.5 763.5,-752.5 566.5,-752.5"/>
            <text text-anchor="start" x="573.5" y="-763.9" font-family="Arial" font-size="14.00" fill="#000000">
                application_id
            </text>
            <text text-anchor="start" x="662.9684" y="-763.9" font-family="Arial" font-size="14.00" fill="#666666">
                [varchar(22)]
            </text>
            <polygon fill="none" stroke="#000000"
                     points="566.5,-722.5 566.5,-752.5 763.5,-752.5 763.5,-722.5 566.5,-722.5"/>
            <text text-anchor="start" x="573.5" y="-733.9" font-family="Arial" font-size="14.00" fill="#000000">
                created_at
            </text>
            <text text-anchor="start" x="643.528" y="-733.9" font-family="Arial" font-size="14.00" fill="#666666">
                [datetime(6)]
            </text>
            <polygon fill="none" stroke="#000000"
                     points="566.5,-692.5 566.5,-722.5 763.5,-722.5 763.5,-692.5 566.5,-692.5"/>
            <text text-anchor="start" x="573.5" y="-703.9" font-family="Arial" font-size="14.00" fill="#000000">
                updated_at
            </text>
            <text text-anchor="start" x="647.4326" y="-703.9" font-family="Arial" font-size="14.00" fill="#666666">
                [datetime(6)]
            </text>
        </g>
        <!-- sites&#45;&gt;applications -->
        <g id="edge2" class="edge">
            <title>sites:application_id&#45;&gt;applications:id</title>
            <path fill="none" stroke="#000000" d="M556.5193,-766.6915C469.9673,-751.174 676.9296,-517.5 569.5,-517.5"/>
            <polygon fill="#000000" stroke="#000000"
                     points="556.5327,-766.6925 566.1366,-771.9853 561.5163,-767.0962 566.5,-767.5 566.5,-767.5 566.5,-767.5 561.5163,-767.0962 566.8634,-763.0147 556.5327,-766.6925 556.5327,-766.6925"/>
            <text text-anchor="start" x="573.102" y="-777.5" font-family="Arial" font-size="10.00" fill="#000000">
                FOREIGN KEY (application_id) REFERENCES applications (id)
            </text>
        </g>
    </g>
</svg>
