<?xml version="1.0" encoding="UTF-8" standalone="no"?>
<!DOCTYPE svg PUBLIC "-//W3C//DTD SVG 1.1//EN"
 "http://www.w3.org/Graphics/SVG/1.1/DTD/svg11.dtd">
<!-- Generated by graphviz version 2.40.1 (20161225.0304)
 -->
<!-- Title: applications Pages: 1 -->
<svg width="1597pt" height="1109pt"
 viewBox="0.00 0.00 1597.00 1109.00" xmlns="http://www.w3.org/2000/svg" xmlns:xlink="http://www.w3.org/1999/xlink">
<g id="graph0" class="graph" transform="scale(1 1) rotate(0) translate(4 1105)">
<title>applications</title>
<polygon fill="#ffffff" stroke="transparent" points="-4,4 -4,-1105 1593,-1105 1593,4 -4,4"/>
<!-- applications -->
<g id="node1" class="node">
<title>applications</title>
<polygon fill="#efefef" stroke="transparent" points="739.5,-592.5 739.5,-627.5 968.5,-627.5 968.5,-592.5 739.5,-592.5"/>
<polygon fill="none" stroke="#000000" points="739.5,-592.5 739.5,-627.5 968.5,-627.5 968.5,-592.5 739.5,-592.5"/>
<text text-anchor="start" x="757.8621" y="-605.3" font-family="Arial Bold" font-size="18.00" fill="#000000">applications</text>
<text text-anchor="start" x="852.8841" y="-605.3" font-family="Arial" font-size="14.00" fill="#000000"> </text>
<text text-anchor="start" x="856.7747" y="-605.3" font-family="Arial" font-size="14.00" fill="#666666">[BASE TABLE]</text>
<polygon fill="none" stroke="#000000" points="739.5,-562.5 739.5,-592.5 968.5,-592.5 968.5,-562.5 739.5,-562.5"/>
<text text-anchor="start" x="746.5" y="-573.9" font-family="Arial" font-size="14.00" fill="#000000">id </text>
<text text-anchor="start" x="761.2798" y="-573.9" font-family="Arial" font-size="14.00" fill="#666666">[char(22)]</text>
<polygon fill="none" stroke="#000000" points="739.5,-532.5 739.5,-562.5 968.5,-562.5 968.5,-532.5 739.5,-532.5"/>
<text text-anchor="start" x="746.5" y="-543.9" font-family="Arial" font-size="14.00" fill="#000000">name </text>
<text text-anchor="start" x="785.399" y="-543.9" font-family="Arial" font-size="14.00" fill="#666666">[varchar(100)]</text>
<polygon fill="none" stroke="#000000" points="739.5,-502.5 739.5,-532.5 968.5,-532.5 968.5,-502.5 739.5,-502.5"/>
<text text-anchor="start" x="746.5" y="-513.9" font-family="Arial" font-size="14.00" fill="#000000">repository_id </text>
<text text-anchor="start" x="830.5112" y="-513.9" font-family="Arial" font-size="14.00" fill="#666666">[varchar(22)]</text>
<polygon fill="none" stroke="#000000" points="739.5,-472.5 739.5,-502.5 968.5,-502.5 968.5,-472.5 739.5,-472.5"/>
<text text-anchor="start" x="746.5" y="-483.9" font-family="Arial" font-size="14.00" fill="#000000">ref_name </text>
<text text-anchor="start" x="809.5154" y="-483.9" font-family="Arial" font-size="14.00" fill="#666666">[varchar(100)]</text>
<polygon fill="none" stroke="#000000" points="739.5,-442.5 739.5,-472.5 968.5,-472.5 968.5,-442.5 739.5,-442.5"/>
<text text-anchor="start" x="746.3008" y="-453.9" font-family="Arial" font-size="14.00" fill="#000000">build_type </text>
<text text-anchor="start" x="813.9908" y="-453.9" font-family="Arial" font-size="14.00" fill="#666666">[enum(&#39;runtime&#39;,&#39;static&#39;)]</text>
<polygon fill="none" stroke="#000000" points="739.5,-412.5 739.5,-442.5 968.5,-442.5 968.5,-412.5 739.5,-412.5"/>
<text text-anchor="start" x="746.5" y="-423.9" font-family="Arial" font-size="14.00" fill="#000000">state </text>
<text text-anchor="start" x="780.737" y="-423.9" font-family="Arial" font-size="14.00" fill="#666666">[varchar(10)]</text>
<polygon fill="none" stroke="#000000" points="739.5,-382.5 739.5,-412.5 968.5,-412.5 968.5,-382.5 739.5,-382.5"/>
<text text-anchor="start" x="746.5" y="-393.9" font-family="Arial" font-size="14.00" fill="#000000">current_commit </text>
<text text-anchor="start" x="846.8338" y="-393.9" font-family="Arial" font-size="14.00" fill="#666666">[char(40)]</text>
<polygon fill="none" stroke="#000000" points="739.5,-352.5 739.5,-382.5 968.5,-382.5 968.5,-352.5 739.5,-352.5"/>
<text text-anchor="start" x="746.5" y="-363.9" font-family="Arial" font-size="14.00" fill="#000000">want_commit </text>
<text text-anchor="start" x="832.8366" y="-363.9" font-family="Arial" font-size="14.00" fill="#666666">[char(40)]</text>
<polygon fill="none" stroke="#000000" points="739.5,-322.5 739.5,-352.5 968.5,-352.5 968.5,-322.5 739.5,-322.5"/>
<text text-anchor="start" x="746.5" y="-333.9" font-family="Arial" font-size="14.00" fill="#000000">created_at </text>
<text text-anchor="start" x="816.528" y="-333.9" font-family="Arial" font-size="14.00" fill="#666666">[datetime(6)]</text>
<polygon fill="none" stroke="#000000" points="739.5,-292.5 739.5,-322.5 968.5,-322.5 968.5,-292.5 739.5,-292.5"/>
<text text-anchor="start" x="746.5" y="-303.9" font-family="Arial" font-size="14.00" fill="#000000">updated_at </text>
<text text-anchor="start" x="820.4326" y="-303.9" font-family="Arial" font-size="14.00" fill="#666666">[datetime(6)]</text>
<polygon fill="none" stroke="#000000" stroke-width="3" points="737.5,-291.5 737.5,-629.5 969.5,-629.5 969.5,-291.5 737.5,-291.5"/>
</g>
<!-- repositories -->
<g id="node7" class="node">
<title>repositories</title>
<polygon fill="#efefef" stroke="transparent" points="588.5,-132.5 588.5,-167.5 792.5,-167.5 792.5,-132.5 588.5,-132.5"/>
<polygon fill="none" stroke="#000000" points="588.5,-132.5 588.5,-167.5 792.5,-167.5 792.5,-132.5 588.5,-132.5"/>
<text text-anchor="start" x="595.3701" y="-145.3" font-family="Arial Bold" font-size="18.00" fill="#000000">repositories</text>
<text text-anchor="start" x="688.3761" y="-145.3" font-family="Arial" font-size="14.00" fill="#000000"> </text>
<text text-anchor="start" x="692.2667" y="-145.3" font-family="Arial" font-size="14.00" fill="#666666">[BASE TABLE]</text>
<polygon fill="none" stroke="#000000" points="588.5,-102.5 588.5,-132.5 792.5,-132.5 792.5,-102.5 588.5,-102.5"/>
<text text-anchor="start" x="595.5" y="-113.9" font-family="Arial" font-size="14.00" fill="#000000">id </text>
<text text-anchor="start" x="610.2798" y="-113.9" font-family="Arial" font-size="14.00" fill="#666666">[char(22)]</text>
<polygon fill="none" stroke="#000000" points="588.5,-72.5 588.5,-102.5 792.5,-102.5 792.5,-72.5 588.5,-72.5"/>
<text text-anchor="start" x="595.5" y="-83.9" font-family="Arial" font-size="14.00" fill="#000000">name </text>
<text text-anchor="start" x="634.399" y="-83.9" font-family="Arial" font-size="14.00" fill="#666666">[varchar(256)]</text>
<polygon fill="none" stroke="#000000" points="588.5,-42.5 588.5,-72.5 792.5,-72.5 792.5,-42.5 588.5,-42.5"/>
<text text-anchor="start" x="595.5" y="-53.9" font-family="Arial" font-size="14.00" fill="#000000">url </text>
<text text-anchor="start" x="614.9404" y="-53.9" font-family="Arial" font-size="14.00" fill="#666666">[varchar(256)]</text>
</g>
<!-- applications&#45;&gt;repositories -->
<g id="edge6" class="edge">
<title>applications:repository_id&#45;&gt;repositories:id</title>
<path fill="none" stroke="#000000" d="M729.403,-517.0826C623.0185,-507.9253 684.8801,-350.1289 739.5,-247 752.8277,-221.8358 779.1723,-236.1642 792.5,-211 811.9495,-174.277 834.0556,-117.5 792.5,-117.5"/>
<polygon fill="#000000" stroke="#000000" points="729.5085,-517.0869 739.3141,-521.9962 734.5043,-517.2935 739.5,-517.5 739.5,-517.5 739.5,-517.5 734.5043,-517.2935 739.6859,-513.0038 729.5085,-517.0869 729.5085,-517.0869"/>
<text text-anchor="start" x="455.611" y="-527.5" font-family="Arial" font-size="10.00" fill="#000000">FOREIGN KEY (repository_id) REFERENCES repositories (id)</text>
</g>
<!-- application_state -->
<g id="node8" class="node">
<title>application_state</title>
<polygon fill="#efefef" stroke="transparent" points="896.5,-102.5 896.5,-137.5 1142.5,-137.5 1142.5,-102.5 896.5,-102.5"/>
<polygon fill="none" stroke="#000000" points="896.5,-102.5 896.5,-137.5 1142.5,-137.5 1142.5,-102.5 896.5,-102.5"/>
<text text-anchor="start" x="903.3506" y="-115.3" font-family="Arial Bold" font-size="18.00" fill="#000000">application_state</text>
<text text-anchor="start" x="1038.3956" y="-115.3" font-family="Arial" font-size="14.00" fill="#000000"> </text>
<text text-anchor="start" x="1042.2862" y="-115.3" font-family="Arial" font-size="14.00" fill="#666666">[BASE TABLE]</text>
<polygon fill="none" stroke="#000000" points="896.5,-72.5 896.5,-102.5 1142.5,-102.5 1142.5,-72.5 896.5,-72.5"/>
<text text-anchor="start" x="903.5" y="-83.9" font-family="Arial" font-size="14.00" fill="#000000">state </text>
<text text-anchor="start" x="937.737" y="-83.9" font-family="Arial" font-size="14.00" fill="#666666">[varchar(10)]</text>
</g>
<!-- applications&#45;&gt;application_state -->
<g id="edge7" class="edge">
<title>applications:state&#45;&gt;application_state:state</title>
<path fill="none" stroke="#000000" d="M978.6382,-427.4039C1256.0931,-422.0232 901.5051,-192.3778 896.5,-181 879.7671,-142.9622 854.9444,-87.5 896.5,-87.5"/>
<polygon fill="#000000" stroke="#000000" points="978.4996,-427.4051 968.4573,-423.0002 973.4998,-427.4526 968.5,-427.5 968.5,-427.5 968.5,-427.5 973.4998,-427.4526 968.5427,-431.9998 978.4996,-427.4051 978.4996,-427.4051"/>
<text text-anchor="start" x="975.761" y="-437.5" font-family="Arial" font-size="10.00" fill="#000000">FOREIGN KEY (state) REFERENCES application_state (state)</text>
</g>
<!-- application_config -->
<g id="node2" class="node">
<title>application_config</title>
<polygon fill="#efefef" stroke="transparent" points="43.5,-1022.5 43.5,-1057.5 298.5,-1057.5 298.5,-1022.5 43.5,-1022.5"/>
<polygon fill="none" stroke="#000000" points="43.5,-1022.5 43.5,-1057.5 298.5,-1057.5 298.5,-1022.5 43.5,-1022.5"/>
<text text-anchor="start" x="50.3515" y="-1035.3" font-family="Arial Bold" font-size="18.00" fill="#000000">application_config</text>
<text text-anchor="start" x="194.3947" y="-1035.3" font-family="Arial" font-size="14.00" fill="#000000"> </text>
<text text-anchor="start" x="198.2853" y="-1035.3" font-family="Arial" font-size="14.00" fill="#666666">[BASE TABLE]</text>
<polygon fill="none" stroke="#000000" points="43.5,-992.5 43.5,-1022.5 298.5,-1022.5 298.5,-992.5 43.5,-992.5"/>
<text text-anchor="start" x="50.5" y="-1003.9" font-family="Arial" font-size="14.00" fill="#000000">application_id </text>
<text text-anchor="start" x="139.9684" y="-1003.9" font-family="Arial" font-size="14.00" fill="#666666">[char(22)]</text>
<polygon fill="none" stroke="#000000" points="43.5,-962.5 43.5,-992.5 298.5,-992.5 298.5,-962.5 43.5,-962.5"/>
<text text-anchor="start" x="50.5" y="-973.9" font-family="Arial" font-size="14.00" fill="#000000">use_mariadb </text>
<text text-anchor="start" x="135.2966" y="-973.9" font-family="Arial" font-size="14.00" fill="#666666">[tinyint(1)]</text>
<polygon fill="none" stroke="#000000" points="43.5,-932.5 43.5,-962.5 298.5,-962.5 298.5,-932.5 43.5,-932.5"/>
<text text-anchor="start" x="50.5" y="-943.9" font-family="Arial" font-size="14.00" fill="#000000">use_mongodb </text>
<text text-anchor="start" x="143.0946" y="-943.9" font-family="Arial" font-size="14.00" fill="#666666">[tinyint(1)]</text>
<polygon fill="none" stroke="#000000" points="43.5,-902.5 43.5,-932.5 298.5,-932.5 298.5,-902.5 43.5,-902.5"/>
<text text-anchor="start" x="50.5" y="-913.9" font-family="Arial" font-size="14.00" fill="#000000">base_image </text>
<text text-anchor="start" x="130.636" y="-913.9" font-family="Arial" font-size="14.00" fill="#666666">[varchar(1000)]</text>
<polygon fill="none" stroke="#000000" points="43.5,-872.5 43.5,-902.5 298.5,-902.5 298.5,-872.5 43.5,-872.5"/>
<text text-anchor="start" x="50.5" y="-883.9" font-family="Arial" font-size="14.00" fill="#000000">dockerfile_name </text>
<text text-anchor="start" x="157.0764" y="-883.9" font-family="Arial" font-size="14.00" fill="#666666">[varchar(100)]</text>
<polygon fill="none" stroke="#000000" points="43.5,-842.5 43.5,-872.5 298.5,-872.5 298.5,-842.5 43.5,-842.5"/>
<text text-anchor="start" x="50.5" y="-853.9" font-family="Arial" font-size="14.00" fill="#000000">artifact_path </text>
<text text-anchor="start" x="131.4158" y="-853.9" font-family="Arial" font-size="14.00" fill="#666666">[varchar(100)]</text>
<polygon fill="none" stroke="#000000" points="43.5,-812.5 43.5,-842.5 298.5,-842.5 298.5,-812.5 43.5,-812.5"/>
<text text-anchor="start" x="50.5" y="-823.9" font-family="Arial" font-size="14.00" fill="#000000">build_cmd </text>
<text text-anchor="start" x="118.1774" y="-823.9" font-family="Arial" font-size="14.00" fill="#666666">[text]</text>
<polygon fill="none" stroke="#000000" points="43.5,-782.5 43.5,-812.5 298.5,-812.5 298.5,-782.5 43.5,-782.5"/>
<text text-anchor="start" x="50.5" y="-793.9" font-family="Arial" font-size="14.00" fill="#000000">entrypoint_cmd </text>
<text text-anchor="start" x="150.0778" y="-793.9" font-family="Arial" font-size="14.00" fill="#666666">[text]</text>
<polygon fill="none" stroke="#000000" points="43.5,-752.5 43.5,-782.5 298.5,-782.5 298.5,-752.5 43.5,-752.5"/>
<text text-anchor="start" x="50.5" y="-763.9" font-family="Arial" font-size="14.00" fill="#000000">authentication </text>
<text text-anchor="start" x="141.5364" y="-763.9" font-family="Arial" font-size="14.00" fill="#666666">[enum(&#39;off&#39;,&#39;soft&#39;,&#39;hard&#39;)]</text>
</g>
<!-- application_config&#45;&gt;applications -->
<g id="edge1" class="edge">
<title>application_config:application_id&#45;&gt;applications:id</title>
<path fill="none" stroke="#000000" d="M308.4054,-1005.3608C359.363,-981.1257 308.3359,-758.2287 349.5,-710 408.9226,-640.3793 647.9681,-577.5 739.5,-577.5"/>
<polygon fill="#000000" stroke="#000000" points="308.2747,-1005.389 297.55,-1003.1014 303.3873,-1006.4445 298.5,-1007.5 298.5,-1007.5 298.5,-1007.5 303.3873,-1006.4445 299.45,-1011.8986 308.2747,-1005.389 308.2747,-1005.389"/>
<text text-anchor="start" x="305.102" y="-1017.5" font-family="Arial" font-size="10.00" fill="#000000">FOREIGN KEY (application_id) REFERENCES applications (id)</text>
</g>
<!-- application_owners -->
<g id="node3" class="node">
<title>application_owners</title>
<polygon fill="#efefef" stroke="transparent" points="402.5,-917.5 402.5,-952.5 667.5,-952.5 667.5,-917.5 402.5,-917.5"/>
<polygon fill="none" stroke="#000000" points="402.5,-917.5 402.5,-952.5 667.5,-952.5 667.5,-917.5 402.5,-917.5"/>
<text text-anchor="start" x="409.3565" y="-930.3" font-family="Arial Bold" font-size="18.00" fill="#000000">application_owners</text>
<text text-anchor="start" x="563.3897" y="-930.3" font-family="Arial" font-size="14.00" fill="#000000"> </text>
<text text-anchor="start" x="567.2803" y="-930.3" font-family="Arial" font-size="14.00" fill="#666666">[BASE TABLE]</text>
<polygon fill="none" stroke="#000000" points="402.5,-887.5 402.5,-917.5 667.5,-917.5 667.5,-887.5 402.5,-887.5"/>
<text text-anchor="start" x="409.5" y="-898.9" font-family="Arial" font-size="14.00" fill="#000000">user_id </text>
<text text-anchor="start" x="459.2882" y="-898.9" font-family="Arial" font-size="14.00" fill="#666666">[char(22)]</text>
<polygon fill="none" stroke="#000000" points="402.5,-857.5 402.5,-887.5 667.5,-887.5 667.5,-857.5 402.5,-857.5"/>
<text text-anchor="start" x="409.5" y="-868.9" font-family="Arial" font-size="14.00" fill="#000000">application_id </text>
<text text-anchor="start" x="498.9684" y="-868.9" font-family="Arial" font-size="14.00" fill="#666666">[char(22)]</text>
</g>
<!-- application_owners&#45;&gt;applications -->
<g id="edge2" class="edge">
<title>application_owners:application_id&#45;&gt;applications:id</title>
<path fill="none" stroke="#000000" d="M677.4934,-871.8955C792.254,-857.1485 608.0988,-577.5 739.5,-577.5"/>
<polygon fill="#000000" stroke="#000000" points="677.4818,-871.8962 667.2283,-868.0082 672.4909,-872.1981 667.5,-872.5 667.5,-872.5 667.5,-872.5 672.4909,-872.1981 667.7717,-876.9918 677.4818,-871.8962 677.4818,-871.8962"/>
<text text-anchor="start" x="674.102" y="-882.5" font-family="Arial" font-size="10.00" fill="#000000">FOREIGN KEY (application_id) REFERENCES applications (id)</text>
</g>
<!-- builds -->
<g id="node4" class="node">
<title>builds</title>
<polygon fill="#efefef" stroke="transparent" points="771.5,-1007.5 771.5,-1042.5 937.5,-1042.5 937.5,-1007.5 771.5,-1007.5"/>
<polygon fill="none" stroke="#000000" points="771.5,-1007.5 771.5,-1042.5 937.5,-1042.5 937.5,-1007.5 771.5,-1007.5"/>
<text text-anchor="start" x="782.3696" y="-1020.3" font-family="Arial Bold" font-size="18.00" fill="#000000">builds</text>
<text text-anchor="start" x="829.3766" y="-1020.3" font-family="Arial" font-size="14.00" fill="#000000"> </text>
<text text-anchor="start" x="833.2672" y="-1020.3" font-family="Arial" font-size="14.00" fill="#666666">[BASE TABLE]</text>
<polygon fill="none" stroke="#000000" points="771.5,-977.5 771.5,-1007.5 937.5,-1007.5 937.5,-977.5 771.5,-977.5"/>
<text text-anchor="start" x="778.5" y="-988.9" font-family="Arial" font-size="14.00" fill="#000000">id </text>
<text text-anchor="start" x="793.2798" y="-988.9" font-family="Arial" font-size="14.00" fill="#666666">[char(22)]</text>
<polygon fill="none" stroke="#000000" points="771.5,-947.5 771.5,-977.5 937.5,-977.5 937.5,-947.5 771.5,-947.5"/>
<text text-anchor="start" x="778.5" y="-958.9" font-family="Arial" font-size="14.00" fill="#000000">commit </text>
<text text-anchor="start" x="827.4916" y="-958.9" font-family="Arial" font-size="14.00" fill="#666666">[char(40)]</text>
<polygon fill="none" stroke="#000000" points="771.5,-917.5 771.5,-947.5 937.5,-947.5 937.5,-917.5 771.5,-917.5"/>
<text text-anchor="start" x="778.5" y="-928.9" font-family="Arial" font-size="14.00" fill="#000000">status </text>
<text text-anchor="start" x="819.737" y="-928.9" font-family="Arial" font-size="14.00" fill="#666666">[varchar(10)]</text>
<polygon fill="none" stroke="#000000" points="771.5,-887.5 771.5,-917.5 937.5,-917.5 937.5,-887.5 771.5,-887.5"/>
<text text-anchor="start" x="778.5" y="-898.9" font-family="Arial" font-size="14.00" fill="#000000">started_at </text>
<text text-anchor="start" x="844.636" y="-898.9" font-family="Arial" font-size="14.00" fill="#666666">[datetime(6)]</text>
<polygon fill="none" stroke="#000000" points="771.5,-857.5 771.5,-887.5 937.5,-887.5 937.5,-857.5 771.5,-857.5"/>
<text text-anchor="start" x="778.2518" y="-868.9" font-family="Arial" font-size="14.00" fill="#000000">updated_at </text>
<text text-anchor="start" x="852.1844" y="-868.9" font-family="Arial" font-size="14.00" fill="#666666">[datetime(6)]</text>
<polygon fill="none" stroke="#000000" points="771.5,-827.5 771.5,-857.5 937.5,-857.5 937.5,-827.5 771.5,-827.5"/>
<text text-anchor="start" x="778.5" y="-838.9" font-family="Arial" font-size="14.00" fill="#000000">finished_at </text>
<text text-anchor="start" x="850.0806" y="-838.9" font-family="Arial" font-size="14.00" fill="#666666">[datetime(6)]</text>
<polygon fill="none" stroke="#000000" points="771.5,-797.5 771.5,-827.5 937.5,-827.5 937.5,-797.5 771.5,-797.5"/>
<text text-anchor="start" x="778.5" y="-808.9" font-family="Arial" font-size="14.00" fill="#000000">retriable </text>
<text text-anchor="start" x="832.946" y="-808.9" font-family="Arial" font-size="14.00" fill="#666666">[tinyint(1)]</text>
<polygon fill="none" stroke="#000000" points="771.5,-767.5 771.5,-797.5 937.5,-797.5 937.5,-767.5 771.5,-767.5"/>
<text text-anchor="start" x="778.5" y="-778.9" font-family="Arial" font-size="14.00" fill="#000000">application_id </text>
<text text-anchor="start" x="867.9684" y="-778.9" font-family="Arial" font-size="14.00" fill="#666666">[char(22)]</text>
</g>
<!-- builds&#45;&gt;applications -->
<g id="edge3" class="edge">
<title>builds:application_id&#45;&gt;applications:id</title>
<path fill="none" stroke="#000000" d="M855.3013,-757.2628C864.0533,-705.2226 942.0615,-729.8778 968.5,-674 986.8432,-635.2317 1011.3889,-577.5 968.5,-577.5"/>
<polygon fill="#000000" stroke="#000000" points="855.2804,-757.5305 850.0137,-767.1488 854.8902,-762.5152 854.5,-767.5 854.5,-767.5 854.5,-767.5 854.8902,-762.5152 858.9863,-767.8512 855.2804,-757.5305 855.2804,-757.5305"/>
<text text-anchor="start" x="565.102" y="-777.5" font-family="Arial" font-size="10.00" fill="#000000">FOREIGN KEY (application_id) REFERENCES applications (id)</text>
</g>
<!-- environments -->
<g id="node5" class="node">
<title>environments</title>
<polygon fill="#efefef" stroke="transparent" points="1042.5,-947.5 1042.5,-982.5 1261.5,-982.5 1261.5,-947.5 1042.5,-947.5"/>
<polygon fill="none" stroke="#000000" points="1042.5,-947.5 1042.5,-982.5 1261.5,-982.5 1261.5,-947.5 1042.5,-947.5"/>
<text text-anchor="start" x="1049.3641" y="-960.3" font-family="Arial Bold" font-size="18.00" fill="#000000">environments</text>
<text text-anchor="start" x="1157.3821" y="-960.3" font-family="Arial" font-size="14.00" fill="#000000"> </text>
<text text-anchor="start" x="1161.2727" y="-960.3" font-family="Arial" font-size="14.00" fill="#666666">[BASE TABLE]</text>
<polygon fill="none" stroke="#000000" points="1042.5,-917.5 1042.5,-947.5 1261.5,-947.5 1261.5,-917.5 1042.5,-917.5"/>
<text text-anchor="start" x="1049.5" y="-928.9" font-family="Arial" font-size="14.00" fill="#000000">application_id </text>
<text text-anchor="start" x="1138.9684" y="-928.9" font-family="Arial" font-size="14.00" fill="#666666">[char(22)]</text>
<polygon fill="none" stroke="#000000" points="1042.5,-887.5 1042.5,-917.5 1261.5,-917.5 1261.5,-887.5 1042.5,-887.5"/>
<text text-anchor="start" x="1049.5" y="-898.9" font-family="Arial" font-size="14.00" fill="#000000">key </text>
<text text-anchor="start" x="1075.1732" y="-898.9" font-family="Arial" font-size="14.00" fill="#666666">[varchar(100)]</text>
<polygon fill="none" stroke="#000000" points="1042.5,-857.5 1042.5,-887.5 1261.5,-887.5 1261.5,-857.5 1042.5,-857.5"/>
<text text-anchor="start" x="1049.5" y="-868.9" font-family="Arial" font-size="14.00" fill="#000000">value </text>
<text text-anchor="start" x="1086.845" y="-868.9" font-family="Arial" font-size="14.00" fill="#666666">[text]</text>
<polygon fill="none" stroke="#000000" points="1042.5,-827.5 1042.5,-857.5 1261.5,-857.5 1261.5,-827.5 1042.5,-827.5"/>
<text text-anchor="start" x="1049.5" y="-838.9" font-family="Arial" font-size="14.00" fill="#000000">system </text>
<text text-anchor="start" x="1097.7244" y="-838.9" font-family="Arial" font-size="14.00" fill="#666666">[tinyint(1)]</text>
</g>
<!-- environments&#45;&gt;applications -->
<g id="edge4" class="edge">
<title>environments:application_id&#45;&gt;applications:id</title>
<path fill="none" stroke="#000000" d="M1032.6251,-930.4152C969.4085,-901.3218 1045.4646,-577.5 968.5,-577.5"/>
<polygon fill="#000000" stroke="#000000" points="1032.7157,-930.4343 1041.5704,-936.9029 1037.6078,-931.4671 1042.5,-932.5 1042.5,-932.5 1042.5,-932.5 1037.6078,-931.4671 1043.4296,-928.0971 1032.7157,-930.4343 1032.7157,-930.4343"/>
<text text-anchor="start" x="827.102" y="-916.5" font-family="Arial" font-size="10.00" fill="#000000">FOREIGN KEY (application_id) REFERENCES applications (id)</text>
</g>
<!-- websites -->
<g id="node6" class="node">
<title>websites</title>
<polygon fill="#efefef" stroke="transparent" points="1365.5,-1022.5 1365.5,-1057.5 1546.5,-1057.5 1546.5,-1022.5 1365.5,-1022.5"/>
<polygon fill="none" stroke="#000000" points="1365.5,-1022.5 1365.5,-1057.5 1546.5,-1057.5 1546.5,-1022.5 1365.5,-1022.5"/>
<text text-anchor="start" x="1372.3685" y="-1035.3" font-family="Arial Bold" font-size="18.00" fill="#000000">websites</text>
<text text-anchor="start" x="1442.3777" y="-1035.3" font-family="Arial" font-size="14.00" fill="#000000"> </text>
<text text-anchor="start" x="1446.2683" y="-1035.3" font-family="Arial" font-size="14.00" fill="#666666">[BASE TABLE]</text>
<polygon fill="none" stroke="#000000" points="1365.5,-992.5 1365.5,-1022.5 1546.5,-1022.5 1546.5,-992.5 1365.5,-992.5"/>
<text text-anchor="start" x="1372.5" y="-1003.9" font-family="Arial" font-size="14.00" fill="#000000">id </text>
<text text-anchor="start" x="1387.2798" y="-1003.9" font-family="Arial" font-size="14.00" fill="#666666">[char(22)]</text>
<polygon fill="none" stroke="#000000" points="1365.5,-962.5 1365.5,-992.5 1546.5,-992.5 1546.5,-962.5 1365.5,-962.5"/>
<text text-anchor="start" x="1372.5" y="-973.9" font-family="Arial" font-size="14.00" fill="#000000">fqdn </text>
<text text-anchor="start" x="1403.629" y="-973.9" font-family="Arial" font-size="14.00" fill="#666666">[varchar(100)]</text>
<polygon fill="none" stroke="#000000" points="1365.5,-932.5 1365.5,-962.5 1546.5,-962.5 1546.5,-932.5 1365.5,-932.5"/>
<text text-anchor="start" x="1372.5" y="-943.9" font-family="Arial" font-size="14.00" fill="#000000">path_prefix </text>
<text text-anchor="start" x="1445.6346" y="-943.9" font-family="Arial" font-size="14.00" fill="#666666">[varchar(100)]</text>
<polygon fill="none" stroke="#000000" points="1365.5,-902.5 1365.5,-932.5 1546.5,-932.5 1546.5,-902.5 1365.5,-902.5"/>
<text text-anchor="start" x="1372.5" y="-913.9" font-family="Arial" font-size="14.00" fill="#000000">strip_prefix </text>
<text text-anchor="start" x="1444.8366" y="-913.9" font-family="Arial" font-size="14.00" fill="#666666">[tinyint(1)]</text>
<polygon fill="none" stroke="#000000" points="1365.5,-872.5 1365.5,-902.5 1546.5,-902.5 1546.5,-872.5 1365.5,-872.5"/>
<text text-anchor="start" x="1372.5" y="-883.9" font-family="Arial" font-size="14.00" fill="#000000">https </text>
<text text-anchor="start" x="1406.737" y="-883.9" font-family="Arial" font-size="14.00" fill="#666666">[tinyint(1)]</text>
<polygon fill="none" stroke="#000000" points="1365.5,-842.5 1365.5,-872.5 1546.5,-872.5 1546.5,-842.5 1365.5,-842.5"/>
<text text-anchor="start" x="1372.5" y="-853.9" font-family="Arial" font-size="14.00" fill="#000000">http_port </text>
<text text-anchor="start" x="1431.636" y="-853.9" font-family="Arial" font-size="14.00" fill="#666666">[int(11)]</text>
<polygon fill="none" stroke="#000000" points="1365.5,-812.5 1365.5,-842.5 1546.5,-842.5 1546.5,-812.5 1365.5,-812.5"/>
<text text-anchor="start" x="1372.5" y="-823.9" font-family="Arial" font-size="14.00" fill="#000000">created_at </text>
<text text-anchor="start" x="1442.528" y="-823.9" font-family="Arial" font-size="14.00" fill="#666666">[datetime(6)]</text>
<polygon fill="none" stroke="#000000" points="1365.5,-782.5 1365.5,-812.5 1546.5,-812.5 1546.5,-782.5 1365.5,-782.5"/>
<text text-anchor="start" x="1372.5" y="-793.9" font-family="Arial" font-size="14.00" fill="#000000">updated_at </text>
<text text-anchor="start" x="1446.4326" y="-793.9" font-family="Arial" font-size="14.00" fill="#666666">[datetime(6)]</text>
<polygon fill="none" stroke="#000000" points="1365.5,-752.5 1365.5,-782.5 1546.5,-782.5 1546.5,-752.5 1365.5,-752.5"/>
<text text-anchor="start" x="1372.5" y="-763.9" font-family="Arial" font-size="14.00" fill="#000000">application_id </text>
<text text-anchor="start" x="1461.9684" y="-763.9" font-family="Arial" font-size="14.00" fill="#666666">[char(22)]</text>
</g>
<!-- websites&#45;&gt;applications -->
<g id="edge5" class="edge">
<title>websites:application_id&#45;&gt;applications:id</title>
<path fill="none" stroke="#000000" d="M1355.4124,-766.1188C1333.003,-759.1255 1338.6966,-727.28 1313.5,-710 1178.0417,-617.1019 1132.7529,-577.5 968.5,-577.5"/>
<polygon fill="#000000" stroke="#000000" points="1355.5924,-766.1434 1364.8895,-771.9584 1360.5462,-766.8217 1365.5,-767.5 1365.5,-767.5 1365.5,-767.5 1360.5462,-766.8217 1366.1105,-763.0416 1355.5924,-766.1434 1355.5924,-766.1434"/>
<text text-anchor="start" x="1076.102" y="-751.5" font-family="Arial" font-size="10.00" fill="#000000">FOREIGN KEY (application_id) REFERENCES applications (id)</text>
</g>
</g>
</svg>
