<?xml version="1.0" encoding="UTF-8" standalone="no"?>
<!DOCTYPE svg PUBLIC "-//W3C//DTD SVG 1.1//EN"
 "http://www.w3.org/Graphics/SVG/1.1/DTD/svg11.dtd">
<!-- Generated by graphviz version 2.40.1 (20161225.0304)
 -->
<!-- Title: applications Pages: 1 -->
<svg width="1230pt" height="899pt"
 viewBox="0.00 0.00 1230.00 899.00" xmlns="http://www.w3.org/2000/svg" xmlns:xlink="http://www.w3.org/1999/xlink">
<g id="graph0" class="graph" transform="scale(1 1) rotate(0) translate(4 895)">
<title>applications</title>
<polygon fill="#ffffff" stroke="transparent" points="-4,4 -4,-895 1226,-895 1226,4 -4,4"/>
<!-- applications -->
<g id="node1" class="node">
<title>applications</title>
<polygon fill="#efefef" stroke="transparent" points="550,-472.5 550,-507.5 770,-507.5 770,-472.5 550,-472.5"/>
<polygon fill="none" stroke="#000000" points="550,-472.5 550,-507.5 770,-507.5 770,-472.5 550,-472.5"/>
<text text-anchor="start" x="563.8621" y="-485.3" font-family="Arial Bold" font-size="18.00" fill="#000000">applications</text>
<text text-anchor="start" x="658.8841" y="-485.3" font-family="Arial" font-size="14.00" fill="#000000"> </text>
<text text-anchor="start" x="662.7747" y="-485.3" font-family="Arial" font-size="14.00" fill="#666666">[BASE TABLE]</text>
<polygon fill="none" stroke="#000000" points="550,-442.5 550,-472.5 770,-472.5 770,-442.5 550,-442.5"/>
<text text-anchor="start" x="557" y="-453.9" font-family="Arial" font-size="14.00" fill="#000000">id </text>
<text text-anchor="start" x="571.7798" y="-453.9" font-family="Arial" font-size="14.00" fill="#666666">[varchar(22)]</text>
<polygon fill="none" stroke="#000000" points="550,-412.5 550,-442.5 770,-442.5 770,-412.5 550,-412.5"/>
<text text-anchor="start" x="557" y="-423.9" font-family="Arial" font-size="14.00" fill="#000000">repository_id </text>
<text text-anchor="start" x="641.0112" y="-423.9" font-family="Arial" font-size="14.00" fill="#666666">[varchar(22)]</text>
<polygon fill="none" stroke="#000000" points="550,-382.5 550,-412.5 770,-412.5 770,-382.5 550,-382.5"/>
<text text-anchor="start" x="557" y="-393.9" font-family="Arial" font-size="14.00" fill="#000000">branch_name </text>
<text text-anchor="start" x="646.4726" y="-393.9" font-family="Arial" font-size="14.00" fill="#666666">[varchar(100)]</text>
<polygon fill="none" stroke="#000000" points="550,-352.5 550,-382.5 770,-382.5 770,-352.5 550,-352.5"/>
<text text-anchor="start" x="556.5764" y="-363.9" font-family="Arial" font-size="14.00" fill="#000000">build_type </text>
<text text-anchor="start" x="624.2664" y="-363.9" font-family="Arial" font-size="14.00" fill="#666666">[enum(&#39;image&#39;,&#39;static&#39;)]</text>
<polygon fill="none" stroke="#000000" points="550,-322.5 550,-352.5 770,-352.5 770,-322.5 550,-322.5"/>
<text text-anchor="start" x="557" y="-333.9" font-family="Arial" font-size="14.00" fill="#000000">created_at </text>
<text text-anchor="start" x="627.028" y="-333.9" font-family="Arial" font-size="14.00" fill="#666666">[datetime(6)]</text>
<polygon fill="none" stroke="#000000" points="550,-292.5 550,-322.5 770,-322.5 770,-292.5 550,-292.5"/>
<text text-anchor="start" x="557" y="-303.9" font-family="Arial" font-size="14.00" fill="#000000">updated_at </text>
<text text-anchor="start" x="630.9326" y="-303.9" font-family="Arial" font-size="14.00" fill="#666666">[datetime(6)]</text>
<polygon fill="none" stroke="#000000" stroke-width="3" points="548.5,-291.5 548.5,-509.5 771.5,-509.5 771.5,-291.5 548.5,-291.5"/>
</g>
<!-- repositories -->
<g id="node6" class="node">
<title>repositories</title>
<polygon fill="#efefef" stroke="transparent" points="558,-132.5 558,-167.5 762,-167.5 762,-132.5 558,-132.5"/>
<polygon fill="none" stroke="#000000" points="558,-132.5 558,-167.5 762,-167.5 762,-132.5 558,-132.5"/>
<text text-anchor="start" x="564.8701" y="-145.3" font-family="Arial Bold" font-size="18.00" fill="#000000">repositories</text>
<text text-anchor="start" x="657.8761" y="-145.3" font-family="Arial" font-size="14.00" fill="#000000"> </text>
<text text-anchor="start" x="661.7667" y="-145.3" font-family="Arial" font-size="14.00" fill="#666666">[BASE TABLE]</text>
<polygon fill="none" stroke="#000000" points="558,-102.5 558,-132.5 762,-132.5 762,-102.5 558,-102.5"/>
<text text-anchor="start" x="565" y="-113.9" font-family="Arial" font-size="14.00" fill="#000000">id </text>
<text text-anchor="start" x="579.7798" y="-113.9" font-family="Arial" font-size="14.00" fill="#666666">[varchar(22)]</text>
<polygon fill="none" stroke="#000000" points="558,-72.5 558,-102.5 762,-102.5 762,-72.5 558,-72.5"/>
<text text-anchor="start" x="565" y="-83.9" font-family="Arial" font-size="14.00" fill="#000000">name </text>
<text text-anchor="start" x="603.899" y="-83.9" font-family="Arial" font-size="14.00" fill="#666666">[varchar(256)]</text>
<polygon fill="none" stroke="#000000" points="558,-42.5 558,-72.5 762,-72.5 762,-42.5 558,-42.5"/>
<text text-anchor="start" x="565" y="-53.9" font-family="Arial" font-size="14.00" fill="#000000">url </text>
<text text-anchor="start" x="584.4404" y="-53.9" font-family="Arial" font-size="14.00" fill="#666666">[varchar(256)]</text>
</g>
<!-- applications&#45;&gt;repositories -->
<g id="edge5" class="edge">
<title>applications:repository_id&#45;&gt;repositories:id</title>
<path fill="none" stroke="#000000" d="M780.2165,-426.9106C907.3337,-411.9577 896.3242,-117.5 762,-117.5"/>
<polygon fill="#000000" stroke="#000000" points="779.9834,-426.9239 769.7408,-423.0075 774.9917,-427.212 770,-427.5 770,-427.5 770,-427.5 774.9917,-427.212 770.2592,-431.9925 779.9834,-426.9239 779.9834,-426.9239"/>
<text text-anchor="start" x="777.111" y="-437.5" font-family="Arial" font-size="10.00" fill="#000000">FOREIGN KEY (repository_id) REFERENCES repositories (id)</text>
</g>
<!-- builds -->
<g id="node2" class="node">
<title>builds</title>
<polygon fill="#efefef" stroke="transparent" points="114,-797.5 114,-832.5 296,-832.5 296,-797.5 114,-797.5"/>
<polygon fill="none" stroke="#000000" points="114,-797.5 114,-832.5 296,-832.5 296,-797.5 114,-797.5"/>
<text text-anchor="start" x="132.8696" y="-810.3" font-family="Arial Bold" font-size="18.00" fill="#000000">builds</text>
<text text-anchor="start" x="179.8766" y="-810.3" font-family="Arial" font-size="14.00" fill="#000000"> </text>
<text text-anchor="start" x="183.7672" y="-810.3" font-family="Arial" font-size="14.00" fill="#666666">[BASE TABLE]</text>
<polygon fill="none" stroke="#000000" points="114,-767.5 114,-797.5 296,-797.5 296,-767.5 114,-767.5"/>
<text text-anchor="start" x="121" y="-778.9" font-family="Arial" font-size="14.00" fill="#000000">id </text>
<text text-anchor="start" x="135.7798" y="-778.9" font-family="Arial" font-size="14.00" fill="#666666">[varchar(22)]</text>
<polygon fill="none" stroke="#000000" points="114,-737.5 114,-767.5 296,-767.5 296,-737.5 114,-737.5"/>
<text text-anchor="start" x="121" y="-748.9" font-family="Arial" font-size="14.00" fill="#000000">status </text>
<text text-anchor="start" x="162.237" y="-748.9" font-family="Arial" font-size="14.00" fill="#666666">[varchar(10)]</text>
<polygon fill="none" stroke="#000000" points="114,-707.5 114,-737.5 296,-737.5 296,-707.5 114,-707.5"/>
<text text-anchor="start" x="121" y="-718.9" font-family="Arial" font-size="14.00" fill="#000000">started_at </text>
<text text-anchor="start" x="187.136" y="-718.9" font-family="Arial" font-size="14.00" fill="#666666">[datetime(6)]</text>
<polygon fill="none" stroke="#000000" points="114,-677.5 114,-707.5 296,-707.5 296,-677.5 114,-677.5"/>
<text text-anchor="start" x="121" y="-688.9" font-family="Arial" font-size="14.00" fill="#000000">finished_at </text>
<text text-anchor="start" x="192.5806" y="-688.9" font-family="Arial" font-size="14.00" fill="#666666">[datetime(6)]</text>
<polygon fill="none" stroke="#000000" points="114,-647.5 114,-677.5 296,-677.5 296,-647.5 114,-647.5"/>
<text text-anchor="start" x="120.5975" y="-658.9" font-family="Arial" font-size="14.00" fill="#000000">application_id </text>
<text text-anchor="start" x="210.0659" y="-658.9" font-family="Arial" font-size="14.00" fill="#666666">[varchar(22)]</text>
</g>
<!-- builds&#45;&gt;applications -->
<g id="edge1" class="edge">
<title>builds:application_id&#45;&gt;applications:id</title>
<path fill="none" stroke="#000000" d="M306.1111,-661.2694C332.9037,-653.8689 322.1774,-614.7685 348,-590 425.4858,-515.6771 442.6317,-457.5 550,-457.5"/>
<polygon fill="#000000" stroke="#000000" points="305.9268,-661.2918 295.4563,-658.033 300.9634,-661.8959 296,-662.5 296,-662.5 296,-662.5 300.9634,-661.8959 296.5437,-666.967 305.9268,-661.2918 305.9268,-661.2918"/>
<text text-anchor="start" x="6.602" y="-672.5" font-family="Arial" font-size="10.00" fill="#000000">FOREIGN KEY (application_id) REFERENCES applications (id)</text>
</g>
<!-- environments -->
<g id="node3" class="node">
<title>environments</title>
<polygon fill="#efefef" stroke="transparent" points="401,-782.5 401,-817.5 620,-817.5 620,-782.5 401,-782.5"/>
<polygon fill="none" stroke="#000000" points="401,-782.5 401,-817.5 620,-817.5 620,-782.5 401,-782.5"/>
<text text-anchor="start" x="407.8641" y="-795.3" font-family="Arial Bold" font-size="18.00" fill="#000000">environments</text>
<text text-anchor="start" x="515.8821" y="-795.3" font-family="Arial" font-size="14.00" fill="#000000"> </text>
<text text-anchor="start" x="519.7727" y="-795.3" font-family="Arial" font-size="14.00" fill="#666666">[BASE TABLE]</text>
<polygon fill="none" stroke="#000000" points="401,-752.5 401,-782.5 620,-782.5 620,-752.5 401,-752.5"/>
<text text-anchor="start" x="408" y="-763.9" font-family="Arial" font-size="14.00" fill="#000000">id </text>
<text text-anchor="start" x="422.7798" y="-763.9" font-family="Arial" font-size="14.00" fill="#666666">[varchar(22)]</text>
<polygon fill="none" stroke="#000000" points="401,-722.5 401,-752.5 620,-752.5 620,-722.5 401,-722.5"/>
<text text-anchor="start" x="408" y="-733.9" font-family="Arial" font-size="14.00" fill="#000000">application_id </text>
<text text-anchor="start" x="497.4684" y="-733.9" font-family="Arial" font-size="14.00" fill="#666666">[varchar(22)]</text>
<polygon fill="none" stroke="#000000" points="401,-692.5 401,-722.5 620,-722.5 620,-692.5 401,-692.5"/>
<text text-anchor="start" x="408" y="-703.9" font-family="Arial" font-size="14.00" fill="#000000">key </text>
<text text-anchor="start" x="433.6732" y="-703.9" font-family="Arial" font-size="14.00" fill="#666666">[varchar(100)]</text>
<polygon fill="none" stroke="#000000" points="401,-662.5 401,-692.5 620,-692.5 620,-662.5 401,-662.5"/>
<text text-anchor="start" x="408" y="-673.9" font-family="Arial" font-size="14.00" fill="#000000">value </text>
<text text-anchor="start" x="445.345" y="-673.9" font-family="Arial" font-size="14.00" fill="#666666">[text]</text>
</g>
<!-- environments&#45;&gt;applications -->
<g id="edge2" class="edge">
<title>environments:application_id&#45;&gt;applications:id</title>
<path fill="none" stroke="#000000" d="M630.2822,-736.3879C667.6016,-727.2949 639.156,-664.3894 620,-620 603.0578,-580.7405 566.9422,-593.2595 550,-554 533.0064,-514.6214 507.1111,-457.5 550,-457.5"/>
<polygon fill="#000000" stroke="#000000" points="629.942,-736.4246 619.5161,-733.0261 624.971,-736.9623 620,-737.5 620,-737.5 620,-737.5 624.971,-736.9623 620.4839,-741.9739 629.942,-736.4246 629.942,-736.4246"/>
<text text-anchor="start" x="626.602" y="-747.5" font-family="Arial" font-size="10.00" fill="#000000">FOREIGN KEY (application_id) REFERENCES applications (id)</text>
</g>
<!-- owners -->
<g id="node4" class="node">
<title>owners</title>
<polygon fill="#efefef" stroke="transparent" points="724,-752.5 724,-787.5 893,-787.5 893,-752.5 724,-752.5"/>
<polygon fill="none" stroke="#000000" points="724,-752.5 724,-787.5 893,-787.5 893,-752.5 724,-752.5"/>
<text text-anchor="start" x="730.8706" y="-765.3" font-family="Arial Bold" font-size="18.00" fill="#000000">owners</text>
<text text-anchor="start" x="788.8756" y="-765.3" font-family="Arial" font-size="14.00" fill="#000000"> </text>
<text text-anchor="start" x="792.7662" y="-765.3" font-family="Arial" font-size="14.00" fill="#666666">[BASE TABLE]</text>
<polygon fill="none" stroke="#000000" points="724,-722.5 724,-752.5 893,-752.5 893,-722.5 724,-722.5"/>
<text text-anchor="start" x="731" y="-733.9" font-family="Arial" font-size="14.00" fill="#000000">user_id </text>
<text text-anchor="start" x="780.7882" y="-733.9" font-family="Arial" font-size="14.00" fill="#666666">[char(36)]</text>
<polygon fill="none" stroke="#000000" points="724,-692.5 724,-722.5 893,-722.5 893,-692.5 724,-692.5"/>
<text text-anchor="start" x="731" y="-703.9" font-family="Arial" font-size="14.00" fill="#000000">application_id </text>
<text text-anchor="start" x="820.4684" y="-703.9" font-family="Arial" font-size="14.00" fill="#666666">[char(36)]</text>
</g>
<!-- owners&#45;&gt;applications -->
<g id="edge3" class="edge">
<title>owners:application_id&#45;&gt;applications:id</title>
<path fill="none" stroke="#000000" d="M714.28,-704.5777C705.1341,-696.039 719.3552,-670.4425 724,-650 734.4828,-603.864 759.5172,-600.136 770,-554 779.5028,-512.1771 812.8889,-457.5 770,-457.5"/>
<polygon fill="#000000" stroke="#000000" points="714.4234,-704.6208 722.7043,-711.8094 719.2117,-706.0604 724,-707.5 724,-707.5 724,-707.5 719.2117,-706.0604 725.2957,-703.1906 714.4234,-704.6208 714.4234,-704.6208"/>
<text text-anchor="start" x="730.602" y="-717.5" font-family="Arial" font-size="10.00" fill="#000000">FOREIGN KEY (application_id) REFERENCES applications (id)</text>
</g>
<!-- websites -->
<g id="node5" class="node">
<title>websites</title>
<polygon fill="#efefef" stroke="transparent" points="997,-812.5 997,-847.5 1179,-847.5 1179,-812.5 997,-812.5"/>
<polygon fill="none" stroke="#000000" points="997,-812.5 997,-847.5 1179,-847.5 1179,-812.5 997,-812.5"/>
<text text-anchor="start" x="1004.3685" y="-825.3" font-family="Arial Bold" font-size="18.00" fill="#000000">websites</text>
<text text-anchor="start" x="1074.3777" y="-825.3" font-family="Arial" font-size="14.00" fill="#000000"> </text>
<text text-anchor="start" x="1078.2683" y="-825.3" font-family="Arial" font-size="14.00" fill="#666666">[BASE TABLE]</text>
<polygon fill="none" stroke="#000000" points="997,-782.5 997,-812.5 1179,-812.5 1179,-782.5 997,-782.5"/>
<text text-anchor="start" x="1004" y="-793.9" font-family="Arial" font-size="14.00" fill="#000000">id </text>
<text text-anchor="start" x="1018.7798" y="-793.9" font-family="Arial" font-size="14.00" fill="#666666">[varchar(22)]</text>
<polygon fill="none" stroke="#000000" points="997,-752.5 997,-782.5 1179,-782.5 1179,-752.5 997,-752.5"/>
<text text-anchor="start" x="1004" y="-763.9" font-family="Arial" font-size="14.00" fill="#000000">fqdn </text>
<text text-anchor="start" x="1035.129" y="-763.9" font-family="Arial" font-size="14.00" fill="#666666">[varchar(50)]</text>
<polygon fill="none" stroke="#000000" points="997,-722.5 997,-752.5 1179,-752.5 1179,-722.5 997,-722.5"/>
<text text-anchor="start" x="1004" y="-733.9" font-family="Arial" font-size="14.00" fill="#000000">http_port </text>
<text text-anchor="start" x="1063.136" y="-733.9" font-family="Arial" font-size="14.00" fill="#666666">[int(11)]</text>
<polygon fill="none" stroke="#000000" points="997,-692.5 997,-722.5 1179,-722.5 1179,-692.5 997,-692.5"/>
<text text-anchor="start" x="1004" y="-703.9" font-family="Arial" font-size="14.00" fill="#000000">created_at </text>
<text text-anchor="start" x="1074.028" y="-703.9" font-family="Arial" font-size="14.00" fill="#666666">[datetime(6)]</text>
<polygon fill="none" stroke="#000000" points="997,-662.5 997,-692.5 1179,-692.5 1179,-662.5 997,-662.5"/>
<text text-anchor="start" x="1004" y="-673.9" font-family="Arial" font-size="14.00" fill="#000000">updated_at </text>
<text text-anchor="start" x="1077.9326" y="-673.9" font-family="Arial" font-size="14.00" fill="#666666">[datetime(6)]</text>
<polygon fill="none" stroke="#000000" points="997,-632.5 997,-662.5 1179,-662.5 1179,-632.5 997,-632.5"/>
<text text-anchor="start" x="1003.5975" y="-643.9" font-family="Arial" font-size="14.00" fill="#000000">application_id </text>
<text text-anchor="start" x="1093.0659" y="-643.9" font-family="Arial" font-size="14.00" fill="#666666">[varchar(22)]</text>
</g>
<!-- websites&#45;&gt;applications -->
<g id="edge4" class="edge">
<title>websites:application_id&#45;&gt;applications:id</title>
<path fill="none" stroke="#000000" d="M986.8095,-646.2482C963.8976,-639.8873 967.5247,-610.6424 945,-590 873.0774,-524.0877 867.5566,-457.5 770,-457.5"/>
<polygon fill="#000000" stroke="#000000" points="987.0746,-646.2807 996.4513,-651.9664 992.0373,-646.8904 997,-647.5 997,-647.5 997,-647.5 992.0373,-646.8904 997.5487,-643.0336 987.0746,-646.2807 987.0746,-646.2807"/>
<text text-anchor="start" x="707.602" y="-631.5" font-family="Arial" font-size="10.00" fill="#000000">FOREIGN KEY (application_id) REFERENCES applications (id)</text>
</g>
</g>
</svg>
