<?xml version="1.0" encoding="UTF-8" standalone="no"?>
<!DOCTYPE svg PUBLIC "-//W3C//DTD SVG 1.1//EN"
 "http://www.w3.org/Graphics/SVG/1.1/DTD/svg11.dtd">
<!-- Generated by graphviz version 2.40.1 (20161225.0304)
 -->
<!-- Title: applications Pages: 1 -->
<svg width="567pt" height="929pt"
 viewBox="0.00 0.00 567.00 929.00" xmlns="http://www.w3.org/2000/svg" xmlns:xlink="http://www.w3.org/1999/xlink">
<g id="graph0" class="graph" transform="scale(1 1) rotate(0) translate(4 925)">
<title>applications</title>
<polygon fill="#ffffff" stroke="transparent" points="-4,4 -4,-925 563,-925 563,4 -4,4"/>
<!-- applications -->
<g id="node1" class="node">
<title>applications</title>
<polygon fill="#efefef" stroke="transparent" points="50,-472.5 50,-507.5 256,-507.5 256,-472.5 50,-472.5"/>
<polygon fill="none" stroke="#000000" points="50,-472.5 50,-507.5 256,-507.5 256,-472.5 50,-472.5"/>
<text text-anchor="start" x="56.8621" y="-485.3" font-family="Arial Bold" font-size="18.00" fill="#000000">applications</text>
<text text-anchor="start" x="151.8841" y="-485.3" font-family="Arial" font-size="14.00" fill="#000000"> </text>
<text text-anchor="start" x="155.7747" y="-485.3" font-family="Arial" font-size="14.00" fill="#666666">[BASE TABLE]</text>
<polygon fill="none" stroke="#000000" points="50,-442.5 50,-472.5 256,-472.5 256,-442.5 50,-442.5"/>
<text text-anchor="start" x="57" y="-453.9" font-family="Arial" font-size="14.00" fill="#000000">id </text>
<text text-anchor="start" x="71.7798" y="-453.9" font-family="Arial" font-size="14.00" fill="#666666">[varchar(22)]</text>
<polygon fill="none" stroke="#000000" points="50,-412.5 50,-442.5 256,-442.5 256,-412.5 50,-412.5"/>
<text text-anchor="start" x="57" y="-423.9" font-family="Arial" font-size="14.00" fill="#000000">owner </text>
<text text-anchor="start" x="99.0056" y="-423.9" font-family="Arial" font-size="14.00" fill="#666666">[varchar(100)]</text>
<polygon fill="none" stroke="#000000" points="50,-382.5 50,-412.5 256,-412.5 256,-382.5 50,-382.5"/>
<text text-anchor="start" x="57" y="-393.9" font-family="Arial" font-size="14.00" fill="#000000">name </text>
<text text-anchor="start" x="95.899" y="-393.9" font-family="Arial" font-size="14.00" fill="#666666">[varchar(100)]</text>
<polygon fill="none" stroke="#000000" points="50,-352.5 50,-382.5 256,-382.5 256,-352.5 50,-352.5"/>
<text text-anchor="start" x="57" y="-363.9" font-family="Arial" font-size="14.00" fill="#000000">repository_id </text>
<text text-anchor="start" x="141.0112" y="-363.9" font-family="Arial" font-size="14.00" fill="#666666">[varchar(22)]</text>
<polygon fill="none" stroke="#000000" points="50,-322.5 50,-352.5 256,-352.5 256,-322.5 50,-322.5"/>
<text text-anchor="start" x="57" y="-333.9" font-family="Arial" font-size="14.00" fill="#000000">created_at </text>
<text text-anchor="start" x="127.028" y="-333.9" font-family="Arial" font-size="14.00" fill="#666666">[datetime(6)]</text>
<polygon fill="none" stroke="#000000" points="50,-292.5 50,-322.5 256,-322.5 256,-292.5 50,-292.5"/>
<text text-anchor="start" x="57" y="-303.9" font-family="Arial" font-size="14.00" fill="#000000">updated_at </text>
<text text-anchor="start" x="130.9326" y="-303.9" font-family="Arial" font-size="14.00" fill="#666666">[datetime(6)]</text>
<polygon fill="none" stroke="#000000" points="50,-262.5 50,-292.5 256,-292.5 256,-262.5 50,-262.5"/>
<text text-anchor="start" x="57" y="-273.9" font-family="Arial" font-size="14.00" fill="#000000">deleted_at </text>
<text text-anchor="start" x="126.2566" y="-273.9" font-family="Arial" font-size="14.00" fill="#666666">[datetime(6)]</text>
<polygon fill="none" stroke="#000000" stroke-width="3" points="48.5,-261.5 48.5,-509.5 257.5,-509.5 257.5,-261.5 48.5,-261.5"/>
</g>
<!-- repositories -->
<g id="node3" class="node">
<title>repositories</title>
<polygon fill="#efefef" stroke="transparent" points="51,-102.5 51,-137.5 255,-137.5 255,-102.5 51,-102.5"/>
<polygon fill="none" stroke="#000000" points="51,-102.5 51,-137.5 255,-137.5 255,-102.5 51,-102.5"/>
<text text-anchor="start" x="57.8701" y="-115.3" font-family="Arial Bold" font-size="18.00" fill="#000000">repositories</text>
<text text-anchor="start" x="150.8761" y="-115.3" font-family="Arial" font-size="14.00" fill="#000000"> </text>
<text text-anchor="start" x="154.7667" y="-115.3" font-family="Arial" font-size="14.00" fill="#666666">[BASE TABLE]</text>
<polygon fill="none" stroke="#000000" points="51,-72.5 51,-102.5 255,-102.5 255,-72.5 51,-72.5"/>
<text text-anchor="start" x="58" y="-83.9" font-family="Arial" font-size="14.00" fill="#000000">id </text>
<text text-anchor="start" x="72.7798" y="-83.9" font-family="Arial" font-size="14.00" fill="#666666">[varchar(22)]</text>
<polygon fill="none" stroke="#000000" points="51,-42.5 51,-72.5 255,-72.5 255,-42.5 51,-42.5"/>
<text text-anchor="start" x="58" y="-53.9" font-family="Arial" font-size="14.00" fill="#000000">remote </text>
<text text-anchor="start" x="105.4502" y="-53.9" font-family="Arial" font-size="14.00" fill="#666666">[text]</text>
</g>
<!-- applications&#45;&gt;repositories -->
<g id="edge2" class="edge">
<title>applications:repository_id&#45;&gt;repositories:id</title>
<path fill="none" stroke="#000000" d="M266.2712,-366.839C380.2896,-351.8652 375.9209,-87.5 255,-87.5"/>
<polygon fill="#000000" stroke="#000000" points="265.9794,-366.8577 255.711,-363.0093 260.9897,-367.1788 256,-367.5 256,-367.5 256,-367.5 260.9897,-367.1788 256.289,-371.9907 265.9794,-366.8577 265.9794,-366.8577"/>
<text text-anchor="start" x="263.111" y="-377.5" font-family="Arial" font-size="10.00" fill="#000000">FOREIGN KEY (repository_id) REFERENCES repositories (id)</text>
</g>
<!-- branches -->
<g id="node2" class="node">
<title>branches</title>
<polygon fill="#efefef" stroke="transparent" points="43,-842.5 43,-877.5 263,-877.5 263,-842.5 43,-842.5"/>
<polygon fill="none" stroke="#000000" points="43,-842.5 43,-877.5 263,-877.5 263,-842.5 43,-842.5"/>
<text text-anchor="start" x="67.3615" y="-855.3" font-family="Arial Bold" font-size="18.00" fill="#000000">branches</text>
<text text-anchor="start" x="141.3847" y="-855.3" font-family="Arial" font-size="14.00" fill="#000000"> </text>
<text text-anchor="start" x="145.2753" y="-855.3" font-family="Arial" font-size="14.00" fill="#666666">[BASE TABLE]</text>
<polygon fill="none" stroke="#000000" points="43,-812.5 43,-842.5 263,-842.5 263,-812.5 43,-812.5"/>
<text text-anchor="start" x="50" y="-823.9" font-family="Arial" font-size="14.00" fill="#000000">id </text>
<text text-anchor="start" x="64.7798" y="-823.9" font-family="Arial" font-size="14.00" fill="#666666">[varchar(22)]</text>
<polygon fill="none" stroke="#000000" points="43,-782.5 43,-812.5 263,-812.5 263,-782.5 43,-782.5"/>
<text text-anchor="start" x="50" y="-793.9" font-family="Arial" font-size="14.00" fill="#000000">application_id </text>
<text text-anchor="start" x="139.4684" y="-793.9" font-family="Arial" font-size="14.00" fill="#666666">[varchar(22)]</text>
<polygon fill="none" stroke="#000000" points="43,-752.5 43,-782.5 263,-782.5 263,-752.5 43,-752.5"/>
<text text-anchor="start" x="50" y="-763.9" font-family="Arial" font-size="14.00" fill="#000000">branch_name </text>
<text text-anchor="start" x="139.4726" y="-763.9" font-family="Arial" font-size="14.00" fill="#666666">[varchar(100)]</text>
<polygon fill="none" stroke="#000000" points="43,-722.5 43,-752.5 263,-752.5 263,-722.5 43,-722.5"/>
<text text-anchor="start" x="49.5764" y="-733.9" font-family="Arial" font-size="14.00" fill="#000000">build_type </text>
<text text-anchor="start" x="117.2664" y="-733.9" font-family="Arial" font-size="14.00" fill="#666666">[enum(&#39;image&#39;,&#39;static&#39;)]</text>
<polygon fill="none" stroke="#000000" points="43,-692.5 43,-722.5 263,-722.5 263,-692.5 43,-692.5"/>
<text text-anchor="start" x="50" y="-703.9" font-family="Arial" font-size="14.00" fill="#000000">created_at </text>
<text text-anchor="start" x="120.028" y="-703.9" font-family="Arial" font-size="14.00" fill="#666666">[datetime(6)]</text>
<polygon fill="none" stroke="#000000" points="43,-662.5 43,-692.5 263,-692.5 263,-662.5 43,-662.5"/>
<text text-anchor="start" x="50" y="-673.9" font-family="Arial" font-size="14.00" fill="#000000">updated_at </text>
<text text-anchor="start" x="123.9326" y="-673.9" font-family="Arial" font-size="14.00" fill="#666666">[datetime(6)]</text>
<polygon fill="none" stroke="#000000" points="43,-632.5 43,-662.5 263,-662.5 263,-632.5 43,-632.5"/>
<text text-anchor="start" x="50" y="-643.9" font-family="Arial" font-size="14.00" fill="#000000">build_id </text>
<text text-anchor="start" x="102.1234" y="-643.9" font-family="Arial" font-size="14.00" fill="#666666">[varchar(22)]</text>
</g>
<!-- branches&#45;&gt;applications -->
<g id="edge1" class="edge">
<title>branches:application_id&#45;&gt;applications:id</title>
<path fill="none" stroke="#000000" d="M273.0844,-795.3288C337.7646,-766.3721 328.0291,-457.5 256,-457.5"/>
<polygon fill="#000000" stroke="#000000" points="272.776,-795.3952 262.0528,-793.1008 267.888,-796.4476 263,-797.5 263,-797.5 263,-797.5 267.888,-796.4476 263.9472,-801.8992 272.776,-795.3952 272.776,-795.3952"/>
<text text-anchor="start" x="269.602" y="-807.5" font-family="Arial" font-size="10.00" fill="#000000">FOREIGN KEY (application_id) REFERENCES applications (id)</text>
</g>
</g>
</svg>
