<?xml version="1.0" encoding="UTF-8" standalone="no"?>
<!DOCTYPE svg PUBLIC "-//W3C//DTD SVG 1.1//EN"
 "http://www.w3.org/Graphics/SVG/1.1/DTD/svg11.dtd">
<!-- Generated by graphviz version 2.40.1 (20161225.0304)
 -->
<!-- Title: applications Pages: 1 -->
<svg width="1230pt" height="989pt"
 viewBox="0.00 0.00 1230.00 989.00" xmlns="http://www.w3.org/2000/svg" xmlns:xlink="http://www.w3.org/1999/xlink">
<g id="graph0" class="graph" transform="scale(1 1) rotate(0) translate(4 985)">
<title>applications</title>
<polygon fill="#ffffff" stroke="transparent" points="-4,4 -4,-985 1226,-985 1226,4 -4,4"/>
<!-- applications -->
<g id="node1" class="node">
<title>applications</title>
<polygon fill="#efefef" stroke="transparent" points="550,-562.5 550,-597.5 770,-597.5 770,-562.5 550,-562.5"/>
<polygon fill="none" stroke="#000000" points="550,-562.5 550,-597.5 770,-597.5 770,-562.5 550,-562.5"/>
<text text-anchor="start" x="563.8621" y="-575.3" font-family="Arial Bold" font-size="18.00" fill="#000000">applications</text>
<text text-anchor="start" x="658.8841" y="-575.3" font-family="Arial" font-size="14.00" fill="#000000"> </text>
<text text-anchor="start" x="662.7747" y="-575.3" font-family="Arial" font-size="14.00" fill="#666666">[BASE TABLE]</text>
<polygon fill="none" stroke="#000000" points="550,-532.5 550,-562.5 770,-562.5 770,-532.5 550,-532.5"/>
<text text-anchor="start" x="557" y="-543.9" font-family="Arial" font-size="14.00" fill="#000000">id </text>
<text text-anchor="start" x="571.7798" y="-543.9" font-family="Arial" font-size="14.00" fill="#666666">[varchar(22)]</text>
<polygon fill="none" stroke="#000000" points="550,-502.5 550,-532.5 770,-532.5 770,-502.5 550,-502.5"/>
<text text-anchor="start" x="557" y="-513.9" font-family="Arial" font-size="14.00" fill="#000000">repository_id </text>
<text text-anchor="start" x="641.0112" y="-513.9" font-family="Arial" font-size="14.00" fill="#666666">[varchar(22)]</text>
<polygon fill="none" stroke="#000000" points="550,-472.5 550,-502.5 770,-502.5 770,-472.5 550,-472.5"/>
<text text-anchor="start" x="557" y="-483.9" font-family="Arial" font-size="14.00" fill="#000000">branch_name </text>
<text text-anchor="start" x="646.4726" y="-483.9" font-family="Arial" font-size="14.00" fill="#666666">[varchar(100)]</text>
<polygon fill="none" stroke="#000000" points="550,-442.5 550,-472.5 770,-472.5 770,-442.5 550,-442.5"/>
<text text-anchor="start" x="556.5764" y="-453.9" font-family="Arial" font-size="14.00" fill="#000000">build_type </text>
<text text-anchor="start" x="624.2664" y="-453.9" font-family="Arial" font-size="14.00" fill="#666666">[enum(&#39;image&#39;,&#39;static&#39;)]</text>
<polygon fill="none" stroke="#000000" points="550,-412.5 550,-442.5 770,-442.5 770,-412.5 550,-412.5"/>
<text text-anchor="start" x="557" y="-423.9" font-family="Arial" font-size="14.00" fill="#000000">state </text>
<text text-anchor="start" x="591.237" y="-423.9" font-family="Arial" font-size="14.00" fill="#666666">[varchar(10)]</text>
<polygon fill="none" stroke="#000000" points="550,-382.5 550,-412.5 770,-412.5 770,-382.5 550,-382.5"/>
<text text-anchor="start" x="557" y="-393.9" font-family="Arial" font-size="14.00" fill="#000000">current_commit </text>
<text text-anchor="start" x="657.3338" y="-393.9" font-family="Arial" font-size="14.00" fill="#666666">[char(40)]</text>
<polygon fill="none" stroke="#000000" points="550,-352.5 550,-382.5 770,-382.5 770,-352.5 550,-352.5"/>
<text text-anchor="start" x="557" y="-363.9" font-family="Arial" font-size="14.00" fill="#000000">want_commit </text>
<text text-anchor="start" x="643.3366" y="-363.9" font-family="Arial" font-size="14.00" fill="#666666">[char(40)]</text>
<polygon fill="none" stroke="#000000" points="550,-322.5 550,-352.5 770,-352.5 770,-322.5 550,-322.5"/>
<text text-anchor="start" x="557" y="-333.9" font-family="Arial" font-size="14.00" fill="#000000">created_at </text>
<text text-anchor="start" x="627.028" y="-333.9" font-family="Arial" font-size="14.00" fill="#666666">[datetime(6)]</text>
<polygon fill="none" stroke="#000000" points="550,-292.5 550,-322.5 770,-322.5 770,-292.5 550,-292.5"/>
<text text-anchor="start" x="557" y="-303.9" font-family="Arial" font-size="14.00" fill="#000000">updated_at </text>
<text text-anchor="start" x="630.9326" y="-303.9" font-family="Arial" font-size="14.00" fill="#666666">[datetime(6)]</text>
<polygon fill="none" stroke="#000000" stroke-width="3" points="548.5,-291.5 548.5,-599.5 771.5,-599.5 771.5,-291.5 548.5,-291.5"/>
</g>
<!-- repositories -->
<g id="node6" class="node">
<title>repositories</title>
<polygon fill="#efefef" stroke="transparent" points="394,-132.5 394,-167.5 598,-167.5 598,-132.5 394,-132.5"/>
<polygon fill="none" stroke="#000000" points="394,-132.5 394,-167.5 598,-167.5 598,-132.5 394,-132.5"/>
<text text-anchor="start" x="400.8701" y="-145.3" font-family="Arial Bold" font-size="18.00" fill="#000000">repositories</text>
<text text-anchor="start" x="493.8761" y="-145.3" font-family="Arial" font-size="14.00" fill="#000000"> </text>
<text text-anchor="start" x="497.7667" y="-145.3" font-family="Arial" font-size="14.00" fill="#666666">[BASE TABLE]</text>
<polygon fill="none" stroke="#000000" points="394,-102.5 394,-132.5 598,-132.5 598,-102.5 394,-102.5"/>
<text text-anchor="start" x="401" y="-113.9" font-family="Arial" font-size="14.00" fill="#000000">id </text>
<text text-anchor="start" x="415.7798" y="-113.9" font-family="Arial" font-size="14.00" fill="#666666">[varchar(22)]</text>
<polygon fill="none" stroke="#000000" points="394,-72.5 394,-102.5 598,-102.5 598,-72.5 394,-72.5"/>
<text text-anchor="start" x="401" y="-83.9" font-family="Arial" font-size="14.00" fill="#000000">name </text>
<text text-anchor="start" x="439.899" y="-83.9" font-family="Arial" font-size="14.00" fill="#666666">[varchar(256)]</text>
<polygon fill="none" stroke="#000000" points="394,-42.5 394,-72.5 598,-72.5 598,-42.5 394,-42.5"/>
<text text-anchor="start" x="401" y="-53.9" font-family="Arial" font-size="14.00" fill="#000000">url </text>
<text text-anchor="start" x="420.4404" y="-53.9" font-family="Arial" font-size="14.00" fill="#666666">[varchar(256)]</text>
</g>
<!-- applications&#45;&gt;repositories -->
<g id="edge5" class="edge">
<title>applications:repository_id&#45;&gt;repositories:id</title>
<path fill="none" stroke="#000000" d="M539.9093,-517.0859C433.6609,-507.9986 497.8101,-351.3797 550,-247 561.9257,-223.1486 586.0743,-234.8514 598,-211 616.5842,-173.8316 639.5556,-117.5 598,-117.5"/>
<polygon fill="#000000" stroke="#000000" points="540.0084,-517.0898 549.8154,-521.9962 545.0042,-517.2949 550,-517.5 550,-517.5 550,-517.5 545.0042,-517.2949 550.1846,-513.0038 540.0084,-517.0898 540.0084,-517.0898"/>
<text text-anchor="start" x="266.111" y="-527.5" font-family="Arial" font-size="10.00" fill="#000000">FOREIGN KEY (repository_id) REFERENCES repositories (id)</text>
</g>
<!-- application_state -->
<g id="node7" class="node">
<title>application_state</title>
<polygon fill="#efefef" stroke="transparent" points="702,-102.5 702,-137.5 948,-137.5 948,-102.5 702,-102.5"/>
<polygon fill="none" stroke="#000000" points="702,-102.5 702,-137.5 948,-137.5 948,-102.5 702,-102.5"/>
<text text-anchor="start" x="708.8506" y="-115.3" font-family="Arial Bold" font-size="18.00" fill="#000000">application_state</text>
<text text-anchor="start" x="843.8956" y="-115.3" font-family="Arial" font-size="14.00" fill="#000000"> </text>
<text text-anchor="start" x="847.7862" y="-115.3" font-family="Arial" font-size="14.00" fill="#666666">[BASE TABLE]</text>
<polygon fill="none" stroke="#000000" points="702,-72.5 702,-102.5 948,-102.5 948,-72.5 702,-72.5"/>
<text text-anchor="start" x="709" y="-83.9" font-family="Arial" font-size="14.00" fill="#000000">state </text>
<text text-anchor="start" x="743.237" y="-83.9" font-family="Arial" font-size="14.00" fill="#666666">[varchar(10)]</text>
</g>
<!-- applications&#45;&gt;application_state -->
<g id="edge6" class="edge">
<title>applications:state&#45;&gt;application_state:state</title>
<path fill="none" stroke="#000000" d="M780.1918,-427.3927C1047.5,-421.6293 703.9174,-185.5331 702,-181 685.8113,-142.7274 660.4444,-87.5 702,-87.5"/>
<polygon fill="#000000" stroke="#000000" points="779.9994,-427.3947 769.9526,-423.0002 774.9997,-427.4473 770,-427.5 770,-427.5 770,-427.5 774.9997,-427.4473 770.0474,-431.9998 779.9994,-427.3947 779.9994,-427.3947"/>
<text text-anchor="start" x="777.261" y="-437.5" font-family="Arial" font-size="10.00" fill="#000000">FOREIGN KEY (state) REFERENCES application_state (state)</text>
</g>
<!-- builds -->
<g id="node2" class="node">
<title>builds</title>
<polygon fill="#efefef" stroke="transparent" points="114,-902.5 114,-937.5 296,-937.5 296,-902.5 114,-902.5"/>
<polygon fill="none" stroke="#000000" points="114,-902.5 114,-937.5 296,-937.5 296,-902.5 114,-902.5"/>
<text text-anchor="start" x="132.8696" y="-915.3" font-family="Arial Bold" font-size="18.00" fill="#000000">builds</text>
<text text-anchor="start" x="179.8766" y="-915.3" font-family="Arial" font-size="14.00" fill="#000000"> </text>
<text text-anchor="start" x="183.7672" y="-915.3" font-family="Arial" font-size="14.00" fill="#666666">[BASE TABLE]</text>
<polygon fill="none" stroke="#000000" points="114,-872.5 114,-902.5 296,-902.5 296,-872.5 114,-872.5"/>
<text text-anchor="start" x="121" y="-883.9" font-family="Arial" font-size="14.00" fill="#000000">id </text>
<text text-anchor="start" x="135.7798" y="-883.9" font-family="Arial" font-size="14.00" fill="#666666">[varchar(22)]</text>
<polygon fill="none" stroke="#000000" points="114,-842.5 114,-872.5 296,-872.5 296,-842.5 114,-842.5"/>
<text text-anchor="start" x="121" y="-853.9" font-family="Arial" font-size="14.00" fill="#000000">commit </text>
<text text-anchor="start" x="169.9916" y="-853.9" font-family="Arial" font-size="14.00" fill="#666666">[char(40)]</text>
<polygon fill="none" stroke="#000000" points="114,-812.5 114,-842.5 296,-842.5 296,-812.5 114,-812.5"/>
<text text-anchor="start" x="121" y="-823.9" font-family="Arial" font-size="14.00" fill="#000000">status </text>
<text text-anchor="start" x="162.237" y="-823.9" font-family="Arial" font-size="14.00" fill="#666666">[varchar(10)]</text>
<polygon fill="none" stroke="#000000" points="114,-782.5 114,-812.5 296,-812.5 296,-782.5 114,-782.5"/>
<text text-anchor="start" x="121" y="-793.9" font-family="Arial" font-size="14.00" fill="#000000">started_at </text>
<text text-anchor="start" x="187.136" y="-793.9" font-family="Arial" font-size="14.00" fill="#666666">[datetime(6)]</text>
<polygon fill="none" stroke="#000000" points="114,-752.5 114,-782.5 296,-782.5 296,-752.5 114,-752.5"/>
<text text-anchor="start" x="121" y="-763.9" font-family="Arial" font-size="14.00" fill="#000000">finished_at </text>
<text text-anchor="start" x="192.5806" y="-763.9" font-family="Arial" font-size="14.00" fill="#666666">[datetime(6)]</text>
<polygon fill="none" stroke="#000000" points="114,-722.5 114,-752.5 296,-752.5 296,-722.5 114,-722.5"/>
<text text-anchor="start" x="120.5975" y="-733.9" font-family="Arial" font-size="14.00" fill="#000000">application_id </text>
<text text-anchor="start" x="210.0659" y="-733.9" font-family="Arial" font-size="14.00" fill="#666666">[varchar(22)]</text>
</g>
<!-- builds&#45;&gt;applications -->
<g id="edge1" class="edge">
<title>builds:application_id&#45;&gt;applications:id</title>
<path fill="none" stroke="#000000" d="M306.1642,-736.2185C328.9474,-729.7124 324.7914,-699.8703 348,-680 429.5595,-610.1716 442.6317,-547.5 550,-547.5"/>
<polygon fill="#000000" stroke="#000000" points="305.9215,-736.249 295.4371,-733.0353 300.9607,-736.8745 296,-737.5 296,-737.5 296,-737.5 300.9607,-736.8745 296.5629,-741.9647 305.9215,-736.249 305.9215,-736.249"/>
<text text-anchor="start" x="6.602" y="-747.5" font-family="Arial" font-size="10.00" fill="#000000">FOREIGN KEY (application_id) REFERENCES applications (id)</text>
</g>
<!-- environments -->
<g id="node3" class="node">
<title>environments</title>
<polygon fill="#efefef" stroke="transparent" points="401,-872.5 401,-907.5 620,-907.5 620,-872.5 401,-872.5"/>
<polygon fill="none" stroke="#000000" points="401,-872.5 401,-907.5 620,-907.5 620,-872.5 401,-872.5"/>
<text text-anchor="start" x="407.8641" y="-885.3" font-family="Arial Bold" font-size="18.00" fill="#000000">environments</text>
<text text-anchor="start" x="515.8821" y="-885.3" font-family="Arial" font-size="14.00" fill="#000000"> </text>
<text text-anchor="start" x="519.7727" y="-885.3" font-family="Arial" font-size="14.00" fill="#666666">[BASE TABLE]</text>
<polygon fill="none" stroke="#000000" points="401,-842.5 401,-872.5 620,-872.5 620,-842.5 401,-842.5"/>
<text text-anchor="start" x="408" y="-853.9" font-family="Arial" font-size="14.00" fill="#000000">id </text>
<text text-anchor="start" x="422.7798" y="-853.9" font-family="Arial" font-size="14.00" fill="#666666">[varchar(22)]</text>
<polygon fill="none" stroke="#000000" points="401,-812.5 401,-842.5 620,-842.5 620,-812.5 401,-812.5"/>
<text text-anchor="start" x="408" y="-823.9" font-family="Arial" font-size="14.00" fill="#000000">application_id </text>
<text text-anchor="start" x="497.4684" y="-823.9" font-family="Arial" font-size="14.00" fill="#666666">[varchar(22)]</text>
<polygon fill="none" stroke="#000000" points="401,-782.5 401,-812.5 620,-812.5 620,-782.5 401,-782.5"/>
<text text-anchor="start" x="408" y="-793.9" font-family="Arial" font-size="14.00" fill="#000000">key </text>
<text text-anchor="start" x="433.6732" y="-793.9" font-family="Arial" font-size="14.00" fill="#666666">[varchar(100)]</text>
<polygon fill="none" stroke="#000000" points="401,-752.5 401,-782.5 620,-782.5 620,-752.5 401,-752.5"/>
<text text-anchor="start" x="408" y="-763.9" font-family="Arial" font-size="14.00" fill="#000000">value </text>
<text text-anchor="start" x="445.345" y="-763.9" font-family="Arial" font-size="14.00" fill="#666666">[text]</text>
</g>
<!-- environments&#45;&gt;applications -->
<g id="edge2" class="edge">
<title>environments:application_id&#45;&gt;applications:id</title>
<path fill="none" stroke="#000000" d="M630.2822,-826.3879C667.6016,-817.2949 639.156,-754.3894 620,-710 603.0578,-670.7405 566.9422,-683.2595 550,-644 533.0064,-604.6214 507.1111,-547.5 550,-547.5"/>
<polygon fill="#000000" stroke="#000000" points="629.942,-826.4246 619.5161,-823.0261 624.971,-826.9623 620,-827.5 620,-827.5 620,-827.5 624.971,-826.9623 620.4839,-831.9739 629.942,-826.4246 629.942,-826.4246"/>
<text text-anchor="start" x="626.602" y="-837.5" font-family="Arial" font-size="10.00" fill="#000000">FOREIGN KEY (application_id) REFERENCES applications (id)</text>
</g>
<!-- owners -->
<g id="node4" class="node">
<title>owners</title>
<polygon fill="#efefef" stroke="transparent" points="724,-842.5 724,-877.5 893,-877.5 893,-842.5 724,-842.5"/>
<polygon fill="none" stroke="#000000" points="724,-842.5 724,-877.5 893,-877.5 893,-842.5 724,-842.5"/>
<text text-anchor="start" x="730.8706" y="-855.3" font-family="Arial Bold" font-size="18.00" fill="#000000">owners</text>
<text text-anchor="start" x="788.8756" y="-855.3" font-family="Arial" font-size="14.00" fill="#000000"> </text>
<text text-anchor="start" x="792.7662" y="-855.3" font-family="Arial" font-size="14.00" fill="#666666">[BASE TABLE]</text>
<polygon fill="none" stroke="#000000" points="724,-812.5 724,-842.5 893,-842.5 893,-812.5 724,-812.5"/>
<text text-anchor="start" x="731" y="-823.9" font-family="Arial" font-size="14.00" fill="#000000">user_id </text>
<text text-anchor="start" x="780.7882" y="-823.9" font-family="Arial" font-size="14.00" fill="#666666">[char(36)]</text>
<polygon fill="none" stroke="#000000" points="724,-782.5 724,-812.5 893,-812.5 893,-782.5 724,-782.5"/>
<text text-anchor="start" x="731" y="-793.9" font-family="Arial" font-size="14.00" fill="#000000">application_id </text>
<text text-anchor="start" x="820.4684" y="-793.9" font-family="Arial" font-size="14.00" fill="#666666">[char(36)]</text>
</g>
<!-- owners&#45;&gt;applications -->
<g id="edge3" class="edge">
<title>owners:application_id&#45;&gt;applications:id</title>
<path fill="none" stroke="#000000" d="M714.28,-794.5777C705.1341,-786.039 719.3552,-760.4425 724,-740 734.4828,-693.864 759.5172,-690.136 770,-644 779.5028,-602.1771 812.8889,-547.5 770,-547.5"/>
<polygon fill="#000000" stroke="#000000" points="714.4234,-794.6208 722.7043,-801.8094 719.2117,-796.0604 724,-797.5 724,-797.5 724,-797.5 719.2117,-796.0604 725.2957,-793.1906 714.4234,-794.6208 714.4234,-794.6208"/>
<text text-anchor="start" x="730.602" y="-807.5" font-family="Arial" font-size="10.00" fill="#000000">FOREIGN KEY (application_id) REFERENCES applications (id)</text>
</g>
<!-- websites -->
<g id="node5" class="node">
<title>websites</title>
<polygon fill="#efefef" stroke="transparent" points="997,-902.5 997,-937.5 1179,-937.5 1179,-902.5 997,-902.5"/>
<polygon fill="none" stroke="#000000" points="997,-902.5 997,-937.5 1179,-937.5 1179,-902.5 997,-902.5"/>
<text text-anchor="start" x="1004.3685" y="-915.3" font-family="Arial Bold" font-size="18.00" fill="#000000">websites</text>
<text text-anchor="start" x="1074.3777" y="-915.3" font-family="Arial" font-size="14.00" fill="#000000"> </text>
<text text-anchor="start" x="1078.2683" y="-915.3" font-family="Arial" font-size="14.00" fill="#666666">[BASE TABLE]</text>
<polygon fill="none" stroke="#000000" points="997,-872.5 997,-902.5 1179,-902.5 1179,-872.5 997,-872.5"/>
<text text-anchor="start" x="1004" y="-883.9" font-family="Arial" font-size="14.00" fill="#000000">id </text>
<text text-anchor="start" x="1018.7798" y="-883.9" font-family="Arial" font-size="14.00" fill="#666666">[varchar(22)]</text>
<polygon fill="none" stroke="#000000" points="997,-842.5 997,-872.5 1179,-872.5 1179,-842.5 997,-842.5"/>
<text text-anchor="start" x="1004" y="-853.9" font-family="Arial" font-size="14.00" fill="#000000">fqdn </text>
<text text-anchor="start" x="1035.129" y="-853.9" font-family="Arial" font-size="14.00" fill="#666666">[varchar(50)]</text>
<polygon fill="none" stroke="#000000" points="997,-812.5 997,-842.5 1179,-842.5 1179,-812.5 997,-812.5"/>
<text text-anchor="start" x="1004" y="-823.9" font-family="Arial" font-size="14.00" fill="#000000">http_port </text>
<text text-anchor="start" x="1063.136" y="-823.9" font-family="Arial" font-size="14.00" fill="#666666">[int(11)]</text>
<polygon fill="none" stroke="#000000" points="997,-782.5 997,-812.5 1179,-812.5 1179,-782.5 997,-782.5"/>
<text text-anchor="start" x="1004" y="-793.9" font-family="Arial" font-size="14.00" fill="#000000">created_at </text>
<text text-anchor="start" x="1074.028" y="-793.9" font-family="Arial" font-size="14.00" fill="#666666">[datetime(6)]</text>
<polygon fill="none" stroke="#000000" points="997,-752.5 997,-782.5 1179,-782.5 1179,-752.5 997,-752.5"/>
<text text-anchor="start" x="1004" y="-763.9" font-family="Arial" font-size="14.00" fill="#000000">updated_at </text>
<text text-anchor="start" x="1077.9326" y="-763.9" font-family="Arial" font-size="14.00" fill="#666666">[datetime(6)]</text>
<polygon fill="none" stroke="#000000" points="997,-722.5 997,-752.5 1179,-752.5 1179,-722.5 997,-722.5"/>
<text text-anchor="start" x="1003.5975" y="-733.9" font-family="Arial" font-size="14.00" fill="#000000">application_id </text>
<text text-anchor="start" x="1093.0659" y="-733.9" font-family="Arial" font-size="14.00" fill="#666666">[varchar(22)]</text>
</g>
<!-- websites&#45;&gt;applications -->
<g id="edge4" class="edge">
<title>websites:application_id&#45;&gt;applications:id</title>
<path fill="none" stroke="#000000" d="M986.8095,-736.2482C963.8976,-729.8873 967.5247,-700.6424 945,-680 873.0774,-614.0877 867.5566,-547.5 770,-547.5"/>
<polygon fill="#000000" stroke="#000000" points="987.0746,-736.2807 996.4513,-741.9664 992.0373,-736.8904 997,-737.5 997,-737.5 997,-737.5 992.0373,-736.8904 997.5487,-733.0336 987.0746,-736.2807 987.0746,-736.2807"/>
<text text-anchor="start" x="707.602" y="-721.5" font-family="Arial" font-size="10.00" fill="#000000">FOREIGN KEY (application_id) REFERENCES applications (id)</text>
</g>
</g>
</svg>
