<?xml version="1.0" encoding="UTF-8" standalone="no"?>
<!DOCTYPE svg PUBLIC "-//W3C//DTD SVG 1.1//EN"
 "http://www.w3.org/Graphics/SVG/1.1/DTD/svg11.dtd">
<!-- Generated by graphviz version 2.40.1 (20161225.0304)
 -->
<!-- Title: application_config Pages: 1 -->
<svg width="629pt" height="862pt"
 viewBox="0.00 0.00 629.00 862.00" xmlns="http://www.w3.org/2000/svg" xmlns:xlink="http://www.w3.org/1999/xlink">
<g id="graph0" class="graph" transform="scale(1 1) rotate(0) translate(4 858)">
<title>application_config</title>
<polygon fill="#ffffff" stroke="transparent" points="-4,4 -4,-858 625,-858 625,4 -4,4"/>
<!-- application_config -->
<g id="node1" class="node">
<title>application_config</title>
<polygon fill="#efefef" stroke="transparent" points="70,-772.5 70,-807.5 325,-807.5 325,-772.5 70,-772.5"/>
<polygon fill="none" stroke="#000000" points="70,-772.5 70,-807.5 325,-807.5 325,-772.5 70,-772.5"/>
<text text-anchor="start" x="76.8515" y="-785.3" font-family="Arial Bold" font-size="18.00" fill="#000000">application_config</text>
<text text-anchor="start" x="220.8947" y="-785.3" font-family="Arial" font-size="14.00" fill="#000000"> </text>
<text text-anchor="start" x="224.7853" y="-785.3" font-family="Arial" font-size="14.00" fill="#666666">[BASE TABLE]</text>
<polygon fill="none" stroke="#000000" points="70,-742.5 70,-772.5 325,-772.5 325,-742.5 70,-742.5"/>
<text text-anchor="start" x="77" y="-753.9" font-family="Arial" font-size="14.00" fill="#000000">application_id </text>
<text text-anchor="start" x="166.4684" y="-753.9" font-family="Arial" font-size="14.00" fill="#666666">[char(22)]</text>
<polygon fill="none" stroke="#000000" points="70,-712.5 70,-742.5 325,-742.5 325,-712.5 70,-712.5"/>
<text text-anchor="start" x="77" y="-723.9" font-family="Arial" font-size="14.00" fill="#000000">use_mariadb </text>
<text text-anchor="start" x="161.7966" y="-723.9" font-family="Arial" font-size="14.00" fill="#666666">[tinyint(1)]</text>
<polygon fill="none" stroke="#000000" points="70,-682.5 70,-712.5 325,-712.5 325,-682.5 70,-682.5"/>
<text text-anchor="start" x="77" y="-693.9" font-family="Arial" font-size="14.00" fill="#000000">use_mongodb </text>
<text text-anchor="start" x="169.5946" y="-693.9" font-family="Arial" font-size="14.00" fill="#666666">[tinyint(1)]</text>
<polygon fill="none" stroke="#000000" points="70,-652.5 70,-682.5 325,-682.5 325,-652.5 70,-652.5"/>
<text text-anchor="start" x="77" y="-663.9" font-family="Arial" font-size="14.00" fill="#000000">base_image </text>
<text text-anchor="start" x="157.136" y="-663.9" font-family="Arial" font-size="14.00" fill="#666666">[varchar(1000)]</text>
<polygon fill="none" stroke="#000000" points="70,-622.5 70,-652.5 325,-652.5 325,-622.5 70,-622.5"/>
<text text-anchor="start" x="77" y="-633.9" font-family="Arial" font-size="14.00" fill="#000000">dockerfile_name </text>
<text text-anchor="start" x="183.5764" y="-633.9" font-family="Arial" font-size="14.00" fill="#666666">[varchar(100)]</text>
<polygon fill="none" stroke="#000000" points="70,-592.5 70,-622.5 325,-622.5 325,-592.5 70,-592.5"/>
<text text-anchor="start" x="77" y="-603.9" font-family="Arial" font-size="14.00" fill="#000000">artifact_path </text>
<text text-anchor="start" x="157.9158" y="-603.9" font-family="Arial" font-size="14.00" fill="#666666">[varchar(100)]</text>
<polygon fill="none" stroke="#000000" points="70,-562.5 70,-592.5 325,-592.5 325,-562.5 70,-562.5"/>
<text text-anchor="start" x="77" y="-573.9" font-family="Arial" font-size="14.00" fill="#000000">build_cmd </text>
<text text-anchor="start" x="144.6774" y="-573.9" font-family="Arial" font-size="14.00" fill="#666666">[text]</text>
<polygon fill="none" stroke="#000000" points="70,-532.5 70,-562.5 325,-562.5 325,-532.5 70,-532.5"/>
<text text-anchor="start" x="77" y="-543.9" font-family="Arial" font-size="14.00" fill="#000000">entrypoint_cmd </text>
<text text-anchor="start" x="176.5778" y="-543.9" font-family="Arial" font-size="14.00" fill="#666666">[text]</text>
<polygon fill="none" stroke="#000000" points="70,-502.5 70,-532.5 325,-532.5 325,-502.5 70,-502.5"/>
<text text-anchor="start" x="77" y="-513.9" font-family="Arial" font-size="14.00" fill="#000000">authentication </text>
<text text-anchor="start" x="168.0364" y="-513.9" font-family="Arial" font-size="14.00" fill="#666666">[enum(&#39;off&#39;,&#39;soft&#39;,&#39;hard&#39;)]</text>
<polygon fill="none" stroke="#000000" stroke-width="3" points="68,-501.5 68,-809.5 326,-809.5 326,-501.5 68,-501.5"/>
</g>
<!-- applications -->
<g id="node2" class="node">
<title>applications</title>
<polygon fill="#efefef" stroke="transparent" points="43,-342.5 43,-377.5 353,-377.5 353,-342.5 43,-342.5"/>
<polygon fill="none" stroke="#000000" points="43,-342.5 43,-377.5 353,-377.5 353,-342.5 43,-342.5"/>
<text text-anchor="start" x="101.8621" y="-355.3" font-family="Arial Bold" font-size="18.00" fill="#000000">applications</text>
<text text-anchor="start" x="196.8841" y="-355.3" font-family="Arial" font-size="14.00" fill="#000000"> </text>
<text text-anchor="start" x="200.7747" y="-355.3" font-family="Arial" font-size="14.00" fill="#666666">[BASE TABLE]</text>
<polygon fill="none" stroke="#000000" points="43,-312.5 43,-342.5 353,-342.5 353,-312.5 43,-312.5"/>
<text text-anchor="start" x="50" y="-323.9" font-family="Arial" font-size="14.00" fill="#000000">id </text>
<text text-anchor="start" x="64.7798" y="-323.9" font-family="Arial" font-size="14.00" fill="#666666">[char(22)]</text>
<polygon fill="none" stroke="#000000" points="43,-282.5 43,-312.5 353,-312.5 353,-282.5 43,-282.5"/>
<text text-anchor="start" x="50" y="-293.9" font-family="Arial" font-size="14.00" fill="#000000">name </text>
<text text-anchor="start" x="88.899" y="-293.9" font-family="Arial" font-size="14.00" fill="#666666">[varchar(100)]</text>
<polygon fill="none" stroke="#000000" points="43,-252.5 43,-282.5 353,-282.5 353,-252.5 43,-252.5"/>
<text text-anchor="start" x="50" y="-263.9" font-family="Arial" font-size="14.00" fill="#000000">repository_id </text>
<text text-anchor="start" x="134.0112" y="-263.9" font-family="Arial" font-size="14.00" fill="#666666">[varchar(22)]</text>
<polygon fill="none" stroke="#000000" points="43,-222.5 43,-252.5 353,-252.5 353,-222.5 43,-222.5"/>
<text text-anchor="start" x="50" y="-233.9" font-family="Arial" font-size="14.00" fill="#000000">ref_name </text>
<text text-anchor="start" x="113.0154" y="-233.9" font-family="Arial" font-size="14.00" fill="#666666">[varchar(100)]</text>
<polygon fill="none" stroke="#000000" points="43,-192.5 43,-222.5 353,-222.5 353,-192.5 43,-192.5"/>
<text text-anchor="start" x="50" y="-203.9" font-family="Arial" font-size="14.00" fill="#000000">build_type </text>
<text text-anchor="start" x="117.69" y="-203.9" font-family="Arial" font-size="14.00" fill="#666666">[enum(&#39;runtime&#39;,&#39;static&#39;)]</text>
<polygon fill="none" stroke="#000000" points="43,-162.5 43,-192.5 353,-192.5 353,-162.5 43,-162.5"/>
<text text-anchor="start" x="49.88" y="-173.9" font-family="Arial" font-size="14.00" fill="#000000">state </text>
<text text-anchor="start" x="84.117" y="-173.9" font-family="Arial" font-size="14.00" fill="#666666">[enum(&#39;idle&#39;,&#39;deploying&#39;,&#39;running&#39;,&#39;errored&#39;)]</text>
<polygon fill="none" stroke="#000000" points="43,-132.5 43,-162.5 353,-162.5 353,-132.5 43,-132.5"/>
<text text-anchor="start" x="50" y="-143.9" font-family="Arial" font-size="14.00" fill="#000000">current_commit </text>
<text text-anchor="start" x="150.3338" y="-143.9" font-family="Arial" font-size="14.00" fill="#666666">[char(40)]</text>
<polygon fill="none" stroke="#000000" points="43,-102.5 43,-132.5 353,-132.5 353,-102.5 43,-102.5"/>
<text text-anchor="start" x="50" y="-113.9" font-family="Arial" font-size="14.00" fill="#000000">want_commit </text>
<text text-anchor="start" x="136.3366" y="-113.9" font-family="Arial" font-size="14.00" fill="#666666">[char(40)]</text>
<polygon fill="none" stroke="#000000" points="43,-72.5 43,-102.5 353,-102.5 353,-72.5 43,-72.5"/>
<text text-anchor="start" x="50" y="-83.9" font-family="Arial" font-size="14.00" fill="#000000">created_at </text>
<text text-anchor="start" x="120.028" y="-83.9" font-family="Arial" font-size="14.00" fill="#666666">[datetime(6)]</text>
<polygon fill="none" stroke="#000000" points="43,-42.5 43,-72.5 353,-72.5 353,-42.5 43,-42.5"/>
<text text-anchor="start" x="50" y="-53.9" font-family="Arial" font-size="14.00" fill="#000000">updated_at </text>
<text text-anchor="start" x="123.9326" y="-53.9" font-family="Arial" font-size="14.00" fill="#666666">[datetime(6)]</text>
</g>
<!-- application_config&#45;&gt;applications -->
<g id="edge1" class="edge">
<title>application_config:application_id&#45;&gt;applications:id</title>
<path fill="none" stroke="#000000" d="M335.1939,-757.0878C456.1369,-747.0089 410.9292,-554.5963 325,-457 241.505,-362.1684 126.495,-515.8316 43,-421 15.5392,-389.8107 1.4444,-327.5 43,-327.5"/>
<polygon fill="#000000" stroke="#000000" points="334.9918,-757.0959 324.8182,-753.0037 329.9959,-757.298 325,-757.5 325,-757.5 325,-757.5 329.9959,-757.298 325.1818,-761.9963 334.9918,-757.0959 334.9918,-757.0959"/>
<text text-anchor="start" x="331.602" y="-767.5" font-family="Arial" font-size="10.00" fill="#000000">FOREIGN KEY (application_id) REFERENCES applications (id)</text>
</g>
</g>
</svg>
