<?xml version="1.0" encoding="UTF-8" standalone="no"?>
<!DOCTYPE svg PUBLIC "-//W3C//DTD SVG 1.1//EN"
        "http://www.w3.org/Graphics/SVG/1.1/DTD/svg11.dtd">
<!-- Generated by graphviz version 2.40.1 (20161225.0304)
 -->
<!-- Title: applications Pages: 1 -->
<svg width="871pt" height="959pt"
     viewBox="0.00 0.00 870.50 959.00" xmlns="http://www.w3.org/2000/svg" xmlns:xlink="http://www.w3.org/1999/xlink">
    <g id="graph0" class="graph" transform="scale(1 1) rotate(0) translate(4 955)">
        <title>applications</title>
        <polygon fill="#ffffff" stroke="transparent" points="-4,4 -4,-955 866.5,-955 866.5,4 -4,4"/>
        <!-- applications -->
        <g id="node1" class="node">
            <title>applications</title>
            <polygon fill="#efefef" stroke="transparent"
                     points="356.5,-502.5 356.5,-537.5 562.5,-537.5 562.5,-502.5 356.5,-502.5"/>
            <polygon fill="none" stroke="#000000"
                     points="356.5,-502.5 356.5,-537.5 562.5,-537.5 562.5,-502.5 356.5,-502.5"/>
            <text text-anchor="start" x="363.3621" y="-515.3" font-family="Arial Bold" font-size="18.00" fill="#000000">
                applications
            </text>
            <text text-anchor="start" x="458.3841" y="-515.3" font-family="Arial" font-size="14.00"
                  fill="#000000"></text>
            <text text-anchor="start" x="462.2747" y="-515.3" font-family="Arial" font-size="14.00" fill="#666666">[BASE
                TABLE]
            </text>
            <polygon fill="none" stroke="#000000"
                     points="356.5,-472.5 356.5,-502.5 562.5,-502.5 562.5,-472.5 356.5,-472.5"/>
            <text text-anchor="start" x="363.5" y="-483.9" font-family="Arial" font-size="14.00" fill="#000000">id
            </text>
            <text text-anchor="start" x="378.2798" y="-483.9" font-family="Arial" font-size="14.00" fill="#666666">
                [varchar(22)]
            </text>
            <polygon fill="none" stroke="#000000"
                     points="356.5,-442.5 356.5,-472.5 562.5,-472.5 562.5,-442.5 356.5,-442.5"/>
            <text text-anchor="start" x="363.5" y="-453.9" font-family="Arial" font-size="14.00" fill="#000000">owner
            </text>
            <text text-anchor="start" x="405.5056" y="-453.9" font-family="Arial" font-size="14.00" fill="#666666">
                [varchar(100)]
            </text>
            <polygon fill="none" stroke="#000000"
                     points="356.5,-412.5 356.5,-442.5 562.5,-442.5 562.5,-412.5 356.5,-412.5"/>
            <text text-anchor="start" x="363.5" y="-423.9" font-family="Arial" font-size="14.00" fill="#000000">name
            </text>
            <text text-anchor="start" x="402.399" y="-423.9" font-family="Arial" font-size="14.00" fill="#666666">
                [varchar(100)]
            </text>
            <polygon fill="none" stroke="#000000"
                     points="356.5,-382.5 356.5,-412.5 562.5,-412.5 562.5,-382.5 356.5,-382.5"/>
            <text text-anchor="start" x="363.5" y="-393.9" font-family="Arial" font-size="14.00" fill="#000000">
                repository_id
            </text>
            <text text-anchor="start" x="447.5112" y="-393.9" font-family="Arial" font-size="14.00" fill="#666666">
                [varchar(22)]
            </text>
            <polygon fill="none" stroke="#000000"
                     points="356.5,-352.5 356.5,-382.5 562.5,-382.5 562.5,-352.5 356.5,-352.5"/>
            <text text-anchor="start" x="363.5" y="-363.9" font-family="Arial" font-size="14.00" fill="#000000">
                created_at
            </text>
            <text text-anchor="start" x="433.528" y="-363.9" font-family="Arial" font-size="14.00" fill="#666666">
                [datetime(6)]
            </text>
            <polygon fill="none" stroke="#000000"
                     points="356.5,-322.5 356.5,-352.5 562.5,-352.5 562.5,-322.5 356.5,-322.5"/>
            <text text-anchor="start" x="363.5" y="-333.9" font-family="Arial" font-size="14.00" fill="#000000">
                updated_at
            </text>
            <text text-anchor="start" x="437.4326" y="-333.9" font-family="Arial" font-size="14.00" fill="#666666">
                [datetime(6)]
            </text>
            <polygon fill="none" stroke="#000000"
                     points="356.5,-292.5 356.5,-322.5 562.5,-322.5 562.5,-292.5 356.5,-292.5"/>
            <text text-anchor="start" x="363.5" y="-303.9" font-family="Arial" font-size="14.00" fill="#000000">
                deleted_at
            </text>
            <text text-anchor="start" x="432.7566" y="-303.9" font-family="Arial" font-size="14.00" fill="#666666">
                [datetime(6)]
            </text>
            <polygon fill="none" stroke="#000000" stroke-width="3"
                     points="355,-291.5 355,-539.5 564,-539.5 564,-291.5 355,-291.5"/>
        </g>
        <!-- repositories -->
        <g id="node4" class="node">
            <title>repositories</title>
            <polygon fill="#efefef" stroke="transparent"
                     points="357.5,-132.5 357.5,-167.5 561.5,-167.5 561.5,-132.5 357.5,-132.5"/>
            <polygon fill="none" stroke="#000000"
                     points="357.5,-132.5 357.5,-167.5 561.5,-167.5 561.5,-132.5 357.5,-132.5"/>
            <text text-anchor="start" x="364.3701" y="-145.3" font-family="Arial Bold" font-size="18.00" fill="#000000">
                repositories
            </text>
            <text text-anchor="start" x="457.3761" y="-145.3" font-family="Arial" font-size="14.00"
                  fill="#000000"></text>
            <text text-anchor="start" x="461.2667" y="-145.3" font-family="Arial" font-size="14.00" fill="#666666">[BASE
                TABLE]
            </text>
            <polygon fill="none" stroke="#000000"
                     points="357.5,-102.5 357.5,-132.5 561.5,-132.5 561.5,-102.5 357.5,-102.5"/>
            <text text-anchor="start" x="364.5" y="-113.9" font-family="Arial" font-size="14.00" fill="#000000">id
            </text>
            <text text-anchor="start" x="379.2798" y="-113.9" font-family="Arial" font-size="14.00" fill="#666666">
                [varchar(22)]
            </text>
            <polygon fill="none" stroke="#000000"
                     points="357.5,-72.5 357.5,-102.5 561.5,-102.5 561.5,-72.5 357.5,-72.5"/>
            <text text-anchor="start" x="364.5" y="-83.9" font-family="Arial" font-size="14.00" fill="#000000">remote
            </text>
            <text text-anchor="start" x="411.9502" y="-83.9" font-family="Arial" font-size="14.00" fill="#666666">
                [text]
            </text>
            <polygon fill="none" stroke="#000000" points="357.5,-42.5 357.5,-72.5 561.5,-72.5 561.5,-42.5 357.5,-42.5"/>
            <text text-anchor="start" x="364.5" y="-53.9" font-family="Arial" font-size="14.00" fill="#000000">refs
            </text>
            <text text-anchor="start" x="391.7244" y="-53.9" font-family="Arial" font-size="14.00" fill="#666666">
                [text]
            </text>
        </g>
        <!-- applications&#45;&gt;repositories -->
        <g id="edge3" class="edge">
            <title>applications:repository_id&#45;&gt;repositories:id</title>
            <path fill="none" stroke="#000000" d="M572.7712,-396.839C686.7896,-381.8652 682.4209,-117.5 561.5,-117.5"/>
            <polygon fill="#000000" stroke="#000000"
                     points="572.4794,-396.8577 562.211,-393.0093 567.4897,-397.1788 562.5,-397.5 562.5,-397.5 562.5,-397.5 567.4897,-397.1788 562.789,-401.9907 572.4794,-396.8577 572.4794,-396.8577"/>
            <text text-anchor="start" x="569.611" y="-407.5" font-family="Arial" font-size="10.00" fill="#000000">
                FOREIGN KEY (repository_id) REFERENCES repositories (id)
            </text>
        </g>
        <!-- build_logs -->
        <g id="node2" class="node">
            <title>build_logs</title>
            <polygon fill="#efefef" stroke="transparent"
                     points="43.5,-842.5 43.5,-877.5 462.5,-877.5 462.5,-842.5 43.5,-842.5"/>
            <polygon fill="none" stroke="#000000"
                     points="43.5,-842.5 43.5,-877.5 462.5,-877.5 462.5,-842.5 43.5,-842.5"/>
            <text text-anchor="start" x="163.8632" y="-855.3" font-family="Arial Bold" font-size="18.00" fill="#000000">
                build_logs
            </text>
            <text text-anchor="start" x="244.883" y="-855.3" font-family="Arial" font-size="14.00"
                  fill="#000000"></text>
            <text text-anchor="start" x="248.7736" y="-855.3" font-family="Arial" font-size="14.00" fill="#666666">[BASE
                TABLE]
            </text>
            <polygon fill="none" stroke="#000000"
                     points="43.5,-812.5 43.5,-842.5 462.5,-842.5 462.5,-812.5 43.5,-812.5"/>
            <text text-anchor="start" x="50.5" y="-823.9" font-family="Arial" font-size="14.00" fill="#000000">id</text>
            <text text-anchor="start" x="65.2798" y="-823.9" font-family="Arial" font-size="14.00" fill="#666666">
                [varchar(22)]
            </text>
            <polygon fill="none" stroke="#000000"
                     points="43.5,-782.5 43.5,-812.5 462.5,-812.5 462.5,-782.5 43.5,-782.5"/>
            <text text-anchor="start" x="50.5" y="-793.9" font-family="Arial" font-size="14.00" fill="#000000">
                application_id
            </text>
            <text text-anchor="start" x="139.9684" y="-793.9" font-family="Arial" font-size="14.00" fill="#666666">
                [varchar(22)]
            </text>
            <polygon fill="none" stroke="#000000"
                     points="43.5,-752.5 43.5,-782.5 462.5,-782.5 462.5,-752.5 43.5,-752.5"/>
            <text text-anchor="start" x="50.0742" y="-763.9" font-family="Arial" font-size="14.00" fill="#000000">
                result
            </text>
            <text text-anchor="start" x="88.1878" y="-763.9" font-family="Arial" font-size="14.00" fill="#666666">[enum(&#39;BUILDING&#39;,&#39;SUCCEEDED&#39;,&#39;FAILED&#39;,&#39;CANCELED&#39;)]</text>
            <polygon fill="none" stroke="#000000"
                     points="43.5,-722.5 43.5,-752.5 462.5,-752.5 462.5,-722.5 43.5,-722.5"/>
            <text text-anchor="start" x="50.5" y="-733.9" font-family="Arial" font-size="14.00" fill="#000000">
                started_at
            </text>
            <text text-anchor="start" x="116.636" y="-733.9" font-family="Arial" font-size="14.00" fill="#666666">
                [datetime(6)]
            </text>
            <polygon fill="none" stroke="#000000"
                     points="43.5,-692.5 43.5,-722.5 462.5,-722.5 462.5,-692.5 43.5,-692.5"/>
            <text text-anchor="start" x="50.5" y="-703.9" font-family="Arial" font-size="14.00" fill="#000000">
                finished_at
            </text>
            <text text-anchor="start" x="122.0806" y="-703.9" font-family="Arial" font-size="14.00" fill="#666666">
                [datetime(6)]
            </text>
        </g>
        <!-- build_logs&#45;&gt;applications -->
        <g id="edge1" class="edge">
            <title>build_logs:application_id&#45;&gt;applications:id</title>
            <path fill="none" stroke="#000000"
                  d="M472.7022,-796.6543C524.2409,-787.3887 492.5252,-704.0646 462.5,-650 435.5557,-601.4829 383.4443,-632.5171 356.5,-584 335.677,-546.5052 313.6111,-487.5 356.5,-487.5"/>
            <polygon fill="#000000" stroke="#000000"
                     points="472.4658,-796.6738 462.1282,-793.0154 467.4829,-797.0869 462.5,-797.5 462.5,-797.5 462.5,-797.5 467.4829,-797.0869 462.8718,-801.9846 472.4658,-796.6738 472.4658,-796.6738"/>
            <text text-anchor="start" x="469.102" y="-807.5" font-family="Arial" font-size="10.00" fill="#000000">
                FOREIGN KEY (application_id) REFERENCES applications (id)
            </text>
        </g>
        <!-- sites -->
        <g id="node3" class="node">
            <title>sites</title>
            <polygon fill="#efefef" stroke="transparent"
                     points="566.5,-872.5 566.5,-907.5 763.5,-907.5 763.5,-872.5 566.5,-872.5"/>
            <polygon fill="none" stroke="#000000"
                     points="566.5,-872.5 566.5,-907.5 763.5,-907.5 763.5,-872.5 566.5,-872.5"/>
            <text text-anchor="start" x="597.8718" y="-885.3" font-family="Arial Bold" font-size="18.00" fill="#000000">
                sites
            </text>
            <text text-anchor="start" x="634.8744" y="-885.3" font-family="Arial" font-size="14.00"
                  fill="#000000"></text>
            <text text-anchor="start" x="638.765" y="-885.3" font-family="Arial" font-size="14.00" fill="#666666">[BASE
                TABLE]
            </text>
            <polygon fill="none" stroke="#000000"
                     points="566.5,-842.5 566.5,-872.5 763.5,-872.5 763.5,-842.5 566.5,-842.5"/>
            <text text-anchor="start" x="573.5" y="-853.9" font-family="Arial" font-size="14.00" fill="#000000">id
            </text>
            <text text-anchor="start" x="588.2798" y="-853.9" font-family="Arial" font-size="14.00" fill="#666666">
                [varchar(22)]
            </text>
            <polygon fill="none" stroke="#000000"
                     points="566.5,-812.5 566.5,-842.5 763.5,-842.5 763.5,-812.5 566.5,-812.5"/>
            <text text-anchor="start" x="573.5" y="-823.9" font-family="Arial" font-size="14.00" fill="#000000">fqdn
            </text>
            <text text-anchor="start" x="604.629" y="-823.9" font-family="Arial" font-size="14.00" fill="#666666">
                [varchar(50)]
            </text>
            <polygon fill="none" stroke="#000000"
                     points="566.5,-782.5 566.5,-812.5 763.5,-812.5 763.5,-782.5 566.5,-782.5"/>
            <text text-anchor="start" x="573.5" y="-793.9" font-family="Arial" font-size="14.00" fill="#000000">
                path_prefix
            </text>
            <text text-anchor="start" x="646.6346" y="-793.9" font-family="Arial" font-size="14.00" fill="#666666">
                [varchar(50)]
            </text>
            <polygon fill="none" stroke="#000000"
                     points="566.5,-752.5 566.5,-782.5 763.5,-782.5 763.5,-752.5 566.5,-752.5"/>
            <text text-anchor="start" x="573.2482" y="-763.9" font-family="Arial" font-size="14.00" fill="#000000">
                type
            </text>
            <text text-anchor="start" x="603.5946" y="-763.9" font-family="Arial" font-size="14.00" fill="#666666">
                [enum(&#39;static&#39;,&#39;dynamic&#39;)]
            </text>
            <polygon fill="none" stroke="#000000"
                     points="566.5,-722.5 566.5,-752.5 763.5,-752.5 763.5,-722.5 566.5,-722.5"/>
            <text text-anchor="start" x="573.5" y="-733.9" font-family="Arial" font-size="14.00" fill="#000000">
                application_id
            </text>
            <text text-anchor="start" x="662.9684" y="-733.9" font-family="Arial" font-size="14.00" fill="#666666">
                [varchar(22)]
            </text>
            <polygon fill="none" stroke="#000000"
                     points="566.5,-692.5 566.5,-722.5 763.5,-722.5 763.5,-692.5 566.5,-692.5"/>
            <text text-anchor="start" x="573.5" y="-703.9" font-family="Arial" font-size="14.00" fill="#000000">
                created_at
            </text>
            <text text-anchor="start" x="643.528" y="-703.9" font-family="Arial" font-size="14.00" fill="#666666">
                [datetime(6)]
            </text>
            <polygon fill="none" stroke="#000000"
                     points="566.5,-662.5 566.5,-692.5 763.5,-692.5 763.5,-662.5 566.5,-662.5"/>
            <text text-anchor="start" x="573.5" y="-673.9" font-family="Arial" font-size="14.00" fill="#000000">
                updated_at
            </text>
            <text text-anchor="start" x="647.4326" y="-673.9" font-family="Arial" font-size="14.00" fill="#666666">
                [datetime(6)]
            </text>
        </g>
        <!-- sites&#45;&gt;applications -->
        <g id="edge2" class="edge">
            <title>sites:application_id&#45;&gt;applications:id</title>
            <path fill="none" stroke="#000000" d="M556.4961,-736.6915C469.5048,-721.174 669.9356,-487.5 562.5,-487.5"/>
            <polygon fill="#000000" stroke="#000000"
                     points="556.5325,-736.6943 566.1374,-741.9854 561.5163,-737.0972 566.5,-737.5 566.5,-737.5 566.5,-737.5 561.5163,-737.0972 566.8626,-733.0146 556.5325,-736.6943 556.5325,-736.6943"/>
            <text text-anchor="start" x="573.102" y="-747.5" font-family="Arial" font-size="10.00" fill="#000000">
                FOREIGN KEY (application_id) REFERENCES applications (id)
            </text>
        </g>
    </g>
</svg>
