<?xml version="1.0" encoding="UTF-8" standalone="no"?>
<!DOCTYPE svg PUBLIC "-//W3C//DTD SVG 1.1//EN"
        "http://www.w3.org/Graphics/SVG/1.1/DTD/svg11.dtd">
<!-- Generated by graphviz version 2.40.1 (20161225.0304)
 -->
<!-- Title: applications Pages: 1 -->
<svg width="752pt" height="959pt"
     viewBox="0.00 0.00 752.00 959.00" xmlns="http://www.w3.org/2000/svg" xmlns:xlink="http://www.w3.org/1999/xlink">
    <g id="graph0" class="graph" transform="scale(1 1) rotate(0) translate(4 955)">
        <title>applications</title>
        <polygon fill="#ffffff" stroke="transparent" points="-4,4 -4,-955 748,-955 748,4 -4,4"/>
        <!-- applications -->
        <g id="node1" class="node">
            <title>applications</title>
            <polygon fill="#efefef" stroke="transparent"
                     points="247,-502.5 247,-537.5 453,-537.5 453,-502.5 247,-502.5"/>
            <polygon fill="none" stroke="#000000" points="247,-502.5 247,-537.5 453,-537.5 453,-502.5 247,-502.5"/>
            <text text-anchor="start" x="253.8621" y="-515.3" font-family="Arial Bold" font-size="18.00" fill="#000000">
                applications
            </text>
            <text text-anchor="start" x="348.8841" y="-515.3" font-family="Arial" font-size="14.00"
                  fill="#000000"></text>
            <text text-anchor="start" x="352.7747" y="-515.3" font-family="Arial" font-size="14.00" fill="#666666">[BASE
                TABLE]
            </text>
            <polygon fill="none" stroke="#000000" points="247,-472.5 247,-502.5 453,-502.5 453,-472.5 247,-472.5"/>
            <text text-anchor="start" x="254" y="-483.9" font-family="Arial" font-size="14.00" fill="#000000">id</text>
            <text text-anchor="start" x="268.7798" y="-483.9" font-family="Arial" font-size="14.00" fill="#666666">
                [varchar(22)]
            </text>
            <polygon fill="none" stroke="#000000" points="247,-442.5 247,-472.5 453,-472.5 453,-442.5 247,-442.5"/>
            <text text-anchor="start" x="254" y="-453.9" font-family="Arial" font-size="14.00" fill="#000000">owner
            </text>
            <text text-anchor="start" x="296.0056" y="-453.9" font-family="Arial" font-size="14.00" fill="#666666">
                [varchar(100)]
            </text>
            <polygon fill="none" stroke="#000000" points="247,-412.5 247,-442.5 453,-442.5 453,-412.5 247,-412.5"/>
            <text text-anchor="start" x="254" y="-423.9" font-family="Arial" font-size="14.00" fill="#000000">name
            </text>
            <text text-anchor="start" x="292.899" y="-423.9" font-family="Arial" font-size="14.00" fill="#666666">
                [varchar(100)]
            </text>
            <polygon fill="none" stroke="#000000" points="247,-382.5 247,-412.5 453,-412.5 453,-382.5 247,-382.5"/>
            <text text-anchor="start" x="254" y="-393.9" font-family="Arial" font-size="14.00" fill="#000000">
                repository_id
            </text>
            <text text-anchor="start" x="338.0112" y="-393.9" font-family="Arial" font-size="14.00" fill="#666666">
                [varchar(22)]
            </text>
            <polygon fill="none" stroke="#000000" points="247,-352.5 247,-382.5 453,-382.5 453,-352.5 247,-352.5"/>
            <text text-anchor="start" x="254" y="-363.9" font-family="Arial" font-size="14.00" fill="#000000">
                created_at
            </text>
            <text text-anchor="start" x="324.028" y="-363.9" font-family="Arial" font-size="14.00" fill="#666666">
                [datetime(6)]
            </text>
            <polygon fill="none" stroke="#000000" points="247,-322.5 247,-352.5 453,-352.5 453,-322.5 247,-322.5"/>
            <text text-anchor="start" x="254" y="-333.9" font-family="Arial" font-size="14.00" fill="#000000">
                updated_at
            </text>
            <text text-anchor="start" x="327.9326" y="-333.9" font-family="Arial" font-size="14.00" fill="#666666">
                [datetime(6)]
            </text>
            <polygon fill="none" stroke="#000000" points="247,-292.5 247,-322.5 453,-322.5 453,-292.5 247,-292.5"/>
            <text text-anchor="start" x="254" y="-303.9" font-family="Arial" font-size="14.00" fill="#000000">
                deleted_at
            </text>
            <text text-anchor="start" x="323.2566" y="-303.9" font-family="Arial" font-size="14.00" fill="#666666">
                [datetime(6)]
            </text>
            <polygon fill="none" stroke="#000000" stroke-width="3"
                     points="245.5,-291.5 245.5,-539.5 454.5,-539.5 454.5,-291.5 245.5,-291.5"/>
        </g>
        <!-- repositories -->
        <g id="node4" class="node">
            <title>repositories</title>
            <polygon fill="#efefef" stroke="transparent"
                     points="248,-132.5 248,-167.5 452,-167.5 452,-132.5 248,-132.5"/>
            <polygon fill="none" stroke="#000000" points="248,-132.5 248,-167.5 452,-167.5 452,-132.5 248,-132.5"/>
            <text text-anchor="start" x="254.8701" y="-145.3" font-family="Arial Bold" font-size="18.00" fill="#000000">
                repositories
            </text>
            <text text-anchor="start" x="347.8761" y="-145.3" font-family="Arial" font-size="14.00"
                  fill="#000000"></text>
            <text text-anchor="start" x="351.7667" y="-145.3" font-family="Arial" font-size="14.00" fill="#666666">[BASE
                TABLE]
            </text>
            <polygon fill="none" stroke="#000000" points="248,-102.5 248,-132.5 452,-132.5 452,-102.5 248,-102.5"/>
            <text text-anchor="start" x="255" y="-113.9" font-family="Arial" font-size="14.00" fill="#000000">id</text>
            <text text-anchor="start" x="269.7798" y="-113.9" font-family="Arial" font-size="14.00" fill="#666666">
                [varchar(22)]
            </text>
            <polygon fill="none" stroke="#000000" points="248,-72.5 248,-102.5 452,-102.5 452,-72.5 248,-72.5"/>
            <text text-anchor="start" x="255" y="-83.9" font-family="Arial" font-size="14.00" fill="#000000">remote
            </text>
            <text text-anchor="start" x="302.4502" y="-83.9" font-family="Arial" font-size="14.00" fill="#666666">
                [text]
            </text>
            <polygon fill="none" stroke="#000000" points="248,-42.5 248,-72.5 452,-72.5 452,-42.5 248,-42.5"/>
            <text text-anchor="start" x="255" y="-53.9" font-family="Arial" font-size="14.00" fill="#000000">refs</text>
            <text text-anchor="start" x="282.2244" y="-53.9" font-family="Arial" font-size="14.00" fill="#666666">
                [text]
            </text>
        </g>
        <!-- applications&#45;&gt;repositories -->
        <g id="edge3" class="edge">
            <title>applications:repository_id&#45;&gt;repositories:id</title>
            <path fill="none" stroke="#000000" d="M463.2712,-396.839C577.2896,-381.8652 572.9209,-117.5 452,-117.5"/>
            <polygon fill="#000000" stroke="#000000"
                     points="462.9794,-396.8577 452.711,-393.0093 457.9897,-397.1788 453,-397.5 453,-397.5 453,-397.5 457.9897,-397.1788 453.289,-401.9907 462.9794,-396.8577 462.9794,-396.8577"/>
            <text text-anchor="start" x="460.111" y="-407.5" font-family="Arial" font-size="10.00" fill="#000000">
                FOREIGN KEY (repository_id) REFERENCES repositories (id)
            </text>
        </g>
        <!-- build_logs -->
        <g id="node2" class="node">
            <title>build_logs</title>
            <polygon fill="#efefef" stroke="transparent"
                     points="104,-842.5 104,-877.5 296,-877.5 296,-842.5 104,-842.5"/>
            <polygon fill="none" stroke="#000000" points="104,-842.5 104,-877.5 296,-877.5 296,-842.5 104,-842.5"/>
            <text text-anchor="start" x="110.8632" y="-855.3" font-family="Arial Bold" font-size="18.00" fill="#000000">
                build_logs
            </text>
            <text text-anchor="start" x="191.883" y="-855.3" font-family="Arial" font-size="14.00"
                  fill="#000000"></text>
            <text text-anchor="start" x="195.7736" y="-855.3" font-family="Arial" font-size="14.00" fill="#666666">[BASE
                TABLE]
            </text>
            <polygon fill="none" stroke="#000000" points="104,-812.5 104,-842.5 296,-842.5 296,-812.5 104,-812.5"/>
            <text text-anchor="start" x="111" y="-823.9" font-family="Arial" font-size="14.00" fill="#000000">id</text>
            <text text-anchor="start" x="125.7798" y="-823.9" font-family="Arial" font-size="14.00" fill="#666666">
                [varchar(22)]
            </text>
            <polygon fill="none" stroke="#000000" points="104,-782.5 104,-812.5 296,-812.5 296,-782.5 104,-782.5"/>
            <text text-anchor="start" x="111" y="-793.9" font-family="Arial" font-size="14.00" fill="#000000">
                application_id
            </text>
            <text text-anchor="start" x="200.4684" y="-793.9" font-family="Arial" font-size="14.00" fill="#666666">
                [varchar(22)]
            </text>
            <polygon fill="none" stroke="#000000" points="104,-752.5 104,-782.5 296,-782.5 296,-752.5 104,-752.5"/>
            <text text-anchor="start" x="111" y="-763.9" font-family="Arial" font-size="14.00" fill="#000000">result
            </text>
            <text text-anchor="start" x="149.1136" y="-763.9" font-family="Arial" font-size="14.00" fill="#666666">
                [varchar(20)]
            </text>
            <polygon fill="none" stroke="#000000" points="104,-722.5 104,-752.5 296,-752.5 296,-722.5 104,-722.5"/>
            <text text-anchor="start" x="111" y="-733.9" font-family="Arial" font-size="14.00" fill="#000000">
                started_at
            </text>
            <text text-anchor="start" x="177.136" y="-733.9" font-family="Arial" font-size="14.00" fill="#666666">
                [datetime(6)]
            </text>
            <polygon fill="none" stroke="#000000" points="104,-692.5 104,-722.5 296,-722.5 296,-692.5 104,-692.5"/>
            <text text-anchor="start" x="111" y="-703.9" font-family="Arial" font-size="14.00" fill="#000000">
                finished_at
            </text>
            <text text-anchor="start" x="182.5806" y="-703.9" font-family="Arial" font-size="14.00" fill="#666666">
                [datetime(6)]
            </text>
        </g>
        <!-- build_logs&#45;&gt;applications -->
        <g id="edge1" class="edge">
            <title>build_logs:application_id&#45;&gt;applications:id</title>
            <path fill="none" stroke="#000000"
                  d="M306.1,-796.6991C356.5388,-787.9157 315.4135,-708.7163 296,-650 284.5314,-615.313 258.4686,-618.687 247,-584 233.5364,-543.2791 204.1111,-487.5 247,-487.5"/>
            <polygon fill="#000000" stroke="#000000"
                     points="305.9687,-796.7094 295.6442,-793.0141 300.9844,-797.1047 296,-797.5 296,-797.5 296,-797.5 300.9844,-797.1047 296.3558,-801.9859 305.9687,-796.7094 305.9687,-796.7094"/>
            <text text-anchor="start" x="6.602" y="-807.5" font-family="Arial" font-size="10.00" fill="#000000">FOREIGN
                KEY (application_id) REFERENCES applications (id)
            </text>
        </g>
        <!-- sites -->
        <g id="node3" class="node">
            <title>sites</title>
            <polygon fill="#efefef" stroke="transparent"
                     points="401,-872.5 401,-907.5 598,-907.5 598,-872.5 401,-872.5"/>
            <polygon fill="none" stroke="#000000" points="401,-872.5 401,-907.5 598,-907.5 598,-872.5 401,-872.5"/>
            <text text-anchor="start" x="432.3718" y="-885.3" font-family="Arial Bold" font-size="18.00" fill="#000000">
                sites
            </text>
            <text text-anchor="start" x="469.3744" y="-885.3" font-family="Arial" font-size="14.00"
                  fill="#000000"></text>
            <text text-anchor="start" x="473.265" y="-885.3" font-family="Arial" font-size="14.00" fill="#666666">[BASE
                TABLE]
            </text>
            <polygon fill="none" stroke="#000000" points="401,-842.5 401,-872.5 598,-872.5 598,-842.5 401,-842.5"/>
            <text text-anchor="start" x="408" y="-853.9" font-family="Arial" font-size="14.00" fill="#000000">id</text>
            <text text-anchor="start" x="422.7798" y="-853.9" font-family="Arial" font-size="14.00" fill="#666666">
                [varchar(22)]
            </text>
            <polygon fill="none" stroke="#000000" points="401,-812.5 401,-842.5 598,-842.5 598,-812.5 401,-812.5"/>
            <text text-anchor="start" x="408" y="-823.9" font-family="Arial" font-size="14.00" fill="#000000">fqdn
            </text>
            <text text-anchor="start" x="439.129" y="-823.9" font-family="Arial" font-size="14.00" fill="#666666">
                [varchar(50)]
            </text>
            <polygon fill="none" stroke="#000000" points="401,-782.5 401,-812.5 598,-812.5 598,-782.5 401,-782.5"/>
            <text text-anchor="start" x="408" y="-793.9" font-family="Arial" font-size="14.00" fill="#000000">
                path_prefix
            </text>
            <text text-anchor="start" x="481.1346" y="-793.9" font-family="Arial" font-size="14.00" fill="#666666">
                [varchar(50)]
            </text>
            <polygon fill="none" stroke="#000000" points="401,-752.5 401,-782.5 598,-782.5 598,-752.5 401,-752.5"/>
            <text text-anchor="start" x="407.7482" y="-763.9" font-family="Arial" font-size="14.00" fill="#000000">
                type
            </text>
            <text text-anchor="start" x="438.0946" y="-763.9" font-family="Arial" font-size="14.00" fill="#666666">
                [enum(&#39;static&#39;,&#39;dynamic&#39;)]
            </text>
            <polygon fill="none" stroke="#000000" points="401,-722.5 401,-752.5 598,-752.5 598,-722.5 401,-722.5"/>
            <text text-anchor="start" x="408" y="-733.9" font-family="Arial" font-size="14.00" fill="#000000">
                application_id
            </text>
            <text text-anchor="start" x="497.4684" y="-733.9" font-family="Arial" font-size="14.00" fill="#666666">
                [varchar(22)]
            </text>
            <polygon fill="none" stroke="#000000" points="401,-692.5 401,-722.5 598,-722.5 598,-692.5 401,-692.5"/>
            <text text-anchor="start" x="408" y="-703.9" font-family="Arial" font-size="14.00" fill="#000000">
                created_at
            </text>
            <text text-anchor="start" x="478.028" y="-703.9" font-family="Arial" font-size="14.00" fill="#666666">
                [datetime(6)]
            </text>
            <polygon fill="none" stroke="#000000" points="401,-662.5 401,-692.5 598,-692.5 598,-662.5 401,-662.5"/>
            <text text-anchor="start" x="408" y="-673.9" font-family="Arial" font-size="14.00" fill="#000000">
                updated_at
            </text>
            <text text-anchor="start" x="481.9326" y="-673.9" font-family="Arial" font-size="14.00" fill="#666666">
                [datetime(6)]
            </text>
        </g>
        <!-- sites&#45;&gt;applications -->
        <g id="edge2" class="edge">
            <title>sites:application_id&#45;&gt;applications:id</title>
            <path fill="none" stroke="#000000"
                  d="M390.6635,-736.362C352.9112,-727.0626 378.5621,-662.8242 401,-620 414.0456,-595.1015 439.9544,-608.8985 453,-584 472.905,-546.0099 495.8889,-487.5 453,-487.5"/>
            <polygon fill="#000000" stroke="#000000"
                     points="391.0601,-736.4056 400.5075,-741.973 396.03,-736.9528 401,-737.5 401,-737.5 401,-737.5 396.03,-736.9528 401.4925,-733.027 391.0601,-736.4056 391.0601,-736.4056"/>
            <text text-anchor="start" x="407.602" y="-747.5" font-family="Arial" font-size="10.00" fill="#000000">
                FOREIGN KEY (application_id) REFERENCES applications (id)
            </text>
        </g>
    </g>
</svg>
