<?xml version="1.0" encoding="UTF-8" standalone="no"?>
<!DOCTYPE svg PUBLIC "-//W3C//DTD SVG 1.1//EN"
 "http://www.w3.org/Graphics/SVG/1.1/DTD/svg11.dtd">
<!-- Generated by graphviz version 2.40.1 (20161225.0304)
 -->
<!-- Title: application_config Pages: 1 -->
<svg width="605pt" height="862pt"
 viewBox="0.00 0.00 604.50 862.00" xmlns="http://www.w3.org/2000/svg" xmlns:xlink="http://www.w3.org/1999/xlink">
<g id="graph0" class="graph" transform="scale(1 1) rotate(0) translate(4 858)">
<title>application_config</title>
<polygon fill="#ffffff" stroke="transparent" points="-4,4 -4,-858 600.5,-858 600.5,4 -4,4"/>
<!-- application_config -->
<g id="node1" class="node">
<title>application_config</title>
<polygon fill="#efefef" stroke="transparent" points="296,-772.5 296,-807.5 551,-807.5 551,-772.5 296,-772.5"/>
<polygon fill="none" stroke="#000000" points="296,-772.5 296,-807.5 551,-807.5 551,-772.5 296,-772.5"/>
<text text-anchor="start" x="302.8515" y="-785.3" font-family="Arial Bold" font-size="18.00" fill="#000000">application_config</text>
<text text-anchor="start" x="446.8947" y="-785.3" font-family="Arial" font-size="14.00" fill="#000000"> </text>
<text text-anchor="start" x="450.7853" y="-785.3" font-family="Arial" font-size="14.00" fill="#666666">[BASE TABLE]</text>
<polygon fill="none" stroke="#000000" points="296,-742.5 296,-772.5 551,-772.5 551,-742.5 296,-742.5"/>
<text text-anchor="start" x="303" y="-753.9" font-family="Arial" font-size="14.00" fill="#000000">application_id </text>
<text text-anchor="start" x="392.4684" y="-753.9" font-family="Arial" font-size="14.00" fill="#666666">[char(22)]</text>
<polygon fill="none" stroke="#000000" points="296,-712.5 296,-742.5 551,-742.5 551,-712.5 296,-712.5"/>
<text text-anchor="start" x="303" y="-723.9" font-family="Arial" font-size="14.00" fill="#000000">use_mariadb </text>
<text text-anchor="start" x="387.7966" y="-723.9" font-family="Arial" font-size="14.00" fill="#666666">[tinyint(1)]</text>
<polygon fill="none" stroke="#000000" points="296,-682.5 296,-712.5 551,-712.5 551,-682.5 296,-682.5"/>
<text text-anchor="start" x="303" y="-693.9" font-family="Arial" font-size="14.00" fill="#000000">use_mongodb </text>
<text text-anchor="start" x="395.5946" y="-693.9" font-family="Arial" font-size="14.00" fill="#666666">[tinyint(1)]</text>
<polygon fill="none" stroke="#000000" points="296,-652.5 296,-682.5 551,-682.5 551,-652.5 296,-652.5"/>
<text text-anchor="start" x="303" y="-663.9" font-family="Arial" font-size="14.00" fill="#000000">base_image </text>
<text text-anchor="start" x="383.136" y="-663.9" font-family="Arial" font-size="14.00" fill="#666666">[varchar(1000)]</text>
<polygon fill="none" stroke="#000000" points="296,-622.5 296,-652.5 551,-652.5 551,-622.5 296,-622.5"/>
<text text-anchor="start" x="303" y="-633.9" font-family="Arial" font-size="14.00" fill="#000000">dockerfile_name </text>
<text text-anchor="start" x="409.5764" y="-633.9" font-family="Arial" font-size="14.00" fill="#666666">[varchar(100)]</text>
<polygon fill="none" stroke="#000000" points="296,-592.5 296,-622.5 551,-622.5 551,-592.5 296,-592.5"/>
<text text-anchor="start" x="303" y="-603.9" font-family="Arial" font-size="14.00" fill="#000000">artifact_path </text>
<text text-anchor="start" x="383.9158" y="-603.9" font-family="Arial" font-size="14.00" fill="#666666">[varchar(100)]</text>
<polygon fill="none" stroke="#000000" points="296,-562.5 296,-592.5 551,-592.5 551,-562.5 296,-562.5"/>
<text text-anchor="start" x="303" y="-573.9" font-family="Arial" font-size="14.00" fill="#000000">build_cmd </text>
<text text-anchor="start" x="370.6774" y="-573.9" font-family="Arial" font-size="14.00" fill="#666666">[text]</text>
<polygon fill="none" stroke="#000000" points="296,-532.5 296,-562.5 551,-562.5 551,-532.5 296,-532.5"/>
<text text-anchor="start" x="303" y="-543.9" font-family="Arial" font-size="14.00" fill="#000000">entrypoint_cmd </text>
<text text-anchor="start" x="402.5778" y="-543.9" font-family="Arial" font-size="14.00" fill="#666666">[text]</text>
<polygon fill="none" stroke="#000000" points="296,-502.5 296,-532.5 551,-532.5 551,-502.5 296,-502.5"/>
<text text-anchor="start" x="303" y="-513.9" font-family="Arial" font-size="14.00" fill="#000000">authentication </text>
<text text-anchor="start" x="394.0364" y="-513.9" font-family="Arial" font-size="14.00" fill="#666666">[enum(&#39;off&#39;,&#39;soft&#39;,&#39;hard&#39;)]</text>
<polygon fill="none" stroke="#000000" stroke-width="3" points="294,-501.5 294,-809.5 552,-809.5 552,-501.5 294,-501.5"/>
</g>
<!-- applications -->
<g id="node2" class="node">
<title>applications</title>
<polygon fill="#efefef" stroke="transparent" points="309,-342.5 309,-377.5 538,-377.5 538,-342.5 309,-342.5"/>
<polygon fill="none" stroke="#000000" points="309,-342.5 309,-377.5 538,-377.5 538,-342.5 309,-342.5"/>
<text text-anchor="start" x="327.3621" y="-355.3" font-family="Arial Bold" font-size="18.00" fill="#000000">applications</text>
<text text-anchor="start" x="422.3841" y="-355.3" font-family="Arial" font-size="14.00" fill="#000000"> </text>
<text text-anchor="start" x="426.2747" y="-355.3" font-family="Arial" font-size="14.00" fill="#666666">[BASE TABLE]</text>
<polygon fill="none" stroke="#000000" points="309,-312.5 309,-342.5 538,-342.5 538,-312.5 309,-312.5"/>
<text text-anchor="start" x="316" y="-323.9" font-family="Arial" font-size="14.00" fill="#000000">id </text>
<text text-anchor="start" x="330.7798" y="-323.9" font-family="Arial" font-size="14.00" fill="#666666">[char(22)]</text>
<polygon fill="none" stroke="#000000" points="309,-282.5 309,-312.5 538,-312.5 538,-282.5 309,-282.5"/>
<text text-anchor="start" x="316" y="-293.9" font-family="Arial" font-size="14.00" fill="#000000">name </text>
<text text-anchor="start" x="354.899" y="-293.9" font-family="Arial" font-size="14.00" fill="#666666">[varchar(100)]</text>
<polygon fill="none" stroke="#000000" points="309,-252.5 309,-282.5 538,-282.5 538,-252.5 309,-252.5"/>
<text text-anchor="start" x="316" y="-263.9" font-family="Arial" font-size="14.00" fill="#000000">repository_id </text>
<text text-anchor="start" x="400.0112" y="-263.9" font-family="Arial" font-size="14.00" fill="#666666">[varchar(22)]</text>
<polygon fill="none" stroke="#000000" points="309,-222.5 309,-252.5 538,-252.5 538,-222.5 309,-222.5"/>
<text text-anchor="start" x="316" y="-233.9" font-family="Arial" font-size="14.00" fill="#000000">branch_name </text>
<text text-anchor="start" x="405.4726" y="-233.9" font-family="Arial" font-size="14.00" fill="#666666">[varchar(100)]</text>
<polygon fill="none" stroke="#000000" points="309,-192.5 309,-222.5 538,-222.5 538,-192.5 309,-192.5"/>
<text text-anchor="start" x="315.8008" y="-203.9" font-family="Arial" font-size="14.00" fill="#000000">build_type </text>
<text text-anchor="start" x="383.4908" y="-203.9" font-family="Arial" font-size="14.00" fill="#666666">[enum(&#39;runtime&#39;,&#39;static&#39;)]</text>
<polygon fill="none" stroke="#000000" points="309,-162.5 309,-192.5 538,-192.5 538,-162.5 309,-162.5"/>
<text text-anchor="start" x="316" y="-173.9" font-family="Arial" font-size="14.00" fill="#000000">state </text>
<text text-anchor="start" x="350.237" y="-173.9" font-family="Arial" font-size="14.00" fill="#666666">[varchar(10)]</text>
<polygon fill="none" stroke="#000000" points="309,-132.5 309,-162.5 538,-162.5 538,-132.5 309,-132.5"/>
<text text-anchor="start" x="316" y="-143.9" font-family="Arial" font-size="14.00" fill="#000000">current_commit </text>
<text text-anchor="start" x="416.3338" y="-143.9" font-family="Arial" font-size="14.00" fill="#666666">[char(40)]</text>
<polygon fill="none" stroke="#000000" points="309,-102.5 309,-132.5 538,-132.5 538,-102.5 309,-102.5"/>
<text text-anchor="start" x="316" y="-113.9" font-family="Arial" font-size="14.00" fill="#000000">want_commit </text>
<text text-anchor="start" x="402.3366" y="-113.9" font-family="Arial" font-size="14.00" fill="#666666">[char(40)]</text>
<polygon fill="none" stroke="#000000" points="309,-72.5 309,-102.5 538,-102.5 538,-72.5 309,-72.5"/>
<text text-anchor="start" x="316" y="-83.9" font-family="Arial" font-size="14.00" fill="#000000">created_at </text>
<text text-anchor="start" x="386.028" y="-83.9" font-family="Arial" font-size="14.00" fill="#666666">[datetime(6)]</text>
<polygon fill="none" stroke="#000000" points="309,-42.5 309,-72.5 538,-72.5 538,-42.5 309,-42.5"/>
<text text-anchor="start" x="316" y="-53.9" font-family="Arial" font-size="14.00" fill="#000000">updated_at </text>
<text text-anchor="start" x="389.9326" y="-53.9" font-family="Arial" font-size="14.00" fill="#666666">[datetime(6)]</text>
</g>
<!-- application_config&#45;&gt;applications -->
<g id="edge1" class="edge">
<title>application_config:application_id&#45;&gt;applications:id</title>
<path fill="none" stroke="#000000" d="M286.0613,-755.8564C201.4481,-726.9872 216.8551,-327.5 309,-327.5"/>
<polygon fill="#000000" stroke="#000000" points="286.134,-755.8683 295.2657,-761.9397 291.067,-756.6842 296,-757.5 296,-757.5 296,-757.5 291.067,-756.6842 296.7343,-753.0603 286.134,-755.8683 286.134,-755.8683"/>
<text text-anchor="start" x="6.602" y="-767.5" font-family="Arial" font-size="10.00" fill="#000000">FOREIGN KEY (application_id) REFERENCES applications (id)</text>
</g>
</g>
</svg>
