<?xml version="1.0" encoding="UTF-8" standalone="no"?>
<!DOCTYPE svg PUBLIC "-//W3C//DTD SVG 1.1//EN"
 "http://www.w3.org/Graphics/SVG/1.1/DTD/svg11.dtd">
<!-- Generated by graphviz version 2.40.1 (20161225.0304)
 -->
<!-- Title: application_owners Pages: 1 -->
<svg width="809pt" height="652pt"
 viewBox="0.00 0.00 809.00 652.00" xmlns="http://www.w3.org/2000/svg" xmlns:xlink="http://www.w3.org/1999/xlink">
<g id="graph0" class="graph" transform="scale(1 1) rotate(0) translate(4 648)">
<title>application_owners</title>
<polygon fill="#ffffff" stroke="transparent" points="-4,4 -4,-648 805,-648 805,4 -4,4"/>
<!-- application_owners -->
<g id="node1" class="node">
<title>application_owners</title>
<polygon fill="#efefef" stroke="transparent" points="240,-562.5 240,-597.5 505,-597.5 505,-562.5 240,-562.5"/>
<polygon fill="none" stroke="#000000" points="240,-562.5 240,-597.5 505,-597.5 505,-562.5 240,-562.5"/>
<text text-anchor="start" x="246.8565" y="-575.3" font-family="Arial Bold" font-size="18.00" fill="#000000">application_owners</text>
<text text-anchor="start" x="400.8897" y="-575.3" font-family="Arial" font-size="14.00" fill="#000000"> </text>
<text text-anchor="start" x="404.7803" y="-575.3" font-family="Arial" font-size="14.00" fill="#666666">[BASE TABLE]</text>
<polygon fill="none" stroke="#000000" points="240,-532.5 240,-562.5 505,-562.5 505,-532.5 240,-532.5"/>
<text text-anchor="start" x="247" y="-543.9" font-family="Arial" font-size="14.00" fill="#000000">user_id </text>
<text text-anchor="start" x="296.7882" y="-543.9" font-family="Arial" font-size="14.00" fill="#666666">[char(22)]</text>
<polygon fill="none" stroke="#000000" points="240,-502.5 240,-532.5 505,-532.5 505,-502.5 240,-502.5"/>
<text text-anchor="start" x="247" y="-513.9" font-family="Arial" font-size="14.00" fill="#000000">application_id </text>
<text text-anchor="start" x="336.4684" y="-513.9" font-family="Arial" font-size="14.00" fill="#666666">[char(22)]</text>
<polygon fill="none" stroke="#000000" stroke-width="3" points="238,-501.5 238,-599.5 506,-599.5 506,-501.5 238,-501.5"/>
</g>
<!-- users -->
<g id="node2" class="node">
<title>users</title>
<polygon fill="#efefef" stroke="transparent" points="147,-222.5 147,-257.5 302,-257.5 302,-222.5 147,-222.5"/>
<polygon fill="none" stroke="#000000" points="147,-222.5 147,-257.5 302,-257.5 302,-222.5 147,-222.5"/>
<text text-anchor="start" x="153.8708" y="-235.3" font-family="Arial Bold" font-size="18.00" fill="#000000">users</text>
<text text-anchor="start" x="197.8754" y="-235.3" font-family="Arial" font-size="14.00" fill="#000000"> </text>
<text text-anchor="start" x="201.766" y="-235.3" font-family="Arial" font-size="14.00" fill="#666666">[BASE TABLE]</text>
<polygon fill="none" stroke="#000000" points="147,-192.5 147,-222.5 302,-222.5 302,-192.5 147,-192.5"/>
<text text-anchor="start" x="154" y="-203.9" font-family="Arial" font-size="14.00" fill="#000000">id </text>
<text text-anchor="start" x="168.7798" y="-203.9" font-family="Arial" font-size="14.00" fill="#666666">[char(22)]</text>
<polygon fill="none" stroke="#000000" points="147,-162.5 147,-192.5 302,-192.5 302,-162.5 147,-162.5"/>
<text text-anchor="start" x="154" y="-173.9" font-family="Arial" font-size="14.00" fill="#000000">name </text>
<text text-anchor="start" x="192.899" y="-173.9" font-family="Arial" font-size="14.00" fill="#666666">[varchar(255)]</text>
</g>
<!-- application_owners&#45;&gt;users -->
<g id="edge1" class="edge">
<title>application_owners:user_id&#45;&gt;users:id</title>
<path fill="none" stroke="#000000" d="M229.6694,-546.9019C104.113,-531.1011 451.8529,-207.5 302,-207.5"/>
<polygon fill="#000000" stroke="#000000" points="230.0167,-546.9219 239.7399,-551.9925 235.0084,-547.211 240,-547.5 240,-547.5 240,-547.5 235.0084,-547.211 240.2601,-543.0075 230.0167,-546.9219 230.0167,-546.9219"/>
<text text-anchor="start" x="6.945" y="-557.5" font-family="Arial" font-size="10.00" fill="#000000">FOREIGN KEY (user_id) REFERENCES users (id)</text>
</g>
<!-- applications -->
<g id="node3" class="node">
<title>applications</title>
<polygon fill="#efefef" stroke="transparent" points="406,-342.5 406,-377.5 635,-377.5 635,-342.5 406,-342.5"/>
<polygon fill="none" stroke="#000000" points="406,-342.5 406,-377.5 635,-377.5 635,-342.5 406,-342.5"/>
<text text-anchor="start" x="424.3621" y="-355.3" font-family="Arial Bold" font-size="18.00" fill="#000000">applications</text>
<text text-anchor="start" x="519.3841" y="-355.3" font-family="Arial" font-size="14.00" fill="#000000"> </text>
<text text-anchor="start" x="523.2747" y="-355.3" font-family="Arial" font-size="14.00" fill="#666666">[BASE TABLE]</text>
<polygon fill="none" stroke="#000000" points="406,-312.5 406,-342.5 635,-342.5 635,-312.5 406,-312.5"/>
<text text-anchor="start" x="413" y="-323.9" font-family="Arial" font-size="14.00" fill="#000000">id </text>
<text text-anchor="start" x="427.7798" y="-323.9" font-family="Arial" font-size="14.00" fill="#666666">[char(22)]</text>
<polygon fill="none" stroke="#000000" points="406,-282.5 406,-312.5 635,-312.5 635,-282.5 406,-282.5"/>
<text text-anchor="start" x="413" y="-293.9" font-family="Arial" font-size="14.00" fill="#000000">name </text>
<text text-anchor="start" x="451.899" y="-293.9" font-family="Arial" font-size="14.00" fill="#666666">[varchar(100)]</text>
<polygon fill="none" stroke="#000000" points="406,-252.5 406,-282.5 635,-282.5 635,-252.5 406,-252.5"/>
<text text-anchor="start" x="413" y="-263.9" font-family="Arial" font-size="14.00" fill="#000000">repository_id </text>
<text text-anchor="start" x="497.0112" y="-263.9" font-family="Arial" font-size="14.00" fill="#666666">[varchar(22)]</text>
<polygon fill="none" stroke="#000000" points="406,-222.5 406,-252.5 635,-252.5 635,-222.5 406,-222.5"/>
<text text-anchor="start" x="413" y="-233.9" font-family="Arial" font-size="14.00" fill="#000000">branch_name </text>
<text text-anchor="start" x="502.4726" y="-233.9" font-family="Arial" font-size="14.00" fill="#666666">[varchar(100)]</text>
<polygon fill="none" stroke="#000000" points="406,-192.5 406,-222.5 635,-222.5 635,-192.5 406,-192.5"/>
<text text-anchor="start" x="412.8008" y="-203.9" font-family="Arial" font-size="14.00" fill="#000000">build_type </text>
<text text-anchor="start" x="480.4908" y="-203.9" font-family="Arial" font-size="14.00" fill="#666666">[enum(&#39;runtime&#39;,&#39;static&#39;)]</text>
<polygon fill="none" stroke="#000000" points="406,-162.5 406,-192.5 635,-192.5 635,-162.5 406,-162.5"/>
<text text-anchor="start" x="413" y="-173.9" font-family="Arial" font-size="14.00" fill="#000000">state </text>
<text text-anchor="start" x="447.237" y="-173.9" font-family="Arial" font-size="14.00" fill="#666666">[varchar(10)]</text>
<polygon fill="none" stroke="#000000" points="406,-132.5 406,-162.5 635,-162.5 635,-132.5 406,-132.5"/>
<text text-anchor="start" x="413" y="-143.9" font-family="Arial" font-size="14.00" fill="#000000">current_commit </text>
<text text-anchor="start" x="513.3338" y="-143.9" font-family="Arial" font-size="14.00" fill="#666666">[char(40)]</text>
<polygon fill="none" stroke="#000000" points="406,-102.5 406,-132.5 635,-132.5 635,-102.5 406,-102.5"/>
<text text-anchor="start" x="413" y="-113.9" font-family="Arial" font-size="14.00" fill="#000000">want_commit </text>
<text text-anchor="start" x="499.3366" y="-113.9" font-family="Arial" font-size="14.00" fill="#666666">[char(40)]</text>
<polygon fill="none" stroke="#000000" points="406,-72.5 406,-102.5 635,-102.5 635,-72.5 406,-72.5"/>
<text text-anchor="start" x="413" y="-83.9" font-family="Arial" font-size="14.00" fill="#000000">created_at </text>
<text text-anchor="start" x="483.028" y="-83.9" font-family="Arial" font-size="14.00" fill="#666666">[datetime(6)]</text>
<polygon fill="none" stroke="#000000" points="406,-42.5 406,-72.5 635,-72.5 635,-42.5 406,-42.5"/>
<text text-anchor="start" x="413" y="-53.9" font-family="Arial" font-size="14.00" fill="#000000">updated_at </text>
<text text-anchor="start" x="486.9326" y="-53.9" font-family="Arial" font-size="14.00" fill="#666666">[datetime(6)]</text>
</g>
<!-- application_owners&#45;&gt;applications -->
<g id="edge2" class="edge">
<title>application_owners:application_id&#45;&gt;applications:id</title>
<path fill="none" stroke="#000000" d="M514.9264,-514.8915C528.21,-505.8779 518.0158,-475.5826 505,-457 478.1402,-418.6522 432.8598,-459.3478 406,-421 382.1597,-386.9632 364.4444,-327.5 406,-327.5"/>
<polygon fill="#000000" stroke="#000000" points="514.6716,-514.9583 503.8562,-513.1478 509.8358,-516.2292 505,-517.5 505,-517.5 505,-517.5 509.8358,-516.2292 506.1438,-521.8522 514.6716,-514.9583 514.6716,-514.9583"/>
<text text-anchor="start" x="511.602" y="-527.5" font-family="Arial" font-size="10.00" fill="#000000">FOREIGN KEY (application_id) REFERENCES applications (id)</text>
</g>
</g>
</svg>
