<?xml version="1.0" encoding="UTF-8" standalone="no"?>
<!DOCTYPE svg PUBLIC "-//W3C//DTD SVG 1.1//EN"
 "http://www.w3.org/Graphics/SVG/1.1/DTD/svg11.dtd">
<!-- Generated by graphviz version 2.40.1 (20161225.0304)
 -->
<!-- Title: application_owners Pages: 1 -->
<svg width="861pt" height="682pt"
 viewBox="0.00 0.00 861.00 682.00" xmlns="http://www.w3.org/2000/svg" xmlns:xlink="http://www.w3.org/1999/xlink">
<g id="graph0" class="graph" transform="scale(1 1) rotate(0) translate(4 678)">
<title>application_owners</title>
<polygon fill="#ffffff" stroke="transparent" points="-4,4 -4,-678 857,-678 857,4 -4,4"/>
<!-- application_owners -->
<g id="node1" class="node">
<title>application_owners</title>
<polygon fill="#efefef" stroke="transparent" points="240,-592.5 240,-627.5 505,-627.5 505,-592.5 240,-592.5"/>
<polygon fill="none" stroke="#000000" points="240,-592.5 240,-627.5 505,-627.5 505,-592.5 240,-592.5"/>
<text text-anchor="start" x="246.8565" y="-605.3" font-family="Arial Bold" font-size="18.00" fill="#000000">application_owners</text>
<text text-anchor="start" x="400.8897" y="-605.3" font-family="Arial" font-size="14.00" fill="#000000"> </text>
<text text-anchor="start" x="404.7803" y="-605.3" font-family="Arial" font-size="14.00" fill="#666666">[BASE TABLE]</text>
<polygon fill="none" stroke="#000000" points="240,-562.5 240,-592.5 505,-592.5 505,-562.5 240,-562.5"/>
<text text-anchor="start" x="247" y="-573.9" font-family="Arial" font-size="14.00" fill="#000000">user_id </text>
<text text-anchor="start" x="296.7882" y="-573.9" font-family="Arial" font-size="14.00" fill="#666666">[char(22)]</text>
<polygon fill="none" stroke="#000000" points="240,-532.5 240,-562.5 505,-562.5 505,-532.5 240,-532.5"/>
<text text-anchor="start" x="247" y="-543.9" font-family="Arial" font-size="14.00" fill="#000000">application_id </text>
<text text-anchor="start" x="336.4684" y="-543.9" font-family="Arial" font-size="14.00" fill="#666666">[char(22)]</text>
<polygon fill="none" stroke="#000000" stroke-width="3" points="238,-531.5 238,-629.5 506,-629.5 506,-531.5 238,-531.5"/>
</g>
<!-- users -->
<g id="node2" class="node">
<title>users</title>
<polygon fill="#efefef" stroke="transparent" points="89,-252.5 89,-287.5 244,-287.5 244,-252.5 89,-252.5"/>
<polygon fill="none" stroke="#000000" points="89,-252.5 89,-287.5 244,-287.5 244,-252.5 89,-252.5"/>
<text text-anchor="start" x="95.8708" y="-265.3" font-family="Arial Bold" font-size="18.00" fill="#000000">users</text>
<text text-anchor="start" x="139.8754" y="-265.3" font-family="Arial" font-size="14.00" fill="#000000"> </text>
<text text-anchor="start" x="143.766" y="-265.3" font-family="Arial" font-size="14.00" fill="#666666">[BASE TABLE]</text>
<polygon fill="none" stroke="#000000" points="89,-222.5 89,-252.5 244,-252.5 244,-222.5 89,-222.5"/>
<text text-anchor="start" x="96" y="-233.9" font-family="Arial" font-size="14.00" fill="#000000">id </text>
<text text-anchor="start" x="110.7798" y="-233.9" font-family="Arial" font-size="14.00" fill="#666666">[char(22)]</text>
<polygon fill="none" stroke="#000000" points="89,-192.5 89,-222.5 244,-222.5 244,-192.5 89,-192.5"/>
<text text-anchor="start" x="96" y="-203.9" font-family="Arial" font-size="14.00" fill="#000000">name </text>
<text text-anchor="start" x="134.899" y="-203.9" font-family="Arial" font-size="14.00" fill="#666666">[varchar(255)]</text>
<polygon fill="none" stroke="#000000" points="89,-162.5 89,-192.5 244,-192.5 244,-162.5 89,-162.5"/>
<text text-anchor="start" x="96" y="-173.9" font-family="Arial" font-size="14.00" fill="#000000">admin </text>
<text text-anchor="start" x="138.0056" y="-173.9" font-family="Arial" font-size="14.00" fill="#666666">[tinyint(1)]</text>
</g>
<!-- application_owners&#45;&gt;users -->
<g id="edge1" class="edge">
<title>application_owners:user_id&#45;&gt;users:id</title>
<path fill="none" stroke="#000000" d="M229.736,-576.9019C103.5591,-561.1011 391.4321,-237.5 244,-237.5"/>
<polygon fill="#000000" stroke="#000000" points="230.0169,-576.9182 239.7382,-581.9924 235.0085,-577.2091 240,-577.5 240,-577.5 240,-577.5 235.0085,-577.2091 240.2618,-573.0076 230.0169,-576.9182 230.0169,-576.9182"/>
<text text-anchor="start" x="6.945" y="-587.5" font-family="Arial" font-size="10.00" fill="#000000">FOREIGN KEY (user_id) REFERENCES users (id)</text>
</g>
<!-- applications -->
<g id="node3" class="node">
<title>applications</title>
<polygon fill="#efefef" stroke="transparent" points="348,-372.5 348,-407.5 810,-407.5 810,-372.5 348,-372.5"/>
<polygon fill="none" stroke="#000000" points="348,-372.5 348,-407.5 810,-407.5 810,-372.5 348,-372.5"/>
<text text-anchor="start" x="482.8621" y="-385.3" font-family="Arial Bold" font-size="18.00" fill="#000000">applications</text>
<text text-anchor="start" x="577.8841" y="-385.3" font-family="Arial" font-size="14.00" fill="#000000"> </text>
<text text-anchor="start" x="581.7747" y="-385.3" font-family="Arial" font-size="14.00" fill="#666666">[BASE TABLE]</text>
<polygon fill="none" stroke="#000000" points="348,-342.5 348,-372.5 810,-372.5 810,-342.5 348,-342.5"/>
<text text-anchor="start" x="355" y="-353.9" font-family="Arial" font-size="14.00" fill="#000000">id </text>
<text text-anchor="start" x="369.7798" y="-353.9" font-family="Arial" font-size="14.00" fill="#666666">[char(22)]</text>
<polygon fill="none" stroke="#000000" points="348,-312.5 348,-342.5 810,-342.5 810,-312.5 348,-312.5"/>
<text text-anchor="start" x="355" y="-323.9" font-family="Arial" font-size="14.00" fill="#000000">name </text>
<text text-anchor="start" x="393.899" y="-323.9" font-family="Arial" font-size="14.00" fill="#666666">[varchar(100)]</text>
<polygon fill="none" stroke="#000000" points="348,-282.5 348,-312.5 810,-312.5 810,-282.5 348,-282.5"/>
<text text-anchor="start" x="355" y="-293.9" font-family="Arial" font-size="14.00" fill="#000000">repository_id </text>
<text text-anchor="start" x="439.0112" y="-293.9" font-family="Arial" font-size="14.00" fill="#666666">[varchar(22)]</text>
<polygon fill="none" stroke="#000000" points="348,-252.5 348,-282.5 810,-282.5 810,-252.5 348,-252.5"/>
<text text-anchor="start" x="355" y="-263.9" font-family="Arial" font-size="14.00" fill="#000000">ref_name </text>
<text text-anchor="start" x="418.0154" y="-263.9" font-family="Arial" font-size="14.00" fill="#666666">[varchar(100)]</text>
<polygon fill="none" stroke="#000000" points="348,-222.5 348,-252.5 810,-252.5 810,-222.5 348,-222.5"/>
<text text-anchor="start" x="355" y="-233.9" font-family="Arial" font-size="14.00" fill="#000000">build_type </text>
<text text-anchor="start" x="422.69" y="-233.9" font-family="Arial" font-size="14.00" fill="#666666">[enum(&#39;runtime&#39;,&#39;static&#39;)]</text>
<polygon fill="none" stroke="#000000" points="348,-192.5 348,-222.5 810,-222.5 810,-192.5 348,-192.5"/>
<text text-anchor="start" x="355" y="-203.9" font-family="Arial" font-size="14.00" fill="#000000">running </text>
<text text-anchor="start" x="405.5708" y="-203.9" font-family="Arial" font-size="14.00" fill="#666666">[tinyint(1)]</text>
<polygon fill="none" stroke="#000000" points="348,-162.5 348,-192.5 810,-192.5 810,-162.5 348,-162.5"/>
<text text-anchor="start" x="354.6857" y="-173.9" font-family="Arial" font-size="14.00" fill="#000000">container </text>
<text text-anchor="start" x="416.1471" y="-173.9" font-family="Arial" font-size="14.00" fill="#666666">[enum(&#39;missing&#39;,&#39;starting&#39;,&#39;running&#39;,&#39;exited&#39;,&#39;errored&#39;,&#39;unknown&#39;)]</text>
<polygon fill="none" stroke="#000000" points="348,-132.5 348,-162.5 810,-162.5 810,-132.5 348,-132.5"/>
<text text-anchor="start" x="355" y="-143.9" font-family="Arial" font-size="14.00" fill="#000000">current_commit </text>
<text text-anchor="start" x="455.3338" y="-143.9" font-family="Arial" font-size="14.00" fill="#666666">[char(40)]</text>
<polygon fill="none" stroke="#000000" points="348,-102.5 348,-132.5 810,-132.5 810,-102.5 348,-102.5"/>
<text text-anchor="start" x="355" y="-113.9" font-family="Arial" font-size="14.00" fill="#000000">want_commit </text>
<text text-anchor="start" x="441.3366" y="-113.9" font-family="Arial" font-size="14.00" fill="#666666">[char(40)]</text>
<polygon fill="none" stroke="#000000" points="348,-72.5 348,-102.5 810,-102.5 810,-72.5 348,-72.5"/>
<text text-anchor="start" x="355" y="-83.9" font-family="Arial" font-size="14.00" fill="#000000">created_at </text>
<text text-anchor="start" x="425.028" y="-83.9" font-family="Arial" font-size="14.00" fill="#666666">[datetime(6)]</text>
<polygon fill="none" stroke="#000000" points="348,-42.5 348,-72.5 810,-72.5 810,-42.5 348,-42.5"/>
<text text-anchor="start" x="355" y="-53.9" font-family="Arial" font-size="14.00" fill="#000000">updated_at </text>
<text text-anchor="start" x="428.9326" y="-53.9" font-family="Arial" font-size="14.00" fill="#666666">[datetime(6)]</text>
</g>
<!-- application_owners&#45;&gt;applications -->
<g id="edge2" class="edge">
<title>application_owners:application_id&#45;&gt;applications:id</title>
<path fill="none" stroke="#000000" d="M515.0085,-544.8301C528.5602,-535.6161 519.1365,-504.7449 505,-487 460.3933,-431.0073 392.6067,-506.9927 348,-451 322.1068,-418.4976 306.4444,-357.5 348,-357.5"/>
<polygon fill="#000000" stroke="#000000" points="514.6621,-544.9224 503.8401,-543.152 509.8311,-546.2112 505,-547.5 505,-547.5 505,-547.5 509.8311,-546.2112 506.1599,-551.848 514.6621,-544.9224 514.6621,-544.9224"/>
<text text-anchor="start" x="511.602" y="-557.5" font-family="Arial" font-size="10.00" fill="#000000">FOREIGN KEY (application_id) REFERENCES applications (id)</text>
</g>
</g>
</svg>
