<?xml version="1.0" encoding="UTF-8" standalone="no"?>
<!DOCTYPE svg PUBLIC "-//W3C//DTD SVG 1.1//EN"
 "http://www.w3.org/Graphics/SVG/1.1/DTD/svg11.dtd">
<!-- Generated by graphviz version 2.40.1 (20161225.0304)
 -->
<!-- Title: applications Pages: 1 -->
<svg width="2229pt" height="1199pt"
 viewBox="0.00 0.00 2228.50 1199.00" xmlns="http://www.w3.org/2000/svg" xmlns:xlink="http://www.w3.org/1999/xlink">
<g id="graph0" class="graph" transform="scale(1 1) rotate(0) translate(4 1195)">
<title>applications</title>
<polygon fill="#ffffff" stroke="transparent" points="-4,4 -4,-1195 2224.5,-1195 2224.5,4 -4,4"/>
<!-- applications -->
<g id="node1" class="node">
<title>applications</title>
<polygon fill="#efefef" stroke="transparent" points="1038,-622.5 1038,-657.5 1500,-657.5 1500,-622.5 1038,-622.5"/>
<polygon fill="none" stroke="#000000" points="1038,-622.5 1038,-657.5 1500,-657.5 1500,-622.5 1038,-622.5"/>
<text text-anchor="start" x="1172.8621" y="-635.3" font-family="Arial Bold" font-size="18.00" fill="#000000">applications</text>
<text text-anchor="start" x="1267.8841" y="-635.3" font-family="Arial" font-size="14.00" fill="#000000"> </text>
<text text-anchor="start" x="1271.7747" y="-635.3" font-family="Arial" font-size="14.00" fill="#666666">[BASE TABLE]</text>
<polygon fill="none" stroke="#000000" points="1038,-592.5 1038,-622.5 1500,-622.5 1500,-592.5 1038,-592.5"/>
<text text-anchor="start" x="1045" y="-603.9" font-family="Arial" font-size="14.00" fill="#000000">id </text>
<text text-anchor="start" x="1059.7798" y="-603.9" font-family="Arial" font-size="14.00" fill="#666666">[char(22)]</text>
<polygon fill="none" stroke="#000000" points="1038,-562.5 1038,-592.5 1500,-592.5 1500,-562.5 1038,-562.5"/>
<text text-anchor="start" x="1045" y="-573.9" font-family="Arial" font-size="14.00" fill="#000000">name </text>
<text text-anchor="start" x="1083.899" y="-573.9" font-family="Arial" font-size="14.00" fill="#666666">[varchar(100)]</text>
<polygon fill="none" stroke="#000000" points="1038,-532.5 1038,-562.5 1500,-562.5 1500,-532.5 1038,-532.5"/>
<text text-anchor="start" x="1045" y="-543.9" font-family="Arial" font-size="14.00" fill="#000000">repository_id </text>
<text text-anchor="start" x="1129.0112" y="-543.9" font-family="Arial" font-size="14.00" fill="#666666">[varchar(22)]</text>
<polygon fill="none" stroke="#000000" points="1038,-502.5 1038,-532.5 1500,-532.5 1500,-502.5 1038,-502.5"/>
<text text-anchor="start" x="1045" y="-513.9" font-family="Arial" font-size="14.00" fill="#000000">ref_name </text>
<text text-anchor="start" x="1108.0154" y="-513.9" font-family="Arial" font-size="14.00" fill="#666666">[varchar(100)]</text>
<polygon fill="none" stroke="#000000" points="1038,-472.5 1038,-502.5 1500,-502.5 1500,-472.5 1038,-472.5"/>
<text text-anchor="start" x="1045" y="-483.9" font-family="Arial" font-size="14.00" fill="#000000">deploy_type </text>
<text text-anchor="start" x="1124.366" y="-483.9" font-family="Arial" font-size="14.00" fill="#666666">[enum(&#39;runtime&#39;,&#39;static&#39;)]</text>
<polygon fill="none" stroke="#000000" points="1038,-442.5 1038,-472.5 1500,-472.5 1500,-442.5 1038,-442.5"/>
<text text-anchor="start" x="1045" y="-453.9" font-family="Arial" font-size="14.00" fill="#000000">running </text>
<text text-anchor="start" x="1095.5708" y="-453.9" font-family="Arial" font-size="14.00" fill="#666666">[tinyint(1)]</text>
<polygon fill="none" stroke="#000000" points="1038,-412.5 1038,-442.5 1500,-442.5 1500,-412.5 1038,-412.5"/>
<text text-anchor="start" x="1044.6857" y="-423.9" font-family="Arial" font-size="14.00" fill="#000000">container </text>
<text text-anchor="start" x="1106.1471" y="-423.9" font-family="Arial" font-size="14.00" fill="#666666">[enum(&#39;missing&#39;,&#39;starting&#39;,&#39;running&#39;,&#39;exited&#39;,&#39;errored&#39;,&#39;unknown&#39;)]</text>
<polygon fill="none" stroke="#000000" points="1038,-382.5 1038,-412.5 1500,-412.5 1500,-382.5 1038,-382.5"/>
<text text-anchor="start" x="1045" y="-393.9" font-family="Arial" font-size="14.00" fill="#000000">current_commit </text>
<text text-anchor="start" x="1145.3338" y="-393.9" font-family="Arial" font-size="14.00" fill="#666666">[char(40)]</text>
<polygon fill="none" stroke="#000000" points="1038,-352.5 1038,-382.5 1500,-382.5 1500,-352.5 1038,-352.5"/>
<text text-anchor="start" x="1045" y="-363.9" font-family="Arial" font-size="14.00" fill="#000000">want_commit </text>
<text text-anchor="start" x="1131.3366" y="-363.9" font-family="Arial" font-size="14.00" fill="#666666">[char(40)]</text>
<polygon fill="none" stroke="#000000" points="1038,-322.5 1038,-352.5 1500,-352.5 1500,-322.5 1038,-322.5"/>
<text text-anchor="start" x="1045" y="-333.9" font-family="Arial" font-size="14.00" fill="#000000">created_at </text>
<text text-anchor="start" x="1115.028" y="-333.9" font-family="Arial" font-size="14.00" fill="#666666">[datetime(6)]</text>
<polygon fill="none" stroke="#000000" points="1038,-292.5 1038,-322.5 1500,-322.5 1500,-292.5 1038,-292.5"/>
<text text-anchor="start" x="1045" y="-303.9" font-family="Arial" font-size="14.00" fill="#000000">updated_at </text>
<text text-anchor="start" x="1118.9326" y="-303.9" font-family="Arial" font-size="14.00" fill="#666666">[datetime(6)]</text>
<polygon fill="none" stroke="#000000" stroke-width="3" points="1036.5,-291.5 1036.5,-659.5 1501.5,-659.5 1501.5,-291.5 1036.5,-291.5"/>
</g>
<!-- repositories -->
<g id="node7" class="node">
<title>repositories</title>
<polygon fill="#efefef" stroke="transparent" points="1167,-132.5 1167,-167.5 1371,-167.5 1371,-132.5 1167,-132.5"/>
<polygon fill="none" stroke="#000000" points="1167,-132.5 1167,-167.5 1371,-167.5 1371,-132.5 1167,-132.5"/>
<text text-anchor="start" x="1173.8701" y="-145.3" font-family="Arial Bold" font-size="18.00" fill="#000000">repositories</text>
<text text-anchor="start" x="1266.8761" y="-145.3" font-family="Arial" font-size="14.00" fill="#000000"> </text>
<text text-anchor="start" x="1270.7667" y="-145.3" font-family="Arial" font-size="14.00" fill="#666666">[BASE TABLE]</text>
<polygon fill="none" stroke="#000000" points="1167,-102.5 1167,-132.5 1371,-132.5 1371,-102.5 1167,-102.5"/>
<text text-anchor="start" x="1174" y="-113.9" font-family="Arial" font-size="14.00" fill="#000000">id </text>
<text text-anchor="start" x="1188.7798" y="-113.9" font-family="Arial" font-size="14.00" fill="#666666">[char(22)]</text>
<polygon fill="none" stroke="#000000" points="1167,-72.5 1167,-102.5 1371,-102.5 1371,-72.5 1167,-72.5"/>
<text text-anchor="start" x="1174" y="-83.9" font-family="Arial" font-size="14.00" fill="#000000">name </text>
<text text-anchor="start" x="1212.899" y="-83.9" font-family="Arial" font-size="14.00" fill="#666666">[varchar(256)]</text>
<polygon fill="none" stroke="#000000" points="1167,-42.5 1167,-72.5 1371,-72.5 1371,-42.5 1167,-42.5"/>
<text text-anchor="start" x="1174" y="-53.9" font-family="Arial" font-size="14.00" fill="#000000">url </text>
<text text-anchor="start" x="1193.4404" y="-53.9" font-family="Arial" font-size="14.00" fill="#666666">[varchar(256)]</text>
</g>
<!-- applications&#45;&gt;repositories -->
<g id="edge6" class="edge">
<title>applications:repository_id&#45;&gt;repositories:id</title>
<path fill="none" stroke="#000000" d="M1510.2187,-547.1061C1694.9689,-532.5157 1567.0186,-117.5 1371,-117.5"/>
<polygon fill="#000000" stroke="#000000" points="1509.9926,-547.1147 1499.8266,-543.0033 1504.9963,-547.3073 1500,-547.5 1500,-547.5 1500,-547.5 1504.9963,-547.3073 1500.1734,-551.9967 1509.9926,-547.1147 1509.9926,-547.1147"/>
<text text-anchor="start" x="1507.111" y="-557.5" font-family="Arial" font-size="10.00" fill="#000000">FOREIGN KEY (repository_id) REFERENCES repositories (id)</text>
</g>
<!-- application_config -->
<g id="node2" class="node">
<title>application_config</title>
<polygon fill="#efefef" stroke="transparent" points="43,-1112.5 43,-1147.5 563,-1147.5 563,-1112.5 43,-1112.5"/>
<polygon fill="none" stroke="#000000" points="43,-1112.5 43,-1147.5 563,-1147.5 563,-1112.5 43,-1112.5"/>
<text text-anchor="start" x="182.3515" y="-1125.3" font-family="Arial Bold" font-size="18.00" fill="#000000">application_config</text>
<text text-anchor="start" x="326.3947" y="-1125.3" font-family="Arial" font-size="14.00" fill="#000000"> </text>
<text text-anchor="start" x="330.2853" y="-1125.3" font-family="Arial" font-size="14.00" fill="#666666">[BASE TABLE]</text>
<polygon fill="none" stroke="#000000" points="43,-1082.5 43,-1112.5 563,-1112.5 563,-1082.5 43,-1082.5"/>
<text text-anchor="start" x="50" y="-1093.9" font-family="Arial" font-size="14.00" fill="#000000">application_id </text>
<text text-anchor="start" x="139.4684" y="-1093.9" font-family="Arial" font-size="14.00" fill="#666666">[char(22)]</text>
<polygon fill="none" stroke="#000000" points="43,-1052.5 43,-1082.5 563,-1082.5 563,-1052.5 43,-1052.5"/>
<text text-anchor="start" x="50" y="-1063.9" font-family="Arial" font-size="14.00" fill="#000000">use_mariadb </text>
<text text-anchor="start" x="134.7966" y="-1063.9" font-family="Arial" font-size="14.00" fill="#666666">[tinyint(1)]</text>
<polygon fill="none" stroke="#000000" points="43,-1022.5 43,-1052.5 563,-1052.5 563,-1022.5 43,-1022.5"/>
<text text-anchor="start" x="50" y="-1033.9" font-family="Arial" font-size="14.00" fill="#000000">use_mongodb </text>
<text text-anchor="start" x="142.5946" y="-1033.9" font-family="Arial" font-size="14.00" fill="#666666">[tinyint(1)]</text>
<polygon fill="none" stroke="#000000" points="43,-992.5 43,-1022.5 563,-1022.5 563,-992.5 43,-992.5"/>
<text text-anchor="start" x="49.8975" y="-1003.9" font-family="Arial" font-size="14.00" fill="#000000">build_type </text>
<text text-anchor="start" x="117.5875" y="-1003.9" font-family="Arial" font-size="14.00" fill="#666666">[enum(&#39;runtime&#45;cmd&#39;,&#39;runtime&#45;dockerfile&#39;,&#39;static&#45;cmd&#39;,&#39;static&#45;dockerfile&#39;)]</text>
<polygon fill="none" stroke="#000000" points="43,-962.5 43,-992.5 563,-992.5 563,-962.5 43,-962.5"/>
<text text-anchor="start" x="50" y="-973.9" font-family="Arial" font-size="14.00" fill="#000000">base_image </text>
<text text-anchor="start" x="130.136" y="-973.9" font-family="Arial" font-size="14.00" fill="#666666">[varchar(1000)]</text>
<polygon fill="none" stroke="#000000" points="43,-932.5 43,-962.5 563,-962.5 563,-932.5 43,-932.5"/>
<text text-anchor="start" x="50" y="-943.9" font-family="Arial" font-size="14.00" fill="#000000">build_cmd </text>
<text text-anchor="start" x="117.6774" y="-943.9" font-family="Arial" font-size="14.00" fill="#666666">[text]</text>
<polygon fill="none" stroke="#000000" points="43,-902.5 43,-932.5 563,-932.5 563,-902.5 43,-902.5"/>
<text text-anchor="start" x="50" y="-913.9" font-family="Arial" font-size="14.00" fill="#000000">entrypoint_cmd </text>
<text text-anchor="start" x="149.5778" y="-913.9" font-family="Arial" font-size="14.00" fill="#666666">[text]</text>
<polygon fill="none" stroke="#000000" points="43,-872.5 43,-902.5 563,-902.5 563,-872.5 43,-872.5"/>
<text text-anchor="start" x="50" y="-883.9" font-family="Arial" font-size="14.00" fill="#000000">artifact_path </text>
<text text-anchor="start" x="130.9158" y="-883.9" font-family="Arial" font-size="14.00" fill="#666666">[varchar(100)]</text>
<polygon fill="none" stroke="#000000" points="43,-842.5 43,-872.5 563,-872.5 563,-842.5 43,-842.5"/>
<text text-anchor="start" x="50" y="-853.9" font-family="Arial" font-size="14.00" fill="#000000">dockerfile_name </text>
<text text-anchor="start" x="156.5764" y="-853.9" font-family="Arial" font-size="14.00" fill="#666666">[varchar(100)]</text>
<polygon fill="none" stroke="#000000" points="43,-812.5 43,-842.5 563,-842.5 563,-812.5 43,-812.5"/>
<text text-anchor="start" x="50" y="-823.9" font-family="Arial" font-size="14.00" fill="#000000">entrypoint_override </text>
<text text-anchor="start" x="173.6928" y="-823.9" font-family="Arial" font-size="14.00" fill="#666666">[text]</text>
<polygon fill="none" stroke="#000000" points="43,-782.5 43,-812.5 563,-812.5 563,-782.5 43,-782.5"/>
<text text-anchor="start" x="50" y="-793.9" font-family="Arial" font-size="14.00" fill="#000000">command_override </text>
<text text-anchor="start" x="173.683" y="-793.9" font-family="Arial" font-size="14.00" fill="#666666">[text]</text>
</g>
<!-- application_config&#45;&gt;applications -->
<g id="edge1" class="edge">
<title>application_config:application_id&#45;&gt;applications:id</title>
<path fill="none" stroke="#000000" d="M572.8731,-1095.7538C636.3282,-1071.345 565.2635,-798.3541 615,-740 678.8967,-665.0321 939.4963,-607.5 1038,-607.5"/>
<polygon fill="#000000" stroke="#000000" points="572.8472,-1095.7583 562.2162,-1093.0688 567.9236,-1096.6292 563,-1097.5 563,-1097.5 563,-1097.5 567.9236,-1096.6292 563.7838,-1101.9312 572.8472,-1095.7583 572.8472,-1095.7583"/>
<text text-anchor="start" x="569.602" y="-1107.5" font-family="Arial" font-size="10.00" fill="#000000">FOREIGN KEY (application_id) REFERENCES applications (id)</text>
</g>
<!-- application_owners -->
<g id="node3" class="node">
<title>application_owners</title>
<polygon fill="#efefef" stroke="transparent" points="668,-977.5 668,-1012.5 933,-1012.5 933,-977.5 668,-977.5"/>
<polygon fill="none" stroke="#000000" points="668,-977.5 668,-1012.5 933,-1012.5 933,-977.5 668,-977.5"/>
<text text-anchor="start" x="674.8565" y="-990.3" font-family="Arial Bold" font-size="18.00" fill="#000000">application_owners</text>
<text text-anchor="start" x="828.8897" y="-990.3" font-family="Arial" font-size="14.00" fill="#000000"> </text>
<text text-anchor="start" x="832.7803" y="-990.3" font-family="Arial" font-size="14.00" fill="#666666">[BASE TABLE]</text>
<polygon fill="none" stroke="#000000" points="668,-947.5 668,-977.5 933,-977.5 933,-947.5 668,-947.5"/>
<text text-anchor="start" x="675" y="-958.9" font-family="Arial" font-size="14.00" fill="#000000">user_id </text>
<text text-anchor="start" x="724.7882" y="-958.9" font-family="Arial" font-size="14.00" fill="#666666">[char(22)]</text>
<polygon fill="none" stroke="#000000" points="668,-917.5 668,-947.5 933,-947.5 933,-917.5 668,-917.5"/>
<text text-anchor="start" x="675" y="-928.9" font-family="Arial" font-size="14.00" fill="#000000">application_id </text>
<text text-anchor="start" x="764.4684" y="-928.9" font-family="Arial" font-size="14.00" fill="#666666">[char(22)]</text>
</g>
<!-- application_owners&#45;&gt;applications -->
<g id="edge2" class="edge">
<title>application_owners:application_id&#45;&gt;applications:id</title>
<path fill="none" stroke="#000000" d="M943.1479,-931.9619C1016.4722,-923.6457 958.0909,-820.6147 985,-740 1005.082,-679.8379 974.5747,-607.5 1038,-607.5"/>
<polygon fill="#000000" stroke="#000000" points="942.986,-931.9704 932.7617,-928.0063 937.993,-932.2352 933,-932.5 933,-932.5 933,-932.5 937.993,-932.2352 933.2383,-936.9937 942.986,-931.9704 942.986,-931.9704"/>
<text text-anchor="start" x="939.602" y="-942.5" font-family="Arial" font-size="10.00" fill="#000000">FOREIGN KEY (application_id) REFERENCES applications (id)</text>
</g>
<!-- builds -->
<g id="node4" class="node">
<title>builds</title>
<polygon fill="#efefef" stroke="transparent" points="1037,-1067.5 1037,-1102.5 1501,-1102.5 1501,-1067.5 1037,-1067.5"/>
<polygon fill="none" stroke="#000000" points="1037,-1067.5 1037,-1102.5 1501,-1102.5 1501,-1067.5 1037,-1067.5"/>
<text text-anchor="start" x="1196.8696" y="-1080.3" font-family="Arial Bold" font-size="18.00" fill="#000000">builds</text>
<text text-anchor="start" x="1243.8766" y="-1080.3" font-family="Arial" font-size="14.00" fill="#000000"> </text>
<text text-anchor="start" x="1247.7672" y="-1080.3" font-family="Arial" font-size="14.00" fill="#666666">[BASE TABLE]</text>
<polygon fill="none" stroke="#000000" points="1037,-1037.5 1037,-1067.5 1501,-1067.5 1501,-1037.5 1037,-1037.5"/>
<text text-anchor="start" x="1044" y="-1048.9" font-family="Arial" font-size="14.00" fill="#000000">id </text>
<text text-anchor="start" x="1058.7798" y="-1048.9" font-family="Arial" font-size="14.00" fill="#666666">[char(22)]</text>
<polygon fill="none" stroke="#000000" points="1037,-1007.5 1037,-1037.5 1501,-1037.5 1501,-1007.5 1037,-1007.5"/>
<text text-anchor="start" x="1044" y="-1018.9" font-family="Arial" font-size="14.00" fill="#000000">commit </text>
<text text-anchor="start" x="1092.9916" y="-1018.9" font-family="Arial" font-size="14.00" fill="#666666">[char(40)]</text>
<polygon fill="none" stroke="#000000" points="1037,-977.5 1037,-1007.5 1501,-1007.5 1501,-977.5 1037,-977.5"/>
<text text-anchor="start" x="1043.8779" y="-988.9" font-family="Arial" font-size="14.00" fill="#000000">status </text>
<text text-anchor="start" x="1085.1149" y="-988.9" font-family="Arial" font-size="14.00" fill="#666666">[enum(&#39;building&#39;,&#39;succeeded&#39;,&#39;failed&#39;,&#39;canceled&#39;,&#39;queued&#39;,&#39;skipped&#39;)]</text>
<polygon fill="none" stroke="#000000" points="1037,-947.5 1037,-977.5 1501,-977.5 1501,-947.5 1037,-947.5"/>
<text text-anchor="start" x="1044" y="-958.9" font-family="Arial" font-size="14.00" fill="#000000">started_at </text>
<text text-anchor="start" x="1110.136" y="-958.9" font-family="Arial" font-size="14.00" fill="#666666">[datetime(6)]</text>
<polygon fill="none" stroke="#000000" points="1037,-917.5 1037,-947.5 1501,-947.5 1501,-917.5 1037,-917.5"/>
<text text-anchor="start" x="1044" y="-928.9" font-family="Arial" font-size="14.00" fill="#000000">updated_at </text>
<text text-anchor="start" x="1117.9326" y="-928.9" font-family="Arial" font-size="14.00" fill="#666666">[datetime(6)]</text>
<polygon fill="none" stroke="#000000" points="1037,-887.5 1037,-917.5 1501,-917.5 1501,-887.5 1037,-887.5"/>
<text text-anchor="start" x="1044" y="-898.9" font-family="Arial" font-size="14.00" fill="#000000">finished_at </text>
<text text-anchor="start" x="1115.5806" y="-898.9" font-family="Arial" font-size="14.00" fill="#666666">[datetime(6)]</text>
<polygon fill="none" stroke="#000000" points="1037,-857.5 1037,-887.5 1501,-887.5 1501,-857.5 1037,-857.5"/>
<text text-anchor="start" x="1044" y="-868.9" font-family="Arial" font-size="14.00" fill="#000000">retriable </text>
<text text-anchor="start" x="1098.446" y="-868.9" font-family="Arial" font-size="14.00" fill="#666666">[tinyint(1)]</text>
<polygon fill="none" stroke="#000000" points="1037,-827.5 1037,-857.5 1501,-857.5 1501,-827.5 1037,-827.5"/>
<text text-anchor="start" x="1044" y="-838.9" font-family="Arial" font-size="14.00" fill="#000000">application_id </text>
<text text-anchor="start" x="1133.4684" y="-838.9" font-family="Arial" font-size="14.00" fill="#666666">[char(22)]</text>
</g>
<!-- builds&#45;&gt;applications -->
<g id="edge3" class="edge">
<title>builds:application_id&#45;&gt;applications:id</title>
<path fill="none" stroke="#000000" d="M1269.4627,-817.4909C1279.2608,-716.5224 1441.9654,-800.8351 1500,-704 1522.0476,-667.2119 1542.8889,-607.5 1500,-607.5"/>
<polygon fill="#000000" stroke="#000000" points="1269.4619,-817.5107 1264.5048,-827.2921 1269.231,-822.5053 1269,-827.5 1269,-827.5 1269,-827.5 1269.231,-822.5053 1273.4952,-827.7079 1269.4619,-817.5107 1269.4619,-817.5107"/>
<text text-anchor="start" x="979.602" y="-837.5" font-family="Arial" font-size="10.00" fill="#000000">FOREIGN KEY (application_id) REFERENCES applications (id)</text>
</g>
<!-- environments -->
<g id="node5" class="node">
<title>environments</title>
<polygon fill="#efefef" stroke="transparent" points="1606,-1007.5 1606,-1042.5 1825,-1042.5 1825,-1007.5 1606,-1007.5"/>
<polygon fill="none" stroke="#000000" points="1606,-1007.5 1606,-1042.5 1825,-1042.5 1825,-1007.5 1606,-1007.5"/>
<text text-anchor="start" x="1612.8641" y="-1020.3" font-family="Arial Bold" font-size="18.00" fill="#000000">environments</text>
<text text-anchor="start" x="1720.8821" y="-1020.3" font-family="Arial" font-size="14.00" fill="#000000"> </text>
<text text-anchor="start" x="1724.7727" y="-1020.3" font-family="Arial" font-size="14.00" fill="#666666">[BASE TABLE]</text>
<polygon fill="none" stroke="#000000" points="1606,-977.5 1606,-1007.5 1825,-1007.5 1825,-977.5 1606,-977.5"/>
<text text-anchor="start" x="1613" y="-988.9" font-family="Arial" font-size="14.00" fill="#000000">application_id </text>
<text text-anchor="start" x="1702.4684" y="-988.9" font-family="Arial" font-size="14.00" fill="#666666">[char(22)]</text>
<polygon fill="none" stroke="#000000" points="1606,-947.5 1606,-977.5 1825,-977.5 1825,-947.5 1606,-947.5"/>
<text text-anchor="start" x="1613" y="-958.9" font-family="Arial" font-size="14.00" fill="#000000">key </text>
<text text-anchor="start" x="1638.6732" y="-958.9" font-family="Arial" font-size="14.00" fill="#666666">[varchar(100)]</text>
<polygon fill="none" stroke="#000000" points="1606,-917.5 1606,-947.5 1825,-947.5 1825,-917.5 1606,-917.5"/>
<text text-anchor="start" x="1613" y="-928.9" font-family="Arial" font-size="14.00" fill="#000000">value </text>
<text text-anchor="start" x="1650.345" y="-928.9" font-family="Arial" font-size="14.00" fill="#666666">[text]</text>
<polygon fill="none" stroke="#000000" points="1606,-887.5 1606,-917.5 1825,-917.5 1825,-887.5 1606,-887.5"/>
<text text-anchor="start" x="1613" y="-898.9" font-family="Arial" font-size="14.00" fill="#000000">system </text>
<text text-anchor="start" x="1661.2244" y="-898.9" font-family="Arial" font-size="14.00" fill="#666666">[tinyint(1)]</text>
</g>
<!-- environments&#45;&gt;applications -->
<g id="edge4" class="edge">
<title>environments:application_id&#45;&gt;applications:id</title>
<path fill="none" stroke="#000000" d="M1596.1388,-990.2672C1551.136,-968.3549 1568.5606,-791.4488 1553,-740 1534.6385,-679.2907 1563.4253,-607.5 1500,-607.5"/>
<polygon fill="#000000" stroke="#000000" points="1596.2469,-990.2916 1605.0062,-996.8889 1601.1234,-991.3958 1606,-992.5 1606,-992.5 1606,-992.5 1601.1234,-991.3958 1606.9938,-988.1111 1596.2469,-990.2916 1596.2469,-990.2916"/>
<text text-anchor="start" x="1390.602" y="-976.5" font-family="Arial" font-size="10.00" fill="#000000">FOREIGN KEY (application_id) REFERENCES applications (id)</text>
</g>
<!-- websites -->
<g id="node6" class="node">
<title>websites</title>
<polygon fill="#efefef" stroke="transparent" points="1929,-1067.5 1929,-1102.5 2178,-1102.5 2178,-1067.5 1929,-1067.5"/>
<polygon fill="none" stroke="#000000" points="1929,-1067.5 1929,-1102.5 2178,-1102.5 2178,-1067.5 1929,-1067.5"/>
<text text-anchor="start" x="1969.8685" y="-1080.3" font-family="Arial Bold" font-size="18.00" fill="#000000">websites</text>
<text text-anchor="start" x="2039.8777" y="-1080.3" font-family="Arial" font-size="14.00" fill="#000000"> </text>
<text text-anchor="start" x="2043.7683" y="-1080.3" font-family="Arial" font-size="14.00" fill="#666666">[BASE TABLE]</text>
<polygon fill="none" stroke="#000000" points="1929,-1037.5 1929,-1067.5 2178,-1067.5 2178,-1037.5 1929,-1037.5"/>
<text text-anchor="start" x="1936" y="-1048.9" font-family="Arial" font-size="14.00" fill="#000000">id </text>
<text text-anchor="start" x="1950.7798" y="-1048.9" font-family="Arial" font-size="14.00" fill="#666666">[char(22)]</text>
<polygon fill="none" stroke="#000000" points="1929,-1007.5 1929,-1037.5 2178,-1037.5 2178,-1007.5 1929,-1007.5"/>
<text text-anchor="start" x="1936" y="-1018.9" font-family="Arial" font-size="14.00" fill="#000000">fqdn </text>
<text text-anchor="start" x="1967.129" y="-1018.9" font-family="Arial" font-size="14.00" fill="#666666">[varchar(100)]</text>
<polygon fill="none" stroke="#000000" points="1929,-977.5 1929,-1007.5 2178,-1007.5 2178,-977.5 1929,-977.5"/>
<text text-anchor="start" x="1936" y="-988.9" font-family="Arial" font-size="14.00" fill="#000000">path_prefix </text>
<text text-anchor="start" x="2009.1346" y="-988.9" font-family="Arial" font-size="14.00" fill="#666666">[varchar(100)]</text>
<polygon fill="none" stroke="#000000" points="1929,-947.5 1929,-977.5 2178,-977.5 2178,-947.5 1929,-947.5"/>
<text text-anchor="start" x="1936" y="-958.9" font-family="Arial" font-size="14.00" fill="#000000">strip_prefix </text>
<text text-anchor="start" x="2008.3366" y="-958.9" font-family="Arial" font-size="14.00" fill="#666666">[tinyint(1)]</text>
<polygon fill="none" stroke="#000000" points="1929,-917.5 1929,-947.5 2178,-947.5 2178,-917.5 1929,-917.5"/>
<text text-anchor="start" x="1936" y="-928.9" font-family="Arial" font-size="14.00" fill="#000000">https </text>
<text text-anchor="start" x="1970.237" y="-928.9" font-family="Arial" font-size="14.00" fill="#666666">[tinyint(1)]</text>
<polygon fill="none" stroke="#000000" points="1929,-887.5 1929,-917.5 2178,-917.5 2178,-887.5 1929,-887.5"/>
<text text-anchor="start" x="1936" y="-898.9" font-family="Arial" font-size="14.00" fill="#000000">http_port </text>
<text text-anchor="start" x="1995.136" y="-898.9" font-family="Arial" font-size="14.00" fill="#666666">[int(11)]</text>
<polygon fill="none" stroke="#000000" points="1929,-857.5 1929,-887.5 2178,-887.5 2178,-857.5 1929,-857.5"/>
<text text-anchor="start" x="1935.69" y="-868.9" font-family="Arial" font-size="14.00" fill="#000000">authentication </text>
<text text-anchor="start" x="2026.7264" y="-868.9" font-family="Arial" font-size="14.00" fill="#666666">[enum(&#39;off&#39;,&#39;soft&#39;,&#39;hard&#39;)]</text>
<polygon fill="none" stroke="#000000" points="1929,-827.5 1929,-857.5 2178,-857.5 2178,-827.5 1929,-827.5"/>
<text text-anchor="start" x="1936" y="-838.9" font-family="Arial" font-size="14.00" fill="#000000">application_id </text>
<text text-anchor="start" x="2025.4684" y="-838.9" font-family="Arial" font-size="14.00" fill="#666666">[char(22)]</text>
</g>
<!-- websites&#45;&gt;applications -->
<g id="edge5" class="edge">
<title>websites:application_id&#45;&gt;applications:id</title>
<path fill="none" stroke="#000000" d="M1919.0227,-841.4051C1883.0655,-832.4766 1912.565,-771.1705 1877,-740 1743.4354,-622.9391 1677.6028,-607.5 1500,-607.5"/>
<polygon fill="#000000" stroke="#000000" points="1919.0597,-841.409 1928.5091,-846.9731 1924.0298,-841.9545 1929,-842.5 1929,-842.5 1929,-842.5 1924.0298,-841.9545 1929.4909,-838.0269 1919.0597,-841.409 1919.0597,-841.409"/>
<text text-anchor="start" x="1639.602" y="-826.5" font-family="Arial" font-size="10.00" fill="#000000">FOREIGN KEY (application_id) REFERENCES applications (id)</text>
</g>
</g>
</svg>
