<?xml version="1.0" encoding="UTF-8" standalone="no"?>
<!DOCTYPE svg PUBLIC "-//W3C//DTD SVG 1.1//EN"
 "http://www.w3.org/Graphics/SVG/1.1/DTD/svg11.dtd">
<!-- Generated by graphviz version 2.40.1 (20161225.0304)
 -->
<!-- Title: applications Pages: 1 -->
<svg width="1895pt" height="1109pt"
 viewBox="0.00 0.00 1895.00 1109.00" xmlns="http://www.w3.org/2000/svg" xmlns:xlink="http://www.w3.org/1999/xlink">
<g id="graph0" class="graph" transform="scale(1 1) rotate(0) translate(4 1105)">
<title>applications</title>
<polygon fill="#ffffff" stroke="transparent" points="-4,4 -4,-1105 1891,-1105 1891,4 -4,4"/>
<!-- applications -->
<g id="node1" class="node">
<title>applications</title>
<polygon fill="#efefef" stroke="transparent" points="848.5,-592.5 848.5,-627.5 1158.5,-627.5 1158.5,-592.5 848.5,-592.5"/>
<polygon fill="none" stroke="#000000" points="848.5,-592.5 848.5,-627.5 1158.5,-627.5 1158.5,-592.5 848.5,-592.5"/>
<text text-anchor="start" x="907.3621" y="-605.3" font-family="Arial Bold" font-size="18.00" fill="#000000">applications</text>
<text text-anchor="start" x="1002.3841" y="-605.3" font-family="Arial" font-size="14.00" fill="#000000"> </text>
<text text-anchor="start" x="1006.2747" y="-605.3" font-family="Arial" font-size="14.00" fill="#666666">[BASE TABLE]</text>
<polygon fill="none" stroke="#000000" points="848.5,-562.5 848.5,-592.5 1158.5,-592.5 1158.5,-562.5 848.5,-562.5"/>
<text text-anchor="start" x="855.5" y="-573.9" font-family="Arial" font-size="14.00" fill="#000000">id </text>
<text text-anchor="start" x="870.2798" y="-573.9" font-family="Arial" font-size="14.00" fill="#666666">[char(22)]</text>
<polygon fill="none" stroke="#000000" points="848.5,-532.5 848.5,-562.5 1158.5,-562.5 1158.5,-532.5 848.5,-532.5"/>
<text text-anchor="start" x="855.5" y="-543.9" font-family="Arial" font-size="14.00" fill="#000000">name </text>
<text text-anchor="start" x="894.399" y="-543.9" font-family="Arial" font-size="14.00" fill="#666666">[varchar(100)]</text>
<polygon fill="none" stroke="#000000" points="848.5,-502.5 848.5,-532.5 1158.5,-532.5 1158.5,-502.5 848.5,-502.5"/>
<text text-anchor="start" x="855.5" y="-513.9" font-family="Arial" font-size="14.00" fill="#000000">repository_id </text>
<text text-anchor="start" x="939.5112" y="-513.9" font-family="Arial" font-size="14.00" fill="#666666">[varchar(22)]</text>
<polygon fill="none" stroke="#000000" points="848.5,-472.5 848.5,-502.5 1158.5,-502.5 1158.5,-472.5 848.5,-472.5"/>
<text text-anchor="start" x="855.5" y="-483.9" font-family="Arial" font-size="14.00" fill="#000000">ref_name </text>
<text text-anchor="start" x="918.5154" y="-483.9" font-family="Arial" font-size="14.00" fill="#666666">[varchar(100)]</text>
<polygon fill="none" stroke="#000000" points="848.5,-442.5 848.5,-472.5 1158.5,-472.5 1158.5,-442.5 848.5,-442.5"/>
<text text-anchor="start" x="855.5" y="-453.9" font-family="Arial" font-size="14.00" fill="#000000">build_type </text>
<text text-anchor="start" x="923.19" y="-453.9" font-family="Arial" font-size="14.00" fill="#666666">[enum(&#39;runtime&#39;,&#39;static&#39;)]</text>
<polygon fill="none" stroke="#000000" points="848.5,-412.5 848.5,-442.5 1158.5,-442.5 1158.5,-412.5 848.5,-412.5"/>
<text text-anchor="start" x="855.38" y="-423.9" font-family="Arial" font-size="14.00" fill="#000000">state </text>
<text text-anchor="start" x="889.617" y="-423.9" font-family="Arial" font-size="14.00" fill="#666666">[enum(&#39;idle&#39;,&#39;deploying&#39;,&#39;running&#39;,&#39;errored&#39;)]</text>
<polygon fill="none" stroke="#000000" points="848.5,-382.5 848.5,-412.5 1158.5,-412.5 1158.5,-382.5 848.5,-382.5"/>
<text text-anchor="start" x="855.5" y="-393.9" font-family="Arial" font-size="14.00" fill="#000000">current_commit </text>
<text text-anchor="start" x="955.8338" y="-393.9" font-family="Arial" font-size="14.00" fill="#666666">[char(40)]</text>
<polygon fill="none" stroke="#000000" points="848.5,-352.5 848.5,-382.5 1158.5,-382.5 1158.5,-352.5 848.5,-352.5"/>
<text text-anchor="start" x="855.5" y="-363.9" font-family="Arial" font-size="14.00" fill="#000000">want_commit </text>
<text text-anchor="start" x="941.8366" y="-363.9" font-family="Arial" font-size="14.00" fill="#666666">[char(40)]</text>
<polygon fill="none" stroke="#000000" points="848.5,-322.5 848.5,-352.5 1158.5,-352.5 1158.5,-322.5 848.5,-322.5"/>
<text text-anchor="start" x="855.5" y="-333.9" font-family="Arial" font-size="14.00" fill="#000000">created_at </text>
<text text-anchor="start" x="925.528" y="-333.9" font-family="Arial" font-size="14.00" fill="#666666">[datetime(6)]</text>
<polygon fill="none" stroke="#000000" points="848.5,-292.5 848.5,-322.5 1158.5,-322.5 1158.5,-292.5 848.5,-292.5"/>
<text text-anchor="start" x="855.5" y="-303.9" font-family="Arial" font-size="14.00" fill="#000000">updated_at </text>
<text text-anchor="start" x="929.4326" y="-303.9" font-family="Arial" font-size="14.00" fill="#666666">[datetime(6)]</text>
<polygon fill="none" stroke="#000000" stroke-width="3" points="847,-291.5 847,-629.5 1160,-629.5 1160,-291.5 847,-291.5"/>
</g>
<!-- repositories -->
<g id="node7" class="node">
<title>repositories</title>
<polygon fill="#efefef" stroke="transparent" points="901.5,-132.5 901.5,-167.5 1105.5,-167.5 1105.5,-132.5 901.5,-132.5"/>
<polygon fill="none" stroke="#000000" points="901.5,-132.5 901.5,-167.5 1105.5,-167.5 1105.5,-132.5 901.5,-132.5"/>
<text text-anchor="start" x="908.3701" y="-145.3" font-family="Arial Bold" font-size="18.00" fill="#000000">repositories</text>
<text text-anchor="start" x="1001.3761" y="-145.3" font-family="Arial" font-size="14.00" fill="#000000"> </text>
<text text-anchor="start" x="1005.2667" y="-145.3" font-family="Arial" font-size="14.00" fill="#666666">[BASE TABLE]</text>
<polygon fill="none" stroke="#000000" points="901.5,-102.5 901.5,-132.5 1105.5,-132.5 1105.5,-102.5 901.5,-102.5"/>
<text text-anchor="start" x="908.5" y="-113.9" font-family="Arial" font-size="14.00" fill="#000000">id </text>
<text text-anchor="start" x="923.2798" y="-113.9" font-family="Arial" font-size="14.00" fill="#666666">[char(22)]</text>
<polygon fill="none" stroke="#000000" points="901.5,-72.5 901.5,-102.5 1105.5,-102.5 1105.5,-72.5 901.5,-72.5"/>
<text text-anchor="start" x="908.5" y="-83.9" font-family="Arial" font-size="14.00" fill="#000000">name </text>
<text text-anchor="start" x="947.399" y="-83.9" font-family="Arial" font-size="14.00" fill="#666666">[varchar(256)]</text>
<polygon fill="none" stroke="#000000" points="901.5,-42.5 901.5,-72.5 1105.5,-72.5 1105.5,-42.5 901.5,-42.5"/>
<text text-anchor="start" x="908.5" y="-53.9" font-family="Arial" font-size="14.00" fill="#000000">url </text>
<text text-anchor="start" x="927.9404" y="-53.9" font-family="Arial" font-size="14.00" fill="#666666">[varchar(256)]</text>
</g>
<!-- applications&#45;&gt;repositories -->
<g id="edge6" class="edge">
<title>applications:repository_id&#45;&gt;repositories:id</title>
<path fill="none" stroke="#000000" d="M1168.493,-517.0704C1335.7672,-502.4107 1281.4165,-117.5 1105.5,-117.5"/>
<polygon fill="#000000" stroke="#000000" points="1168.4908,-517.0704 1158.3067,-513.0042 1163.4954,-517.2852 1158.5,-517.5 1158.5,-517.5 1158.5,-517.5 1163.4954,-517.2852 1158.6933,-521.9958 1168.4908,-517.0704 1168.4908,-517.0704"/>
<text text-anchor="start" x="1165.611" y="-527.5" font-family="Arial" font-size="10.00" fill="#000000">FOREIGN KEY (repository_id) REFERENCES repositories (id)</text>
</g>
<!-- application_config -->
<g id="node2" class="node">
<title>application_config</title>
<polygon fill="#efefef" stroke="transparent" points="43.5,-1022.5 43.5,-1057.5 298.5,-1057.5 298.5,-1022.5 43.5,-1022.5"/>
<polygon fill="none" stroke="#000000" points="43.5,-1022.5 43.5,-1057.5 298.5,-1057.5 298.5,-1022.5 43.5,-1022.5"/>
<text text-anchor="start" x="50.3515" y="-1035.3" font-family="Arial Bold" font-size="18.00" fill="#000000">application_config</text>
<text text-anchor="start" x="194.3947" y="-1035.3" font-family="Arial" font-size="14.00" fill="#000000"> </text>
<text text-anchor="start" x="198.2853" y="-1035.3" font-family="Arial" font-size="14.00" fill="#666666">[BASE TABLE]</text>
<polygon fill="none" stroke="#000000" points="43.5,-992.5 43.5,-1022.5 298.5,-1022.5 298.5,-992.5 43.5,-992.5"/>
<text text-anchor="start" x="50.5" y="-1003.9" font-family="Arial" font-size="14.00" fill="#000000">application_id </text>
<text text-anchor="start" x="139.9684" y="-1003.9" font-family="Arial" font-size="14.00" fill="#666666">[char(22)]</text>
<polygon fill="none" stroke="#000000" points="43.5,-962.5 43.5,-992.5 298.5,-992.5 298.5,-962.5 43.5,-962.5"/>
<text text-anchor="start" x="50.5" y="-973.9" font-family="Arial" font-size="14.00" fill="#000000">use_mariadb </text>
<text text-anchor="start" x="135.2966" y="-973.9" font-family="Arial" font-size="14.00" fill="#666666">[tinyint(1)]</text>
<polygon fill="none" stroke="#000000" points="43.5,-932.5 43.5,-962.5 298.5,-962.5 298.5,-932.5 43.5,-932.5"/>
<text text-anchor="start" x="50.5" y="-943.9" font-family="Arial" font-size="14.00" fill="#000000">use_mongodb </text>
<text text-anchor="start" x="143.0946" y="-943.9" font-family="Arial" font-size="14.00" fill="#666666">[tinyint(1)]</text>
<polygon fill="none" stroke="#000000" points="43.5,-902.5 43.5,-932.5 298.5,-932.5 298.5,-902.5 43.5,-902.5"/>
<text text-anchor="start" x="50.5" y="-913.9" font-family="Arial" font-size="14.00" fill="#000000">base_image </text>
<text text-anchor="start" x="130.636" y="-913.9" font-family="Arial" font-size="14.00" fill="#666666">[varchar(1000)]</text>
<polygon fill="none" stroke="#000000" points="43.5,-872.5 43.5,-902.5 298.5,-902.5 298.5,-872.5 43.5,-872.5"/>
<text text-anchor="start" x="50.5" y="-883.9" font-family="Arial" font-size="14.00" fill="#000000">dockerfile_name </text>
<text text-anchor="start" x="157.0764" y="-883.9" font-family="Arial" font-size="14.00" fill="#666666">[varchar(100)]</text>
<polygon fill="none" stroke="#000000" points="43.5,-842.5 43.5,-872.5 298.5,-872.5 298.5,-842.5 43.5,-842.5"/>
<text text-anchor="start" x="50.5" y="-853.9" font-family="Arial" font-size="14.00" fill="#000000">artifact_path </text>
<text text-anchor="start" x="131.4158" y="-853.9" font-family="Arial" font-size="14.00" fill="#666666">[varchar(100)]</text>
<polygon fill="none" stroke="#000000" points="43.5,-812.5 43.5,-842.5 298.5,-842.5 298.5,-812.5 43.5,-812.5"/>
<text text-anchor="start" x="50.5" y="-823.9" font-family="Arial" font-size="14.00" fill="#000000">build_cmd </text>
<text text-anchor="start" x="118.1774" y="-823.9" font-family="Arial" font-size="14.00" fill="#666666">[text]</text>
<polygon fill="none" stroke="#000000" points="43.5,-782.5 43.5,-812.5 298.5,-812.5 298.5,-782.5 43.5,-782.5"/>
<text text-anchor="start" x="50.5" y="-793.9" font-family="Arial" font-size="14.00" fill="#000000">entrypoint_cmd </text>
<text text-anchor="start" x="150.0778" y="-793.9" font-family="Arial" font-size="14.00" fill="#666666">[text]</text>
<polygon fill="none" stroke="#000000" points="43.5,-752.5 43.5,-782.5 298.5,-782.5 298.5,-752.5 43.5,-752.5"/>
<text text-anchor="start" x="50.5" y="-763.9" font-family="Arial" font-size="14.00" fill="#000000">authentication </text>
<text text-anchor="start" x="141.5364" y="-763.9" font-family="Arial" font-size="14.00" fill="#666666">[enum(&#39;off&#39;,&#39;soft&#39;,&#39;hard&#39;)]</text>
</g>
<!-- application_config&#45;&gt;applications -->
<g id="edge1" class="edge">
<title>application_config:application_id&#45;&gt;applications:id</title>
<path fill="none" stroke="#000000" d="M308.3909,-1005.348C359.1864,-980.9697 306.721,-756.8022 349.5,-710 426.9058,-625.3143 733.7685,-577.5 848.5,-577.5"/>
<polygon fill="#000000" stroke="#000000" points="308.2714,-1005.3739 297.5433,-1003.1029 303.3857,-1006.437 298.5,-1007.5 298.5,-1007.5 298.5,-1007.5 303.3857,-1006.437 299.4567,-1011.8971 308.2714,-1005.3739 308.2714,-1005.3739"/>
<text text-anchor="start" x="305.102" y="-1017.5" font-family="Arial" font-size="10.00" fill="#000000">FOREIGN KEY (application_id) REFERENCES applications (id)</text>
</g>
<!-- application_owners -->
<g id="node3" class="node">
<title>application_owners</title>
<polygon fill="#efefef" stroke="transparent" points="402.5,-917.5 402.5,-952.5 667.5,-952.5 667.5,-917.5 402.5,-917.5"/>
<polygon fill="none" stroke="#000000" points="402.5,-917.5 402.5,-952.5 667.5,-952.5 667.5,-917.5 402.5,-917.5"/>
<text text-anchor="start" x="409.3565" y="-930.3" font-family="Arial Bold" font-size="18.00" fill="#000000">application_owners</text>
<text text-anchor="start" x="563.3897" y="-930.3" font-family="Arial" font-size="14.00" fill="#000000"> </text>
<text text-anchor="start" x="567.2803" y="-930.3" font-family="Arial" font-size="14.00" fill="#666666">[BASE TABLE]</text>
<polygon fill="none" stroke="#000000" points="402.5,-887.5 402.5,-917.5 667.5,-917.5 667.5,-887.5 402.5,-887.5"/>
<text text-anchor="start" x="409.5" y="-898.9" font-family="Arial" font-size="14.00" fill="#000000">user_id </text>
<text text-anchor="start" x="459.2882" y="-898.9" font-family="Arial" font-size="14.00" fill="#666666">[char(22)]</text>
<polygon fill="none" stroke="#000000" points="402.5,-857.5 402.5,-887.5 667.5,-887.5 667.5,-857.5 402.5,-857.5"/>
<text text-anchor="start" x="409.5" y="-868.9" font-family="Arial" font-size="14.00" fill="#000000">application_id </text>
<text text-anchor="start" x="498.9684" y="-868.9" font-family="Arial" font-size="14.00" fill="#666666">[char(22)]</text>
</g>
<!-- application_owners&#45;&gt;applications -->
<g id="edge2" class="edge">
<title>application_owners:application_id&#45;&gt;applications:id</title>
<path fill="none" stroke="#000000" d="M677.6438,-871.8178C737.433,-863.0566 682.3637,-771.8323 719.5,-710 761.8168,-639.5422 766.3111,-577.5 848.5,-577.5"/>
<polygon fill="#000000" stroke="#000000" points="677.4775,-871.8289 667.198,-868.0101 672.4887,-872.1645 667.5,-872.5 667.5,-872.5 667.5,-872.5 672.4887,-872.1645 667.802,-876.9899 677.4775,-871.8289 677.4775,-871.8289"/>
<text text-anchor="start" x="674.102" y="-882.5" font-family="Arial" font-size="10.00" fill="#000000">FOREIGN KEY (application_id) REFERENCES applications (id)</text>
</g>
<!-- builds -->
<g id="node4" class="node">
<title>builds</title>
<polygon fill="#efefef" stroke="transparent" points="771.5,-1007.5 771.5,-1042.5 1235.5,-1042.5 1235.5,-1007.5 771.5,-1007.5"/>
<polygon fill="none" stroke="#000000" points="771.5,-1007.5 771.5,-1042.5 1235.5,-1042.5 1235.5,-1007.5 771.5,-1007.5"/>
<text text-anchor="start" x="931.3696" y="-1020.3" font-family="Arial Bold" font-size="18.00" fill="#000000">builds</text>
<text text-anchor="start" x="978.3766" y="-1020.3" font-family="Arial" font-size="14.00" fill="#000000"> </text>
<text text-anchor="start" x="982.2672" y="-1020.3" font-family="Arial" font-size="14.00" fill="#666666">[BASE TABLE]</text>
<polygon fill="none" stroke="#000000" points="771.5,-977.5 771.5,-1007.5 1235.5,-1007.5 1235.5,-977.5 771.5,-977.5"/>
<text text-anchor="start" x="778.5" y="-988.9" font-family="Arial" font-size="14.00" fill="#000000">id </text>
<text text-anchor="start" x="793.2798" y="-988.9" font-family="Arial" font-size="14.00" fill="#666666">[char(22)]</text>
<polygon fill="none" stroke="#000000" points="771.5,-947.5 771.5,-977.5 1235.5,-977.5 1235.5,-947.5 771.5,-947.5"/>
<text text-anchor="start" x="778.5" y="-958.9" font-family="Arial" font-size="14.00" fill="#000000">commit </text>
<text text-anchor="start" x="827.4916" y="-958.9" font-family="Arial" font-size="14.00" fill="#666666">[char(40)]</text>
<polygon fill="none" stroke="#000000" points="771.5,-917.5 771.5,-947.5 1235.5,-947.5 1235.5,-917.5 771.5,-917.5"/>
<text text-anchor="start" x="778.3779" y="-928.9" font-family="Arial" font-size="14.00" fill="#000000">status </text>
<text text-anchor="start" x="819.6149" y="-928.9" font-family="Arial" font-size="14.00" fill="#666666">[enum(&#39;building&#39;,&#39;succeeded&#39;,&#39;failed&#39;,&#39;canceled&#39;,&#39;queued&#39;,&#39;skipped&#39;)]</text>
<polygon fill="none" stroke="#000000" points="771.5,-887.5 771.5,-917.5 1235.5,-917.5 1235.5,-887.5 771.5,-887.5"/>
<text text-anchor="start" x="778.5" y="-898.9" font-family="Arial" font-size="14.00" fill="#000000">started_at </text>
<text text-anchor="start" x="844.636" y="-898.9" font-family="Arial" font-size="14.00" fill="#666666">[datetime(6)]</text>
<polygon fill="none" stroke="#000000" points="771.5,-857.5 771.5,-887.5 1235.5,-887.5 1235.5,-857.5 771.5,-857.5"/>
<text text-anchor="start" x="778.5" y="-868.9" font-family="Arial" font-size="14.00" fill="#000000">updated_at </text>
<text text-anchor="start" x="852.4326" y="-868.9" font-family="Arial" font-size="14.00" fill="#666666">[datetime(6)]</text>
<polygon fill="none" stroke="#000000" points="771.5,-827.5 771.5,-857.5 1235.5,-857.5 1235.5,-827.5 771.5,-827.5"/>
<text text-anchor="start" x="778.5" y="-838.9" font-family="Arial" font-size="14.00" fill="#000000">finished_at </text>
<text text-anchor="start" x="850.0806" y="-838.9" font-family="Arial" font-size="14.00" fill="#666666">[datetime(6)]</text>
<polygon fill="none" stroke="#000000" points="771.5,-797.5 771.5,-827.5 1235.5,-827.5 1235.5,-797.5 771.5,-797.5"/>
<text text-anchor="start" x="778.5" y="-808.9" font-family="Arial" font-size="14.00" fill="#000000">retriable </text>
<text text-anchor="start" x="832.946" y="-808.9" font-family="Arial" font-size="14.00" fill="#666666">[tinyint(1)]</text>
<polygon fill="none" stroke="#000000" points="771.5,-767.5 771.5,-797.5 1235.5,-797.5 1235.5,-767.5 771.5,-767.5"/>
<text text-anchor="start" x="778.5" y="-778.9" font-family="Arial" font-size="14.00" fill="#000000">application_id </text>
<text text-anchor="start" x="867.9684" y="-778.9" font-family="Arial" font-size="14.00" fill="#666666">[char(22)]</text>
</g>
<!-- builds&#45;&gt;applications -->
<g id="edge3" class="edge">
<title>builds:application_id&#45;&gt;applications:id</title>
<path fill="none" stroke="#000000" d="M1004.1815,-757.466C1013.7188,-691.9133 1120.7212,-740.9093 1158.5,-674 1179.5871,-636.6531 1201.3889,-577.5 1158.5,-577.5"/>
<polygon fill="#000000" stroke="#000000" points="1004.1778,-757.523 999.0103,-767.195 1003.8389,-762.5115 1003.5,-767.5 1003.5,-767.5 1003.5,-767.5 1003.8389,-762.5115 1007.9897,-767.805 1004.1778,-757.523 1004.1778,-757.523"/>
<text text-anchor="start" x="714.102" y="-777.5" font-family="Arial" font-size="10.00" fill="#000000">FOREIGN KEY (application_id) REFERENCES applications (id)</text>
</g>
<!-- environments -->
<g id="node5" class="node">
<title>environments</title>
<polygon fill="#efefef" stroke="transparent" points="1340.5,-947.5 1340.5,-982.5 1559.5,-982.5 1559.5,-947.5 1340.5,-947.5"/>
<polygon fill="none" stroke="#000000" points="1340.5,-947.5 1340.5,-982.5 1559.5,-982.5 1559.5,-947.5 1340.5,-947.5"/>
<text text-anchor="start" x="1347.3641" y="-960.3" font-family="Arial Bold" font-size="18.00" fill="#000000">environments</text>
<text text-anchor="start" x="1455.3821" y="-960.3" font-family="Arial" font-size="14.00" fill="#000000"> </text>
<text text-anchor="start" x="1459.2727" y="-960.3" font-family="Arial" font-size="14.00" fill="#666666">[BASE TABLE]</text>
<polygon fill="none" stroke="#000000" points="1340.5,-917.5 1340.5,-947.5 1559.5,-947.5 1559.5,-917.5 1340.5,-917.5"/>
<text text-anchor="start" x="1347.5" y="-928.9" font-family="Arial" font-size="14.00" fill="#000000">application_id </text>
<text text-anchor="start" x="1436.9684" y="-928.9" font-family="Arial" font-size="14.00" fill="#666666">[char(22)]</text>
<polygon fill="none" stroke="#000000" points="1340.5,-887.5 1340.5,-917.5 1559.5,-917.5 1559.5,-887.5 1340.5,-887.5"/>
<text text-anchor="start" x="1347.5" y="-898.9" font-family="Arial" font-size="14.00" fill="#000000">key </text>
<text text-anchor="start" x="1373.1732" y="-898.9" font-family="Arial" font-size="14.00" fill="#666666">[varchar(100)]</text>
<polygon fill="none" stroke="#000000" points="1340.5,-857.5 1340.5,-887.5 1559.5,-887.5 1559.5,-857.5 1340.5,-857.5"/>
<text text-anchor="start" x="1347.5" y="-868.9" font-family="Arial" font-size="14.00" fill="#000000">value </text>
<text text-anchor="start" x="1384.845" y="-868.9" font-family="Arial" font-size="14.00" fill="#666666">[text]</text>
<polygon fill="none" stroke="#000000" points="1340.5,-827.5 1340.5,-857.5 1559.5,-857.5 1559.5,-827.5 1340.5,-827.5"/>
<text text-anchor="start" x="1347.5" y="-838.9" font-family="Arial" font-size="14.00" fill="#000000">system </text>
<text text-anchor="start" x="1395.7244" y="-838.9" font-family="Arial" font-size="14.00" fill="#666666">[tinyint(1)]</text>
</g>
<!-- environments&#45;&gt;applications -->
<g id="edge4" class="edge">
<title>environments:application_id&#45;&gt;applications:id</title>
<path fill="none" stroke="#000000" d="M1330.5025,-932.013C1245.5293,-923.1729 1334.7749,-795.9368 1287.5,-710 1247.8854,-637.9882 1240.6889,-577.5 1158.5,-577.5"/>
<polygon fill="#000000" stroke="#000000" points="1330.5118,-932.0133 1340.281,-936.9947 1335.5059,-932.2567 1340.5,-932.5 1340.5,-932.5 1340.5,-932.5 1335.5059,-932.2567 1340.719,-928.0053 1330.5118,-932.0133 1330.5118,-932.0133"/>
<text text-anchor="start" x="1125.102" y="-916.5" font-family="Arial" font-size="10.00" fill="#000000">FOREIGN KEY (application_id) REFERENCES applications (id)</text>
</g>
<!-- websites -->
<g id="node6" class="node">
<title>websites</title>
<polygon fill="#efefef" stroke="transparent" points="1663.5,-1022.5 1663.5,-1057.5 1844.5,-1057.5 1844.5,-1022.5 1663.5,-1022.5"/>
<polygon fill="none" stroke="#000000" points="1663.5,-1022.5 1663.5,-1057.5 1844.5,-1057.5 1844.5,-1022.5 1663.5,-1022.5"/>
<text text-anchor="start" x="1670.3685" y="-1035.3" font-family="Arial Bold" font-size="18.00" fill="#000000">websites</text>
<text text-anchor="start" x="1740.3777" y="-1035.3" font-family="Arial" font-size="14.00" fill="#000000"> </text>
<text text-anchor="start" x="1744.2683" y="-1035.3" font-family="Arial" font-size="14.00" fill="#666666">[BASE TABLE]</text>
<polygon fill="none" stroke="#000000" points="1663.5,-992.5 1663.5,-1022.5 1844.5,-1022.5 1844.5,-992.5 1663.5,-992.5"/>
<text text-anchor="start" x="1670.5" y="-1003.9" font-family="Arial" font-size="14.00" fill="#000000">id </text>
<text text-anchor="start" x="1685.2798" y="-1003.9" font-family="Arial" font-size="14.00" fill="#666666">[char(22)]</text>
<polygon fill="none" stroke="#000000" points="1663.5,-962.5 1663.5,-992.5 1844.5,-992.5 1844.5,-962.5 1663.5,-962.5"/>
<text text-anchor="start" x="1670.5" y="-973.9" font-family="Arial" font-size="14.00" fill="#000000">fqdn </text>
<text text-anchor="start" x="1701.629" y="-973.9" font-family="Arial" font-size="14.00" fill="#666666">[varchar(100)]</text>
<polygon fill="none" stroke="#000000" points="1663.5,-932.5 1663.5,-962.5 1844.5,-962.5 1844.5,-932.5 1663.5,-932.5"/>
<text text-anchor="start" x="1670.5" y="-943.9" font-family="Arial" font-size="14.00" fill="#000000">path_prefix </text>
<text text-anchor="start" x="1743.6346" y="-943.9" font-family="Arial" font-size="14.00" fill="#666666">[varchar(100)]</text>
<polygon fill="none" stroke="#000000" points="1663.5,-902.5 1663.5,-932.5 1844.5,-932.5 1844.5,-902.5 1663.5,-902.5"/>
<text text-anchor="start" x="1670.5" y="-913.9" font-family="Arial" font-size="14.00" fill="#000000">strip_prefix </text>
<text text-anchor="start" x="1742.8366" y="-913.9" font-family="Arial" font-size="14.00" fill="#666666">[tinyint(1)]</text>
<polygon fill="none" stroke="#000000" points="1663.5,-872.5 1663.5,-902.5 1844.5,-902.5 1844.5,-872.5 1663.5,-872.5"/>
<text text-anchor="start" x="1670.5" y="-883.9" font-family="Arial" font-size="14.00" fill="#000000">https </text>
<text text-anchor="start" x="1704.737" y="-883.9" font-family="Arial" font-size="14.00" fill="#666666">[tinyint(1)]</text>
<polygon fill="none" stroke="#000000" points="1663.5,-842.5 1663.5,-872.5 1844.5,-872.5 1844.5,-842.5 1663.5,-842.5"/>
<text text-anchor="start" x="1670.5" y="-853.9" font-family="Arial" font-size="14.00" fill="#000000">http_port </text>
<text text-anchor="start" x="1729.636" y="-853.9" font-family="Arial" font-size="14.00" fill="#666666">[int(11)]</text>
<polygon fill="none" stroke="#000000" points="1663.5,-812.5 1663.5,-842.5 1844.5,-842.5 1844.5,-812.5 1663.5,-812.5"/>
<text text-anchor="start" x="1670.5" y="-823.9" font-family="Arial" font-size="14.00" fill="#000000">created_at </text>
<text text-anchor="start" x="1740.528" y="-823.9" font-family="Arial" font-size="14.00" fill="#666666">[datetime(6)]</text>
<polygon fill="none" stroke="#000000" points="1663.5,-782.5 1663.5,-812.5 1844.5,-812.5 1844.5,-782.5 1663.5,-782.5"/>
<text text-anchor="start" x="1670.5" y="-793.9" font-family="Arial" font-size="14.00" fill="#000000">updated_at </text>
<text text-anchor="start" x="1744.4326" y="-793.9" font-family="Arial" font-size="14.00" fill="#666666">[datetime(6)]</text>
<polygon fill="none" stroke="#000000" points="1663.5,-752.5 1663.5,-782.5 1844.5,-782.5 1844.5,-752.5 1663.5,-752.5"/>
<text text-anchor="start" x="1670.5" y="-763.9" font-family="Arial" font-size="14.00" fill="#000000">application_id </text>
<text text-anchor="start" x="1759.9684" y="-763.9" font-family="Arial" font-size="14.00" fill="#666666">[char(22)]</text>
</g>
<!-- websites&#45;&gt;applications -->
<g id="edge5" class="edge">
<title>websites:application_id&#45;&gt;applications:id</title>
<path fill="none" stroke="#000000" d="M1653.4389,-766.0784C1631.1589,-758.8879 1637.3848,-726.231 1611.5,-710 1433.78,-598.5611 1368.2689,-577.5 1158.5,-577.5"/>
<polygon fill="#000000" stroke="#000000" points="1653.5984,-766.1009 1662.8704,-771.9557 1658.5492,-766.8004 1663.5,-767.5 1663.5,-767.5 1663.5,-767.5 1658.5492,-766.8004 1664.1296,-763.0443 1653.5984,-766.1009 1653.5984,-766.1009"/>
<text text-anchor="start" x="1374.102" y="-751.5" font-family="Arial" font-size="10.00" fill="#000000">FOREIGN KEY (application_id) REFERENCES applications (id)</text>
</g>
</g>
</svg>
