<?xml version="1.0" encoding="UTF-8" standalone="no"?>
<!DOCTYPE svg PUBLIC "-//W3C//DTD SVG 1.1//EN"
 "http://www.w3.org/Graphics/SVG/1.1/DTD/svg11.dtd">
<!-- Generated by graphviz version 2.40.1 (20161225.0304)
 -->
<!-- Title: application_config Pages: 1 -->
<svg width="870pt" height="952pt"
 viewBox="0.00 0.00 870.00 952.00" xmlns="http://www.w3.org/2000/svg" xmlns:xlink="http://www.w3.org/1999/xlink">
<g id="graph0" class="graph" transform="scale(1 1) rotate(0) translate(4 948)">
<title>application_config</title>
<polygon fill="#ffffff" stroke="transparent" points="-4,4 -4,-948 866,-948 866,4 -4,4"/>
<!-- application_config -->
<g id="node1" class="node">
<title>application_config</title>
<polygon fill="#efefef" stroke="transparent" points="46,-862.5 46,-897.5 566,-897.5 566,-862.5 46,-862.5"/>
<polygon fill="none" stroke="#000000" points="46,-862.5 46,-897.5 566,-897.5 566,-862.5 46,-862.5"/>
<text text-anchor="start" x="185.3515" y="-875.3" font-family="Arial Bold" font-size="18.00" fill="#000000">application_config</text>
<text text-anchor="start" x="329.3947" y="-875.3" font-family="Arial" font-size="14.00" fill="#000000"> </text>
<text text-anchor="start" x="333.2853" y="-875.3" font-family="Arial" font-size="14.00" fill="#666666">[BASE TABLE]</text>
<polygon fill="none" stroke="#000000" points="46,-832.5 46,-862.5 566,-862.5 566,-832.5 46,-832.5"/>
<text text-anchor="start" x="53" y="-843.9" font-family="Arial" font-size="14.00" fill="#000000">application_id </text>
<text text-anchor="start" x="142.4684" y="-843.9" font-family="Arial" font-size="14.00" fill="#666666">[char(22)]</text>
<polygon fill="none" stroke="#000000" points="46,-802.5 46,-832.5 566,-832.5 566,-802.5 46,-802.5"/>
<text text-anchor="start" x="53" y="-813.9" font-family="Arial" font-size="14.00" fill="#000000">use_mariadb </text>
<text text-anchor="start" x="137.7966" y="-813.9" font-family="Arial" font-size="14.00" fill="#666666">[tinyint(1)]</text>
<polygon fill="none" stroke="#000000" points="46,-772.5 46,-802.5 566,-802.5 566,-772.5 46,-772.5"/>
<text text-anchor="start" x="53" y="-783.9" font-family="Arial" font-size="14.00" fill="#000000">use_mongodb </text>
<text text-anchor="start" x="145.5946" y="-783.9" font-family="Arial" font-size="14.00" fill="#666666">[tinyint(1)]</text>
<polygon fill="none" stroke="#000000" points="46,-742.5 46,-772.5 566,-772.5 566,-742.5 46,-742.5"/>
<text text-anchor="start" x="52.8975" y="-753.9" font-family="Arial" font-size="14.00" fill="#000000">build_type </text>
<text text-anchor="start" x="120.5875" y="-753.9" font-family="Arial" font-size="14.00" fill="#666666">[enum(&#39;runtime&#45;cmd&#39;,&#39;runtime&#45;dockerfile&#39;,&#39;static&#45;cmd&#39;,&#39;static&#45;dockerfile&#39;)]</text>
<polygon fill="none" stroke="#000000" points="46,-712.5 46,-742.5 566,-742.5 566,-712.5 46,-712.5"/>
<text text-anchor="start" x="53" y="-723.9" font-family="Arial" font-size="14.00" fill="#000000">base_image </text>
<text text-anchor="start" x="133.136" y="-723.9" font-family="Arial" font-size="14.00" fill="#666666">[varchar(1000)]</text>
<polygon fill="none" stroke="#000000" points="46,-682.5 46,-712.5 566,-712.5 566,-682.5 46,-682.5"/>
<text text-anchor="start" x="53" y="-693.9" font-family="Arial" font-size="14.00" fill="#000000">build_cmd </text>
<text text-anchor="start" x="120.6774" y="-693.9" font-family="Arial" font-size="14.00" fill="#666666">[text]</text>
<polygon fill="none" stroke="#000000" points="46,-652.5 46,-682.5 566,-682.5 566,-652.5 46,-652.5"/>
<text text-anchor="start" x="53" y="-663.9" font-family="Arial" font-size="14.00" fill="#000000">build_cmd_shell </text>
<text text-anchor="start" x="157.2384" y="-663.9" font-family="Arial" font-size="14.00" fill="#666666">[tinyint(1)]</text>
<polygon fill="none" stroke="#000000" points="46,-622.5 46,-652.5 566,-652.5 566,-622.5 46,-622.5"/>
<text text-anchor="start" x="53" y="-633.9" font-family="Arial" font-size="14.00" fill="#000000">artifact_path </text>
<text text-anchor="start" x="133.9158" y="-633.9" font-family="Arial" font-size="14.00" fill="#666666">[varchar(100)]</text>
<polygon fill="none" stroke="#000000" points="46,-592.5 46,-622.5 566,-622.5 566,-592.5 46,-592.5"/>
<text text-anchor="start" x="53" y="-603.9" font-family="Arial" font-size="14.00" fill="#000000">dockerfile_name </text>
<text text-anchor="start" x="159.5764" y="-603.9" font-family="Arial" font-size="14.00" fill="#666666">[varchar(100)]</text>
<polygon fill="none" stroke="#000000" points="46,-562.5 46,-592.5 566,-592.5 566,-562.5 46,-562.5"/>
<text text-anchor="start" x="53" y="-573.9" font-family="Arial" font-size="14.00" fill="#000000">entrypoint </text>
<text text-anchor="start" x="118.352" y="-573.9" font-family="Arial" font-size="14.00" fill="#666666">[text]</text>
<polygon fill="none" stroke="#000000" points="46,-532.5 46,-562.5 566,-562.5 566,-532.5 46,-532.5"/>
<text text-anchor="start" x="53" y="-543.9" font-family="Arial" font-size="14.00" fill="#000000">command </text>
<text text-anchor="start" x="118.3422" y="-543.9" font-family="Arial" font-size="14.00" fill="#666666">[text]</text>
<polygon fill="none" stroke="#000000" stroke-width="3" points="44.5,-531.5 44.5,-899.5 567.5,-899.5 567.5,-531.5 44.5,-531.5"/>
</g>
<!-- applications -->
<g id="node2" class="node">
<title>applications</title>
<polygon fill="#efefef" stroke="transparent" points="75,-372.5 75,-407.5 537,-407.5 537,-372.5 75,-372.5"/>
<polygon fill="none" stroke="#000000" points="75,-372.5 75,-407.5 537,-407.5 537,-372.5 75,-372.5"/>
<text text-anchor="start" x="209.8621" y="-385.3" font-family="Arial Bold" font-size="18.00" fill="#000000">applications</text>
<text text-anchor="start" x="304.8841" y="-385.3" font-family="Arial" font-size="14.00" fill="#000000"> </text>
<text text-anchor="start" x="308.7747" y="-385.3" font-family="Arial" font-size="14.00" fill="#666666">[BASE TABLE]</text>
<polygon fill="none" stroke="#000000" points="75,-342.5 75,-372.5 537,-372.5 537,-342.5 75,-342.5"/>
<text text-anchor="start" x="82" y="-353.9" font-family="Arial" font-size="14.00" fill="#000000">id </text>
<text text-anchor="start" x="96.7798" y="-353.9" font-family="Arial" font-size="14.00" fill="#666666">[char(22)]</text>
<polygon fill="none" stroke="#000000" points="75,-312.5 75,-342.5 537,-342.5 537,-312.5 75,-312.5"/>
<text text-anchor="start" x="82" y="-323.9" font-family="Arial" font-size="14.00" fill="#000000">name </text>
<text text-anchor="start" x="120.899" y="-323.9" font-family="Arial" font-size="14.00" fill="#666666">[varchar(100)]</text>
<polygon fill="none" stroke="#000000" points="75,-282.5 75,-312.5 537,-312.5 537,-282.5 75,-282.5"/>
<text text-anchor="start" x="82" y="-293.9" font-family="Arial" font-size="14.00" fill="#000000">repository_id </text>
<text text-anchor="start" x="166.0112" y="-293.9" font-family="Arial" font-size="14.00" fill="#666666">[varchar(22)]</text>
<polygon fill="none" stroke="#000000" points="75,-252.5 75,-282.5 537,-282.5 537,-252.5 75,-252.5"/>
<text text-anchor="start" x="82" y="-263.9" font-family="Arial" font-size="14.00" fill="#000000">ref_name </text>
<text text-anchor="start" x="145.0154" y="-263.9" font-family="Arial" font-size="14.00" fill="#666666">[varchar(100)]</text>
<polygon fill="none" stroke="#000000" points="75,-222.5 75,-252.5 537,-252.5 537,-222.5 75,-222.5"/>
<text text-anchor="start" x="82" y="-233.9" font-family="Arial" font-size="14.00" fill="#000000">deploy_type </text>
<text text-anchor="start" x="161.366" y="-233.9" font-family="Arial" font-size="14.00" fill="#666666">[enum(&#39;runtime&#39;,&#39;static&#39;)]</text>
<polygon fill="none" stroke="#000000" points="75,-192.5 75,-222.5 537,-222.5 537,-192.5 75,-192.5"/>
<text text-anchor="start" x="82" y="-203.9" font-family="Arial" font-size="14.00" fill="#000000">running </text>
<text text-anchor="start" x="132.5708" y="-203.9" font-family="Arial" font-size="14.00" fill="#666666">[tinyint(1)]</text>
<polygon fill="none" stroke="#000000" points="75,-162.5 75,-192.5 537,-192.5 537,-162.5 75,-162.5"/>
<text text-anchor="start" x="81.6857" y="-173.9" font-family="Arial" font-size="14.00" fill="#000000">container </text>
<text text-anchor="start" x="143.1471" y="-173.9" font-family="Arial" font-size="14.00" fill="#666666">[enum(&#39;missing&#39;,&#39;starting&#39;,&#39;running&#39;,&#39;exited&#39;,&#39;errored&#39;,&#39;unknown&#39;)]</text>
<polygon fill="none" stroke="#000000" points="75,-132.5 75,-162.5 537,-162.5 537,-132.5 75,-132.5"/>
<text text-anchor="start" x="82" y="-143.9" font-family="Arial" font-size="14.00" fill="#000000">current_commit </text>
<text text-anchor="start" x="182.3338" y="-143.9" font-family="Arial" font-size="14.00" fill="#666666">[char(40)]</text>
<polygon fill="none" stroke="#000000" points="75,-102.5 75,-132.5 537,-132.5 537,-102.5 75,-102.5"/>
<text text-anchor="start" x="82" y="-113.9" font-family="Arial" font-size="14.00" fill="#000000">want_commit </text>
<text text-anchor="start" x="168.3366" y="-113.9" font-family="Arial" font-size="14.00" fill="#666666">[char(40)]</text>
<polygon fill="none" stroke="#000000" points="75,-72.5 75,-102.5 537,-102.5 537,-72.5 75,-72.5"/>
<text text-anchor="start" x="82" y="-83.9" font-family="Arial" font-size="14.00" fill="#000000">created_at </text>
<text text-anchor="start" x="152.028" y="-83.9" font-family="Arial" font-size="14.00" fill="#666666">[datetime(6)]</text>
<polygon fill="none" stroke="#000000" points="75,-42.5 75,-72.5 537,-72.5 537,-42.5 75,-42.5"/>
<text text-anchor="start" x="82" y="-53.9" font-family="Arial" font-size="14.00" fill="#000000">updated_at </text>
<text text-anchor="start" x="155.9326" y="-53.9" font-family="Arial" font-size="14.00" fill="#666666">[datetime(6)]</text>
</g>
<!-- application_config&#45;&gt;applications -->
<g id="edge1" class="edge">
<title>application_config:application_id&#45;&gt;applications:id</title>
<path fill="none" stroke="#000000" d="M576.1175,-846.0061C673.1271,-816.4269 642.5642,-357.5 537,-357.5"/>
<polygon fill="#000000" stroke="#000000" points="575.8927,-846.0392 565.3427,-843.0483 570.9464,-846.7696 566,-847.5 566,-847.5 566,-847.5 570.9464,-846.7696 566.6573,-851.9517 575.8927,-846.0392 575.8927,-846.0392"/>
<text text-anchor="start" x="572.602" y="-857.5" font-family="Arial" font-size="10.00" fill="#000000">FOREIGN KEY (application_id) REFERENCES applications (id)</text>
</g>
</g>
</svg>
