<?xml version="1.0" encoding="UTF-8" standalone="no"?>
<!DOCTYPE svg PUBLIC "-//W3C//DTD SVG 1.1//EN"
        "http://www.w3.org/Graphics/SVG/1.1/DTD/svg11.dtd">
<!-- Generated by graphviz version 2.40.1 (20161225.0304)
 -->
<!-- Title: applications Pages: 1 -->
<svg width="871pt" height="989pt"
     viewBox="0.00 0.00 870.50 989.00" xmlns="http://www.w3.org/2000/svg" xmlns:xlink="http://www.w3.org/1999/xlink">
    <g id="graph0" class="graph" transform="scale(1 1) rotate(0) translate(4 985)">
        <title>applications</title>
        <polygon fill="#ffffff" stroke="transparent" points="-4,4 -4,-985 866.5,-985 866.5,4 -4,4"/>
        <!-- applications -->
        <g id="node1" class="node">
            <title>applications</title>
            <polygon fill="#efefef" stroke="transparent"
                     points="345.5,-532.5 345.5,-567.5 565.5,-567.5 565.5,-532.5 345.5,-532.5"/>
            <polygon fill="none" stroke="#000000"
                     points="345.5,-532.5 345.5,-567.5 565.5,-567.5 565.5,-532.5 345.5,-532.5"/>
            <text text-anchor="start" x="359.3621" y="-545.3" font-family="Arial Bold" font-size="18.00" fill="#000000">
                applications
            </text>
            <text text-anchor="start" x="454.3841" y="-545.3" font-family="Arial" font-size="14.00"
                  fill="#000000"></text>
            <text text-anchor="start" x="458.2747" y="-545.3" font-family="Arial" font-size="14.00" fill="#666666">[BASE
                TABLE]
            </text>
            <polygon fill="none" stroke="#000000"
                     points="345.5,-502.5 345.5,-532.5 565.5,-532.5 565.5,-502.5 345.5,-502.5"/>
            <text text-anchor="start" x="352.5" y="-513.9" font-family="Arial" font-size="14.00" fill="#000000">id
            </text>
            <text text-anchor="start" x="367.2798" y="-513.9" font-family="Arial" font-size="14.00" fill="#666666">
                [varchar(22)]
            </text>
            <polygon fill="none" stroke="#000000"
                     points="345.5,-472.5 345.5,-502.5 565.5,-502.5 565.5,-472.5 345.5,-472.5"/>
            <text text-anchor="start" x="352.5" y="-483.9" font-family="Arial" font-size="14.00" fill="#000000">owner
            </text>
            <text text-anchor="start" x="394.5056" y="-483.9" font-family="Arial" font-size="14.00" fill="#666666">
                [varchar(100)]
            </text>
            <polygon fill="none" stroke="#000000"
                     points="345.5,-442.5 345.5,-472.5 565.5,-472.5 565.5,-442.5 345.5,-442.5"/>
            <text text-anchor="start" x="352.5" y="-453.9" font-family="Arial" font-size="14.00" fill="#000000">name
            </text>
            <text text-anchor="start" x="391.399" y="-453.9" font-family="Arial" font-size="14.00" fill="#666666">
                [varchar(100)]
            </text>
            <polygon fill="none" stroke="#000000"
                     points="345.5,-412.5 345.5,-442.5 565.5,-442.5 565.5,-412.5 345.5,-412.5"/>
            <text text-anchor="start" x="352.5" y="-423.9" font-family="Arial" font-size="14.00" fill="#000000">
                repository_id
            </text>
            <text text-anchor="start" x="436.5112" y="-423.9" font-family="Arial" font-size="14.00" fill="#666666">
                [varchar(22)]
            </text>
            <polygon fill="none" stroke="#000000"
                     points="345.5,-382.5 345.5,-412.5 565.5,-412.5 565.5,-382.5 345.5,-382.5"/>
            <text text-anchor="start" x="352.5" y="-393.9" font-family="Arial" font-size="14.00" fill="#000000">
                created_at
            </text>
            <text text-anchor="start" x="422.528" y="-393.9" font-family="Arial" font-size="14.00" fill="#666666">
                [datetime(6)]
            </text>
            <polygon fill="none" stroke="#000000"
                     points="345.5,-352.5 345.5,-382.5 565.5,-382.5 565.5,-352.5 345.5,-352.5"/>
            <text text-anchor="start" x="352.5" y="-363.9" font-family="Arial" font-size="14.00" fill="#000000">
                updated_at
            </text>
            <text text-anchor="start" x="426.4326" y="-363.9" font-family="Arial" font-size="14.00" fill="#666666">
                [datetime(6)]
            </text>
            <polygon fill="none" stroke="#000000"
                     points="345.5,-322.5 345.5,-352.5 565.5,-352.5 565.5,-322.5 345.5,-322.5"/>
            <text text-anchor="start" x="352.5" y="-333.9" font-family="Arial" font-size="14.00" fill="#000000">
                deleted_at
            </text>
            <text text-anchor="start" x="421.7566" y="-333.9" font-family="Arial" font-size="14.00" fill="#666666">
                [datetime(6)]
            </text>
            <polygon fill="none" stroke="#000000"
                     points="345.5,-292.5 345.5,-322.5 565.5,-322.5 565.5,-292.5 345.5,-292.5"/>
            <text text-anchor="start" x="352.0764" y="-303.9" font-family="Arial" font-size="14.00" fill="#000000">
                build_type
            </text>
            <text text-anchor="start" x="419.7664" y="-303.9" font-family="Arial" font-size="14.00" fill="#666666">
                [enum(&#39;image&#39;,&#39;static&#39;)]
            </text>
            <polygon fill="none" stroke="#000000" stroke-width="3"
                     points="344,-291.5 344,-569.5 567,-569.5 567,-291.5 344,-291.5"/>
        </g>
        <!-- repositories -->
        <g id="node4" class="node">
            <title>repositories</title>
            <polygon fill="#efefef" stroke="transparent"
                     points="353.5,-132.5 353.5,-167.5 557.5,-167.5 557.5,-132.5 353.5,-132.5"/>
            <polygon fill="none" stroke="#000000"
                     points="353.5,-132.5 353.5,-167.5 557.5,-167.5 557.5,-132.5 353.5,-132.5"/>
            <text text-anchor="start" x="360.3701" y="-145.3" font-family="Arial Bold" font-size="18.00" fill="#000000">
                repositories
            </text>
            <text text-anchor="start" x="453.3761" y="-145.3" font-family="Arial" font-size="14.00"
                  fill="#000000"></text>
            <text text-anchor="start" x="457.2667" y="-145.3" font-family="Arial" font-size="14.00" fill="#666666">[BASE
                TABLE]
            </text>
            <polygon fill="none" stroke="#000000"
                     points="353.5,-102.5 353.5,-132.5 557.5,-132.5 557.5,-102.5 353.5,-102.5"/>
            <text text-anchor="start" x="360.5" y="-113.9" font-family="Arial" font-size="14.00" fill="#000000">id
            </text>
            <text text-anchor="start" x="375.2798" y="-113.9" font-family="Arial" font-size="14.00" fill="#666666">
                [varchar(22)]
            </text>
            <polygon fill="none" stroke="#000000"
                     points="353.5,-72.5 353.5,-102.5 557.5,-102.5 557.5,-72.5 353.5,-72.5"/>
            <text text-anchor="start" x="360.5" y="-83.9" font-family="Arial" font-size="14.00" fill="#000000">remote
            </text>
            <text text-anchor="start" x="407.9502" y="-83.9" font-family="Arial" font-size="14.00" fill="#666666">
                [text]
            </text>
            <polygon fill="none" stroke="#000000" points="353.5,-42.5 353.5,-72.5 557.5,-72.5 557.5,-42.5 353.5,-42.5"/>
            <text text-anchor="start" x="360.5" y="-53.9" font-family="Arial" font-size="14.00" fill="#000000">refs
            </text>
            <text text-anchor="start" x="387.7244" y="-53.9" font-family="Arial" font-size="14.00" fill="#666666">
                [text]
            </text>
        </g>
        <!-- applications&#45;&gt;repositories -->
        <g id="edge3" class="edge">
            <title>applications:repository_id&#45;&gt;repositories:id</title>
            <path fill="none" stroke="#000000" d="M575.7165,-426.9106C702.8337,-411.9577 691.8242,-117.5 557.5,-117.5"/>
            <polygon fill="#000000" stroke="#000000"
                     points="575.4834,-426.9239 565.2408,-423.0075 570.4917,-427.212 565.5,-427.5 565.5,-427.5 565.5,-427.5 570.4917,-427.212 565.7592,-431.9925 575.4834,-426.9239 575.4834,-426.9239"/>
            <text text-anchor="start" x="572.611" y="-437.5" font-family="Arial" font-size="10.00" fill="#000000">
                FOREIGN KEY (repository_id) REFERENCES repositories (id)
            </text>
        </g>
        <!-- build_logs -->
        <g id="node2" class="node">
            <title>build_logs</title>
            <polygon fill="#efefef" stroke="transparent"
                     points="43.5,-872.5 43.5,-907.5 462.5,-907.5 462.5,-872.5 43.5,-872.5"/>
            <polygon fill="none" stroke="#000000"
                     points="43.5,-872.5 43.5,-907.5 462.5,-907.5 462.5,-872.5 43.5,-872.5"/>
            <text text-anchor="start" x="163.8632" y="-885.3" font-family="Arial Bold" font-size="18.00" fill="#000000">
                build_logs
            </text>
            <text text-anchor="start" x="244.883" y="-885.3" font-family="Arial" font-size="14.00"
                  fill="#000000"></text>
            <text text-anchor="start" x="248.7736" y="-885.3" font-family="Arial" font-size="14.00" fill="#666666">[BASE
                TABLE]
            </text>
            <polygon fill="none" stroke="#000000"
                     points="43.5,-842.5 43.5,-872.5 462.5,-872.5 462.5,-842.5 43.5,-842.5"/>
            <text text-anchor="start" x="50.5" y="-853.9" font-family="Arial" font-size="14.00" fill="#000000">id</text>
            <text text-anchor="start" x="65.2798" y="-853.9" font-family="Arial" font-size="14.00" fill="#666666">
                [varchar(22)]
            </text>
            <polygon fill="none" stroke="#000000"
                     points="43.5,-812.5 43.5,-842.5 462.5,-842.5 462.5,-812.5 43.5,-812.5"/>
            <text text-anchor="start" x="50.5" y="-823.9" font-family="Arial" font-size="14.00" fill="#000000">
                application_id
            </text>
            <text text-anchor="start" x="139.9684" y="-823.9" font-family="Arial" font-size="14.00" fill="#666666">
                [varchar(22)]
            </text>
            <polygon fill="none" stroke="#000000"
                     points="43.5,-782.5 43.5,-812.5 462.5,-812.5 462.5,-782.5 43.5,-782.5"/>
            <text text-anchor="start" x="50.0742" y="-793.9" font-family="Arial" font-size="14.00" fill="#000000">
                result
            </text>
            <text text-anchor="start" x="88.1878" y="-793.9" font-family="Arial" font-size="14.00" fill="#666666">[enum(&#39;BUILDING&#39;,&#39;SUCCEEDED&#39;,&#39;FAILED&#39;,&#39;CANCELED&#39;)]</text>
            <polygon fill="none" stroke="#000000"
                     points="43.5,-752.5 43.5,-782.5 462.5,-782.5 462.5,-752.5 43.5,-752.5"/>
            <text text-anchor="start" x="50.5" y="-763.9" font-family="Arial" font-size="14.00" fill="#000000">
                started_at
            </text>
            <text text-anchor="start" x="116.636" y="-763.9" font-family="Arial" font-size="14.00" fill="#666666">
                [datetime(6)]
            </text>
            <polygon fill="none" stroke="#000000"
                     points="43.5,-722.5 43.5,-752.5 462.5,-752.5 462.5,-722.5 43.5,-722.5"/>
            <text text-anchor="start" x="50.5" y="-733.9" font-family="Arial" font-size="14.00" fill="#000000">
                finished_at
            </text>
            <text text-anchor="start" x="122.0806" y="-733.9" font-family="Arial" font-size="14.00" fill="#666666">
                [datetime(6)]
            </text>
        </g>
        <!-- build_logs&#45;&gt;applications -->
        <g id="edge1" class="edge">
            <title>build_logs:application_id&#45;&gt;applications:id</title>
            <path fill="none" stroke="#000000"
                  d="M472.7134,-826.648C524.3727,-817.3137 493.6884,-733.402 462.5,-680 432.3906,-628.4455 375.6094,-665.5545 345.5,-614 323.8702,-576.9647 302.6111,-517.5 345.5,-517.5"/>
            <polygon fill="#000000" stroke="#000000"
                     points="472.4654,-826.6686 462.1259,-823.0156 467.4827,-827.0843 462.5,-827.5 462.5,-827.5 462.5,-827.5 467.4827,-827.0843 462.8741,-831.9844 472.4654,-826.6686 472.4654,-826.6686"/>
            <text text-anchor="start" x="469.102" y="-837.5" font-family="Arial" font-size="10.00" fill="#000000">
                FOREIGN KEY (application_id) REFERENCES applications (id)
            </text>
        </g>
        <!-- websites -->
        <g id="node3" class="node">
            <title>websites</title>
            <polygon fill="#efefef" stroke="transparent"
                     points="566.5,-902.5 566.5,-937.5 748.5,-937.5 748.5,-902.5 566.5,-902.5"/>
            <polygon fill="none" stroke="#000000"
                     points="566.5,-902.5 566.5,-937.5 748.5,-937.5 748.5,-902.5 566.5,-902.5"/>
            <text text-anchor="start" x="573.8685" y="-915.3" font-family="Arial Bold" font-size="18.00" fill="#000000">
                websites
            </text>
            <text text-anchor="start" x="643.8777" y="-915.3" font-family="Arial" font-size="14.00"
                  fill="#000000"></text>
            <text text-anchor="start" x="647.7683" y="-915.3" font-family="Arial" font-size="14.00" fill="#666666">[BASE
                TABLE]
            </text>
            <polygon fill="none" stroke="#000000"
                     points="566.5,-872.5 566.5,-902.5 748.5,-902.5 748.5,-872.5 566.5,-872.5"/>
            <text text-anchor="start" x="573.5" y="-883.9" font-family="Arial" font-size="14.00" fill="#000000">id
            </text>
            <text text-anchor="start" x="588.2798" y="-883.9" font-family="Arial" font-size="14.00" fill="#666666">
                [varchar(22)]
            </text>
            <polygon fill="none" stroke="#000000"
                     points="566.5,-842.5 566.5,-872.5 748.5,-872.5 748.5,-842.5 566.5,-842.5"/>
            <text text-anchor="start" x="573.5" y="-853.9" font-family="Arial" font-size="14.00" fill="#000000">fqdn
            </text>
            <text text-anchor="start" x="604.629" y="-853.9" font-family="Arial" font-size="14.00" fill="#666666">
                [varchar(50)]
            </text>
            <polygon fill="none" stroke="#000000"
                     points="566.5,-812.5 566.5,-842.5 748.5,-842.5 748.5,-812.5 566.5,-812.5"/>
            <text text-anchor="start" x="573.0975" y="-823.9" font-family="Arial" font-size="14.00" fill="#000000">
                application_id
            </text>
            <text text-anchor="start" x="662.5659" y="-823.9" font-family="Arial" font-size="14.00" fill="#666666">
                [varchar(22)]
            </text>
            <polygon fill="none" stroke="#000000"
                     points="566.5,-782.5 566.5,-812.5 748.5,-812.5 748.5,-782.5 566.5,-782.5"/>
            <text text-anchor="start" x="573.5" y="-793.9" font-family="Arial" font-size="14.00" fill="#000000">
                build_id
            </text>
            <text text-anchor="start" x="625.6234" y="-793.9" font-family="Arial" font-size="14.00" fill="#666666">
                [varchar(22)]
            </text>
            <polygon fill="none" stroke="#000000"
                     points="566.5,-752.5 566.5,-782.5 748.5,-782.5 748.5,-752.5 566.5,-752.5"/>
            <text text-anchor="start" x="573.5" y="-763.9" font-family="Arial" font-size="14.00" fill="#000000">
                http_port
            </text>
            <text text-anchor="start" x="632.636" y="-763.9" font-family="Arial" font-size="14.00" fill="#666666">
                [int(11)]
            </text>
            <polygon fill="none" stroke="#000000"
                     points="566.5,-722.5 566.5,-752.5 748.5,-752.5 748.5,-722.5 566.5,-722.5"/>
            <text text-anchor="start" x="573.5" y="-733.9" font-family="Arial" font-size="14.00" fill="#000000">
                created_at
            </text>
            <text text-anchor="start" x="643.528" y="-733.9" font-family="Arial" font-size="14.00" fill="#666666">
                [datetime(6)]
            </text>
            <polygon fill="none" stroke="#000000"
                     points="566.5,-692.5 566.5,-722.5 748.5,-722.5 748.5,-692.5 566.5,-692.5"/>
            <text text-anchor="start" x="573.5" y="-703.9" font-family="Arial" font-size="14.00" fill="#000000">
                updated_at
            </text>
            <text text-anchor="start" x="647.4326" y="-703.9" font-family="Arial" font-size="14.00" fill="#666666">
                [datetime(6)]
            </text>
        </g>
        <!-- websites&#45;&gt;applications -->
        <g id="edge2" class="edge">
            <title>websites:application_id&#45;&gt;applications:id</title>
            <path fill="none" stroke="#000000" d="M565.4955,-817.5368C563.6921,-764.4757 569.3431,-517.5 565.5,-517.5"/>
            <polygon fill="#000000" stroke="#000000"
                     points="565.4967,-817.5504 562.0227,-827.9515 565.9984,-822.5252 566.5,-827.5 566.5,-827.5 566.5,-827.5 565.9984,-822.5252 570.9773,-827.0485 565.4967,-817.5504 565.4967,-817.5504"/>
            <text text-anchor="start" x="573.102" y="-811.5" font-family="Arial" font-size="10.00" fill="#000000">
                FOREIGN KEY (application_id) REFERENCES applications (id)
            </text>
        </g>
    </g>
</svg>
