<?xml version="1.0" encoding="UTF-8" standalone="no"?>
<!DOCTYPE svg PUBLIC "-//W3C//DTD SVG 1.1//EN"
 "http://www.w3.org/Graphics/SVG/1.1/DTD/svg11.dtd">
<!-- Generated by graphviz version 2.40.1 (20161225.0304)
 -->
<!-- Title: application_state Pages: 1 -->
<svg width="580pt" height="595pt"
 viewBox="0.00 0.00 580.00 595.27" xmlns="http://www.w3.org/2000/svg" xmlns:xlink="http://www.w3.org/1999/xlink">
<g id="graph0" class="graph" transform="scale(1 1) rotate(0) translate(4 591.271)">
<title>application_state</title>
<polygon fill="#ffffff" stroke="transparent" points="-4,4 -4,-591.271 576,-591.271 576,4 -4,4"/>
<!-- application_state -->
<g id="node1" class="node">
<title>application_state</title>
<polygon fill="#efefef" stroke="transparent" points="46,-78.771 46,-113.771 292,-113.771 292,-78.771 46,-78.771"/>
<polygon fill="none" stroke="#000000" points="46,-78.771 46,-113.771 292,-113.771 292,-78.771 46,-78.771"/>
<text text-anchor="start" x="52.8506" y="-91.571" font-family="Arial Bold" font-size="18.00" fill="#000000">application_state</text>
<text text-anchor="start" x="187.8956" y="-91.571" font-family="Arial" font-size="14.00" fill="#000000"> </text>
<text text-anchor="start" x="191.7862" y="-91.571" font-family="Arial" font-size="14.00" fill="#666666">[BASE TABLE]</text>
<polygon fill="none" stroke="#000000" points="46,-48.771 46,-78.771 292,-78.771 292,-48.771 46,-48.771"/>
<text text-anchor="start" x="53" y="-60.171" font-family="Arial" font-size="14.00" fill="#000000">state </text>
<text text-anchor="start" x="87.237" y="-60.171" font-family="Arial" font-size="14.00" fill="#666666">[varchar(10)]</text>
<polygon fill="none" stroke="#000000" stroke-width="3" points="44.5,-47.771 44.5,-115.771 293.5,-115.771 293.5,-47.771 44.5,-47.771"/>
</g>
<!-- applications -->
<g id="node2" class="node">
<title>applications</title>
<polygon fill="#efefef" stroke="transparent" points="59,-508.771 59,-543.771 279,-543.771 279,-508.771 59,-508.771"/>
<polygon fill="none" stroke="#000000" points="59,-508.771 59,-543.771 279,-543.771 279,-508.771 59,-508.771"/>
<text text-anchor="start" x="72.8621" y="-521.571" font-family="Arial Bold" font-size="18.00" fill="#000000">applications</text>
<text text-anchor="start" x="167.8841" y="-521.571" font-family="Arial" font-size="14.00" fill="#000000"> </text>
<text text-anchor="start" x="171.7747" y="-521.571" font-family="Arial" font-size="14.00" fill="#666666">[BASE TABLE]</text>
<polygon fill="none" stroke="#000000" points="59,-478.771 59,-508.771 279,-508.771 279,-478.771 59,-478.771"/>
<text text-anchor="start" x="66" y="-490.171" font-family="Arial" font-size="14.00" fill="#000000">id </text>
<text text-anchor="start" x="80.7798" y="-490.171" font-family="Arial" font-size="14.00" fill="#666666">[varchar(22)]</text>
<polygon fill="none" stroke="#000000" points="59,-448.771 59,-478.771 279,-478.771 279,-448.771 59,-448.771"/>
<text text-anchor="start" x="66" y="-460.171" font-family="Arial" font-size="14.00" fill="#000000">repository_id </text>
<text text-anchor="start" x="150.0112" y="-460.171" font-family="Arial" font-size="14.00" fill="#666666">[varchar(22)]</text>
<polygon fill="none" stroke="#000000" points="59,-418.771 59,-448.771 279,-448.771 279,-418.771 59,-418.771"/>
<text text-anchor="start" x="66" y="-430.171" font-family="Arial" font-size="14.00" fill="#000000">branch_name </text>
<text text-anchor="start" x="155.4726" y="-430.171" font-family="Arial" font-size="14.00" fill="#666666">[varchar(100)]</text>
<polygon fill="none" stroke="#000000" points="59,-388.771 59,-418.771 279,-418.771 279,-388.771 59,-388.771"/>
<text text-anchor="start" x="65.5764" y="-400.171" font-family="Arial" font-size="14.00" fill="#000000">build_type </text>
<text text-anchor="start" x="133.2664" y="-400.171" font-family="Arial" font-size="14.00" fill="#666666">[enum(&#39;image&#39;,&#39;static&#39;)]</text>
<polygon fill="none" stroke="#000000" points="59,-358.771 59,-388.771 279,-388.771 279,-358.771 59,-358.771"/>
<text text-anchor="start" x="66" y="-370.171" font-family="Arial" font-size="14.00" fill="#000000">state </text>
<text text-anchor="start" x="100.237" y="-370.171" font-family="Arial" font-size="14.00" fill="#666666">[varchar(10)]</text>
<polygon fill="none" stroke="#000000" points="59,-328.771 59,-358.771 279,-358.771 279,-328.771 59,-328.771"/>
<text text-anchor="start" x="66" y="-340.171" font-family="Arial" font-size="14.00" fill="#000000">current_commit </text>
<text text-anchor="start" x="166.3338" y="-340.171" font-family="Arial" font-size="14.00" fill="#666666">[char(40)]</text>
<polygon fill="none" stroke="#000000" points="59,-298.771 59,-328.771 279,-328.771 279,-298.771 59,-298.771"/>
<text text-anchor="start" x="66" y="-310.171" font-family="Arial" font-size="14.00" fill="#000000">want_commit </text>
<text text-anchor="start" x="152.3366" y="-310.171" font-family="Arial" font-size="14.00" fill="#666666">[char(40)]</text>
<polygon fill="none" stroke="#000000" points="59,-268.771 59,-298.771 279,-298.771 279,-268.771 59,-268.771"/>
<text text-anchor="start" x="66" y="-280.171" font-family="Arial" font-size="14.00" fill="#000000">created_at </text>
<text text-anchor="start" x="136.028" y="-280.171" font-family="Arial" font-size="14.00" fill="#666666">[datetime(6)]</text>
<polygon fill="none" stroke="#000000" points="59,-238.771 59,-268.771 279,-268.771 279,-238.771 59,-238.771"/>
<text text-anchor="start" x="66" y="-250.171" font-family="Arial" font-size="14.00" fill="#000000">updated_at </text>
<text text-anchor="start" x="139.9326" y="-250.171" font-family="Arial" font-size="14.00" fill="#666666">[datetime(6)]</text>
</g>
<!-- applications&#45;&gt;application_state -->
<g id="edge1" class="edge">
<title>applications:state&#45;&gt;application_state:state</title>
<path fill="none" stroke="#000000" d="M287.7725,-368.5681C322.7876,-328.7116 361.9243,-72.6953 338,-48.771 284.8884,4.3406 169,26.3401 169,-48.771"/>
<polygon fill="#000000" stroke="#000000" points="287.601,-368.6697 276.7044,-369.9005 283.3005,-371.2204 279,-373.771 279,-373.771 279,-373.771 283.3005,-371.2204 281.2956,-377.6415 287.601,-368.6697 287.601,-368.6697"/>
<text text-anchor="start" x="286.261" y="-383.771" font-family="Arial" font-size="10.00" fill="#000000">FOREIGN KEY (state) REFERENCES application_state (state)</text>
</g>
</g>
</svg>
