<?xml version="1.0" encoding="UTF-8" standalone="no"?>
<!DOCTYPE svg PUBLIC "-//W3C//DTD SVG 1.1//EN"
 "http://www.w3.org/Graphics/SVG/1.1/DTD/svg11.dtd">
<!-- Generated by graphviz version 2.40.1 (20161225.0304)
 -->
<!-- Title: application_state Pages: 1 -->
<svg width="584pt" height="625pt"
 viewBox="0.00 0.00 584.00 625.27" xmlns="http://www.w3.org/2000/svg" xmlns:xlink="http://www.w3.org/1999/xlink">
<g id="graph0" class="graph" transform="scale(1 1) rotate(0) translate(4 621.271)">
<title>application_state</title>
<polygon fill="#ffffff" stroke="transparent" points="-4,4 -4,-621.271 580,-621.271 580,4 -4,4"/>
<!-- application_state -->
<g id="node1" class="node">
<title>application_state</title>
<polygon fill="#efefef" stroke="transparent" points="46,-78.771 46,-113.771 292,-113.771 292,-78.771 46,-78.771"/>
<polygon fill="none" stroke="#000000" points="46,-78.771 46,-113.771 292,-113.771 292,-78.771 46,-78.771"/>
<text text-anchor="start" x="52.8506" y="-91.571" font-family="Arial Bold" font-size="18.00" fill="#000000">application_state</text>
<text text-anchor="start" x="187.8956" y="-91.571" font-family="Arial" font-size="14.00" fill="#000000"> </text>
<text text-anchor="start" x="191.7862" y="-91.571" font-family="Arial" font-size="14.00" fill="#666666">[BASE TABLE]</text>
<polygon fill="none" stroke="#000000" points="46,-48.771 46,-78.771 292,-78.771 292,-48.771 46,-48.771"/>
<text text-anchor="start" x="53" y="-60.171" font-family="Arial" font-size="14.00" fill="#000000">state </text>
<text text-anchor="start" x="87.237" y="-60.171" font-family="Arial" font-size="14.00" fill="#666666">[varchar(10)]</text>
<polygon fill="none" stroke="#000000" stroke-width="3" points="44.5,-47.771 44.5,-115.771 293.5,-115.771 293.5,-47.771 44.5,-47.771"/>
</g>
<!-- applications -->
<g id="node2" class="node">
<title>applications</title>
<polygon fill="#efefef" stroke="transparent" points="54,-538.771 54,-573.771 283,-573.771 283,-538.771 54,-538.771"/>
<polygon fill="none" stroke="#000000" points="54,-538.771 54,-573.771 283,-573.771 283,-538.771 54,-538.771"/>
<text text-anchor="start" x="72.3621" y="-551.571" font-family="Arial Bold" font-size="18.00" fill="#000000">applications</text>
<text text-anchor="start" x="167.3841" y="-551.571" font-family="Arial" font-size="14.00" fill="#000000"> </text>
<text text-anchor="start" x="171.2747" y="-551.571" font-family="Arial" font-size="14.00" fill="#666666">[BASE TABLE]</text>
<polygon fill="none" stroke="#000000" points="54,-508.771 54,-538.771 283,-538.771 283,-508.771 54,-508.771"/>
<text text-anchor="start" x="61" y="-520.171" font-family="Arial" font-size="14.00" fill="#000000">id </text>
<text text-anchor="start" x="75.7798" y="-520.171" font-family="Arial" font-size="14.00" fill="#666666">[char(22)]</text>
<polygon fill="none" stroke="#000000" points="54,-478.771 54,-508.771 283,-508.771 283,-478.771 54,-478.771"/>
<text text-anchor="start" x="61" y="-490.171" font-family="Arial" font-size="14.00" fill="#000000">name </text>
<text text-anchor="start" x="99.899" y="-490.171" font-family="Arial" font-size="14.00" fill="#666666">[varchar(100)]</text>
<polygon fill="none" stroke="#000000" points="54,-448.771 54,-478.771 283,-478.771 283,-448.771 54,-448.771"/>
<text text-anchor="start" x="61" y="-460.171" font-family="Arial" font-size="14.00" fill="#000000">repository_id </text>
<text text-anchor="start" x="145.0112" y="-460.171" font-family="Arial" font-size="14.00" fill="#666666">[varchar(22)]</text>
<polygon fill="none" stroke="#000000" points="54,-418.771 54,-448.771 283,-448.771 283,-418.771 54,-418.771"/>
<text text-anchor="start" x="61" y="-430.171" font-family="Arial" font-size="14.00" fill="#000000">ref_name </text>
<text text-anchor="start" x="124.0154" y="-430.171" font-family="Arial" font-size="14.00" fill="#666666">[varchar(100)]</text>
<polygon fill="none" stroke="#000000" points="54,-388.771 54,-418.771 283,-418.771 283,-388.771 54,-388.771"/>
<text text-anchor="start" x="60.8008" y="-400.171" font-family="Arial" font-size="14.00" fill="#000000">build_type </text>
<text text-anchor="start" x="128.4908" y="-400.171" font-family="Arial" font-size="14.00" fill="#666666">[enum(&#39;runtime&#39;,&#39;static&#39;)]</text>
<polygon fill="none" stroke="#000000" points="54,-358.771 54,-388.771 283,-388.771 283,-358.771 54,-358.771"/>
<text text-anchor="start" x="61" y="-370.171" font-family="Arial" font-size="14.00" fill="#000000">state </text>
<text text-anchor="start" x="95.237" y="-370.171" font-family="Arial" font-size="14.00" fill="#666666">[varchar(10)]</text>
<polygon fill="none" stroke="#000000" points="54,-328.771 54,-358.771 283,-358.771 283,-328.771 54,-328.771"/>
<text text-anchor="start" x="61" y="-340.171" font-family="Arial" font-size="14.00" fill="#000000">current_commit </text>
<text text-anchor="start" x="161.3338" y="-340.171" font-family="Arial" font-size="14.00" fill="#666666">[char(40)]</text>
<polygon fill="none" stroke="#000000" points="54,-298.771 54,-328.771 283,-328.771 283,-298.771 54,-298.771"/>
<text text-anchor="start" x="61" y="-310.171" font-family="Arial" font-size="14.00" fill="#000000">want_commit </text>
<text text-anchor="start" x="147.3366" y="-310.171" font-family="Arial" font-size="14.00" fill="#666666">[char(40)]</text>
<polygon fill="none" stroke="#000000" points="54,-268.771 54,-298.771 283,-298.771 283,-268.771 54,-268.771"/>
<text text-anchor="start" x="61" y="-280.171" font-family="Arial" font-size="14.00" fill="#000000">created_at </text>
<text text-anchor="start" x="131.028" y="-280.171" font-family="Arial" font-size="14.00" fill="#666666">[datetime(6)]</text>
<polygon fill="none" stroke="#000000" points="54,-238.771 54,-268.771 283,-268.771 283,-238.771 54,-238.771"/>
<text text-anchor="start" x="61" y="-250.171" font-family="Arial" font-size="14.00" fill="#000000">updated_at </text>
<text text-anchor="start" x="134.9326" y="-250.171" font-family="Arial" font-size="14.00" fill="#666666">[datetime(6)]</text>
</g>
<!-- applications&#45;&gt;application_state -->
<g id="edge1" class="edge">
<title>applications:state&#45;&gt;application_state:state</title>
<path fill="none" stroke="#000000" d="M291.6868,-368.5672C326.1139,-328.7037 361.8742,-72.6452 338,-48.771 284.8884,4.3406 169,26.3401 169,-48.771"/>
<polygon fill="#000000" stroke="#000000" points="291.5785,-368.632 280.6874,-369.9107 287.2893,-371.2015 283,-373.771 283,-373.771 283,-373.771 287.2893,-371.2015 285.3126,-377.6313 291.5785,-368.632 291.5785,-368.632"/>
<text text-anchor="start" x="290.261" y="-383.771" font-family="Arial" font-size="10.00" fill="#000000">FOREIGN KEY (state) REFERENCES application_state (state)</text>
</g>
</g>
</svg>
