<?xml version="1.0" encoding="UTF-8" standalone="no"?>
<!DOCTYPE svg PUBLIC "-//W3C//DTD SVG 1.1//EN"
 "http://www.w3.org/Graphics/SVG/1.1/DTD/svg11.dtd">
<!-- Generated by graphviz version 2.40.1 (20161225.0304)
 -->
<!-- Title: applications Pages: 1 -->
<svg width="1519pt" height="1019pt"
 viewBox="0.00 0.00 1518.50 1019.00" xmlns="http://www.w3.org/2000/svg" xmlns:xlink="http://www.w3.org/1999/xlink">
<g id="graph0" class="graph" transform="scale(1 1) rotate(0) translate(4 1015)">
<title>applications</title>
<polygon fill="#ffffff" stroke="transparent" points="-4,4 -4,-1015 1514.5,-1015 1514.5,4 -4,4"/>
<!-- applications -->
<g id="node1" class="node">
<title>applications</title>
<polygon fill="#efefef" stroke="transparent" points="684.5,-562.5 684.5,-597.5 913.5,-597.5 913.5,-562.5 684.5,-562.5"/>
<polygon fill="none" stroke="#000000" points="684.5,-562.5 684.5,-597.5 913.5,-597.5 913.5,-562.5 684.5,-562.5"/>
<text text-anchor="start" x="702.8621" y="-575.3" font-family="Arial Bold" font-size="18.00" fill="#000000">applications</text>
<text text-anchor="start" x="797.8841" y="-575.3" font-family="Arial" font-size="14.00" fill="#000000"> </text>
<text text-anchor="start" x="801.7747" y="-575.3" font-family="Arial" font-size="14.00" fill="#666666">[BASE TABLE]</text>
<polygon fill="none" stroke="#000000" points="684.5,-532.5 684.5,-562.5 913.5,-562.5 913.5,-532.5 684.5,-532.5"/>
<text text-anchor="start" x="691.5" y="-543.9" font-family="Arial" font-size="14.00" fill="#000000">id </text>
<text text-anchor="start" x="706.2798" y="-543.9" font-family="Arial" font-size="14.00" fill="#666666">[varchar(22)]</text>
<polygon fill="none" stroke="#000000" points="684.5,-502.5 684.5,-532.5 913.5,-532.5 913.5,-502.5 684.5,-502.5"/>
<text text-anchor="start" x="691.5" y="-513.9" font-family="Arial" font-size="14.00" fill="#000000">repository_id </text>
<text text-anchor="start" x="775.5112" y="-513.9" font-family="Arial" font-size="14.00" fill="#666666">[varchar(22)]</text>
<polygon fill="none" stroke="#000000" points="684.5,-472.5 684.5,-502.5 913.5,-502.5 913.5,-472.5 684.5,-472.5"/>
<text text-anchor="start" x="691.5" y="-483.9" font-family="Arial" font-size="14.00" fill="#000000">branch_name </text>
<text text-anchor="start" x="780.9726" y="-483.9" font-family="Arial" font-size="14.00" fill="#666666">[varchar(100)]</text>
<polygon fill="none" stroke="#000000" points="684.5,-442.5 684.5,-472.5 913.5,-472.5 913.5,-442.5 684.5,-442.5"/>
<text text-anchor="start" x="691.3008" y="-453.9" font-family="Arial" font-size="14.00" fill="#000000">build_type </text>
<text text-anchor="start" x="758.9908" y="-453.9" font-family="Arial" font-size="14.00" fill="#666666">[enum(&#39;runtime&#39;,&#39;static&#39;)]</text>
<polygon fill="none" stroke="#000000" points="684.5,-412.5 684.5,-442.5 913.5,-442.5 913.5,-412.5 684.5,-412.5"/>
<text text-anchor="start" x="691.5" y="-423.9" font-family="Arial" font-size="14.00" fill="#000000">state </text>
<text text-anchor="start" x="725.737" y="-423.9" font-family="Arial" font-size="14.00" fill="#666666">[varchar(10)]</text>
<polygon fill="none" stroke="#000000" points="684.5,-382.5 684.5,-412.5 913.5,-412.5 913.5,-382.5 684.5,-382.5"/>
<text text-anchor="start" x="691.5" y="-393.9" font-family="Arial" font-size="14.00" fill="#000000">current_commit </text>
<text text-anchor="start" x="791.8338" y="-393.9" font-family="Arial" font-size="14.00" fill="#666666">[char(40)]</text>
<polygon fill="none" stroke="#000000" points="684.5,-352.5 684.5,-382.5 913.5,-382.5 913.5,-352.5 684.5,-352.5"/>
<text text-anchor="start" x="691.5" y="-363.9" font-family="Arial" font-size="14.00" fill="#000000">want_commit </text>
<text text-anchor="start" x="777.8366" y="-363.9" font-family="Arial" font-size="14.00" fill="#666666">[char(40)]</text>
<polygon fill="none" stroke="#000000" points="684.5,-322.5 684.5,-352.5 913.5,-352.5 913.5,-322.5 684.5,-322.5"/>
<text text-anchor="start" x="691.5" y="-333.9" font-family="Arial" font-size="14.00" fill="#000000">created_at </text>
<text text-anchor="start" x="761.528" y="-333.9" font-family="Arial" font-size="14.00" fill="#666666">[datetime(6)]</text>
<polygon fill="none" stroke="#000000" points="684.5,-292.5 684.5,-322.5 913.5,-322.5 913.5,-292.5 684.5,-292.5"/>
<text text-anchor="start" x="691.5" y="-303.9" font-family="Arial" font-size="14.00" fill="#000000">updated_at </text>
<text text-anchor="start" x="765.4326" y="-303.9" font-family="Arial" font-size="14.00" fill="#666666">[datetime(6)]</text>
<polygon fill="none" stroke="#000000" stroke-width="3" points="682.5,-291.5 682.5,-599.5 914.5,-599.5 914.5,-291.5 682.5,-291.5"/>
</g>
<!-- repositories -->
<g id="node7" class="node">
<title>repositories</title>
<polygon fill="#efefef" stroke="transparent" points="533.5,-132.5 533.5,-167.5 737.5,-167.5 737.5,-132.5 533.5,-132.5"/>
<polygon fill="none" stroke="#000000" points="533.5,-132.5 533.5,-167.5 737.5,-167.5 737.5,-132.5 533.5,-132.5"/>
<text text-anchor="start" x="540.3701" y="-145.3" font-family="Arial Bold" font-size="18.00" fill="#000000">repositories</text>
<text text-anchor="start" x="633.3761" y="-145.3" font-family="Arial" font-size="14.00" fill="#000000"> </text>
<text text-anchor="start" x="637.2667" y="-145.3" font-family="Arial" font-size="14.00" fill="#666666">[BASE TABLE]</text>
<polygon fill="none" stroke="#000000" points="533.5,-102.5 533.5,-132.5 737.5,-132.5 737.5,-102.5 533.5,-102.5"/>
<text text-anchor="start" x="540.5" y="-113.9" font-family="Arial" font-size="14.00" fill="#000000">id </text>
<text text-anchor="start" x="555.2798" y="-113.9" font-family="Arial" font-size="14.00" fill="#666666">[varchar(22)]</text>
<polygon fill="none" stroke="#000000" points="533.5,-72.5 533.5,-102.5 737.5,-102.5 737.5,-72.5 533.5,-72.5"/>
<text text-anchor="start" x="540.5" y="-83.9" font-family="Arial" font-size="14.00" fill="#000000">name </text>
<text text-anchor="start" x="579.399" y="-83.9" font-family="Arial" font-size="14.00" fill="#666666">[varchar(256)]</text>
<polygon fill="none" stroke="#000000" points="533.5,-42.5 533.5,-72.5 737.5,-72.5 737.5,-42.5 533.5,-42.5"/>
<text text-anchor="start" x="540.5" y="-53.9" font-family="Arial" font-size="14.00" fill="#000000">url </text>
<text text-anchor="start" x="559.9404" y="-53.9" font-family="Arial" font-size="14.00" fill="#666666">[varchar(256)]</text>
</g>
<!-- applications&#45;&gt;repositories -->
<g id="edge6" class="edge">
<title>applications:repository_id&#45;&gt;repositories:id</title>
<path fill="none" stroke="#000000" d="M674.403,-517.0826C568.0185,-507.9253 629.8801,-350.1289 684.5,-247 697.8277,-221.8358 724.1723,-236.1642 737.5,-211 756.9495,-174.277 779.0556,-117.5 737.5,-117.5"/>
<polygon fill="#000000" stroke="#000000" points="674.5085,-517.0869 684.3141,-521.9962 679.5043,-517.2935 684.5,-517.5 684.5,-517.5 684.5,-517.5 679.5043,-517.2935 684.6859,-513.0038 674.5085,-517.0869 674.5085,-517.0869"/>
<text text-anchor="start" x="400.611" y="-527.5" font-family="Arial" font-size="10.00" fill="#000000">FOREIGN KEY (repository_id) REFERENCES repositories (id)</text>
</g>
<!-- application_state -->
<g id="node8" class="node">
<title>application_state</title>
<polygon fill="#efefef" stroke="transparent" points="841.5,-102.5 841.5,-137.5 1087.5,-137.5 1087.5,-102.5 841.5,-102.5"/>
<polygon fill="none" stroke="#000000" points="841.5,-102.5 841.5,-137.5 1087.5,-137.5 1087.5,-102.5 841.5,-102.5"/>
<text text-anchor="start" x="848.3506" y="-115.3" font-family="Arial Bold" font-size="18.00" fill="#000000">application_state</text>
<text text-anchor="start" x="983.3956" y="-115.3" font-family="Arial" font-size="14.00" fill="#000000"> </text>
<text text-anchor="start" x="987.2862" y="-115.3" font-family="Arial" font-size="14.00" fill="#666666">[BASE TABLE]</text>
<polygon fill="none" stroke="#000000" points="841.5,-72.5 841.5,-102.5 1087.5,-102.5 1087.5,-72.5 841.5,-72.5"/>
<text text-anchor="start" x="848.5" y="-83.9" font-family="Arial" font-size="14.00" fill="#000000">state </text>
<text text-anchor="start" x="882.737" y="-83.9" font-family="Arial" font-size="14.00" fill="#666666">[varchar(10)]</text>
</g>
<!-- applications&#45;&gt;application_state -->
<g id="edge7" class="edge">
<title>applications:state&#45;&gt;application_state:state</title>
<path fill="none" stroke="#000000" d="M923.6382,-427.4039C1201.0931,-422.0232 846.5051,-192.3778 841.5,-181 824.7671,-142.9622 799.9444,-87.5 841.5,-87.5"/>
<polygon fill="#000000" stroke="#000000" points="923.4996,-427.4051 913.4573,-423.0002 918.4998,-427.4526 913.5,-427.5 913.5,-427.5 913.5,-427.5 918.4998,-427.4526 913.5427,-431.9998 923.4996,-427.4051 923.4996,-427.4051"/>
<text text-anchor="start" x="920.761" y="-437.5" font-family="Arial" font-size="10.00" fill="#000000">FOREIGN KEY (state) REFERENCES application_state (state)</text>
</g>
<!-- application_config -->
<g id="node2" class="node">
<title>application_config</title>
<polygon fill="#efefef" stroke="transparent" points="43.5,-932.5 43.5,-967.5 298.5,-967.5 298.5,-932.5 43.5,-932.5"/>
<polygon fill="none" stroke="#000000" points="43.5,-932.5 43.5,-967.5 298.5,-967.5 298.5,-932.5 43.5,-932.5"/>
<text text-anchor="start" x="50.3515" y="-945.3" font-family="Arial Bold" font-size="18.00" fill="#000000">application_config</text>
<text text-anchor="start" x="194.3947" y="-945.3" font-family="Arial" font-size="14.00" fill="#000000"> </text>
<text text-anchor="start" x="198.2853" y="-945.3" font-family="Arial" font-size="14.00" fill="#666666">[BASE TABLE]</text>
<polygon fill="none" stroke="#000000" points="43.5,-902.5 43.5,-932.5 298.5,-932.5 298.5,-902.5 43.5,-902.5"/>
<text text-anchor="start" x="50.5" y="-913.9" font-family="Arial" font-size="14.00" fill="#000000">application_id </text>
<text text-anchor="start" x="139.9684" y="-913.9" font-family="Arial" font-size="14.00" fill="#666666">[varchar(22)]</text>
<polygon fill="none" stroke="#000000" points="43.5,-872.5 43.5,-902.5 298.5,-902.5 298.5,-872.5 43.5,-872.5"/>
<text text-anchor="start" x="50.5" y="-883.9" font-family="Arial" font-size="14.00" fill="#000000">use_mariadb </text>
<text text-anchor="start" x="135.2966" y="-883.9" font-family="Arial" font-size="14.00" fill="#666666">[tinyint(1)]</text>
<polygon fill="none" stroke="#000000" points="43.5,-842.5 43.5,-872.5 298.5,-872.5 298.5,-842.5 43.5,-842.5"/>
<text text-anchor="start" x="50.5" y="-853.9" font-family="Arial" font-size="14.00" fill="#000000">use_mongodb </text>
<text text-anchor="start" x="143.0946" y="-853.9" font-family="Arial" font-size="14.00" fill="#666666">[tinyint(1)]</text>
<polygon fill="none" stroke="#000000" points="43.5,-812.5 43.5,-842.5 298.5,-842.5 298.5,-812.5 43.5,-812.5"/>
<text text-anchor="start" x="50.5" y="-823.9" font-family="Arial" font-size="14.00" fill="#000000">base_image </text>
<text text-anchor="start" x="130.636" y="-823.9" font-family="Arial" font-size="14.00" fill="#666666">[varchar(1000)]</text>
<polygon fill="none" stroke="#000000" points="43.5,-782.5 43.5,-812.5 298.5,-812.5 298.5,-782.5 43.5,-782.5"/>
<text text-anchor="start" x="50.5" y="-793.9" font-family="Arial" font-size="14.00" fill="#000000">build_cmd </text>
<text text-anchor="start" x="118.1774" y="-793.9" font-family="Arial" font-size="14.00" fill="#666666">[text]</text>
<polygon fill="none" stroke="#000000" points="43.5,-752.5 43.5,-782.5 298.5,-782.5 298.5,-752.5 43.5,-752.5"/>
<text text-anchor="start" x="50.5" y="-763.9" font-family="Arial" font-size="14.00" fill="#000000">entrypoint_cmd </text>
<text text-anchor="start" x="150.0778" y="-763.9" font-family="Arial" font-size="14.00" fill="#666666">[text]</text>
<polygon fill="none" stroke="#000000" points="43.5,-722.5 43.5,-752.5 298.5,-752.5 298.5,-722.5 43.5,-722.5"/>
<text text-anchor="start" x="50.5" y="-733.9" font-family="Arial" font-size="14.00" fill="#000000">authentication </text>
<text text-anchor="start" x="141.5364" y="-733.9" font-family="Arial" font-size="14.00" fill="#666666">[enum(&#39;off&#39;,&#39;soft&#39;,&#39;hard&#39;)]</text>
</g>
<!-- application_config&#45;&gt;applications -->
<g id="edge1" class="edge">
<title>application_config:application_id&#45;&gt;applications:id</title>
<path fill="none" stroke="#000000" d="M308.5049,-916.9952C398.4032,-907.2769 282.8537,-759.6089 350.5,-680 453.9097,-558.3033 524.8014,-547.5 684.5,-547.5"/>
<polygon fill="#000000" stroke="#000000" points="308.4873,-916.996 298.2732,-913.0057 303.4936,-917.248 298.5,-917.5 298.5,-917.5 298.5,-917.5 303.4936,-917.248 298.7268,-921.9943 308.4873,-916.996 308.4873,-916.996"/>
<text text-anchor="start" x="157.102" y="-901.5" font-family="Arial" font-size="10.00" fill="#000000">FOREIGN KEY (application_id) REFERENCES applications (id)</text>
</g>
<!-- builds -->
<g id="node3" class="node">
<title>builds</title>
<polygon fill="#efefef" stroke="transparent" points="402.5,-917.5 402.5,-952.5 584.5,-952.5 584.5,-917.5 402.5,-917.5"/>
<polygon fill="none" stroke="#000000" points="402.5,-917.5 402.5,-952.5 584.5,-952.5 584.5,-917.5 402.5,-917.5"/>
<text text-anchor="start" x="421.3696" y="-930.3" font-family="Arial Bold" font-size="18.00" fill="#000000">builds</text>
<text text-anchor="start" x="468.3766" y="-930.3" font-family="Arial" font-size="14.00" fill="#000000"> </text>
<text text-anchor="start" x="472.2672" y="-930.3" font-family="Arial" font-size="14.00" fill="#666666">[BASE TABLE]</text>
<polygon fill="none" stroke="#000000" points="402.5,-887.5 402.5,-917.5 584.5,-917.5 584.5,-887.5 402.5,-887.5"/>
<text text-anchor="start" x="409.5" y="-898.9" font-family="Arial" font-size="14.00" fill="#000000">id </text>
<text text-anchor="start" x="424.2798" y="-898.9" font-family="Arial" font-size="14.00" fill="#666666">[varchar(22)]</text>
<polygon fill="none" stroke="#000000" points="402.5,-857.5 402.5,-887.5 584.5,-887.5 584.5,-857.5 402.5,-857.5"/>
<text text-anchor="start" x="409.5" y="-868.9" font-family="Arial" font-size="14.00" fill="#000000">commit </text>
<text text-anchor="start" x="458.4916" y="-868.9" font-family="Arial" font-size="14.00" fill="#666666">[char(40)]</text>
<polygon fill="none" stroke="#000000" points="402.5,-827.5 402.5,-857.5 584.5,-857.5 584.5,-827.5 402.5,-827.5"/>
<text text-anchor="start" x="409.5" y="-838.9" font-family="Arial" font-size="14.00" fill="#000000">status </text>
<text text-anchor="start" x="450.737" y="-838.9" font-family="Arial" font-size="14.00" fill="#666666">[varchar(10)]</text>
<polygon fill="none" stroke="#000000" points="402.5,-797.5 402.5,-827.5 584.5,-827.5 584.5,-797.5 402.5,-797.5"/>
<text text-anchor="start" x="409.5" y="-808.9" font-family="Arial" font-size="14.00" fill="#000000">started_at </text>
<text text-anchor="start" x="475.636" y="-808.9" font-family="Arial" font-size="14.00" fill="#666666">[datetime(6)]</text>
<polygon fill="none" stroke="#000000" points="402.5,-767.5 402.5,-797.5 584.5,-797.5 584.5,-767.5 402.5,-767.5"/>
<text text-anchor="start" x="409.5" y="-778.9" font-family="Arial" font-size="14.00" fill="#000000">finished_at </text>
<text text-anchor="start" x="481.0806" y="-778.9" font-family="Arial" font-size="14.00" fill="#666666">[datetime(6)]</text>
<polygon fill="none" stroke="#000000" points="402.5,-737.5 402.5,-767.5 584.5,-767.5 584.5,-737.5 402.5,-737.5"/>
<text text-anchor="start" x="409.0975" y="-748.9" font-family="Arial" font-size="14.00" fill="#000000">application_id </text>
<text text-anchor="start" x="498.5659" y="-748.9" font-family="Arial" font-size="14.00" fill="#666666">[varchar(22)]</text>
</g>
<!-- builds&#45;&gt;applications -->
<g id="edge2" class="edge">
<title>builds:application_id&#45;&gt;applications:id</title>
<path fill="none" stroke="#000000" d="M594.7085,-751.7164C678.7147,-737.9532 586.7896,-547.5 684.5,-547.5"/>
<polygon fill="#000000" stroke="#000000" points="594.4707,-751.7346 584.1556,-748.0132 589.4853,-752.1173 584.5,-752.5 584.5,-752.5 584.5,-752.5 589.4853,-752.1173 584.8444,-756.9868 594.4707,-751.7346 594.4707,-751.7346"/>
<text text-anchor="start" x="591.102" y="-762.5" font-family="Arial" font-size="10.00" fill="#000000">FOREIGN KEY (application_id) REFERENCES applications (id)</text>
</g>
<!-- environments -->
<g id="node4" class="node">
<title>environments</title>
<polygon fill="#efefef" stroke="transparent" points="689.5,-887.5 689.5,-922.5 908.5,-922.5 908.5,-887.5 689.5,-887.5"/>
<polygon fill="none" stroke="#000000" points="689.5,-887.5 689.5,-922.5 908.5,-922.5 908.5,-887.5 689.5,-887.5"/>
<text text-anchor="start" x="696.3641" y="-900.3" font-family="Arial Bold" font-size="18.00" fill="#000000">environments</text>
<text text-anchor="start" x="804.3821" y="-900.3" font-family="Arial" font-size="14.00" fill="#000000"> </text>
<text text-anchor="start" x="808.2727" y="-900.3" font-family="Arial" font-size="14.00" fill="#666666">[BASE TABLE]</text>
<polygon fill="none" stroke="#000000" points="689.5,-857.5 689.5,-887.5 908.5,-887.5 908.5,-857.5 689.5,-857.5"/>
<text text-anchor="start" x="696.5" y="-868.9" font-family="Arial" font-size="14.00" fill="#000000">id </text>
<text text-anchor="start" x="711.2798" y="-868.9" font-family="Arial" font-size="14.00" fill="#666666">[varchar(22)]</text>
<polygon fill="none" stroke="#000000" points="689.5,-827.5 689.5,-857.5 908.5,-857.5 908.5,-827.5 689.5,-827.5"/>
<text text-anchor="start" x="696.5" y="-838.9" font-family="Arial" font-size="14.00" fill="#000000">application_id </text>
<text text-anchor="start" x="785.9684" y="-838.9" font-family="Arial" font-size="14.00" fill="#666666">[varchar(22)]</text>
<polygon fill="none" stroke="#000000" points="689.5,-797.5 689.5,-827.5 908.5,-827.5 908.5,-797.5 689.5,-797.5"/>
<text text-anchor="start" x="696.5" y="-808.9" font-family="Arial" font-size="14.00" fill="#000000">key </text>
<text text-anchor="start" x="722.1732" y="-808.9" font-family="Arial" font-size="14.00" fill="#666666">[varchar(100)]</text>
<polygon fill="none" stroke="#000000" points="689.5,-767.5 689.5,-797.5 908.5,-797.5 908.5,-767.5 689.5,-767.5"/>
<text text-anchor="start" x="696.5" y="-778.9" font-family="Arial" font-size="14.00" fill="#000000">value </text>
<text text-anchor="start" x="733.845" y="-778.9" font-family="Arial" font-size="14.00" fill="#666666">[text]</text>
</g>
<!-- environments&#45;&gt;applications -->
<g id="edge3" class="edge">
<title>environments:application_id&#45;&gt;applications:id</title>
<path fill="none" stroke="#000000" d="M679.6342,-840.1254C623.6039,-812.2071 622.3926,-547.5 684.5,-547.5"/>
<polygon fill="#000000" stroke="#000000" points="679.7776,-840.1599 688.4469,-846.8751 684.6388,-841.3299 689.5,-842.5 689.5,-842.5 689.5,-842.5 684.6388,-841.3299 690.5531,-838.1249 679.7776,-840.1599 679.7776,-840.1599"/>
<text text-anchor="start" x="696.102" y="-852.5" font-family="Arial" font-size="10.00" fill="#000000">FOREIGN KEY (application_id) REFERENCES applications (id)</text>
</g>
<!-- owners -->
<g id="node5" class="node">
<title>owners</title>
<polygon fill="#efefef" stroke="transparent" points="1012.5,-857.5 1012.5,-892.5 1181.5,-892.5 1181.5,-857.5 1012.5,-857.5"/>
<polygon fill="none" stroke="#000000" points="1012.5,-857.5 1012.5,-892.5 1181.5,-892.5 1181.5,-857.5 1012.5,-857.5"/>
<text text-anchor="start" x="1019.3706" y="-870.3" font-family="Arial Bold" font-size="18.00" fill="#000000">owners</text>
<text text-anchor="start" x="1077.3756" y="-870.3" font-family="Arial" font-size="14.00" fill="#000000"> </text>
<text text-anchor="start" x="1081.2662" y="-870.3" font-family="Arial" font-size="14.00" fill="#666666">[BASE TABLE]</text>
<polygon fill="none" stroke="#000000" points="1012.5,-827.5 1012.5,-857.5 1181.5,-857.5 1181.5,-827.5 1012.5,-827.5"/>
<text text-anchor="start" x="1019.5" y="-838.9" font-family="Arial" font-size="14.00" fill="#000000">user_id </text>
<text text-anchor="start" x="1069.2882" y="-838.9" font-family="Arial" font-size="14.00" fill="#666666">[char(36)]</text>
<polygon fill="none" stroke="#000000" points="1012.5,-797.5 1012.5,-827.5 1181.5,-827.5 1181.5,-797.5 1012.5,-797.5"/>
<text text-anchor="start" x="1019.5" y="-808.9" font-family="Arial" font-size="14.00" fill="#000000">application_id </text>
<text text-anchor="start" x="1108.9684" y="-808.9" font-family="Arial" font-size="14.00" fill="#666666">[char(36)]</text>
</g>
<!-- owners&#45;&gt;applications -->
<g id="edge4" class="edge">
<title>owners:application_id&#45;&gt;applications:id</title>
<path fill="none" stroke="#000000" d="M1002.6477,-810.0458C952.3762,-783.3306 972.8035,-547.5 913.5,-547.5"/>
<polygon fill="#000000" stroke="#000000" points="1002.7965,-810.0828 1011.4123,-816.8666 1007.6483,-811.2914 1012.5,-812.5 1012.5,-812.5 1012.5,-812.5 1007.6483,-811.2914 1013.5877,-808.1334 1002.7965,-810.0828 1002.7965,-810.0828"/>
<text text-anchor="start" x="1019.102" y="-822.5" font-family="Arial" font-size="10.00" fill="#000000">FOREIGN KEY (application_id) REFERENCES applications (id)</text>
</g>
<!-- websites -->
<g id="node6" class="node">
<title>websites</title>
<polygon fill="#efefef" stroke="transparent" points="1285.5,-917.5 1285.5,-952.5 1467.5,-952.5 1467.5,-917.5 1285.5,-917.5"/>
<polygon fill="none" stroke="#000000" points="1285.5,-917.5 1285.5,-952.5 1467.5,-952.5 1467.5,-917.5 1285.5,-917.5"/>
<text text-anchor="start" x="1292.8685" y="-930.3" font-family="Arial Bold" font-size="18.00" fill="#000000">websites</text>
<text text-anchor="start" x="1362.8777" y="-930.3" font-family="Arial" font-size="14.00" fill="#000000"> </text>
<text text-anchor="start" x="1366.7683" y="-930.3" font-family="Arial" font-size="14.00" fill="#666666">[BASE TABLE]</text>
<polygon fill="none" stroke="#000000" points="1285.5,-887.5 1285.5,-917.5 1467.5,-917.5 1467.5,-887.5 1285.5,-887.5"/>
<text text-anchor="start" x="1292.5" y="-898.9" font-family="Arial" font-size="14.00" fill="#000000">id </text>
<text text-anchor="start" x="1307.2798" y="-898.9" font-family="Arial" font-size="14.00" fill="#666666">[varchar(22)]</text>
<polygon fill="none" stroke="#000000" points="1285.5,-857.5 1285.5,-887.5 1467.5,-887.5 1467.5,-857.5 1285.5,-857.5"/>
<text text-anchor="start" x="1292.5" y="-868.9" font-family="Arial" font-size="14.00" fill="#000000">fqdn </text>
<text text-anchor="start" x="1323.629" y="-868.9" font-family="Arial" font-size="14.00" fill="#666666">[varchar(50)]</text>
<polygon fill="none" stroke="#000000" points="1285.5,-827.5 1285.5,-857.5 1467.5,-857.5 1467.5,-827.5 1285.5,-827.5"/>
<text text-anchor="start" x="1292.5" y="-838.9" font-family="Arial" font-size="14.00" fill="#000000">http_port </text>
<text text-anchor="start" x="1351.636" y="-838.9" font-family="Arial" font-size="14.00" fill="#666666">[int(11)]</text>
<polygon fill="none" stroke="#000000" points="1285.5,-797.5 1285.5,-827.5 1467.5,-827.5 1467.5,-797.5 1285.5,-797.5"/>
<text text-anchor="start" x="1292.5" y="-808.9" font-family="Arial" font-size="14.00" fill="#000000">created_at </text>
<text text-anchor="start" x="1362.528" y="-808.9" font-family="Arial" font-size="14.00" fill="#666666">[datetime(6)]</text>
<polygon fill="none" stroke="#000000" points="1285.5,-767.5 1285.5,-797.5 1467.5,-797.5 1467.5,-767.5 1285.5,-767.5"/>
<text text-anchor="start" x="1292.5" y="-778.9" font-family="Arial" font-size="14.00" fill="#000000">updated_at </text>
<text text-anchor="start" x="1366.4326" y="-778.9" font-family="Arial" font-size="14.00" fill="#666666">[datetime(6)]</text>
<polygon fill="none" stroke="#000000" points="1285.5,-737.5 1285.5,-767.5 1467.5,-767.5 1467.5,-737.5 1285.5,-737.5"/>
<text text-anchor="start" x="1292.0975" y="-748.9" font-family="Arial" font-size="14.00" fill="#000000">application_id </text>
<text text-anchor="start" x="1381.5659" y="-748.9" font-family="Arial" font-size="14.00" fill="#666666">[varchar(22)]</text>
</g>
<!-- websites&#45;&gt;applications -->
<g id="edge5" class="edge">
<title>websites:application_id&#45;&gt;applications:id</title>
<path fill="none" stroke="#000000" d="M1275.4521,-751.197C1249.0281,-743.3742 1261.533,-702.2358 1233.5,-680 1112.9003,-584.3403 1067.432,-547.5 913.5,-547.5"/>
<polygon fill="#000000" stroke="#000000" points="1275.583,-751.2139 1284.9212,-756.9626 1280.5415,-751.8569 1285.5,-752.5 1285.5,-752.5 1285.5,-752.5 1280.5415,-751.8569 1286.0788,-748.0374 1275.583,-751.2139 1275.583,-751.2139"/>
<text text-anchor="start" x="996.102" y="-736.5" font-family="Arial" font-size="10.00" fill="#000000">FOREIGN KEY (application_id) REFERENCES applications (id)</text>
</g>
</g>
</svg>
