<?xml version="1.0" encoding="UTF-8" standalone="no"?>
<!DOCTYPE svg PUBLIC "-//W3C//DTD SVG 1.1//EN"
 "http://www.w3.org/Graphics/SVG/1.1/DTD/svg11.dtd">
<!-- Generated by graphviz version 2.40.1 (20161225.0304)
 -->
<!-- Title: applications Pages: 1 -->
<svg width="1895pt" height="1139pt"
 viewBox="0.00 0.00 1895.00 1139.00" xmlns="http://www.w3.org/2000/svg" xmlns:xlink="http://www.w3.org/1999/xlink">
<g id="graph0" class="graph" transform="scale(1 1) rotate(0) translate(4 1135)">
<title>applications</title>
<polygon fill="#ffffff" stroke="transparent" points="-4,4 -4,-1135 1891,-1135 1891,4 -4,4"/>
<!-- applications -->
<g id="node1" class="node">
<title>applications</title>
<polygon fill="#efefef" stroke="transparent" points="772.5,-622.5 772.5,-657.5 1234.5,-657.5 1234.5,-622.5 772.5,-622.5"/>
<polygon fill="none" stroke="#000000" points="772.5,-622.5 772.5,-657.5 1234.5,-657.5 1234.5,-622.5 772.5,-622.5"/>
<text text-anchor="start" x="907.3621" y="-635.3" font-family="Arial Bold" font-size="18.00" fill="#000000">applications</text>
<text text-anchor="start" x="1002.3841" y="-635.3" font-family="Arial" font-size="14.00" fill="#000000"> </text>
<text text-anchor="start" x="1006.2747" y="-635.3" font-family="Arial" font-size="14.00" fill="#666666">[BASE TABLE]</text>
<polygon fill="none" stroke="#000000" points="772.5,-592.5 772.5,-622.5 1234.5,-622.5 1234.5,-592.5 772.5,-592.5"/>
<text text-anchor="start" x="779.5" y="-603.9" font-family="Arial" font-size="14.00" fill="#000000">id </text>
<text text-anchor="start" x="794.2798" y="-603.9" font-family="Arial" font-size="14.00" fill="#666666">[char(22)]</text>
<polygon fill="none" stroke="#000000" points="772.5,-562.5 772.5,-592.5 1234.5,-592.5 1234.5,-562.5 772.5,-562.5"/>
<text text-anchor="start" x="779.5" y="-573.9" font-family="Arial" font-size="14.00" fill="#000000">name </text>
<text text-anchor="start" x="818.399" y="-573.9" font-family="Arial" font-size="14.00" fill="#666666">[varchar(100)]</text>
<polygon fill="none" stroke="#000000" points="772.5,-532.5 772.5,-562.5 1234.5,-562.5 1234.5,-532.5 772.5,-532.5"/>
<text text-anchor="start" x="779.5" y="-543.9" font-family="Arial" font-size="14.00" fill="#000000">repository_id </text>
<text text-anchor="start" x="863.5112" y="-543.9" font-family="Arial" font-size="14.00" fill="#666666">[varchar(22)]</text>
<polygon fill="none" stroke="#000000" points="772.5,-502.5 772.5,-532.5 1234.5,-532.5 1234.5,-502.5 772.5,-502.5"/>
<text text-anchor="start" x="779.5" y="-513.9" font-family="Arial" font-size="14.00" fill="#000000">ref_name </text>
<text text-anchor="start" x="842.5154" y="-513.9" font-family="Arial" font-size="14.00" fill="#666666">[varchar(100)]</text>
<polygon fill="none" stroke="#000000" points="772.5,-472.5 772.5,-502.5 1234.5,-502.5 1234.5,-472.5 772.5,-472.5"/>
<text text-anchor="start" x="779.5" y="-483.9" font-family="Arial" font-size="14.00" fill="#000000">build_type </text>
<text text-anchor="start" x="847.19" y="-483.9" font-family="Arial" font-size="14.00" fill="#666666">[enum(&#39;runtime&#39;,&#39;static&#39;)]</text>
<polygon fill="none" stroke="#000000" points="772.5,-442.5 772.5,-472.5 1234.5,-472.5 1234.5,-442.5 772.5,-442.5"/>
<text text-anchor="start" x="779.5" y="-453.9" font-family="Arial" font-size="14.00" fill="#000000">running </text>
<text text-anchor="start" x="830.0708" y="-453.9" font-family="Arial" font-size="14.00" fill="#666666">[tinyint(1)]</text>
<polygon fill="none" stroke="#000000" points="772.5,-412.5 772.5,-442.5 1234.5,-442.5 1234.5,-412.5 772.5,-412.5"/>
<text text-anchor="start" x="779.1857" y="-423.9" font-family="Arial" font-size="14.00" fill="#000000">container </text>
<text text-anchor="start" x="840.6471" y="-423.9" font-family="Arial" font-size="14.00" fill="#666666">[enum(&#39;missing&#39;,&#39;starting&#39;,&#39;running&#39;,&#39;exited&#39;,&#39;errored&#39;,&#39;unknown&#39;)]</text>
<polygon fill="none" stroke="#000000" points="772.5,-382.5 772.5,-412.5 1234.5,-412.5 1234.5,-382.5 772.5,-382.5"/>
<text text-anchor="start" x="779.5" y="-393.9" font-family="Arial" font-size="14.00" fill="#000000">current_commit </text>
<text text-anchor="start" x="879.8338" y="-393.9" font-family="Arial" font-size="14.00" fill="#666666">[char(40)]</text>
<polygon fill="none" stroke="#000000" points="772.5,-352.5 772.5,-382.5 1234.5,-382.5 1234.5,-352.5 772.5,-352.5"/>
<text text-anchor="start" x="779.5" y="-363.9" font-family="Arial" font-size="14.00" fill="#000000">want_commit </text>
<text text-anchor="start" x="865.8366" y="-363.9" font-family="Arial" font-size="14.00" fill="#666666">[char(40)]</text>
<polygon fill="none" stroke="#000000" points="772.5,-322.5 772.5,-352.5 1234.5,-352.5 1234.5,-322.5 772.5,-322.5"/>
<text text-anchor="start" x="779.5" y="-333.9" font-family="Arial" font-size="14.00" fill="#000000">created_at </text>
<text text-anchor="start" x="849.528" y="-333.9" font-family="Arial" font-size="14.00" fill="#666666">[datetime(6)]</text>
<polygon fill="none" stroke="#000000" points="772.5,-292.5 772.5,-322.5 1234.5,-322.5 1234.5,-292.5 772.5,-292.5"/>
<text text-anchor="start" x="779.5" y="-303.9" font-family="Arial" font-size="14.00" fill="#000000">updated_at </text>
<text text-anchor="start" x="853.4326" y="-303.9" font-family="Arial" font-size="14.00" fill="#666666">[datetime(6)]</text>
<polygon fill="none" stroke="#000000" stroke-width="3" points="771,-291.5 771,-659.5 1236,-659.5 1236,-291.5 771,-291.5"/>
</g>
<!-- repositories -->
<g id="node7" class="node">
<title>repositories</title>
<polygon fill="#efefef" stroke="transparent" points="901.5,-132.5 901.5,-167.5 1105.5,-167.5 1105.5,-132.5 901.5,-132.5"/>
<polygon fill="none" stroke="#000000" points="901.5,-132.5 901.5,-167.5 1105.5,-167.5 1105.5,-132.5 901.5,-132.5"/>
<text text-anchor="start" x="908.3701" y="-145.3" font-family="Arial Bold" font-size="18.00" fill="#000000">repositories</text>
<text text-anchor="start" x="1001.3761" y="-145.3" font-family="Arial" font-size="14.00" fill="#000000"> </text>
<text text-anchor="start" x="1005.2667" y="-145.3" font-family="Arial" font-size="14.00" fill="#666666">[BASE TABLE]</text>
<polygon fill="none" stroke="#000000" points="901.5,-102.5 901.5,-132.5 1105.5,-132.5 1105.5,-102.5 901.5,-102.5"/>
<text text-anchor="start" x="908.5" y="-113.9" font-family="Arial" font-size="14.00" fill="#000000">id </text>
<text text-anchor="start" x="923.2798" y="-113.9" font-family="Arial" font-size="14.00" fill="#666666">[char(22)]</text>
<polygon fill="none" stroke="#000000" points="901.5,-72.5 901.5,-102.5 1105.5,-102.5 1105.5,-72.5 901.5,-72.5"/>
<text text-anchor="start" x="908.5" y="-83.9" font-family="Arial" font-size="14.00" fill="#000000">name </text>
<text text-anchor="start" x="947.399" y="-83.9" font-family="Arial" font-size="14.00" fill="#666666">[varchar(256)]</text>
<polygon fill="none" stroke="#000000" points="901.5,-42.5 901.5,-72.5 1105.5,-72.5 1105.5,-42.5 901.5,-42.5"/>
<text text-anchor="start" x="908.5" y="-53.9" font-family="Arial" font-size="14.00" fill="#000000">url </text>
<text text-anchor="start" x="927.9404" y="-53.9" font-family="Arial" font-size="14.00" fill="#666666">[varchar(256)]</text>
</g>
<!-- applications&#45;&gt;repositories -->
<g id="edge6" class="edge">
<title>applications:repository_id&#45;&gt;repositories:id</title>
<path fill="none" stroke="#000000" d="M1244.7187,-547.1061C1429.4689,-532.5157 1301.5186,-117.5 1105.5,-117.5"/>
<polygon fill="#000000" stroke="#000000" points="1244.4926,-547.1147 1234.3266,-543.0033 1239.4963,-547.3073 1234.5,-547.5 1234.5,-547.5 1234.5,-547.5 1239.4963,-547.3073 1234.6734,-551.9967 1244.4926,-547.1147 1244.4926,-547.1147"/>
<text text-anchor="start" x="1241.611" y="-557.5" font-family="Arial" font-size="10.00" fill="#000000">FOREIGN KEY (repository_id) REFERENCES repositories (id)</text>
</g>
<!-- application_config -->
<g id="node2" class="node">
<title>application_config</title>
<polygon fill="#efefef" stroke="transparent" points="43.5,-1052.5 43.5,-1087.5 298.5,-1087.5 298.5,-1052.5 43.5,-1052.5"/>
<polygon fill="none" stroke="#000000" points="43.5,-1052.5 43.5,-1087.5 298.5,-1087.5 298.5,-1052.5 43.5,-1052.5"/>
<text text-anchor="start" x="50.3515" y="-1065.3" font-family="Arial Bold" font-size="18.00" fill="#000000">application_config</text>
<text text-anchor="start" x="194.3947" y="-1065.3" font-family="Arial" font-size="14.00" fill="#000000"> </text>
<text text-anchor="start" x="198.2853" y="-1065.3" font-family="Arial" font-size="14.00" fill="#666666">[BASE TABLE]</text>
<polygon fill="none" stroke="#000000" points="43.5,-1022.5 43.5,-1052.5 298.5,-1052.5 298.5,-1022.5 43.5,-1022.5"/>
<text text-anchor="start" x="50.5" y="-1033.9" font-family="Arial" font-size="14.00" fill="#000000">application_id </text>
<text text-anchor="start" x="139.9684" y="-1033.9" font-family="Arial" font-size="14.00" fill="#666666">[char(22)]</text>
<polygon fill="none" stroke="#000000" points="43.5,-992.5 43.5,-1022.5 298.5,-1022.5 298.5,-992.5 43.5,-992.5"/>
<text text-anchor="start" x="50.5" y="-1003.9" font-family="Arial" font-size="14.00" fill="#000000">use_mariadb </text>
<text text-anchor="start" x="135.2966" y="-1003.9" font-family="Arial" font-size="14.00" fill="#666666">[tinyint(1)]</text>
<polygon fill="none" stroke="#000000" points="43.5,-962.5 43.5,-992.5 298.5,-992.5 298.5,-962.5 43.5,-962.5"/>
<text text-anchor="start" x="50.5" y="-973.9" font-family="Arial" font-size="14.00" fill="#000000">use_mongodb </text>
<text text-anchor="start" x="143.0946" y="-973.9" font-family="Arial" font-size="14.00" fill="#666666">[tinyint(1)]</text>
<polygon fill="none" stroke="#000000" points="43.5,-932.5 43.5,-962.5 298.5,-962.5 298.5,-932.5 43.5,-932.5"/>
<text text-anchor="start" x="50.5" y="-943.9" font-family="Arial" font-size="14.00" fill="#000000">base_image </text>
<text text-anchor="start" x="130.636" y="-943.9" font-family="Arial" font-size="14.00" fill="#666666">[varchar(1000)]</text>
<polygon fill="none" stroke="#000000" points="43.5,-902.5 43.5,-932.5 298.5,-932.5 298.5,-902.5 43.5,-902.5"/>
<text text-anchor="start" x="50.5" y="-913.9" font-family="Arial" font-size="14.00" fill="#000000">dockerfile_name </text>
<text text-anchor="start" x="157.0764" y="-913.9" font-family="Arial" font-size="14.00" fill="#666666">[varchar(100)]</text>
<polygon fill="none" stroke="#000000" points="43.5,-872.5 43.5,-902.5 298.5,-902.5 298.5,-872.5 43.5,-872.5"/>
<text text-anchor="start" x="50.5" y="-883.9" font-family="Arial" font-size="14.00" fill="#000000">artifact_path </text>
<text text-anchor="start" x="131.4158" y="-883.9" font-family="Arial" font-size="14.00" fill="#666666">[varchar(100)]</text>
<polygon fill="none" stroke="#000000" points="43.5,-842.5 43.5,-872.5 298.5,-872.5 298.5,-842.5 43.5,-842.5"/>
<text text-anchor="start" x="50.5" y="-853.9" font-family="Arial" font-size="14.00" fill="#000000">build_cmd </text>
<text text-anchor="start" x="118.1774" y="-853.9" font-family="Arial" font-size="14.00" fill="#666666">[text]</text>
<polygon fill="none" stroke="#000000" points="43.5,-812.5 43.5,-842.5 298.5,-842.5 298.5,-812.5 43.5,-812.5"/>
<text text-anchor="start" x="50.5" y="-823.9" font-family="Arial" font-size="14.00" fill="#000000">entrypoint_cmd </text>
<text text-anchor="start" x="150.0778" y="-823.9" font-family="Arial" font-size="14.00" fill="#666666">[text]</text>
<polygon fill="none" stroke="#000000" points="43.5,-782.5 43.5,-812.5 298.5,-812.5 298.5,-782.5 43.5,-782.5"/>
<text text-anchor="start" x="50.5" y="-793.9" font-family="Arial" font-size="14.00" fill="#000000">authentication </text>
<text text-anchor="start" x="141.5364" y="-793.9" font-family="Arial" font-size="14.00" fill="#666666">[enum(&#39;off&#39;,&#39;soft&#39;,&#39;hard&#39;)]</text>
</g>
<!-- application_config&#45;&gt;applications -->
<g id="edge1" class="edge">
<title>application_config:application_id&#45;&gt;applications:id</title>
<path fill="none" stroke="#000000" d="M308.4003,-1035.3564C359.3002,-1011.0714 307.7613,-787.7323 349.5,-740 414.3413,-665.8476 673.9963,-607.5 772.5,-607.5"/>
<polygon fill="#000000" stroke="#000000" points="308.2735,-1035.3837 297.5477,-1033.1019 303.3868,-1036.4419 298.5,-1037.5 298.5,-1037.5 298.5,-1037.5 303.3868,-1036.4419 299.4523,-1041.8981 308.2735,-1035.3837 308.2735,-1035.3837"/>
<text text-anchor="start" x="305.102" y="-1047.5" font-family="Arial" font-size="10.00" fill="#000000">FOREIGN KEY (application_id) REFERENCES applications (id)</text>
</g>
<!-- application_owners -->
<g id="node3" class="node">
<title>application_owners</title>
<polygon fill="#efefef" stroke="transparent" points="402.5,-947.5 402.5,-982.5 667.5,-982.5 667.5,-947.5 402.5,-947.5"/>
<polygon fill="none" stroke="#000000" points="402.5,-947.5 402.5,-982.5 667.5,-982.5 667.5,-947.5 402.5,-947.5"/>
<text text-anchor="start" x="409.3565" y="-960.3" font-family="Arial Bold" font-size="18.00" fill="#000000">application_owners</text>
<text text-anchor="start" x="563.3897" y="-960.3" font-family="Arial" font-size="14.00" fill="#000000"> </text>
<text text-anchor="start" x="567.2803" y="-960.3" font-family="Arial" font-size="14.00" fill="#666666">[BASE TABLE]</text>
<polygon fill="none" stroke="#000000" points="402.5,-917.5 402.5,-947.5 667.5,-947.5 667.5,-917.5 402.5,-917.5"/>
<text text-anchor="start" x="409.5" y="-928.9" font-family="Arial" font-size="14.00" fill="#000000">user_id </text>
<text text-anchor="start" x="459.2882" y="-928.9" font-family="Arial" font-size="14.00" fill="#666666">[char(22)]</text>
<polygon fill="none" stroke="#000000" points="402.5,-887.5 402.5,-917.5 667.5,-917.5 667.5,-887.5 402.5,-887.5"/>
<text text-anchor="start" x="409.5" y="-898.9" font-family="Arial" font-size="14.00" fill="#000000">application_id </text>
<text text-anchor="start" x="498.9684" y="-898.9" font-family="Arial" font-size="14.00" fill="#666666">[char(22)]</text>
</g>
<!-- application_owners&#45;&gt;applications -->
<g id="edge2" class="edge">
<title>application_owners:application_id&#45;&gt;applications:id</title>
<path fill="none" stroke="#000000" d="M677.7349,-901.861C738.6767,-893.6467 695.0997,-807.8746 719.5,-740 740.9565,-680.3143 709.0747,-607.5 772.5,-607.5"/>
<polygon fill="#000000" stroke="#000000" points="677.4806,-901.8768 667.2196,-898.0087 672.4903,-902.1884 667.5,-902.5 667.5,-902.5 667.5,-902.5 672.4903,-902.1884 667.7804,-906.9913 677.4806,-901.8768 677.4806,-901.8768"/>
<text text-anchor="start" x="674.102" y="-912.5" font-family="Arial" font-size="10.00" fill="#000000">FOREIGN KEY (application_id) REFERENCES applications (id)</text>
</g>
<!-- builds -->
<g id="node4" class="node">
<title>builds</title>
<polygon fill="#efefef" stroke="transparent" points="771.5,-1037.5 771.5,-1072.5 1235.5,-1072.5 1235.5,-1037.5 771.5,-1037.5"/>
<polygon fill="none" stroke="#000000" points="771.5,-1037.5 771.5,-1072.5 1235.5,-1072.5 1235.5,-1037.5 771.5,-1037.5"/>
<text text-anchor="start" x="931.3696" y="-1050.3" font-family="Arial Bold" font-size="18.00" fill="#000000">builds</text>
<text text-anchor="start" x="978.3766" y="-1050.3" font-family="Arial" font-size="14.00" fill="#000000"> </text>
<text text-anchor="start" x="982.2672" y="-1050.3" font-family="Arial" font-size="14.00" fill="#666666">[BASE TABLE]</text>
<polygon fill="none" stroke="#000000" points="771.5,-1007.5 771.5,-1037.5 1235.5,-1037.5 1235.5,-1007.5 771.5,-1007.5"/>
<text text-anchor="start" x="778.5" y="-1018.9" font-family="Arial" font-size="14.00" fill="#000000">id </text>
<text text-anchor="start" x="793.2798" y="-1018.9" font-family="Arial" font-size="14.00" fill="#666666">[char(22)]</text>
<polygon fill="none" stroke="#000000" points="771.5,-977.5 771.5,-1007.5 1235.5,-1007.5 1235.5,-977.5 771.5,-977.5"/>
<text text-anchor="start" x="778.5" y="-988.9" font-family="Arial" font-size="14.00" fill="#000000">commit </text>
<text text-anchor="start" x="827.4916" y="-988.9" font-family="Arial" font-size="14.00" fill="#666666">[char(40)]</text>
<polygon fill="none" stroke="#000000" points="771.5,-947.5 771.5,-977.5 1235.5,-977.5 1235.5,-947.5 771.5,-947.5"/>
<text text-anchor="start" x="778.3779" y="-958.9" font-family="Arial" font-size="14.00" fill="#000000">status </text>
<text text-anchor="start" x="819.6149" y="-958.9" font-family="Arial" font-size="14.00" fill="#666666">[enum(&#39;building&#39;,&#39;succeeded&#39;,&#39;failed&#39;,&#39;canceled&#39;,&#39;queued&#39;,&#39;skipped&#39;)]</text>
<polygon fill="none" stroke="#000000" points="771.5,-917.5 771.5,-947.5 1235.5,-947.5 1235.5,-917.5 771.5,-917.5"/>
<text text-anchor="start" x="778.5" y="-928.9" font-family="Arial" font-size="14.00" fill="#000000">started_at </text>
<text text-anchor="start" x="844.636" y="-928.9" font-family="Arial" font-size="14.00" fill="#666666">[datetime(6)]</text>
<polygon fill="none" stroke="#000000" points="771.5,-887.5 771.5,-917.5 1235.5,-917.5 1235.5,-887.5 771.5,-887.5"/>
<text text-anchor="start" x="778.5" y="-898.9" font-family="Arial" font-size="14.00" fill="#000000">updated_at </text>
<text text-anchor="start" x="852.4326" y="-898.9" font-family="Arial" font-size="14.00" fill="#666666">[datetime(6)]</text>
<polygon fill="none" stroke="#000000" points="771.5,-857.5 771.5,-887.5 1235.5,-887.5 1235.5,-857.5 771.5,-857.5"/>
<text text-anchor="start" x="778.5" y="-868.9" font-family="Arial" font-size="14.00" fill="#000000">finished_at </text>
<text text-anchor="start" x="850.0806" y="-868.9" font-family="Arial" font-size="14.00" fill="#666666">[datetime(6)]</text>
<polygon fill="none" stroke="#000000" points="771.5,-827.5 771.5,-857.5 1235.5,-857.5 1235.5,-827.5 771.5,-827.5"/>
<text text-anchor="start" x="778.5" y="-838.9" font-family="Arial" font-size="14.00" fill="#000000">retriable </text>
<text text-anchor="start" x="832.946" y="-838.9" font-family="Arial" font-size="14.00" fill="#666666">[tinyint(1)]</text>
<polygon fill="none" stroke="#000000" points="771.5,-797.5 771.5,-827.5 1235.5,-827.5 1235.5,-797.5 771.5,-797.5"/>
<text text-anchor="start" x="778.5" y="-808.9" font-family="Arial" font-size="14.00" fill="#000000">application_id </text>
<text text-anchor="start" x="867.9684" y="-808.9" font-family="Arial" font-size="14.00" fill="#666666">[char(22)]</text>
</g>
<!-- builds&#45;&gt;applications -->
<g id="edge3" class="edge">
<title>builds:application_id&#45;&gt;applications:id</title>
<path fill="none" stroke="#000000" d="M1004.0176,-787.4629C1014.2873,-693.5653 1174.589,-792.8823 1234.5,-704 1258.4719,-668.4359 1277.3889,-607.5 1234.5,-607.5"/>
<polygon fill="#000000" stroke="#000000" points="1004.0151,-787.5133 999.006,-797.2682 1003.7575,-792.5066 1003.5,-797.5 1003.5,-797.5 1003.5,-797.5 1003.7575,-792.5066 1007.994,-797.7318 1004.0151,-787.5133 1004.0151,-787.5133"/>
<text text-anchor="start" x="714.102" y="-807.5" font-family="Arial" font-size="10.00" fill="#000000">FOREIGN KEY (application_id) REFERENCES applications (id)</text>
</g>
<!-- environments -->
<g id="node5" class="node">
<title>environments</title>
<polygon fill="#efefef" stroke="transparent" points="1340.5,-977.5 1340.5,-1012.5 1559.5,-1012.5 1559.5,-977.5 1340.5,-977.5"/>
<polygon fill="none" stroke="#000000" points="1340.5,-977.5 1340.5,-1012.5 1559.5,-1012.5 1559.5,-977.5 1340.5,-977.5"/>
<text text-anchor="start" x="1347.3641" y="-990.3" font-family="Arial Bold" font-size="18.00" fill="#000000">environments</text>
<text text-anchor="start" x="1455.3821" y="-990.3" font-family="Arial" font-size="14.00" fill="#000000"> </text>
<text text-anchor="start" x="1459.2727" y="-990.3" font-family="Arial" font-size="14.00" fill="#666666">[BASE TABLE]</text>
<polygon fill="none" stroke="#000000" points="1340.5,-947.5 1340.5,-977.5 1559.5,-977.5 1559.5,-947.5 1340.5,-947.5"/>
<text text-anchor="start" x="1347.5" y="-958.9" font-family="Arial" font-size="14.00" fill="#000000">application_id </text>
<text text-anchor="start" x="1436.9684" y="-958.9" font-family="Arial" font-size="14.00" fill="#666666">[char(22)]</text>
<polygon fill="none" stroke="#000000" points="1340.5,-917.5 1340.5,-947.5 1559.5,-947.5 1559.5,-917.5 1340.5,-917.5"/>
<text text-anchor="start" x="1347.5" y="-928.9" font-family="Arial" font-size="14.00" fill="#000000">key </text>
<text text-anchor="start" x="1373.1732" y="-928.9" font-family="Arial" font-size="14.00" fill="#666666">[varchar(100)]</text>
<polygon fill="none" stroke="#000000" points="1340.5,-887.5 1340.5,-917.5 1559.5,-917.5 1559.5,-887.5 1340.5,-887.5"/>
<text text-anchor="start" x="1347.5" y="-898.9" font-family="Arial" font-size="14.00" fill="#000000">value </text>
<text text-anchor="start" x="1384.845" y="-898.9" font-family="Arial" font-size="14.00" fill="#666666">[text]</text>
<polygon fill="none" stroke="#000000" points="1340.5,-857.5 1340.5,-887.5 1559.5,-887.5 1559.5,-857.5 1340.5,-857.5"/>
<text text-anchor="start" x="1347.5" y="-868.9" font-family="Arial" font-size="14.00" fill="#000000">system </text>
<text text-anchor="start" x="1395.7244" y="-868.9" font-family="Arial" font-size="14.00" fill="#666666">[tinyint(1)]</text>
</g>
<!-- environments&#45;&gt;applications -->
<g id="edge4" class="edge">
<title>environments:application_id&#45;&gt;applications:id</title>
<path fill="none" stroke="#000000" d="M1330.6959,-960.0227C1291.3867,-938.645 1301.7881,-785.0421 1287.5,-740 1268.3223,-679.5436 1297.9253,-607.5 1234.5,-607.5"/>
<polygon fill="#000000" stroke="#000000" points="1330.8047,-960.0501 1339.3976,-966.8629 1335.6524,-961.2751 1340.5,-962.5 1340.5,-962.5 1340.5,-962.5 1335.6524,-961.2751 1341.6024,-958.1371 1330.8047,-960.0501 1330.8047,-960.0501"/>
<text text-anchor="start" x="1125.102" y="-946.5" font-family="Arial" font-size="10.00" fill="#000000">FOREIGN KEY (application_id) REFERENCES applications (id)</text>
</g>
<!-- websites -->
<g id="node6" class="node">
<title>websites</title>
<polygon fill="#efefef" stroke="transparent" points="1663.5,-1022.5 1663.5,-1057.5 1844.5,-1057.5 1844.5,-1022.5 1663.5,-1022.5"/>
<polygon fill="none" stroke="#000000" points="1663.5,-1022.5 1663.5,-1057.5 1844.5,-1057.5 1844.5,-1022.5 1663.5,-1022.5"/>
<text text-anchor="start" x="1670.3685" y="-1035.3" font-family="Arial Bold" font-size="18.00" fill="#000000">websites</text>
<text text-anchor="start" x="1740.3777" y="-1035.3" font-family="Arial" font-size="14.00" fill="#000000"> </text>
<text text-anchor="start" x="1744.2683" y="-1035.3" font-family="Arial" font-size="14.00" fill="#666666">[BASE TABLE]</text>
<polygon fill="none" stroke="#000000" points="1663.5,-992.5 1663.5,-1022.5 1844.5,-1022.5 1844.5,-992.5 1663.5,-992.5"/>
<text text-anchor="start" x="1670.5" y="-1003.9" font-family="Arial" font-size="14.00" fill="#000000">id </text>
<text text-anchor="start" x="1685.2798" y="-1003.9" font-family="Arial" font-size="14.00" fill="#666666">[char(22)]</text>
<polygon fill="none" stroke="#000000" points="1663.5,-962.5 1663.5,-992.5 1844.5,-992.5 1844.5,-962.5 1663.5,-962.5"/>
<text text-anchor="start" x="1670.5" y="-973.9" font-family="Arial" font-size="14.00" fill="#000000">fqdn </text>
<text text-anchor="start" x="1701.629" y="-973.9" font-family="Arial" font-size="14.00" fill="#666666">[varchar(100)]</text>
<polygon fill="none" stroke="#000000" points="1663.5,-932.5 1663.5,-962.5 1844.5,-962.5 1844.5,-932.5 1663.5,-932.5"/>
<text text-anchor="start" x="1670.5" y="-943.9" font-family="Arial" font-size="14.00" fill="#000000">path_prefix </text>
<text text-anchor="start" x="1743.6346" y="-943.9" font-family="Arial" font-size="14.00" fill="#666666">[varchar(100)]</text>
<polygon fill="none" stroke="#000000" points="1663.5,-902.5 1663.5,-932.5 1844.5,-932.5 1844.5,-902.5 1663.5,-902.5"/>
<text text-anchor="start" x="1670.5" y="-913.9" font-family="Arial" font-size="14.00" fill="#000000">strip_prefix </text>
<text text-anchor="start" x="1742.8366" y="-913.9" font-family="Arial" font-size="14.00" fill="#666666">[tinyint(1)]</text>
<polygon fill="none" stroke="#000000" points="1663.5,-872.5 1663.5,-902.5 1844.5,-902.5 1844.5,-872.5 1663.5,-872.5"/>
<text text-anchor="start" x="1670.5" y="-883.9" font-family="Arial" font-size="14.00" fill="#000000">https </text>
<text text-anchor="start" x="1704.737" y="-883.9" font-family="Arial" font-size="14.00" fill="#666666">[tinyint(1)]</text>
<polygon fill="none" stroke="#000000" points="1663.5,-842.5 1663.5,-872.5 1844.5,-872.5 1844.5,-842.5 1663.5,-842.5"/>
<text text-anchor="start" x="1670.5" y="-853.9" font-family="Arial" font-size="14.00" fill="#000000">http_port </text>
<text text-anchor="start" x="1729.636" y="-853.9" font-family="Arial" font-size="14.00" fill="#666666">[int(11)]</text>
<polygon fill="none" stroke="#000000" points="1663.5,-812.5 1663.5,-842.5 1844.5,-842.5 1844.5,-812.5 1663.5,-812.5"/>
<text text-anchor="start" x="1670.5" y="-823.9" font-family="Arial" font-size="14.00" fill="#000000">application_id </text>
<text text-anchor="start" x="1759.9684" y="-823.9" font-family="Arial" font-size="14.00" fill="#666666">[char(22)]</text>
</g>
<!-- websites&#45;&gt;applications -->
<g id="edge5" class="edge">
<title>websites:application_id&#45;&gt;applications:id</title>
<path fill="none" stroke="#000000" d="M1653.3782,-826.253C1622.6479,-817.6107 1643.4889,-766.2022 1611.5,-740 1474.1051,-627.4593 1412.1028,-607.5 1234.5,-607.5"/>
<polygon fill="#000000" stroke="#000000" points="1653.575,-826.2771 1662.9497,-831.9662 1658.5375,-826.8886 1663.5,-827.5 1663.5,-827.5 1663.5,-827.5 1658.5375,-826.8886 1664.0503,-823.0338 1653.575,-826.2771 1653.575,-826.2771"/>
<text text-anchor="start" x="1374.102" y="-811.5" font-family="Arial" font-size="10.00" fill="#000000">FOREIGN KEY (application_id) REFERENCES applications (id)</text>
</g>
</g>
</svg>
