<?xml version="1.0" encoding="UTF-8" standalone="no"?>
<!DOCTYPE svg PUBLIC "-//W3C//DTD SVG 1.1//EN"
 "http://www.w3.org/Graphics/SVG/1.1/DTD/svg11.dtd">
<!-- Generated by graphviz version 2.40.1 (20161225.0304)
 -->
<!-- Title: artifacts Pages: 1 -->
<svg width="558pt" height="682pt"
 viewBox="0.00 0.00 558.00 682.00" xmlns="http://www.w3.org/2000/svg" xmlns:xlink="http://www.w3.org/1999/xlink">
<g id="graph0" class="graph" transform="scale(1 1) rotate(0) translate(4 678)">
<title>artifacts</title>
<polygon fill="#ffffff" stroke="transparent" points="-4,4 -4,-678 554,-678 554,4 -4,4"/>
<!-- artifacts -->
<g id="node1" class="node">
<title>artifacts</title>
<polygon fill="#efefef" stroke="transparent" points="188,-592.5 188,-627.5 362,-627.5 362,-592.5 188,-592.5"/>
<polygon fill="none" stroke="#000000" points="188,-592.5 188,-627.5 362,-627.5 362,-592.5 188,-592.5"/>
<text text-anchor="start" x="194.8704" y="-605.3" font-family="Arial Bold" font-size="18.00" fill="#000000">artifacts</text>
<text text-anchor="start" x="257.8758" y="-605.3" font-family="Arial" font-size="14.00" fill="#000000"> </text>
<text text-anchor="start" x="261.7664" y="-605.3" font-family="Arial" font-size="14.00" fill="#666666">[BASE TABLE]</text>
<polygon fill="none" stroke="#000000" points="188,-562.5 188,-592.5 362,-592.5 362,-562.5 188,-562.5"/>
<text text-anchor="start" x="195" y="-573.9" font-family="Arial" font-size="14.00" fill="#000000">id </text>
<text text-anchor="start" x="209.7798" y="-573.9" font-family="Arial" font-size="14.00" fill="#666666">[char(22)]</text>
<polygon fill="none" stroke="#000000" points="188,-532.5 188,-562.5 362,-562.5 362,-532.5 188,-532.5"/>
<text text-anchor="start" x="195" y="-543.9" font-family="Arial" font-size="14.00" fill="#000000">size </text>
<text text-anchor="start" x="223.7798" y="-543.9" font-family="Arial" font-size="14.00" fill="#666666">[bigint(20)]</text>
<polygon fill="none" stroke="#000000" points="188,-502.5 188,-532.5 362,-532.5 362,-502.5 188,-502.5"/>
<text text-anchor="start" x="195" y="-513.9" font-family="Arial" font-size="14.00" fill="#000000">created_at </text>
<text text-anchor="start" x="265.028" y="-513.9" font-family="Arial" font-size="14.00" fill="#666666">[datetime(6)]</text>
<polygon fill="none" stroke="#000000" points="188,-472.5 188,-502.5 362,-502.5 362,-472.5 188,-472.5"/>
<text text-anchor="start" x="195" y="-483.9" font-family="Arial" font-size="14.00" fill="#000000">deleted_at </text>
<text text-anchor="start" x="264.2566" y="-483.9" font-family="Arial" font-size="14.00" fill="#666666">[datetime(6)]</text>
<polygon fill="none" stroke="#000000" points="188,-442.5 188,-472.5 362,-472.5 362,-442.5 188,-442.5"/>
<text text-anchor="start" x="195" y="-453.9" font-family="Arial" font-size="14.00" fill="#000000">build_id </text>
<text text-anchor="start" x="247.1234" y="-453.9" font-family="Arial" font-size="14.00" fill="#666666">[varchar(22)]</text>
<polygon fill="none" stroke="#000000" stroke-width="3" points="186.5,-441.5 186.5,-629.5 363.5,-629.5 363.5,-441.5 186.5,-441.5"/>
</g>
<!-- builds -->
<g id="node2" class="node">
<title>builds</title>
<polygon fill="#efefef" stroke="transparent" points="43,-282.5 43,-317.5 507,-317.5 507,-282.5 43,-282.5"/>
<polygon fill="none" stroke="#000000" points="43,-282.5 43,-317.5 507,-317.5 507,-282.5 43,-282.5"/>
<text text-anchor="start" x="202.8696" y="-295.3" font-family="Arial Bold" font-size="18.00" fill="#000000">builds</text>
<text text-anchor="start" x="249.8766" y="-295.3" font-family="Arial" font-size="14.00" fill="#000000"> </text>
<text text-anchor="start" x="253.7672" y="-295.3" font-family="Arial" font-size="14.00" fill="#666666">[BASE TABLE]</text>
<polygon fill="none" stroke="#000000" points="43,-252.5 43,-282.5 507,-282.5 507,-252.5 43,-252.5"/>
<text text-anchor="start" x="50" y="-263.9" font-family="Arial" font-size="14.00" fill="#000000">id </text>
<text text-anchor="start" x="64.7798" y="-263.9" font-family="Arial" font-size="14.00" fill="#666666">[char(22)]</text>
<polygon fill="none" stroke="#000000" points="43,-222.5 43,-252.5 507,-252.5 507,-222.5 43,-222.5"/>
<text text-anchor="start" x="50" y="-233.9" font-family="Arial" font-size="14.00" fill="#000000">commit </text>
<text text-anchor="start" x="98.9916" y="-233.9" font-family="Arial" font-size="14.00" fill="#666666">[char(40)]</text>
<polygon fill="none" stroke="#000000" points="43,-192.5 43,-222.5 507,-222.5 507,-192.5 43,-192.5"/>
<text text-anchor="start" x="49.8779" y="-203.9" font-family="Arial" font-size="14.00" fill="#000000">status </text>
<text text-anchor="start" x="91.1149" y="-203.9" font-family="Arial" font-size="14.00" fill="#666666">[enum(&#39;building&#39;,&#39;succeeded&#39;,&#39;failed&#39;,&#39;canceled&#39;,&#39;queued&#39;,&#39;skipped&#39;)]</text>
<polygon fill="none" stroke="#000000" points="43,-162.5 43,-192.5 507,-192.5 507,-162.5 43,-162.5"/>
<text text-anchor="start" x="50" y="-173.9" font-family="Arial" font-size="14.00" fill="#000000">started_at </text>
<text text-anchor="start" x="116.136" y="-173.9" font-family="Arial" font-size="14.00" fill="#666666">[datetime(6)]</text>
<polygon fill="none" stroke="#000000" points="43,-132.5 43,-162.5 507,-162.5 507,-132.5 43,-132.5"/>
<text text-anchor="start" x="50" y="-143.9" font-family="Arial" font-size="14.00" fill="#000000">updated_at </text>
<text text-anchor="start" x="123.9326" y="-143.9" font-family="Arial" font-size="14.00" fill="#666666">[datetime(6)]</text>
<polygon fill="none" stroke="#000000" points="43,-102.5 43,-132.5 507,-132.5 507,-102.5 43,-102.5"/>
<text text-anchor="start" x="50" y="-113.9" font-family="Arial" font-size="14.00" fill="#000000">finished_at </text>
<text text-anchor="start" x="121.5806" y="-113.9" font-family="Arial" font-size="14.00" fill="#666666">[datetime(6)]</text>
<polygon fill="none" stroke="#000000" points="43,-72.5 43,-102.5 507,-102.5 507,-72.5 43,-72.5"/>
<text text-anchor="start" x="50" y="-83.9" font-family="Arial" font-size="14.00" fill="#000000">retriable </text>
<text text-anchor="start" x="104.446" y="-83.9" font-family="Arial" font-size="14.00" fill="#666666">[tinyint(1)]</text>
<polygon fill="none" stroke="#000000" points="43,-42.5 43,-72.5 507,-72.5 507,-42.5 43,-42.5"/>
<text text-anchor="start" x="50" y="-53.9" font-family="Arial" font-size="14.00" fill="#000000">application_id </text>
<text text-anchor="start" x="139.4684" y="-53.9" font-family="Arial" font-size="14.00" fill="#666666">[char(22)]</text>
</g>
<!-- artifacts&#45;&gt;builds -->
<g id="edge1" class="edge">
<title>artifacts:build_id&#45;&gt;builds:id</title>
<path fill="none" stroke="#000000" d="M275.5483,-432.3463C286.0938,-340.7511 445.9107,-447.2094 507,-361 531.0262,-327.0942 548.5556,-267.5 507,-267.5"/>
<polygon fill="#000000" stroke="#000000" points="275.5393,-432.5145 270.5065,-442.2573 275.2696,-437.5073 275,-442.5 275,-442.5 275,-442.5 275.2696,-437.5073 279.4935,-442.7427 275.5393,-432.5145 275.5393,-432.5145"/>
<text text-anchor="start" x="39.277" y="-452.5" font-family="Arial" font-size="10.00" fill="#000000">FOREIGN KEY (build_id) REFERENCES builds (id)</text>
</g>
</g>
</svg>
