<?xml version="1.0" encoding="UTF-8" standalone="no"?>
<!DOCTYPE svg PUBLIC "-//W3C//DTD SVG 1.1//EN"
        "http://www.w3.org/Graphics/SVG/1.1/DTD/svg11.dtd">
<!-- Generated by graphviz version 2.40.1 (20161225.0304)
 -->
<!-- Title: artifacts Pages: 1 -->
<svg width="547pt" height="809pt"
     viewBox="0.00 0.00 546.50 809.00" xmlns="http://www.w3.org/2000/svg" xmlns:xlink="http://www.w3.org/1999/xlink">
    <g id="graph0" class="graph" transform="scale(1 1) rotate(0) translate(4 805)">
        <title>artifacts</title>
        <polygon fill="#ffffff" stroke="transparent" points="-4,4 -4,-805 542.5,-805 542.5,4 -4,4"/>
        <!-- artifacts -->
        <g id="node1" class="node">
            <title>artifacts</title>
            <polygon fill="#efefef" stroke="transparent"
                     points="83.5,-502.5 83.5,-537.5 257.5,-537.5 257.5,-502.5 83.5,-502.5"/>
            <polygon fill="none" stroke="#000000"
                     points="83.5,-502.5 83.5,-537.5 257.5,-537.5 257.5,-502.5 83.5,-502.5"/>
            <text text-anchor="start" x="90.3704" y="-515.3" font-family="Arial Bold" font-size="18.00" fill="#000000">
                artifacts
            </text>
            <text text-anchor="start" x="153.3758" y="-515.3" font-family="Arial" font-size="14.00"
                  fill="#000000"></text>
            <text text-anchor="start" x="157.2664" y="-515.3" font-family="Arial" font-size="14.00" fill="#666666">[BASE
                TABLE]
            </text>
            <polygon fill="none" stroke="#000000"
                     points="83.5,-472.5 83.5,-502.5 257.5,-502.5 257.5,-472.5 83.5,-472.5"/>
            <text text-anchor="start" x="90.5" y="-483.9" font-family="Arial" font-size="14.00" fill="#000000">id</text>
            <text text-anchor="start" x="105.2798" y="-483.9" font-family="Arial" font-size="14.00" fill="#666666">
                [varchar(22)]
            </text>
            <polygon fill="none" stroke="#000000"
                     points="83.5,-442.5 83.5,-472.5 257.5,-472.5 257.5,-442.5 83.5,-442.5"/>
            <text text-anchor="start" x="90.5" y="-453.9" font-family="Arial" font-size="14.00" fill="#000000">
                build_log_id
            </text>
            <text text-anchor="start" x="169.0778" y="-453.9" font-family="Arial" font-size="14.00" fill="#666666">
                [varchar(22)]
            </text>
            <polygon fill="none" stroke="#000000"
                     points="83.5,-412.5 83.5,-442.5 257.5,-442.5 257.5,-412.5 83.5,-412.5"/>
            <text text-anchor="start" x="90.5" y="-423.9" font-family="Arial" font-size="14.00" fill="#000000">size
            </text>
            <text text-anchor="start" x="119.2798" y="-423.9" font-family="Arial" font-size="14.00" fill="#666666">
                [bigint(20)]
            </text>
            <polygon fill="none" stroke="#000000"
                     points="83.5,-382.5 83.5,-412.5 257.5,-412.5 257.5,-382.5 83.5,-382.5"/>
            <text text-anchor="start" x="90.5" y="-393.9" font-family="Arial" font-size="14.00" fill="#000000">
                created_at
            </text>
            <text text-anchor="start" x="160.528" y="-393.9" font-family="Arial" font-size="14.00" fill="#666666">
                [datetime(6)]
            </text>
            <polygon fill="none" stroke="#000000"
                     points="83.5,-352.5 83.5,-382.5 257.5,-382.5 257.5,-352.5 83.5,-352.5"/>
            <text text-anchor="start" x="90.5" y="-363.9" font-family="Arial" font-size="14.00" fill="#000000">
                deleted_at
            </text>
            <text text-anchor="start" x="159.7566" y="-363.9" font-family="Arial" font-size="14.00" fill="#666666">
                [datetime(6)]
            </text>
            <polygon fill="none" stroke="#000000" stroke-width="3"
                     points="82,-351.5 82,-539.5 259,-539.5 259,-351.5 82,-351.5"/>
        </g>
        <!-- build_logs -->
        <g id="node3" class="node">
            <title>build_logs</title>
            <polygon fill="#efefef" stroke="transparent"
                     points="74.5,-192.5 74.5,-227.5 266.5,-227.5 266.5,-192.5 74.5,-192.5"/>
            <polygon fill="none" stroke="#000000"
                     points="74.5,-192.5 74.5,-227.5 266.5,-227.5 266.5,-192.5 74.5,-192.5"/>
            <text text-anchor="start" x="81.3632" y="-205.3" font-family="Arial Bold" font-size="18.00" fill="#000000">
                build_logs
            </text>
            <text text-anchor="start" x="162.383" y="-205.3" font-family="Arial" font-size="14.00"
                  fill="#000000"></text>
            <text text-anchor="start" x="166.2736" y="-205.3" font-family="Arial" font-size="14.00" fill="#666666">[BASE
                TABLE]
            </text>
            <polygon fill="none" stroke="#000000"
                     points="74.5,-162.5 74.5,-192.5 266.5,-192.5 266.5,-162.5 74.5,-162.5"/>
            <text text-anchor="start" x="81.5" y="-173.9" font-family="Arial" font-size="14.00" fill="#000000">id</text>
            <text text-anchor="start" x="96.2798" y="-173.9" font-family="Arial" font-size="14.00" fill="#666666">
                [varchar(22)]
            </text>
            <polygon fill="none" stroke="#000000"
                     points="74.5,-132.5 74.5,-162.5 266.5,-162.5 266.5,-132.5 74.5,-132.5"/>
            <text text-anchor="start" x="81.5" y="-143.9" font-family="Arial" font-size="14.00" fill="#000000">
                application_id
            </text>
            <text text-anchor="start" x="170.9684" y="-143.9" font-family="Arial" font-size="14.00" fill="#666666">
                [varchar(22)]
            </text>
            <polygon fill="none" stroke="#000000"
                     points="74.5,-102.5 74.5,-132.5 266.5,-132.5 266.5,-102.5 74.5,-102.5"/>
            <text text-anchor="start" x="81.5" y="-113.9" font-family="Arial" font-size="14.00" fill="#000000">result
            </text>
            <text text-anchor="start" x="119.6136" y="-113.9" font-family="Arial" font-size="14.00" fill="#666666">
                [varchar(20)]
            </text>
            <polygon fill="none" stroke="#000000" points="74.5,-72.5 74.5,-102.5 266.5,-102.5 266.5,-72.5 74.5,-72.5"/>
            <text text-anchor="start" x="81.5" y="-83.9" font-family="Arial" font-size="14.00" fill="#000000">
                started_at
            </text>
            <text text-anchor="start" x="147.636" y="-83.9" font-family="Arial" font-size="14.00" fill="#666666">
                [datetime(6)]
            </text>
            <polygon fill="none" stroke="#000000" points="74.5,-42.5 74.5,-72.5 266.5,-72.5 266.5,-42.5 74.5,-42.5"/>
            <text text-anchor="start" x="81.5" y="-53.9" font-family="Arial" font-size="14.00" fill="#000000">
                finished_at
            </text>
            <text text-anchor="start" x="153.0806" y="-53.9" font-family="Arial" font-size="14.00" fill="#666666">
                [datetime(6)]
            </text>
        </g>
        <!-- artifacts&#45;&gt;build_logs -->
        <g id="edge2" class="edge">
            <title>artifacts:build_log_id&#45;&gt;build_logs:id</title>
            <path fill="none" stroke="#000000" d="M267.8,-456.839C382.4114,-441.8652 387.4826,-177.5 266.5,-177.5"/>
            <polygon fill="#000000" stroke="#000000"
                     points="267.4795,-456.8595 257.2118,-453.0092 262.4897,-457.1797 257.5,-457.5 257.5,-457.5 257.5,-457.5 262.4897,-457.1797 257.7882,-461.9908 267.4795,-456.8595 267.4795,-456.8595"/>
            <text text-anchor="start" x="264.881" y="-467.5" font-family="Arial" font-size="10.00" fill="#000000">
                FOREIGN KEY (build_log_id) REFERENCES build_logs (id)
            </text>
        </g>
        <!-- static_site_details -->
        <g id="node2" class="node">
            <title>static_site_details</title>
            <polygon fill="#efefef" stroke="transparent"
                     points="43.5,-722.5 43.5,-757.5 296.5,-757.5 296.5,-722.5 43.5,-722.5"/>
            <polygon fill="none" stroke="#000000"
                     points="43.5,-722.5 43.5,-757.5 296.5,-757.5 296.5,-722.5 43.5,-722.5"/>
            <text text-anchor="start" x="50.3586" y="-735.3" font-family="Arial Bold" font-size="18.00" fill="#000000">
                static_site_details
            </text>
            <text text-anchor="start" x="192.3876" y="-735.3" font-family="Arial" font-size="14.00"
                  fill="#000000"></text>
            <text text-anchor="start" x="196.2782" y="-735.3" font-family="Arial" font-size="14.00" fill="#666666">[BASE
                TABLE]
            </text>
            <polygon fill="none" stroke="#000000"
                     points="43.5,-692.5 43.5,-722.5 296.5,-722.5 296.5,-692.5 43.5,-692.5"/>
            <text text-anchor="start" x="50.5" y="-703.9" font-family="Arial" font-size="14.00" fill="#000000">site_id
            </text>
            <text text-anchor="start" x="94.8422" y="-703.9" font-family="Arial" font-size="14.00" fill="#666666">
                [varchar(22)]
            </text>
            <polygon fill="none" stroke="#000000"
                     points="43.5,-662.5 43.5,-692.5 296.5,-692.5 296.5,-662.5 43.5,-662.5"/>
            <text text-anchor="start" x="50.5" y="-673.9" font-family="Arial" font-size="14.00" fill="#000000">
                artifact_id
            </text>
            <text text-anchor="start" x="115.0666" y="-673.9" font-family="Arial" font-size="14.00" fill="#666666">
                [varchar(22)]
            </text>
        </g>
        <!-- static_site_details&#45;&gt;artifacts -->
        <g id="edge1" class="edge">
            <title>static_site_details:artifact_id&#45;&gt;artifacts:id</title>
            <path fill="none" stroke="#000000"
                  d="M169.4571,-652.0564C160.9727,-613.1833 103.0877,-628.0567 83.5,-584 66.076,-544.8099 40.6111,-487.5 83.5,-487.5"/>
            <polygon fill="#000000" stroke="#000000"
                     points="169.5063,-652.5495 166.0223,-662.9472 170.0031,-657.5247 170.5,-662.5 170.5,-662.5 170.5,-662.5 170.0031,-657.5247 174.9777,-662.0528 169.5063,-652.5495 169.5063,-652.5495"/>
            <text text-anchor="start" x="177.889" y="-672.5" font-family="Arial" font-size="10.00" fill="#000000">
                FOREIGN KEY (artifact_id) REFERENCES artifacts (id)
            </text>
        </g>
    </g>
</svg>
