<?xml version="1.0" encoding="UTF-8" standalone="no"?>
<!DOCTYPE svg PUBLIC "-//W3C//DTD SVG 1.1//EN"
        "http://www.w3.org/Graphics/SVG/1.1/DTD/svg11.dtd">
<!-- Generated by graphviz version 2.40.1 (20161225.0304)
 -->
<!-- Title: artifacts Pages: 1 -->
<svg width="637pt" height="809pt"
     viewBox="0.00 0.00 637.00 809.00" xmlns="http://www.w3.org/2000/svg" xmlns:xlink="http://www.w3.org/1999/xlink">
    <g id="graph0" class="graph" transform="scale(1 1) rotate(0) translate(4 805)">
        <title>artifacts</title>
        <polygon fill="#ffffff" stroke="transparent" points="-4,4 -4,-805 633,-805 633,4 -4,4"/>
        <!-- artifacts -->
        <g id="node1" class="node">
            <title>artifacts</title>
            <polygon fill="#efefef" stroke="transparent"
                     points="281,-502.5 281,-537.5 455,-537.5 455,-502.5 281,-502.5"/>
            <polygon fill="none" stroke="#000000" points="281,-502.5 281,-537.5 455,-537.5 455,-502.5 281,-502.5"/>
            <text text-anchor="start" x="287.8704" y="-515.3" font-family="Arial Bold" font-size="18.00" fill="#000000">
                artifacts
            </text>
            <text text-anchor="start" x="350.8758" y="-515.3" font-family="Arial" font-size="14.00"
                  fill="#000000"></text>
            <text text-anchor="start" x="354.7664" y="-515.3" font-family="Arial" font-size="14.00" fill="#666666">[BASE
                TABLE]
            </text>
            <polygon fill="none" stroke="#000000" points="281,-472.5 281,-502.5 455,-502.5 455,-472.5 281,-472.5"/>
            <text text-anchor="start" x="288" y="-483.9" font-family="Arial" font-size="14.00" fill="#000000">id</text>
            <text text-anchor="start" x="302.7798" y="-483.9" font-family="Arial" font-size="14.00" fill="#666666">
                [varchar(22)]
            </text>
            <polygon fill="none" stroke="#000000" points="281,-442.5 281,-472.5 455,-472.5 455,-442.5 281,-442.5"/>
            <text text-anchor="start" x="288" y="-453.9" font-family="Arial" font-size="14.00" fill="#000000">
                build_log_id
            </text>
            <text text-anchor="start" x="366.5778" y="-453.9" font-family="Arial" font-size="14.00" fill="#666666">
                [varchar(22)]
            </text>
            <polygon fill="none" stroke="#000000" points="281,-412.5 281,-442.5 455,-442.5 455,-412.5 281,-412.5"/>
            <text text-anchor="start" x="288" y="-423.9" font-family="Arial" font-size="14.00" fill="#000000">size
            </text>
            <text text-anchor="start" x="316.7798" y="-423.9" font-family="Arial" font-size="14.00" fill="#666666">
                [bigint(20)]
            </text>
            <polygon fill="none" stroke="#000000" points="281,-382.5 281,-412.5 455,-412.5 455,-382.5 281,-382.5"/>
            <text text-anchor="start" x="288" y="-393.9" font-family="Arial" font-size="14.00" fill="#000000">
                created_at
            </text>
            <text text-anchor="start" x="358.028" y="-393.9" font-family="Arial" font-size="14.00" fill="#666666">
                [datetime(6)]
            </text>
            <polygon fill="none" stroke="#000000" points="281,-352.5 281,-382.5 455,-382.5 455,-352.5 281,-352.5"/>
            <text text-anchor="start" x="288" y="-363.9" font-family="Arial" font-size="14.00" fill="#000000">
                deleted_at
            </text>
            <text text-anchor="start" x="357.2566" y="-363.9" font-family="Arial" font-size="14.00" fill="#666666">
                [datetime(6)]
            </text>
            <polygon fill="none" stroke="#000000" stroke-width="3"
                     points="279.5,-351.5 279.5,-539.5 456.5,-539.5 456.5,-351.5 279.5,-351.5"/>
        </g>
        <!-- build_logs -->
        <g id="node3" class="node">
            <title>build_logs</title>
            <polygon fill="#efefef" stroke="transparent"
                     points="158,-192.5 158,-227.5 577,-227.5 577,-192.5 158,-192.5"/>
            <polygon fill="none" stroke="#000000" points="158,-192.5 158,-227.5 577,-227.5 577,-192.5 158,-192.5"/>
            <text text-anchor="start" x="278.3632" y="-205.3" font-family="Arial Bold" font-size="18.00" fill="#000000">
                build_logs
            </text>
            <text text-anchor="start" x="359.383" y="-205.3" font-family="Arial" font-size="14.00"
                  fill="#000000"></text>
            <text text-anchor="start" x="363.2736" y="-205.3" font-family="Arial" font-size="14.00" fill="#666666">[BASE
                TABLE]
            </text>
            <polygon fill="none" stroke="#000000" points="158,-162.5 158,-192.5 577,-192.5 577,-162.5 158,-162.5"/>
            <text text-anchor="start" x="165" y="-173.9" font-family="Arial" font-size="14.00" fill="#000000">id</text>
            <text text-anchor="start" x="179.7798" y="-173.9" font-family="Arial" font-size="14.00" fill="#666666">
                [varchar(22)]
            </text>
            <polygon fill="none" stroke="#000000" points="158,-132.5 158,-162.5 577,-162.5 577,-132.5 158,-132.5"/>
            <text text-anchor="start" x="165" y="-143.9" font-family="Arial" font-size="14.00" fill="#000000">
                application_id
            </text>
            <text text-anchor="start" x="254.4684" y="-143.9" font-family="Arial" font-size="14.00" fill="#666666">
                [varchar(22)]
            </text>
            <polygon fill="none" stroke="#000000" points="158,-102.5 158,-132.5 577,-132.5 577,-102.5 158,-102.5"/>
            <text text-anchor="start" x="164.5742" y="-113.9" font-family="Arial" font-size="14.00" fill="#000000">
                result
            </text>
            <text text-anchor="start" x="202.6878" y="-113.9" font-family="Arial" font-size="14.00" fill="#666666">
                [enum(&#39;BUILDING&#39;,&#39;SUCCEEDED&#39;,&#39;FAILED&#39;,&#39;CANCELED&#39;)]
            </text>
            <polygon fill="none" stroke="#000000" points="158,-72.5 158,-102.5 577,-102.5 577,-72.5 158,-72.5"/>
            <text text-anchor="start" x="165" y="-83.9" font-family="Arial" font-size="14.00" fill="#000000">
                started_at
            </text>
            <text text-anchor="start" x="231.136" y="-83.9" font-family="Arial" font-size="14.00" fill="#666666">
                [datetime(6)]
            </text>
            <polygon fill="none" stroke="#000000" points="158,-42.5 158,-72.5 577,-72.5 577,-42.5 158,-42.5"/>
            <text text-anchor="start" x="165" y="-53.9" font-family="Arial" font-size="14.00" fill="#000000">
                finished_at
            </text>
            <text text-anchor="start" x="236.5806" y="-53.9" font-family="Arial" font-size="14.00" fill="#666666">
                [datetime(6)]
            </text>
        </g>
        <!-- artifacts&#45;&gt;build_logs -->
        <g id="edge2" class="edge">
            <title>artifacts:build_log_id&#45;&gt;build_logs:id</title>
            <path fill="none" stroke="#000000"
                  d="M270.8173,-456.6236C216.6415,-446.6662 239.0748,-354.3331 281,-307 368.8705,-207.795 489.1295,-370.205 577,-271 604.5534,-239.8925 618.5556,-177.5 577,-177.5"/>
            <polygon fill="#000000" stroke="#000000"
                     points="271.0368,-456.6424 280.6141,-461.9834 276.0184,-457.0712 281,-457.5 281,-457.5 281,-457.5 276.0184,-457.0712 281.3859,-453.0166 271.0368,-456.6424 271.0368,-456.6424"/>
            <text text-anchor="start" x="7.381" y="-467.5" font-family="Arial" font-size="10.00" fill="#000000">FOREIGN
                KEY (build_log_id) REFERENCES build_logs (id)
            </text>
        </g>
        <!-- static_site_details -->
        <g id="node2" class="node">
            <title>static_site_details</title>
            <polygon fill="#efefef" stroke="transparent"
                     points="241,-722.5 241,-757.5 494,-757.5 494,-722.5 241,-722.5"/>
            <polygon fill="none" stroke="#000000" points="241,-722.5 241,-757.5 494,-757.5 494,-722.5 241,-722.5"/>
            <text text-anchor="start" x="247.8586" y="-735.3" font-family="Arial Bold" font-size="18.00" fill="#000000">
                static_site_details
            </text>
            <text text-anchor="start" x="389.8876" y="-735.3" font-family="Arial" font-size="14.00"
                  fill="#000000"></text>
            <text text-anchor="start" x="393.7782" y="-735.3" font-family="Arial" font-size="14.00" fill="#666666">[BASE
                TABLE]
            </text>
            <polygon fill="none" stroke="#000000" points="241,-692.5 241,-722.5 494,-722.5 494,-692.5 241,-692.5"/>
            <text text-anchor="start" x="248" y="-703.9" font-family="Arial" font-size="14.00" fill="#000000">site_id
            </text>
            <text text-anchor="start" x="292.3422" y="-703.9" font-family="Arial" font-size="14.00" fill="#666666">
                [varchar(22)]
            </text>
            <polygon fill="none" stroke="#000000" points="241,-662.5 241,-692.5 494,-692.5 494,-662.5 241,-662.5"/>
            <text text-anchor="start" x="248" y="-673.9" font-family="Arial" font-size="14.00" fill="#000000">
                artifact_id
            </text>
            <text text-anchor="start" x="312.5666" y="-673.9" font-family="Arial" font-size="14.00" fill="#666666">
                [varchar(22)]
            </text>
        </g>
        <!-- static_site_details&#45;&gt;artifacts -->
        <g id="edge1" class="edge">
            <title>static_site_details:artifact_id&#45;&gt;artifacts:id</title>
            <path fill="none" stroke="#000000"
                  d="M366.9571,-652.0564C358.4727,-613.1833 300.5877,-628.0567 281,-584 263.576,-544.8099 238.1111,-487.5 281,-487.5"/>
            <polygon fill="#000000" stroke="#000000"
                     points="367.0063,-652.5495 363.5223,-662.9472 367.5031,-657.5247 368,-662.5 368,-662.5 368,-662.5 367.5031,-657.5247 372.4777,-662.0528 367.0063,-652.5495 367.0063,-652.5495"/>
            <text text-anchor="start" x="375.389" y="-672.5" font-family="Arial" font-size="10.00" fill="#000000">
                FOREIGN KEY (artifact_id) REFERENCES artifacts (id)
            </text>
        </g>
    </g>
</svg>
