<?xml version="1.0" encoding="UTF-8" standalone="no"?>
<!DOCTYPE svg PUBLIC "-//W3C//DTD SVG 1.1//EN"
 "http://www.w3.org/Graphics/SVG/1.1/DTD/svg11.dtd">
<!-- Generated by graphviz version 2.40.1 (20161225.0304)
 -->
<!-- Title: artifacts Pages: 1 -->
<svg width="384pt" height="682pt"
 viewBox="0.00 0.00 384.00 682.00" xmlns="http://www.w3.org/2000/svg" xmlns:xlink="http://www.w3.org/1999/xlink">
<g id="graph0" class="graph" transform="scale(1 1) rotate(0) translate(4 678)">
<title>artifacts</title>
<polygon fill="#ffffff" stroke="transparent" points="-4,4 -4,-678 380,-678 380,4 -4,4"/>
<!-- artifacts -->
<g id="node1" class="node">
<title>artifacts</title>
<polygon fill="#efefef" stroke="transparent" points="156,-592.5 156,-627.5 330,-627.5 330,-592.5 156,-592.5"/>
<polygon fill="none" stroke="#000000" points="156,-592.5 156,-627.5 330,-627.5 330,-592.5 156,-592.5"/>
<text text-anchor="start" x="162.8704" y="-605.3" font-family="Arial Bold" font-size="18.00" fill="#000000">artifacts</text>
<text text-anchor="start" x="225.8758" y="-605.3" font-family="Arial" font-size="14.00" fill="#000000"> </text>
<text text-anchor="start" x="229.7664" y="-605.3" font-family="Arial" font-size="14.00" fill="#666666">[BASE TABLE]</text>
<polygon fill="none" stroke="#000000" points="156,-562.5 156,-592.5 330,-592.5 330,-562.5 156,-562.5"/>
<text text-anchor="start" x="163" y="-573.9" font-family="Arial" font-size="14.00" fill="#000000">id </text>
<text text-anchor="start" x="177.7798" y="-573.9" font-family="Arial" font-size="14.00" fill="#666666">[char(22)]</text>
<polygon fill="none" stroke="#000000" points="156,-532.5 156,-562.5 330,-562.5 330,-532.5 156,-532.5"/>
<text text-anchor="start" x="163" y="-543.9" font-family="Arial" font-size="14.00" fill="#000000">size </text>
<text text-anchor="start" x="191.7798" y="-543.9" font-family="Arial" font-size="14.00" fill="#666666">[bigint(20)]</text>
<polygon fill="none" stroke="#000000" points="156,-502.5 156,-532.5 330,-532.5 330,-502.5 156,-502.5"/>
<text text-anchor="start" x="163" y="-513.9" font-family="Arial" font-size="14.00" fill="#000000">created_at </text>
<text text-anchor="start" x="233.028" y="-513.9" font-family="Arial" font-size="14.00" fill="#666666">[datetime(6)]</text>
<polygon fill="none" stroke="#000000" points="156,-472.5 156,-502.5 330,-502.5 330,-472.5 156,-472.5"/>
<text text-anchor="start" x="163" y="-483.9" font-family="Arial" font-size="14.00" fill="#000000">deleted_at </text>
<text text-anchor="start" x="232.2566" y="-483.9" font-family="Arial" font-size="14.00" fill="#666666">[datetime(6)]</text>
<polygon fill="none" stroke="#000000" points="156,-442.5 156,-472.5 330,-472.5 330,-442.5 156,-442.5"/>
<text text-anchor="start" x="163" y="-453.9" font-family="Arial" font-size="14.00" fill="#000000">build_id </text>
<text text-anchor="start" x="215.1234" y="-453.9" font-family="Arial" font-size="14.00" fill="#666666">[varchar(22)]</text>
<polygon fill="none" stroke="#000000" stroke-width="3" points="154.5,-441.5 154.5,-629.5 331.5,-629.5 331.5,-441.5 154.5,-441.5"/>
</g>
<!-- builds -->
<g id="node2" class="node">
<title>builds</title>
<polygon fill="#efefef" stroke="transparent" points="160,-282.5 160,-317.5 326,-317.5 326,-282.5 160,-282.5"/>
<polygon fill="none" stroke="#000000" points="160,-282.5 160,-317.5 326,-317.5 326,-282.5 160,-282.5"/>
<text text-anchor="start" x="170.8696" y="-295.3" font-family="Arial Bold" font-size="18.00" fill="#000000">builds</text>
<text text-anchor="start" x="217.8766" y="-295.3" font-family="Arial" font-size="14.00" fill="#000000"> </text>
<text text-anchor="start" x="221.7672" y="-295.3" font-family="Arial" font-size="14.00" fill="#666666">[BASE TABLE]</text>
<polygon fill="none" stroke="#000000" points="160,-252.5 160,-282.5 326,-282.5 326,-252.5 160,-252.5"/>
<text text-anchor="start" x="167" y="-263.9" font-family="Arial" font-size="14.00" fill="#000000">id </text>
<text text-anchor="start" x="181.7798" y="-263.9" font-family="Arial" font-size="14.00" fill="#666666">[char(22)]</text>
<polygon fill="none" stroke="#000000" points="160,-222.5 160,-252.5 326,-252.5 326,-222.5 160,-222.5"/>
<text text-anchor="start" x="167" y="-233.9" font-family="Arial" font-size="14.00" fill="#000000">commit </text>
<text text-anchor="start" x="215.9916" y="-233.9" font-family="Arial" font-size="14.00" fill="#666666">[char(40)]</text>
<polygon fill="none" stroke="#000000" points="160,-192.5 160,-222.5 326,-222.5 326,-192.5 160,-192.5"/>
<text text-anchor="start" x="167" y="-203.9" font-family="Arial" font-size="14.00" fill="#000000">status </text>
<text text-anchor="start" x="208.237" y="-203.9" font-family="Arial" font-size="14.00" fill="#666666">[varchar(10)]</text>
<polygon fill="none" stroke="#000000" points="160,-162.5 160,-192.5 326,-192.5 326,-162.5 160,-162.5"/>
<text text-anchor="start" x="167" y="-173.9" font-family="Arial" font-size="14.00" fill="#000000">started_at </text>
<text text-anchor="start" x="233.136" y="-173.9" font-family="Arial" font-size="14.00" fill="#666666">[datetime(6)]</text>
<polygon fill="none" stroke="#000000" points="160,-132.5 160,-162.5 326,-162.5 326,-132.5 160,-132.5"/>
<text text-anchor="start" x="166.7518" y="-143.9" font-family="Arial" font-size="14.00" fill="#000000">updated_at </text>
<text text-anchor="start" x="240.6844" y="-143.9" font-family="Arial" font-size="14.00" fill="#666666">[datetime(6)]</text>
<polygon fill="none" stroke="#000000" points="160,-102.5 160,-132.5 326,-132.5 326,-102.5 160,-102.5"/>
<text text-anchor="start" x="167" y="-113.9" font-family="Arial" font-size="14.00" fill="#000000">finished_at </text>
<text text-anchor="start" x="238.5806" y="-113.9" font-family="Arial" font-size="14.00" fill="#666666">[datetime(6)]</text>
<polygon fill="none" stroke="#000000" points="160,-72.5 160,-102.5 326,-102.5 326,-72.5 160,-72.5"/>
<text text-anchor="start" x="167" y="-83.9" font-family="Arial" font-size="14.00" fill="#000000">retriable </text>
<text text-anchor="start" x="221.446" y="-83.9" font-family="Arial" font-size="14.00" fill="#666666">[tinyint(1)]</text>
<polygon fill="none" stroke="#000000" points="160,-42.5 160,-72.5 326,-72.5 326,-42.5 160,-42.5"/>
<text text-anchor="start" x="167" y="-53.9" font-family="Arial" font-size="14.00" fill="#000000">application_id </text>
<text text-anchor="start" x="256.4684" y="-53.9" font-family="Arial" font-size="14.00" fill="#666666">[char(22)]</text>
</g>
<!-- artifacts&#45;&gt;builds -->
<g id="edge1" class="edge">
<title>artifacts:build_id&#45;&gt;builds:id</title>
<path fill="none" stroke="#000000" d="M243.9977,-432.0832C252.1144,-393.0924 307.4824,-405.1352 326,-361 342.0775,-322.6806 367.5556,-267.5 326,-267.5"/>
<polygon fill="#000000" stroke="#000000" points="243.9535,-432.5456 238.5205,-442.0709 243.4768,-437.5228 243,-442.5 243,-442.5 243,-442.5 243.4768,-437.5228 247.4795,-442.9291 243.9535,-432.5456 243.9535,-432.5456"/>
<text text-anchor="start" x="7.277" y="-452.5" font-family="Arial" font-size="10.00" fill="#000000">FOREIGN KEY (build_id) REFERENCES builds (id)</text>
</g>
</g>
</svg>
