<?xml version="1.0" encoding="UTF-8" standalone="no"?>
<!DOCTYPE svg PUBLIC "-//W3C//DTD SVG 1.1//EN"
 "http://www.w3.org/Graphics/SVG/1.1/DTD/svg11.dtd">
<!-- Generated by graphviz version 2.40.1 (20161225.0304)
 -->
<!-- Title: artifacts Pages: 1 -->
<svg width="515pt" height="592pt"
 viewBox="0.00 0.00 515.00 592.00" xmlns="http://www.w3.org/2000/svg" xmlns:xlink="http://www.w3.org/1999/xlink">
<g id="graph0" class="graph" transform="scale(1 1) rotate(0) translate(4 588)">
<title>artifacts</title>
<polygon fill="#ffffff" stroke="transparent" points="-4,4 -4,-588 511,-588 511,4 -4,4"/>
<!-- artifacts -->
<g id="node1" class="node">
<title>artifacts</title>
<polygon fill="#efefef" stroke="transparent" points="52,-502.5 52,-537.5 226,-537.5 226,-502.5 52,-502.5"/>
<polygon fill="none" stroke="#000000" points="52,-502.5 52,-537.5 226,-537.5 226,-502.5 52,-502.5"/>
<text text-anchor="start" x="58.8704" y="-515.3" font-family="Arial Bold" font-size="18.00" fill="#000000">artifacts</text>
<text text-anchor="start" x="121.8758" y="-515.3" font-family="Arial" font-size="14.00" fill="#000000"> </text>
<text text-anchor="start" x="125.7664" y="-515.3" font-family="Arial" font-size="14.00" fill="#666666">[BASE TABLE]</text>
<polygon fill="none" stroke="#000000" points="52,-472.5 52,-502.5 226,-502.5 226,-472.5 52,-472.5"/>
<text text-anchor="start" x="59" y="-483.9" font-family="Arial" font-size="14.00" fill="#000000">id </text>
<text text-anchor="start" x="73.7798" y="-483.9" font-family="Arial" font-size="14.00" fill="#666666">[varchar(22)]</text>
<polygon fill="none" stroke="#000000" points="52,-442.5 52,-472.5 226,-472.5 226,-442.5 52,-442.5"/>
<text text-anchor="start" x="59" y="-453.9" font-family="Arial" font-size="14.00" fill="#000000">build_log_id </text>
<text text-anchor="start" x="137.5778" y="-453.9" font-family="Arial" font-size="14.00" fill="#666666">[varchar(22)]</text>
<polygon fill="none" stroke="#000000" points="52,-412.5 52,-442.5 226,-442.5 226,-412.5 52,-412.5"/>
<text text-anchor="start" x="59" y="-423.9" font-family="Arial" font-size="14.00" fill="#000000">size </text>
<text text-anchor="start" x="87.7798" y="-423.9" font-family="Arial" font-size="14.00" fill="#666666">[bigint(20)]</text>
<polygon fill="none" stroke="#000000" points="52,-382.5 52,-412.5 226,-412.5 226,-382.5 52,-382.5"/>
<text text-anchor="start" x="59" y="-393.9" font-family="Arial" font-size="14.00" fill="#000000">created_at </text>
<text text-anchor="start" x="129.028" y="-393.9" font-family="Arial" font-size="14.00" fill="#666666">[datetime(6)]</text>
<polygon fill="none" stroke="#000000" points="52,-352.5 52,-382.5 226,-382.5 226,-352.5 52,-352.5"/>
<text text-anchor="start" x="59" y="-363.9" font-family="Arial" font-size="14.00" fill="#000000">deleted_at </text>
<text text-anchor="start" x="128.2566" y="-363.9" font-family="Arial" font-size="14.00" fill="#666666">[datetime(6)]</text>
<polygon fill="none" stroke="#000000" stroke-width="3" points="50.5,-351.5 50.5,-539.5 227.5,-539.5 227.5,-351.5 50.5,-351.5"/>
</g>
<!-- build_logs -->
<g id="node2" class="node">
<title>build_logs</title>
<polygon fill="#efefef" stroke="transparent" points="43,-192.5 43,-227.5 235,-227.5 235,-192.5 43,-192.5"/>
<polygon fill="none" stroke="#000000" points="43,-192.5 43,-227.5 235,-227.5 235,-192.5 43,-192.5"/>
<text text-anchor="start" x="49.8632" y="-205.3" font-family="Arial Bold" font-size="18.00" fill="#000000">build_logs</text>
<text text-anchor="start" x="130.883" y="-205.3" font-family="Arial" font-size="14.00" fill="#000000"> </text>
<text text-anchor="start" x="134.7736" y="-205.3" font-family="Arial" font-size="14.00" fill="#666666">[BASE TABLE]</text>
<polygon fill="none" stroke="#000000" points="43,-162.5 43,-192.5 235,-192.5 235,-162.5 43,-162.5"/>
<text text-anchor="start" x="50" y="-173.9" font-family="Arial" font-size="14.00" fill="#000000">id </text>
<text text-anchor="start" x="64.7798" y="-173.9" font-family="Arial" font-size="14.00" fill="#666666">[varchar(22)]</text>
<polygon fill="none" stroke="#000000" points="43,-132.5 43,-162.5 235,-162.5 235,-132.5 43,-132.5"/>
<text text-anchor="start" x="50" y="-143.9" font-family="Arial" font-size="14.00" fill="#000000">result </text>
<text text-anchor="start" x="88.1136" y="-143.9" font-family="Arial" font-size="14.00" fill="#666666">[varchar(10)]</text>
<polygon fill="none" stroke="#000000" points="43,-102.5 43,-132.5 235,-132.5 235,-102.5 43,-102.5"/>
<text text-anchor="start" x="50" y="-113.9" font-family="Arial" font-size="14.00" fill="#000000">started_at </text>
<text text-anchor="start" x="116.136" y="-113.9" font-family="Arial" font-size="14.00" fill="#666666">[datetime(6)]</text>
<polygon fill="none" stroke="#000000" points="43,-72.5 43,-102.5 235,-102.5 235,-72.5 43,-72.5"/>
<text text-anchor="start" x="50" y="-83.9" font-family="Arial" font-size="14.00" fill="#000000">finished_at </text>
<text text-anchor="start" x="121.5806" y="-83.9" font-family="Arial" font-size="14.00" fill="#666666">[datetime(6)]</text>
<polygon fill="none" stroke="#000000" points="43,-42.5 43,-72.5 235,-72.5 235,-42.5 43,-42.5"/>
<text text-anchor="start" x="50" y="-53.9" font-family="Arial" font-size="14.00" fill="#000000">branch_id </text>
<text text-anchor="start" x="115.3534" y="-53.9" font-family="Arial" font-size="14.00" fill="#666666">[varchar(22)]</text>
</g>
<!-- artifacts&#45;&gt;build_logs -->
<g id="edge1" class="edge">
<title>artifacts:build_log_id&#45;&gt;build_logs:id</title>
<path fill="none" stroke="#000000" d="M235.7329,-455.0794C289.0256,-427.7124 293.8498,-177.5 235,-177.5"/>
<polygon fill="#000000" stroke="#000000" points="235.7044,-455.0864 224.9139,-453.133 230.8522,-456.2932 226,-457.5 226,-457.5 226,-457.5 230.8522,-456.2932 227.0861,-461.867 235.7044,-455.0864 235.7044,-455.0864"/>
<text text-anchor="start" x="233.381" y="-467.5" font-family="Arial" font-size="10.00" fill="#000000">FOREIGN KEY (build_log_id) REFERENCES build_logs (id)</text>
</g>
</g>
</svg>
