<?xml version="1.0" encoding="UTF-8" standalone="no"?>
<!DOCTYPE svg PUBLIC "-//W3C//DTD SVG 1.1//EN"
 "http://www.w3.org/Graphics/SVG/1.1/DTD/svg11.dtd">
<!-- Generated by graphviz version 2.40.1 (20161225.0304)
 -->
<!-- Title: artifacts Pages: 1 -->
<svg width="385pt" height="622pt"
 viewBox="0.00 0.00 385.00 622.00" xmlns="http://www.w3.org/2000/svg" xmlns:xlink="http://www.w3.org/1999/xlink">
<g id="graph0" class="graph" transform="scale(1 1) rotate(0) translate(4 618)">
<title>artifacts</title>
<polygon fill="#ffffff" stroke="transparent" points="-4,4 -4,-618 381,-618 381,4 -4,4"/>
<!-- artifacts -->
<g id="node1" class="node">
<title>artifacts</title>
<polygon fill="#efefef" stroke="transparent" points="156,-532.5 156,-567.5 330,-567.5 330,-532.5 156,-532.5"/>
<polygon fill="none" stroke="#000000" points="156,-532.5 156,-567.5 330,-567.5 330,-532.5 156,-532.5"/>
<text text-anchor="start" x="162.8704" y="-545.3" font-family="Arial Bold" font-size="18.00" fill="#000000">artifacts</text>
<text text-anchor="start" x="225.8758" y="-545.3" font-family="Arial" font-size="14.00" fill="#000000"> </text>
<text text-anchor="start" x="229.7664" y="-545.3" font-family="Arial" font-size="14.00" fill="#666666">[BASE TABLE]</text>
<polygon fill="none" stroke="#000000" points="156,-502.5 156,-532.5 330,-532.5 330,-502.5 156,-502.5"/>
<text text-anchor="start" x="163" y="-513.9" font-family="Arial" font-size="14.00" fill="#000000">id </text>
<text text-anchor="start" x="177.7798" y="-513.9" font-family="Arial" font-size="14.00" fill="#666666">[varchar(22)]</text>
<polygon fill="none" stroke="#000000" points="156,-472.5 156,-502.5 330,-502.5 330,-472.5 156,-472.5"/>
<text text-anchor="start" x="163" y="-483.9" font-family="Arial" font-size="14.00" fill="#000000">size </text>
<text text-anchor="start" x="191.7798" y="-483.9" font-family="Arial" font-size="14.00" fill="#666666">[bigint(20)]</text>
<polygon fill="none" stroke="#000000" points="156,-442.5 156,-472.5 330,-472.5 330,-442.5 156,-442.5"/>
<text text-anchor="start" x="163" y="-453.9" font-family="Arial" font-size="14.00" fill="#000000">created_at </text>
<text text-anchor="start" x="233.028" y="-453.9" font-family="Arial" font-size="14.00" fill="#666666">[datetime(6)]</text>
<polygon fill="none" stroke="#000000" points="156,-412.5 156,-442.5 330,-442.5 330,-412.5 156,-412.5"/>
<text text-anchor="start" x="163" y="-423.9" font-family="Arial" font-size="14.00" fill="#000000">deleted_at </text>
<text text-anchor="start" x="232.2566" y="-423.9" font-family="Arial" font-size="14.00" fill="#666666">[datetime(6)]</text>
<polygon fill="none" stroke="#000000" points="156,-382.5 156,-412.5 330,-412.5 330,-382.5 156,-382.5"/>
<text text-anchor="start" x="163" y="-393.9" font-family="Arial" font-size="14.00" fill="#000000">build_id </text>
<text text-anchor="start" x="215.1234" y="-393.9" font-family="Arial" font-size="14.00" fill="#666666">[varchar(22)]</text>
<polygon fill="none" stroke="#000000" stroke-width="3" points="154.5,-381.5 154.5,-569.5 331.5,-569.5 331.5,-381.5 154.5,-381.5"/>
</g>
<!-- builds -->
<g id="node2" class="node">
<title>builds</title>
<polygon fill="#efefef" stroke="transparent" points="152,-222.5 152,-257.5 334,-257.5 334,-222.5 152,-222.5"/>
<polygon fill="none" stroke="#000000" points="152,-222.5 152,-257.5 334,-257.5 334,-222.5 152,-222.5"/>
<text text-anchor="start" x="170.8696" y="-235.3" font-family="Arial Bold" font-size="18.00" fill="#000000">builds</text>
<text text-anchor="start" x="217.8766" y="-235.3" font-family="Arial" font-size="14.00" fill="#000000"> </text>
<text text-anchor="start" x="221.7672" y="-235.3" font-family="Arial" font-size="14.00" fill="#666666">[BASE TABLE]</text>
<polygon fill="none" stroke="#000000" points="152,-192.5 152,-222.5 334,-222.5 334,-192.5 152,-192.5"/>
<text text-anchor="start" x="159" y="-203.9" font-family="Arial" font-size="14.00" fill="#000000">id </text>
<text text-anchor="start" x="173.7798" y="-203.9" font-family="Arial" font-size="14.00" fill="#666666">[varchar(22)]</text>
<polygon fill="none" stroke="#000000" points="152,-162.5 152,-192.5 334,-192.5 334,-162.5 152,-162.5"/>
<text text-anchor="start" x="159" y="-173.9" font-family="Arial" font-size="14.00" fill="#000000">commit </text>
<text text-anchor="start" x="207.9916" y="-173.9" font-family="Arial" font-size="14.00" fill="#666666">[char(40)]</text>
<polygon fill="none" stroke="#000000" points="152,-132.5 152,-162.5 334,-162.5 334,-132.5 152,-132.5"/>
<text text-anchor="start" x="159" y="-143.9" font-family="Arial" font-size="14.00" fill="#000000">status </text>
<text text-anchor="start" x="200.237" y="-143.9" font-family="Arial" font-size="14.00" fill="#666666">[varchar(10)]</text>
<polygon fill="none" stroke="#000000" points="152,-102.5 152,-132.5 334,-132.5 334,-102.5 152,-102.5"/>
<text text-anchor="start" x="159" y="-113.9" font-family="Arial" font-size="14.00" fill="#000000">started_at </text>
<text text-anchor="start" x="225.136" y="-113.9" font-family="Arial" font-size="14.00" fill="#666666">[datetime(6)]</text>
<polygon fill="none" stroke="#000000" points="152,-72.5 152,-102.5 334,-102.5 334,-72.5 152,-72.5"/>
<text text-anchor="start" x="159" y="-83.9" font-family="Arial" font-size="14.00" fill="#000000">finished_at </text>
<text text-anchor="start" x="230.5806" y="-83.9" font-family="Arial" font-size="14.00" fill="#666666">[datetime(6)]</text>
<polygon fill="none" stroke="#000000" points="152,-42.5 152,-72.5 334,-72.5 334,-42.5 152,-42.5"/>
<text text-anchor="start" x="158.5975" y="-53.9" font-family="Arial" font-size="14.00" fill="#000000">application_id </text>
<text text-anchor="start" x="248.0659" y="-53.9" font-family="Arial" font-size="14.00" fill="#666666">[varchar(22)]</text>
</g>
<!-- artifacts&#45;&gt;builds -->
<g id="edge1" class="edge">
<title>artifacts:build_id&#45;&gt;builds:id</title>
<path fill="none" stroke="#000000" d="M243.9283,-372.3928C252.195,-330.9278 313.365,-347.1818 334,-301 350.9526,-263.0596 375.5556,-207.5 334,-207.5"/>
<polygon fill="#000000" stroke="#000000" points="243.9147,-372.5419 238.5189,-382.0884 243.4573,-377.521 243,-382.5 243,-382.5 243,-382.5 243.4573,-377.521 247.4811,-382.9116 243.9147,-372.5419 243.9147,-372.5419"/>
<text text-anchor="start" x="7.277" y="-392.5" font-family="Arial" font-size="10.00" fill="#000000">FOREIGN KEY (build_id) REFERENCES builds (id)</text>
</g>
</g>
</svg>
