<?xml version="1.0" encoding="UTF-8" standalone="no"?>
<!DOCTYPE svg PUBLIC "-//W3C//DTD SVG 1.1//EN"
 "http://www.w3.org/Graphics/SVG/1.1/DTD/svg11.dtd">
<!-- Generated by graphviz version 2.40.1 (20161225.0304)
 -->
<!-- Title: artifacts Pages: 1 -->
<svg width="385pt" height="652pt"
 viewBox="0.00 0.00 385.00 652.00" xmlns="http://www.w3.org/2000/svg" xmlns:xlink="http://www.w3.org/1999/xlink">
<g id="graph0" class="graph" transform="scale(1 1) rotate(0) translate(4 648)">
<title>artifacts</title>
<polygon fill="#ffffff" stroke="transparent" points="-4,4 -4,-648 381,-648 381,4 -4,4"/>
<!-- artifacts -->
<g id="node1" class="node">
<title>artifacts</title>
<polygon fill="#efefef" stroke="transparent" points="156,-562.5 156,-597.5 330,-597.5 330,-562.5 156,-562.5"/>
<polygon fill="none" stroke="#000000" points="156,-562.5 156,-597.5 330,-597.5 330,-562.5 156,-562.5"/>
<text text-anchor="start" x="162.8704" y="-575.3" font-family="Arial Bold" font-size="18.00" fill="#000000">artifacts</text>
<text text-anchor="start" x="225.8758" y="-575.3" font-family="Arial" font-size="14.00" fill="#000000"> </text>
<text text-anchor="start" x="229.7664" y="-575.3" font-family="Arial" font-size="14.00" fill="#666666">[BASE TABLE]</text>
<polygon fill="none" stroke="#000000" points="156,-532.5 156,-562.5 330,-562.5 330,-532.5 156,-532.5"/>
<text text-anchor="start" x="163" y="-543.9" font-family="Arial" font-size="14.00" fill="#000000">id </text>
<text text-anchor="start" x="177.7798" y="-543.9" font-family="Arial" font-size="14.00" fill="#666666">[varchar(22)]</text>
<polygon fill="none" stroke="#000000" points="156,-502.5 156,-532.5 330,-532.5 330,-502.5 156,-502.5"/>
<text text-anchor="start" x="163" y="-513.9" font-family="Arial" font-size="14.00" fill="#000000">size </text>
<text text-anchor="start" x="191.7798" y="-513.9" font-family="Arial" font-size="14.00" fill="#666666">[bigint(20)]</text>
<polygon fill="none" stroke="#000000" points="156,-472.5 156,-502.5 330,-502.5 330,-472.5 156,-472.5"/>
<text text-anchor="start" x="163" y="-483.9" font-family="Arial" font-size="14.00" fill="#000000">created_at </text>
<text text-anchor="start" x="233.028" y="-483.9" font-family="Arial" font-size="14.00" fill="#666666">[datetime(6)]</text>
<polygon fill="none" stroke="#000000" points="156,-442.5 156,-472.5 330,-472.5 330,-442.5 156,-442.5"/>
<text text-anchor="start" x="163" y="-453.9" font-family="Arial" font-size="14.00" fill="#000000">deleted_at </text>
<text text-anchor="start" x="232.2566" y="-453.9" font-family="Arial" font-size="14.00" fill="#666666">[datetime(6)]</text>
<polygon fill="none" stroke="#000000" points="156,-412.5 156,-442.5 330,-442.5 330,-412.5 156,-412.5"/>
<text text-anchor="start" x="163" y="-423.9" font-family="Arial" font-size="14.00" fill="#000000">build_id </text>
<text text-anchor="start" x="215.1234" y="-423.9" font-family="Arial" font-size="14.00" fill="#666666">[varchar(22)]</text>
<polygon fill="none" stroke="#000000" stroke-width="3" points="154.5,-411.5 154.5,-599.5 331.5,-599.5 331.5,-411.5 154.5,-411.5"/>
</g>
<!-- builds -->
<g id="node2" class="node">
<title>builds</title>
<polygon fill="#efefef" stroke="transparent" points="152,-252.5 152,-287.5 334,-287.5 334,-252.5 152,-252.5"/>
<polygon fill="none" stroke="#000000" points="152,-252.5 152,-287.5 334,-287.5 334,-252.5 152,-252.5"/>
<text text-anchor="start" x="170.8696" y="-265.3" font-family="Arial Bold" font-size="18.00" fill="#000000">builds</text>
<text text-anchor="start" x="217.8766" y="-265.3" font-family="Arial" font-size="14.00" fill="#000000"> </text>
<text text-anchor="start" x="221.7672" y="-265.3" font-family="Arial" font-size="14.00" fill="#666666">[BASE TABLE]</text>
<polygon fill="none" stroke="#000000" points="152,-222.5 152,-252.5 334,-252.5 334,-222.5 152,-222.5"/>
<text text-anchor="start" x="159" y="-233.9" font-family="Arial" font-size="14.00" fill="#000000">id </text>
<text text-anchor="start" x="173.7798" y="-233.9" font-family="Arial" font-size="14.00" fill="#666666">[varchar(22)]</text>
<polygon fill="none" stroke="#000000" points="152,-192.5 152,-222.5 334,-222.5 334,-192.5 152,-192.5"/>
<text text-anchor="start" x="159" y="-203.9" font-family="Arial" font-size="14.00" fill="#000000">commit </text>
<text text-anchor="start" x="207.9916" y="-203.9" font-family="Arial" font-size="14.00" fill="#666666">[char(40)]</text>
<polygon fill="none" stroke="#000000" points="152,-162.5 152,-192.5 334,-192.5 334,-162.5 152,-162.5"/>
<text text-anchor="start" x="159" y="-173.9" font-family="Arial" font-size="14.00" fill="#000000">status </text>
<text text-anchor="start" x="200.237" y="-173.9" font-family="Arial" font-size="14.00" fill="#666666">[varchar(10)]</text>
<polygon fill="none" stroke="#000000" points="152,-132.5 152,-162.5 334,-162.5 334,-132.5 152,-132.5"/>
<text text-anchor="start" x="159" y="-143.9" font-family="Arial" font-size="14.00" fill="#000000">started_at </text>
<text text-anchor="start" x="225.136" y="-143.9" font-family="Arial" font-size="14.00" fill="#666666">[datetime(6)]</text>
<polygon fill="none" stroke="#000000" points="152,-102.5 152,-132.5 334,-132.5 334,-102.5 152,-102.5"/>
<text text-anchor="start" x="159" y="-113.9" font-family="Arial" font-size="14.00" fill="#000000">finished_at </text>
<text text-anchor="start" x="230.5806" y="-113.9" font-family="Arial" font-size="14.00" fill="#666666">[datetime(6)]</text>
<polygon fill="none" stroke="#000000" points="152,-72.5 152,-102.5 334,-102.5 334,-72.5 152,-72.5"/>
<text text-anchor="start" x="159" y="-83.9" font-family="Arial" font-size="14.00" fill="#000000">retriable </text>
<text text-anchor="start" x="213.446" y="-83.9" font-family="Arial" font-size="14.00" fill="#666666">[tinyint(1)]</text>
<polygon fill="none" stroke="#000000" points="152,-42.5 152,-72.5 334,-72.5 334,-42.5 152,-42.5"/>
<text text-anchor="start" x="158.5975" y="-53.9" font-family="Arial" font-size="14.00" fill="#000000">application_id </text>
<text text-anchor="start" x="248.0659" y="-53.9" font-family="Arial" font-size="14.00" fill="#666666">[varchar(22)]</text>
</g>
<!-- artifacts&#45;&gt;builds -->
<g id="edge1" class="edge">
<title>artifacts:build_id&#45;&gt;builds:id</title>
<path fill="none" stroke="#000000" d="M243.9283,-402.3928C252.195,-360.9278 313.365,-377.1818 334,-331 350.9526,-293.0596 375.5556,-237.5 334,-237.5"/>
<polygon fill="#000000" stroke="#000000" points="243.9147,-402.5419 238.5189,-412.0884 243.4573,-407.521 243,-412.5 243,-412.5 243,-412.5 243.4573,-407.521 247.4811,-412.9116 243.9147,-402.5419 243.9147,-402.5419"/>
<text text-anchor="start" x="7.277" y="-422.5" font-family="Arial" font-size="10.00" fill="#000000">FOREIGN KEY (build_id) REFERENCES builds (id)</text>
</g>
</g>
</svg>
