<?xml version="1.0" encoding="UTF-8" standalone="no"?>
<!DOCTYPE svg PUBLIC "-//W3C//DTD SVG 1.1//EN"
 "http://www.w3.org/Graphics/SVG/1.1/DTD/svg11.dtd">
<!-- Generated by graphviz version 2.40.1 (20161225.0304)
 -->
<!-- Title: available_domains Pages: 1 -->
<svg width="360pt" height="195pt"
 viewBox="0.00 0.00 360.00 195.00" xmlns="http://www.w3.org/2000/svg" xmlns:xlink="http://www.w3.org/1999/xlink">
<g id="graph0" class="graph" transform="scale(1 1) rotate(0) translate(4 191)">
<title>available_domains</title>
<polygon fill="#ffffff" stroke="transparent" points="-4,4 -4,-191 356,-191 356,4 -4,4"/>
<!-- available_domains -->
<g id="node1" class="node">
<title>available_domains</title>
<polygon fill="#efefef" stroke="transparent" points="46,-105.5 46,-140.5 306,-140.5 306,-105.5 46,-105.5"/>
<polygon fill="none" stroke="#000000" points="46,-105.5 46,-140.5 306,-140.5 306,-105.5 46,-105.5"/>
<text text-anchor="start" x="52.8576" y="-118.3" font-family="Arial Bold" font-size="18.00" fill="#000000">available_domains</text>
<text text-anchor="start" x="201.8886" y="-118.3" font-family="Arial" font-size="14.00" fill="#000000"> </text>
<text text-anchor="start" x="205.7792" y="-118.3" font-family="Arial" font-size="14.00" fill="#666666">[BASE TABLE]</text>
<polygon fill="none" stroke="#000000" points="46,-75.5 46,-105.5 306,-105.5 306,-75.5 46,-75.5"/>
<text text-anchor="start" x="53" y="-86.9" font-family="Arial" font-size="14.00" fill="#000000">domain </text>
<text text-anchor="start" x="102.7882" y="-86.9" font-family="Arial" font-size="14.00" fill="#666666">[varchar(100)]</text>
<polygon fill="none" stroke="#000000" points="46,-45.5 46,-75.5 306,-75.5 306,-45.5 46,-45.5"/>
<text text-anchor="start" x="53" y="-56.9" font-family="Arial" font-size="14.00" fill="#000000">available </text>
<text text-anchor="start" x="112.1234" y="-56.9" font-family="Arial" font-size="14.00" fill="#666666">[tinyint(1)]</text>
<polygon fill="none" stroke="#000000" stroke-width="3" points="44.5,-44.5 44.5,-142.5 307.5,-142.5 307.5,-44.5 44.5,-44.5"/>
</g>
</g>
</svg>
