<?xml version="1.0" encoding="UTF-8" standalone="no"?>
<!DOCTYPE svg PUBLIC "-//W3C//DTD SVG 1.1//EN"
 "http://www.w3.org/Graphics/SVG/1.1/DTD/svg11.dtd">
<!-- Generated by graphviz version 2.40.1 (20161225.0304)
 -->
<!-- Title: branches Pages: 1 -->
<svg width="876pt" height="1049pt"
 viewBox="0.00 0.00 875.50 1049.00" xmlns="http://www.w3.org/2000/svg" xmlns:xlink="http://www.w3.org/1999/xlink">
<g id="graph0" class="graph" transform="scale(1 1) rotate(0) translate(4 1045)">
<title>branches</title>
<polygon fill="#ffffff" stroke="transparent" points="-4,4 -4,-1045 871.5,-1045 871.5,4 -4,4"/>
<!-- branches -->
<g id="node1" class="node">
<title>branches</title>
<polygon fill="#efefef" stroke="transparent" points="195.5,-622.5 195.5,-657.5 415.5,-657.5 415.5,-622.5 195.5,-622.5"/>
<polygon fill="none" stroke="#000000" points="195.5,-622.5 195.5,-657.5 415.5,-657.5 415.5,-622.5 195.5,-622.5"/>
<text text-anchor="start" x="219.8615" y="-635.3" font-family="Arial Bold" font-size="18.00" fill="#000000">branches</text>
<text text-anchor="start" x="293.8847" y="-635.3" font-family="Arial" font-size="14.00" fill="#000000"> </text>
<text text-anchor="start" x="297.7753" y="-635.3" font-family="Arial" font-size="14.00" fill="#666666">[BASE TABLE]</text>
<polygon fill="none" stroke="#000000" points="195.5,-592.5 195.5,-622.5 415.5,-622.5 415.5,-592.5 195.5,-592.5"/>
<text text-anchor="start" x="202.5" y="-603.9" font-family="Arial" font-size="14.00" fill="#000000">id </text>
<text text-anchor="start" x="217.2798" y="-603.9" font-family="Arial" font-size="14.00" fill="#666666">[varchar(22)]</text>
<polygon fill="none" stroke="#000000" points="195.5,-562.5 195.5,-592.5 415.5,-592.5 415.5,-562.5 195.5,-562.5"/>
<text text-anchor="start" x="202.5" y="-573.9" font-family="Arial" font-size="14.00" fill="#000000">application_id </text>
<text text-anchor="start" x="291.9684" y="-573.9" font-family="Arial" font-size="14.00" fill="#666666">[varchar(22)]</text>
<polygon fill="none" stroke="#000000" points="195.5,-532.5 195.5,-562.5 415.5,-562.5 415.5,-532.5 195.5,-532.5"/>
<text text-anchor="start" x="202.5" y="-543.9" font-family="Arial" font-size="14.00" fill="#000000">branch_name </text>
<text text-anchor="start" x="291.9726" y="-543.9" font-family="Arial" font-size="14.00" fill="#666666">[varchar(100)]</text>
<polygon fill="none" stroke="#000000" points="195.5,-502.5 195.5,-532.5 415.5,-532.5 415.5,-502.5 195.5,-502.5"/>
<text text-anchor="start" x="202.0764" y="-513.9" font-family="Arial" font-size="14.00" fill="#000000">build_type </text>
<text text-anchor="start" x="269.7664" y="-513.9" font-family="Arial" font-size="14.00" fill="#666666">[enum(&#39;image&#39;,&#39;static&#39;)]</text>
<polygon fill="none" stroke="#000000" points="195.5,-472.5 195.5,-502.5 415.5,-502.5 415.5,-472.5 195.5,-472.5"/>
<text text-anchor="start" x="202.5" y="-483.9" font-family="Arial" font-size="14.00" fill="#000000">created_at </text>
<text text-anchor="start" x="272.528" y="-483.9" font-family="Arial" font-size="14.00" fill="#666666">[datetime(6)]</text>
<polygon fill="none" stroke="#000000" points="195.5,-442.5 195.5,-472.5 415.5,-472.5 415.5,-442.5 195.5,-442.5"/>
<text text-anchor="start" x="202.5" y="-453.9" font-family="Arial" font-size="14.00" fill="#000000">updated_at </text>
<text text-anchor="start" x="276.4326" y="-453.9" font-family="Arial" font-size="14.00" fill="#666666">[datetime(6)]</text>
<polygon fill="none" stroke="#000000" points="195.5,-412.5 195.5,-442.5 415.5,-442.5 415.5,-412.5 195.5,-412.5"/>
<text text-anchor="start" x="202.5" y="-423.9" font-family="Arial" font-size="14.00" fill="#000000">build_id </text>
<text text-anchor="start" x="254.6234" y="-423.9" font-family="Arial" font-size="14.00" fill="#666666">[varchar(22)]</text>
<polygon fill="none" stroke="#000000" stroke-width="3" points="194,-411.5 194,-659.5 417,-659.5 417,-411.5 194,-411.5"/>
</g>
<!-- build_logs -->
<g id="node2" class="node">
<title>build_logs</title>
<polygon fill="#efefef" stroke="transparent" points="95.5,-222.5 95.5,-257.5 514.5,-257.5 514.5,-222.5 95.5,-222.5"/>
<polygon fill="none" stroke="#000000" points="95.5,-222.5 95.5,-257.5 514.5,-257.5 514.5,-222.5 95.5,-222.5"/>
<text text-anchor="start" x="215.8632" y="-235.3" font-family="Arial Bold" font-size="18.00" fill="#000000">build_logs</text>
<text text-anchor="start" x="296.883" y="-235.3" font-family="Arial" font-size="14.00" fill="#000000"> </text>
<text text-anchor="start" x="300.7736" y="-235.3" font-family="Arial" font-size="14.00" fill="#666666">[BASE TABLE]</text>
<polygon fill="none" stroke="#000000" points="95.5,-192.5 95.5,-222.5 514.5,-222.5 514.5,-192.5 95.5,-192.5"/>
<text text-anchor="start" x="102.5" y="-203.9" font-family="Arial" font-size="14.00" fill="#000000">id </text>
<text text-anchor="start" x="117.2798" y="-203.9" font-family="Arial" font-size="14.00" fill="#666666">[varchar(22)]</text>
<polygon fill="none" stroke="#000000" points="95.5,-162.5 95.5,-192.5 514.5,-192.5 514.5,-162.5 95.5,-162.5"/>
<text text-anchor="start" x="102.0742" y="-173.9" font-family="Arial" font-size="14.00" fill="#000000">result </text>
<text text-anchor="start" x="140.1878" y="-173.9" font-family="Arial" font-size="14.00" fill="#666666">[enum(&#39;BUILDING&#39;,&#39;SUCCEEDED&#39;,&#39;FAILED&#39;,&#39;CANCELED&#39;)]</text>
<polygon fill="none" stroke="#000000" points="95.5,-132.5 95.5,-162.5 514.5,-162.5 514.5,-132.5 95.5,-132.5"/>
<text text-anchor="start" x="102.5" y="-143.9" font-family="Arial" font-size="14.00" fill="#000000">started_at </text>
<text text-anchor="start" x="168.636" y="-143.9" font-family="Arial" font-size="14.00" fill="#666666">[datetime(6)]</text>
<polygon fill="none" stroke="#000000" points="95.5,-102.5 95.5,-132.5 514.5,-132.5 514.5,-102.5 95.5,-102.5"/>
<text text-anchor="start" x="102.5" y="-113.9" font-family="Arial" font-size="14.00" fill="#000000">finished_at </text>
<text text-anchor="start" x="174.0806" y="-113.9" font-family="Arial" font-size="14.00" fill="#666666">[datetime(6)]</text>
<polygon fill="none" stroke="#000000" points="95.5,-72.5 95.5,-102.5 514.5,-102.5 514.5,-72.5 95.5,-72.5"/>
<text text-anchor="start" x="102.5" y="-83.9" font-family="Arial" font-size="14.00" fill="#000000">branch_id </text>
<text text-anchor="start" x="167.8534" y="-83.9" font-family="Arial" font-size="14.00" fill="#666666">[varchar(22)]</text>
</g>
<!-- branches&#45;&gt;build_logs -->
<g id="edge5" class="edge">
<title>branches:build_id&#45;&gt;build_logs:id</title>
<path fill="none" stroke="#000000" d="M306.0325,-402.3537C315.9671,-312.7617 462.1902,-388.1953 514.5,-301 535.8779,-265.3651 556.0556,-207.5 514.5,-207.5"/>
<polygon fill="#000000" stroke="#000000" points="306.0242,-402.5137 301.0062,-412.2641 305.7621,-407.5069 305.5,-412.5 305.5,-412.5 305.5,-412.5 305.7621,-407.5069 309.9938,-412.7359 306.0242,-402.5137 306.0242,-402.5137"/>
<text text-anchor="start" x="50.329" y="-422.5" font-family="Arial" font-size="10.00" fill="#000000">FOREIGN KEY (build_id) REFERENCES build_logs (id)</text>
</g>
<!-- applications -->
<g id="node5" class="node">
<title>applications</title>
<polygon fill="#efefef" stroke="transparent" points="618.5,-252.5 618.5,-287.5 824.5,-287.5 824.5,-252.5 618.5,-252.5"/>
<polygon fill="none" stroke="#000000" points="618.5,-252.5 618.5,-287.5 824.5,-287.5 824.5,-252.5 618.5,-252.5"/>
<text text-anchor="start" x="625.3621" y="-265.3" font-family="Arial Bold" font-size="18.00" fill="#000000">applications</text>
<text text-anchor="start" x="720.3841" y="-265.3" font-family="Arial" font-size="14.00" fill="#000000"> </text>
<text text-anchor="start" x="724.2747" y="-265.3" font-family="Arial" font-size="14.00" fill="#666666">[BASE TABLE]</text>
<polygon fill="none" stroke="#000000" points="618.5,-222.5 618.5,-252.5 824.5,-252.5 824.5,-222.5 618.5,-222.5"/>
<text text-anchor="start" x="625.5" y="-233.9" font-family="Arial" font-size="14.00" fill="#000000">id </text>
<text text-anchor="start" x="640.2798" y="-233.9" font-family="Arial" font-size="14.00" fill="#666666">[varchar(22)]</text>
<polygon fill="none" stroke="#000000" points="618.5,-192.5 618.5,-222.5 824.5,-222.5 824.5,-192.5 618.5,-192.5"/>
<text text-anchor="start" x="625.5" y="-203.9" font-family="Arial" font-size="14.00" fill="#000000">owner </text>
<text text-anchor="start" x="667.5056" y="-203.9" font-family="Arial" font-size="14.00" fill="#666666">[varchar(100)]</text>
<polygon fill="none" stroke="#000000" points="618.5,-162.5 618.5,-192.5 824.5,-192.5 824.5,-162.5 618.5,-162.5"/>
<text text-anchor="start" x="625.5" y="-173.9" font-family="Arial" font-size="14.00" fill="#000000">name </text>
<text text-anchor="start" x="664.399" y="-173.9" font-family="Arial" font-size="14.00" fill="#666666">[varchar(100)]</text>
<polygon fill="none" stroke="#000000" points="618.5,-132.5 618.5,-162.5 824.5,-162.5 824.5,-132.5 618.5,-132.5"/>
<text text-anchor="start" x="625.5" y="-143.9" font-family="Arial" font-size="14.00" fill="#000000">repository_id </text>
<text text-anchor="start" x="709.5112" y="-143.9" font-family="Arial" font-size="14.00" fill="#666666">[varchar(22)]</text>
<polygon fill="none" stroke="#000000" points="618.5,-102.5 618.5,-132.5 824.5,-132.5 824.5,-102.5 618.5,-102.5"/>
<text text-anchor="start" x="625.5" y="-113.9" font-family="Arial" font-size="14.00" fill="#000000">created_at </text>
<text text-anchor="start" x="695.528" y="-113.9" font-family="Arial" font-size="14.00" fill="#666666">[datetime(6)]</text>
<polygon fill="none" stroke="#000000" points="618.5,-72.5 618.5,-102.5 824.5,-102.5 824.5,-72.5 618.5,-72.5"/>
<text text-anchor="start" x="625.5" y="-83.9" font-family="Arial" font-size="14.00" fill="#000000">updated_at </text>
<text text-anchor="start" x="699.4326" y="-83.9" font-family="Arial" font-size="14.00" fill="#666666">[datetime(6)]</text>
<polygon fill="none" stroke="#000000" points="618.5,-42.5 618.5,-72.5 824.5,-72.5 824.5,-42.5 618.5,-42.5"/>
<text text-anchor="start" x="625.5" y="-53.9" font-family="Arial" font-size="14.00" fill="#000000">deleted_at </text>
<text text-anchor="start" x="694.7566" y="-53.9" font-family="Arial" font-size="14.00" fill="#666666">[datetime(6)]</text>
</g>
<!-- branches&#45;&gt;applications -->
<g id="edge4" class="edge">
<title>branches:application_id&#45;&gt;applications:id</title>
<path fill="none" stroke="#000000" d="M425.6618,-577.1992C541.7454,-570.1051 503.4793,-438.9091 566.5,-331 590.4799,-289.9397 570.9502,-237.5 618.5,-237.5"/>
<polygon fill="#000000" stroke="#000000" points="425.4956,-577.204 415.3668,-573.002 420.4978,-577.352 415.5,-577.5 415.5,-577.5 415.5,-577.5 420.4978,-577.352 415.6332,-581.998 425.4956,-577.204 425.4956,-577.204"/>
<text text-anchor="start" x="422.102" y="-587.5" font-family="Arial" font-size="10.00" fill="#000000">FOREIGN KEY (application_id) REFERENCES applications (id)</text>
</g>
<!-- build_logs&#45;&gt;branches -->
<g id="edge1" class="edge">
<title>build_logs:branch_id&#45;&gt;branches:id</title>
<path fill="none" stroke="#000000" d="M313.0269,-79.3386C354.8734,-117.3582 557,-301 557,-301 452.3973,-426.4293 300.1027,-241.5707 195.5,-367 127.0412,-449.0891 88.6111,-607.5 195.5,-607.5"/>
<polygon fill="#000000" stroke="#000000" points="312.9014,-79.2246 308.5261,-69.1694 309.2007,-75.8623 305.5,-72.5 305.5,-72.5 305.5,-72.5 309.2007,-75.8623 302.4739,-75.8306 312.9014,-79.2246 312.9014,-79.2246"/>
<text text-anchor="start" x="312.5475" y="-82.5" font-family="Arial" font-size="10.00" fill="#000000">FOREIGN KEY (branch_id) REFERENCES branches (id)</text>
</g>
<!-- environments -->
<g id="node3" class="node">
<title>environments</title>
<polygon fill="#efefef" stroke="transparent" points="43.5,-932.5 43.5,-967.5 262.5,-967.5 262.5,-932.5 43.5,-932.5"/>
<polygon fill="none" stroke="#000000" points="43.5,-932.5 43.5,-967.5 262.5,-967.5 262.5,-932.5 43.5,-932.5"/>
<text text-anchor="start" x="50.3641" y="-945.3" font-family="Arial Bold" font-size="18.00" fill="#000000">environments</text>
<text text-anchor="start" x="158.3821" y="-945.3" font-family="Arial" font-size="14.00" fill="#000000"> </text>
<text text-anchor="start" x="162.2727" y="-945.3" font-family="Arial" font-size="14.00" fill="#666666">[BASE TABLE]</text>
<polygon fill="none" stroke="#000000" points="43.5,-902.5 43.5,-932.5 262.5,-932.5 262.5,-902.5 43.5,-902.5"/>
<text text-anchor="start" x="50.5" y="-913.9" font-family="Arial" font-size="14.00" fill="#000000">id </text>
<text text-anchor="start" x="65.2798" y="-913.9" font-family="Arial" font-size="14.00" fill="#666666">[varchar(22)]</text>
<polygon fill="none" stroke="#000000" points="43.5,-872.5 43.5,-902.5 262.5,-902.5 262.5,-872.5 43.5,-872.5"/>
<text text-anchor="start" x="50.5" y="-883.9" font-family="Arial" font-size="14.00" fill="#000000">branch_id </text>
<text text-anchor="start" x="115.8534" y="-883.9" font-family="Arial" font-size="14.00" fill="#666666">[varchar(22)]</text>
<polygon fill="none" stroke="#000000" points="43.5,-842.5 43.5,-872.5 262.5,-872.5 262.5,-842.5 43.5,-842.5"/>
<text text-anchor="start" x="50.5" y="-853.9" font-family="Arial" font-size="14.00" fill="#000000">key </text>
<text text-anchor="start" x="76.1732" y="-853.9" font-family="Arial" font-size="14.00" fill="#666666">[varchar(100)]</text>
<polygon fill="none" stroke="#000000" points="43.5,-812.5 43.5,-842.5 262.5,-842.5 262.5,-812.5 43.5,-812.5"/>
<text text-anchor="start" x="50.5" y="-823.9" font-family="Arial" font-size="14.00" fill="#000000">value </text>
<text text-anchor="start" x="87.845" y="-823.9" font-family="Arial" font-size="14.00" fill="#666666">[text]</text>
</g>
<!-- environments&#45;&gt;branches -->
<g id="edge2" class="edge">
<title>environments:branch_id&#45;&gt;branches:id</title>
<path fill="none" stroke="#000000" d="M272.7742,-886.3913C310.0293,-877.3256 281.1691,-814.5963 262.5,-770 246.3591,-731.4431 211.6409,-742.5569 195.5,-704 178.9383,-664.4378 152.6111,-607.5 195.5,-607.5"/>
<polygon fill="#000000" stroke="#000000" points="272.4423,-886.4271 262.0172,-883.026 267.4711,-886.9635 262.5,-887.5 262.5,-887.5 262.5,-887.5 267.4711,-886.9635 262.9828,-891.974 272.4423,-886.4271 272.4423,-886.4271"/>
<text text-anchor="start" x="269.5475" y="-897.5" font-family="Arial" font-size="10.00" fill="#000000">FOREIGN KEY (branch_id) REFERENCES branches (id)</text>
</g>
<!-- websites -->
<g id="node4" class="node">
<title>websites</title>
<polygon fill="#efefef" stroke="transparent" points="366.5,-962.5 366.5,-997.5 547.5,-997.5 547.5,-962.5 366.5,-962.5"/>
<polygon fill="none" stroke="#000000" points="366.5,-962.5 366.5,-997.5 547.5,-997.5 547.5,-962.5 366.5,-962.5"/>
<text text-anchor="start" x="373.3685" y="-975.3" font-family="Arial Bold" font-size="18.00" fill="#000000">websites</text>
<text text-anchor="start" x="443.3777" y="-975.3" font-family="Arial" font-size="14.00" fill="#000000"> </text>
<text text-anchor="start" x="447.2683" y="-975.3" font-family="Arial" font-size="14.00" fill="#666666">[BASE TABLE]</text>
<polygon fill="none" stroke="#000000" points="366.5,-932.5 366.5,-962.5 547.5,-962.5 547.5,-932.5 366.5,-932.5"/>
<text text-anchor="start" x="373.5" y="-943.9" font-family="Arial" font-size="14.00" fill="#000000">id </text>
<text text-anchor="start" x="388.2798" y="-943.9" font-family="Arial" font-size="14.00" fill="#666666">[varchar(22)]</text>
<polygon fill="none" stroke="#000000" points="366.5,-902.5 366.5,-932.5 547.5,-932.5 547.5,-902.5 366.5,-902.5"/>
<text text-anchor="start" x="373.5" y="-913.9" font-family="Arial" font-size="14.00" fill="#000000">fqdn </text>
<text text-anchor="start" x="404.629" y="-913.9" font-family="Arial" font-size="14.00" fill="#666666">[varchar(50)]</text>
<polygon fill="none" stroke="#000000" points="366.5,-872.5 366.5,-902.5 547.5,-902.5 547.5,-872.5 366.5,-872.5"/>
<text text-anchor="start" x="373.5" y="-883.9" font-family="Arial" font-size="14.00" fill="#000000">http_port </text>
<text text-anchor="start" x="432.636" y="-883.9" font-family="Arial" font-size="14.00" fill="#666666">[int(11)]</text>
<polygon fill="none" stroke="#000000" points="366.5,-842.5 366.5,-872.5 547.5,-872.5 547.5,-842.5 366.5,-842.5"/>
<text text-anchor="start" x="373.5" y="-853.9" font-family="Arial" font-size="14.00" fill="#000000">created_at </text>
<text text-anchor="start" x="443.528" y="-853.9" font-family="Arial" font-size="14.00" fill="#666666">[datetime(6)]</text>
<polygon fill="none" stroke="#000000" points="366.5,-812.5 366.5,-842.5 547.5,-842.5 547.5,-812.5 366.5,-812.5"/>
<text text-anchor="start" x="373.5" y="-823.9" font-family="Arial" font-size="14.00" fill="#000000">updated_at </text>
<text text-anchor="start" x="447.4326" y="-823.9" font-family="Arial" font-size="14.00" fill="#666666">[datetime(6)]</text>
<polygon fill="none" stroke="#000000" points="366.5,-782.5 366.5,-812.5 547.5,-812.5 547.5,-782.5 366.5,-782.5"/>
<text text-anchor="start" x="373.5" y="-793.9" font-family="Arial" font-size="14.00" fill="#000000">branch_id </text>
<text text-anchor="start" x="438.8534" y="-793.9" font-family="Arial" font-size="14.00" fill="#666666">[varchar(22)]</text>
</g>
<!-- websites&#45;&gt;branches -->
<g id="edge3" class="edge">
<title>websites:branch_id&#45;&gt;branches:id</title>
<path fill="none" stroke="#000000" d="M356.6162,-794.6615C345.6888,-785.9237 356.9423,-758.882 366.5,-740 378.7044,-715.8893 403.2956,-728.1107 415.5,-704 434.8695,-665.7341 458.3889,-607.5 415.5,-607.5"/>
<polygon fill="#000000" stroke="#000000" points="356.8885,-794.7396 365.2578,-801.8252 361.6943,-796.1198 366.5,-797.5 366.5,-797.5 366.5,-797.5 361.6943,-796.1198 367.7422,-793.1748 356.8885,-794.7396 356.8885,-794.7396"/>
<text text-anchor="start" x="373.5475" y="-807.5" font-family="Arial" font-size="10.00" fill="#000000">FOREIGN KEY (branch_id) REFERENCES branches (id)</text>
</g>
</g>
</svg>
