<?xml version="1.0" encoding="UTF-8" standalone="no"?>
<!DOCTYPE svg PUBLIC "-//W3C//DTD SVG 1.1//EN"
 "http://www.w3.org/Graphics/SVG/1.1/DTD/svg11.dtd">
<!-- Generated by graphviz version 2.40.1 (20161225.0304)
 -->
<!-- Title: build_status Pages: 1 -->
<svg width="521pt" height="562pt"
 viewBox="0.00 0.00 520.50 562.00" xmlns="http://www.w3.org/2000/svg" xmlns:xlink="http://www.w3.org/1999/xlink">
<g id="graph0" class="graph" transform="scale(1 1) rotate(0) translate(4 558)">
<title>build_status</title>
<polygon fill="#ffffff" stroke="transparent" points="-4,4 -4,-558 516.5,-558 516.5,4 -4,4"/>
<!-- build_status -->
<g id="node1" class="node">
<title>build_status</title>
<polygon fill="#efefef" stroke="transparent" points="260,-75.5 260,-110.5 467,-110.5 467,-75.5 260,-75.5"/>
<polygon fill="none" stroke="#000000" points="260,-75.5 260,-110.5 467,-110.5 467,-75.5 260,-75.5"/>
<text text-anchor="start" x="266.8581" y="-88.3" font-family="Arial Bold" font-size="18.00" fill="#000000">build_status</text>
<text text-anchor="start" x="362.8881" y="-88.3" font-family="Arial" font-size="14.00" fill="#000000"> </text>
<text text-anchor="start" x="366.7787" y="-88.3" font-family="Arial" font-size="14.00" fill="#666666">[BASE TABLE]</text>
<polygon fill="none" stroke="#000000" points="260,-45.5 260,-75.5 467,-75.5 467,-45.5 260,-45.5"/>
<text text-anchor="start" x="267" y="-56.9" font-family="Arial" font-size="14.00" fill="#000000">status </text>
<text text-anchor="start" x="308.237" y="-56.9" font-family="Arial" font-size="14.00" fill="#666666">[varchar(10)]</text>
<polygon fill="none" stroke="#000000" stroke-width="3" points="258,-44.5 258,-112.5 468,-112.5 468,-44.5 258,-44.5"/>
</g>
<!-- builds -->
<g id="node2" class="node">
<title>builds</title>
<polygon fill="#efefef" stroke="transparent" points="281,-475.5 281,-510.5 447,-510.5 447,-475.5 281,-475.5"/>
<polygon fill="none" stroke="#000000" points="281,-475.5 281,-510.5 447,-510.5 447,-475.5 281,-475.5"/>
<text text-anchor="start" x="291.8696" y="-488.3" font-family="Arial Bold" font-size="18.00" fill="#000000">builds</text>
<text text-anchor="start" x="338.8766" y="-488.3" font-family="Arial" font-size="14.00" fill="#000000"> </text>
<text text-anchor="start" x="342.7672" y="-488.3" font-family="Arial" font-size="14.00" fill="#666666">[BASE TABLE]</text>
<polygon fill="none" stroke="#000000" points="281,-445.5 281,-475.5 447,-475.5 447,-445.5 281,-445.5"/>
<text text-anchor="start" x="288" y="-456.9" font-family="Arial" font-size="14.00" fill="#000000">id </text>
<text text-anchor="start" x="302.7798" y="-456.9" font-family="Arial" font-size="14.00" fill="#666666">[char(22)]</text>
<polygon fill="none" stroke="#000000" points="281,-415.5 281,-445.5 447,-445.5 447,-415.5 281,-415.5"/>
<text text-anchor="start" x="288" y="-426.9" font-family="Arial" font-size="14.00" fill="#000000">commit </text>
<text text-anchor="start" x="336.9916" y="-426.9" font-family="Arial" font-size="14.00" fill="#666666">[char(40)]</text>
<polygon fill="none" stroke="#000000" points="281,-385.5 281,-415.5 447,-415.5 447,-385.5 281,-385.5"/>
<text text-anchor="start" x="288" y="-396.9" font-family="Arial" font-size="14.00" fill="#000000">status </text>
<text text-anchor="start" x="329.237" y="-396.9" font-family="Arial" font-size="14.00" fill="#666666">[varchar(10)]</text>
<polygon fill="none" stroke="#000000" points="281,-355.5 281,-385.5 447,-385.5 447,-355.5 281,-355.5"/>
<text text-anchor="start" x="288" y="-366.9" font-family="Arial" font-size="14.00" fill="#000000">started_at </text>
<text text-anchor="start" x="354.136" y="-366.9" font-family="Arial" font-size="14.00" fill="#666666">[datetime(6)]</text>
<polygon fill="none" stroke="#000000" points="281,-325.5 281,-355.5 447,-355.5 447,-325.5 281,-325.5"/>
<text text-anchor="start" x="287.7518" y="-336.9" font-family="Arial" font-size="14.00" fill="#000000">updated_at </text>
<text text-anchor="start" x="361.6844" y="-336.9" font-family="Arial" font-size="14.00" fill="#666666">[datetime(6)]</text>
<polygon fill="none" stroke="#000000" points="281,-295.5 281,-325.5 447,-325.5 447,-295.5 281,-295.5"/>
<text text-anchor="start" x="288" y="-306.9" font-family="Arial" font-size="14.00" fill="#000000">finished_at </text>
<text text-anchor="start" x="359.5806" y="-306.9" font-family="Arial" font-size="14.00" fill="#666666">[datetime(6)]</text>
<polygon fill="none" stroke="#000000" points="281,-265.5 281,-295.5 447,-295.5 447,-265.5 281,-265.5"/>
<text text-anchor="start" x="288" y="-276.9" font-family="Arial" font-size="14.00" fill="#000000">retriable </text>
<text text-anchor="start" x="342.446" y="-276.9" font-family="Arial" font-size="14.00" fill="#666666">[tinyint(1)]</text>
<polygon fill="none" stroke="#000000" points="281,-235.5 281,-265.5 447,-265.5 447,-235.5 281,-235.5"/>
<text text-anchor="start" x="288" y="-246.9" font-family="Arial" font-size="14.00" fill="#000000">application_id </text>
<text text-anchor="start" x="377.4684" y="-246.9" font-family="Arial" font-size="14.00" fill="#666666">[char(22)]</text>
</g>
<!-- builds&#45;&gt;build_status -->
<g id="edge1" class="edge">
<title>builds:status&#45;&gt;build_status:status</title>
<path fill="none" stroke="#000000" d="M270.7566,-399.883C191.3381,-389.864 223.3515,-260.3062 281,-193 348.7352,-113.9173 444.7648,-236.0827 512.5,-157 512.5,-157 364,-45.5 364,-45.5"/>
<polygon fill="#000000" stroke="#000000" points="271.0181,-399.8986 280.7294,-404.9919 276.009,-400.1993 281,-400.5 281,-400.5 281,-400.5 276.009,-400.1993 281.2706,-396.0081 271.0181,-399.8986 271.0181,-399.8986"/>
<text text-anchor="start" x="7.0985" y="-410.5" font-family="Arial" font-size="10.00" fill="#000000">FOREIGN KEY (status) REFERENCES build_status (status)</text>
</g>
</g>
</svg>
