<?xml version="1.0" encoding="UTF-8" standalone="no"?>
<!DOCTYPE svg PUBLIC "-//W3C//DTD SVG 1.1//EN"
 "http://www.w3.org/Graphics/SVG/1.1/DTD/svg11.dtd">
<!-- Generated by graphviz version 2.40.1 (20161225.0304)
 -->
<!-- Title: build_logs Pages: 1 -->
<svg width="740pt" height="959pt"
 viewBox="0.00 0.00 739.50 959.00" xmlns="http://www.w3.org/2000/svg" xmlns:xlink="http://www.w3.org/1999/xlink">
<g id="graph0" class="graph" transform="scale(1 1) rotate(0) translate(4 955)">
<title>build_logs</title>
<polygon fill="#ffffff" stroke="transparent" points="-4,4 -4,-955 735.5,-955 735.5,4 -4,4"/>
<!-- build_logs -->
<g id="node1" class="node">
<title>build_logs</title>
<polygon fill="#efefef" stroke="transparent" points="171,-562.5 171,-597.5 363,-597.5 363,-562.5 171,-562.5"/>
<polygon fill="none" stroke="#000000" points="171,-562.5 171,-597.5 363,-597.5 363,-562.5 171,-562.5"/>
<text text-anchor="start" x="177.8632" y="-575.3" font-family="Arial Bold" font-size="18.00" fill="#000000">build_logs</text>
<text text-anchor="start" x="258.883" y="-575.3" font-family="Arial" font-size="14.00" fill="#000000"> </text>
<text text-anchor="start" x="262.7736" y="-575.3" font-family="Arial" font-size="14.00" fill="#666666">[BASE TABLE]</text>
<polygon fill="none" stroke="#000000" points="171,-532.5 171,-562.5 363,-562.5 363,-532.5 171,-532.5"/>
<text text-anchor="start" x="178" y="-543.9" font-family="Arial" font-size="14.00" fill="#000000">id </text>
<text text-anchor="start" x="192.7798" y="-543.9" font-family="Arial" font-size="14.00" fill="#666666">[varchar(22)]</text>
<polygon fill="none" stroke="#000000" points="171,-502.5 171,-532.5 363,-532.5 363,-502.5 171,-502.5"/>
<text text-anchor="start" x="178" y="-513.9" font-family="Arial" font-size="14.00" fill="#000000">result </text>
<text text-anchor="start" x="216.1136" y="-513.9" font-family="Arial" font-size="14.00" fill="#666666">[varchar(10)]</text>
<polygon fill="none" stroke="#000000" points="171,-472.5 171,-502.5 363,-502.5 363,-472.5 171,-472.5"/>
<text text-anchor="start" x="178" y="-483.9" font-family="Arial" font-size="14.00" fill="#000000">started_at </text>
<text text-anchor="start" x="244.136" y="-483.9" font-family="Arial" font-size="14.00" fill="#666666">[datetime(6)]</text>
<polygon fill="none" stroke="#000000" points="171,-442.5 171,-472.5 363,-472.5 363,-442.5 171,-442.5"/>
<text text-anchor="start" x="178" y="-453.9" font-family="Arial" font-size="14.00" fill="#000000">finished_at </text>
<text text-anchor="start" x="249.5806" y="-453.9" font-family="Arial" font-size="14.00" fill="#666666">[datetime(6)]</text>
<polygon fill="none" stroke="#000000" points="171,-412.5 171,-442.5 363,-442.5 363,-412.5 171,-412.5"/>
<text text-anchor="start" x="178" y="-423.9" font-family="Arial" font-size="14.00" fill="#000000">branch_id </text>
<text text-anchor="start" x="243.3534" y="-423.9" font-family="Arial" font-size="14.00" fill="#666666">[varchar(22)]</text>
<polygon fill="none" stroke="#000000" stroke-width="3" points="169.5,-411.5 169.5,-599.5 364.5,-599.5 364.5,-411.5 169.5,-411.5"/>
</g>
<!-- branches -->
<g id="node3" class="node">
<title>branches</title>
<polygon fill="#efefef" stroke="transparent" points="157,-252.5 157,-287.5 377,-287.5 377,-252.5 157,-252.5"/>
<polygon fill="none" stroke="#000000" points="157,-252.5 157,-287.5 377,-287.5 377,-252.5 157,-252.5"/>
<text text-anchor="start" x="181.3615" y="-265.3" font-family="Arial Bold" font-size="18.00" fill="#000000">branches</text>
<text text-anchor="start" x="255.3847" y="-265.3" font-family="Arial" font-size="14.00" fill="#000000"> </text>
<text text-anchor="start" x="259.2753" y="-265.3" font-family="Arial" font-size="14.00" fill="#666666">[BASE TABLE]</text>
<polygon fill="none" stroke="#000000" points="157,-222.5 157,-252.5 377,-252.5 377,-222.5 157,-222.5"/>
<text text-anchor="start" x="164" y="-233.9" font-family="Arial" font-size="14.00" fill="#000000">id </text>
<text text-anchor="start" x="178.7798" y="-233.9" font-family="Arial" font-size="14.00" fill="#666666">[varchar(22)]</text>
<polygon fill="none" stroke="#000000" points="157,-192.5 157,-222.5 377,-222.5 377,-192.5 157,-192.5"/>
<text text-anchor="start" x="164" y="-203.9" font-family="Arial" font-size="14.00" fill="#000000">application_id </text>
<text text-anchor="start" x="253.4684" y="-203.9" font-family="Arial" font-size="14.00" fill="#666666">[varchar(22)]</text>
<polygon fill="none" stroke="#000000" points="157,-162.5 157,-192.5 377,-192.5 377,-162.5 157,-162.5"/>
<text text-anchor="start" x="164" y="-173.9" font-family="Arial" font-size="14.00" fill="#000000">branch_name </text>
<text text-anchor="start" x="253.4726" y="-173.9" font-family="Arial" font-size="14.00" fill="#666666">[varchar(100)]</text>
<polygon fill="none" stroke="#000000" points="157,-132.5 157,-162.5 377,-162.5 377,-132.5 157,-132.5"/>
<text text-anchor="start" x="163.5764" y="-143.9" font-family="Arial" font-size="14.00" fill="#000000">build_type </text>
<text text-anchor="start" x="231.2664" y="-143.9" font-family="Arial" font-size="14.00" fill="#666666">[enum(&#39;image&#39;,&#39;static&#39;)]</text>
<polygon fill="none" stroke="#000000" points="157,-102.5 157,-132.5 377,-132.5 377,-102.5 157,-102.5"/>
<text text-anchor="start" x="164" y="-113.9" font-family="Arial" font-size="14.00" fill="#000000">created_at </text>
<text text-anchor="start" x="234.028" y="-113.9" font-family="Arial" font-size="14.00" fill="#666666">[datetime(6)]</text>
<polygon fill="none" stroke="#000000" points="157,-72.5 157,-102.5 377,-102.5 377,-72.5 157,-72.5"/>
<text text-anchor="start" x="164" y="-83.9" font-family="Arial" font-size="14.00" fill="#000000">updated_at </text>
<text text-anchor="start" x="237.9326" y="-83.9" font-family="Arial" font-size="14.00" fill="#666666">[datetime(6)]</text>
<polygon fill="none" stroke="#000000" points="157,-42.5 157,-72.5 377,-72.5 377,-42.5 157,-42.5"/>
<text text-anchor="start" x="164" y="-53.9" font-family="Arial" font-size="14.00" fill="#000000">build_id </text>
<text text-anchor="start" x="216.1234" y="-53.9" font-family="Arial" font-size="14.00" fill="#666666">[varchar(22)]</text>
</g>
<!-- build_logs&#45;&gt;branches -->
<g id="edge4" class="edge">
<title>build_logs:branch_id&#45;&gt;branches:id</title>
<path fill="none" stroke="#000000" d="M267.8781,-402.4471C276.8034,-355.4112 351.2873,-382.0519 377,-331 395.6927,-293.886 418.5556,-237.5 377,-237.5"/>
<polygon fill="#000000" stroke="#000000" points="267.8703,-402.5379 262.5171,-412.1084 267.4351,-407.519 267,-412.5 267,-412.5 267,-412.5 267.4351,-407.519 271.4829,-412.8916 267.8703,-402.5379 267.8703,-402.5379"/>
<text text-anchor="start" x="7.0475" y="-422.5" font-family="Arial" font-size="10.00" fill="#000000">FOREIGN KEY (branch_id) REFERENCES branches (id)</text>
</g>
<!-- build_status -->
<g id="node4" class="node">
<title>build_status</title>
<polygon fill="#efefef" stroke="transparent" points="482,-162.5 482,-197.5 689,-197.5 689,-162.5 482,-162.5"/>
<polygon fill="none" stroke="#000000" points="482,-162.5 482,-197.5 689,-197.5 689,-162.5 482,-162.5"/>
<text text-anchor="start" x="488.8581" y="-175.3" font-family="Arial Bold" font-size="18.00" fill="#000000">build_status</text>
<text text-anchor="start" x="584.8881" y="-175.3" font-family="Arial" font-size="14.00" fill="#000000"> </text>
<text text-anchor="start" x="588.7787" y="-175.3" font-family="Arial" font-size="14.00" fill="#666666">[BASE TABLE]</text>
<polygon fill="none" stroke="#000000" points="482,-132.5 482,-162.5 689,-162.5 689,-132.5 482,-132.5"/>
<text text-anchor="start" x="489" y="-143.9" font-family="Arial" font-size="14.00" fill="#000000">status </text>
<text text-anchor="start" x="530.237" y="-143.9" font-family="Arial" font-size="14.00" fill="#666666">[varchar(10)]</text>
</g>
<!-- build_logs&#45;&gt;build_status -->
<g id="edge3" class="edge">
<title>build_logs:result&#45;&gt;build_status:status</title>
<path fill="none" stroke="#000000" d="M373.1436,-516.9897C447.0501,-509.1007 403.2249,-411.2837 429,-331 454.9491,-250.1742 397.1108,-147.5 482,-147.5"/>
<polygon fill="#000000" stroke="#000000" points="372.9874,-516.9974 362.7739,-513.0057 367.9937,-517.2487 363,-517.5 363,-517.5 363,-517.5 367.9937,-517.2487 363.2261,-521.9943 372.9874,-516.9974 372.9874,-516.9974"/>
<text text-anchor="start" x="370.214" y="-527.5" font-family="Arial" font-size="10.00" fill="#000000">FOREIGN KEY (result) REFERENCES build_status (status)</text>
</g>
<!-- artifacts -->
<g id="node2" class="node">
<title>artifacts</title>
<polygon fill="#efefef" stroke="transparent" points="180,-872.5 180,-907.5 354,-907.5 354,-872.5 180,-872.5"/>
<polygon fill="none" stroke="#000000" points="180,-872.5 180,-907.5 354,-907.5 354,-872.5 180,-872.5"/>
<text text-anchor="start" x="186.8704" y="-885.3" font-family="Arial Bold" font-size="18.00" fill="#000000">artifacts</text>
<text text-anchor="start" x="249.8758" y="-885.3" font-family="Arial" font-size="14.00" fill="#000000"> </text>
<text text-anchor="start" x="253.7664" y="-885.3" font-family="Arial" font-size="14.00" fill="#666666">[BASE TABLE]</text>
<polygon fill="none" stroke="#000000" points="180,-842.5 180,-872.5 354,-872.5 354,-842.5 180,-842.5"/>
<text text-anchor="start" x="187" y="-853.9" font-family="Arial" font-size="14.00" fill="#000000">id </text>
<text text-anchor="start" x="201.7798" y="-853.9" font-family="Arial" font-size="14.00" fill="#666666">[varchar(22)]</text>
<polygon fill="none" stroke="#000000" points="180,-812.5 180,-842.5 354,-842.5 354,-812.5 180,-812.5"/>
<text text-anchor="start" x="187" y="-823.9" font-family="Arial" font-size="14.00" fill="#000000">build_log_id </text>
<text text-anchor="start" x="265.5778" y="-823.9" font-family="Arial" font-size="14.00" fill="#666666">[varchar(22)]</text>
<polygon fill="none" stroke="#000000" points="180,-782.5 180,-812.5 354,-812.5 354,-782.5 180,-782.5"/>
<text text-anchor="start" x="187" y="-793.9" font-family="Arial" font-size="14.00" fill="#000000">size </text>
<text text-anchor="start" x="215.7798" y="-793.9" font-family="Arial" font-size="14.00" fill="#666666">[bigint(20)]</text>
<polygon fill="none" stroke="#000000" points="180,-752.5 180,-782.5 354,-782.5 354,-752.5 180,-752.5"/>
<text text-anchor="start" x="187" y="-763.9" font-family="Arial" font-size="14.00" fill="#000000">created_at </text>
<text text-anchor="start" x="257.028" y="-763.9" font-family="Arial" font-size="14.00" fill="#666666">[datetime(6)]</text>
<polygon fill="none" stroke="#000000" points="180,-722.5 180,-752.5 354,-752.5 354,-722.5 180,-722.5"/>
<text text-anchor="start" x="187" y="-733.9" font-family="Arial" font-size="14.00" fill="#000000">deleted_at </text>
<text text-anchor="start" x="256.2566" y="-733.9" font-family="Arial" font-size="14.00" fill="#666666">[datetime(6)]</text>
</g>
<!-- artifacts&#45;&gt;build_logs -->
<g id="edge1" class="edge">
<title>artifacts:build_log_id&#45;&gt;build_logs:id</title>
<path fill="none" stroke="#000000" d="M364.3,-826.839C478.9114,-811.8652 483.9826,-547.5 363,-547.5"/>
<polygon fill="#000000" stroke="#000000" points="363.9795,-826.8595 353.7118,-823.0092 358.9897,-827.1797 354,-827.5 354,-827.5 354,-827.5 358.9897,-827.1797 354.2882,-831.9908 363.9795,-826.8595 363.9795,-826.8595"/>
<text text-anchor="start" x="361.381" y="-837.5" font-family="Arial" font-size="10.00" fill="#000000">FOREIGN KEY (build_log_id) REFERENCES build_logs (id)</text>
</g>
<!-- branches&#45;&gt;build_logs -->
<g id="edge2" class="edge">
<title>branches:build_id&#45;&gt;build_logs:id</title>
<path fill="none" stroke="#000000" d="M385.8747,-62.3497C429.6871,-113.2396 414.2753,-547.5 363,-547.5"/>
<polygon fill="#000000" stroke="#000000" points="385.7752,-62.2954 379.1579,-53.5511 381.3876,-59.8977 377,-57.5 377,-57.5 377,-57.5 381.3876,-59.8977 374.8421,-61.4489 385.7752,-62.2954 385.7752,-62.2954"/>
<text text-anchor="start" x="383.829" y="-67.5" font-family="Arial" font-size="10.00" fill="#000000">FOREIGN KEY (build_id) REFERENCES build_logs (id)</text>
</g>
</g>
</svg>
