<?xml version="1.0" encoding="UTF-8" standalone="no"?>
<!DOCTYPE svg PUBLIC "-//W3C//DTD SVG 1.1//EN"
        "http://www.w3.org/Graphics/SVG/1.1/DTD/svg11.dtd">
<!-- Generated by graphviz version 2.40.1 (20161225.0304)
 -->
<!-- Title: build_logs Pages: 1 -->
<svg width="881pt" height="989pt"
     viewBox="0.00 0.00 881.00 989.00" xmlns="http://www.w3.org/2000/svg" xmlns:xlink="http://www.w3.org/1999/xlink">
    <g id="graph0" class="graph" transform="scale(1 1) rotate(0) translate(4 985)">
        <title>build_logs</title>
        <polygon fill="#ffffff" stroke="transparent" points="-4,4 -4,-985 877,-985 877,4 -4,4"/>
        <!-- build_logs -->
        <g id="node1" class="node">
            <title>build_logs</title>
            <polygon fill="#efefef" stroke="transparent"
                     points="158,-592.5 158,-627.5 577,-627.5 577,-592.5 158,-592.5"/>
            <polygon fill="none" stroke="#000000" points="158,-592.5 158,-627.5 577,-627.5 577,-592.5 158,-592.5"/>
            <text text-anchor="start" x="278.3632" y="-605.3" font-family="Arial Bold" font-size="18.00" fill="#000000">
                build_logs
            </text>
            <text text-anchor="start" x="359.383" y="-605.3" font-family="Arial" font-size="14.00"
                  fill="#000000"></text>
            <text text-anchor="start" x="363.2736" y="-605.3" font-family="Arial" font-size="14.00" fill="#666666">[BASE
                TABLE]
            </text>
            <polygon fill="none" stroke="#000000" points="158,-562.5 158,-592.5 577,-592.5 577,-562.5 158,-562.5"/>
            <text text-anchor="start" x="165" y="-573.9" font-family="Arial" font-size="14.00" fill="#000000">id</text>
            <text text-anchor="start" x="179.7798" y="-573.9" font-family="Arial" font-size="14.00" fill="#666666">
                [varchar(22)]
            </text>
            <polygon fill="none" stroke="#000000" points="158,-532.5 158,-562.5 577,-562.5 577,-532.5 158,-532.5"/>
            <text text-anchor="start" x="165" y="-543.9" font-family="Arial" font-size="14.00" fill="#000000">
                application_id
            </text>
            <text text-anchor="start" x="254.4684" y="-543.9" font-family="Arial" font-size="14.00" fill="#666666">
                [varchar(22)]
            </text>
            <polygon fill="none" stroke="#000000" points="158,-502.5 158,-532.5 577,-532.5 577,-502.5 158,-502.5"/>
            <text text-anchor="start" x="164.5742" y="-513.9" font-family="Arial" font-size="14.00" fill="#000000">
                result
            </text>
            <text text-anchor="start" x="202.6878" y="-513.9" font-family="Arial" font-size="14.00" fill="#666666">
                [enum(&#39;BUILDING&#39;,&#39;SUCCEEDED&#39;,&#39;FAILED&#39;,&#39;CANCELED&#39;)]
            </text>
            <polygon fill="none" stroke="#000000" points="158,-472.5 158,-502.5 577,-502.5 577,-472.5 158,-472.5"/>
            <text text-anchor="start" x="165" y="-483.9" font-family="Arial" font-size="14.00" fill="#000000">
                started_at
            </text>
            <text text-anchor="start" x="231.136" y="-483.9" font-family="Arial" font-size="14.00" fill="#666666">
                [datetime(6)]
            </text>
            <polygon fill="none" stroke="#000000" points="158,-442.5 158,-472.5 577,-472.5 577,-442.5 158,-442.5"/>
            <text text-anchor="start" x="165" y="-453.9" font-family="Arial" font-size="14.00" fill="#000000">
                finished_at
            </text>
            <text text-anchor="start" x="236.5806" y="-453.9" font-family="Arial" font-size="14.00" fill="#666666">
                [datetime(6)]
            </text>
            <polygon fill="none" stroke="#000000" stroke-width="3"
                     points="156,-441.5 156,-629.5 578,-629.5 578,-441.5 156,-441.5"/>
        </g>
        <!-- applications -->
        <g id="node3" class="node">
            <title>applications</title>
            <polygon fill="#efefef" stroke="transparent"
                     points="258,-282.5 258,-317.5 478,-317.5 478,-282.5 258,-282.5"/>
            <polygon fill="none" stroke="#000000" points="258,-282.5 258,-317.5 478,-317.5 478,-282.5 258,-282.5"/>
            <text text-anchor="start" x="271.8621" y="-295.3" font-family="Arial Bold" font-size="18.00" fill="#000000">
                applications
            </text>
            <text text-anchor="start" x="366.8841" y="-295.3" font-family="Arial" font-size="14.00"
                  fill="#000000"></text>
            <text text-anchor="start" x="370.7747" y="-295.3" font-family="Arial" font-size="14.00" fill="#666666">[BASE
                TABLE]
            </text>
            <polygon fill="none" stroke="#000000" points="258,-252.5 258,-282.5 478,-282.5 478,-252.5 258,-252.5"/>
            <text text-anchor="start" x="265" y="-263.9" font-family="Arial" font-size="14.00" fill="#000000">id</text>
            <text text-anchor="start" x="279.7798" y="-263.9" font-family="Arial" font-size="14.00" fill="#666666">
                [varchar(22)]
            </text>
            <polygon fill="none" stroke="#000000" points="258,-222.5 258,-252.5 478,-252.5 478,-222.5 258,-222.5"/>
            <text text-anchor="start" x="265" y="-233.9" font-family="Arial" font-size="14.00" fill="#000000">owner
            </text>
            <text text-anchor="start" x="307.0056" y="-233.9" font-family="Arial" font-size="14.00" fill="#666666">
                [varchar(100)]
            </text>
            <polygon fill="none" stroke="#000000" points="258,-192.5 258,-222.5 478,-222.5 478,-192.5 258,-192.5"/>
            <text text-anchor="start" x="265" y="-203.9" font-family="Arial" font-size="14.00" fill="#000000">name
            </text>
            <text text-anchor="start" x="303.899" y="-203.9" font-family="Arial" font-size="14.00" fill="#666666">
                [varchar(100)]
            </text>
            <polygon fill="none" stroke="#000000" points="258,-162.5 258,-192.5 478,-192.5 478,-162.5 258,-162.5"/>
            <text text-anchor="start" x="265" y="-173.9" font-family="Arial" font-size="14.00" fill="#000000">
                repository_id
            </text>
            <text text-anchor="start" x="349.0112" y="-173.9" font-family="Arial" font-size="14.00" fill="#666666">
                [varchar(22)]
            </text>
            <polygon fill="none" stroke="#000000" points="258,-132.5 258,-162.5 478,-162.5 478,-132.5 258,-132.5"/>
            <text text-anchor="start" x="265" y="-143.9" font-family="Arial" font-size="14.00" fill="#000000">
                created_at
            </text>
            <text text-anchor="start" x="335.028" y="-143.9" font-family="Arial" font-size="14.00" fill="#666666">
                [datetime(6)]
            </text>
            <polygon fill="none" stroke="#000000" points="258,-102.5 258,-132.5 478,-132.5 478,-102.5 258,-102.5"/>
            <text text-anchor="start" x="265" y="-113.9" font-family="Arial" font-size="14.00" fill="#000000">
                updated_at
            </text>
            <text text-anchor="start" x="338.9326" y="-113.9" font-family="Arial" font-size="14.00" fill="#666666">
                [datetime(6)]
            </text>
            <polygon fill="none" stroke="#000000" points="258,-72.5 258,-102.5 478,-102.5 478,-72.5 258,-72.5"/>
            <text text-anchor="start" x="265" y="-83.9" font-family="Arial" font-size="14.00" fill="#000000">
                deleted_at
            </text>
            <text text-anchor="start" x="334.2566" y="-83.9" font-family="Arial" font-size="14.00" fill="#666666">
                [datetime(6)]
            </text>
            <polygon fill="none" stroke="#000000" points="258,-42.5 258,-72.5 478,-72.5 478,-42.5 258,-42.5"/>
            <text text-anchor="start" x="264.5764" y="-53.9" font-family="Arial" font-size="14.00" fill="#000000">
                build_type
            </text>
            <text text-anchor="start" x="332.2664" y="-53.9" font-family="Arial" font-size="14.00" fill="#666666">[enum(&#39;image&#39;,&#39;static&#39;)]</text>
        </g>
        <!-- build_logs&#45;&gt;applications -->
        <g id="edge2" class="edge">
            <title>build_logs:application_id&#45;&gt;applications:id</title>
            <path fill="none" stroke="#000000"
                  d="M587.1845,-546.622C641.3809,-536.6463 619.1295,-444.1514 577,-397 481.9366,-290.605 353.0634,-467.395 258,-361 230.3123,-330.012 216.4444,-267.5 258,-267.5"/>
            <polygon fill="#000000" stroke="#000000"
                     points="586.963,-546.641 576.6134,-543.0166 581.9815,-547.0705 577,-547.5 577,-547.5 577,-547.5 581.9815,-547.0705 577.3866,-551.9834 586.963,-546.641 586.963,-546.641"/>
            <text text-anchor="start" x="583.602" y="-557.5" font-family="Arial" font-size="10.00" fill="#000000">
                FOREIGN KEY (application_id) REFERENCES applications (id)
            </text>
        </g>
        <!-- artifacts -->
        <g id="node2" class="node">
            <title>artifacts</title>
            <polygon fill="#efefef" stroke="transparent"
                     points="281,-902.5 281,-937.5 455,-937.5 455,-902.5 281,-902.5"/>
            <polygon fill="none" stroke="#000000" points="281,-902.5 281,-937.5 455,-937.5 455,-902.5 281,-902.5"/>
            <text text-anchor="start" x="287.8704" y="-915.3" font-family="Arial Bold" font-size="18.00" fill="#000000">
                artifacts
            </text>
            <text text-anchor="start" x="350.8758" y="-915.3" font-family="Arial" font-size="14.00"
                  fill="#000000"></text>
            <text text-anchor="start" x="354.7664" y="-915.3" font-family="Arial" font-size="14.00" fill="#666666">[BASE
                TABLE]
            </text>
            <polygon fill="none" stroke="#000000" points="281,-872.5 281,-902.5 455,-902.5 455,-872.5 281,-872.5"/>
            <text text-anchor="start" x="288" y="-883.9" font-family="Arial" font-size="14.00" fill="#000000">id</text>
            <text text-anchor="start" x="302.7798" y="-883.9" font-family="Arial" font-size="14.00" fill="#666666">
                [varchar(22)]
            </text>
            <polygon fill="none" stroke="#000000" points="281,-842.5 281,-872.5 455,-872.5 455,-842.5 281,-842.5"/>
            <text text-anchor="start" x="288" y="-853.9" font-family="Arial" font-size="14.00" fill="#000000">
                build_log_id
            </text>
            <text text-anchor="start" x="366.5778" y="-853.9" font-family="Arial" font-size="14.00" fill="#666666">
                [varchar(22)]
            </text>
            <polygon fill="none" stroke="#000000" points="281,-812.5 281,-842.5 455,-842.5 455,-812.5 281,-812.5"/>
            <text text-anchor="start" x="288" y="-823.9" font-family="Arial" font-size="14.00" fill="#000000">size
            </text>
            <text text-anchor="start" x="316.7798" y="-823.9" font-family="Arial" font-size="14.00" fill="#666666">
                [bigint(20)]
            </text>
            <polygon fill="none" stroke="#000000" points="281,-782.5 281,-812.5 455,-812.5 455,-782.5 281,-782.5"/>
            <text text-anchor="start" x="288" y="-793.9" font-family="Arial" font-size="14.00" fill="#000000">
                created_at
            </text>
            <text text-anchor="start" x="358.028" y="-793.9" font-family="Arial" font-size="14.00" fill="#666666">
                [datetime(6)]
            </text>
            <polygon fill="none" stroke="#000000" points="281,-752.5 281,-782.5 455,-782.5 455,-752.5 281,-752.5"/>
            <text text-anchor="start" x="288" y="-763.9" font-family="Arial" font-size="14.00" fill="#000000">
                deleted_at
            </text>
            <text text-anchor="start" x="357.2566" y="-763.9" font-family="Arial" font-size="14.00" fill="#666666">
                [datetime(6)]
            </text>
        </g>
        <!-- artifacts&#45;&gt;build_logs -->
        <g id="edge1" class="edge">
            <title>artifacts:build_log_id&#45;&gt;build_logs:id</title>
            <path fill="none" stroke="#000000"
                  d="M271.0203,-856.6411C217.9244,-846.8822 239.9105,-756.3896 281,-710 368.8705,-610.795 489.1295,-773.205 577,-674 605.4374,-641.8944 619.8889,-577.5 577,-577.5"/>
            <polygon fill="#000000" stroke="#000000"
                     points="271.0368,-856.6424 280.6141,-861.9834 276.0184,-857.0712 281,-857.5 281,-857.5 281,-857.5 276.0184,-857.0712 281.3859,-853.0166 271.0368,-856.6424 271.0368,-856.6424"/>
            <text text-anchor="start" x="7.381" y="-867.5" font-family="Arial" font-size="10.00" fill="#000000">FOREIGN
                KEY (build_log_id) REFERENCES build_logs (id)
            </text>
        </g>
    </g>
</svg>
