<?xml version="1.0" encoding="UTF-8" standalone="no"?>
<!DOCTYPE svg PUBLIC "-//W3C//DTD SVG 1.1//EN"
        "http://www.w3.org/Graphics/SVG/1.1/DTD/svg11.dtd">
<!-- Generated by graphviz version 2.40.1 (20161225.0304)
 -->
<!-- Title: build_logs Pages: 1 -->
<svg width="656pt" height="989pt"
     viewBox="0.00 0.00 656.00 989.00" xmlns="http://www.w3.org/2000/svg" xmlns:xlink="http://www.w3.org/1999/xlink">
    <g id="graph0" class="graph" transform="scale(1 1) rotate(0) translate(4 985)">
        <title>build_logs</title>
        <polygon fill="#ffffff" stroke="transparent" points="-4,4 -4,-985 652,-985 652,4 -4,4"/>
        <!-- build_logs -->
        <g id="node1" class="node">
            <title>build_logs</title>
            <polygon fill="#efefef" stroke="transparent"
                     points="127,-532.5 127,-567.5 546,-567.5 546,-532.5 127,-532.5"/>
            <polygon fill="none" stroke="#000000" points="127,-532.5 127,-567.5 546,-567.5 546,-532.5 127,-532.5"/>
            <text text-anchor="start" x="247.3632" y="-545.3" font-family="Arial Bold" font-size="18.00" fill="#000000">
                build_logs
            </text>
            <text text-anchor="start" x="328.383" y="-545.3" font-family="Arial" font-size="14.00"
                  fill="#000000"></text>
            <text text-anchor="start" x="332.2736" y="-545.3" font-family="Arial" font-size="14.00" fill="#666666">[BASE
                TABLE]
            </text>
            <polygon fill="none" stroke="#000000" points="127,-502.5 127,-532.5 546,-532.5 546,-502.5 127,-502.5"/>
            <text text-anchor="start" x="134" y="-513.9" font-family="Arial" font-size="14.00" fill="#000000">id</text>
            <text text-anchor="start" x="148.7798" y="-513.9" font-family="Arial" font-size="14.00" fill="#666666">
                [varchar(22)]
            </text>
            <polygon fill="none" stroke="#000000" points="127,-472.5 127,-502.5 546,-502.5 546,-472.5 127,-472.5"/>
            <text text-anchor="start" x="133.5742" y="-483.9" font-family="Arial" font-size="14.00" fill="#000000">
                result
            </text>
            <text text-anchor="start" x="171.6878" y="-483.9" font-family="Arial" font-size="14.00" fill="#666666">
                [enum(&#39;BUILDING&#39;,&#39;SUCCEEDED&#39;,&#39;FAILED&#39;,&#39;CANCELED&#39;)]
            </text>
            <polygon fill="none" stroke="#000000" points="127,-442.5 127,-472.5 546,-472.5 546,-442.5 127,-442.5"/>
            <text text-anchor="start" x="134" y="-453.9" font-family="Arial" font-size="14.00" fill="#000000">
                started_at
            </text>
            <text text-anchor="start" x="200.136" y="-453.9" font-family="Arial" font-size="14.00" fill="#666666">
                [datetime(6)]
            </text>
            <polygon fill="none" stroke="#000000" points="127,-412.5 127,-442.5 546,-442.5 546,-412.5 127,-412.5"/>
            <text text-anchor="start" x="134" y="-423.9" font-family="Arial" font-size="14.00" fill="#000000">
                finished_at
            </text>
            <text text-anchor="start" x="205.5806" y="-423.9" font-family="Arial" font-size="14.00" fill="#666666">
                [datetime(6)]
            </text>
            <polygon fill="none" stroke="#000000" points="127,-382.5 127,-412.5 546,-412.5 546,-382.5 127,-382.5"/>
            <text text-anchor="start" x="134" y="-393.9" font-family="Arial" font-size="14.00" fill="#000000">
                environment_id
            </text>
            <text text-anchor="start" x="233.5764" y="-393.9" font-family="Arial" font-size="14.00" fill="#666666">
                [varchar(22)]
            </text>
            <polygon fill="none" stroke="#000000" stroke-width="3"
                     points="125,-381.5 125,-569.5 547,-569.5 547,-381.5 125,-381.5"/>
        </g>
        <!-- environments -->
        <g id="node4" class="node">
            <title>environments</title>
            <polygon fill="#efefef" stroke="transparent"
                     points="227,-222.5 227,-257.5 447,-257.5 447,-222.5 227,-222.5"/>
            <polygon fill="none" stroke="#000000" points="227,-222.5 227,-257.5 447,-257.5 447,-222.5 227,-222.5"/>
            <text text-anchor="start" x="234.3641" y="-235.3" font-family="Arial Bold" font-size="18.00" fill="#000000">
                environments
            </text>
            <text text-anchor="start" x="342.3821" y="-235.3" font-family="Arial" font-size="14.00"
                  fill="#000000"></text>
            <text text-anchor="start" x="346.2727" y="-235.3" font-family="Arial" font-size="14.00" fill="#666666">[BASE
                TABLE]
            </text>
            <polygon fill="none" stroke="#000000" points="227,-192.5 227,-222.5 447,-222.5 447,-192.5 227,-192.5"/>
            <text text-anchor="start" x="234" y="-203.9" font-family="Arial" font-size="14.00" fill="#000000">id</text>
            <text text-anchor="start" x="248.7798" y="-203.9" font-family="Arial" font-size="14.00" fill="#666666">
                [varchar(22)]
            </text>
            <polygon fill="none" stroke="#000000" points="227,-162.5 227,-192.5 447,-192.5 447,-162.5 227,-162.5"/>
            <text text-anchor="start" x="234" y="-173.9" font-family="Arial" font-size="14.00" fill="#000000">
                application_id
            </text>
            <text text-anchor="start" x="323.4684" y="-173.9" font-family="Arial" font-size="14.00" fill="#666666">
                [varchar(22)]
            </text>
            <polygon fill="none" stroke="#000000" points="227,-132.5 227,-162.5 447,-162.5 447,-132.5 227,-132.5"/>
            <text text-anchor="start" x="234" y="-143.9" font-family="Arial" font-size="14.00" fill="#000000">
                branch_name
            </text>
            <text text-anchor="start" x="323.4726" y="-143.9" font-family="Arial" font-size="14.00" fill="#666666">
                [varchar(100)]
            </text>
            <polygon fill="none" stroke="#000000" points="227,-102.5 227,-132.5 447,-132.5 447,-102.5 227,-102.5"/>
            <text text-anchor="start" x="233.5764" y="-113.9" font-family="Arial" font-size="14.00" fill="#000000">
                build_type
            </text>
            <text text-anchor="start" x="301.2664" y="-113.9" font-family="Arial" font-size="14.00" fill="#666666">
                [enum(&#39;image&#39;,&#39;static&#39;)]
            </text>
            <polygon fill="none" stroke="#000000" points="227,-72.5 227,-102.5 447,-102.5 447,-72.5 227,-72.5"/>
            <text text-anchor="start" x="234" y="-83.9" font-family="Arial" font-size="14.00" fill="#000000">
                created_at
            </text>
            <text text-anchor="start" x="304.028" y="-83.9" font-family="Arial" font-size="14.00" fill="#666666">
                [datetime(6)]
            </text>
            <polygon fill="none" stroke="#000000" points="227,-42.5 227,-72.5 447,-72.5 447,-42.5 227,-42.5"/>
            <text text-anchor="start" x="234" y="-53.9" font-family="Arial" font-size="14.00" fill="#000000">
                updated_at
            </text>
            <text text-anchor="start" x="307.9326" y="-53.9" font-family="Arial" font-size="14.00" fill="#666666">
                [datetime(6)]
            </text>
        </g>
        <!-- build_logs&#45;&gt;environments -->
        <g id="edge3" class="edge">
            <title>build_logs:environment_id&#45;&gt;environments:id</title>
            <path fill="none" stroke="#000000"
                  d="M336.1219,-372.4471C327.1966,-325.4112 252.7127,-352.0519 227,-301 208.3073,-263.886 185.4444,-207.5 227,-207.5"/>
            <polygon fill="#000000" stroke="#000000"
                     points="336.1297,-372.5379 332.5171,-382.8916 336.5649,-377.519 337,-382.5 337,-382.5 337,-382.5 336.5649,-377.519 341.4829,-382.1084 336.1297,-372.5379 336.1297,-372.5379"/>
            <text text-anchor="start" x="344.382" y="-392.5" font-family="Arial" font-size="10.00" fill="#000000">
                FOREIGN KEY (environment_id) REFERENCES environments (id)
            </text>
        </g>
        <!-- artifacts -->
        <g id="node2" class="node">
            <title>artifacts</title>
            <polygon fill="#efefef" stroke="transparent"
                     points="107,-872.5 107,-907.5 281,-907.5 281,-872.5 107,-872.5"/>
            <polygon fill="none" stroke="#000000" points="107,-872.5 107,-907.5 281,-907.5 281,-872.5 107,-872.5"/>
            <text text-anchor="start" x="113.8704" y="-885.3" font-family="Arial Bold" font-size="18.00" fill="#000000">
                artifacts
            </text>
            <text text-anchor="start" x="176.8758" y="-885.3" font-family="Arial" font-size="14.00"
                  fill="#000000"></text>
            <text text-anchor="start" x="180.7664" y="-885.3" font-family="Arial" font-size="14.00" fill="#666666">[BASE
                TABLE]
            </text>
            <polygon fill="none" stroke="#000000" points="107,-842.5 107,-872.5 281,-872.5 281,-842.5 107,-842.5"/>
            <text text-anchor="start" x="114" y="-853.9" font-family="Arial" font-size="14.00" fill="#000000">id</text>
            <text text-anchor="start" x="128.7798" y="-853.9" font-family="Arial" font-size="14.00" fill="#666666">
                [varchar(22)]
            </text>
            <polygon fill="none" stroke="#000000" points="107,-812.5 107,-842.5 281,-842.5 281,-812.5 107,-812.5"/>
            <text text-anchor="start" x="114" y="-823.9" font-family="Arial" font-size="14.00" fill="#000000">
                build_log_id
            </text>
            <text text-anchor="start" x="192.5778" y="-823.9" font-family="Arial" font-size="14.00" fill="#666666">
                [varchar(22)]
            </text>
            <polygon fill="none" stroke="#000000" points="107,-782.5 107,-812.5 281,-812.5 281,-782.5 107,-782.5"/>
            <text text-anchor="start" x="114" y="-793.9" font-family="Arial" font-size="14.00" fill="#000000">size
            </text>
            <text text-anchor="start" x="142.7798" y="-793.9" font-family="Arial" font-size="14.00" fill="#666666">
                [bigint(20)]
            </text>
            <polygon fill="none" stroke="#000000" points="107,-752.5 107,-782.5 281,-782.5 281,-752.5 107,-752.5"/>
            <text text-anchor="start" x="114" y="-763.9" font-family="Arial" font-size="14.00" fill="#000000">
                created_at
            </text>
            <text text-anchor="start" x="184.028" y="-763.9" font-family="Arial" font-size="14.00" fill="#666666">
                [datetime(6)]
            </text>
            <polygon fill="none" stroke="#000000" points="107,-722.5 107,-752.5 281,-752.5 281,-722.5 107,-722.5"/>
            <text text-anchor="start" x="114" y="-733.9" font-family="Arial" font-size="14.00" fill="#000000">
                deleted_at
            </text>
            <text text-anchor="start" x="183.2566" y="-733.9" font-family="Arial" font-size="14.00" fill="#666666">
                [datetime(6)]
            </text>
        </g>
        <!-- artifacts&#45;&gt;build_logs -->
        <g id="edge1" class="edge">
            <title>artifacts:build_log_id&#45;&gt;build_logs:id</title>
            <path fill="none" stroke="#000000"
                  d="M291.2408,-826.6309C343.1962,-817.1128 315.0437,-731.6286 281,-680 240.0075,-617.8333 167.9925,-676.1667 127,-614 103.3901,-578.1946 84.1111,-517.5 127,-517.5"/>
            <polygon fill="#000000" stroke="#000000"
                     points="290.9642,-826.6543 280.6194,-823.0161 285.9821,-827.0771 281,-827.5 281,-827.5 281,-827.5 285.9821,-827.0771 281.3806,-831.9839 290.9642,-826.6543 290.9642,-826.6543"/>
            <text text-anchor="start" x="7.381" y="-837.5" font-family="Arial" font-size="10.00" fill="#000000">FOREIGN
                KEY (build_log_id) REFERENCES build_logs (id)
            </text>
        </g>
        <!-- websites -->
        <g id="node3" class="node">
            <title>websites</title>
            <polygon fill="#efefef" stroke="transparent"
                     points="385,-902.5 385,-937.5 577,-937.5 577,-902.5 385,-902.5"/>
            <polygon fill="none" stroke="#000000" points="385,-902.5 385,-937.5 577,-937.5 577,-902.5 385,-902.5"/>
            <text text-anchor="start" x="397.3685" y="-915.3" font-family="Arial Bold" font-size="18.00" fill="#000000">
                websites
            </text>
            <text text-anchor="start" x="467.3777" y="-915.3" font-family="Arial" font-size="14.00"
                  fill="#000000"></text>
            <text text-anchor="start" x="471.2683" y="-915.3" font-family="Arial" font-size="14.00" fill="#666666">[BASE
                TABLE]
            </text>
            <polygon fill="none" stroke="#000000" points="385,-872.5 385,-902.5 577,-902.5 577,-872.5 385,-872.5"/>
            <text text-anchor="start" x="392" y="-883.9" font-family="Arial" font-size="14.00" fill="#000000">id</text>
            <text text-anchor="start" x="406.7798" y="-883.9" font-family="Arial" font-size="14.00" fill="#666666">
                [varchar(22)]
            </text>
            <polygon fill="none" stroke="#000000" points="385,-842.5 385,-872.5 577,-872.5 577,-842.5 385,-842.5"/>
            <text text-anchor="start" x="392" y="-853.9" font-family="Arial" font-size="14.00" fill="#000000">fqdn
            </text>
            <text text-anchor="start" x="423.129" y="-853.9" font-family="Arial" font-size="14.00" fill="#666666">
                [varchar(50)]
            </text>
            <polygon fill="none" stroke="#000000" points="385,-812.5 385,-842.5 577,-842.5 577,-812.5 385,-812.5"/>
            <text text-anchor="start" x="392" y="-823.9" font-family="Arial" font-size="14.00" fill="#000000">build_id
            </text>
            <text text-anchor="start" x="444.1234" y="-823.9" font-family="Arial" font-size="14.00" fill="#666666">
                [varchar(22)]
            </text>
            <polygon fill="none" stroke="#000000" points="385,-782.5 385,-812.5 577,-812.5 577,-782.5 385,-782.5"/>
            <text text-anchor="start" x="392" y="-793.9" font-family="Arial" font-size="14.00" fill="#000000">
                http_port
            </text>
            <text text-anchor="start" x="451.136" y="-793.9" font-family="Arial" font-size="14.00" fill="#666666">
                [int(11)]
            </text>
            <polygon fill="none" stroke="#000000" points="385,-752.5 385,-782.5 577,-782.5 577,-752.5 385,-752.5"/>
            <text text-anchor="start" x="392" y="-763.9" font-family="Arial" font-size="14.00" fill="#000000">
                created_at
            </text>
            <text text-anchor="start" x="462.028" y="-763.9" font-family="Arial" font-size="14.00" fill="#666666">
                [datetime(6)]
            </text>
            <polygon fill="none" stroke="#000000" points="385,-722.5 385,-752.5 577,-752.5 577,-722.5 385,-722.5"/>
            <text text-anchor="start" x="392" y="-733.9" font-family="Arial" font-size="14.00" fill="#000000">
                updated_at
            </text>
            <text text-anchor="start" x="465.9326" y="-733.9" font-family="Arial" font-size="14.00" fill="#666666">
                [datetime(6)]
            </text>
            <polygon fill="none" stroke="#000000" points="385,-692.5 385,-722.5 577,-722.5 577,-692.5 385,-692.5"/>
            <text text-anchor="start" x="391.5435" y="-703.9" font-family="Arial" font-size="14.00" fill="#000000">
                environment_id
            </text>
            <text text-anchor="start" x="491.1199" y="-703.9" font-family="Arial" font-size="14.00" fill="#666666">
                [varchar(22)]
            </text>
        </g>
        <!-- websites&#45;&gt;build_logs -->
        <g id="edge2" class="edge">
            <title>websites:build_id&#45;&gt;build_logs:id</title>
            <path fill="none" stroke="#000000"
                  d="M375.017,-826.8136C308.8073,-817.194 337.8932,-708.8033 385,-650 430.8423,-592.7752 500.1577,-671.2248 546,-614 572.8148,-580.5272 588.8889,-517.5 546,-517.5"/>
            <polygon fill="#000000" stroke="#000000"
                     points="375.0236,-826.814 384.6913,-831.9894 380.0118,-827.157 385,-827.5 385,-827.5 385,-827.5 380.0118,-827.157 385.3087,-823.0106 375.0236,-826.814 375.0236,-826.814"/>
            <text text-anchor="start" x="391.829" y="-837.5" font-family="Arial" font-size="10.00" fill="#000000">
                FOREIGN KEY (build_id) REFERENCES build_logs (id)
            </text>
        </g>
    </g>
</svg>
