<?xml version="1.0" encoding="UTF-8" standalone="no"?>
<!DOCTYPE svg PUBLIC "-//W3C//DTD SVG 1.1//EN"
 "http://www.w3.org/Graphics/SVG/1.1/DTD/svg11.dtd">
<!-- Generated by graphviz version 2.40.1 (20161225.0304)
 -->
<!-- Title: builds Pages: 1 -->
<svg width="767pt" height="929pt"
 viewBox="0.00 0.00 767.00 929.00" xmlns="http://www.w3.org/2000/svg" xmlns:xlink="http://www.w3.org/1999/xlink">
<g id="graph0" class="graph" transform="scale(1 1) rotate(0) translate(4 925)">
<title>builds</title>
<polygon fill="#ffffff" stroke="transparent" points="-4,4 -4,-925 763,-925 763,4 -4,4"/>
<!-- builds -->
<g id="node1" class="node">
<title>builds</title>
<polygon fill="#efefef" stroke="transparent" points="281,-532.5 281,-567.5 463,-567.5 463,-532.5 281,-532.5"/>
<polygon fill="none" stroke="#000000" points="281,-532.5 281,-567.5 463,-567.5 463,-532.5 281,-532.5"/>
<text text-anchor="start" x="299.8696" y="-545.3" font-family="Arial Bold" font-size="18.00" fill="#000000">builds</text>
<text text-anchor="start" x="346.8766" y="-545.3" font-family="Arial" font-size="14.00" fill="#000000"> </text>
<text text-anchor="start" x="350.7672" y="-545.3" font-family="Arial" font-size="14.00" fill="#666666">[BASE TABLE]</text>
<polygon fill="none" stroke="#000000" points="281,-502.5 281,-532.5 463,-532.5 463,-502.5 281,-502.5"/>
<text text-anchor="start" x="288" y="-513.9" font-family="Arial" font-size="14.00" fill="#000000">id </text>
<text text-anchor="start" x="302.7798" y="-513.9" font-family="Arial" font-size="14.00" fill="#666666">[varchar(22)]</text>
<polygon fill="none" stroke="#000000" points="281,-472.5 281,-502.5 463,-502.5 463,-472.5 281,-472.5"/>
<text text-anchor="start" x="288" y="-483.9" font-family="Arial" font-size="14.00" fill="#000000">status </text>
<text text-anchor="start" x="329.237" y="-483.9" font-family="Arial" font-size="14.00" fill="#666666">[varchar(10)]</text>
<polygon fill="none" stroke="#000000" points="281,-442.5 281,-472.5 463,-472.5 463,-442.5 281,-442.5"/>
<text text-anchor="start" x="288" y="-453.9" font-family="Arial" font-size="14.00" fill="#000000">started_at </text>
<text text-anchor="start" x="354.136" y="-453.9" font-family="Arial" font-size="14.00" fill="#666666">[datetime(6)]</text>
<polygon fill="none" stroke="#000000" points="281,-412.5 281,-442.5 463,-442.5 463,-412.5 281,-412.5"/>
<text text-anchor="start" x="288" y="-423.9" font-family="Arial" font-size="14.00" fill="#000000">finished_at </text>
<text text-anchor="start" x="359.5806" y="-423.9" font-family="Arial" font-size="14.00" fill="#666666">[datetime(6)]</text>
<polygon fill="none" stroke="#000000" points="281,-382.5 281,-412.5 463,-412.5 463,-382.5 281,-382.5"/>
<text text-anchor="start" x="287.5975" y="-393.9" font-family="Arial" font-size="14.00" fill="#000000">application_id </text>
<text text-anchor="start" x="377.0659" y="-393.9" font-family="Arial" font-size="14.00" fill="#666666">[varchar(22)]</text>
<polygon fill="none" stroke="#000000" stroke-width="3" points="279.5,-381.5 279.5,-569.5 464.5,-569.5 464.5,-381.5 279.5,-381.5"/>
</g>
<!-- build_status -->
<g id="node3" class="node">
<title>build_status</title>
<polygon fill="#efefef" stroke="transparent" points="110,-147.5 110,-182.5 317,-182.5 317,-147.5 110,-147.5"/>
<polygon fill="none" stroke="#000000" points="110,-147.5 110,-182.5 317,-182.5 317,-147.5 110,-147.5"/>
<text text-anchor="start" x="116.8581" y="-160.3" font-family="Arial Bold" font-size="18.00" fill="#000000">build_status</text>
<text text-anchor="start" x="212.8881" y="-160.3" font-family="Arial" font-size="14.00" fill="#000000"> </text>
<text text-anchor="start" x="216.7787" y="-160.3" font-family="Arial" font-size="14.00" fill="#666666">[BASE TABLE]</text>
<polygon fill="none" stroke="#000000" points="110,-117.5 110,-147.5 317,-147.5 317,-117.5 110,-117.5"/>
<text text-anchor="start" x="117" y="-128.9" font-family="Arial" font-size="14.00" fill="#000000">status </text>
<text text-anchor="start" x="158.237" y="-128.9" font-family="Arial" font-size="14.00" fill="#666666">[varchar(10)]</text>
</g>
<!-- builds&#45;&gt;build_status -->
<g id="edge2" class="edge">
<title>builds:status&#45;&gt;build_status:status</title>
<path fill="none" stroke="#000000" d="M270.7293,-487.0787C172.005,-478.4277 299.2511,-338.2577 317,-226 323.4897,-184.9543 358.5556,-132.5 317,-132.5"/>
<polygon fill="#000000" stroke="#000000" points="271.0084,-487.0901 280.8155,-491.9962 276.0042,-487.295 281,-487.5 281,-487.5 281,-487.5 276.0042,-487.295 281.1845,-483.0038 271.0084,-487.0901 271.0084,-487.0901"/>
<text text-anchor="start" x="7.0985" y="-497.5" font-family="Arial" font-size="10.00" fill="#000000">FOREIGN KEY (status) REFERENCES build_status (status)</text>
</g>
<!-- applications -->
<g id="node4" class="node">
<title>applications</title>
<polygon fill="#efefef" stroke="transparent" points="421,-222.5 421,-257.5 641,-257.5 641,-222.5 421,-222.5"/>
<polygon fill="none" stroke="#000000" points="421,-222.5 421,-257.5 641,-257.5 641,-222.5 421,-222.5"/>
<text text-anchor="start" x="434.8621" y="-235.3" font-family="Arial Bold" font-size="18.00" fill="#000000">applications</text>
<text text-anchor="start" x="529.8841" y="-235.3" font-family="Arial" font-size="14.00" fill="#000000"> </text>
<text text-anchor="start" x="533.7747" y="-235.3" font-family="Arial" font-size="14.00" fill="#666666">[BASE TABLE]</text>
<polygon fill="none" stroke="#000000" points="421,-192.5 421,-222.5 641,-222.5 641,-192.5 421,-192.5"/>
<text text-anchor="start" x="428" y="-203.9" font-family="Arial" font-size="14.00" fill="#000000">id </text>
<text text-anchor="start" x="442.7798" y="-203.9" font-family="Arial" font-size="14.00" fill="#666666">[varchar(22)]</text>
<polygon fill="none" stroke="#000000" points="421,-162.5 421,-192.5 641,-192.5 641,-162.5 421,-162.5"/>
<text text-anchor="start" x="428" y="-173.9" font-family="Arial" font-size="14.00" fill="#000000">repository_id </text>
<text text-anchor="start" x="512.0112" y="-173.9" font-family="Arial" font-size="14.00" fill="#666666">[varchar(22)]</text>
<polygon fill="none" stroke="#000000" points="421,-132.5 421,-162.5 641,-162.5 641,-132.5 421,-132.5"/>
<text text-anchor="start" x="428" y="-143.9" font-family="Arial" font-size="14.00" fill="#000000">branch_name </text>
<text text-anchor="start" x="517.4726" y="-143.9" font-family="Arial" font-size="14.00" fill="#666666">[varchar(100)]</text>
<polygon fill="none" stroke="#000000" points="421,-102.5 421,-132.5 641,-132.5 641,-102.5 421,-102.5"/>
<text text-anchor="start" x="427.5764" y="-113.9" font-family="Arial" font-size="14.00" fill="#000000">build_type </text>
<text text-anchor="start" x="495.2664" y="-113.9" font-family="Arial" font-size="14.00" fill="#666666">[enum(&#39;image&#39;,&#39;static&#39;)]</text>
<polygon fill="none" stroke="#000000" points="421,-72.5 421,-102.5 641,-102.5 641,-72.5 421,-72.5"/>
<text text-anchor="start" x="428" y="-83.9" font-family="Arial" font-size="14.00" fill="#000000">created_at </text>
<text text-anchor="start" x="498.028" y="-83.9" font-family="Arial" font-size="14.00" fill="#666666">[datetime(6)]</text>
<polygon fill="none" stroke="#000000" points="421,-42.5 421,-72.5 641,-72.5 641,-42.5 421,-42.5"/>
<text text-anchor="start" x="428" y="-53.9" font-family="Arial" font-size="14.00" fill="#000000">updated_at </text>
<text text-anchor="start" x="501.9326" y="-53.9" font-family="Arial" font-size="14.00" fill="#666666">[datetime(6)]</text>
</g>
<!-- builds&#45;&gt;applications -->
<g id="edge3" class="edge">
<title>builds:application_id&#45;&gt;applications:id</title>
<path fill="none" stroke="#000000" d="M473.0065,-394.798C484.8716,-385.9775 472.3923,-357.421 463,-337 452.7268,-314.6638 431.2732,-323.3362 421,-301 403.6357,-263.2462 379.4444,-207.5 421,-207.5"/>
<polygon fill="#000000" stroke="#000000" points="472.6542,-394.893 461.8269,-393.1556 467.8271,-396.1965 463,-397.5 463,-397.5 463,-397.5 467.8271,-396.1965 464.1731,-401.8444 472.6542,-394.893 472.6542,-394.893"/>
<text text-anchor="start" x="469.602" y="-407.5" font-family="Arial" font-size="10.00" fill="#000000">FOREIGN KEY (application_id) REFERENCES applications (id)</text>
</g>
<!-- artifacts -->
<g id="node2" class="node">
<title>artifacts</title>
<polygon fill="#efefef" stroke="transparent" points="285,-842.5 285,-877.5 459,-877.5 459,-842.5 285,-842.5"/>
<polygon fill="none" stroke="#000000" points="285,-842.5 285,-877.5 459,-877.5 459,-842.5 285,-842.5"/>
<text text-anchor="start" x="291.8704" y="-855.3" font-family="Arial Bold" font-size="18.00" fill="#000000">artifacts</text>
<text text-anchor="start" x="354.8758" y="-855.3" font-family="Arial" font-size="14.00" fill="#000000"> </text>
<text text-anchor="start" x="358.7664" y="-855.3" font-family="Arial" font-size="14.00" fill="#666666">[BASE TABLE]</text>
<polygon fill="none" stroke="#000000" points="285,-812.5 285,-842.5 459,-842.5 459,-812.5 285,-812.5"/>
<text text-anchor="start" x="292" y="-823.9" font-family="Arial" font-size="14.00" fill="#000000">id </text>
<text text-anchor="start" x="306.7798" y="-823.9" font-family="Arial" font-size="14.00" fill="#666666">[varchar(22)]</text>
<polygon fill="none" stroke="#000000" points="285,-782.5 285,-812.5 459,-812.5 459,-782.5 285,-782.5"/>
<text text-anchor="start" x="292" y="-793.9" font-family="Arial" font-size="14.00" fill="#000000">size </text>
<text text-anchor="start" x="320.7798" y="-793.9" font-family="Arial" font-size="14.00" fill="#666666">[bigint(20)]</text>
<polygon fill="none" stroke="#000000" points="285,-752.5 285,-782.5 459,-782.5 459,-752.5 285,-752.5"/>
<text text-anchor="start" x="292" y="-763.9" font-family="Arial" font-size="14.00" fill="#000000">created_at </text>
<text text-anchor="start" x="362.028" y="-763.9" font-family="Arial" font-size="14.00" fill="#666666">[datetime(6)]</text>
<polygon fill="none" stroke="#000000" points="285,-722.5 285,-752.5 459,-752.5 459,-722.5 285,-722.5"/>
<text text-anchor="start" x="292" y="-733.9" font-family="Arial" font-size="14.00" fill="#000000">deleted_at </text>
<text text-anchor="start" x="361.2566" y="-733.9" font-family="Arial" font-size="14.00" fill="#666666">[datetime(6)]</text>
<polygon fill="none" stroke="#000000" points="285,-692.5 285,-722.5 459,-722.5 459,-692.5 285,-692.5"/>
<text text-anchor="start" x="292" y="-703.9" font-family="Arial" font-size="14.00" fill="#000000">build_id </text>
<text text-anchor="start" x="344.1234" y="-703.9" font-family="Arial" font-size="14.00" fill="#666666">[varchar(22)]</text>
</g>
<!-- artifacts&#45;&gt;builds -->
<g id="edge1" class="edge">
<title>artifacts:build_id&#45;&gt;builds:id</title>
<path fill="none" stroke="#000000" d="M372.9797,-682.3217C381.4391,-642.0317 442.3215,-659.1474 463,-614 480.8598,-575.0066 505.8889,-517.5 463,-517.5"/>
<polygon fill="#000000" stroke="#000000" points="372.9582,-682.546 367.5207,-692.0688 372.4791,-687.523 372,-692.5 372,-692.5 372,-692.5 372.4791,-687.523 376.4793,-692.9312 372.9582,-682.546 372.9582,-682.546"/>
<text text-anchor="start" x="136.277" y="-702.5" font-family="Arial" font-size="10.00" fill="#000000">FOREIGN KEY (build_id) REFERENCES builds (id)</text>
</g>
</g>
</svg>
