<?xml version="1.0" encoding="UTF-8" standalone="no"?>
<!DOCTYPE svg PUBLIC "-//W3C//DTD SVG 1.1//EN"
 "http://www.w3.org/Graphics/SVG/1.1/DTD/svg11.dtd">
<!-- Generated by graphviz version 2.40.1 (20161225.0304)
 -->
<!-- Title: build_status Pages: 1 -->
<svg width="532pt" height="472pt"
 viewBox="0.00 0.00 531.50 472.00" xmlns="http://www.w3.org/2000/svg" xmlns:xlink="http://www.w3.org/1999/xlink">
<g id="graph0" class="graph" transform="scale(1 1) rotate(0) translate(4 468)">
<title>build_status</title>
<polygon fill="#ffffff" stroke="transparent" points="-4,4 -4,-468 527.5,-468 527.5,4 -4,4"/>
<!-- build_status -->
<g id="node1" class="node">
<title>build_status</title>
<polygon fill="#efefef" stroke="transparent" points="271,-75.5 271,-110.5 478,-110.5 478,-75.5 271,-75.5"/>
<polygon fill="none" stroke="#000000" points="271,-75.5 271,-110.5 478,-110.5 478,-75.5 271,-75.5"/>
<text text-anchor="start" x="277.8581" y="-88.3" font-family="Arial Bold" font-size="18.00" fill="#000000">build_status</text>
<text text-anchor="start" x="373.8881" y="-88.3" font-family="Arial" font-size="14.00" fill="#000000"> </text>
<text text-anchor="start" x="377.7787" y="-88.3" font-family="Arial" font-size="14.00" fill="#666666">[BASE TABLE]</text>
<polygon fill="none" stroke="#000000" points="271,-45.5 271,-75.5 478,-75.5 478,-45.5 271,-45.5"/>
<text text-anchor="start" x="278" y="-56.9" font-family="Arial" font-size="14.00" fill="#000000">status </text>
<text text-anchor="start" x="319.237" y="-56.9" font-family="Arial" font-size="14.00" fill="#666666">[varchar(10)]</text>
<polygon fill="none" stroke="#000000" stroke-width="3" points="269,-44.5 269,-112.5 479,-112.5 479,-44.5 269,-44.5"/>
</g>
<!-- build_logs -->
<g id="node2" class="node">
<title>build_logs</title>
<polygon fill="#efefef" stroke="transparent" points="279,-385.5 279,-420.5 471,-420.5 471,-385.5 279,-385.5"/>
<polygon fill="none" stroke="#000000" points="279,-385.5 279,-420.5 471,-420.5 471,-385.5 279,-385.5"/>
<text text-anchor="start" x="285.8632" y="-398.3" font-family="Arial Bold" font-size="18.00" fill="#000000">build_logs</text>
<text text-anchor="start" x="366.883" y="-398.3" font-family="Arial" font-size="14.00" fill="#000000"> </text>
<text text-anchor="start" x="370.7736" y="-398.3" font-family="Arial" font-size="14.00" fill="#666666">[BASE TABLE]</text>
<polygon fill="none" stroke="#000000" points="279,-355.5 279,-385.5 471,-385.5 471,-355.5 279,-355.5"/>
<text text-anchor="start" x="286" y="-366.9" font-family="Arial" font-size="14.00" fill="#000000">id </text>
<text text-anchor="start" x="300.7798" y="-366.9" font-family="Arial" font-size="14.00" fill="#666666">[varchar(22)]</text>
<polygon fill="none" stroke="#000000" points="279,-325.5 279,-355.5 471,-355.5 471,-325.5 279,-325.5"/>
<text text-anchor="start" x="286" y="-336.9" font-family="Arial" font-size="14.00" fill="#000000">result </text>
<text text-anchor="start" x="324.1136" y="-336.9" font-family="Arial" font-size="14.00" fill="#666666">[varchar(10)]</text>
<polygon fill="none" stroke="#000000" points="279,-295.5 279,-325.5 471,-325.5 471,-295.5 279,-295.5"/>
<text text-anchor="start" x="286" y="-306.9" font-family="Arial" font-size="14.00" fill="#000000">started_at </text>
<text text-anchor="start" x="352.136" y="-306.9" font-family="Arial" font-size="14.00" fill="#666666">[datetime(6)]</text>
<polygon fill="none" stroke="#000000" points="279,-265.5 279,-295.5 471,-295.5 471,-265.5 279,-265.5"/>
<text text-anchor="start" x="286" y="-276.9" font-family="Arial" font-size="14.00" fill="#000000">finished_at </text>
<text text-anchor="start" x="357.5806" y="-276.9" font-family="Arial" font-size="14.00" fill="#666666">[datetime(6)]</text>
<polygon fill="none" stroke="#000000" points="279,-235.5 279,-265.5 471,-265.5 471,-235.5 279,-235.5"/>
<text text-anchor="start" x="286" y="-246.9" font-family="Arial" font-size="14.00" fill="#000000">branch_id </text>
<text text-anchor="start" x="351.3534" y="-246.9" font-family="Arial" font-size="14.00" fill="#666666">[varchar(22)]</text>
</g>
<!-- build_logs&#45;&gt;build_status -->
<g id="edge1" class="edge">
<title>build_logs:result&#45;&gt;build_status:status</title>
<path fill="none" stroke="#000000" d="M269.0256,-339.6457C215.9886,-329.9383 238.4974,-239.9029 279,-193 350.788,-109.868 451.712,-240.132 523.5,-157 523.5,-157 375,-45.5 375,-45.5"/>
<polygon fill="#000000" stroke="#000000" points="269.0365,-339.6465 278.6159,-344.9836 274.0182,-340.0733 279,-340.5 279,-340.5 279,-340.5 274.0182,-340.0733 279.3841,-336.0164 269.0365,-339.6465 269.0365,-339.6465"/>
<text text-anchor="start" x="7.214" y="-350.5" font-family="Arial" font-size="10.00" fill="#000000">FOREIGN KEY (result) REFERENCES build_status (status)</text>
</g>
</g>
</svg>
