<?xml version="1.0" encoding="UTF-8" standalone="no"?>
<!DOCTYPE svg PUBLIC "-//W3C//DTD SVG 1.1//EN"
 "http://www.w3.org/Graphics/SVG/1.1/DTD/svg11.dtd">
<!-- Generated by graphviz version 2.40.1 (20161225.0304)
 -->
<!-- Title: builds Pages: 1 -->
<svg width="582pt" height="1169pt"
 viewBox="0.00 0.00 582.00 1169.00" xmlns="http://www.w3.org/2000/svg" xmlns:xlink="http://www.w3.org/1999/xlink">
<g id="graph0" class="graph" transform="scale(1 1) rotate(0) translate(4 1165)">
<title>builds</title>
<polygon fill="#ffffff" stroke="transparent" points="-4,4 -4,-1165 578,-1165 578,4 -4,4"/>
<!-- builds -->
<g id="node1" class="node">
<title>builds</title>
<polygon fill="#efefef" stroke="transparent" points="64,-772.5 64,-807.5 528,-807.5 528,-772.5 64,-772.5"/>
<polygon fill="none" stroke="#000000" points="64,-772.5 64,-807.5 528,-807.5 528,-772.5 64,-772.5"/>
<text text-anchor="start" x="223.8696" y="-785.3" font-family="Arial Bold" font-size="18.00" fill="#000000">builds</text>
<text text-anchor="start" x="270.8766" y="-785.3" font-family="Arial" font-size="14.00" fill="#000000"> </text>
<text text-anchor="start" x="274.7672" y="-785.3" font-family="Arial" font-size="14.00" fill="#666666">[BASE TABLE]</text>
<polygon fill="none" stroke="#000000" points="64,-742.5 64,-772.5 528,-772.5 528,-742.5 64,-742.5"/>
<text text-anchor="start" x="71" y="-753.9" font-family="Arial" font-size="14.00" fill="#000000">id </text>
<text text-anchor="start" x="85.7798" y="-753.9" font-family="Arial" font-size="14.00" fill="#666666">[char(22)]</text>
<polygon fill="none" stroke="#000000" points="64,-712.5 64,-742.5 528,-742.5 528,-712.5 64,-712.5"/>
<text text-anchor="start" x="71" y="-723.9" font-family="Arial" font-size="14.00" fill="#000000">commit </text>
<text text-anchor="start" x="119.9916" y="-723.9" font-family="Arial" font-size="14.00" fill="#666666">[char(40)]</text>
<polygon fill="none" stroke="#000000" points="64,-682.5 64,-712.5 528,-712.5 528,-682.5 64,-682.5"/>
<text text-anchor="start" x="70.8779" y="-693.9" font-family="Arial" font-size="14.00" fill="#000000">status </text>
<text text-anchor="start" x="112.1149" y="-693.9" font-family="Arial" font-size="14.00" fill="#666666">[enum(&#39;building&#39;,&#39;succeeded&#39;,&#39;failed&#39;,&#39;canceled&#39;,&#39;queued&#39;,&#39;skipped&#39;)]</text>
<polygon fill="none" stroke="#000000" points="64,-652.5 64,-682.5 528,-682.5 528,-652.5 64,-652.5"/>
<text text-anchor="start" x="71" y="-663.9" font-family="Arial" font-size="14.00" fill="#000000">started_at </text>
<text text-anchor="start" x="137.136" y="-663.9" font-family="Arial" font-size="14.00" fill="#666666">[datetime(6)]</text>
<polygon fill="none" stroke="#000000" points="64,-622.5 64,-652.5 528,-652.5 528,-622.5 64,-622.5"/>
<text text-anchor="start" x="71" y="-633.9" font-family="Arial" font-size="14.00" fill="#000000">updated_at </text>
<text text-anchor="start" x="144.9326" y="-633.9" font-family="Arial" font-size="14.00" fill="#666666">[datetime(6)]</text>
<polygon fill="none" stroke="#000000" points="64,-592.5 64,-622.5 528,-622.5 528,-592.5 64,-592.5"/>
<text text-anchor="start" x="71" y="-603.9" font-family="Arial" font-size="14.00" fill="#000000">finished_at </text>
<text text-anchor="start" x="142.5806" y="-603.9" font-family="Arial" font-size="14.00" fill="#666666">[datetime(6)]</text>
<polygon fill="none" stroke="#000000" points="64,-562.5 64,-592.5 528,-592.5 528,-562.5 64,-562.5"/>
<text text-anchor="start" x="71" y="-573.9" font-family="Arial" font-size="14.00" fill="#000000">retriable </text>
<text text-anchor="start" x="125.446" y="-573.9" font-family="Arial" font-size="14.00" fill="#666666">[tinyint(1)]</text>
<polygon fill="none" stroke="#000000" points="64,-532.5 64,-562.5 528,-562.5 528,-532.5 64,-532.5"/>
<text text-anchor="start" x="71" y="-543.9" font-family="Arial" font-size="14.00" fill="#000000">application_id </text>
<text text-anchor="start" x="160.4684" y="-543.9" font-family="Arial" font-size="14.00" fill="#666666">[char(22)]</text>
<polygon fill="none" stroke="#000000" stroke-width="3" points="62.5,-531.5 62.5,-809.5 529.5,-809.5 529.5,-531.5 62.5,-531.5"/>
</g>
<!-- applications -->
<g id="node3" class="node">
<title>applications</title>
<polygon fill="#efefef" stroke="transparent" points="65,-372.5 65,-407.5 527,-407.5 527,-372.5 65,-372.5"/>
<polygon fill="none" stroke="#000000" points="65,-372.5 65,-407.5 527,-407.5 527,-372.5 65,-372.5"/>
<text text-anchor="start" x="199.8621" y="-385.3" font-family="Arial Bold" font-size="18.00" fill="#000000">applications</text>
<text text-anchor="start" x="294.8841" y="-385.3" font-family="Arial" font-size="14.00" fill="#000000"> </text>
<text text-anchor="start" x="298.7747" y="-385.3" font-family="Arial" font-size="14.00" fill="#666666">[BASE TABLE]</text>
<polygon fill="none" stroke="#000000" points="65,-342.5 65,-372.5 527,-372.5 527,-342.5 65,-342.5"/>
<text text-anchor="start" x="72" y="-353.9" font-family="Arial" font-size="14.00" fill="#000000">id </text>
<text text-anchor="start" x="86.7798" y="-353.9" font-family="Arial" font-size="14.00" fill="#666666">[char(22)]</text>
<polygon fill="none" stroke="#000000" points="65,-312.5 65,-342.5 527,-342.5 527,-312.5 65,-312.5"/>
<text text-anchor="start" x="72" y="-323.9" font-family="Arial" font-size="14.00" fill="#000000">name </text>
<text text-anchor="start" x="110.899" y="-323.9" font-family="Arial" font-size="14.00" fill="#666666">[varchar(100)]</text>
<polygon fill="none" stroke="#000000" points="65,-282.5 65,-312.5 527,-312.5 527,-282.5 65,-282.5"/>
<text text-anchor="start" x="72" y="-293.9" font-family="Arial" font-size="14.00" fill="#000000">repository_id </text>
<text text-anchor="start" x="156.0112" y="-293.9" font-family="Arial" font-size="14.00" fill="#666666">[varchar(22)]</text>
<polygon fill="none" stroke="#000000" points="65,-252.5 65,-282.5 527,-282.5 527,-252.5 65,-252.5"/>
<text text-anchor="start" x="72" y="-263.9" font-family="Arial" font-size="14.00" fill="#000000">ref_name </text>
<text text-anchor="start" x="135.0154" y="-263.9" font-family="Arial" font-size="14.00" fill="#666666">[varchar(100)]</text>
<polygon fill="none" stroke="#000000" points="65,-222.5 65,-252.5 527,-252.5 527,-222.5 65,-222.5"/>
<text text-anchor="start" x="72" y="-233.9" font-family="Arial" font-size="14.00" fill="#000000">deploy_type </text>
<text text-anchor="start" x="151.366" y="-233.9" font-family="Arial" font-size="14.00" fill="#666666">[enum(&#39;runtime&#39;,&#39;static&#39;)]</text>
<polygon fill="none" stroke="#000000" points="65,-192.5 65,-222.5 527,-222.5 527,-192.5 65,-192.5"/>
<text text-anchor="start" x="72" y="-203.9" font-family="Arial" font-size="14.00" fill="#000000">running </text>
<text text-anchor="start" x="122.5708" y="-203.9" font-family="Arial" font-size="14.00" fill="#666666">[tinyint(1)]</text>
<polygon fill="none" stroke="#000000" points="65,-162.5 65,-192.5 527,-192.5 527,-162.5 65,-162.5"/>
<text text-anchor="start" x="71.6857" y="-173.9" font-family="Arial" font-size="14.00" fill="#000000">container </text>
<text text-anchor="start" x="133.1471" y="-173.9" font-family="Arial" font-size="14.00" fill="#666666">[enum(&#39;missing&#39;,&#39;starting&#39;,&#39;running&#39;,&#39;exited&#39;,&#39;errored&#39;,&#39;unknown&#39;)]</text>
<polygon fill="none" stroke="#000000" points="65,-132.5 65,-162.5 527,-162.5 527,-132.5 65,-132.5"/>
<text text-anchor="start" x="72" y="-143.9" font-family="Arial" font-size="14.00" fill="#000000">current_commit </text>
<text text-anchor="start" x="172.3338" y="-143.9" font-family="Arial" font-size="14.00" fill="#666666">[char(40)]</text>
<polygon fill="none" stroke="#000000" points="65,-102.5 65,-132.5 527,-132.5 527,-102.5 65,-102.5"/>
<text text-anchor="start" x="72" y="-113.9" font-family="Arial" font-size="14.00" fill="#000000">want_commit </text>
<text text-anchor="start" x="158.3366" y="-113.9" font-family="Arial" font-size="14.00" fill="#666666">[char(40)]</text>
<polygon fill="none" stroke="#000000" points="65,-72.5 65,-102.5 527,-102.5 527,-72.5 65,-72.5"/>
<text text-anchor="start" x="72" y="-83.9" font-family="Arial" font-size="14.00" fill="#000000">created_at </text>
<text text-anchor="start" x="142.028" y="-83.9" font-family="Arial" font-size="14.00" fill="#666666">[datetime(6)]</text>
<polygon fill="none" stroke="#000000" points="65,-42.5 65,-72.5 527,-72.5 527,-42.5 65,-42.5"/>
<text text-anchor="start" x="72" y="-53.9" font-family="Arial" font-size="14.00" fill="#000000">updated_at </text>
<text text-anchor="start" x="145.9326" y="-53.9" font-family="Arial" font-size="14.00" fill="#666666">[datetime(6)]</text>
</g>
<!-- builds&#45;&gt;applications -->
<g id="edge2" class="edge">
<title>builds:application_id&#45;&gt;applications:id</title>
<path fill="none" stroke="#000000" d="M296.546,-522.3844C307.0479,-431.1238 466.2031,-536.9198 527,-451 551.0033,-417.0779 568.5556,-357.5 527,-357.5"/>
<polygon fill="#000000" stroke="#000000" points="296.5391,-522.5145 291.5065,-532.2574 296.2695,-527.5073 296,-532.5 296,-532.5 296,-532.5 296.2695,-527.5073 300.4935,-532.7426 296.5391,-522.5145 296.5391,-522.5145"/>
<text text-anchor="start" x="6.602" y="-542.5" font-family="Arial" font-size="10.00" fill="#000000">FOREIGN KEY (application_id) REFERENCES applications (id)</text>
</g>
<!-- artifacts -->
<g id="node2" class="node">
<title>artifacts</title>
<polygon fill="#efefef" stroke="transparent" points="209,-1082.5 209,-1117.5 383,-1117.5 383,-1082.5 209,-1082.5"/>
<polygon fill="none" stroke="#000000" points="209,-1082.5 209,-1117.5 383,-1117.5 383,-1082.5 209,-1082.5"/>
<text text-anchor="start" x="215.8704" y="-1095.3" font-family="Arial Bold" font-size="18.00" fill="#000000">artifacts</text>
<text text-anchor="start" x="278.8758" y="-1095.3" font-family="Arial" font-size="14.00" fill="#000000"> </text>
<text text-anchor="start" x="282.7664" y="-1095.3" font-family="Arial" font-size="14.00" fill="#666666">[BASE TABLE]</text>
<polygon fill="none" stroke="#000000" points="209,-1052.5 209,-1082.5 383,-1082.5 383,-1052.5 209,-1052.5"/>
<text text-anchor="start" x="216" y="-1063.9" font-family="Arial" font-size="14.00" fill="#000000">id </text>
<text text-anchor="start" x="230.7798" y="-1063.9" font-family="Arial" font-size="14.00" fill="#666666">[char(22)]</text>
<polygon fill="none" stroke="#000000" points="209,-1022.5 209,-1052.5 383,-1052.5 383,-1022.5 209,-1022.5"/>
<text text-anchor="start" x="216" y="-1033.9" font-family="Arial" font-size="14.00" fill="#000000">size </text>
<text text-anchor="start" x="244.7798" y="-1033.9" font-family="Arial" font-size="14.00" fill="#666666">[bigint(20)]</text>
<polygon fill="none" stroke="#000000" points="209,-992.5 209,-1022.5 383,-1022.5 383,-992.5 209,-992.5"/>
<text text-anchor="start" x="216" y="-1003.9" font-family="Arial" font-size="14.00" fill="#000000">created_at </text>
<text text-anchor="start" x="286.028" y="-1003.9" font-family="Arial" font-size="14.00" fill="#666666">[datetime(6)]</text>
<polygon fill="none" stroke="#000000" points="209,-962.5 209,-992.5 383,-992.5 383,-962.5 209,-962.5"/>
<text text-anchor="start" x="216" y="-973.9" font-family="Arial" font-size="14.00" fill="#000000">deleted_at </text>
<text text-anchor="start" x="285.2566" y="-973.9" font-family="Arial" font-size="14.00" fill="#666666">[datetime(6)]</text>
<polygon fill="none" stroke="#000000" points="209,-932.5 209,-962.5 383,-962.5 383,-932.5 209,-932.5"/>
<text text-anchor="start" x="216" y="-943.9" font-family="Arial" font-size="14.00" fill="#000000">build_id </text>
<text text-anchor="start" x="268.1234" y="-943.9" font-family="Arial" font-size="14.00" fill="#666666">[varchar(22)]</text>
</g>
<!-- artifacts&#45;&gt;builds -->
<g id="edge1" class="edge">
<title>artifacts:build_id&#45;&gt;builds:id</title>
<path fill="none" stroke="#000000" d="M296.5474,-922.3942C307.077,-831.3071 466.6585,-939.5135 528,-854 552.9989,-819.1501 570.8889,-757.5 528,-757.5"/>
<polygon fill="#000000" stroke="#000000" points="296.541,-922.5146 291.5066,-932.2565 296.2705,-927.5073 296,-932.5 296,-932.5 296,-932.5 296.2705,-927.5073 300.4934,-932.7435 296.541,-922.5146 296.541,-922.5146"/>
<text text-anchor="start" x="60.277" y="-942.5" font-family="Arial" font-size="10.00" fill="#000000">FOREIGN KEY (build_id) REFERENCES builds (id)</text>
</g>
</g>
</svg>
