<?xml version="1.0" encoding="UTF-8" standalone="no"?>
<!DOCTYPE svg PUBLIC "-//W3C//DTD SVG 1.1//EN"
 "http://www.w3.org/Graphics/SVG/1.1/DTD/svg11.dtd">
<!-- Generated by graphviz version 2.40.1 (20161225.0304)
 -->
<!-- Title: builds Pages: 1 -->
<svg width="582pt" height="1139pt"
 viewBox="0.00 0.00 582.00 1139.00" xmlns="http://www.w3.org/2000/svg" xmlns:xlink="http://www.w3.org/1999/xlink">
<g id="graph0" class="graph" transform="scale(1 1) rotate(0) translate(4 1135)">
<title>builds</title>
<polygon fill="#ffffff" stroke="transparent" points="-4,4 -4,-1135 578,-1135 578,4 -4,4"/>
<!-- builds -->
<g id="node1" class="node">
<title>builds</title>
<polygon fill="#efefef" stroke="transparent" points="64,-742.5 64,-777.5 528,-777.5 528,-742.5 64,-742.5"/>
<polygon fill="none" stroke="#000000" points="64,-742.5 64,-777.5 528,-777.5 528,-742.5 64,-742.5"/>
<text text-anchor="start" x="223.8696" y="-755.3" font-family="Arial Bold" font-size="18.00" fill="#000000">builds</text>
<text text-anchor="start" x="270.8766" y="-755.3" font-family="Arial" font-size="14.00" fill="#000000"> </text>
<text text-anchor="start" x="274.7672" y="-755.3" font-family="Arial" font-size="14.00" fill="#666666">[BASE TABLE]</text>
<polygon fill="none" stroke="#000000" points="64,-712.5 64,-742.5 528,-742.5 528,-712.5 64,-712.5"/>
<text text-anchor="start" x="71" y="-723.9" font-family="Arial" font-size="14.00" fill="#000000">id </text>
<text text-anchor="start" x="85.7798" y="-723.9" font-family="Arial" font-size="14.00" fill="#666666">[char(22)]</text>
<polygon fill="none" stroke="#000000" points="64,-682.5 64,-712.5 528,-712.5 528,-682.5 64,-682.5"/>
<text text-anchor="start" x="71" y="-693.9" font-family="Arial" font-size="14.00" fill="#000000">commit </text>
<text text-anchor="start" x="119.9916" y="-693.9" font-family="Arial" font-size="14.00" fill="#666666">[char(40)]</text>
<polygon fill="none" stroke="#000000" points="64,-652.5 64,-682.5 528,-682.5 528,-652.5 64,-652.5"/>
<text text-anchor="start" x="70.8779" y="-663.9" font-family="Arial" font-size="14.00" fill="#000000">status </text>
<text text-anchor="start" x="112.1149" y="-663.9" font-family="Arial" font-size="14.00" fill="#666666">[enum(&#39;building&#39;,&#39;succeeded&#39;,&#39;failed&#39;,&#39;canceled&#39;,&#39;queued&#39;,&#39;skipped&#39;)]</text>
<polygon fill="none" stroke="#000000" points="64,-622.5 64,-652.5 528,-652.5 528,-622.5 64,-622.5"/>
<text text-anchor="start" x="71" y="-633.9" font-family="Arial" font-size="14.00" fill="#000000">started_at </text>
<text text-anchor="start" x="137.136" y="-633.9" font-family="Arial" font-size="14.00" fill="#666666">[datetime(6)]</text>
<polygon fill="none" stroke="#000000" points="64,-592.5 64,-622.5 528,-622.5 528,-592.5 64,-592.5"/>
<text text-anchor="start" x="71" y="-603.9" font-family="Arial" font-size="14.00" fill="#000000">updated_at </text>
<text text-anchor="start" x="144.9326" y="-603.9" font-family="Arial" font-size="14.00" fill="#666666">[datetime(6)]</text>
<polygon fill="none" stroke="#000000" points="64,-562.5 64,-592.5 528,-592.5 528,-562.5 64,-562.5"/>
<text text-anchor="start" x="71" y="-573.9" font-family="Arial" font-size="14.00" fill="#000000">finished_at </text>
<text text-anchor="start" x="142.5806" y="-573.9" font-family="Arial" font-size="14.00" fill="#666666">[datetime(6)]</text>
<polygon fill="none" stroke="#000000" points="64,-532.5 64,-562.5 528,-562.5 528,-532.5 64,-532.5"/>
<text text-anchor="start" x="71" y="-543.9" font-family="Arial" font-size="14.00" fill="#000000">retriable </text>
<text text-anchor="start" x="125.446" y="-543.9" font-family="Arial" font-size="14.00" fill="#666666">[tinyint(1)]</text>
<polygon fill="none" stroke="#000000" points="64,-502.5 64,-532.5 528,-532.5 528,-502.5 64,-502.5"/>
<text text-anchor="start" x="71" y="-513.9" font-family="Arial" font-size="14.00" fill="#000000">application_id </text>
<text text-anchor="start" x="160.4684" y="-513.9" font-family="Arial" font-size="14.00" fill="#666666">[char(22)]</text>
<polygon fill="none" stroke="#000000" stroke-width="3" points="62.5,-501.5 62.5,-779.5 529.5,-779.5 529.5,-501.5 62.5,-501.5"/>
</g>
<!-- applications -->
<g id="node3" class="node">
<title>applications</title>
<polygon fill="#efefef" stroke="transparent" points="181,-342.5 181,-377.5 410,-377.5 410,-342.5 181,-342.5"/>
<polygon fill="none" stroke="#000000" points="181,-342.5 181,-377.5 410,-377.5 410,-342.5 181,-342.5"/>
<text text-anchor="start" x="199.3621" y="-355.3" font-family="Arial Bold" font-size="18.00" fill="#000000">applications</text>
<text text-anchor="start" x="294.3841" y="-355.3" font-family="Arial" font-size="14.00" fill="#000000"> </text>
<text text-anchor="start" x="298.2747" y="-355.3" font-family="Arial" font-size="14.00" fill="#666666">[BASE TABLE]</text>
<polygon fill="none" stroke="#000000" points="181,-312.5 181,-342.5 410,-342.5 410,-312.5 181,-312.5"/>
<text text-anchor="start" x="188" y="-323.9" font-family="Arial" font-size="14.00" fill="#000000">id </text>
<text text-anchor="start" x="202.7798" y="-323.9" font-family="Arial" font-size="14.00" fill="#666666">[char(22)]</text>
<polygon fill="none" stroke="#000000" points="181,-282.5 181,-312.5 410,-312.5 410,-282.5 181,-282.5"/>
<text text-anchor="start" x="188" y="-293.9" font-family="Arial" font-size="14.00" fill="#000000">name </text>
<text text-anchor="start" x="226.899" y="-293.9" font-family="Arial" font-size="14.00" fill="#666666">[varchar(100)]</text>
<polygon fill="none" stroke="#000000" points="181,-252.5 181,-282.5 410,-282.5 410,-252.5 181,-252.5"/>
<text text-anchor="start" x="188" y="-263.9" font-family="Arial" font-size="14.00" fill="#000000">repository_id </text>
<text text-anchor="start" x="272.0112" y="-263.9" font-family="Arial" font-size="14.00" fill="#666666">[varchar(22)]</text>
<polygon fill="none" stroke="#000000" points="181,-222.5 181,-252.5 410,-252.5 410,-222.5 181,-222.5"/>
<text text-anchor="start" x="188" y="-233.9" font-family="Arial" font-size="14.00" fill="#000000">ref_name </text>
<text text-anchor="start" x="251.0154" y="-233.9" font-family="Arial" font-size="14.00" fill="#666666">[varchar(100)]</text>
<polygon fill="none" stroke="#000000" points="181,-192.5 181,-222.5 410,-222.5 410,-192.5 181,-192.5"/>
<text text-anchor="start" x="187.8008" y="-203.9" font-family="Arial" font-size="14.00" fill="#000000">build_type </text>
<text text-anchor="start" x="255.4908" y="-203.9" font-family="Arial" font-size="14.00" fill="#666666">[enum(&#39;runtime&#39;,&#39;static&#39;)]</text>
<polygon fill="none" stroke="#000000" points="181,-162.5 181,-192.5 410,-192.5 410,-162.5 181,-162.5"/>
<text text-anchor="start" x="188" y="-173.9" font-family="Arial" font-size="14.00" fill="#000000">running </text>
<text text-anchor="start" x="238.5708" y="-173.9" font-family="Arial" font-size="14.00" fill="#666666">[tinyint(1)]</text>
<polygon fill="none" stroke="#000000" points="181,-132.5 181,-162.5 410,-162.5 410,-132.5 181,-132.5"/>
<text text-anchor="start" x="188" y="-143.9" font-family="Arial" font-size="14.00" fill="#000000">current_commit </text>
<text text-anchor="start" x="288.3338" y="-143.9" font-family="Arial" font-size="14.00" fill="#666666">[char(40)]</text>
<polygon fill="none" stroke="#000000" points="181,-102.5 181,-132.5 410,-132.5 410,-102.5 181,-102.5"/>
<text text-anchor="start" x="188" y="-113.9" font-family="Arial" font-size="14.00" fill="#000000">want_commit </text>
<text text-anchor="start" x="274.3366" y="-113.9" font-family="Arial" font-size="14.00" fill="#666666">[char(40)]</text>
<polygon fill="none" stroke="#000000" points="181,-72.5 181,-102.5 410,-102.5 410,-72.5 181,-72.5"/>
<text text-anchor="start" x="188" y="-83.9" font-family="Arial" font-size="14.00" fill="#000000">created_at </text>
<text text-anchor="start" x="258.028" y="-83.9" font-family="Arial" font-size="14.00" fill="#666666">[datetime(6)]</text>
<polygon fill="none" stroke="#000000" points="181,-42.5 181,-72.5 410,-72.5 410,-42.5 181,-42.5"/>
<text text-anchor="start" x="188" y="-53.9" font-family="Arial" font-size="14.00" fill="#000000">updated_at </text>
<text text-anchor="start" x="261.9326" y="-53.9" font-family="Arial" font-size="14.00" fill="#666666">[datetime(6)]</text>
</g>
<!-- builds&#45;&gt;applications -->
<g id="edge2" class="edge">
<title>builds:application_id&#45;&gt;applications:id</title>
<path fill="none" stroke="#000000" d="M296.8521,-492.5276C305.8252,-444.1413 383.1812,-473.1406 410,-421 429.0074,-384.0462 451.5556,-327.5 410,-327.5"/>
<polygon fill="#000000" stroke="#000000" points="296.8514,-492.5363 291.5163,-502.1169 296.4257,-497.5182 296,-502.5 296,-502.5 296,-502.5 296.4257,-497.5182 300.4837,-502.8831 296.8514,-492.5363 296.8514,-492.5363"/>
<text text-anchor="start" x="6.602" y="-512.5" font-family="Arial" font-size="10.00" fill="#000000">FOREIGN KEY (application_id) REFERENCES applications (id)</text>
</g>
<!-- artifacts -->
<g id="node2" class="node">
<title>artifacts</title>
<polygon fill="#efefef" stroke="transparent" points="209,-1052.5 209,-1087.5 383,-1087.5 383,-1052.5 209,-1052.5"/>
<polygon fill="none" stroke="#000000" points="209,-1052.5 209,-1087.5 383,-1087.5 383,-1052.5 209,-1052.5"/>
<text text-anchor="start" x="215.8704" y="-1065.3" font-family="Arial Bold" font-size="18.00" fill="#000000">artifacts</text>
<text text-anchor="start" x="278.8758" y="-1065.3" font-family="Arial" font-size="14.00" fill="#000000"> </text>
<text text-anchor="start" x="282.7664" y="-1065.3" font-family="Arial" font-size="14.00" fill="#666666">[BASE TABLE]</text>
<polygon fill="none" stroke="#000000" points="209,-1022.5 209,-1052.5 383,-1052.5 383,-1022.5 209,-1022.5"/>
<text text-anchor="start" x="216" y="-1033.9" font-family="Arial" font-size="14.00" fill="#000000">id </text>
<text text-anchor="start" x="230.7798" y="-1033.9" font-family="Arial" font-size="14.00" fill="#666666">[char(22)]</text>
<polygon fill="none" stroke="#000000" points="209,-992.5 209,-1022.5 383,-1022.5 383,-992.5 209,-992.5"/>
<text text-anchor="start" x="216" y="-1003.9" font-family="Arial" font-size="14.00" fill="#000000">size </text>
<text text-anchor="start" x="244.7798" y="-1003.9" font-family="Arial" font-size="14.00" fill="#666666">[bigint(20)]</text>
<polygon fill="none" stroke="#000000" points="209,-962.5 209,-992.5 383,-992.5 383,-962.5 209,-962.5"/>
<text text-anchor="start" x="216" y="-973.9" font-family="Arial" font-size="14.00" fill="#000000">created_at </text>
<text text-anchor="start" x="286.028" y="-973.9" font-family="Arial" font-size="14.00" fill="#666666">[datetime(6)]</text>
<polygon fill="none" stroke="#000000" points="209,-932.5 209,-962.5 383,-962.5 383,-932.5 209,-932.5"/>
<text text-anchor="start" x="216" y="-943.9" font-family="Arial" font-size="14.00" fill="#000000">deleted_at </text>
<text text-anchor="start" x="285.2566" y="-943.9" font-family="Arial" font-size="14.00" fill="#666666">[datetime(6)]</text>
<polygon fill="none" stroke="#000000" points="209,-902.5 209,-932.5 383,-932.5 383,-902.5 209,-902.5"/>
<text text-anchor="start" x="216" y="-913.9" font-family="Arial" font-size="14.00" fill="#000000">build_id </text>
<text text-anchor="start" x="268.1234" y="-913.9" font-family="Arial" font-size="14.00" fill="#666666">[varchar(22)]</text>
</g>
<!-- artifacts&#45;&gt;builds -->
<g id="edge1" class="edge">
<title>artifacts:build_id&#45;&gt;builds:id</title>
<path fill="none" stroke="#000000" d="M296.5474,-892.3942C307.077,-801.3071 466.6585,-909.5135 528,-824 552.9989,-789.1501 570.8889,-727.5 528,-727.5"/>
<polygon fill="#000000" stroke="#000000" points="296.541,-892.5146 291.5066,-902.2565 296.2705,-897.5073 296,-902.5 296,-902.5 296,-902.5 296.2705,-897.5073 300.4934,-902.7435 296.541,-892.5146 296.541,-892.5146"/>
<text text-anchor="start" x="60.277" y="-912.5" font-family="Arial" font-size="10.00" fill="#000000">FOREIGN KEY (build_id) REFERENCES builds (id)</text>
</g>
</g>
</svg>
