<?xml version="1.0" encoding="UTF-8" standalone="no"?>
<!DOCTYPE svg PUBLIC "-//W3C//DTD SVG 1.1//EN"
 "http://www.w3.org/Graphics/SVG/1.1/DTD/svg11.dtd">
<!-- Generated by graphviz version 2.40.1 (20161225.0304)
 -->
<!-- Title: builds Pages: 1 -->
<svg width="767pt" height="1139pt"
 viewBox="0.00 0.00 767.00 1139.00" xmlns="http://www.w3.org/2000/svg" xmlns:xlink="http://www.w3.org/1999/xlink">
<g id="graph0" class="graph" transform="scale(1 1) rotate(0) translate(4 1135)">
<title>builds</title>
<polygon fill="#ffffff" stroke="transparent" points="-4,4 -4,-1135 763,-1135 763,4 -4,4"/>
<!-- builds -->
<g id="node1" class="node">
<title>builds</title>
<polygon fill="#efefef" stroke="transparent" points="281,-742.5 281,-777.5 463,-777.5 463,-742.5 281,-742.5"/>
<polygon fill="none" stroke="#000000" points="281,-742.5 281,-777.5 463,-777.5 463,-742.5 281,-742.5"/>
<text text-anchor="start" x="299.8696" y="-755.3" font-family="Arial Bold" font-size="18.00" fill="#000000">builds</text>
<text text-anchor="start" x="346.8766" y="-755.3" font-family="Arial" font-size="14.00" fill="#000000"> </text>
<text text-anchor="start" x="350.7672" y="-755.3" font-family="Arial" font-size="14.00" fill="#666666">[BASE TABLE]</text>
<polygon fill="none" stroke="#000000" points="281,-712.5 281,-742.5 463,-742.5 463,-712.5 281,-712.5"/>
<text text-anchor="start" x="288" y="-723.9" font-family="Arial" font-size="14.00" fill="#000000">id </text>
<text text-anchor="start" x="302.7798" y="-723.9" font-family="Arial" font-size="14.00" fill="#666666">[varchar(22)]</text>
<polygon fill="none" stroke="#000000" points="281,-682.5 281,-712.5 463,-712.5 463,-682.5 281,-682.5"/>
<text text-anchor="start" x="288" y="-693.9" font-family="Arial" font-size="14.00" fill="#000000">commit </text>
<text text-anchor="start" x="336.9916" y="-693.9" font-family="Arial" font-size="14.00" fill="#666666">[char(40)]</text>
<polygon fill="none" stroke="#000000" points="281,-652.5 281,-682.5 463,-682.5 463,-652.5 281,-652.5"/>
<text text-anchor="start" x="288" y="-663.9" font-family="Arial" font-size="14.00" fill="#000000">status </text>
<text text-anchor="start" x="329.237" y="-663.9" font-family="Arial" font-size="14.00" fill="#666666">[varchar(10)]</text>
<polygon fill="none" stroke="#000000" points="281,-622.5 281,-652.5 463,-652.5 463,-622.5 281,-622.5"/>
<text text-anchor="start" x="288" y="-633.9" font-family="Arial" font-size="14.00" fill="#000000">started_at </text>
<text text-anchor="start" x="354.136" y="-633.9" font-family="Arial" font-size="14.00" fill="#666666">[datetime(6)]</text>
<polygon fill="none" stroke="#000000" points="281,-592.5 281,-622.5 463,-622.5 463,-592.5 281,-592.5"/>
<text text-anchor="start" x="288" y="-603.9" font-family="Arial" font-size="14.00" fill="#000000">updated_at </text>
<text text-anchor="start" x="361.9326" y="-603.9" font-family="Arial" font-size="14.00" fill="#666666">[datetime(6)]</text>
<polygon fill="none" stroke="#000000" points="281,-562.5 281,-592.5 463,-592.5 463,-562.5 281,-562.5"/>
<text text-anchor="start" x="288" y="-573.9" font-family="Arial" font-size="14.00" fill="#000000">finished_at </text>
<text text-anchor="start" x="359.5806" y="-573.9" font-family="Arial" font-size="14.00" fill="#666666">[datetime(6)]</text>
<polygon fill="none" stroke="#000000" points="281,-532.5 281,-562.5 463,-562.5 463,-532.5 281,-532.5"/>
<text text-anchor="start" x="288" y="-543.9" font-family="Arial" font-size="14.00" fill="#000000">retriable </text>
<text text-anchor="start" x="342.446" y="-543.9" font-family="Arial" font-size="14.00" fill="#666666">[tinyint(1)]</text>
<polygon fill="none" stroke="#000000" points="281,-502.5 281,-532.5 463,-532.5 463,-502.5 281,-502.5"/>
<text text-anchor="start" x="287.5975" y="-513.9" font-family="Arial" font-size="14.00" fill="#000000">application_id </text>
<text text-anchor="start" x="377.0659" y="-513.9" font-family="Arial" font-size="14.00" fill="#666666">[varchar(22)]</text>
<polygon fill="none" stroke="#000000" stroke-width="3" points="279.5,-501.5 279.5,-779.5 464.5,-779.5 464.5,-501.5 279.5,-501.5"/>
</g>
<!-- build_status -->
<g id="node3" class="node">
<title>build_status</title>
<polygon fill="#efefef" stroke="transparent" points="107,-207.5 107,-242.5 314,-242.5 314,-207.5 107,-207.5"/>
<polygon fill="none" stroke="#000000" points="107,-207.5 107,-242.5 314,-242.5 314,-207.5 107,-207.5"/>
<text text-anchor="start" x="113.8581" y="-220.3" font-family="Arial Bold" font-size="18.00" fill="#000000">build_status</text>
<text text-anchor="start" x="209.8881" y="-220.3" font-family="Arial" font-size="14.00" fill="#000000"> </text>
<text text-anchor="start" x="213.7787" y="-220.3" font-family="Arial" font-size="14.00" fill="#666666">[BASE TABLE]</text>
<polygon fill="none" stroke="#000000" points="107,-177.5 107,-207.5 314,-207.5 314,-177.5 107,-177.5"/>
<text text-anchor="start" x="114" y="-188.9" font-family="Arial" font-size="14.00" fill="#000000">status </text>
<text text-anchor="start" x="155.237" y="-188.9" font-family="Arial" font-size="14.00" fill="#666666">[varchar(10)]</text>
</g>
<!-- builds&#45;&gt;build_status -->
<g id="edge2" class="edge">
<title>builds:status&#45;&gt;build_status:status</title>
<path fill="none" stroke="#000000" d="M270.9755,-667.2346C118.409,-658.8192 298.1344,-451.9418 314,-286 317.9551,-244.6331 355.5556,-192.5 314,-192.5"/>
<polygon fill="#000000" stroke="#000000" points="271.0035,-667.2353 280.8809,-671.9984 276.0018,-667.3676 281,-667.5 281,-667.5 281,-667.5 276.0018,-667.3676 281.1191,-663.0016 271.0035,-667.2353 271.0035,-667.2353"/>
<text text-anchor="start" x="7.0985" y="-677.5" font-family="Arial" font-size="10.00" fill="#000000">FOREIGN KEY (status) REFERENCES build_status (status)</text>
</g>
<!-- applications -->
<g id="node4" class="node">
<title>applications</title>
<polygon fill="#efefef" stroke="transparent" points="418,-342.5 418,-377.5 647,-377.5 647,-342.5 418,-342.5"/>
<polygon fill="none" stroke="#000000" points="418,-342.5 418,-377.5 647,-377.5 647,-342.5 418,-342.5"/>
<text text-anchor="start" x="436.3621" y="-355.3" font-family="Arial Bold" font-size="18.00" fill="#000000">applications</text>
<text text-anchor="start" x="531.3841" y="-355.3" font-family="Arial" font-size="14.00" fill="#000000"> </text>
<text text-anchor="start" x="535.2747" y="-355.3" font-family="Arial" font-size="14.00" fill="#666666">[BASE TABLE]</text>
<polygon fill="none" stroke="#000000" points="418,-312.5 418,-342.5 647,-342.5 647,-312.5 418,-312.5"/>
<text text-anchor="start" x="425" y="-323.9" font-family="Arial" font-size="14.00" fill="#000000">id </text>
<text text-anchor="start" x="439.7798" y="-323.9" font-family="Arial" font-size="14.00" fill="#666666">[varchar(22)]</text>
<polygon fill="none" stroke="#000000" points="418,-282.5 418,-312.5 647,-312.5 647,-282.5 418,-282.5"/>
<text text-anchor="start" x="425" y="-293.9" font-family="Arial" font-size="14.00" fill="#000000">name </text>
<text text-anchor="start" x="463.899" y="-293.9" font-family="Arial" font-size="14.00" fill="#666666">[varchar(100)]</text>
<polygon fill="none" stroke="#000000" points="418,-252.5 418,-282.5 647,-282.5 647,-252.5 418,-252.5"/>
<text text-anchor="start" x="425" y="-263.9" font-family="Arial" font-size="14.00" fill="#000000">repository_id </text>
<text text-anchor="start" x="509.0112" y="-263.9" font-family="Arial" font-size="14.00" fill="#666666">[varchar(22)]</text>
<polygon fill="none" stroke="#000000" points="418,-222.5 418,-252.5 647,-252.5 647,-222.5 418,-222.5"/>
<text text-anchor="start" x="425" y="-233.9" font-family="Arial" font-size="14.00" fill="#000000">branch_name </text>
<text text-anchor="start" x="514.4726" y="-233.9" font-family="Arial" font-size="14.00" fill="#666666">[varchar(100)]</text>
<polygon fill="none" stroke="#000000" points="418,-192.5 418,-222.5 647,-222.5 647,-192.5 418,-192.5"/>
<text text-anchor="start" x="424.8008" y="-203.9" font-family="Arial" font-size="14.00" fill="#000000">build_type </text>
<text text-anchor="start" x="492.4908" y="-203.9" font-family="Arial" font-size="14.00" fill="#666666">[enum(&#39;runtime&#39;,&#39;static&#39;)]</text>
<polygon fill="none" stroke="#000000" points="418,-162.5 418,-192.5 647,-192.5 647,-162.5 418,-162.5"/>
<text text-anchor="start" x="425" y="-173.9" font-family="Arial" font-size="14.00" fill="#000000">state </text>
<text text-anchor="start" x="459.237" y="-173.9" font-family="Arial" font-size="14.00" fill="#666666">[varchar(10)]</text>
<polygon fill="none" stroke="#000000" points="418,-132.5 418,-162.5 647,-162.5 647,-132.5 418,-132.5"/>
<text text-anchor="start" x="425" y="-143.9" font-family="Arial" font-size="14.00" fill="#000000">current_commit </text>
<text text-anchor="start" x="525.3338" y="-143.9" font-family="Arial" font-size="14.00" fill="#666666">[char(40)]</text>
<polygon fill="none" stroke="#000000" points="418,-102.5 418,-132.5 647,-132.5 647,-102.5 418,-102.5"/>
<text text-anchor="start" x="425" y="-113.9" font-family="Arial" font-size="14.00" fill="#000000">want_commit </text>
<text text-anchor="start" x="511.3366" y="-113.9" font-family="Arial" font-size="14.00" fill="#666666">[char(40)]</text>
<polygon fill="none" stroke="#000000" points="418,-72.5 418,-102.5 647,-102.5 647,-72.5 418,-72.5"/>
<text text-anchor="start" x="425" y="-83.9" font-family="Arial" font-size="14.00" fill="#000000">created_at </text>
<text text-anchor="start" x="495.028" y="-83.9" font-family="Arial" font-size="14.00" fill="#666666">[datetime(6)]</text>
<polygon fill="none" stroke="#000000" points="418,-42.5 418,-72.5 647,-72.5 647,-42.5 418,-42.5"/>
<text text-anchor="start" x="425" y="-53.9" font-family="Arial" font-size="14.00" fill="#000000">updated_at </text>
<text text-anchor="start" x="498.9326" y="-53.9" font-family="Arial" font-size="14.00" fill="#666666">[datetime(6)]</text>
</g>
<!-- builds&#45;&gt;applications -->
<g id="edge3" class="edge">
<title>builds:application_id&#45;&gt;applications:id</title>
<path fill="none" stroke="#000000" d="M472.6929,-515.0281C485.2138,-506.4609 472.828,-477.4483 463,-457 451.905,-433.9154 429.095,-444.0846 418,-421 399.9986,-383.5458 376.4444,-327.5 418,-327.5"/>
<polygon fill="#000000" stroke="#000000" points="472.6899,-515.0288 461.888,-513.1396 467.8449,-516.2644 463,-517.5 463,-517.5 463,-517.5 467.8449,-516.2644 464.112,-521.8604 472.6899,-515.0288 472.6899,-515.0288"/>
<text text-anchor="start" x="469.602" y="-527.5" font-family="Arial" font-size="10.00" fill="#000000">FOREIGN KEY (application_id) REFERENCES applications (id)</text>
</g>
<!-- artifacts -->
<g id="node2" class="node">
<title>artifacts</title>
<polygon fill="#efefef" stroke="transparent" points="285,-1052.5 285,-1087.5 459,-1087.5 459,-1052.5 285,-1052.5"/>
<polygon fill="none" stroke="#000000" points="285,-1052.5 285,-1087.5 459,-1087.5 459,-1052.5 285,-1052.5"/>
<text text-anchor="start" x="291.8704" y="-1065.3" font-family="Arial Bold" font-size="18.00" fill="#000000">artifacts</text>
<text text-anchor="start" x="354.8758" y="-1065.3" font-family="Arial" font-size="14.00" fill="#000000"> </text>
<text text-anchor="start" x="358.7664" y="-1065.3" font-family="Arial" font-size="14.00" fill="#666666">[BASE TABLE]</text>
<polygon fill="none" stroke="#000000" points="285,-1022.5 285,-1052.5 459,-1052.5 459,-1022.5 285,-1022.5"/>
<text text-anchor="start" x="292" y="-1033.9" font-family="Arial" font-size="14.00" fill="#000000">id </text>
<text text-anchor="start" x="306.7798" y="-1033.9" font-family="Arial" font-size="14.00" fill="#666666">[varchar(22)]</text>
<polygon fill="none" stroke="#000000" points="285,-992.5 285,-1022.5 459,-1022.5 459,-992.5 285,-992.5"/>
<text text-anchor="start" x="292" y="-1003.9" font-family="Arial" font-size="14.00" fill="#000000">size </text>
<text text-anchor="start" x="320.7798" y="-1003.9" font-family="Arial" font-size="14.00" fill="#666666">[bigint(20)]</text>
<polygon fill="none" stroke="#000000" points="285,-962.5 285,-992.5 459,-992.5 459,-962.5 285,-962.5"/>
<text text-anchor="start" x="292" y="-973.9" font-family="Arial" font-size="14.00" fill="#000000">created_at </text>
<text text-anchor="start" x="362.028" y="-973.9" font-family="Arial" font-size="14.00" fill="#666666">[datetime(6)]</text>
<polygon fill="none" stroke="#000000" points="285,-932.5 285,-962.5 459,-962.5 459,-932.5 285,-932.5"/>
<text text-anchor="start" x="292" y="-943.9" font-family="Arial" font-size="14.00" fill="#000000">deleted_at </text>
<text text-anchor="start" x="361.2566" y="-943.9" font-family="Arial" font-size="14.00" fill="#666666">[datetime(6)]</text>
<polygon fill="none" stroke="#000000" points="285,-902.5 285,-932.5 459,-932.5 459,-902.5 285,-902.5"/>
<text text-anchor="start" x="292" y="-913.9" font-family="Arial" font-size="14.00" fill="#000000">build_id </text>
<text text-anchor="start" x="344.1234" y="-913.9" font-family="Arial" font-size="14.00" fill="#666666">[varchar(22)]</text>
</g>
<!-- artifacts&#45;&gt;builds -->
<g id="edge1" class="edge">
<title>artifacts:build_id&#45;&gt;builds:id</title>
<path fill="none" stroke="#000000" d="M372.9797,-892.3217C381.4391,-852.0317 442.3215,-869.1474 463,-824 480.8598,-785.0066 505.8889,-727.5 463,-727.5"/>
<polygon fill="#000000" stroke="#000000" points="372.9582,-892.546 367.5207,-902.0688 372.4791,-897.523 372,-902.5 372,-902.5 372,-902.5 372.4791,-897.523 376.4793,-902.9312 372.9582,-892.546 372.9582,-892.546"/>
<text text-anchor="start" x="136.277" y="-912.5" font-family="Arial" font-size="10.00" fill="#000000">FOREIGN KEY (build_id) REFERENCES builds (id)</text>
</g>
</g>
</svg>
