<?xml version="1.0" encoding="UTF-8" standalone="no"?>
<!DOCTYPE svg PUBLIC "-//W3C//DTD SVG 1.1//EN"
 "http://www.w3.org/Graphics/SVG/1.1/DTD/svg11.dtd">
<!-- Generated by graphviz version 2.40.1 (20161225.0304)
 -->
<!-- Title: build_logs Pages: 1 -->
<svg width="647pt" height="959pt"
 viewBox="0.00 0.00 647.00 959.00" xmlns="http://www.w3.org/2000/svg" xmlns:xlink="http://www.w3.org/1999/xlink">
<g id="graph0" class="graph" transform="scale(1 1) rotate(0) translate(4 955)">
<title>build_logs</title>
<polygon fill="#ffffff" stroke="transparent" points="-4,4 -4,-955 643,-955 643,4 -4,4"/>
<!-- build_logs -->
<g id="node1" class="node">
<title>build_logs</title>
<polygon fill="#efefef" stroke="transparent" points="162,-562.5 162,-597.5 581,-597.5 581,-562.5 162,-562.5"/>
<polygon fill="none" stroke="#000000" points="162,-562.5 162,-597.5 581,-597.5 581,-562.5 162,-562.5"/>
<text text-anchor="start" x="282.3632" y="-575.3" font-family="Arial Bold" font-size="18.00" fill="#000000">build_logs</text>
<text text-anchor="start" x="363.383" y="-575.3" font-family="Arial" font-size="14.00" fill="#000000"> </text>
<text text-anchor="start" x="367.2736" y="-575.3" font-family="Arial" font-size="14.00" fill="#666666">[BASE TABLE]</text>
<polygon fill="none" stroke="#000000" points="162,-532.5 162,-562.5 581,-562.5 581,-532.5 162,-532.5"/>
<text text-anchor="start" x="169" y="-543.9" font-family="Arial" font-size="14.00" fill="#000000">id </text>
<text text-anchor="start" x="183.7798" y="-543.9" font-family="Arial" font-size="14.00" fill="#666666">[varchar(22)]</text>
<polygon fill="none" stroke="#000000" points="162,-502.5 162,-532.5 581,-532.5 581,-502.5 162,-502.5"/>
<text text-anchor="start" x="168.5742" y="-513.9" font-family="Arial" font-size="14.00" fill="#000000">result </text>
<text text-anchor="start" x="206.6878" y="-513.9" font-family="Arial" font-size="14.00" fill="#666666">[enum(&#39;BUILDING&#39;,&#39;SUCCEEDED&#39;,&#39;FAILED&#39;,&#39;CANCELED&#39;)]</text>
<polygon fill="none" stroke="#000000" points="162,-472.5 162,-502.5 581,-502.5 581,-472.5 162,-472.5"/>
<text text-anchor="start" x="169" y="-483.9" font-family="Arial" font-size="14.00" fill="#000000">started_at </text>
<text text-anchor="start" x="235.136" y="-483.9" font-family="Arial" font-size="14.00" fill="#666666">[datetime(6)]</text>
<polygon fill="none" stroke="#000000" points="162,-442.5 162,-472.5 581,-472.5 581,-442.5 162,-442.5"/>
<text text-anchor="start" x="169" y="-453.9" font-family="Arial" font-size="14.00" fill="#000000">finished_at </text>
<text text-anchor="start" x="240.5806" y="-453.9" font-family="Arial" font-size="14.00" fill="#666666">[datetime(6)]</text>
<polygon fill="none" stroke="#000000" points="162,-412.5 162,-442.5 581,-442.5 581,-412.5 162,-412.5"/>
<text text-anchor="start" x="169" y="-423.9" font-family="Arial" font-size="14.00" fill="#000000">branch_id </text>
<text text-anchor="start" x="234.3534" y="-423.9" font-family="Arial" font-size="14.00" fill="#666666">[varchar(22)]</text>
<polygon fill="none" stroke="#000000" stroke-width="3" points="160,-411.5 160,-599.5 582,-599.5 582,-411.5 160,-411.5"/>
</g>
<!-- branches -->
<g id="node3" class="node">
<title>branches</title>
<polygon fill="#efefef" stroke="transparent" points="262,-252.5 262,-287.5 482,-287.5 482,-252.5 262,-252.5"/>
<polygon fill="none" stroke="#000000" points="262,-252.5 262,-287.5 482,-287.5 482,-252.5 262,-252.5"/>
<text text-anchor="start" x="286.3615" y="-265.3" font-family="Arial Bold" font-size="18.00" fill="#000000">branches</text>
<text text-anchor="start" x="360.3847" y="-265.3" font-family="Arial" font-size="14.00" fill="#000000"> </text>
<text text-anchor="start" x="364.2753" y="-265.3" font-family="Arial" font-size="14.00" fill="#666666">[BASE TABLE]</text>
<polygon fill="none" stroke="#000000" points="262,-222.5 262,-252.5 482,-252.5 482,-222.5 262,-222.5"/>
<text text-anchor="start" x="269" y="-233.9" font-family="Arial" font-size="14.00" fill="#000000">id </text>
<text text-anchor="start" x="283.7798" y="-233.9" font-family="Arial" font-size="14.00" fill="#666666">[varchar(22)]</text>
<polygon fill="none" stroke="#000000" points="262,-192.5 262,-222.5 482,-222.5 482,-192.5 262,-192.5"/>
<text text-anchor="start" x="269" y="-203.9" font-family="Arial" font-size="14.00" fill="#000000">application_id </text>
<text text-anchor="start" x="358.4684" y="-203.9" font-family="Arial" font-size="14.00" fill="#666666">[varchar(22)]</text>
<polygon fill="none" stroke="#000000" points="262,-162.5 262,-192.5 482,-192.5 482,-162.5 262,-162.5"/>
<text text-anchor="start" x="269" y="-173.9" font-family="Arial" font-size="14.00" fill="#000000">branch_name </text>
<text text-anchor="start" x="358.4726" y="-173.9" font-family="Arial" font-size="14.00" fill="#666666">[varchar(100)]</text>
<polygon fill="none" stroke="#000000" points="262,-132.5 262,-162.5 482,-162.5 482,-132.5 262,-132.5"/>
<text text-anchor="start" x="268.5764" y="-143.9" font-family="Arial" font-size="14.00" fill="#000000">build_type </text>
<text text-anchor="start" x="336.2664" y="-143.9" font-family="Arial" font-size="14.00" fill="#666666">[enum(&#39;image&#39;,&#39;static&#39;)]</text>
<polygon fill="none" stroke="#000000" points="262,-102.5 262,-132.5 482,-132.5 482,-102.5 262,-102.5"/>
<text text-anchor="start" x="269" y="-113.9" font-family="Arial" font-size="14.00" fill="#000000">created_at </text>
<text text-anchor="start" x="339.028" y="-113.9" font-family="Arial" font-size="14.00" fill="#666666">[datetime(6)]</text>
<polygon fill="none" stroke="#000000" points="262,-72.5 262,-102.5 482,-102.5 482,-72.5 262,-72.5"/>
<text text-anchor="start" x="269" y="-83.9" font-family="Arial" font-size="14.00" fill="#000000">updated_at </text>
<text text-anchor="start" x="342.9326" y="-83.9" font-family="Arial" font-size="14.00" fill="#666666">[datetime(6)]</text>
<polygon fill="none" stroke="#000000" points="262,-42.5 262,-72.5 482,-72.5 482,-42.5 262,-42.5"/>
<text text-anchor="start" x="269" y="-53.9" font-family="Arial" font-size="14.00" fill="#000000">build_id </text>
<text text-anchor="start" x="321.1234" y="-53.9" font-family="Arial" font-size="14.00" fill="#666666">[varchar(22)]</text>
</g>
<!-- build_logs&#45;&gt;branches -->
<g id="edge3" class="edge">
<title>build_logs:branch_id&#45;&gt;branches:id</title>
<path fill="none" stroke="#000000" d="M371.1219,-402.4471C362.1966,-355.4112 287.7127,-382.0519 262,-331 243.3073,-293.886 220.4444,-237.5 262,-237.5"/>
<polygon fill="#000000" stroke="#000000" points="371.1297,-402.5379 367.5171,-412.8916 371.5649,-407.519 372,-412.5 372,-412.5 372,-412.5 371.5649,-407.519 376.4829,-412.1084 371.1297,-402.5379 371.1297,-402.5379"/>
<text text-anchor="start" x="379.0475" y="-422.5" font-family="Arial" font-size="10.00" fill="#000000">FOREIGN KEY (branch_id) REFERENCES branches (id)</text>
</g>
<!-- artifacts -->
<g id="node2" class="node">
<title>artifacts</title>
<polygon fill="#efefef" stroke="transparent" points="285,-872.5 285,-907.5 459,-907.5 459,-872.5 285,-872.5"/>
<polygon fill="none" stroke="#000000" points="285,-872.5 285,-907.5 459,-907.5 459,-872.5 285,-872.5"/>
<text text-anchor="start" x="291.8704" y="-885.3" font-family="Arial Bold" font-size="18.00" fill="#000000">artifacts</text>
<text text-anchor="start" x="354.8758" y="-885.3" font-family="Arial" font-size="14.00" fill="#000000"> </text>
<text text-anchor="start" x="358.7664" y="-885.3" font-family="Arial" font-size="14.00" fill="#666666">[BASE TABLE]</text>
<polygon fill="none" stroke="#000000" points="285,-842.5 285,-872.5 459,-872.5 459,-842.5 285,-842.5"/>
<text text-anchor="start" x="292" y="-853.9" font-family="Arial" font-size="14.00" fill="#000000">id </text>
<text text-anchor="start" x="306.7798" y="-853.9" font-family="Arial" font-size="14.00" fill="#666666">[varchar(22)]</text>
<polygon fill="none" stroke="#000000" points="285,-812.5 285,-842.5 459,-842.5 459,-812.5 285,-812.5"/>
<text text-anchor="start" x="292" y="-823.9" font-family="Arial" font-size="14.00" fill="#000000">build_log_id </text>
<text text-anchor="start" x="370.5778" y="-823.9" font-family="Arial" font-size="14.00" fill="#666666">[varchar(22)]</text>
<polygon fill="none" stroke="#000000" points="285,-782.5 285,-812.5 459,-812.5 459,-782.5 285,-782.5"/>
<text text-anchor="start" x="292" y="-793.9" font-family="Arial" font-size="14.00" fill="#000000">size </text>
<text text-anchor="start" x="320.7798" y="-793.9" font-family="Arial" font-size="14.00" fill="#666666">[bigint(20)]</text>
<polygon fill="none" stroke="#000000" points="285,-752.5 285,-782.5 459,-782.5 459,-752.5 285,-752.5"/>
<text text-anchor="start" x="292" y="-763.9" font-family="Arial" font-size="14.00" fill="#000000">created_at </text>
<text text-anchor="start" x="362.028" y="-763.9" font-family="Arial" font-size="14.00" fill="#666666">[datetime(6)]</text>
<polygon fill="none" stroke="#000000" points="285,-722.5 285,-752.5 459,-752.5 459,-722.5 285,-722.5"/>
<text text-anchor="start" x="292" y="-733.9" font-family="Arial" font-size="14.00" fill="#000000">deleted_at </text>
<text text-anchor="start" x="361.2566" y="-733.9" font-family="Arial" font-size="14.00" fill="#666666">[datetime(6)]</text>
</g>
<!-- artifacts&#45;&gt;build_logs -->
<g id="edge1" class="edge">
<title>artifacts:build_log_id&#45;&gt;build_logs:id</title>
<path fill="none" stroke="#000000" d="M275.0203,-826.6411C221.9244,-816.8822 243.9105,-726.3896 285,-680 372.8705,-580.795 493.1295,-743.205 581,-644 609.4374,-611.8944 623.8889,-547.5 581,-547.5"/>
<polygon fill="#000000" stroke="#000000" points="275.0368,-826.6424 284.6141,-831.9834 280.0184,-827.0712 285,-827.5 285,-827.5 285,-827.5 280.0184,-827.0712 285.3859,-823.0166 275.0368,-826.6424 275.0368,-826.6424"/>
<text text-anchor="start" x="11.381" y="-837.5" font-family="Arial" font-size="10.00" fill="#000000">FOREIGN KEY (build_log_id) REFERENCES build_logs (id)</text>
</g>
<!-- branches&#45;&gt;build_logs -->
<g id="edge2" class="edge">
<title>branches:build_id&#45;&gt;build_logs:id</title>
<path fill="none" stroke="#000000" d="M251.7308,-57.9639C142.856,-68.1351 183.3827,-243.0115 262,-331 357.0634,-437.395 485.9366,-260.605 581,-367 634.4505,-426.8218 661.2222,-547.5 581,-547.5"/>
<polygon fill="#000000" stroke="#000000" points="252.0102,-57.9514 262.2031,-61.9954 257.0051,-57.7257 262,-57.5 262,-57.5 262,-57.5 257.0051,-57.7257 261.7969,-53.0046 252.0102,-57.9514 252.0102,-57.9514"/>
<text text-anchor="start" x="6.829" y="-67.5" font-family="Arial" font-size="10.00" fill="#000000">FOREIGN KEY (build_id) REFERENCES build_logs (id)</text>
</g>
</g>
</svg>
