<?xml version="1.0" encoding="UTF-8" standalone="no"?>
<!DOCTYPE svg PUBLIC "-//W3C//DTD SVG 1.1//EN"
 "http://www.w3.org/Graphics/SVG/1.1/DTD/svg11.dtd">
<!-- Generated by graphviz version 2.40.1 (20161225.0304)
 -->
<!-- Title: builds Pages: 1 -->
<svg width="751pt" height="1139pt"
 viewBox="0.00 0.00 751.00 1139.00" xmlns="http://www.w3.org/2000/svg" xmlns:xlink="http://www.w3.org/1999/xlink">
<g id="graph0" class="graph" transform="scale(1 1) rotate(0) translate(4 1135)">
<title>builds</title>
<polygon fill="#ffffff" stroke="transparent" points="-4,4 -4,-1135 747,-1135 747,4 -4,4"/>
<!-- builds -->
<g id="node1" class="node">
<title>builds</title>
<polygon fill="#efefef" stroke="transparent" points="281,-742.5 281,-777.5 447,-777.5 447,-742.5 281,-742.5"/>
<polygon fill="none" stroke="#000000" points="281,-742.5 281,-777.5 447,-777.5 447,-742.5 281,-742.5"/>
<text text-anchor="start" x="291.8696" y="-755.3" font-family="Arial Bold" font-size="18.00" fill="#000000">builds</text>
<text text-anchor="start" x="338.8766" y="-755.3" font-family="Arial" font-size="14.00" fill="#000000"> </text>
<text text-anchor="start" x="342.7672" y="-755.3" font-family="Arial" font-size="14.00" fill="#666666">[BASE TABLE]</text>
<polygon fill="none" stroke="#000000" points="281,-712.5 281,-742.5 447,-742.5 447,-712.5 281,-712.5"/>
<text text-anchor="start" x="288" y="-723.9" font-family="Arial" font-size="14.00" fill="#000000">id </text>
<text text-anchor="start" x="302.7798" y="-723.9" font-family="Arial" font-size="14.00" fill="#666666">[char(22)]</text>
<polygon fill="none" stroke="#000000" points="281,-682.5 281,-712.5 447,-712.5 447,-682.5 281,-682.5"/>
<text text-anchor="start" x="288" y="-693.9" font-family="Arial" font-size="14.00" fill="#000000">commit </text>
<text text-anchor="start" x="336.9916" y="-693.9" font-family="Arial" font-size="14.00" fill="#666666">[char(40)]</text>
<polygon fill="none" stroke="#000000" points="281,-652.5 281,-682.5 447,-682.5 447,-652.5 281,-652.5"/>
<text text-anchor="start" x="288" y="-663.9" font-family="Arial" font-size="14.00" fill="#000000">status </text>
<text text-anchor="start" x="329.237" y="-663.9" font-family="Arial" font-size="14.00" fill="#666666">[varchar(10)]</text>
<polygon fill="none" stroke="#000000" points="281,-622.5 281,-652.5 447,-652.5 447,-622.5 281,-622.5"/>
<text text-anchor="start" x="288" y="-633.9" font-family="Arial" font-size="14.00" fill="#000000">started_at </text>
<text text-anchor="start" x="354.136" y="-633.9" font-family="Arial" font-size="14.00" fill="#666666">[datetime(6)]</text>
<polygon fill="none" stroke="#000000" points="281,-592.5 281,-622.5 447,-622.5 447,-592.5 281,-592.5"/>
<text text-anchor="start" x="287.7518" y="-603.9" font-family="Arial" font-size="14.00" fill="#000000">updated_at </text>
<text text-anchor="start" x="361.6844" y="-603.9" font-family="Arial" font-size="14.00" fill="#666666">[datetime(6)]</text>
<polygon fill="none" stroke="#000000" points="281,-562.5 281,-592.5 447,-592.5 447,-562.5 281,-562.5"/>
<text text-anchor="start" x="288" y="-573.9" font-family="Arial" font-size="14.00" fill="#000000">finished_at </text>
<text text-anchor="start" x="359.5806" y="-573.9" font-family="Arial" font-size="14.00" fill="#666666">[datetime(6)]</text>
<polygon fill="none" stroke="#000000" points="281,-532.5 281,-562.5 447,-562.5 447,-532.5 281,-532.5"/>
<text text-anchor="start" x="288" y="-543.9" font-family="Arial" font-size="14.00" fill="#000000">retriable </text>
<text text-anchor="start" x="342.446" y="-543.9" font-family="Arial" font-size="14.00" fill="#666666">[tinyint(1)]</text>
<polygon fill="none" stroke="#000000" points="281,-502.5 281,-532.5 447,-532.5 447,-502.5 281,-502.5"/>
<text text-anchor="start" x="288" y="-513.9" font-family="Arial" font-size="14.00" fill="#000000">application_id </text>
<text text-anchor="start" x="377.4684" y="-513.9" font-family="Arial" font-size="14.00" fill="#666666">[char(22)]</text>
<polygon fill="none" stroke="#000000" stroke-width="3" points="279.5,-501.5 279.5,-779.5 448.5,-779.5 448.5,-501.5 279.5,-501.5"/>
</g>
<!-- build_status -->
<g id="node3" class="node">
<title>build_status</title>
<polygon fill="#efefef" stroke="transparent" points="99,-207.5 99,-242.5 306,-242.5 306,-207.5 99,-207.5"/>
<polygon fill="none" stroke="#000000" points="99,-207.5 99,-242.5 306,-242.5 306,-207.5 99,-207.5"/>
<text text-anchor="start" x="105.8581" y="-220.3" font-family="Arial Bold" font-size="18.00" fill="#000000">build_status</text>
<text text-anchor="start" x="201.8881" y="-220.3" font-family="Arial" font-size="14.00" fill="#000000"> </text>
<text text-anchor="start" x="205.7787" y="-220.3" font-family="Arial" font-size="14.00" fill="#666666">[BASE TABLE]</text>
<polygon fill="none" stroke="#000000" points="99,-177.5 99,-207.5 306,-207.5 306,-177.5 99,-177.5"/>
<text text-anchor="start" x="106" y="-188.9" font-family="Arial" font-size="14.00" fill="#000000">status </text>
<text text-anchor="start" x="147.237" y="-188.9" font-family="Arial" font-size="14.00" fill="#666666">[varchar(10)]</text>
</g>
<!-- builds&#45;&gt;build_status -->
<g id="edge2" class="edge">
<title>builds:status&#45;&gt;build_status:status</title>
<path fill="none" stroke="#000000" d="M270.9862,-667.2347C118.4985,-658.8214 293.9299,-451.9963 306,-286 309.0137,-244.5539 347.5556,-192.5 306,-192.5"/>
<polygon fill="#000000" stroke="#000000" points="271.0035,-667.235 280.8808,-671.9984 276.0018,-667.3675 281,-667.5 281,-667.5 281,-667.5 276.0018,-667.3675 281.1192,-663.0016 271.0035,-667.235 271.0035,-667.235"/>
<text text-anchor="start" x="7.0985" y="-677.5" font-family="Arial" font-size="10.00" fill="#000000">FOREIGN KEY (status) REFERENCES build_status (status)</text>
</g>
<!-- applications -->
<g id="node4" class="node">
<title>applications</title>
<polygon fill="#efefef" stroke="transparent" points="410,-342.5 410,-377.5 639,-377.5 639,-342.5 410,-342.5"/>
<polygon fill="none" stroke="#000000" points="410,-342.5 410,-377.5 639,-377.5 639,-342.5 410,-342.5"/>
<text text-anchor="start" x="428.3621" y="-355.3" font-family="Arial Bold" font-size="18.00" fill="#000000">applications</text>
<text text-anchor="start" x="523.3841" y="-355.3" font-family="Arial" font-size="14.00" fill="#000000"> </text>
<text text-anchor="start" x="527.2747" y="-355.3" font-family="Arial" font-size="14.00" fill="#666666">[BASE TABLE]</text>
<polygon fill="none" stroke="#000000" points="410,-312.5 410,-342.5 639,-342.5 639,-312.5 410,-312.5"/>
<text text-anchor="start" x="417" y="-323.9" font-family="Arial" font-size="14.00" fill="#000000">id </text>
<text text-anchor="start" x="431.7798" y="-323.9" font-family="Arial" font-size="14.00" fill="#666666">[char(22)]</text>
<polygon fill="none" stroke="#000000" points="410,-282.5 410,-312.5 639,-312.5 639,-282.5 410,-282.5"/>
<text text-anchor="start" x="417" y="-293.9" font-family="Arial" font-size="14.00" fill="#000000">name </text>
<text text-anchor="start" x="455.899" y="-293.9" font-family="Arial" font-size="14.00" fill="#666666">[varchar(100)]</text>
<polygon fill="none" stroke="#000000" points="410,-252.5 410,-282.5 639,-282.5 639,-252.5 410,-252.5"/>
<text text-anchor="start" x="417" y="-263.9" font-family="Arial" font-size="14.00" fill="#000000">repository_id </text>
<text text-anchor="start" x="501.0112" y="-263.9" font-family="Arial" font-size="14.00" fill="#666666">[varchar(22)]</text>
<polygon fill="none" stroke="#000000" points="410,-222.5 410,-252.5 639,-252.5 639,-222.5 410,-222.5"/>
<text text-anchor="start" x="417" y="-233.9" font-family="Arial" font-size="14.00" fill="#000000">ref_name </text>
<text text-anchor="start" x="480.0154" y="-233.9" font-family="Arial" font-size="14.00" fill="#666666">[varchar(100)]</text>
<polygon fill="none" stroke="#000000" points="410,-192.5 410,-222.5 639,-222.5 639,-192.5 410,-192.5"/>
<text text-anchor="start" x="416.8008" y="-203.9" font-family="Arial" font-size="14.00" fill="#000000">build_type </text>
<text text-anchor="start" x="484.4908" y="-203.9" font-family="Arial" font-size="14.00" fill="#666666">[enum(&#39;runtime&#39;,&#39;static&#39;)]</text>
<polygon fill="none" stroke="#000000" points="410,-162.5 410,-192.5 639,-192.5 639,-162.5 410,-162.5"/>
<text text-anchor="start" x="417" y="-173.9" font-family="Arial" font-size="14.00" fill="#000000">state </text>
<text text-anchor="start" x="451.237" y="-173.9" font-family="Arial" font-size="14.00" fill="#666666">[varchar(10)]</text>
<polygon fill="none" stroke="#000000" points="410,-132.5 410,-162.5 639,-162.5 639,-132.5 410,-132.5"/>
<text text-anchor="start" x="417" y="-143.9" font-family="Arial" font-size="14.00" fill="#000000">current_commit </text>
<text text-anchor="start" x="517.3338" y="-143.9" font-family="Arial" font-size="14.00" fill="#666666">[char(40)]</text>
<polygon fill="none" stroke="#000000" points="410,-102.5 410,-132.5 639,-132.5 639,-102.5 410,-102.5"/>
<text text-anchor="start" x="417" y="-113.9" font-family="Arial" font-size="14.00" fill="#000000">want_commit </text>
<text text-anchor="start" x="503.3366" y="-113.9" font-family="Arial" font-size="14.00" fill="#666666">[char(40)]</text>
<polygon fill="none" stroke="#000000" points="410,-72.5 410,-102.5 639,-102.5 639,-72.5 410,-72.5"/>
<text text-anchor="start" x="417" y="-83.9" font-family="Arial" font-size="14.00" fill="#000000">created_at </text>
<text text-anchor="start" x="487.028" y="-83.9" font-family="Arial" font-size="14.00" fill="#666666">[datetime(6)]</text>
<polygon fill="none" stroke="#000000" points="410,-42.5 410,-72.5 639,-72.5 639,-42.5 410,-42.5"/>
<text text-anchor="start" x="417" y="-53.9" font-family="Arial" font-size="14.00" fill="#000000">updated_at </text>
<text text-anchor="start" x="490.9326" y="-53.9" font-family="Arial" font-size="14.00" fill="#666666">[datetime(6)]</text>
</g>
<!-- builds&#45;&gt;applications -->
<g id="edge3" class="edge">
<title>builds:application_id&#45;&gt;applications:id</title>
<path fill="none" stroke="#000000" d="M456.9541,-514.8211C468.6588,-506.0714 455.7438,-477.707 447,-457 438.0748,-435.8633 418.9252,-442.1367 410,-421 393.8348,-382.7175 368.4444,-327.5 410,-327.5"/>
<polygon fill="#000000" stroke="#000000" points="456.6564,-514.9011 445.8305,-513.1546 451.8282,-516.2006 447,-517.5 447,-517.5 447,-517.5 451.8282,-516.2006 448.1695,-521.8454 456.6564,-514.9011 456.6564,-514.9011"/>
<text text-anchor="start" x="453.602" y="-527.5" font-family="Arial" font-size="10.00" fill="#000000">FOREIGN KEY (application_id) REFERENCES applications (id)</text>
</g>
<!-- artifacts -->
<g id="node2" class="node">
<title>artifacts</title>
<polygon fill="#efefef" stroke="transparent" points="277,-1052.5 277,-1087.5 451,-1087.5 451,-1052.5 277,-1052.5"/>
<polygon fill="none" stroke="#000000" points="277,-1052.5 277,-1087.5 451,-1087.5 451,-1052.5 277,-1052.5"/>
<text text-anchor="start" x="283.8704" y="-1065.3" font-family="Arial Bold" font-size="18.00" fill="#000000">artifacts</text>
<text text-anchor="start" x="346.8758" y="-1065.3" font-family="Arial" font-size="14.00" fill="#000000"> </text>
<text text-anchor="start" x="350.7664" y="-1065.3" font-family="Arial" font-size="14.00" fill="#666666">[BASE TABLE]</text>
<polygon fill="none" stroke="#000000" points="277,-1022.5 277,-1052.5 451,-1052.5 451,-1022.5 277,-1022.5"/>
<text text-anchor="start" x="284" y="-1033.9" font-family="Arial" font-size="14.00" fill="#000000">id </text>
<text text-anchor="start" x="298.7798" y="-1033.9" font-family="Arial" font-size="14.00" fill="#666666">[char(22)]</text>
<polygon fill="none" stroke="#000000" points="277,-992.5 277,-1022.5 451,-1022.5 451,-992.5 277,-992.5"/>
<text text-anchor="start" x="284" y="-1003.9" font-family="Arial" font-size="14.00" fill="#000000">size </text>
<text text-anchor="start" x="312.7798" y="-1003.9" font-family="Arial" font-size="14.00" fill="#666666">[bigint(20)]</text>
<polygon fill="none" stroke="#000000" points="277,-962.5 277,-992.5 451,-992.5 451,-962.5 277,-962.5"/>
<text text-anchor="start" x="284" y="-973.9" font-family="Arial" font-size="14.00" fill="#000000">created_at </text>
<text text-anchor="start" x="354.028" y="-973.9" font-family="Arial" font-size="14.00" fill="#666666">[datetime(6)]</text>
<polygon fill="none" stroke="#000000" points="277,-932.5 277,-962.5 451,-962.5 451,-932.5 277,-932.5"/>
<text text-anchor="start" x="284" y="-943.9" font-family="Arial" font-size="14.00" fill="#000000">deleted_at </text>
<text text-anchor="start" x="353.2566" y="-943.9" font-family="Arial" font-size="14.00" fill="#666666">[datetime(6)]</text>
<polygon fill="none" stroke="#000000" points="277,-902.5 277,-932.5 451,-932.5 451,-902.5 277,-902.5"/>
<text text-anchor="start" x="284" y="-913.9" font-family="Arial" font-size="14.00" fill="#000000">build_id </text>
<text text-anchor="start" x="336.1234" y="-913.9" font-family="Arial" font-size="14.00" fill="#666666">[varchar(22)]</text>
</g>
<!-- artifacts&#45;&gt;builds -->
<g id="edge1" class="edge">
<title>artifacts:build_id&#45;&gt;builds:id</title>
<path fill="none" stroke="#000000" d="M364.9965,-892.291C373.1034,-854.1714 428.4085,-867.173 447,-824 463.9632,-784.6083 489.8889,-727.5 447,-727.5"/>
<polygon fill="#000000" stroke="#000000" points="364.9716,-892.5473 359.5213,-902.0628 364.4858,-897.5237 364,-902.5 364,-902.5 364,-902.5 364.4858,-897.5237 368.4787,-902.9372 364.9716,-892.5473 364.9716,-892.5473"/>
<text text-anchor="start" x="128.277" y="-912.5" font-family="Arial" font-size="10.00" fill="#000000">FOREIGN KEY (build_id) REFERENCES builds (id)</text>
</g>
</g>
</svg>
