<?xml version="1.0" encoding="UTF-8" standalone="no"?>
<!DOCTYPE svg PUBLIC "-//W3C//DTD SVG 1.1//EN"
        "http://www.w3.org/Graphics/SVG/1.1/DTD/svg11.dtd">
<!-- Generated by graphviz version 2.40.1 (20161225.0304)
 -->
<!-- Title: build_logs Pages: 1 -->
<svg width="881pt" height="959pt"
     viewBox="0.00 0.00 881.00 959.00" xmlns="http://www.w3.org/2000/svg" xmlns:xlink="http://www.w3.org/1999/xlink">
    <g id="graph0" class="graph" transform="scale(1 1) rotate(0) translate(4 955)">
        <title>build_logs</title>
        <polygon fill="#ffffff" stroke="transparent" points="-4,4 -4,-955 877,-955 877,4 -4,4"/>
        <!-- build_logs -->
        <g id="node1" class="node">
            <title>build_logs</title>
            <polygon fill="#efefef" stroke="transparent"
                     points="158,-562.5 158,-597.5 577,-597.5 577,-562.5 158,-562.5"/>
            <polygon fill="none" stroke="#000000" points="158,-562.5 158,-597.5 577,-597.5 577,-562.5 158,-562.5"/>
            <text text-anchor="start" x="278.3632" y="-575.3" font-family="Arial Bold" font-size="18.00" fill="#000000">
                build_logs
            </text>
            <text text-anchor="start" x="359.383" y="-575.3" font-family="Arial" font-size="14.00"
                  fill="#000000"></text>
            <text text-anchor="start" x="363.2736" y="-575.3" font-family="Arial" font-size="14.00" fill="#666666">[BASE
                TABLE]
            </text>
            <polygon fill="none" stroke="#000000" points="158,-532.5 158,-562.5 577,-562.5 577,-532.5 158,-532.5"/>
            <text text-anchor="start" x="165" y="-543.9" font-family="Arial" font-size="14.00" fill="#000000">id</text>
            <text text-anchor="start" x="179.7798" y="-543.9" font-family="Arial" font-size="14.00" fill="#666666">
                [varchar(22)]
            </text>
            <polygon fill="none" stroke="#000000" points="158,-502.5 158,-532.5 577,-532.5 577,-502.5 158,-502.5"/>
            <text text-anchor="start" x="165" y="-513.9" font-family="Arial" font-size="14.00" fill="#000000">
                application_id
            </text>
            <text text-anchor="start" x="254.4684" y="-513.9" font-family="Arial" font-size="14.00" fill="#666666">
                [varchar(22)]
            </text>
            <polygon fill="none" stroke="#000000" points="158,-472.5 158,-502.5 577,-502.5 577,-472.5 158,-472.5"/>
            <text text-anchor="start" x="164.5742" y="-483.9" font-family="Arial" font-size="14.00" fill="#000000">
                result
            </text>
            <text text-anchor="start" x="202.6878" y="-483.9" font-family="Arial" font-size="14.00" fill="#666666">
                [enum(&#39;BUILDING&#39;,&#39;SUCCEEDED&#39;,&#39;FAILED&#39;,&#39;CANCELED&#39;)]
            </text>
            <polygon fill="none" stroke="#000000" points="158,-442.5 158,-472.5 577,-472.5 577,-442.5 158,-442.5"/>
            <text text-anchor="start" x="165" y="-453.9" font-family="Arial" font-size="14.00" fill="#000000">
                started_at
            </text>
            <text text-anchor="start" x="231.136" y="-453.9" font-family="Arial" font-size="14.00" fill="#666666">
                [datetime(6)]
            </text>
            <polygon fill="none" stroke="#000000" points="158,-412.5 158,-442.5 577,-442.5 577,-412.5 158,-412.5"/>
            <text text-anchor="start" x="165" y="-423.9" font-family="Arial" font-size="14.00" fill="#000000">
                finished_at
            </text>
            <text text-anchor="start" x="236.5806" y="-423.9" font-family="Arial" font-size="14.00" fill="#666666">
                [datetime(6)]
            </text>
            <polygon fill="none" stroke="#000000" stroke-width="3"
                     points="156,-411.5 156,-599.5 578,-599.5 578,-411.5 156,-411.5"/>
        </g>
        <!-- applications -->
        <g id="node3" class="node">
            <title>applications</title>
            <polygon fill="#efefef" stroke="transparent"
                     points="265,-252.5 265,-287.5 471,-287.5 471,-252.5 265,-252.5"/>
            <polygon fill="none" stroke="#000000" points="265,-252.5 265,-287.5 471,-287.5 471,-252.5 265,-252.5"/>
            <text text-anchor="start" x="271.8621" y="-265.3" font-family="Arial Bold" font-size="18.00" fill="#000000">
                applications
            </text>
            <text text-anchor="start" x="366.8841" y="-265.3" font-family="Arial" font-size="14.00"
                  fill="#000000"></text>
            <text text-anchor="start" x="370.7747" y="-265.3" font-family="Arial" font-size="14.00" fill="#666666">[BASE
                TABLE]
            </text>
            <polygon fill="none" stroke="#000000" points="265,-222.5 265,-252.5 471,-252.5 471,-222.5 265,-222.5"/>
            <text text-anchor="start" x="272" y="-233.9" font-family="Arial" font-size="14.00" fill="#000000">id</text>
            <text text-anchor="start" x="286.7798" y="-233.9" font-family="Arial" font-size="14.00" fill="#666666">
                [varchar(22)]
            </text>
            <polygon fill="none" stroke="#000000" points="265,-192.5 265,-222.5 471,-222.5 471,-192.5 265,-192.5"/>
            <text text-anchor="start" x="272" y="-203.9" font-family="Arial" font-size="14.00" fill="#000000">owner
            </text>
            <text text-anchor="start" x="314.0056" y="-203.9" font-family="Arial" font-size="14.00" fill="#666666">
                [varchar(100)]
            </text>
            <polygon fill="none" stroke="#000000" points="265,-162.5 265,-192.5 471,-192.5 471,-162.5 265,-162.5"/>
            <text text-anchor="start" x="272" y="-173.9" font-family="Arial" font-size="14.00" fill="#000000">name
            </text>
            <text text-anchor="start" x="310.899" y="-173.9" font-family="Arial" font-size="14.00" fill="#666666">
                [varchar(100)]
            </text>
            <polygon fill="none" stroke="#000000" points="265,-132.5 265,-162.5 471,-162.5 471,-132.5 265,-132.5"/>
            <text text-anchor="start" x="272" y="-143.9" font-family="Arial" font-size="14.00" fill="#000000">
                repository_id
            </text>
            <text text-anchor="start" x="356.0112" y="-143.9" font-family="Arial" font-size="14.00" fill="#666666">
                [varchar(22)]
            </text>
            <polygon fill="none" stroke="#000000" points="265,-102.5 265,-132.5 471,-132.5 471,-102.5 265,-102.5"/>
            <text text-anchor="start" x="272" y="-113.9" font-family="Arial" font-size="14.00" fill="#000000">
                created_at
            </text>
            <text text-anchor="start" x="342.028" y="-113.9" font-family="Arial" font-size="14.00" fill="#666666">
                [datetime(6)]
            </text>
            <polygon fill="none" stroke="#000000" points="265,-72.5 265,-102.5 471,-102.5 471,-72.5 265,-72.5"/>
            <text text-anchor="start" x="272" y="-83.9" font-family="Arial" font-size="14.00" fill="#000000">
                updated_at
            </text>
            <text text-anchor="start" x="345.9326" y="-83.9" font-family="Arial" font-size="14.00" fill="#666666">
                [datetime(6)]
            </text>
            <polygon fill="none" stroke="#000000" points="265,-42.5 265,-72.5 471,-72.5 471,-42.5 265,-42.5"/>
            <text text-anchor="start" x="272" y="-53.9" font-family="Arial" font-size="14.00" fill="#000000">
                deleted_at
            </text>
            <text text-anchor="start" x="341.2566" y="-53.9" font-family="Arial" font-size="14.00" fill="#666666">
                [datetime(6)]
            </text>
        </g>
        <!-- build_logs&#45;&gt;applications -->
        <g id="edge2" class="edge">
            <title>build_logs:application_id&#45;&gt;applications:id</title>
            <path fill="none" stroke="#000000"
                  d="M587.184,-516.6224C641.3744,-506.6521 619.0706,-414.204 577,-367 484.1263,-262.7939 357.8737,-435.2061 265,-331 237.3511,-299.9774 223.4444,-237.5 265,-237.5"/>
            <polygon fill="#000000" stroke="#000000"
                     points="586.9631,-516.6414 576.6136,-513.0166 581.9815,-517.0707 577,-517.5 577,-517.5 577,-517.5 581.9815,-517.0707 577.3864,-521.9834 586.9631,-516.6414 586.9631,-516.6414"/>
            <text text-anchor="start" x="583.602" y="-527.5" font-family="Arial" font-size="10.00" fill="#000000">
                FOREIGN KEY (application_id) REFERENCES applications (id)
            </text>
        </g>
        <!-- artifacts -->
        <g id="node2" class="node">
            <title>artifacts</title>
            <polygon fill="#efefef" stroke="transparent"
                     points="281,-872.5 281,-907.5 455,-907.5 455,-872.5 281,-872.5"/>
            <polygon fill="none" stroke="#000000" points="281,-872.5 281,-907.5 455,-907.5 455,-872.5 281,-872.5"/>
            <text text-anchor="start" x="287.8704" y="-885.3" font-family="Arial Bold" font-size="18.00" fill="#000000">
                artifacts
            </text>
            <text text-anchor="start" x="350.8758" y="-885.3" font-family="Arial" font-size="14.00"
                  fill="#000000"></text>
            <text text-anchor="start" x="354.7664" y="-885.3" font-family="Arial" font-size="14.00" fill="#666666">[BASE
                TABLE]
            </text>
            <polygon fill="none" stroke="#000000" points="281,-842.5 281,-872.5 455,-872.5 455,-842.5 281,-842.5"/>
            <text text-anchor="start" x="288" y="-853.9" font-family="Arial" font-size="14.00" fill="#000000">id</text>
            <text text-anchor="start" x="302.7798" y="-853.9" font-family="Arial" font-size="14.00" fill="#666666">
                [varchar(22)]
            </text>
            <polygon fill="none" stroke="#000000" points="281,-812.5 281,-842.5 455,-842.5 455,-812.5 281,-812.5"/>
            <text text-anchor="start" x="288" y="-823.9" font-family="Arial" font-size="14.00" fill="#000000">
                build_log_id
            </text>
            <text text-anchor="start" x="366.5778" y="-823.9" font-family="Arial" font-size="14.00" fill="#666666">
                [varchar(22)]
            </text>
            <polygon fill="none" stroke="#000000" points="281,-782.5 281,-812.5 455,-812.5 455,-782.5 281,-782.5"/>
            <text text-anchor="start" x="288" y="-793.9" font-family="Arial" font-size="14.00" fill="#000000">size
            </text>
            <text text-anchor="start" x="316.7798" y="-793.9" font-family="Arial" font-size="14.00" fill="#666666">
                [bigint(20)]
            </text>
            <polygon fill="none" stroke="#000000" points="281,-752.5 281,-782.5 455,-782.5 455,-752.5 281,-752.5"/>
            <text text-anchor="start" x="288" y="-763.9" font-family="Arial" font-size="14.00" fill="#000000">
                created_at
            </text>
            <text text-anchor="start" x="358.028" y="-763.9" font-family="Arial" font-size="14.00" fill="#666666">
                [datetime(6)]
            </text>
            <polygon fill="none" stroke="#000000" points="281,-722.5 281,-752.5 455,-752.5 455,-722.5 281,-722.5"/>
            <text text-anchor="start" x="288" y="-733.9" font-family="Arial" font-size="14.00" fill="#000000">
                deleted_at
            </text>
            <text text-anchor="start" x="357.2566" y="-733.9" font-family="Arial" font-size="14.00" fill="#666666">
                [datetime(6)]
            </text>
        </g>
        <!-- artifacts&#45;&gt;build_logs -->
        <g id="edge1" class="edge">
            <title>artifacts:build_log_id&#45;&gt;build_logs:id</title>
            <path fill="none" stroke="#000000"
                  d="M271.0203,-826.6411C217.9244,-816.8822 239.9105,-726.3896 281,-680 368.8705,-580.795 489.1295,-743.205 577,-644 605.4374,-611.8944 619.8889,-547.5 577,-547.5"/>
            <polygon fill="#000000" stroke="#000000"
                     points="271.0368,-826.6424 280.6141,-831.9834 276.0184,-827.0712 281,-827.5 281,-827.5 281,-827.5 276.0184,-827.0712 281.3859,-823.0166 271.0368,-826.6424 271.0368,-826.6424"/>
            <text text-anchor="start" x="7.381" y="-837.5" font-family="Arial" font-size="10.00" fill="#000000">FOREIGN
                KEY (build_log_id) REFERENCES build_logs (id)
            </text>
        </g>
    </g>
</svg>
