<?xml version="1.0" encoding="UTF-8" standalone="no"?>
<!DOCTYPE svg PUBLIC "-//W3C//DTD SVG 1.1//EN"
 "http://www.w3.org/Graphics/SVG/1.1/DTD/svg11.dtd">
<!-- Generated by graphviz version 2.40.1 (20161225.0304)
 -->
<!-- Title: builds Pages: 1 -->
<svg width="767pt" height="1049pt"
 viewBox="0.00 0.00 767.00 1049.00" xmlns="http://www.w3.org/2000/svg" xmlns:xlink="http://www.w3.org/1999/xlink">
<g id="graph0" class="graph" transform="scale(1 1) rotate(0) translate(4 1045)">
<title>builds</title>
<polygon fill="#ffffff" stroke="transparent" points="-4,4 -4,-1045 763,-1045 763,4 -4,4"/>
<!-- builds -->
<g id="node1" class="node">
<title>builds</title>
<polygon fill="#efefef" stroke="transparent" points="281,-652.5 281,-687.5 463,-687.5 463,-652.5 281,-652.5"/>
<polygon fill="none" stroke="#000000" points="281,-652.5 281,-687.5 463,-687.5 463,-652.5 281,-652.5"/>
<text text-anchor="start" x="299.8696" y="-665.3" font-family="Arial Bold" font-size="18.00" fill="#000000">builds</text>
<text text-anchor="start" x="346.8766" y="-665.3" font-family="Arial" font-size="14.00" fill="#000000"> </text>
<text text-anchor="start" x="350.7672" y="-665.3" font-family="Arial" font-size="14.00" fill="#666666">[BASE TABLE]</text>
<polygon fill="none" stroke="#000000" points="281,-622.5 281,-652.5 463,-652.5 463,-622.5 281,-622.5"/>
<text text-anchor="start" x="288" y="-633.9" font-family="Arial" font-size="14.00" fill="#000000">id </text>
<text text-anchor="start" x="302.7798" y="-633.9" font-family="Arial" font-size="14.00" fill="#666666">[varchar(22)]</text>
<polygon fill="none" stroke="#000000" points="281,-592.5 281,-622.5 463,-622.5 463,-592.5 281,-592.5"/>
<text text-anchor="start" x="288" y="-603.9" font-family="Arial" font-size="14.00" fill="#000000">commit </text>
<text text-anchor="start" x="336.9916" y="-603.9" font-family="Arial" font-size="14.00" fill="#666666">[char(40)]</text>
<polygon fill="none" stroke="#000000" points="281,-562.5 281,-592.5 463,-592.5 463,-562.5 281,-562.5"/>
<text text-anchor="start" x="288" y="-573.9" font-family="Arial" font-size="14.00" fill="#000000">status </text>
<text text-anchor="start" x="329.237" y="-573.9" font-family="Arial" font-size="14.00" fill="#666666">[varchar(10)]</text>
<polygon fill="none" stroke="#000000" points="281,-532.5 281,-562.5 463,-562.5 463,-532.5 281,-532.5"/>
<text text-anchor="start" x="288" y="-543.9" font-family="Arial" font-size="14.00" fill="#000000">started_at </text>
<text text-anchor="start" x="354.136" y="-543.9" font-family="Arial" font-size="14.00" fill="#666666">[datetime(6)]</text>
<polygon fill="none" stroke="#000000" points="281,-502.5 281,-532.5 463,-532.5 463,-502.5 281,-502.5"/>
<text text-anchor="start" x="288" y="-513.9" font-family="Arial" font-size="14.00" fill="#000000">finished_at </text>
<text text-anchor="start" x="359.5806" y="-513.9" font-family="Arial" font-size="14.00" fill="#666666">[datetime(6)]</text>
<polygon fill="none" stroke="#000000" points="281,-472.5 281,-502.5 463,-502.5 463,-472.5 281,-472.5"/>
<text text-anchor="start" x="287.5975" y="-483.9" font-family="Arial" font-size="14.00" fill="#000000">application_id </text>
<text text-anchor="start" x="377.0659" y="-483.9" font-family="Arial" font-size="14.00" fill="#666666">[varchar(22)]</text>
<polygon fill="none" stroke="#000000" stroke-width="3" points="279.5,-471.5 279.5,-689.5 464.5,-689.5 464.5,-471.5 279.5,-471.5"/>
</g>
<!-- build_status -->
<g id="node3" class="node">
<title>build_status</title>
<polygon fill="#efefef" stroke="transparent" points="110,-192.5 110,-227.5 317,-227.5 317,-192.5 110,-192.5"/>
<polygon fill="none" stroke="#000000" points="110,-192.5 110,-227.5 317,-227.5 317,-192.5 110,-192.5"/>
<text text-anchor="start" x="116.8581" y="-205.3" font-family="Arial Bold" font-size="18.00" fill="#000000">build_status</text>
<text text-anchor="start" x="212.8881" y="-205.3" font-family="Arial" font-size="14.00" fill="#000000"> </text>
<text text-anchor="start" x="216.7787" y="-205.3" font-family="Arial" font-size="14.00" fill="#666666">[BASE TABLE]</text>
<polygon fill="none" stroke="#000000" points="110,-162.5 110,-192.5 317,-192.5 317,-162.5 110,-162.5"/>
<text text-anchor="start" x="117" y="-173.9" font-family="Arial" font-size="14.00" fill="#000000">status </text>
<text text-anchor="start" x="158.237" y="-173.9" font-family="Arial" font-size="14.00" fill="#666666">[varchar(10)]</text>
</g>
<!-- builds&#45;&gt;build_status -->
<g id="edge2" class="edge">
<title>builds:status&#45;&gt;build_status:status</title>
<path fill="none" stroke="#000000" d="M270.7295,-577.0022C118.3822,-561.262 491.8358,-177.5 317,-177.5"/>
<polygon fill="#000000" stroke="#000000" points="271.0117,-577.0158 280.7821,-581.9947 276.0059,-577.2579 281,-577.5 281,-577.5 281,-577.5 276.0059,-577.2579 281.2179,-573.0053 271.0117,-577.0158 271.0117,-577.0158"/>
<text text-anchor="start" x="7.0985" y="-587.5" font-family="Arial" font-size="10.00" fill="#000000">FOREIGN KEY (status) REFERENCES build_status (status)</text>
</g>
<!-- applications -->
<g id="node4" class="node">
<title>applications</title>
<polygon fill="#efefef" stroke="transparent" points="421,-312.5 421,-347.5 641,-347.5 641,-312.5 421,-312.5"/>
<polygon fill="none" stroke="#000000" points="421,-312.5 421,-347.5 641,-347.5 641,-312.5 421,-312.5"/>
<text text-anchor="start" x="434.8621" y="-325.3" font-family="Arial Bold" font-size="18.00" fill="#000000">applications</text>
<text text-anchor="start" x="529.8841" y="-325.3" font-family="Arial" font-size="14.00" fill="#000000"> </text>
<text text-anchor="start" x="533.7747" y="-325.3" font-family="Arial" font-size="14.00" fill="#666666">[BASE TABLE]</text>
<polygon fill="none" stroke="#000000" points="421,-282.5 421,-312.5 641,-312.5 641,-282.5 421,-282.5"/>
<text text-anchor="start" x="428" y="-293.9" font-family="Arial" font-size="14.00" fill="#000000">id </text>
<text text-anchor="start" x="442.7798" y="-293.9" font-family="Arial" font-size="14.00" fill="#666666">[varchar(22)]</text>
<polygon fill="none" stroke="#000000" points="421,-252.5 421,-282.5 641,-282.5 641,-252.5 421,-252.5"/>
<text text-anchor="start" x="428" y="-263.9" font-family="Arial" font-size="14.00" fill="#000000">repository_id </text>
<text text-anchor="start" x="512.0112" y="-263.9" font-family="Arial" font-size="14.00" fill="#666666">[varchar(22)]</text>
<polygon fill="none" stroke="#000000" points="421,-222.5 421,-252.5 641,-252.5 641,-222.5 421,-222.5"/>
<text text-anchor="start" x="428" y="-233.9" font-family="Arial" font-size="14.00" fill="#000000">branch_name </text>
<text text-anchor="start" x="517.4726" y="-233.9" font-family="Arial" font-size="14.00" fill="#666666">[varchar(100)]</text>
<polygon fill="none" stroke="#000000" points="421,-192.5 421,-222.5 641,-222.5 641,-192.5 421,-192.5"/>
<text text-anchor="start" x="427.5764" y="-203.9" font-family="Arial" font-size="14.00" fill="#000000">build_type </text>
<text text-anchor="start" x="495.2664" y="-203.9" font-family="Arial" font-size="14.00" fill="#666666">[enum(&#39;image&#39;,&#39;static&#39;)]</text>
<polygon fill="none" stroke="#000000" points="421,-162.5 421,-192.5 641,-192.5 641,-162.5 421,-162.5"/>
<text text-anchor="start" x="428" y="-173.9" font-family="Arial" font-size="14.00" fill="#000000">state </text>
<text text-anchor="start" x="462.237" y="-173.9" font-family="Arial" font-size="14.00" fill="#666666">[varchar(10)]</text>
<polygon fill="none" stroke="#000000" points="421,-132.5 421,-162.5 641,-162.5 641,-132.5 421,-132.5"/>
<text text-anchor="start" x="428" y="-143.9" font-family="Arial" font-size="14.00" fill="#000000">current_commit </text>
<text text-anchor="start" x="528.3338" y="-143.9" font-family="Arial" font-size="14.00" fill="#666666">[char(40)]</text>
<polygon fill="none" stroke="#000000" points="421,-102.5 421,-132.5 641,-132.5 641,-102.5 421,-102.5"/>
<text text-anchor="start" x="428" y="-113.9" font-family="Arial" font-size="14.00" fill="#000000">want_commit </text>
<text text-anchor="start" x="514.3366" y="-113.9" font-family="Arial" font-size="14.00" fill="#666666">[char(40)]</text>
<polygon fill="none" stroke="#000000" points="421,-72.5 421,-102.5 641,-102.5 641,-72.5 421,-72.5"/>
<text text-anchor="start" x="428" y="-83.9" font-family="Arial" font-size="14.00" fill="#000000">created_at </text>
<text text-anchor="start" x="498.028" y="-83.9" font-family="Arial" font-size="14.00" fill="#666666">[datetime(6)]</text>
<polygon fill="none" stroke="#000000" points="421,-42.5 421,-72.5 641,-72.5 641,-42.5 421,-42.5"/>
<text text-anchor="start" x="428" y="-53.9" font-family="Arial" font-size="14.00" fill="#000000">updated_at </text>
<text text-anchor="start" x="501.9326" y="-53.9" font-family="Arial" font-size="14.00" fill="#666666">[datetime(6)]</text>
</g>
<!-- builds&#45;&gt;applications -->
<g id="edge3" class="edge">
<title>builds:application_id&#45;&gt;applications:id</title>
<path fill="none" stroke="#000000" d="M473.0065,-484.798C484.8716,-475.9775 472.3923,-447.421 463,-427 452.7268,-404.6638 431.2732,-413.3362 421,-391 403.6357,-353.2462 379.4444,-297.5 421,-297.5"/>
<polygon fill="#000000" stroke="#000000" points="472.6542,-484.893 461.8269,-483.1556 467.8271,-486.1965 463,-487.5 463,-487.5 463,-487.5 467.8271,-486.1965 464.1731,-491.8444 472.6542,-484.893 472.6542,-484.893"/>
<text text-anchor="start" x="469.602" y="-497.5" font-family="Arial" font-size="10.00" fill="#000000">FOREIGN KEY (application_id) REFERENCES applications (id)</text>
</g>
<!-- artifacts -->
<g id="node2" class="node">
<title>artifacts</title>
<polygon fill="#efefef" stroke="transparent" points="285,-962.5 285,-997.5 459,-997.5 459,-962.5 285,-962.5"/>
<polygon fill="none" stroke="#000000" points="285,-962.5 285,-997.5 459,-997.5 459,-962.5 285,-962.5"/>
<text text-anchor="start" x="291.8704" y="-975.3" font-family="Arial Bold" font-size="18.00" fill="#000000">artifacts</text>
<text text-anchor="start" x="354.8758" y="-975.3" font-family="Arial" font-size="14.00" fill="#000000"> </text>
<text text-anchor="start" x="358.7664" y="-975.3" font-family="Arial" font-size="14.00" fill="#666666">[BASE TABLE]</text>
<polygon fill="none" stroke="#000000" points="285,-932.5 285,-962.5 459,-962.5 459,-932.5 285,-932.5"/>
<text text-anchor="start" x="292" y="-943.9" font-family="Arial" font-size="14.00" fill="#000000">id </text>
<text text-anchor="start" x="306.7798" y="-943.9" font-family="Arial" font-size="14.00" fill="#666666">[varchar(22)]</text>
<polygon fill="none" stroke="#000000" points="285,-902.5 285,-932.5 459,-932.5 459,-902.5 285,-902.5"/>
<text text-anchor="start" x="292" y="-913.9" font-family="Arial" font-size="14.00" fill="#000000">size </text>
<text text-anchor="start" x="320.7798" y="-913.9" font-family="Arial" font-size="14.00" fill="#666666">[bigint(20)]</text>
<polygon fill="none" stroke="#000000" points="285,-872.5 285,-902.5 459,-902.5 459,-872.5 285,-872.5"/>
<text text-anchor="start" x="292" y="-883.9" font-family="Arial" font-size="14.00" fill="#000000">created_at </text>
<text text-anchor="start" x="362.028" y="-883.9" font-family="Arial" font-size="14.00" fill="#666666">[datetime(6)]</text>
<polygon fill="none" stroke="#000000" points="285,-842.5 285,-872.5 459,-872.5 459,-842.5 285,-842.5"/>
<text text-anchor="start" x="292" y="-853.9" font-family="Arial" font-size="14.00" fill="#000000">deleted_at </text>
<text text-anchor="start" x="361.2566" y="-853.9" font-family="Arial" font-size="14.00" fill="#666666">[datetime(6)]</text>
<polygon fill="none" stroke="#000000" points="285,-812.5 285,-842.5 459,-842.5 459,-812.5 285,-812.5"/>
<text text-anchor="start" x="292" y="-823.9" font-family="Arial" font-size="14.00" fill="#000000">build_id </text>
<text text-anchor="start" x="344.1234" y="-823.9" font-family="Arial" font-size="14.00" fill="#666666">[varchar(22)]</text>
</g>
<!-- artifacts&#45;&gt;builds -->
<g id="edge1" class="edge">
<title>artifacts:build_id&#45;&gt;builds:id</title>
<path fill="none" stroke="#000000" d="M372.9797,-802.3217C381.4391,-762.0317 442.3215,-779.1474 463,-734 480.8598,-695.0066 505.8889,-637.5 463,-637.5"/>
<polygon fill="#000000" stroke="#000000" points="372.9582,-802.546 367.5207,-812.0688 372.4791,-807.523 372,-812.5 372,-812.5 372,-812.5 372.4791,-807.523 376.4793,-812.9312 372.9582,-802.546 372.9582,-802.546"/>
<text text-anchor="start" x="136.277" y="-822.5" font-family="Arial" font-size="10.00" fill="#000000">FOREIGN KEY (build_id) REFERENCES builds (id)</text>
</g>
</g>
</svg>
