<?xml version="1.0" encoding="UTF-8" standalone="no"?>
<!DOCTYPE svg PUBLIC "-//W3C//DTD SVG 1.1//EN"
        "http://www.w3.org/Graphics/SVG/1.1/DTD/svg11.dtd">
<!-- Generated by graphviz version 2.40.1 (20161225.0304)
 -->
<!-- Title: build_logs Pages: 1 -->
<svg width="546pt" height="959pt"
     viewBox="0.00 0.00 546.00 959.00" xmlns="http://www.w3.org/2000/svg" xmlns:xlink="http://www.w3.org/1999/xlink">
    <g id="graph0" class="graph" transform="scale(1 1) rotate(0) translate(4 955)">
        <title>build_logs</title>
        <polygon fill="#ffffff" stroke="transparent" points="-4,4 -4,-955 542,-955 542,4 -4,4"/>
        <!-- build_logs -->
        <g id="node1" class="node">
            <title>build_logs</title>
            <polygon fill="#efefef" stroke="transparent" points="50,-562.5 50,-597.5 242,-597.5 242,-562.5 50,-562.5"/>
            <polygon fill="none" stroke="#000000" points="50,-562.5 50,-597.5 242,-597.5 242,-562.5 50,-562.5"/>
            <text text-anchor="start" x="56.8632" y="-575.3" font-family="Arial Bold" font-size="18.00" fill="#000000">
                build_logs
            </text>
            <text text-anchor="start" x="137.883" y="-575.3" font-family="Arial" font-size="14.00"
                  fill="#000000"></text>
            <text text-anchor="start" x="141.7736" y="-575.3" font-family="Arial" font-size="14.00" fill="#666666">[BASE
                TABLE]
            </text>
            <polygon fill="none" stroke="#000000" points="50,-532.5 50,-562.5 242,-562.5 242,-532.5 50,-532.5"/>
            <text text-anchor="start" x="57" y="-543.9" font-family="Arial" font-size="14.00" fill="#000000">id</text>
            <text text-anchor="start" x="71.7798" y="-543.9" font-family="Arial" font-size="14.00" fill="#666666">
                [varchar(22)]
            </text>
            <polygon fill="none" stroke="#000000" points="50,-502.5 50,-532.5 242,-532.5 242,-502.5 50,-502.5"/>
            <text text-anchor="start" x="57" y="-513.9" font-family="Arial" font-size="14.00" fill="#000000">
                application_id
            </text>
            <text text-anchor="start" x="146.4684" y="-513.9" font-family="Arial" font-size="14.00" fill="#666666">
                [varchar(22)]
            </text>
            <polygon fill="none" stroke="#000000" points="50,-472.5 50,-502.5 242,-502.5 242,-472.5 50,-472.5"/>
            <text text-anchor="start" x="57" y="-483.9" font-family="Arial" font-size="14.00" fill="#000000">result
            </text>
            <text text-anchor="start" x="95.1136" y="-483.9" font-family="Arial" font-size="14.00" fill="#666666">
                [varchar(20)]
            </text>
            <polygon fill="none" stroke="#000000" points="50,-442.5 50,-472.5 242,-472.5 242,-442.5 50,-442.5"/>
            <text text-anchor="start" x="57" y="-453.9" font-family="Arial" font-size="14.00" fill="#000000">
                started_at
            </text>
            <text text-anchor="start" x="123.136" y="-453.9" font-family="Arial" font-size="14.00" fill="#666666">
                [datetime(6)]
            </text>
            <polygon fill="none" stroke="#000000" points="50,-412.5 50,-442.5 242,-442.5 242,-412.5 50,-412.5"/>
            <text text-anchor="start" x="57" y="-423.9" font-family="Arial" font-size="14.00" fill="#000000">
                finished_at
            </text>
            <text text-anchor="start" x="128.5806" y="-423.9" font-family="Arial" font-size="14.00" fill="#666666">
                [datetime(6)]
            </text>
            <polygon fill="none" stroke="#000000" stroke-width="3"
                     points="48.5,-411.5 48.5,-599.5 243.5,-599.5 243.5,-411.5 48.5,-411.5"/>
        </g>
        <!-- applications -->
        <g id="node3" class="node">
            <title>applications</title>
            <polygon fill="#efefef" stroke="transparent" points="43,-252.5 43,-287.5 249,-287.5 249,-252.5 43,-252.5"/>
            <polygon fill="none" stroke="#000000" points="43,-252.5 43,-287.5 249,-287.5 249,-252.5 43,-252.5"/>
            <text text-anchor="start" x="49.8621" y="-265.3" font-family="Arial Bold" font-size="18.00" fill="#000000">
                applications
            </text>
            <text text-anchor="start" x="144.8841" y="-265.3" font-family="Arial" font-size="14.00"
                  fill="#000000"></text>
            <text text-anchor="start" x="148.7747" y="-265.3" font-family="Arial" font-size="14.00" fill="#666666">[BASE
                TABLE]
            </text>
            <polygon fill="none" stroke="#000000" points="43,-222.5 43,-252.5 249,-252.5 249,-222.5 43,-222.5"/>
            <text text-anchor="start" x="50" y="-233.9" font-family="Arial" font-size="14.00" fill="#000000">id</text>
            <text text-anchor="start" x="64.7798" y="-233.9" font-family="Arial" font-size="14.00" fill="#666666">
                [varchar(22)]
            </text>
            <polygon fill="none" stroke="#000000" points="43,-192.5 43,-222.5 249,-222.5 249,-192.5 43,-192.5"/>
            <text text-anchor="start" x="50" y="-203.9" font-family="Arial" font-size="14.00" fill="#000000">owner
            </text>
            <text text-anchor="start" x="92.0056" y="-203.9" font-family="Arial" font-size="14.00" fill="#666666">
                [varchar(100)]
            </text>
            <polygon fill="none" stroke="#000000" points="43,-162.5 43,-192.5 249,-192.5 249,-162.5 43,-162.5"/>
            <text text-anchor="start" x="50" y="-173.9" font-family="Arial" font-size="14.00" fill="#000000">name</text>
            <text text-anchor="start" x="88.899" y="-173.9" font-family="Arial" font-size="14.00" fill="#666666">
                [varchar(100)]
            </text>
            <polygon fill="none" stroke="#000000" points="43,-132.5 43,-162.5 249,-162.5 249,-132.5 43,-132.5"/>
            <text text-anchor="start" x="50" y="-143.9" font-family="Arial" font-size="14.00" fill="#000000">
                repository_id
            </text>
            <text text-anchor="start" x="134.0112" y="-143.9" font-family="Arial" font-size="14.00" fill="#666666">
                [varchar(22)]
            </text>
            <polygon fill="none" stroke="#000000" points="43,-102.5 43,-132.5 249,-132.5 249,-102.5 43,-102.5"/>
            <text text-anchor="start" x="50" y="-113.9" font-family="Arial" font-size="14.00" fill="#000000">
                created_at
            </text>
            <text text-anchor="start" x="120.028" y="-113.9" font-family="Arial" font-size="14.00" fill="#666666">
                [datetime(6)]
            </text>
            <polygon fill="none" stroke="#000000" points="43,-72.5 43,-102.5 249,-102.5 249,-72.5 43,-72.5"/>
            <text text-anchor="start" x="50" y="-83.9" font-family="Arial" font-size="14.00" fill="#000000">updated_at
            </text>
            <text text-anchor="start" x="123.9326" y="-83.9" font-family="Arial" font-size="14.00" fill="#666666">
                [datetime(6)]
            </text>
            <polygon fill="none" stroke="#000000" points="43,-42.5 43,-72.5 249,-72.5 249,-42.5 43,-42.5"/>
            <text text-anchor="start" x="50" y="-53.9" font-family="Arial" font-size="14.00" fill="#000000">deleted_at
            </text>
            <text text-anchor="start" x="119.2566" y="-53.9" font-family="Arial" font-size="14.00" fill="#666666">
                [datetime(6)]
            </text>
        </g>
        <!-- build_logs&#45;&gt;applications -->
        <g id="edge2" class="edge">
            <title>build_logs:application_id&#45;&gt;applications:id</title>
            <path fill="none" stroke="#000000" d="M251.7136,-515.0794C304.8002,-487.7124 307.8378,-237.5 249,-237.5"/>
            <polygon fill="#000000" stroke="#000000"
                     points="251.7033,-515.0819 240.9118,-513.1335 246.8516,-516.2909 242,-517.5 242,-517.5 242,-517.5 246.8516,-516.2909 243.0882,-521.8665 251.7033,-515.0819 251.7033,-515.0819"/>
            <text text-anchor="start" x="248.602" y="-527.5" font-family="Arial" font-size="10.00" fill="#000000">
                FOREIGN KEY (application_id) REFERENCES applications (id)
            </text>
        </g>
        <!-- artifacts -->
        <g id="node2" class="node">
            <title>artifacts</title>
            <polygon fill="#efefef" stroke="transparent" points="59,-872.5 59,-907.5 233,-907.5 233,-872.5 59,-872.5"/>
            <polygon fill="none" stroke="#000000" points="59,-872.5 59,-907.5 233,-907.5 233,-872.5 59,-872.5"/>
            <text text-anchor="start" x="65.8704" y="-885.3" font-family="Arial Bold" font-size="18.00" fill="#000000">
                artifacts
            </text>
            <text text-anchor="start" x="128.8758" y="-885.3" font-family="Arial" font-size="14.00"
                  fill="#000000"></text>
            <text text-anchor="start" x="132.7664" y="-885.3" font-family="Arial" font-size="14.00" fill="#666666">[BASE
                TABLE]
            </text>
            <polygon fill="none" stroke="#000000" points="59,-842.5 59,-872.5 233,-872.5 233,-842.5 59,-842.5"/>
            <text text-anchor="start" x="66" y="-853.9" font-family="Arial" font-size="14.00" fill="#000000">id</text>
            <text text-anchor="start" x="80.7798" y="-853.9" font-family="Arial" font-size="14.00" fill="#666666">
                [varchar(22)]
            </text>
            <polygon fill="none" stroke="#000000" points="59,-812.5 59,-842.5 233,-842.5 233,-812.5 59,-812.5"/>
            <text text-anchor="start" x="66" y="-823.9" font-family="Arial" font-size="14.00" fill="#000000">
                build_log_id
            </text>
            <text text-anchor="start" x="144.5778" y="-823.9" font-family="Arial" font-size="14.00" fill="#666666">
                [varchar(22)]
            </text>
            <polygon fill="none" stroke="#000000" points="59,-782.5 59,-812.5 233,-812.5 233,-782.5 59,-782.5"/>
            <text text-anchor="start" x="66" y="-793.9" font-family="Arial" font-size="14.00" fill="#000000">size</text>
            <text text-anchor="start" x="94.7798" y="-793.9" font-family="Arial" font-size="14.00" fill="#666666">
                [bigint(20)]
            </text>
            <polygon fill="none" stroke="#000000" points="59,-752.5 59,-782.5 233,-782.5 233,-752.5 59,-752.5"/>
            <text text-anchor="start" x="66" y="-763.9" font-family="Arial" font-size="14.00" fill="#000000">
                created_at
            </text>
            <text text-anchor="start" x="136.028" y="-763.9" font-family="Arial" font-size="14.00" fill="#666666">
                [datetime(6)]
            </text>
            <polygon fill="none" stroke="#000000" points="59,-722.5 59,-752.5 233,-752.5 233,-722.5 59,-722.5"/>
            <text text-anchor="start" x="66" y="-733.9" font-family="Arial" font-size="14.00" fill="#000000">
                deleted_at
            </text>
            <text text-anchor="start" x="135.2566" y="-733.9" font-family="Arial" font-size="14.00" fill="#666666">
                [datetime(6)]
            </text>
        </g>
        <!-- artifacts&#45;&gt;build_logs -->
        <g id="edge1" class="edge">
            <title>artifacts:build_log_id&#45;&gt;build_logs:id</title>
            <path fill="none" stroke="#000000" d="M242.7329,-825.0794C296.0256,-797.7124 300.8498,-547.5 242,-547.5"/>
            <polygon fill="#000000" stroke="#000000"
                     points="242.7044,-825.0864 231.9139,-823.133 237.8522,-826.2932 233,-827.5 233,-827.5 233,-827.5 237.8522,-826.2932 234.0861,-831.867 242.7044,-825.0864 242.7044,-825.0864"/>
            <text text-anchor="start" x="240.381" y="-837.5" font-family="Arial" font-size="10.00" fill="#000000">
                FOREIGN KEY (build_log_id) REFERENCES build_logs (id)
            </text>
        </g>
    </g>
</svg>
