<?xml version="1.0" encoding="UTF-8" standalone="no"?>
<!DOCTYPE svg PUBLIC "-//W3C//DTD SVG 1.1//EN"
        "http://www.w3.org/Graphics/SVG/1.1/DTD/svg11.dtd">
<!-- Generated by graphviz version 2.40.1 (20161225.0304)
 -->
<!-- Title: build_logs Pages: 1 -->
<svg width="848pt" height="1049pt"
     viewBox="0.00 0.00 848.00 1049.00" xmlns="http://www.w3.org/2000/svg" xmlns:xlink="http://www.w3.org/1999/xlink">
    <g id="graph0" class="graph" transform="scale(1 1) rotate(0) translate(4 1045)">
        <title>build_logs</title>
        <polygon fill="#ffffff" stroke="transparent" points="-4,4 -4,-1045 844,-1045 844,4 -4,4"/>
        <!-- build_logs -->
        <g id="node1" class="node">
            <title>build_logs</title>
            <polygon fill="#efefef" stroke="transparent"
                     points="125,-592.5 125,-627.5 544,-627.5 544,-592.5 125,-592.5"/>
            <polygon fill="none" stroke="#000000" points="125,-592.5 125,-627.5 544,-627.5 544,-592.5 125,-592.5"/>
            <text text-anchor="start" x="245.3632" y="-605.3" font-family="Arial Bold" font-size="18.00" fill="#000000">
                build_logs
            </text>
            <text text-anchor="start" x="326.383" y="-605.3" font-family="Arial" font-size="14.00"
                  fill="#000000"></text>
            <text text-anchor="start" x="330.2736" y="-605.3" font-family="Arial" font-size="14.00" fill="#666666">[BASE
                TABLE]
            </text>
            <polygon fill="none" stroke="#000000" points="125,-562.5 125,-592.5 544,-592.5 544,-562.5 125,-562.5"/>
            <text text-anchor="start" x="132" y="-573.9" font-family="Arial" font-size="14.00" fill="#000000">id</text>
            <text text-anchor="start" x="146.7798" y="-573.9" font-family="Arial" font-size="14.00" fill="#666666">
                [varchar(22)]
            </text>
            <polygon fill="none" stroke="#000000" points="125,-532.5 125,-562.5 544,-562.5 544,-532.5 125,-532.5"/>
            <text text-anchor="start" x="132" y="-543.9" font-family="Arial" font-size="14.00" fill="#000000">
                application_id
            </text>
            <text text-anchor="start" x="221.4684" y="-543.9" font-family="Arial" font-size="14.00" fill="#666666">
                [varchar(22)]
            </text>
            <polygon fill="none" stroke="#000000" points="125,-502.5 125,-532.5 544,-532.5 544,-502.5 125,-502.5"/>
            <text text-anchor="start" x="131.5742" y="-513.9" font-family="Arial" font-size="14.00" fill="#000000">
                result
            </text>
            <text text-anchor="start" x="169.6878" y="-513.9" font-family="Arial" font-size="14.00" fill="#666666">
                [enum(&#39;BUILDING&#39;,&#39;SUCCEEDED&#39;,&#39;FAILED&#39;,&#39;CANCELED&#39;)]
            </text>
            <polygon fill="none" stroke="#000000" points="125,-472.5 125,-502.5 544,-502.5 544,-472.5 125,-472.5"/>
            <text text-anchor="start" x="132" y="-483.9" font-family="Arial" font-size="14.00" fill="#000000">
                started_at
            </text>
            <text text-anchor="start" x="198.136" y="-483.9" font-family="Arial" font-size="14.00" fill="#666666">
                [datetime(6)]
            </text>
            <polygon fill="none" stroke="#000000" points="125,-442.5 125,-472.5 544,-472.5 544,-442.5 125,-442.5"/>
            <text text-anchor="start" x="132" y="-453.9" font-family="Arial" font-size="14.00" fill="#000000">
                finished_at
            </text>
            <text text-anchor="start" x="203.5806" y="-453.9" font-family="Arial" font-size="14.00" fill="#666666">
                [datetime(6)]
            </text>
            <polygon fill="none" stroke="#000000" stroke-width="3"
                     points="123,-441.5 123,-629.5 545,-629.5 545,-441.5 123,-441.5"/>
        </g>
        <!-- applications -->
        <g id="node4" class="node">
            <title>applications</title>
            <polygon fill="#efefef" stroke="transparent"
                     points="225,-282.5 225,-317.5 445,-317.5 445,-282.5 225,-282.5"/>
            <polygon fill="none" stroke="#000000" points="225,-282.5 225,-317.5 445,-317.5 445,-282.5 225,-282.5"/>
            <text text-anchor="start" x="238.8621" y="-295.3" font-family="Arial Bold" font-size="18.00" fill="#000000">
                applications
            </text>
            <text text-anchor="start" x="333.8841" y="-295.3" font-family="Arial" font-size="14.00"
                  fill="#000000"></text>
            <text text-anchor="start" x="337.7747" y="-295.3" font-family="Arial" font-size="14.00" fill="#666666">[BASE
                TABLE]
            </text>
            <polygon fill="none" stroke="#000000" points="225,-252.5 225,-282.5 445,-282.5 445,-252.5 225,-252.5"/>
            <text text-anchor="start" x="232" y="-263.9" font-family="Arial" font-size="14.00" fill="#000000">id</text>
            <text text-anchor="start" x="246.7798" y="-263.9" font-family="Arial" font-size="14.00" fill="#666666">
                [varchar(22)]
            </text>
            <polygon fill="none" stroke="#000000" points="225,-222.5 225,-252.5 445,-252.5 445,-222.5 225,-222.5"/>
            <text text-anchor="start" x="232" y="-233.9" font-family="Arial" font-size="14.00" fill="#000000">owner
            </text>
            <text text-anchor="start" x="274.0056" y="-233.9" font-family="Arial" font-size="14.00" fill="#666666">
                [varchar(100)]
            </text>
            <polygon fill="none" stroke="#000000" points="225,-192.5 225,-222.5 445,-222.5 445,-192.5 225,-192.5"/>
            <text text-anchor="start" x="232" y="-203.9" font-family="Arial" font-size="14.00" fill="#000000">name
            </text>
            <text text-anchor="start" x="270.899" y="-203.9" font-family="Arial" font-size="14.00" fill="#666666">
                [varchar(100)]
            </text>
            <polygon fill="none" stroke="#000000" points="225,-162.5 225,-192.5 445,-192.5 445,-162.5 225,-162.5"/>
            <text text-anchor="start" x="232" y="-173.9" font-family="Arial" font-size="14.00" fill="#000000">
                repository_id
            </text>
            <text text-anchor="start" x="316.0112" y="-173.9" font-family="Arial" font-size="14.00" fill="#666666">
                [varchar(22)]
            </text>
            <polygon fill="none" stroke="#000000" points="225,-132.5 225,-162.5 445,-162.5 445,-132.5 225,-132.5"/>
            <text text-anchor="start" x="232" y="-143.9" font-family="Arial" font-size="14.00" fill="#000000">
                created_at
            </text>
            <text text-anchor="start" x="302.028" y="-143.9" font-family="Arial" font-size="14.00" fill="#666666">
                [datetime(6)]
            </text>
            <polygon fill="none" stroke="#000000" points="225,-102.5 225,-132.5 445,-132.5 445,-102.5 225,-102.5"/>
            <text text-anchor="start" x="232" y="-113.9" font-family="Arial" font-size="14.00" fill="#000000">
                updated_at
            </text>
            <text text-anchor="start" x="305.9326" y="-113.9" font-family="Arial" font-size="14.00" fill="#666666">
                [datetime(6)]
            </text>
            <polygon fill="none" stroke="#000000" points="225,-72.5 225,-102.5 445,-102.5 445,-72.5 225,-72.5"/>
            <text text-anchor="start" x="232" y="-83.9" font-family="Arial" font-size="14.00" fill="#000000">
                deleted_at
            </text>
            <text text-anchor="start" x="301.2566" y="-83.9" font-family="Arial" font-size="14.00" fill="#666666">
                [datetime(6)]
            </text>
            <polygon fill="none" stroke="#000000" points="225,-42.5 225,-72.5 445,-72.5 445,-42.5 225,-42.5"/>
            <text text-anchor="start" x="231.5764" y="-53.9" font-family="Arial" font-size="14.00" fill="#000000">
                build_type
            </text>
            <text text-anchor="start" x="299.2664" y="-53.9" font-family="Arial" font-size="14.00" fill="#666666">[enum(&#39;image&#39;,&#39;static&#39;)]</text>
        </g>
        <!-- build_logs&#45;&gt;applications -->
        <g id="edge3" class="edge">
            <title>build_logs:application_id&#45;&gt;applications:id</title>
            <path fill="none" stroke="#000000"
                  d="M554.1845,-546.622C608.3809,-536.6463 586.1295,-444.1514 544,-397 448.9366,-290.605 320.0634,-467.395 225,-361 197.3123,-330.012 183.4444,-267.5 225,-267.5"/>
            <polygon fill="#000000" stroke="#000000"
                     points="553.963,-546.641 543.6134,-543.0166 548.9815,-547.0705 544,-547.5 544,-547.5 544,-547.5 548.9815,-547.0705 544.3866,-551.9834 553.963,-546.641 553.963,-546.641"/>
            <text text-anchor="start" x="550.602" y="-557.5" font-family="Arial" font-size="10.00" fill="#000000">
                FOREIGN KEY (application_id) REFERENCES applications (id)
            </text>
        </g>
        <!-- artifacts -->
        <g id="node2" class="node">
            <title>artifacts</title>
            <polygon fill="#efefef" stroke="transparent"
                     points="107,-932.5 107,-967.5 281,-967.5 281,-932.5 107,-932.5"/>
            <polygon fill="none" stroke="#000000" points="107,-932.5 107,-967.5 281,-967.5 281,-932.5 107,-932.5"/>
            <text text-anchor="start" x="113.8704" y="-945.3" font-family="Arial Bold" font-size="18.00" fill="#000000">
                artifacts
            </text>
            <text text-anchor="start" x="176.8758" y="-945.3" font-family="Arial" font-size="14.00"
                  fill="#000000"></text>
            <text text-anchor="start" x="180.7664" y="-945.3" font-family="Arial" font-size="14.00" fill="#666666">[BASE
                TABLE]
            </text>
            <polygon fill="none" stroke="#000000" points="107,-902.5 107,-932.5 281,-932.5 281,-902.5 107,-902.5"/>
            <text text-anchor="start" x="114" y="-913.9" font-family="Arial" font-size="14.00" fill="#000000">id</text>
            <text text-anchor="start" x="128.7798" y="-913.9" font-family="Arial" font-size="14.00" fill="#666666">
                [varchar(22)]
            </text>
            <polygon fill="none" stroke="#000000" points="107,-872.5 107,-902.5 281,-902.5 281,-872.5 107,-872.5"/>
            <text text-anchor="start" x="114" y="-883.9" font-family="Arial" font-size="14.00" fill="#000000">
                build_log_id
            </text>
            <text text-anchor="start" x="192.5778" y="-883.9" font-family="Arial" font-size="14.00" fill="#666666">
                [varchar(22)]
            </text>
            <polygon fill="none" stroke="#000000" points="107,-842.5 107,-872.5 281,-872.5 281,-842.5 107,-842.5"/>
            <text text-anchor="start" x="114" y="-853.9" font-family="Arial" font-size="14.00" fill="#000000">size
            </text>
            <text text-anchor="start" x="142.7798" y="-853.9" font-family="Arial" font-size="14.00" fill="#666666">
                [bigint(20)]
            </text>
            <polygon fill="none" stroke="#000000" points="107,-812.5 107,-842.5 281,-842.5 281,-812.5 107,-812.5"/>
            <text text-anchor="start" x="114" y="-823.9" font-family="Arial" font-size="14.00" fill="#000000">
                created_at
            </text>
            <text text-anchor="start" x="184.028" y="-823.9" font-family="Arial" font-size="14.00" fill="#666666">
                [datetime(6)]
            </text>
            <polygon fill="none" stroke="#000000" points="107,-782.5 107,-812.5 281,-812.5 281,-782.5 107,-782.5"/>
            <text text-anchor="start" x="114" y="-793.9" font-family="Arial" font-size="14.00" fill="#000000">
                deleted_at
            </text>
            <text text-anchor="start" x="183.2566" y="-793.9" font-family="Arial" font-size="14.00" fill="#666666">
                [datetime(6)]
            </text>
        </g>
        <!-- artifacts&#45;&gt;build_logs -->
        <g id="edge1" class="edge">
            <title>artifacts:build_log_id&#45;&gt;build_logs:id</title>
            <path fill="none" stroke="#000000"
                  d="M291.242,-886.6301C343.2098,-877.1038 315.1637,-791.5493 281,-740 239.4112,-677.2471 166.5888,-736.7529 125,-674 101.3068,-638.2496 82.1111,-577.5 125,-577.5"/>
            <polygon fill="#000000" stroke="#000000"
                     points="290.9641,-886.6536 280.6191,-883.0161 285.9821,-887.0768 281,-887.5 281,-887.5 281,-887.5 285.9821,-887.0768 281.3809,-891.9839 290.9641,-886.6536 290.9641,-886.6536"/>
            <text text-anchor="start" x="7.381" y="-897.5" font-family="Arial" font-size="10.00" fill="#000000">FOREIGN
                KEY (build_log_id) REFERENCES build_logs (id)
            </text>
        </g>
        <!-- websites -->
        <g id="node3" class="node">
            <title>websites</title>
            <polygon fill="#efefef" stroke="transparent"
                     points="385,-962.5 385,-997.5 567,-997.5 567,-962.5 385,-962.5"/>
            <polygon fill="none" stroke="#000000" points="385,-962.5 385,-997.5 567,-997.5 567,-962.5 385,-962.5"/>
            <text text-anchor="start" x="392.3685" y="-975.3" font-family="Arial Bold" font-size="18.00" fill="#000000">
                websites
            </text>
            <text text-anchor="start" x="462.3777" y="-975.3" font-family="Arial" font-size="14.00"
                  fill="#000000"></text>
            <text text-anchor="start" x="466.2683" y="-975.3" font-family="Arial" font-size="14.00" fill="#666666">[BASE
                TABLE]
            </text>
            <polygon fill="none" stroke="#000000" points="385,-932.5 385,-962.5 567,-962.5 567,-932.5 385,-932.5"/>
            <text text-anchor="start" x="392" y="-943.9" font-family="Arial" font-size="14.00" fill="#000000">id</text>
            <text text-anchor="start" x="406.7798" y="-943.9" font-family="Arial" font-size="14.00" fill="#666666">
                [varchar(22)]
            </text>
            <polygon fill="none" stroke="#000000" points="385,-902.5 385,-932.5 567,-932.5 567,-902.5 385,-902.5"/>
            <text text-anchor="start" x="392" y="-913.9" font-family="Arial" font-size="14.00" fill="#000000">fqdn
            </text>
            <text text-anchor="start" x="423.129" y="-913.9" font-family="Arial" font-size="14.00" fill="#666666">
                [varchar(50)]
            </text>
            <polygon fill="none" stroke="#000000" points="385,-872.5 385,-902.5 567,-902.5 567,-872.5 385,-872.5"/>
            <text text-anchor="start" x="391.5975" y="-883.9" font-family="Arial" font-size="14.00" fill="#000000">
                application_id
            </text>
            <text text-anchor="start" x="481.0659" y="-883.9" font-family="Arial" font-size="14.00" fill="#666666">
                [varchar(22)]
            </text>
            <polygon fill="none" stroke="#000000" points="385,-842.5 385,-872.5 567,-872.5 567,-842.5 385,-842.5"/>
            <text text-anchor="start" x="392" y="-853.9" font-family="Arial" font-size="14.00" fill="#000000">build_id
            </text>
            <text text-anchor="start" x="444.1234" y="-853.9" font-family="Arial" font-size="14.00" fill="#666666">
                [varchar(22)]
            </text>
            <polygon fill="none" stroke="#000000" points="385,-812.5 385,-842.5 567,-842.5 567,-812.5 385,-812.5"/>
            <text text-anchor="start" x="392" y="-823.9" font-family="Arial" font-size="14.00" fill="#000000">
                http_port
            </text>
            <text text-anchor="start" x="451.136" y="-823.9" font-family="Arial" font-size="14.00" fill="#666666">
                [int(11)]
            </text>
            <polygon fill="none" stroke="#000000" points="385,-782.5 385,-812.5 567,-812.5 567,-782.5 385,-782.5"/>
            <text text-anchor="start" x="392" y="-793.9" font-family="Arial" font-size="14.00" fill="#000000">
                created_at
            </text>
            <text text-anchor="start" x="462.028" y="-793.9" font-family="Arial" font-size="14.00" fill="#666666">
                [datetime(6)]
            </text>
            <polygon fill="none" stroke="#000000" points="385,-752.5 385,-782.5 567,-782.5 567,-752.5 385,-752.5"/>
            <text text-anchor="start" x="392" y="-763.9" font-family="Arial" font-size="14.00" fill="#000000">
                updated_at
            </text>
            <text text-anchor="start" x="465.9326" y="-763.9" font-family="Arial" font-size="14.00" fill="#666666">
                [datetime(6)]
            </text>
        </g>
        <!-- websites&#45;&gt;build_logs -->
        <g id="edge2" class="edge">
            <title>websites:build_id&#45;&gt;build_logs:id</title>
            <path fill="none" stroke="#000000"
                  d="M374.7153,-856.599C322.2877,-846.7376 346.3998,-758.3168 385,-710 430.2244,-653.3914 498.7756,-730.6086 544,-674 570.7699,-640.4914 586.8889,-577.5 544,-577.5"/>
            <polygon fill="#000000" stroke="#000000"
                     points="375.0382,-856.6272 384.6072,-861.9828 380.0191,-857.0636 385,-857.5 385,-857.5 385,-857.5 380.0191,-857.0636 385.3928,-853.0172 375.0382,-856.6272 375.0382,-856.6272"/>
            <text text-anchor="start" x="391.829" y="-867.5" font-family="Arial" font-size="10.00" fill="#000000">
                FOREIGN KEY (build_id) REFERENCES build_logs (id)
            </text>
        </g>
    </g>
</svg>
