<?xml version="1.0" encoding="UTF-8" standalone="no"?>
<!DOCTYPE svg PUBLIC "-//W3C//DTD SVG 1.1//EN"
 "http://www.w3.org/Graphics/SVG/1.1/DTD/svg11.dtd">
<!-- Generated by graphviz version 2.40.1 (20161225.0304)
 -->
<!-- Title: build_status Pages: 1 -->
<svg width="529pt" height="502pt"
 viewBox="0.00 0.00 528.50 502.00" xmlns="http://www.w3.org/2000/svg" xmlns:xlink="http://www.w3.org/1999/xlink">
<g id="graph0" class="graph" transform="scale(1 1) rotate(0) translate(4 498)">
<title>build_status</title>
<polygon fill="#ffffff" stroke="transparent" points="-4,4 -4,-498 524.5,-498 524.5,4 -4,4"/>
<!-- build_status -->
<g id="node1" class="node">
<title>build_status</title>
<polygon fill="#efefef" stroke="transparent" points="268,-75.5 268,-110.5 475,-110.5 475,-75.5 268,-75.5"/>
<polygon fill="none" stroke="#000000" points="268,-75.5 268,-110.5 475,-110.5 475,-75.5 268,-75.5"/>
<text text-anchor="start" x="274.8581" y="-88.3" font-family="Arial Bold" font-size="18.00" fill="#000000">build_status</text>
<text text-anchor="start" x="370.8881" y="-88.3" font-family="Arial" font-size="14.00" fill="#000000"> </text>
<text text-anchor="start" x="374.7787" y="-88.3" font-family="Arial" font-size="14.00" fill="#666666">[BASE TABLE]</text>
<polygon fill="none" stroke="#000000" points="268,-45.5 268,-75.5 475,-75.5 475,-45.5 268,-45.5"/>
<text text-anchor="start" x="275" y="-56.9" font-family="Arial" font-size="14.00" fill="#000000">status </text>
<text text-anchor="start" x="316.237" y="-56.9" font-family="Arial" font-size="14.00" fill="#666666">[varchar(10)]</text>
<polygon fill="none" stroke="#000000" stroke-width="3" points="266,-44.5 266,-112.5 476,-112.5 476,-44.5 266,-44.5"/>
</g>
<!-- builds -->
<g id="node2" class="node">
<title>builds</title>
<polygon fill="#efefef" stroke="transparent" points="281,-415.5 281,-450.5 463,-450.5 463,-415.5 281,-415.5"/>
<polygon fill="none" stroke="#000000" points="281,-415.5 281,-450.5 463,-450.5 463,-415.5 281,-415.5"/>
<text text-anchor="start" x="299.8696" y="-428.3" font-family="Arial Bold" font-size="18.00" fill="#000000">builds</text>
<text text-anchor="start" x="346.8766" y="-428.3" font-family="Arial" font-size="14.00" fill="#000000"> </text>
<text text-anchor="start" x="350.7672" y="-428.3" font-family="Arial" font-size="14.00" fill="#666666">[BASE TABLE]</text>
<polygon fill="none" stroke="#000000" points="281,-385.5 281,-415.5 463,-415.5 463,-385.5 281,-385.5"/>
<text text-anchor="start" x="288" y="-396.9" font-family="Arial" font-size="14.00" fill="#000000">id </text>
<text text-anchor="start" x="302.7798" y="-396.9" font-family="Arial" font-size="14.00" fill="#666666">[varchar(22)]</text>
<polygon fill="none" stroke="#000000" points="281,-355.5 281,-385.5 463,-385.5 463,-355.5 281,-355.5"/>
<text text-anchor="start" x="288" y="-366.9" font-family="Arial" font-size="14.00" fill="#000000">commit </text>
<text text-anchor="start" x="336.9916" y="-366.9" font-family="Arial" font-size="14.00" fill="#666666">[char(40)]</text>
<polygon fill="none" stroke="#000000" points="281,-325.5 281,-355.5 463,-355.5 463,-325.5 281,-325.5"/>
<text text-anchor="start" x="288" y="-336.9" font-family="Arial" font-size="14.00" fill="#000000">status </text>
<text text-anchor="start" x="329.237" y="-336.9" font-family="Arial" font-size="14.00" fill="#666666">[varchar(10)]</text>
<polygon fill="none" stroke="#000000" points="281,-295.5 281,-325.5 463,-325.5 463,-295.5 281,-295.5"/>
<text text-anchor="start" x="288" y="-306.9" font-family="Arial" font-size="14.00" fill="#000000">started_at </text>
<text text-anchor="start" x="354.136" y="-306.9" font-family="Arial" font-size="14.00" fill="#666666">[datetime(6)]</text>
<polygon fill="none" stroke="#000000" points="281,-265.5 281,-295.5 463,-295.5 463,-265.5 281,-265.5"/>
<text text-anchor="start" x="288" y="-276.9" font-family="Arial" font-size="14.00" fill="#000000">finished_at </text>
<text text-anchor="start" x="359.5806" y="-276.9" font-family="Arial" font-size="14.00" fill="#666666">[datetime(6)]</text>
<polygon fill="none" stroke="#000000" points="281,-235.5 281,-265.5 463,-265.5 463,-235.5 281,-235.5"/>
<text text-anchor="start" x="287.5975" y="-246.9" font-family="Arial" font-size="14.00" fill="#000000">application_id </text>
<text text-anchor="start" x="377.0659" y="-246.9" font-family="Arial" font-size="14.00" fill="#666666">[varchar(22)]</text>
</g>
<!-- builds&#45;&gt;build_status -->
<g id="edge1" class="edge">
<title>builds:status&#45;&gt;build_status:status</title>
<path fill="none" stroke="#000000" d="M271.0262,-339.6462C217.9963,-329.945 240.568,-239.9637 281,-193 351.2288,-111.4259 450.2712,-238.5741 520.5,-157 520.5,-157 372,-45.5 372,-45.5"/>
<polygon fill="#000000" stroke="#000000" points="271.0364,-339.647 280.6162,-344.9836 276.0182,-340.0735 281,-340.5 281,-340.5 281,-340.5 276.0182,-340.0735 281.3838,-336.0164 271.0364,-339.647 271.0364,-339.647"/>
<text text-anchor="start" x="7.0985" y="-350.5" font-family="Arial" font-size="10.00" fill="#000000">FOREIGN KEY (status) REFERENCES build_status (status)</text>
</g>
</g>
</svg>
