<?xml version="1.0" encoding="UTF-8" standalone="no"?>
<!DOCTYPE svg PUBLIC "-//W3C//DTD SVG 1.1//EN"
        "http://www.w3.org/Graphics/SVG/1.1/DTD/svg11.dtd">
<!-- Generated by graphviz version 2.40.1 (20161225.0304)
 -->
<!-- Title: dynamic_site_details Pages: 1 -->
<svg width="425pt" height="532pt"
     viewBox="0.00 0.00 425.00 532.00" xmlns="http://www.w3.org/2000/svg" xmlns:xlink="http://www.w3.org/1999/xlink">
    <g id="graph0" class="graph" transform="scale(1 1) rotate(0) translate(4 528)">
        <title>dynamic_site_details</title>
        <polygon fill="#ffffff" stroke="transparent" points="-4,4 -4,-528 421,-528 421,4 -4,4"/>
        <!-- dynamic_site_details -->
        <g id="node1" class="node">
            <title>dynamic_site_details</title>
            <polygon fill="#efefef" stroke="transparent" points="93,-442.5 93,-477.5 371,-477.5 371,-442.5 93,-442.5"/>
            <polygon fill="none" stroke="#000000" points="93,-442.5 93,-477.5 371,-477.5 371,-442.5 93,-442.5"/>
            <text text-anchor="start" x="99.8585" y="-455.3" font-family="Arial Bold" font-size="18.00" fill="#000000">
                dynamic_site_details
            </text>
            <text text-anchor="start" x="266.8877" y="-455.3" font-family="Arial" font-size="14.00"
                  fill="#000000"></text>
            <text text-anchor="start" x="270.7783" y="-455.3" font-family="Arial" font-size="14.00" fill="#666666">[BASE
                TABLE]
            </text>
            <polygon fill="none" stroke="#000000" points="93,-412.5 93,-442.5 371,-442.5 371,-412.5 93,-412.5"/>
            <text text-anchor="start" x="100" y="-423.9" font-family="Arial" font-size="14.00" fill="#000000">site_id
            </text>
            <text text-anchor="start" x="144.3422" y="-423.9" font-family="Arial" font-size="14.00" fill="#666666">
                [varchar(22)]
            </text>
            <polygon fill="none" stroke="#000000" stroke-width="3"
                     points="91.5,-411.5 91.5,-479.5 372.5,-479.5 372.5,-411.5 91.5,-411.5"/>
        </g>
        <!-- sites -->
        <g id="node2" class="node">
            <title>sites</title>
            <polygon fill="#efefef" stroke="transparent"
                     points="133,-252.5 133,-287.5 330,-287.5 330,-252.5 133,-252.5"/>
            <polygon fill="none" stroke="#000000" points="133,-252.5 133,-287.5 330,-287.5 330,-252.5 133,-252.5"/>
            <text text-anchor="start" x="164.3718" y="-265.3" font-family="Arial Bold" font-size="18.00" fill="#000000">
                sites
            </text>
            <text text-anchor="start" x="201.3744" y="-265.3" font-family="Arial" font-size="14.00"
                  fill="#000000"></text>
            <text text-anchor="start" x="205.265" y="-265.3" font-family="Arial" font-size="14.00" fill="#666666">[BASE
                TABLE]
            </text>
            <polygon fill="none" stroke="#000000" points="133,-222.5 133,-252.5 330,-252.5 330,-222.5 133,-222.5"/>
            <text text-anchor="start" x="140" y="-233.9" font-family="Arial" font-size="14.00" fill="#000000">id</text>
            <text text-anchor="start" x="154.7798" y="-233.9" font-family="Arial" font-size="14.00" fill="#666666">
                [varchar(22)]
            </text>
            <polygon fill="none" stroke="#000000" points="133,-192.5 133,-222.5 330,-222.5 330,-192.5 133,-192.5"/>
            <text text-anchor="start" x="140" y="-203.9" font-family="Arial" font-size="14.00" fill="#000000">fqdn
            </text>
            <text text-anchor="start" x="171.129" y="-203.9" font-family="Arial" font-size="14.00" fill="#666666">
                [varchar(50)]
            </text>
            <polygon fill="none" stroke="#000000" points="133,-162.5 133,-192.5 330,-192.5 330,-162.5 133,-162.5"/>
            <text text-anchor="start" x="140" y="-173.9" font-family="Arial" font-size="14.00" fill="#000000">
                path_prefix
            </text>
            <text text-anchor="start" x="213.1346" y="-173.9" font-family="Arial" font-size="14.00" fill="#666666">
                [varchar(50)]
            </text>
            <polygon fill="none" stroke="#000000" points="133,-132.5 133,-162.5 330,-162.5 330,-132.5 133,-132.5"/>
            <text text-anchor="start" x="139.7482" y="-143.9" font-family="Arial" font-size="14.00" fill="#000000">
                type
            </text>
            <text text-anchor="start" x="170.0946" y="-143.9" font-family="Arial" font-size="14.00" fill="#666666">
                [enum(&#39;static&#39;,&#39;dynamic&#39;)]
            </text>
            <polygon fill="none" stroke="#000000" points="133,-102.5 133,-132.5 330,-132.5 330,-102.5 133,-102.5"/>
            <text text-anchor="start" x="140" y="-113.9" font-family="Arial" font-size="14.00" fill="#000000">
                application_id
            </text>
            <text text-anchor="start" x="229.4684" y="-113.9" font-family="Arial" font-size="14.00" fill="#666666">
                [varchar(22)]
            </text>
            <polygon fill="none" stroke="#000000" points="133,-72.5 133,-102.5 330,-102.5 330,-72.5 133,-72.5"/>
            <text text-anchor="start" x="140" y="-83.9" font-family="Arial" font-size="14.00" fill="#000000">
                created_at
            </text>
            <text text-anchor="start" x="210.028" y="-83.9" font-family="Arial" font-size="14.00" fill="#666666">
                [datetime(6)]
            </text>
            <polygon fill="none" stroke="#000000" points="133,-42.5 133,-72.5 330,-72.5 330,-42.5 133,-42.5"/>
            <text text-anchor="start" x="140" y="-53.9" font-family="Arial" font-size="14.00" fill="#000000">
                updated_at
            </text>
            <text text-anchor="start" x="213.9326" y="-53.9" font-family="Arial" font-size="14.00" fill="#666666">
                [datetime(6)]
            </text>
        </g>
        <!-- dynamic_site_details&#45;&gt;sites -->
        <g id="edge1" class="edge">
            <title>dynamic_site_details:site_id&#45;&gt;sites:id</title>
            <path fill="none" stroke="#000000"
                  d="M232.8884,-402.5388C241.3249,-358.9359 307.4965,-378.9831 330,-331 347.6449,-293.3766 371.5556,-237.5 330,-237.5"/>
            <polygon fill="#000000" stroke="#000000"
                     points="232.8884,-402.5395 227.5178,-412.1002 232.4442,-407.5198 232,-412.5 232,-412.5 232,-412.5 232.4442,-407.5198 236.4822,-412.8998 232.8884,-402.5395 232.8884,-402.5395"/>
            <text text-anchor="start" x="6.835" y="-422.5" font-family="Arial" font-size="10.00" fill="#000000">FOREIGN
                KEY (site_id) REFERENCES sites (id)
            </text>
        </g>
    </g>
</svg>
