<?xml version="1.0" encoding="UTF-8" standalone="no"?>
<!DOCTYPE svg PUBLIC "-//W3C//DTD SVG 1.1//EN"
        "http://www.w3.org/Graphics/SVG/1.1/DTD/svg11.dtd">
<!-- Generated by graphviz version 2.40.1 (20161225.0304)
 -->
<!-- Title: environments Pages: 1 -->
<svg width="881pt" height="1049pt"
     viewBox="0.00 0.00 881.00 1049.00" xmlns="http://www.w3.org/2000/svg" xmlns:xlink="http://www.w3.org/1999/xlink">
    <g id="graph0" class="graph" transform="scale(1 1) rotate(0) translate(4 1045)">
        <title>environments</title>
        <polygon fill="#ffffff" stroke="transparent" points="-4,4 -4,-1045 877,-1045 877,4 -4,4"/>
        <!-- environments -->
        <g id="node1" class="node">
            <title>environments</title>
            <polygon fill="#efefef" stroke="transparent"
                     points="201,-622.5 201,-657.5 421,-657.5 421,-622.5 201,-622.5"/>
            <polygon fill="none" stroke="#000000" points="201,-622.5 201,-657.5 421,-657.5 421,-622.5 201,-622.5"/>
            <text text-anchor="start" x="208.3641" y="-635.3" font-family="Arial Bold" font-size="18.00" fill="#000000">
                environments
            </text>
            <text text-anchor="start" x="316.3821" y="-635.3" font-family="Arial" font-size="14.00"
                  fill="#000000"></text>
            <text text-anchor="start" x="320.2727" y="-635.3" font-family="Arial" font-size="14.00" fill="#666666">[BASE
                TABLE]
            </text>
            <polygon fill="none" stroke="#000000" points="201,-592.5 201,-622.5 421,-622.5 421,-592.5 201,-592.5"/>
            <text text-anchor="start" x="208" y="-603.9" font-family="Arial" font-size="14.00" fill="#000000">id</text>
            <text text-anchor="start" x="222.7798" y="-603.9" font-family="Arial" font-size="14.00" fill="#666666">
                [varchar(22)]
            </text>
            <polygon fill="none" stroke="#000000" points="201,-562.5 201,-592.5 421,-592.5 421,-562.5 201,-562.5"/>
            <text text-anchor="start" x="208" y="-573.9" font-family="Arial" font-size="14.00" fill="#000000">
                application_id
            </text>
            <text text-anchor="start" x="297.4684" y="-573.9" font-family="Arial" font-size="14.00" fill="#666666">
                [varchar(22)]
            </text>
            <polygon fill="none" stroke="#000000" points="201,-532.5 201,-562.5 421,-562.5 421,-532.5 201,-532.5"/>
            <text text-anchor="start" x="208" y="-543.9" font-family="Arial" font-size="14.00" fill="#000000">
                branch_name
            </text>
            <text text-anchor="start" x="297.4726" y="-543.9" font-family="Arial" font-size="14.00" fill="#666666">
                [varchar(100)]
            </text>
            <polygon fill="none" stroke="#000000" points="201,-502.5 201,-532.5 421,-532.5 421,-502.5 201,-502.5"/>
            <text text-anchor="start" x="207.5764" y="-513.9" font-family="Arial" font-size="14.00" fill="#000000">
                build_type
            </text>
            <text text-anchor="start" x="275.2664" y="-513.9" font-family="Arial" font-size="14.00" fill="#666666">
                [enum(&#39;image&#39;,&#39;static&#39;)]
            </text>
            <polygon fill="none" stroke="#000000" points="201,-472.5 201,-502.5 421,-502.5 421,-472.5 201,-472.5"/>
            <text text-anchor="start" x="208" y="-483.9" font-family="Arial" font-size="14.00" fill="#000000">
                created_at
            </text>
            <text text-anchor="start" x="278.028" y="-483.9" font-family="Arial" font-size="14.00" fill="#666666">
                [datetime(6)]
            </text>
            <polygon fill="none" stroke="#000000" points="201,-442.5 201,-472.5 421,-472.5 421,-442.5 201,-442.5"/>
            <text text-anchor="start" x="208" y="-453.9" font-family="Arial" font-size="14.00" fill="#000000">
                updated_at
            </text>
            <text text-anchor="start" x="281.9326" y="-453.9" font-family="Arial" font-size="14.00" fill="#666666">
                [datetime(6)]
            </text>
            <polygon fill="none" stroke="#000000" points="201,-412.5 201,-442.5 421,-442.5 421,-412.5 201,-412.5"/>
            <text text-anchor="start" x="208" y="-423.9" font-family="Arial" font-size="14.00" fill="#000000">build_id
            </text>
            <text text-anchor="start" x="260.1234" y="-423.9" font-family="Arial" font-size="14.00" fill="#666666">
                [varchar(22)]
            </text>
            <polygon fill="none" stroke="#000000" stroke-width="3"
                     points="199.5,-411.5 199.5,-659.5 422.5,-659.5 422.5,-411.5 199.5,-411.5"/>
        </g>
        <!-- build_logs -->
        <g id="node2" class="node">
            <title>build_logs</title>
            <polygon fill="#efefef" stroke="transparent"
                     points="101,-222.5 101,-257.5 520,-257.5 520,-222.5 101,-222.5"/>
            <polygon fill="none" stroke="#000000" points="101,-222.5 101,-257.5 520,-257.5 520,-222.5 101,-222.5"/>
            <text text-anchor="start" x="221.3632" y="-235.3" font-family="Arial Bold" font-size="18.00" fill="#000000">
                build_logs
            </text>
            <text text-anchor="start" x="302.383" y="-235.3" font-family="Arial" font-size="14.00"
                  fill="#000000"></text>
            <text text-anchor="start" x="306.2736" y="-235.3" font-family="Arial" font-size="14.00" fill="#666666">[BASE
                TABLE]
            </text>
            <polygon fill="none" stroke="#000000" points="101,-192.5 101,-222.5 520,-222.5 520,-192.5 101,-192.5"/>
            <text text-anchor="start" x="108" y="-203.9" font-family="Arial" font-size="14.00" fill="#000000">id</text>
            <text text-anchor="start" x="122.7798" y="-203.9" font-family="Arial" font-size="14.00" fill="#666666">
                [varchar(22)]
            </text>
            <polygon fill="none" stroke="#000000" points="101,-162.5 101,-192.5 520,-192.5 520,-162.5 101,-162.5"/>
            <text text-anchor="start" x="107.5742" y="-173.9" font-family="Arial" font-size="14.00" fill="#000000">
                result
            </text>
            <text text-anchor="start" x="145.6878" y="-173.9" font-family="Arial" font-size="14.00" fill="#666666">
                [enum(&#39;BUILDING&#39;,&#39;SUCCEEDED&#39;,&#39;FAILED&#39;,&#39;CANCELED&#39;)]
            </text>
            <polygon fill="none" stroke="#000000" points="101,-132.5 101,-162.5 520,-162.5 520,-132.5 101,-132.5"/>
            <text text-anchor="start" x="108" y="-143.9" font-family="Arial" font-size="14.00" fill="#000000">
                started_at
            </text>
            <text text-anchor="start" x="174.136" y="-143.9" font-family="Arial" font-size="14.00" fill="#666666">
                [datetime(6)]
            </text>
            <polygon fill="none" stroke="#000000" points="101,-102.5 101,-132.5 520,-132.5 520,-102.5 101,-102.5"/>
            <text text-anchor="start" x="108" y="-113.9" font-family="Arial" font-size="14.00" fill="#000000">
                finished_at
            </text>
            <text text-anchor="start" x="179.5806" y="-113.9" font-family="Arial" font-size="14.00" fill="#666666">
                [datetime(6)]
            </text>
            <polygon fill="none" stroke="#000000" points="101,-72.5 101,-102.5 520,-102.5 520,-72.5 101,-72.5"/>
            <text text-anchor="start" x="108" y="-83.9" font-family="Arial" font-size="14.00" fill="#000000">
                environment_id
            </text>
            <text text-anchor="start" x="207.5764" y="-83.9" font-family="Arial" font-size="14.00" fill="#666666">
                [varchar(22)]
            </text>
        </g>
        <!-- environments&#45;&gt;build_logs -->
        <g id="edge4" class="edge">
            <title>environments:build_id&#45;&gt;build_logs:id</title>
            <path fill="none" stroke="#000000"
                  d="M311.5325,-402.3537C321.4671,-312.7617 467.6902,-388.1953 520,-301 541.3779,-265.3651 561.5556,-207.5 520,-207.5"/>
            <polygon fill="#000000" stroke="#000000"
                     points="311.5242,-402.5137 306.5062,-412.2641 311.2621,-407.5069 311,-412.5 311,-412.5 311,-412.5 311.2621,-407.5069 315.4938,-412.7359 311.5242,-402.5137 311.5242,-402.5137"/>
            <text text-anchor="start" x="55.829" y="-422.5" font-family="Arial" font-size="10.00" fill="#000000">FOREIGN
                KEY (build_id) REFERENCES build_logs (id)
            </text>
        </g>
        <!-- applications -->
        <g id="node4" class="node">
            <title>applications</title>
            <polygon fill="#efefef" stroke="transparent"
                     points="624,-252.5 624,-287.5 830,-287.5 830,-252.5 624,-252.5"/>
            <polygon fill="none" stroke="#000000" points="624,-252.5 624,-287.5 830,-287.5 830,-252.5 624,-252.5"/>
            <text text-anchor="start" x="630.8621" y="-265.3" font-family="Arial Bold" font-size="18.00" fill="#000000">
                applications
            </text>
            <text text-anchor="start" x="725.8841" y="-265.3" font-family="Arial" font-size="14.00"
                  fill="#000000"></text>
            <text text-anchor="start" x="729.7747" y="-265.3" font-family="Arial" font-size="14.00" fill="#666666">[BASE
                TABLE]
            </text>
            <polygon fill="none" stroke="#000000" points="624,-222.5 624,-252.5 830,-252.5 830,-222.5 624,-222.5"/>
            <text text-anchor="start" x="631" y="-233.9" font-family="Arial" font-size="14.00" fill="#000000">id</text>
            <text text-anchor="start" x="645.7798" y="-233.9" font-family="Arial" font-size="14.00" fill="#666666">
                [varchar(22)]
            </text>
            <polygon fill="none" stroke="#000000" points="624,-192.5 624,-222.5 830,-222.5 830,-192.5 624,-192.5"/>
            <text text-anchor="start" x="631" y="-203.9" font-family="Arial" font-size="14.00" fill="#000000">owner
            </text>
            <text text-anchor="start" x="673.0056" y="-203.9" font-family="Arial" font-size="14.00" fill="#666666">
                [varchar(100)]
            </text>
            <polygon fill="none" stroke="#000000" points="624,-162.5 624,-192.5 830,-192.5 830,-162.5 624,-162.5"/>
            <text text-anchor="start" x="631" y="-173.9" font-family="Arial" font-size="14.00" fill="#000000">name
            </text>
            <text text-anchor="start" x="669.899" y="-173.9" font-family="Arial" font-size="14.00" fill="#666666">
                [varchar(100)]
            </text>
            <polygon fill="none" stroke="#000000" points="624,-132.5 624,-162.5 830,-162.5 830,-132.5 624,-132.5"/>
            <text text-anchor="start" x="631" y="-143.9" font-family="Arial" font-size="14.00" fill="#000000">
                repository_id
            </text>
            <text text-anchor="start" x="715.0112" y="-143.9" font-family="Arial" font-size="14.00" fill="#666666">
                [varchar(22)]
            </text>
            <polygon fill="none" stroke="#000000" points="624,-102.5 624,-132.5 830,-132.5 830,-102.5 624,-102.5"/>
            <text text-anchor="start" x="631" y="-113.9" font-family="Arial" font-size="14.00" fill="#000000">
                created_at
            </text>
            <text text-anchor="start" x="701.028" y="-113.9" font-family="Arial" font-size="14.00" fill="#666666">
                [datetime(6)]
            </text>
            <polygon fill="none" stroke="#000000" points="624,-72.5 624,-102.5 830,-102.5 830,-72.5 624,-72.5"/>
            <text text-anchor="start" x="631" y="-83.9" font-family="Arial" font-size="14.00" fill="#000000">
                updated_at
            </text>
            <text text-anchor="start" x="704.9326" y="-83.9" font-family="Arial" font-size="14.00" fill="#666666">
                [datetime(6)]
            </text>
            <polygon fill="none" stroke="#000000" points="624,-42.5 624,-72.5 830,-72.5 830,-42.5 624,-42.5"/>
            <text text-anchor="start" x="631" y="-53.9" font-family="Arial" font-size="14.00" fill="#000000">
                deleted_at
            </text>
            <text text-anchor="start" x="700.2566" y="-53.9" font-family="Arial" font-size="14.00" fill="#666666">
                [datetime(6)]
            </text>
        </g>
        <!-- environments&#45;&gt;applications -->
        <g id="edge3" class="edge">
            <title>environments:application_id&#45;&gt;applications:id</title>
            <path fill="none" stroke="#000000"
                  d="M431.1618,-577.1992C547.2454,-570.1051 508.9793,-438.9091 572,-331 595.9799,-289.9397 576.4502,-237.5 624,-237.5"/>
            <polygon fill="#000000" stroke="#000000"
                     points="430.9956,-577.204 420.8668,-573.002 425.9978,-577.352 421,-577.5 421,-577.5 421,-577.5 425.9978,-577.352 421.1332,-581.998 430.9956,-577.204 430.9956,-577.204"/>
            <text text-anchor="start" x="427.602" y="-587.5" font-family="Arial" font-size="10.00" fill="#000000">
                FOREIGN KEY (application_id) REFERENCES applications (id)
            </text>
        </g>
        <!-- build_logs&#45;&gt;environments -->
        <g id="edge1" class="edge">
            <title>build_logs:environment_id&#45;&gt;environments:id</title>
            <path fill="none" stroke="#000000"
                  d="M318.5269,-79.3386C360.3734,-117.3582 562.5,-301 562.5,-301 457.8973,-426.4293 305.6027,-241.5707 201,-367 132.5412,-449.0891 94.1111,-607.5 201,-607.5"/>
            <polygon fill="#000000" stroke="#000000"
                     points="318.4014,-79.2246 314.0261,-69.1694 314.7007,-75.8623 311,-72.5 311,-72.5 311,-72.5 314.7007,-75.8623 307.9739,-75.8306 318.4014,-79.2246 318.4014,-79.2246"/>
            <text text-anchor="start" x="7.382" y="-82.5" font-family="Arial" font-size="10.00" fill="#000000">FOREIGN
                KEY (environment_id) REFERENCES environments (id)
            </text>
        </g>
        <!-- websites -->
        <g id="node3" class="node">
            <title>websites</title>
            <polygon fill="#efefef" stroke="transparent"
                     points="215,-962.5 215,-997.5 407,-997.5 407,-962.5 215,-962.5"/>
            <polygon fill="none" stroke="#000000" points="215,-962.5 215,-997.5 407,-997.5 407,-962.5 215,-962.5"/>
            <text text-anchor="start" x="227.3685" y="-975.3" font-family="Arial Bold" font-size="18.00" fill="#000000">
                websites
            </text>
            <text text-anchor="start" x="297.3777" y="-975.3" font-family="Arial" font-size="14.00"
                  fill="#000000"></text>
            <text text-anchor="start" x="301.2683" y="-975.3" font-family="Arial" font-size="14.00" fill="#666666">[BASE
                TABLE]
            </text>
            <polygon fill="none" stroke="#000000" points="215,-932.5 215,-962.5 407,-962.5 407,-932.5 215,-932.5"/>
            <text text-anchor="start" x="222" y="-943.9" font-family="Arial" font-size="14.00" fill="#000000">id</text>
            <text text-anchor="start" x="236.7798" y="-943.9" font-family="Arial" font-size="14.00" fill="#666666">
                [varchar(22)]
            </text>
            <polygon fill="none" stroke="#000000" points="215,-902.5 215,-932.5 407,-932.5 407,-902.5 215,-902.5"/>
            <text text-anchor="start" x="222" y="-913.9" font-family="Arial" font-size="14.00" fill="#000000">fqdn
            </text>
            <text text-anchor="start" x="253.129" y="-913.9" font-family="Arial" font-size="14.00" fill="#666666">
                [varchar(50)]
            </text>
            <polygon fill="none" stroke="#000000" points="215,-872.5 215,-902.5 407,-902.5 407,-872.5 215,-872.5"/>
            <text text-anchor="start" x="222" y="-883.9" font-family="Arial" font-size="14.00" fill="#000000">
                http_port
            </text>
            <text text-anchor="start" x="281.136" y="-883.9" font-family="Arial" font-size="14.00" fill="#666666">
                [int(11)]
            </text>
            <polygon fill="none" stroke="#000000" points="215,-842.5 215,-872.5 407,-872.5 407,-842.5 215,-842.5"/>
            <text text-anchor="start" x="222" y="-853.9" font-family="Arial" font-size="14.00" fill="#000000">
                created_at
            </text>
            <text text-anchor="start" x="292.028" y="-853.9" font-family="Arial" font-size="14.00" fill="#666666">
                [datetime(6)]
            </text>
            <polygon fill="none" stroke="#000000" points="215,-812.5 215,-842.5 407,-842.5 407,-812.5 215,-812.5"/>
            <text text-anchor="start" x="222" y="-823.9" font-family="Arial" font-size="14.00" fill="#000000">
                updated_at
            </text>
            <text text-anchor="start" x="295.9326" y="-823.9" font-family="Arial" font-size="14.00" fill="#666666">
                [datetime(6)]
            </text>
            <polygon fill="none" stroke="#000000" points="215,-782.5 215,-812.5 407,-812.5 407,-782.5 215,-782.5"/>
            <text text-anchor="start" x="221.5435" y="-793.9" font-family="Arial" font-size="14.00" fill="#000000">
                environment_id
            </text>
            <text text-anchor="start" x="321.1199" y="-793.9" font-family="Arial" font-size="14.00" fill="#666666">
                [varchar(22)]
            </text>
        </g>
        <!-- websites&#45;&gt;environments -->
        <g id="edge2" class="edge">
            <title>websites:environment_id&#45;&gt;environments:id</title>
            <path fill="none" stroke="#000000"
                  d="M311.9333,-772.3073C321.0983,-726.4636 395.224,-754.0612 421,-704 440.6334,-665.8688 463.8889,-607.5 421,-607.5"/>
            <polygon fill="#000000" stroke="#000000"
                     points="311.9119,-772.5417 306.5187,-782.0896 311.456,-777.5208 311,-782.5 311,-782.5 311,-782.5 311.456,-777.5208 315.4813,-782.9104 311.9119,-772.5417 311.9119,-772.5417"/>
            <text text-anchor="start" x="7.382" y="-792.5" font-family="Arial" font-size="10.00" fill="#000000">FOREIGN
                KEY (environment_id) REFERENCES environments (id)
            </text>
        </g>
    </g>
</svg>
