<?xml version="1.0" encoding="UTF-8" standalone="no"?>
<!DOCTYPE svg PUBLIC "-//W3C//DTD SVG 1.1//EN"
 "http://www.w3.org/Graphics/SVG/1.1/DTD/svg11.dtd">
<!-- Generated by graphviz version 2.40.1 (20161225.0304)
 -->
<!-- Title: environments Pages: 1 -->
<svg width="541pt" height="622pt"
 viewBox="0.00 0.00 540.50 622.00" xmlns="http://www.w3.org/2000/svg" xmlns:xlink="http://www.w3.org/1999/xlink">
<g id="graph0" class="graph" transform="scale(1 1) rotate(0) translate(4 618)">
<title>environments</title>
<polygon fill="#ffffff" stroke="transparent" points="-4,4 -4,-618 536.5,-618 536.5,4 -4,4"/>
<!-- environments -->
<g id="node1" class="node">
<title>environments</title>
<polygon fill="#efefef" stroke="transparent" points="46.5,-532.5 46.5,-567.5 265.5,-567.5 265.5,-532.5 46.5,-532.5"/>
<polygon fill="none" stroke="#000000" points="46.5,-532.5 46.5,-567.5 265.5,-567.5 265.5,-532.5 46.5,-532.5"/>
<text text-anchor="start" x="53.3641" y="-545.3" font-family="Arial Bold" font-size="18.00" fill="#000000">environments</text>
<text text-anchor="start" x="161.3821" y="-545.3" font-family="Arial" font-size="14.00" fill="#000000"> </text>
<text text-anchor="start" x="165.2727" y="-545.3" font-family="Arial" font-size="14.00" fill="#666666">[BASE TABLE]</text>
<polygon fill="none" stroke="#000000" points="46.5,-502.5 46.5,-532.5 265.5,-532.5 265.5,-502.5 46.5,-502.5"/>
<text text-anchor="start" x="53.5" y="-513.9" font-family="Arial" font-size="14.00" fill="#000000">id </text>
<text text-anchor="start" x="68.2798" y="-513.9" font-family="Arial" font-size="14.00" fill="#666666">[varchar(22)]</text>
<polygon fill="none" stroke="#000000" points="46.5,-472.5 46.5,-502.5 265.5,-502.5 265.5,-472.5 46.5,-472.5"/>
<text text-anchor="start" x="53.5" y="-483.9" font-family="Arial" font-size="14.00" fill="#000000">branch_id </text>
<text text-anchor="start" x="118.8534" y="-483.9" font-family="Arial" font-size="14.00" fill="#666666">[varchar(22)]</text>
<polygon fill="none" stroke="#000000" points="46.5,-442.5 46.5,-472.5 265.5,-472.5 265.5,-442.5 46.5,-442.5"/>
<text text-anchor="start" x="53.5" y="-453.9" font-family="Arial" font-size="14.00" fill="#000000">key </text>
<text text-anchor="start" x="79.1732" y="-453.9" font-family="Arial" font-size="14.00" fill="#666666">[varchar(100)]</text>
<polygon fill="none" stroke="#000000" points="46.5,-412.5 46.5,-442.5 265.5,-442.5 265.5,-412.5 46.5,-412.5"/>
<text text-anchor="start" x="53.5" y="-423.9" font-family="Arial" font-size="14.00" fill="#000000">value </text>
<text text-anchor="start" x="90.845" y="-423.9" font-family="Arial" font-size="14.00" fill="#666666">[text]</text>
<polygon fill="none" stroke="#000000" stroke-width="3" points="44.5,-411.5 44.5,-569.5 266.5,-569.5 266.5,-411.5 44.5,-411.5"/>
</g>
<!-- branches -->
<g id="node2" class="node">
<title>branches</title>
<polygon fill="#efefef" stroke="transparent" points="46.5,-252.5 46.5,-287.5 266.5,-287.5 266.5,-252.5 46.5,-252.5"/>
<polygon fill="none" stroke="#000000" points="46.5,-252.5 46.5,-287.5 266.5,-287.5 266.5,-252.5 46.5,-252.5"/>
<text text-anchor="start" x="70.8615" y="-265.3" font-family="Arial Bold" font-size="18.00" fill="#000000">branches</text>
<text text-anchor="start" x="144.8847" y="-265.3" font-family="Arial" font-size="14.00" fill="#000000"> </text>
<text text-anchor="start" x="148.7753" y="-265.3" font-family="Arial" font-size="14.00" fill="#666666">[BASE TABLE]</text>
<polygon fill="none" stroke="#000000" points="46.5,-222.5 46.5,-252.5 266.5,-252.5 266.5,-222.5 46.5,-222.5"/>
<text text-anchor="start" x="53.5" y="-233.9" font-family="Arial" font-size="14.00" fill="#000000">id </text>
<text text-anchor="start" x="68.2798" y="-233.9" font-family="Arial" font-size="14.00" fill="#666666">[varchar(22)]</text>
<polygon fill="none" stroke="#000000" points="46.5,-192.5 46.5,-222.5 266.5,-222.5 266.5,-192.5 46.5,-192.5"/>
<text text-anchor="start" x="53.5" y="-203.9" font-family="Arial" font-size="14.00" fill="#000000">application_id </text>
<text text-anchor="start" x="142.9684" y="-203.9" font-family="Arial" font-size="14.00" fill="#666666">[varchar(22)]</text>
<polygon fill="none" stroke="#000000" points="46.5,-162.5 46.5,-192.5 266.5,-192.5 266.5,-162.5 46.5,-162.5"/>
<text text-anchor="start" x="53.5" y="-173.9" font-family="Arial" font-size="14.00" fill="#000000">branch_name </text>
<text text-anchor="start" x="142.9726" y="-173.9" font-family="Arial" font-size="14.00" fill="#666666">[varchar(100)]</text>
<polygon fill="none" stroke="#000000" points="46.5,-132.5 46.5,-162.5 266.5,-162.5 266.5,-132.5 46.5,-132.5"/>
<text text-anchor="start" x="53.0764" y="-143.9" font-family="Arial" font-size="14.00" fill="#000000">build_type </text>
<text text-anchor="start" x="120.7664" y="-143.9" font-family="Arial" font-size="14.00" fill="#666666">[enum(&#39;image&#39;,&#39;static&#39;)]</text>
<polygon fill="none" stroke="#000000" points="46.5,-102.5 46.5,-132.5 266.5,-132.5 266.5,-102.5 46.5,-102.5"/>
<text text-anchor="start" x="53.5" y="-113.9" font-family="Arial" font-size="14.00" fill="#000000">created_at </text>
<text text-anchor="start" x="123.528" y="-113.9" font-family="Arial" font-size="14.00" fill="#666666">[datetime(6)]</text>
<polygon fill="none" stroke="#000000" points="46.5,-72.5 46.5,-102.5 266.5,-102.5 266.5,-72.5 46.5,-72.5"/>
<text text-anchor="start" x="53.5" y="-83.9" font-family="Arial" font-size="14.00" fill="#000000">updated_at </text>
<text text-anchor="start" x="127.4326" y="-83.9" font-family="Arial" font-size="14.00" fill="#666666">[datetime(6)]</text>
<polygon fill="none" stroke="#000000" points="46.5,-42.5 46.5,-72.5 266.5,-72.5 266.5,-42.5 46.5,-42.5"/>
<text text-anchor="start" x="53.5" y="-53.9" font-family="Arial" font-size="14.00" fill="#000000">build_id </text>
<text text-anchor="start" x="105.6234" y="-53.9" font-family="Arial" font-size="14.00" fill="#666666">[varchar(22)]</text>
</g>
<!-- environments&#45;&gt;branches -->
<g id="edge1" class="edge">
<title>environments:branch_id&#45;&gt;branches:id</title>
<path fill="none" stroke="#000000" d="M275.4855,-486.4209C316.3988,-476.7885 297.7929,-405.0347 265.5,-367 201.6582,-291.8069 110.3418,-406.1931 46.5,-331 19.6043,-299.3221 4.9444,-237.5 46.5,-237.5"/>
<polygon fill="#000000" stroke="#000000" points="275.4421,-486.4255 265.0165,-483.026 270.4711,-486.9628 265.5,-487.5 265.5,-487.5 265.5,-487.5 270.4711,-486.9628 265.9835,-491.974 275.4421,-486.4255 275.4421,-486.4255"/>
<text text-anchor="start" x="272.5475" y="-497.5" font-family="Arial" font-size="10.00" fill="#000000">FOREIGN KEY (branch_id) REFERENCES branches (id)</text>
</g>
</g>
</svg>
