<?xml version="1.0" encoding="UTF-8" standalone="no"?>
<!DOCTYPE svg PUBLIC "-//W3C//DTD SVG 1.1//EN"
 "http://www.w3.org/Graphics/SVG/1.1/DTD/svg11.dtd">
<!-- Generated by graphviz version 2.40.1 (20161225.0304)
 -->
<!-- Title: environments Pages: 1 -->
<svg width="687pt" height="742pt"
 viewBox="0.00 0.00 687.00 742.00" xmlns="http://www.w3.org/2000/svg" xmlns:xlink="http://www.w3.org/1999/xlink">
<g id="graph0" class="graph" transform="scale(1 1) rotate(0) translate(4 738)">
<title>environments</title>
<polygon fill="#ffffff" stroke="transparent" points="-4,4 -4,-738 683,-738 683,4 -4,4"/>
<!-- environments -->
<g id="node1" class="node">
<title>environments</title>
<polygon fill="#efefef" stroke="transparent" points="164,-652.5 164,-687.5 383,-687.5 383,-652.5 164,-652.5"/>
<polygon fill="none" stroke="#000000" points="164,-652.5 164,-687.5 383,-687.5 383,-652.5 164,-652.5"/>
<text text-anchor="start" x="170.8641" y="-665.3" font-family="Arial Bold" font-size="18.00" fill="#000000">environments</text>
<text text-anchor="start" x="278.8821" y="-665.3" font-family="Arial" font-size="14.00" fill="#000000"> </text>
<text text-anchor="start" x="282.7727" y="-665.3" font-family="Arial" font-size="14.00" fill="#666666">[BASE TABLE]</text>
<polygon fill="none" stroke="#000000" points="164,-622.5 164,-652.5 383,-652.5 383,-622.5 164,-622.5"/>
<text text-anchor="start" x="171" y="-633.9" font-family="Arial" font-size="14.00" fill="#000000">application_id </text>
<text text-anchor="start" x="260.4684" y="-633.9" font-family="Arial" font-size="14.00" fill="#666666">[char(22)]</text>
<polygon fill="none" stroke="#000000" points="164,-592.5 164,-622.5 383,-622.5 383,-592.5 164,-592.5"/>
<text text-anchor="start" x="171" y="-603.9" font-family="Arial" font-size="14.00" fill="#000000">key </text>
<text text-anchor="start" x="196.6732" y="-603.9" font-family="Arial" font-size="14.00" fill="#666666">[varchar(100)]</text>
<polygon fill="none" stroke="#000000" points="164,-562.5 164,-592.5 383,-592.5 383,-562.5 164,-562.5"/>
<text text-anchor="start" x="171" y="-573.9" font-family="Arial" font-size="14.00" fill="#000000">value </text>
<text text-anchor="start" x="208.345" y="-573.9" font-family="Arial" font-size="14.00" fill="#666666">[text]</text>
<polygon fill="none" stroke="#000000" points="164,-532.5 164,-562.5 383,-562.5 383,-532.5 164,-532.5"/>
<text text-anchor="start" x="171" y="-543.9" font-family="Arial" font-size="14.00" fill="#000000">system </text>
<text text-anchor="start" x="219.2244" y="-543.9" font-family="Arial" font-size="14.00" fill="#666666">[tinyint(1)]</text>
<polygon fill="none" stroke="#000000" stroke-width="3" points="162,-531.5 162,-689.5 384,-689.5 384,-531.5 162,-531.5"/>
</g>
<!-- applications -->
<g id="node2" class="node">
<title>applications</title>
<polygon fill="#efefef" stroke="transparent" points="43,-372.5 43,-407.5 505,-407.5 505,-372.5 43,-372.5"/>
<polygon fill="none" stroke="#000000" points="43,-372.5 43,-407.5 505,-407.5 505,-372.5 43,-372.5"/>
<text text-anchor="start" x="177.8621" y="-385.3" font-family="Arial Bold" font-size="18.00" fill="#000000">applications</text>
<text text-anchor="start" x="272.8841" y="-385.3" font-family="Arial" font-size="14.00" fill="#000000"> </text>
<text text-anchor="start" x="276.7747" y="-385.3" font-family="Arial" font-size="14.00" fill="#666666">[BASE TABLE]</text>
<polygon fill="none" stroke="#000000" points="43,-342.5 43,-372.5 505,-372.5 505,-342.5 43,-342.5"/>
<text text-anchor="start" x="50" y="-353.9" font-family="Arial" font-size="14.00" fill="#000000">id </text>
<text text-anchor="start" x="64.7798" y="-353.9" font-family="Arial" font-size="14.00" fill="#666666">[char(22)]</text>
<polygon fill="none" stroke="#000000" points="43,-312.5 43,-342.5 505,-342.5 505,-312.5 43,-312.5"/>
<text text-anchor="start" x="50" y="-323.9" font-family="Arial" font-size="14.00" fill="#000000">name </text>
<text text-anchor="start" x="88.899" y="-323.9" font-family="Arial" font-size="14.00" fill="#666666">[varchar(100)]</text>
<polygon fill="none" stroke="#000000" points="43,-282.5 43,-312.5 505,-312.5 505,-282.5 43,-282.5"/>
<text text-anchor="start" x="50" y="-293.9" font-family="Arial" font-size="14.00" fill="#000000">repository_id </text>
<text text-anchor="start" x="134.0112" y="-293.9" font-family="Arial" font-size="14.00" fill="#666666">[varchar(22)]</text>
<polygon fill="none" stroke="#000000" points="43,-252.5 43,-282.5 505,-282.5 505,-252.5 43,-252.5"/>
<text text-anchor="start" x="50" y="-263.9" font-family="Arial" font-size="14.00" fill="#000000">ref_name </text>
<text text-anchor="start" x="113.0154" y="-263.9" font-family="Arial" font-size="14.00" fill="#666666">[varchar(100)]</text>
<polygon fill="none" stroke="#000000" points="43,-222.5 43,-252.5 505,-252.5 505,-222.5 43,-222.5"/>
<text text-anchor="start" x="50" y="-233.9" font-family="Arial" font-size="14.00" fill="#000000">deploy_type </text>
<text text-anchor="start" x="129.366" y="-233.9" font-family="Arial" font-size="14.00" fill="#666666">[enum(&#39;runtime&#39;,&#39;static&#39;)]</text>
<polygon fill="none" stroke="#000000" points="43,-192.5 43,-222.5 505,-222.5 505,-192.5 43,-192.5"/>
<text text-anchor="start" x="50" y="-203.9" font-family="Arial" font-size="14.00" fill="#000000">running </text>
<text text-anchor="start" x="100.5708" y="-203.9" font-family="Arial" font-size="14.00" fill="#666666">[tinyint(1)]</text>
<polygon fill="none" stroke="#000000" points="43,-162.5 43,-192.5 505,-192.5 505,-162.5 43,-162.5"/>
<text text-anchor="start" x="49.6857" y="-173.9" font-family="Arial" font-size="14.00" fill="#000000">container </text>
<text text-anchor="start" x="111.1471" y="-173.9" font-family="Arial" font-size="14.00" fill="#666666">[enum(&#39;missing&#39;,&#39;starting&#39;,&#39;running&#39;,&#39;exited&#39;,&#39;errored&#39;,&#39;unknown&#39;)]</text>
<polygon fill="none" stroke="#000000" points="43,-132.5 43,-162.5 505,-162.5 505,-132.5 43,-132.5"/>
<text text-anchor="start" x="50" y="-143.9" font-family="Arial" font-size="14.00" fill="#000000">current_commit </text>
<text text-anchor="start" x="150.3338" y="-143.9" font-family="Arial" font-size="14.00" fill="#666666">[char(40)]</text>
<polygon fill="none" stroke="#000000" points="43,-102.5 43,-132.5 505,-132.5 505,-102.5 43,-102.5"/>
<text text-anchor="start" x="50" y="-113.9" font-family="Arial" font-size="14.00" fill="#000000">want_commit </text>
<text text-anchor="start" x="136.3366" y="-113.9" font-family="Arial" font-size="14.00" fill="#666666">[char(40)]</text>
<polygon fill="none" stroke="#000000" points="43,-72.5 43,-102.5 505,-102.5 505,-72.5 43,-72.5"/>
<text text-anchor="start" x="50" y="-83.9" font-family="Arial" font-size="14.00" fill="#000000">created_at </text>
<text text-anchor="start" x="120.028" y="-83.9" font-family="Arial" font-size="14.00" fill="#666666">[datetime(6)]</text>
<polygon fill="none" stroke="#000000" points="43,-42.5 43,-72.5 505,-72.5 505,-42.5 43,-42.5"/>
<text text-anchor="start" x="50" y="-53.9" font-family="Arial" font-size="14.00" fill="#000000">updated_at </text>
<text text-anchor="start" x="123.9326" y="-53.9" font-family="Arial" font-size="14.00" fill="#666666">[datetime(6)]</text>
</g>
<!-- environments&#45;&gt;applications -->
<g id="edge1" class="edge">
<title>environments:application_id&#45;&gt;applications:id</title>
<path fill="none" stroke="#000000" d="M393.1859,-636.6207C447.3986,-626.6304 425.2916,-534.006 383,-487 332.1826,-430.5179 93.8174,-507.4821 43,-451 15.2058,-420.1075 1.4444,-357.5 43,-357.5"/>
<polygon fill="#000000" stroke="#000000" points="392.9629,-636.6398 382.6129,-633.0167 387.9815,-637.0699 383,-637.5 383,-637.5 383,-637.5 387.9815,-637.0699 383.3871,-641.9833 392.9629,-636.6398 392.9629,-636.6398"/>
<text text-anchor="start" x="389.602" y="-647.5" font-family="Arial" font-size="10.00" fill="#000000">FOREIGN KEY (application_id) REFERENCES applications (id)</text>
</g>
</g>
</svg>
