<?xml version="1.0" encoding="UTF-8" standalone="no"?>
<!DOCTYPE svg PUBLIC "-//W3C//DTD SVG 1.1//EN"
 "http://www.w3.org/Graphics/SVG/1.1/DTD/svg11.dtd">
<!-- Generated by graphviz version 2.40.1 (20161225.0304)
 -->
<!-- Title: environments Pages: 1 -->
<svg width="571pt" height="712pt"
 viewBox="0.00 0.00 570.50 712.00" xmlns="http://www.w3.org/2000/svg" xmlns:xlink="http://www.w3.org/1999/xlink">
<g id="graph0" class="graph" transform="scale(1 1) rotate(0) translate(4 708)">
<title>environments</title>
<polygon fill="#ffffff" stroke="transparent" points="-4,4 -4,-708 566.5,-708 566.5,4 -4,4"/>
<!-- environments -->
<g id="node1" class="node">
<title>environments</title>
<polygon fill="#efefef" stroke="transparent" points="296,-622.5 296,-657.5 515,-657.5 515,-622.5 296,-622.5"/>
<polygon fill="none" stroke="#000000" points="296,-622.5 296,-657.5 515,-657.5 515,-622.5 296,-622.5"/>
<text text-anchor="start" x="302.8641" y="-635.3" font-family="Arial Bold" font-size="18.00" fill="#000000">environments</text>
<text text-anchor="start" x="410.8821" y="-635.3" font-family="Arial" font-size="14.00" fill="#000000"> </text>
<text text-anchor="start" x="414.7727" y="-635.3" font-family="Arial" font-size="14.00" fill="#666666">[BASE TABLE]</text>
<polygon fill="none" stroke="#000000" points="296,-592.5 296,-622.5 515,-622.5 515,-592.5 296,-592.5"/>
<text text-anchor="start" x="303" y="-603.9" font-family="Arial" font-size="14.00" fill="#000000">id </text>
<text text-anchor="start" x="317.7798" y="-603.9" font-family="Arial" font-size="14.00" fill="#666666">[char(22)]</text>
<polygon fill="none" stroke="#000000" points="296,-562.5 296,-592.5 515,-592.5 515,-562.5 296,-562.5"/>
<text text-anchor="start" x="303" y="-573.9" font-family="Arial" font-size="14.00" fill="#000000">application_id </text>
<text text-anchor="start" x="392.4684" y="-573.9" font-family="Arial" font-size="14.00" fill="#666666">[char(22)]</text>
<polygon fill="none" stroke="#000000" points="296,-532.5 296,-562.5 515,-562.5 515,-532.5 296,-532.5"/>
<text text-anchor="start" x="303" y="-543.9" font-family="Arial" font-size="14.00" fill="#000000">key </text>
<text text-anchor="start" x="328.6732" y="-543.9" font-family="Arial" font-size="14.00" fill="#666666">[varchar(100)]</text>
<polygon fill="none" stroke="#000000" points="296,-502.5 296,-532.5 515,-532.5 515,-502.5 296,-502.5"/>
<text text-anchor="start" x="303" y="-513.9" font-family="Arial" font-size="14.00" fill="#000000">value </text>
<text text-anchor="start" x="340.345" y="-513.9" font-family="Arial" font-size="14.00" fill="#666666">[text]</text>
<polygon fill="none" stroke="#000000" stroke-width="3" points="294,-501.5 294,-659.5 516,-659.5 516,-501.5 294,-501.5"/>
</g>
<!-- applications -->
<g id="node2" class="node">
<title>applications</title>
<polygon fill="#efefef" stroke="transparent" points="291,-342.5 291,-377.5 520,-377.5 520,-342.5 291,-342.5"/>
<polygon fill="none" stroke="#000000" points="291,-342.5 291,-377.5 520,-377.5 520,-342.5 291,-342.5"/>
<text text-anchor="start" x="309.3621" y="-355.3" font-family="Arial Bold" font-size="18.00" fill="#000000">applications</text>
<text text-anchor="start" x="404.3841" y="-355.3" font-family="Arial" font-size="14.00" fill="#000000"> </text>
<text text-anchor="start" x="408.2747" y="-355.3" font-family="Arial" font-size="14.00" fill="#666666">[BASE TABLE]</text>
<polygon fill="none" stroke="#000000" points="291,-312.5 291,-342.5 520,-342.5 520,-312.5 291,-312.5"/>
<text text-anchor="start" x="298" y="-323.9" font-family="Arial" font-size="14.00" fill="#000000">id </text>
<text text-anchor="start" x="312.7798" y="-323.9" font-family="Arial" font-size="14.00" fill="#666666">[char(22)]</text>
<polygon fill="none" stroke="#000000" points="291,-282.5 291,-312.5 520,-312.5 520,-282.5 291,-282.5"/>
<text text-anchor="start" x="298" y="-293.9" font-family="Arial" font-size="14.00" fill="#000000">name </text>
<text text-anchor="start" x="336.899" y="-293.9" font-family="Arial" font-size="14.00" fill="#666666">[varchar(100)]</text>
<polygon fill="none" stroke="#000000" points="291,-252.5 291,-282.5 520,-282.5 520,-252.5 291,-252.5"/>
<text text-anchor="start" x="298" y="-263.9" font-family="Arial" font-size="14.00" fill="#000000">repository_id </text>
<text text-anchor="start" x="382.0112" y="-263.9" font-family="Arial" font-size="14.00" fill="#666666">[varchar(22)]</text>
<polygon fill="none" stroke="#000000" points="291,-222.5 291,-252.5 520,-252.5 520,-222.5 291,-222.5"/>
<text text-anchor="start" x="298" y="-233.9" font-family="Arial" font-size="14.00" fill="#000000">branch_name </text>
<text text-anchor="start" x="387.4726" y="-233.9" font-family="Arial" font-size="14.00" fill="#666666">[varchar(100)]</text>
<polygon fill="none" stroke="#000000" points="291,-192.5 291,-222.5 520,-222.5 520,-192.5 291,-192.5"/>
<text text-anchor="start" x="297.8008" y="-203.9" font-family="Arial" font-size="14.00" fill="#000000">build_type </text>
<text text-anchor="start" x="365.4908" y="-203.9" font-family="Arial" font-size="14.00" fill="#666666">[enum(&#39;runtime&#39;,&#39;static&#39;)]</text>
<polygon fill="none" stroke="#000000" points="291,-162.5 291,-192.5 520,-192.5 520,-162.5 291,-162.5"/>
<text text-anchor="start" x="298" y="-173.9" font-family="Arial" font-size="14.00" fill="#000000">state </text>
<text text-anchor="start" x="332.237" y="-173.9" font-family="Arial" font-size="14.00" fill="#666666">[varchar(10)]</text>
<polygon fill="none" stroke="#000000" points="291,-132.5 291,-162.5 520,-162.5 520,-132.5 291,-132.5"/>
<text text-anchor="start" x="298" y="-143.9" font-family="Arial" font-size="14.00" fill="#000000">current_commit </text>
<text text-anchor="start" x="398.3338" y="-143.9" font-family="Arial" font-size="14.00" fill="#666666">[char(40)]</text>
<polygon fill="none" stroke="#000000" points="291,-102.5 291,-132.5 520,-132.5 520,-102.5 291,-102.5"/>
<text text-anchor="start" x="298" y="-113.9" font-family="Arial" font-size="14.00" fill="#000000">want_commit </text>
<text text-anchor="start" x="384.3366" y="-113.9" font-family="Arial" font-size="14.00" fill="#666666">[char(40)]</text>
<polygon fill="none" stroke="#000000" points="291,-72.5 291,-102.5 520,-102.5 520,-72.5 291,-72.5"/>
<text text-anchor="start" x="298" y="-83.9" font-family="Arial" font-size="14.00" fill="#000000">created_at </text>
<text text-anchor="start" x="368.028" y="-83.9" font-family="Arial" font-size="14.00" fill="#666666">[datetime(6)]</text>
<polygon fill="none" stroke="#000000" points="291,-42.5 291,-72.5 520,-72.5 520,-42.5 291,-42.5"/>
<text text-anchor="start" x="298" y="-53.9" font-family="Arial" font-size="14.00" fill="#000000">updated_at </text>
<text text-anchor="start" x="371.9326" y="-53.9" font-family="Arial" font-size="14.00" fill="#666666">[datetime(6)]</text>
</g>
<!-- environments&#45;&gt;applications -->
<g id="edge1" class="edge">
<title>environments:application_id&#45;&gt;applications:id</title>
<path fill="none" stroke="#000000" d="M286.1763,-574.6924C240.0449,-547.2266 238.9063,-327.5 291,-327.5"/>
<polygon fill="#000000" stroke="#000000" points="286.385,-574.752 294.7634,-581.8268 291.1925,-576.126 296,-577.5 296,-577.5 296,-577.5 291.1925,-576.126 297.2366,-573.1732 286.385,-574.752 286.385,-574.752"/>
<text text-anchor="start" x="6.602" y="-587.5" font-family="Arial" font-size="10.00" fill="#000000">FOREIGN KEY (application_id) REFERENCES applications (id)</text>
</g>
</g>
</svg>
