<?xml version="1.0" encoding="UTF-8" standalone="no"?>
<!DOCTYPE svg PUBLIC "-//W3C//DTD SVG 1.1//EN"
        "http://www.w3.org/Graphics/SVG/1.1/DTD/svg11.dtd">
<!-- Generated by graphviz version 2.40.1 (20161225.0304)
 -->
<!-- Title: environments Pages: 1 -->
<svg width="886pt" height="1049pt"
     viewBox="0.00 0.00 885.50 1049.00" xmlns="http://www.w3.org/2000/svg" xmlns:xlink="http://www.w3.org/1999/xlink">
    <g id="graph0" class="graph" transform="scale(1 1) rotate(0) translate(4 1045)">
        <title>environments</title>
        <polygon fill="#ffffff" stroke="transparent" points="-4,4 -4,-1045 881.5,-1045 881.5,4 -4,4"/>
        <!-- environments -->
        <g id="node1" class="node">
            <title>environments</title>
            <polygon fill="#efefef" stroke="transparent"
                     points="347.5,-592.5 347.5,-627.5 567.5,-627.5 567.5,-592.5 347.5,-592.5"/>
            <polygon fill="none" stroke="#000000"
                     points="347.5,-592.5 347.5,-627.5 567.5,-627.5 567.5,-592.5 347.5,-592.5"/>
            <text text-anchor="start" x="354.8641" y="-605.3" font-family="Arial Bold" font-size="18.00" fill="#000000">
                environments
            </text>
            <text text-anchor="start" x="462.8821" y="-605.3" font-family="Arial" font-size="14.00"
                  fill="#000000"></text>
            <text text-anchor="start" x="466.7727" y="-605.3" font-family="Arial" font-size="14.00" fill="#666666">[BASE
                TABLE]
            </text>
            <polygon fill="none" stroke="#000000"
                     points="347.5,-562.5 347.5,-592.5 567.5,-592.5 567.5,-562.5 347.5,-562.5"/>
            <text text-anchor="start" x="354.5" y="-573.9" font-family="Arial" font-size="14.00" fill="#000000">id
            </text>
            <text text-anchor="start" x="369.2798" y="-573.9" font-family="Arial" font-size="14.00" fill="#666666">
                [varchar(22)]
            </text>
            <polygon fill="none" stroke="#000000"
                     points="347.5,-532.5 347.5,-562.5 567.5,-562.5 567.5,-532.5 347.5,-532.5"/>
            <text text-anchor="start" x="354.5" y="-543.9" font-family="Arial" font-size="14.00" fill="#000000">
                application_id
            </text>
            <text text-anchor="start" x="443.9684" y="-543.9" font-family="Arial" font-size="14.00" fill="#666666">
                [varchar(22)]
            </text>
            <polygon fill="none" stroke="#000000"
                     points="347.5,-502.5 347.5,-532.5 567.5,-532.5 567.5,-502.5 347.5,-502.5"/>
            <text text-anchor="start" x="354.5" y="-513.9" font-family="Arial" font-size="14.00" fill="#000000">
                branch_name
            </text>
            <text text-anchor="start" x="443.9726" y="-513.9" font-family="Arial" font-size="14.00" fill="#666666">
                [varchar(100)]
            </text>
            <polygon fill="none" stroke="#000000"
                     points="347.5,-472.5 347.5,-502.5 567.5,-502.5 567.5,-472.5 347.5,-472.5"/>
            <text text-anchor="start" x="354.0764" y="-483.9" font-family="Arial" font-size="14.00" fill="#000000">
                build_type
            </text>
            <text text-anchor="start" x="421.7664" y="-483.9" font-family="Arial" font-size="14.00" fill="#666666">
                [enum(&#39;image&#39;,&#39;static&#39;)]
            </text>
            <polygon fill="none" stroke="#000000"
                     points="347.5,-442.5 347.5,-472.5 567.5,-472.5 567.5,-442.5 347.5,-442.5"/>
            <text text-anchor="start" x="354.5" y="-453.9" font-family="Arial" font-size="14.00" fill="#000000">
                created_at
            </text>
            <text text-anchor="start" x="424.528" y="-453.9" font-family="Arial" font-size="14.00" fill="#666666">
                [datetime(6)]
            </text>
            <polygon fill="none" stroke="#000000"
                     points="347.5,-412.5 347.5,-442.5 567.5,-442.5 567.5,-412.5 347.5,-412.5"/>
            <text text-anchor="start" x="354.5" y="-423.9" font-family="Arial" font-size="14.00" fill="#000000">
                updated_at
            </text>
            <text text-anchor="start" x="428.4326" y="-423.9" font-family="Arial" font-size="14.00" fill="#666666">
                [datetime(6)]
            </text>
            <polygon fill="none" stroke="#000000" stroke-width="3"
                     points="346,-411.5 346,-629.5 569,-629.5 569,-411.5 346,-411.5"/>
        </g>
        <!-- applications -->
        <g id="node4" class="node">
            <title>applications</title>
            <polygon fill="#efefef" stroke="transparent"
                     points="354.5,-252.5 354.5,-287.5 560.5,-287.5 560.5,-252.5 354.5,-252.5"/>
            <polygon fill="none" stroke="#000000"
                     points="354.5,-252.5 354.5,-287.5 560.5,-287.5 560.5,-252.5 354.5,-252.5"/>
            <text text-anchor="start" x="361.3621" y="-265.3" font-family="Arial Bold" font-size="18.00" fill="#000000">
                applications
            </text>
            <text text-anchor="start" x="456.3841" y="-265.3" font-family="Arial" font-size="14.00"
                  fill="#000000"></text>
            <text text-anchor="start" x="460.2747" y="-265.3" font-family="Arial" font-size="14.00" fill="#666666">[BASE
                TABLE]
            </text>
            <polygon fill="none" stroke="#000000"
                     points="354.5,-222.5 354.5,-252.5 560.5,-252.5 560.5,-222.5 354.5,-222.5"/>
            <text text-anchor="start" x="361.5" y="-233.9" font-family="Arial" font-size="14.00" fill="#000000">id
            </text>
            <text text-anchor="start" x="376.2798" y="-233.9" font-family="Arial" font-size="14.00" fill="#666666">
                [varchar(22)]
            </text>
            <polygon fill="none" stroke="#000000"
                     points="354.5,-192.5 354.5,-222.5 560.5,-222.5 560.5,-192.5 354.5,-192.5"/>
            <text text-anchor="start" x="361.5" y="-203.9" font-family="Arial" font-size="14.00" fill="#000000">owner
            </text>
            <text text-anchor="start" x="403.5056" y="-203.9" font-family="Arial" font-size="14.00" fill="#666666">
                [varchar(100)]
            </text>
            <polygon fill="none" stroke="#000000"
                     points="354.5,-162.5 354.5,-192.5 560.5,-192.5 560.5,-162.5 354.5,-162.5"/>
            <text text-anchor="start" x="361.5" y="-173.9" font-family="Arial" font-size="14.00" fill="#000000">name
            </text>
            <text text-anchor="start" x="400.399" y="-173.9" font-family="Arial" font-size="14.00" fill="#666666">
                [varchar(100)]
            </text>
            <polygon fill="none" stroke="#000000"
                     points="354.5,-132.5 354.5,-162.5 560.5,-162.5 560.5,-132.5 354.5,-132.5"/>
            <text text-anchor="start" x="361.5" y="-143.9" font-family="Arial" font-size="14.00" fill="#000000">
                repository_id
            </text>
            <text text-anchor="start" x="445.5112" y="-143.9" font-family="Arial" font-size="14.00" fill="#666666">
                [varchar(22)]
            </text>
            <polygon fill="none" stroke="#000000"
                     points="354.5,-102.5 354.5,-132.5 560.5,-132.5 560.5,-102.5 354.5,-102.5"/>
            <text text-anchor="start" x="361.5" y="-113.9" font-family="Arial" font-size="14.00" fill="#000000">
                created_at
            </text>
            <text text-anchor="start" x="431.528" y="-113.9" font-family="Arial" font-size="14.00" fill="#666666">
                [datetime(6)]
            </text>
            <polygon fill="none" stroke="#000000"
                     points="354.5,-72.5 354.5,-102.5 560.5,-102.5 560.5,-72.5 354.5,-72.5"/>
            <text text-anchor="start" x="361.5" y="-83.9" font-family="Arial" font-size="14.00" fill="#000000">
                updated_at
            </text>
            <text text-anchor="start" x="435.4326" y="-83.9" font-family="Arial" font-size="14.00" fill="#666666">
                [datetime(6)]
            </text>
            <polygon fill="none" stroke="#000000" points="354.5,-42.5 354.5,-72.5 560.5,-72.5 560.5,-42.5 354.5,-42.5"/>
            <text text-anchor="start" x="361.5" y="-53.9" font-family="Arial" font-size="14.00" fill="#000000">
                deleted_at
            </text>
            <text text-anchor="start" x="430.7566" y="-53.9" font-family="Arial" font-size="14.00" fill="#666666">
                [datetime(6)]
            </text>
        </g>
        <!-- environments&#45;&gt;applications -->
        <g id="edge3" class="edge">
            <title>environments:application_id&#45;&gt;applications:id</title>
            <path fill="none" stroke="#000000" d="M577.7176,-546.9106C704.8731,-531.9577 694.8137,-237.5 560.5,-237.5"/>
            <polygon fill="#000000" stroke="#000000"
                     points="577.4834,-546.924 567.2408,-543.0075 572.4917,-547.212 567.5,-547.5 567.5,-547.5 567.5,-547.5 572.4917,-547.212 567.7592,-551.9925 577.4834,-546.924 577.4834,-546.924"/>
            <text text-anchor="start" x="574.102" y="-557.5" font-family="Arial" font-size="10.00" fill="#000000">
                FOREIGN KEY (application_id) REFERENCES applications (id)
            </text>
        </g>
        <!-- build_logs -->
        <g id="node2" class="node">
            <title>build_logs</title>
            <polygon fill="#efefef" stroke="transparent"
                     points="43.5,-932.5 43.5,-967.5 462.5,-967.5 462.5,-932.5 43.5,-932.5"/>
            <polygon fill="none" stroke="#000000"
                     points="43.5,-932.5 43.5,-967.5 462.5,-967.5 462.5,-932.5 43.5,-932.5"/>
            <text text-anchor="start" x="163.8632" y="-945.3" font-family="Arial Bold" font-size="18.00" fill="#000000">
                build_logs
            </text>
            <text text-anchor="start" x="244.883" y="-945.3" font-family="Arial" font-size="14.00"
                  fill="#000000"></text>
            <text text-anchor="start" x="248.7736" y="-945.3" font-family="Arial" font-size="14.00" fill="#666666">[BASE
                TABLE]
            </text>
            <polygon fill="none" stroke="#000000"
                     points="43.5,-902.5 43.5,-932.5 462.5,-932.5 462.5,-902.5 43.5,-902.5"/>
            <text text-anchor="start" x="50.5" y="-913.9" font-family="Arial" font-size="14.00" fill="#000000">id</text>
            <text text-anchor="start" x="65.2798" y="-913.9" font-family="Arial" font-size="14.00" fill="#666666">
                [varchar(22)]
            </text>
            <polygon fill="none" stroke="#000000"
                     points="43.5,-872.5 43.5,-902.5 462.5,-902.5 462.5,-872.5 43.5,-872.5"/>
            <text text-anchor="start" x="50.0742" y="-883.9" font-family="Arial" font-size="14.00" fill="#000000">
                result
            </text>
            <text text-anchor="start" x="88.1878" y="-883.9" font-family="Arial" font-size="14.00" fill="#666666">[enum(&#39;BUILDING&#39;,&#39;SUCCEEDED&#39;,&#39;FAILED&#39;,&#39;CANCELED&#39;)]</text>
            <polygon fill="none" stroke="#000000"
                     points="43.5,-842.5 43.5,-872.5 462.5,-872.5 462.5,-842.5 43.5,-842.5"/>
            <text text-anchor="start" x="50.5" y="-853.9" font-family="Arial" font-size="14.00" fill="#000000">
                started_at
            </text>
            <text text-anchor="start" x="116.636" y="-853.9" font-family="Arial" font-size="14.00" fill="#666666">
                [datetime(6)]
            </text>
            <polygon fill="none" stroke="#000000"
                     points="43.5,-812.5 43.5,-842.5 462.5,-842.5 462.5,-812.5 43.5,-812.5"/>
            <text text-anchor="start" x="50.5" y="-823.9" font-family="Arial" font-size="14.00" fill="#000000">
                finished_at
            </text>
            <text text-anchor="start" x="122.0806" y="-823.9" font-family="Arial" font-size="14.00" fill="#666666">
                [datetime(6)]
            </text>
            <polygon fill="none" stroke="#000000"
                     points="43.5,-782.5 43.5,-812.5 462.5,-812.5 462.5,-782.5 43.5,-782.5"/>
            <text text-anchor="start" x="50.5" y="-793.9" font-family="Arial" font-size="14.00" fill="#000000">
                environment_id
            </text>
            <text text-anchor="start" x="150.0764" y="-793.9" font-family="Arial" font-size="14.00" fill="#666666">
                [varchar(22)]
            </text>
        </g>
        <!-- build_logs&#45;&gt;environments -->
        <g id="edge1" class="edge">
            <title>build_logs:environment_id&#45;&gt;environments:id</title>
            <path fill="none" stroke="#000000"
                  d="M472.1539,-794.8576C483.8707,-786.2465 473.2053,-758.487 462.5,-740 432.969,-689.0029 377.031,-724.9971 347.5,-674 326.0076,-636.8848 304.6111,-577.5 347.5,-577.5"/>
            <polygon fill="#000000" stroke="#000000"
                     points="472.1452,-794.8599 461.3119,-793.1597 467.3226,-796.1799 462.5,-797.5 462.5,-797.5 462.5,-797.5 467.3226,-796.1799 463.6881,-801.8403 472.1452,-794.8599 472.1452,-794.8599"/>
            <text text-anchor="start" x="469.882" y="-807.5" font-family="Arial" font-size="10.00" fill="#000000">
                FOREIGN KEY (environment_id) REFERENCES environments (id)
            </text>
        </g>
        <!-- websites -->
        <g id="node3" class="node">
            <title>websites</title>
            <polygon fill="#efefef" stroke="transparent"
                     points="566.5,-962.5 566.5,-997.5 758.5,-997.5 758.5,-962.5 566.5,-962.5"/>
            <polygon fill="none" stroke="#000000"
                     points="566.5,-962.5 566.5,-997.5 758.5,-997.5 758.5,-962.5 566.5,-962.5"/>
            <text text-anchor="start" x="578.8685" y="-975.3" font-family="Arial Bold" font-size="18.00" fill="#000000">
                websites
            </text>
            <text text-anchor="start" x="648.8777" y="-975.3" font-family="Arial" font-size="14.00"
                  fill="#000000"></text>
            <text text-anchor="start" x="652.7683" y="-975.3" font-family="Arial" font-size="14.00" fill="#666666">[BASE
                TABLE]
            </text>
            <polygon fill="none" stroke="#000000"
                     points="566.5,-932.5 566.5,-962.5 758.5,-962.5 758.5,-932.5 566.5,-932.5"/>
            <text text-anchor="start" x="573.5" y="-943.9" font-family="Arial" font-size="14.00" fill="#000000">id
            </text>
            <text text-anchor="start" x="588.2798" y="-943.9" font-family="Arial" font-size="14.00" fill="#666666">
                [varchar(22)]
            </text>
            <polygon fill="none" stroke="#000000"
                     points="566.5,-902.5 566.5,-932.5 758.5,-932.5 758.5,-902.5 566.5,-902.5"/>
            <text text-anchor="start" x="573.5" y="-913.9" font-family="Arial" font-size="14.00" fill="#000000">fqdn
            </text>
            <text text-anchor="start" x="604.629" y="-913.9" font-family="Arial" font-size="14.00" fill="#666666">
                [varchar(50)]
            </text>
            <polygon fill="none" stroke="#000000"
                     points="566.5,-872.5 566.5,-902.5 758.5,-902.5 758.5,-872.5 566.5,-872.5"/>
            <text text-anchor="start" x="573.5" y="-883.9" font-family="Arial" font-size="14.00" fill="#000000">
                build_id
            </text>
            <text text-anchor="start" x="625.6234" y="-883.9" font-family="Arial" font-size="14.00" fill="#666666">
                [varchar(22)]
            </text>
            <polygon fill="none" stroke="#000000"
                     points="566.5,-842.5 566.5,-872.5 758.5,-872.5 758.5,-842.5 566.5,-842.5"/>
            <text text-anchor="start" x="573.5" y="-853.9" font-family="Arial" font-size="14.00" fill="#000000">
                http_port
            </text>
            <text text-anchor="start" x="632.636" y="-853.9" font-family="Arial" font-size="14.00" fill="#666666">
                [int(11)]
            </text>
            <polygon fill="none" stroke="#000000"
                     points="566.5,-812.5 566.5,-842.5 758.5,-842.5 758.5,-812.5 566.5,-812.5"/>
            <text text-anchor="start" x="573.5" y="-823.9" font-family="Arial" font-size="14.00" fill="#000000">
                created_at
            </text>
            <text text-anchor="start" x="643.528" y="-823.9" font-family="Arial" font-size="14.00" fill="#666666">
                [datetime(6)]
            </text>
            <polygon fill="none" stroke="#000000"
                     points="566.5,-782.5 566.5,-812.5 758.5,-812.5 758.5,-782.5 566.5,-782.5"/>
            <text text-anchor="start" x="573.5" y="-793.9" font-family="Arial" font-size="14.00" fill="#000000">
                updated_at
            </text>
            <text text-anchor="start" x="647.4326" y="-793.9" font-family="Arial" font-size="14.00" fill="#666666">
                [datetime(6)]
            </text>
            <polygon fill="none" stroke="#000000"
                     points="566.5,-752.5 566.5,-782.5 758.5,-782.5 758.5,-752.5 566.5,-752.5"/>
            <text text-anchor="start" x="573.0435" y="-763.9" font-family="Arial" font-size="14.00" fill="#000000">
                environment_id
            </text>
            <text text-anchor="start" x="672.6199" y="-763.9" font-family="Arial" font-size="14.00" fill="#666666">
                [varchar(22)]
            </text>
        </g>
        <!-- websites&#45;&gt;environments -->
        <g id="edge2" class="edge">
            <title>websites:environment_id&#45;&gt;environments:id</title>
            <path fill="none" stroke="#000000"
                  d="M556.9798,-764.3833C549.5212,-755.7447 566.2117,-730.7619 566.5,-710 567.3177,-651.1151 626.3906,-577.5 567.5,-577.5"/>
            <polygon fill="#000000" stroke="#000000"
                     points="556.9963,-764.3887 565.0999,-771.7767 561.7482,-765.9443 566.5,-767.5 566.5,-767.5 566.5,-767.5 561.7482,-765.9443 567.9001,-763.2233 556.9963,-764.3887 556.9963,-764.3887"/>
            <text text-anchor="start" x="573.882" y="-777.5" font-family="Arial" font-size="10.00" fill="#000000">
                FOREIGN KEY (environment_id) REFERENCES environments (id)
            </text>
        </g>
    </g>
</svg>
