<?xml version="1.0" encoding="UTF-8" standalone="no"?>
<!DOCTYPE svg PUBLIC "-//W3C//DTD SVG 1.1//EN"
 "http://www.w3.org/Graphics/SVG/1.1/DTD/svg11.dtd">
<!-- Generated by graphviz version 2.40.1 (20161225.0304)
 -->
<!-- Title: environments Pages: 1 -->
<svg width="611pt" height="712pt"
 viewBox="0.00 0.00 611.00 712.00" xmlns="http://www.w3.org/2000/svg" xmlns:xlink="http://www.w3.org/1999/xlink">
<g id="graph0" class="graph" transform="scale(1 1) rotate(0) translate(4 708)">
<title>environments</title>
<polygon fill="#ffffff" stroke="transparent" points="-4,4 -4,-708 607,-708 607,4 -4,4"/>
<!-- environments -->
<g id="node1" class="node">
<title>environments</title>
<polygon fill="#efefef" stroke="transparent" points="88,-622.5 88,-657.5 307,-657.5 307,-622.5 88,-622.5"/>
<polygon fill="none" stroke="#000000" points="88,-622.5 88,-657.5 307,-657.5 307,-622.5 88,-622.5"/>
<text text-anchor="start" x="94.8641" y="-635.3" font-family="Arial Bold" font-size="18.00" fill="#000000">environments</text>
<text text-anchor="start" x="202.8821" y="-635.3" font-family="Arial" font-size="14.00" fill="#000000"> </text>
<text text-anchor="start" x="206.7727" y="-635.3" font-family="Arial" font-size="14.00" fill="#666666">[BASE TABLE]</text>
<polygon fill="none" stroke="#000000" points="88,-592.5 88,-622.5 307,-622.5 307,-592.5 88,-592.5"/>
<text text-anchor="start" x="95" y="-603.9" font-family="Arial" font-size="14.00" fill="#000000">application_id </text>
<text text-anchor="start" x="184.4684" y="-603.9" font-family="Arial" font-size="14.00" fill="#666666">[char(22)]</text>
<polygon fill="none" stroke="#000000" points="88,-562.5 88,-592.5 307,-592.5 307,-562.5 88,-562.5"/>
<text text-anchor="start" x="95" y="-573.9" font-family="Arial" font-size="14.00" fill="#000000">key </text>
<text text-anchor="start" x="120.6732" y="-573.9" font-family="Arial" font-size="14.00" fill="#666666">[varchar(100)]</text>
<polygon fill="none" stroke="#000000" points="88,-532.5 88,-562.5 307,-562.5 307,-532.5 88,-532.5"/>
<text text-anchor="start" x="95" y="-543.9" font-family="Arial" font-size="14.00" fill="#000000">value </text>
<text text-anchor="start" x="132.345" y="-543.9" font-family="Arial" font-size="14.00" fill="#666666">[text]</text>
<polygon fill="none" stroke="#000000" points="88,-502.5 88,-532.5 307,-532.5 307,-502.5 88,-502.5"/>
<text text-anchor="start" x="95" y="-513.9" font-family="Arial" font-size="14.00" fill="#000000">system </text>
<text text-anchor="start" x="143.2244" y="-513.9" font-family="Arial" font-size="14.00" fill="#666666">[tinyint(1)]</text>
<polygon fill="none" stroke="#000000" stroke-width="3" points="86,-501.5 86,-659.5 308,-659.5 308,-501.5 86,-501.5"/>
</g>
<!-- applications -->
<g id="node2" class="node">
<title>applications</title>
<polygon fill="#efefef" stroke="transparent" points="43,-342.5 43,-377.5 353,-377.5 353,-342.5 43,-342.5"/>
<polygon fill="none" stroke="#000000" points="43,-342.5 43,-377.5 353,-377.5 353,-342.5 43,-342.5"/>
<text text-anchor="start" x="101.8621" y="-355.3" font-family="Arial Bold" font-size="18.00" fill="#000000">applications</text>
<text text-anchor="start" x="196.8841" y="-355.3" font-family="Arial" font-size="14.00" fill="#000000"> </text>
<text text-anchor="start" x="200.7747" y="-355.3" font-family="Arial" font-size="14.00" fill="#666666">[BASE TABLE]</text>
<polygon fill="none" stroke="#000000" points="43,-312.5 43,-342.5 353,-342.5 353,-312.5 43,-312.5"/>
<text text-anchor="start" x="50" y="-323.9" font-family="Arial" font-size="14.00" fill="#000000">id </text>
<text text-anchor="start" x="64.7798" y="-323.9" font-family="Arial" font-size="14.00" fill="#666666">[char(22)]</text>
<polygon fill="none" stroke="#000000" points="43,-282.5 43,-312.5 353,-312.5 353,-282.5 43,-282.5"/>
<text text-anchor="start" x="50" y="-293.9" font-family="Arial" font-size="14.00" fill="#000000">name </text>
<text text-anchor="start" x="88.899" y="-293.9" font-family="Arial" font-size="14.00" fill="#666666">[varchar(100)]</text>
<polygon fill="none" stroke="#000000" points="43,-252.5 43,-282.5 353,-282.5 353,-252.5 43,-252.5"/>
<text text-anchor="start" x="50" y="-263.9" font-family="Arial" font-size="14.00" fill="#000000">repository_id </text>
<text text-anchor="start" x="134.0112" y="-263.9" font-family="Arial" font-size="14.00" fill="#666666">[varchar(22)]</text>
<polygon fill="none" stroke="#000000" points="43,-222.5 43,-252.5 353,-252.5 353,-222.5 43,-222.5"/>
<text text-anchor="start" x="50" y="-233.9" font-family="Arial" font-size="14.00" fill="#000000">ref_name </text>
<text text-anchor="start" x="113.0154" y="-233.9" font-family="Arial" font-size="14.00" fill="#666666">[varchar(100)]</text>
<polygon fill="none" stroke="#000000" points="43,-192.5 43,-222.5 353,-222.5 353,-192.5 43,-192.5"/>
<text text-anchor="start" x="50" y="-203.9" font-family="Arial" font-size="14.00" fill="#000000">build_type </text>
<text text-anchor="start" x="117.69" y="-203.9" font-family="Arial" font-size="14.00" fill="#666666">[enum(&#39;runtime&#39;,&#39;static&#39;)]</text>
<polygon fill="none" stroke="#000000" points="43,-162.5 43,-192.5 353,-192.5 353,-162.5 43,-162.5"/>
<text text-anchor="start" x="49.88" y="-173.9" font-family="Arial" font-size="14.00" fill="#000000">state </text>
<text text-anchor="start" x="84.117" y="-173.9" font-family="Arial" font-size="14.00" fill="#666666">[enum(&#39;idle&#39;,&#39;deploying&#39;,&#39;running&#39;,&#39;errored&#39;)]</text>
<polygon fill="none" stroke="#000000" points="43,-132.5 43,-162.5 353,-162.5 353,-132.5 43,-132.5"/>
<text text-anchor="start" x="50" y="-143.9" font-family="Arial" font-size="14.00" fill="#000000">current_commit </text>
<text text-anchor="start" x="150.3338" y="-143.9" font-family="Arial" font-size="14.00" fill="#666666">[char(40)]</text>
<polygon fill="none" stroke="#000000" points="43,-102.5 43,-132.5 353,-132.5 353,-102.5 43,-102.5"/>
<text text-anchor="start" x="50" y="-113.9" font-family="Arial" font-size="14.00" fill="#000000">want_commit </text>
<text text-anchor="start" x="136.3366" y="-113.9" font-family="Arial" font-size="14.00" fill="#666666">[char(40)]</text>
<polygon fill="none" stroke="#000000" points="43,-72.5 43,-102.5 353,-102.5 353,-72.5 43,-72.5"/>
<text text-anchor="start" x="50" y="-83.9" font-family="Arial" font-size="14.00" fill="#000000">created_at </text>
<text text-anchor="start" x="120.028" y="-83.9" font-family="Arial" font-size="14.00" fill="#666666">[datetime(6)]</text>
<polygon fill="none" stroke="#000000" points="43,-42.5 43,-72.5 353,-72.5 353,-42.5 43,-42.5"/>
<text text-anchor="start" x="50" y="-53.9" font-family="Arial" font-size="14.00" fill="#000000">updated_at </text>
<text text-anchor="start" x="123.9326" y="-53.9" font-family="Arial" font-size="14.00" fill="#666666">[datetime(6)]</text>
</g>
<!-- environments&#45;&gt;applications -->
<g id="edge1" class="edge">
<title>environments:application_id&#45;&gt;applications:id</title>
<path fill="none" stroke="#000000" d="M317.1796,-606.6263C371.3209,-596.6993 348.5809,-504.6359 307,-457 229.127,-367.7873 120.873,-510.2127 43,-421 15.6729,-389.6936 1.4444,-327.5 43,-327.5"/>
<polygon fill="#000000" stroke="#000000" points="316.9634,-606.6448 306.6152,-603.0165 311.9817,-607.0724 307,-607.5 307,-607.5 307,-607.5 311.9817,-607.0724 307.3848,-611.9835 316.9634,-606.6448 316.9634,-606.6448"/>
<text text-anchor="start" x="313.602" y="-617.5" font-family="Arial" font-size="10.00" fill="#000000">FOREIGN KEY (application_id) REFERENCES applications (id)</text>
</g>
</g>
</svg>
