<?xml version="1.0" encoding="UTF-8" standalone="no"?>
<!DOCTYPE svg PUBLIC "-//W3C//DTD SVG 1.1//EN"
 "http://www.w3.org/Graphics/SVG/1.1/DTD/svg11.dtd">
<!-- Generated by graphviz version 2.40.1 (20161225.0304)
 -->
<!-- Title: owners Pages: 1 -->
<svg width="713pt" height="532pt"
 viewBox="0.00 0.00 713.00 532.00" xmlns="http://www.w3.org/2000/svg" xmlns:xlink="http://www.w3.org/1999/xlink">
<g id="graph0" class="graph" transform="scale(1 1) rotate(0) translate(4 528)">
<title>owners</title>
<polygon fill="#ffffff" stroke="transparent" points="-4,4 -4,-528 709,-528 709,4 -4,4"/>
<!-- owners -->
<g id="node1" class="node">
<title>owners</title>
<polygon fill="#efefef" stroke="transparent" points="240,-442.5 240,-477.5 409,-477.5 409,-442.5 240,-442.5"/>
<polygon fill="none" stroke="#000000" points="240,-442.5 240,-477.5 409,-477.5 409,-442.5 240,-442.5"/>
<text text-anchor="start" x="246.8706" y="-455.3" font-family="Arial Bold" font-size="18.00" fill="#000000">owners</text>
<text text-anchor="start" x="304.8756" y="-455.3" font-family="Arial" font-size="14.00" fill="#000000"> </text>
<text text-anchor="start" x="308.7662" y="-455.3" font-family="Arial" font-size="14.00" fill="#666666">[BASE TABLE]</text>
<polygon fill="none" stroke="#000000" points="240,-412.5 240,-442.5 409,-442.5 409,-412.5 240,-412.5"/>
<text text-anchor="start" x="247" y="-423.9" font-family="Arial" font-size="14.00" fill="#000000">user_id </text>
<text text-anchor="start" x="296.7882" y="-423.9" font-family="Arial" font-size="14.00" fill="#666666">[char(36)]</text>
<polygon fill="none" stroke="#000000" points="240,-382.5 240,-412.5 409,-412.5 409,-382.5 240,-382.5"/>
<text text-anchor="start" x="247" y="-393.9" font-family="Arial" font-size="14.00" fill="#000000">application_id </text>
<text text-anchor="start" x="336.4684" y="-393.9" font-family="Arial" font-size="14.00" fill="#666666">[char(36)]</text>
<polygon fill="none" stroke="#000000" stroke-width="3" points="238,-381.5 238,-479.5 410,-479.5 410,-381.5 238,-381.5"/>
</g>
<!-- users -->
<g id="node2" class="node">
<title>users</title>
<polygon fill="#efefef" stroke="transparent" points="102,-162.5 102,-197.5 257,-197.5 257,-162.5 102,-162.5"/>
<polygon fill="none" stroke="#000000" points="102,-162.5 102,-197.5 257,-197.5 257,-162.5 102,-162.5"/>
<text text-anchor="start" x="108.8708" y="-175.3" font-family="Arial Bold" font-size="18.00" fill="#000000">users</text>
<text text-anchor="start" x="152.8754" y="-175.3" font-family="Arial" font-size="14.00" fill="#000000"> </text>
<text text-anchor="start" x="156.766" y="-175.3" font-family="Arial" font-size="14.00" fill="#666666">[BASE TABLE]</text>
<polygon fill="none" stroke="#000000" points="102,-132.5 102,-162.5 257,-162.5 257,-132.5 102,-132.5"/>
<text text-anchor="start" x="109" y="-143.9" font-family="Arial" font-size="14.00" fill="#000000">id </text>
<text text-anchor="start" x="123.7798" y="-143.9" font-family="Arial" font-size="14.00" fill="#666666">[char(36)]</text>
<polygon fill="none" stroke="#000000" points="102,-102.5 102,-132.5 257,-132.5 257,-102.5 102,-102.5"/>
<text text-anchor="start" x="109" y="-113.9" font-family="Arial" font-size="14.00" fill="#000000">name </text>
<text text-anchor="start" x="147.899" y="-113.9" font-family="Arial" font-size="14.00" fill="#666666">[varchar(255)]</text>
</g>
<!-- owners&#45;&gt;users -->
<g id="edge1" class="edge">
<title>owners:user_id&#45;&gt;users:id</title>
<path fill="none" stroke="#000000" d="M229.7305,-426.7457C131.0945,-410.8035 377.8993,-147.5 257,-147.5"/>
<polygon fill="#000000" stroke="#000000" points="230.0269,-426.7674 239.6703,-431.9879 235.0134,-427.1337 240,-427.5 240,-427.5 240,-427.5 235.0134,-427.1337 240.3297,-423.0121 230.0269,-426.7674 230.0269,-426.7674"/>
<text text-anchor="start" x="6.945" y="-437.5" font-family="Arial" font-size="10.00" fill="#000000">FOREIGN KEY (user_id) REFERENCES users (id)</text>
</g>
<!-- applications -->
<g id="node3" class="node">
<title>applications</title>
<polygon fill="#efefef" stroke="transparent" points="361,-222.5 361,-257.5 581,-257.5 581,-222.5 361,-222.5"/>
<polygon fill="none" stroke="#000000" points="361,-222.5 361,-257.5 581,-257.5 581,-222.5 361,-222.5"/>
<text text-anchor="start" x="374.8621" y="-235.3" font-family="Arial Bold" font-size="18.00" fill="#000000">applications</text>
<text text-anchor="start" x="469.8841" y="-235.3" font-family="Arial" font-size="14.00" fill="#000000"> </text>
<text text-anchor="start" x="473.7747" y="-235.3" font-family="Arial" font-size="14.00" fill="#666666">[BASE TABLE]</text>
<polygon fill="none" stroke="#000000" points="361,-192.5 361,-222.5 581,-222.5 581,-192.5 361,-192.5"/>
<text text-anchor="start" x="368" y="-203.9" font-family="Arial" font-size="14.00" fill="#000000">id </text>
<text text-anchor="start" x="382.7798" y="-203.9" font-family="Arial" font-size="14.00" fill="#666666">[varchar(22)]</text>
<polygon fill="none" stroke="#000000" points="361,-162.5 361,-192.5 581,-192.5 581,-162.5 361,-162.5"/>
<text text-anchor="start" x="368" y="-173.9" font-family="Arial" font-size="14.00" fill="#000000">repository_id </text>
<text text-anchor="start" x="452.0112" y="-173.9" font-family="Arial" font-size="14.00" fill="#666666">[varchar(22)]</text>
<polygon fill="none" stroke="#000000" points="361,-132.5 361,-162.5 581,-162.5 581,-132.5 361,-132.5"/>
<text text-anchor="start" x="368" y="-143.9" font-family="Arial" font-size="14.00" fill="#000000">branch_name </text>
<text text-anchor="start" x="457.4726" y="-143.9" font-family="Arial" font-size="14.00" fill="#666666">[varchar(100)]</text>
<polygon fill="none" stroke="#000000" points="361,-102.5 361,-132.5 581,-132.5 581,-102.5 361,-102.5"/>
<text text-anchor="start" x="367.5764" y="-113.9" font-family="Arial" font-size="14.00" fill="#000000">build_type </text>
<text text-anchor="start" x="435.2664" y="-113.9" font-family="Arial" font-size="14.00" fill="#666666">[enum(&#39;image&#39;,&#39;static&#39;)]</text>
<polygon fill="none" stroke="#000000" points="361,-72.5 361,-102.5 581,-102.5 581,-72.5 361,-72.5"/>
<text text-anchor="start" x="368" y="-83.9" font-family="Arial" font-size="14.00" fill="#000000">created_at </text>
<text text-anchor="start" x="438.028" y="-83.9" font-family="Arial" font-size="14.00" fill="#666666">[datetime(6)]</text>
<polygon fill="none" stroke="#000000" points="361,-42.5 361,-72.5 581,-72.5 581,-42.5 361,-42.5"/>
<text text-anchor="start" x="368" y="-53.9" font-family="Arial" font-size="14.00" fill="#000000">updated_at </text>
<text text-anchor="start" x="441.9326" y="-53.9" font-family="Arial" font-size="14.00" fill="#666666">[datetime(6)]</text>
</g>
<!-- owners&#45;&gt;applications -->
<g id="edge2" class="edge">
<title>owners:application_id&#45;&gt;applications:id</title>
<path fill="none" stroke="#000000" d="M418.7162,-395.0167C431.3133,-386.4121 419.1462,-357.2923 409,-337 397.0743,-313.1486 372.9257,-324.8514 361,-301 342.4158,-263.8316 319.4444,-207.5 361,-207.5"/>
<polygon fill="#000000" stroke="#000000" points="418.6886,-395.0237 407.8857,-393.1401 413.8443,-396.2618 409,-397.5 409,-397.5 409,-397.5 413.8443,-396.2618 410.1143,-401.8599 418.6886,-395.0237 418.6886,-395.0237"/>
<text text-anchor="start" x="415.602" y="-407.5" font-family="Arial" font-size="10.00" fill="#000000">FOREIGN KEY (application_id) REFERENCES applications (id)</text>
</g>
</g>
</svg>
