<?xml version="1.0" encoding="UTF-8" standalone="no"?>
<!DOCTYPE svg PUBLIC "-//W3C//DTD SVG 1.1//EN"
 "http://www.w3.org/Graphics/SVG/1.1/DTD/svg11.dtd">
<!-- Generated by graphviz version 2.40.1 (20161225.0304)
 -->
<!-- Title: owners Pages: 1 -->
<svg width="713pt" height="622pt"
 viewBox="0.00 0.00 713.00 622.00" xmlns="http://www.w3.org/2000/svg" xmlns:xlink="http://www.w3.org/1999/xlink">
<g id="graph0" class="graph" transform="scale(1 1) rotate(0) translate(4 618)">
<title>owners</title>
<polygon fill="#ffffff" stroke="transparent" points="-4,4 -4,-618 709,-618 709,4 -4,4"/>
<!-- owners -->
<g id="node1" class="node">
<title>owners</title>
<polygon fill="#efefef" stroke="transparent" points="240,-532.5 240,-567.5 409,-567.5 409,-532.5 240,-532.5"/>
<polygon fill="none" stroke="#000000" points="240,-532.5 240,-567.5 409,-567.5 409,-532.5 240,-532.5"/>
<text text-anchor="start" x="246.8706" y="-545.3" font-family="Arial Bold" font-size="18.00" fill="#000000">owners</text>
<text text-anchor="start" x="304.8756" y="-545.3" font-family="Arial" font-size="14.00" fill="#000000"> </text>
<text text-anchor="start" x="308.7662" y="-545.3" font-family="Arial" font-size="14.00" fill="#666666">[BASE TABLE]</text>
<polygon fill="none" stroke="#000000" points="240,-502.5 240,-532.5 409,-532.5 409,-502.5 240,-502.5"/>
<text text-anchor="start" x="247" y="-513.9" font-family="Arial" font-size="14.00" fill="#000000">user_id </text>
<text text-anchor="start" x="296.7882" y="-513.9" font-family="Arial" font-size="14.00" fill="#666666">[char(36)]</text>
<polygon fill="none" stroke="#000000" points="240,-472.5 240,-502.5 409,-502.5 409,-472.5 240,-472.5"/>
<text text-anchor="start" x="247" y="-483.9" font-family="Arial" font-size="14.00" fill="#000000">application_id </text>
<text text-anchor="start" x="336.4684" y="-483.9" font-family="Arial" font-size="14.00" fill="#666666">[char(36)]</text>
<polygon fill="none" stroke="#000000" stroke-width="3" points="238,-471.5 238,-569.5 410,-569.5 410,-471.5 238,-471.5"/>
</g>
<!-- users -->
<g id="node2" class="node">
<title>users</title>
<polygon fill="#efefef" stroke="transparent" points="99,-207.5 99,-242.5 254,-242.5 254,-207.5 99,-207.5"/>
<polygon fill="none" stroke="#000000" points="99,-207.5 99,-242.5 254,-242.5 254,-207.5 99,-207.5"/>
<text text-anchor="start" x="105.8708" y="-220.3" font-family="Arial Bold" font-size="18.00" fill="#000000">users</text>
<text text-anchor="start" x="149.8754" y="-220.3" font-family="Arial" font-size="14.00" fill="#000000"> </text>
<text text-anchor="start" x="153.766" y="-220.3" font-family="Arial" font-size="14.00" fill="#666666">[BASE TABLE]</text>
<polygon fill="none" stroke="#000000" points="99,-177.5 99,-207.5 254,-207.5 254,-177.5 99,-177.5"/>
<text text-anchor="start" x="106" y="-188.9" font-family="Arial" font-size="14.00" fill="#000000">id </text>
<text text-anchor="start" x="120.7798" y="-188.9" font-family="Arial" font-size="14.00" fill="#666666">[char(36)]</text>
<polygon fill="none" stroke="#000000" points="99,-147.5 99,-177.5 254,-177.5 254,-147.5 99,-147.5"/>
<text text-anchor="start" x="106" y="-158.9" font-family="Arial" font-size="14.00" fill="#000000">name </text>
<text text-anchor="start" x="144.899" y="-158.9" font-family="Arial" font-size="14.00" fill="#666666">[varchar(255)]</text>
</g>
<!-- owners&#45;&gt;users -->
<g id="edge1" class="edge">
<title>owners:user_id&#45;&gt;users:id</title>
<path fill="none" stroke="#000000" d="M229.8385,-516.8821C110.5276,-501.2056 394.9075,-192.5 254,-192.5"/>
<polygon fill="#000000" stroke="#000000" points="230.0184,-516.8929 239.7268,-521.9917 235.0092,-517.1965 240,-517.5 240,-517.5 240,-517.5 235.0092,-517.1965 240.2732,-513.0083 230.0184,-516.8929 230.0184,-516.8929"/>
<text text-anchor="start" x="6.945" y="-527.5" font-family="Arial" font-size="10.00" fill="#000000">FOREIGN KEY (user_id) REFERENCES users (id)</text>
</g>
<!-- applications -->
<g id="node3" class="node">
<title>applications</title>
<polygon fill="#efefef" stroke="transparent" points="358,-312.5 358,-347.5 587,-347.5 587,-312.5 358,-312.5"/>
<polygon fill="none" stroke="#000000" points="358,-312.5 358,-347.5 587,-347.5 587,-312.5 358,-312.5"/>
<text text-anchor="start" x="376.3621" y="-325.3" font-family="Arial Bold" font-size="18.00" fill="#000000">applications</text>
<text text-anchor="start" x="471.3841" y="-325.3" font-family="Arial" font-size="14.00" fill="#000000"> </text>
<text text-anchor="start" x="475.2747" y="-325.3" font-family="Arial" font-size="14.00" fill="#666666">[BASE TABLE]</text>
<polygon fill="none" stroke="#000000" points="358,-282.5 358,-312.5 587,-312.5 587,-282.5 358,-282.5"/>
<text text-anchor="start" x="365" y="-293.9" font-family="Arial" font-size="14.00" fill="#000000">id </text>
<text text-anchor="start" x="379.7798" y="-293.9" font-family="Arial" font-size="14.00" fill="#666666">[varchar(22)]</text>
<polygon fill="none" stroke="#000000" points="358,-252.5 358,-282.5 587,-282.5 587,-252.5 358,-252.5"/>
<text text-anchor="start" x="365" y="-263.9" font-family="Arial" font-size="14.00" fill="#000000">repository_id </text>
<text text-anchor="start" x="449.0112" y="-263.9" font-family="Arial" font-size="14.00" fill="#666666">[varchar(22)]</text>
<polygon fill="none" stroke="#000000" points="358,-222.5 358,-252.5 587,-252.5 587,-222.5 358,-222.5"/>
<text text-anchor="start" x="365" y="-233.9" font-family="Arial" font-size="14.00" fill="#000000">branch_name </text>
<text text-anchor="start" x="454.4726" y="-233.9" font-family="Arial" font-size="14.00" fill="#666666">[varchar(100)]</text>
<polygon fill="none" stroke="#000000" points="358,-192.5 358,-222.5 587,-222.5 587,-192.5 358,-192.5"/>
<text text-anchor="start" x="364.8008" y="-203.9" font-family="Arial" font-size="14.00" fill="#000000">build_type </text>
<text text-anchor="start" x="432.4908" y="-203.9" font-family="Arial" font-size="14.00" fill="#666666">[enum(&#39;runtime&#39;,&#39;static&#39;)]</text>
<polygon fill="none" stroke="#000000" points="358,-162.5 358,-192.5 587,-192.5 587,-162.5 358,-162.5"/>
<text text-anchor="start" x="365" y="-173.9" font-family="Arial" font-size="14.00" fill="#000000">state </text>
<text text-anchor="start" x="399.237" y="-173.9" font-family="Arial" font-size="14.00" fill="#666666">[varchar(10)]</text>
<polygon fill="none" stroke="#000000" points="358,-132.5 358,-162.5 587,-162.5 587,-132.5 358,-132.5"/>
<text text-anchor="start" x="365" y="-143.9" font-family="Arial" font-size="14.00" fill="#000000">current_commit </text>
<text text-anchor="start" x="465.3338" y="-143.9" font-family="Arial" font-size="14.00" fill="#666666">[char(40)]</text>
<polygon fill="none" stroke="#000000" points="358,-102.5 358,-132.5 587,-132.5 587,-102.5 358,-102.5"/>
<text text-anchor="start" x="365" y="-113.9" font-family="Arial" font-size="14.00" fill="#000000">want_commit </text>
<text text-anchor="start" x="451.3366" y="-113.9" font-family="Arial" font-size="14.00" fill="#666666">[char(40)]</text>
<polygon fill="none" stroke="#000000" points="358,-72.5 358,-102.5 587,-102.5 587,-72.5 358,-72.5"/>
<text text-anchor="start" x="365" y="-83.9" font-family="Arial" font-size="14.00" fill="#000000">created_at </text>
<text text-anchor="start" x="435.028" y="-83.9" font-family="Arial" font-size="14.00" fill="#666666">[datetime(6)]</text>
<polygon fill="none" stroke="#000000" points="358,-42.5 358,-72.5 587,-72.5 587,-42.5 358,-42.5"/>
<text text-anchor="start" x="365" y="-53.9" font-family="Arial" font-size="14.00" fill="#000000">updated_at </text>
<text text-anchor="start" x="438.9326" y="-53.9" font-family="Arial" font-size="14.00" fill="#666666">[datetime(6)]</text>
</g>
<!-- owners&#45;&gt;applications -->
<g id="edge2" class="edge">
<title>owners:application_id&#45;&gt;applications:id</title>
<path fill="none" stroke="#000000" d="M418.7376,-485.0058C431.4044,-476.3658 419.4377,-447.1439 409,-427 396.2356,-402.3657 370.7644,-415.6343 358,-391 338.8818,-354.1034 316.4444,-297.5 358,-297.5"/>
<polygon fill="#000000" stroke="#000000" points="418.6873,-485.0186 407.8834,-483.1407 413.8436,-486.2593 409,-487.5 409,-487.5 409,-487.5 413.8436,-486.2593 410.1166,-491.8593 418.6873,-485.0186 418.6873,-485.0186"/>
<text text-anchor="start" x="415.602" y="-497.5" font-family="Arial" font-size="10.00" fill="#000000">FOREIGN KEY (application_id) REFERENCES applications (id)</text>
</g>
</g>
</svg>
