<?xml version="1.0" encoding="UTF-8" standalone="no"?>
<!DOCTYPE svg PUBLIC "-//W3C//DTD SVG 1.1//EN"
 "http://www.w3.org/Graphics/SVG/1.1/DTD/svg11.dtd">
<!-- Generated by graphviz version 2.40.1 (20161225.0304)
 -->
<!-- Title: owners Pages: 1 -->
<svg width="713pt" height="622pt"
 viewBox="0.00 0.00 713.00 622.00" xmlns="http://www.w3.org/2000/svg" xmlns:xlink="http://www.w3.org/1999/xlink">
<g id="graph0" class="graph" transform="scale(1 1) rotate(0) translate(4 618)">
<title>owners</title>
<polygon fill="#ffffff" stroke="transparent" points="-4,4 -4,-618 709,-618 709,4 -4,4"/>
<!-- owners -->
<g id="node1" class="node">
<title>owners</title>
<polygon fill="#efefef" stroke="transparent" points="240,-532.5 240,-567.5 409,-567.5 409,-532.5 240,-532.5"/>
<polygon fill="none" stroke="#000000" points="240,-532.5 240,-567.5 409,-567.5 409,-532.5 240,-532.5"/>
<text text-anchor="start" x="246.8706" y="-545.3" font-family="Arial Bold" font-size="18.00" fill="#000000">owners</text>
<text text-anchor="start" x="304.8756" y="-545.3" font-family="Arial" font-size="14.00" fill="#000000"> </text>
<text text-anchor="start" x="308.7662" y="-545.3" font-family="Arial" font-size="14.00" fill="#666666">[BASE TABLE]</text>
<polygon fill="none" stroke="#000000" points="240,-502.5 240,-532.5 409,-532.5 409,-502.5 240,-502.5"/>
<text text-anchor="start" x="247" y="-513.9" font-family="Arial" font-size="14.00" fill="#000000">user_id </text>
<text text-anchor="start" x="296.7882" y="-513.9" font-family="Arial" font-size="14.00" fill="#666666">[char(36)]</text>
<polygon fill="none" stroke="#000000" points="240,-472.5 240,-502.5 409,-502.5 409,-472.5 240,-472.5"/>
<text text-anchor="start" x="247" y="-483.9" font-family="Arial" font-size="14.00" fill="#000000">application_id </text>
<text text-anchor="start" x="336.4684" y="-483.9" font-family="Arial" font-size="14.00" fill="#666666">[char(36)]</text>
<polygon fill="none" stroke="#000000" stroke-width="3" points="238,-471.5 238,-569.5 410,-569.5 410,-471.5 238,-471.5"/>
</g>
<!-- users -->
<g id="node2" class="node">
<title>users</title>
<polygon fill="#efefef" stroke="transparent" points="102,-207.5 102,-242.5 257,-242.5 257,-207.5 102,-207.5"/>
<polygon fill="none" stroke="#000000" points="102,-207.5 102,-242.5 257,-242.5 257,-207.5 102,-207.5"/>
<text text-anchor="start" x="108.8708" y="-220.3" font-family="Arial Bold" font-size="18.00" fill="#000000">users</text>
<text text-anchor="start" x="152.8754" y="-220.3" font-family="Arial" font-size="14.00" fill="#000000"> </text>
<text text-anchor="start" x="156.766" y="-220.3" font-family="Arial" font-size="14.00" fill="#666666">[BASE TABLE]</text>
<polygon fill="none" stroke="#000000" points="102,-177.5 102,-207.5 257,-207.5 257,-177.5 102,-177.5"/>
<text text-anchor="start" x="109" y="-188.9" font-family="Arial" font-size="14.00" fill="#000000">id </text>
<text text-anchor="start" x="123.7798" y="-188.9" font-family="Arial" font-size="14.00" fill="#666666">[char(36)]</text>
<polygon fill="none" stroke="#000000" points="102,-147.5 102,-177.5 257,-177.5 257,-147.5 102,-147.5"/>
<text text-anchor="start" x="109" y="-158.9" font-family="Arial" font-size="14.00" fill="#000000">name </text>
<text text-anchor="start" x="147.899" y="-158.9" font-family="Arial" font-size="14.00" fill="#666666">[varchar(255)]</text>
</g>
<!-- owners&#45;&gt;users -->
<g id="edge1" class="edge">
<title>owners:user_id&#45;&gt;users:id</title>
<path fill="none" stroke="#000000" d="M229.8397,-516.8821C110.6209,-501.2056 397.9694,-192.5 257,-192.5"/>
<polygon fill="#000000" stroke="#000000" points="230.0184,-516.8929 239.7268,-521.9917 235.0092,-517.1964 240,-517.5 240,-517.5 240,-517.5 235.0092,-517.1964 240.2732,-513.0083 230.0184,-516.8929 230.0184,-516.8929"/>
<text text-anchor="start" x="6.945" y="-527.5" font-family="Arial" font-size="10.00" fill="#000000">FOREIGN KEY (user_id) REFERENCES users (id)</text>
</g>
<!-- applications -->
<g id="node3" class="node">
<title>applications</title>
<polygon fill="#efefef" stroke="transparent" points="361,-312.5 361,-347.5 581,-347.5 581,-312.5 361,-312.5"/>
<polygon fill="none" stroke="#000000" points="361,-312.5 361,-347.5 581,-347.5 581,-312.5 361,-312.5"/>
<text text-anchor="start" x="374.8621" y="-325.3" font-family="Arial Bold" font-size="18.00" fill="#000000">applications</text>
<text text-anchor="start" x="469.8841" y="-325.3" font-family="Arial" font-size="14.00" fill="#000000"> </text>
<text text-anchor="start" x="473.7747" y="-325.3" font-family="Arial" font-size="14.00" fill="#666666">[BASE TABLE]</text>
<polygon fill="none" stroke="#000000" points="361,-282.5 361,-312.5 581,-312.5 581,-282.5 361,-282.5"/>
<text text-anchor="start" x="368" y="-293.9" font-family="Arial" font-size="14.00" fill="#000000">id </text>
<text text-anchor="start" x="382.7798" y="-293.9" font-family="Arial" font-size="14.00" fill="#666666">[varchar(22)]</text>
<polygon fill="none" stroke="#000000" points="361,-252.5 361,-282.5 581,-282.5 581,-252.5 361,-252.5"/>
<text text-anchor="start" x="368" y="-263.9" font-family="Arial" font-size="14.00" fill="#000000">repository_id </text>
<text text-anchor="start" x="452.0112" y="-263.9" font-family="Arial" font-size="14.00" fill="#666666">[varchar(22)]</text>
<polygon fill="none" stroke="#000000" points="361,-222.5 361,-252.5 581,-252.5 581,-222.5 361,-222.5"/>
<text text-anchor="start" x="368" y="-233.9" font-family="Arial" font-size="14.00" fill="#000000">branch_name </text>
<text text-anchor="start" x="457.4726" y="-233.9" font-family="Arial" font-size="14.00" fill="#666666">[varchar(100)]</text>
<polygon fill="none" stroke="#000000" points="361,-192.5 361,-222.5 581,-222.5 581,-192.5 361,-192.5"/>
<text text-anchor="start" x="367.5764" y="-203.9" font-family="Arial" font-size="14.00" fill="#000000">build_type </text>
<text text-anchor="start" x="435.2664" y="-203.9" font-family="Arial" font-size="14.00" fill="#666666">[enum(&#39;image&#39;,&#39;static&#39;)]</text>
<polygon fill="none" stroke="#000000" points="361,-162.5 361,-192.5 581,-192.5 581,-162.5 361,-162.5"/>
<text text-anchor="start" x="368" y="-173.9" font-family="Arial" font-size="14.00" fill="#000000">state </text>
<text text-anchor="start" x="402.237" y="-173.9" font-family="Arial" font-size="14.00" fill="#666666">[varchar(10)]</text>
<polygon fill="none" stroke="#000000" points="361,-132.5 361,-162.5 581,-162.5 581,-132.5 361,-132.5"/>
<text text-anchor="start" x="368" y="-143.9" font-family="Arial" font-size="14.00" fill="#000000">current_commit </text>
<text text-anchor="start" x="468.3338" y="-143.9" font-family="Arial" font-size="14.00" fill="#666666">[char(40)]</text>
<polygon fill="none" stroke="#000000" points="361,-102.5 361,-132.5 581,-132.5 581,-102.5 361,-102.5"/>
<text text-anchor="start" x="368" y="-113.9" font-family="Arial" font-size="14.00" fill="#000000">want_commit </text>
<text text-anchor="start" x="454.3366" y="-113.9" font-family="Arial" font-size="14.00" fill="#666666">[char(40)]</text>
<polygon fill="none" stroke="#000000" points="361,-72.5 361,-102.5 581,-102.5 581,-72.5 361,-72.5"/>
<text text-anchor="start" x="368" y="-83.9" font-family="Arial" font-size="14.00" fill="#000000">created_at </text>
<text text-anchor="start" x="438.028" y="-83.9" font-family="Arial" font-size="14.00" fill="#666666">[datetime(6)]</text>
<polygon fill="none" stroke="#000000" points="361,-42.5 361,-72.5 581,-72.5 581,-42.5 361,-42.5"/>
<text text-anchor="start" x="368" y="-53.9" font-family="Arial" font-size="14.00" fill="#000000">updated_at </text>
<text text-anchor="start" x="441.9326" y="-53.9" font-family="Arial" font-size="14.00" fill="#666666">[datetime(6)]</text>
</g>
<!-- owners&#45;&gt;applications -->
<g id="edge2" class="edge">
<title>owners:application_id&#45;&gt;applications:id</title>
<path fill="none" stroke="#000000" d="M418.7162,-485.0167C431.3133,-476.4121 419.1462,-447.2923 409,-427 397.0743,-403.1486 372.9257,-414.8514 361,-391 342.4158,-353.8316 319.4444,-297.5 361,-297.5"/>
<polygon fill="#000000" stroke="#000000" points="418.6886,-485.0237 407.8857,-483.1401 413.8443,-486.2618 409,-487.5 409,-487.5 409,-487.5 413.8443,-486.2618 410.1143,-491.8599 418.6886,-485.0237 418.6886,-485.0237"/>
<text text-anchor="start" x="415.602" y="-497.5" font-family="Arial" font-size="10.00" fill="#000000">FOREIGN KEY (application_id) REFERENCES applications (id)</text>
</g>
</g>
</svg>
