<?xml version="1.0" encoding="UTF-8" standalone="no"?>
<!DOCTYPE svg PUBLIC "-//W3C//DTD SVG 1.1//EN"
 "http://www.w3.org/Graphics/SVG/1.1/DTD/svg11.dtd">
<!-- Generated by graphviz version 2.40.1 (20161225.0304)
 -->
<!-- Title: repositories Pages: 1 -->
<svg width="1043pt" height="682pt"
 viewBox="0.00 0.00 1043.00 682.00" xmlns="http://www.w3.org/2000/svg" xmlns:xlink="http://www.w3.org/1999/xlink">
<g id="graph0" class="graph" transform="scale(1 1) rotate(0) translate(4 678)">
<title>repositories</title>
<polygon fill="#ffffff" stroke="transparent" points="-4,4 -4,-678 1039,-678 1039,4 -4,4"/>
<!-- repositories -->
<g id="node1" class="node">
<title>repositories</title>
<polygon fill="#efefef" stroke="transparent" points="411,-135.5 411,-170.5 615,-170.5 615,-135.5 411,-135.5"/>
<polygon fill="none" stroke="#000000" points="411,-135.5 411,-170.5 615,-170.5 615,-135.5 411,-135.5"/>
<text text-anchor="start" x="417.8701" y="-148.3" font-family="Arial Bold" font-size="18.00" fill="#000000">repositories</text>
<text text-anchor="start" x="510.8761" y="-148.3" font-family="Arial" font-size="14.00" fill="#000000"> </text>
<text text-anchor="start" x="514.7667" y="-148.3" font-family="Arial" font-size="14.00" fill="#666666">[BASE TABLE]</text>
<polygon fill="none" stroke="#000000" points="411,-105.5 411,-135.5 615,-135.5 615,-105.5 411,-105.5"/>
<text text-anchor="start" x="418" y="-116.9" font-family="Arial" font-size="14.00" fill="#000000">id </text>
<text text-anchor="start" x="432.7798" y="-116.9" font-family="Arial" font-size="14.00" fill="#666666">[char(22)]</text>
<polygon fill="none" stroke="#000000" points="411,-75.5 411,-105.5 615,-105.5 615,-75.5 411,-75.5"/>
<text text-anchor="start" x="418" y="-86.9" font-family="Arial" font-size="14.00" fill="#000000">name </text>
<text text-anchor="start" x="456.899" y="-86.9" font-family="Arial" font-size="14.00" fill="#666666">[varchar(256)]</text>
<polygon fill="none" stroke="#000000" points="411,-45.5 411,-75.5 615,-75.5 615,-45.5 411,-45.5"/>
<text text-anchor="start" x="418" y="-56.9" font-family="Arial" font-size="14.00" fill="#000000">url </text>
<text text-anchor="start" x="437.4404" y="-56.9" font-family="Arial" font-size="14.00" fill="#666666">[varchar(256)]</text>
<polygon fill="none" stroke="#000000" stroke-width="3" points="409.5,-44.5 409.5,-172.5 616.5,-172.5 616.5,-44.5 409.5,-44.5"/>
</g>
<!-- applications -->
<g id="node2" class="node">
<title>applications</title>
<polygon fill="#efefef" stroke="transparent" points="62,-595.5 62,-630.5 291,-630.5 291,-595.5 62,-595.5"/>
<polygon fill="none" stroke="#000000" points="62,-595.5 62,-630.5 291,-630.5 291,-595.5 62,-595.5"/>
<text text-anchor="start" x="80.3621" y="-608.3" font-family="Arial Bold" font-size="18.00" fill="#000000">applications</text>
<text text-anchor="start" x="175.3841" y="-608.3" font-family="Arial" font-size="14.00" fill="#000000"> </text>
<text text-anchor="start" x="179.2747" y="-608.3" font-family="Arial" font-size="14.00" fill="#666666">[BASE TABLE]</text>
<polygon fill="none" stroke="#000000" points="62,-565.5 62,-595.5 291,-595.5 291,-565.5 62,-565.5"/>
<text text-anchor="start" x="69" y="-576.9" font-family="Arial" font-size="14.00" fill="#000000">id </text>
<text text-anchor="start" x="83.7798" y="-576.9" font-family="Arial" font-size="14.00" fill="#666666">[char(22)]</text>
<polygon fill="none" stroke="#000000" points="62,-535.5 62,-565.5 291,-565.5 291,-535.5 62,-535.5"/>
<text text-anchor="start" x="69" y="-546.9" font-family="Arial" font-size="14.00" fill="#000000">name </text>
<text text-anchor="start" x="107.899" y="-546.9" font-family="Arial" font-size="14.00" fill="#666666">[varchar(100)]</text>
<polygon fill="none" stroke="#000000" points="62,-505.5 62,-535.5 291,-535.5 291,-505.5 62,-505.5"/>
<text text-anchor="start" x="69" y="-516.9" font-family="Arial" font-size="14.00" fill="#000000">repository_id </text>
<text text-anchor="start" x="153.0112" y="-516.9" font-family="Arial" font-size="14.00" fill="#666666">[varchar(22)]</text>
<polygon fill="none" stroke="#000000" points="62,-475.5 62,-505.5 291,-505.5 291,-475.5 62,-475.5"/>
<text text-anchor="start" x="69" y="-486.9" font-family="Arial" font-size="14.00" fill="#000000">ref_name </text>
<text text-anchor="start" x="132.0154" y="-486.9" font-family="Arial" font-size="14.00" fill="#666666">[varchar(100)]</text>
<polygon fill="none" stroke="#000000" points="62,-445.5 62,-475.5 291,-475.5 291,-445.5 62,-445.5"/>
<text text-anchor="start" x="68.8008" y="-456.9" font-family="Arial" font-size="14.00" fill="#000000">build_type </text>
<text text-anchor="start" x="136.4908" y="-456.9" font-family="Arial" font-size="14.00" fill="#666666">[enum(&#39;runtime&#39;,&#39;static&#39;)]</text>
<polygon fill="none" stroke="#000000" points="62,-415.5 62,-445.5 291,-445.5 291,-415.5 62,-415.5"/>
<text text-anchor="start" x="69" y="-426.9" font-family="Arial" font-size="14.00" fill="#000000">running </text>
<text text-anchor="start" x="119.5708" y="-426.9" font-family="Arial" font-size="14.00" fill="#666666">[tinyint(1)]</text>
<polygon fill="none" stroke="#000000" points="62,-385.5 62,-415.5 291,-415.5 291,-385.5 62,-385.5"/>
<text text-anchor="start" x="69" y="-396.9" font-family="Arial" font-size="14.00" fill="#000000">current_commit </text>
<text text-anchor="start" x="169.3338" y="-396.9" font-family="Arial" font-size="14.00" fill="#666666">[char(40)]</text>
<polygon fill="none" stroke="#000000" points="62,-355.5 62,-385.5 291,-385.5 291,-355.5 62,-355.5"/>
<text text-anchor="start" x="69" y="-366.9" font-family="Arial" font-size="14.00" fill="#000000">want_commit </text>
<text text-anchor="start" x="155.3366" y="-366.9" font-family="Arial" font-size="14.00" fill="#666666">[char(40)]</text>
<polygon fill="none" stroke="#000000" points="62,-325.5 62,-355.5 291,-355.5 291,-325.5 62,-325.5"/>
<text text-anchor="start" x="69" y="-336.9" font-family="Arial" font-size="14.00" fill="#000000">created_at </text>
<text text-anchor="start" x="139.028" y="-336.9" font-family="Arial" font-size="14.00" fill="#666666">[datetime(6)]</text>
<polygon fill="none" stroke="#000000" points="62,-295.5 62,-325.5 291,-325.5 291,-295.5 62,-295.5"/>
<text text-anchor="start" x="69" y="-306.9" font-family="Arial" font-size="14.00" fill="#000000">updated_at </text>
<text text-anchor="start" x="142.9326" y="-306.9" font-family="Arial" font-size="14.00" fill="#666666">[datetime(6)]</text>
</g>
<!-- applications&#45;&gt;repositories -->
<g id="edge1" class="edge">
<title>applications:repository_id&#45;&gt;repositories:id</title>
<path fill="none" stroke="#000000" d="M301.0344,-518.2675C348.1393,-495.5914 323.3492,-306.7048 342,-253 363.7819,-190.2792 344.6046,-120.5 411,-120.5"/>
<polygon fill="#000000" stroke="#000000" points="300.7613,-518.3282 290.0227,-516.1074 295.8807,-519.4141 291,-520.5 291,-520.5 291,-520.5 295.8807,-519.4141 291.9773,-524.8926 300.7613,-518.3282 300.7613,-518.3282"/>
<text text-anchor="start" x="7.111" y="-530.5" font-family="Arial" font-size="10.00" fill="#000000">FOREIGN KEY (repository_id) REFERENCES repositories (id)</text>
</g>
<!-- repository_auth -->
<g id="node3" class="node">
<title>repository_auth</title>
<polygon fill="#efefef" stroke="transparent" points="395,-520.5 395,-555.5 630,-555.5 630,-520.5 395,-520.5"/>
<polygon fill="none" stroke="#000000" points="395,-520.5 395,-555.5 630,-555.5 630,-520.5 395,-520.5"/>
<text text-anchor="start" x="401.8568" y="-533.3" font-family="Arial Bold" font-size="18.00" fill="#000000">repository_auth</text>
<text text-anchor="start" x="525.8894" y="-533.3" font-family="Arial" font-size="14.00" fill="#000000"> </text>
<text text-anchor="start" x="529.78" y="-533.3" font-family="Arial" font-size="14.00" fill="#666666">[BASE TABLE]</text>
<polygon fill="none" stroke="#000000" points="395,-490.5 395,-520.5 630,-520.5 630,-490.5 395,-490.5"/>
<text text-anchor="start" x="402" y="-501.9" font-family="Arial" font-size="14.00" fill="#000000">repository_id </text>
<text text-anchor="start" x="486.0112" y="-501.9" font-family="Arial" font-size="14.00" fill="#666666">[char(22)]</text>
<polygon fill="none" stroke="#000000" points="395,-460.5 395,-490.5 630,-490.5 630,-460.5 395,-460.5"/>
<text text-anchor="start" x="402" y="-471.9" font-family="Arial" font-size="14.00" fill="#000000">method </text>
<text text-anchor="start" x="452.5722" y="-471.9" font-family="Arial" font-size="14.00" fill="#666666">[enum(&#39;basic&#39;,&#39;ssh&#39;)]</text>
<polygon fill="none" stroke="#000000" points="395,-430.5 395,-460.5 630,-460.5 630,-430.5 395,-430.5"/>
<text text-anchor="start" x="402" y="-441.9" font-family="Arial" font-size="14.00" fill="#000000">username </text>
<text text-anchor="start" x="468.1248" y="-441.9" font-family="Arial" font-size="14.00" fill="#666666">[varchar(256)]</text>
<polygon fill="none" stroke="#000000" points="395,-400.5 395,-430.5 630,-430.5 630,-400.5 395,-400.5"/>
<text text-anchor="start" x="402" y="-411.9" font-family="Arial" font-size="14.00" fill="#000000">password </text>
<text text-anchor="start" x="465.7882" y="-411.9" font-family="Arial" font-size="14.00" fill="#666666">[varchar(256)]</text>
<polygon fill="none" stroke="#000000" points="395,-370.5 395,-400.5 630,-400.5 630,-370.5 395,-370.5"/>
<text text-anchor="start" x="402" y="-381.9" font-family="Arial" font-size="14.00" fill="#000000">ssh_key </text>
<text text-anchor="start" x="457.2384" y="-381.9" font-family="Arial" font-size="14.00" fill="#666666">[text]</text>
</g>
<!-- repository_auth&#45;&gt;repositories -->
<g id="edge2" class="edge">
<title>repository_auth:repository_id&#45;&gt;repositories:id</title>
<path fill="none" stroke="#000000" d="M640.3375,-504.7888C705.356,-495.2559 669.3553,-392.069 630,-328 572.8851,-235.0191 468.1149,-309.9809 411,-217 388.5517,-180.4551 368.1111,-120.5 411,-120.5"/>
<polygon fill="#000000" stroke="#000000" points="639.9764,-504.8136 629.6911,-501.0106 634.9882,-505.1568 630,-505.5 630,-505.5 630,-505.5 634.9882,-505.1568 630.3089,-509.9894 639.9764,-504.8136 639.9764,-504.8136"/>
<text text-anchor="start" x="637.111" y="-515.5" font-family="Arial" font-size="10.00" fill="#000000">FOREIGN KEY (repository_id) REFERENCES repositories (id)</text>
</g>
<!-- repository_owners -->
<g id="node4" class="node">
<title>repository_owners</title>
<polygon fill="#efefef" stroke="transparent" points="734,-475.5 734,-510.5 992,-510.5 992,-475.5 734,-475.5"/>
<polygon fill="none" stroke="#000000" points="734,-475.5 734,-510.5 992,-510.5 992,-475.5 734,-475.5"/>
<text text-anchor="start" x="740.8647" y="-488.3" font-family="Arial Bold" font-size="18.00" fill="#000000">repository_owners</text>
<text text-anchor="start" x="887.8815" y="-488.3" font-family="Arial" font-size="14.00" fill="#000000"> </text>
<text text-anchor="start" x="891.7721" y="-488.3" font-family="Arial" font-size="14.00" fill="#666666">[BASE TABLE]</text>
<polygon fill="none" stroke="#000000" points="734,-445.5 734,-475.5 992,-475.5 992,-445.5 734,-445.5"/>
<text text-anchor="start" x="741" y="-456.9" font-family="Arial" font-size="14.00" fill="#000000">user_id </text>
<text text-anchor="start" x="790.7882" y="-456.9" font-family="Arial" font-size="14.00" fill="#666666">[char(22)]</text>
<polygon fill="none" stroke="#000000" points="734,-415.5 734,-445.5 992,-445.5 992,-415.5 734,-415.5"/>
<text text-anchor="start" x="741" y="-426.9" font-family="Arial" font-size="14.00" fill="#000000">repository_id </text>
<text text-anchor="start" x="825.0112" y="-426.9" font-family="Arial" font-size="14.00" fill="#666666">[char(22)]</text>
</g>
<!-- repository_owners&#45;&gt;repositories -->
<g id="edge3" class="edge">
<title>repository_owners:repository_id&#45;&gt;repositories:id</title>
<path fill="none" stroke="#000000" d="M723.764,-429.8996C657.0422,-421.4705 710.8717,-326.0104 682,-253 657.7332,-191.6344 680.9895,-120.5 615,-120.5"/>
<polygon fill="#000000" stroke="#000000" points="724.0172,-429.9144 733.7365,-434.9923 729.0086,-430.2072 734,-430.5 734,-430.5 734,-430.5 729.0086,-430.2072 734.2635,-426.0077 724.0172,-429.9144 724.0172,-429.9144"/>
<text text-anchor="start" x="741.111" y="-440.5" font-family="Arial" font-size="10.00" fill="#000000">FOREIGN KEY (repository_id) REFERENCES repositories (id)</text>
</g>
</g>
</svg>
