<?xml version="1.0" encoding="UTF-8" standalone="no"?>
<!DOCTYPE svg PUBLIC "-//W3C//DTD SVG 1.1//EN"
 "http://www.w3.org/Graphics/SVG/1.1/DTD/svg11.dtd">
<!-- Generated by graphviz version 2.40.1 (20161225.0304)
 -->
<!-- Title: repository_owners Pages: 1 -->
<svg width="797pt" height="442pt"
 viewBox="0.00 0.00 797.00 442.00" xmlns="http://www.w3.org/2000/svg" xmlns:xlink="http://www.w3.org/1999/xlink">
<g id="graph0" class="graph" transform="scale(1 1) rotate(0) translate(4 438)">
<title>repository_owners</title>
<polygon fill="#ffffff" stroke="transparent" points="-4,4 -4,-438 793,-438 793,4 -4,4"/>
<!-- repository_owners -->
<g id="node1" class="node">
<title>repository_owners</title>
<polygon fill="#efefef" stroke="transparent" points="240,-352.5 240,-387.5 498,-387.5 498,-352.5 240,-352.5"/>
<polygon fill="none" stroke="#000000" points="240,-352.5 240,-387.5 498,-387.5 498,-352.5 240,-352.5"/>
<text text-anchor="start" x="246.8647" y="-365.3" font-family="Arial Bold" font-size="18.00" fill="#000000">repository_owners</text>
<text text-anchor="start" x="393.8815" y="-365.3" font-family="Arial" font-size="14.00" fill="#000000"> </text>
<text text-anchor="start" x="397.7721" y="-365.3" font-family="Arial" font-size="14.00" fill="#666666">[BASE TABLE]</text>
<polygon fill="none" stroke="#000000" points="240,-322.5 240,-352.5 498,-352.5 498,-322.5 240,-322.5"/>
<text text-anchor="start" x="247" y="-333.9" font-family="Arial" font-size="14.00" fill="#000000">user_id </text>
<text text-anchor="start" x="296.7882" y="-333.9" font-family="Arial" font-size="14.00" fill="#666666">[char(22)]</text>
<polygon fill="none" stroke="#000000" points="240,-292.5 240,-322.5 498,-322.5 498,-292.5 240,-292.5"/>
<text text-anchor="start" x="247" y="-303.9" font-family="Arial" font-size="14.00" fill="#000000">repository_id </text>
<text text-anchor="start" x="331.0112" y="-303.9" font-family="Arial" font-size="14.00" fill="#666666">[char(22)]</text>
<polygon fill="none" stroke="#000000" stroke-width="3" points="238.5,-291.5 238.5,-389.5 499.5,-389.5 499.5,-291.5 238.5,-291.5"/>
</g>
<!-- users -->
<g id="node2" class="node">
<title>users</title>
<polygon fill="#efefef" stroke="transparent" points="150,-117.5 150,-152.5 305,-152.5 305,-117.5 150,-117.5"/>
<polygon fill="none" stroke="#000000" points="150,-117.5 150,-152.5 305,-152.5 305,-117.5 150,-117.5"/>
<text text-anchor="start" x="156.8708" y="-130.3" font-family="Arial Bold" font-size="18.00" fill="#000000">users</text>
<text text-anchor="start" x="200.8754" y="-130.3" font-family="Arial" font-size="14.00" fill="#000000"> </text>
<text text-anchor="start" x="204.766" y="-130.3" font-family="Arial" font-size="14.00" fill="#666666">[BASE TABLE]</text>
<polygon fill="none" stroke="#000000" points="150,-87.5 150,-117.5 305,-117.5 305,-87.5 150,-87.5"/>
<text text-anchor="start" x="157" y="-98.9" font-family="Arial" font-size="14.00" fill="#000000">id </text>
<text text-anchor="start" x="171.7798" y="-98.9" font-family="Arial" font-size="14.00" fill="#666666">[char(22)]</text>
<polygon fill="none" stroke="#000000" points="150,-57.5 150,-87.5 305,-87.5 305,-57.5 150,-57.5"/>
<text text-anchor="start" x="157" y="-68.9" font-family="Arial" font-size="14.00" fill="#000000">name </text>
<text text-anchor="start" x="195.899" y="-68.9" font-family="Arial" font-size="14.00" fill="#666666">[varchar(255)]</text>
</g>
<!-- repository_owners&#45;&gt;users -->
<g id="edge1" class="edge">
<title>repository_owners:user_id&#45;&gt;users:id</title>
<path fill="none" stroke="#000000" d="M229.9511,-336.0131C204.1492,-327.0618 224.1233,-279.6375 240,-247 256.0628,-213.9798 288.9372,-229.0202 305,-196 323.1782,-158.6313 346.5556,-102.5 305,-102.5"/>
<polygon fill="#000000" stroke="#000000" points="230.1077,-336.0362 239.3413,-341.9515 235.0539,-336.7681 240,-337.5 240,-337.5 240,-337.5 235.0539,-336.7681 240.6587,-333.0485 230.1077,-336.0362 230.1077,-336.0362"/>
<text text-anchor="start" x="6.945" y="-347.5" font-family="Arial" font-size="10.00" fill="#000000">FOREIGN KEY (user_id) REFERENCES users (id)</text>
</g>
<!-- repositories -->
<g id="node3" class="node">
<title>repositories</title>
<polygon fill="#efefef" stroke="transparent" points="409,-132.5 409,-167.5 613,-167.5 613,-132.5 409,-132.5"/>
<polygon fill="none" stroke="#000000" points="409,-132.5 409,-167.5 613,-167.5 613,-132.5 409,-132.5"/>
<text text-anchor="start" x="415.8701" y="-145.3" font-family="Arial Bold" font-size="18.00" fill="#000000">repositories</text>
<text text-anchor="start" x="508.8761" y="-145.3" font-family="Arial" font-size="14.00" fill="#000000"> </text>
<text text-anchor="start" x="512.7667" y="-145.3" font-family="Arial" font-size="14.00" fill="#666666">[BASE TABLE]</text>
<polygon fill="none" stroke="#000000" points="409,-102.5 409,-132.5 613,-132.5 613,-102.5 409,-102.5"/>
<text text-anchor="start" x="416" y="-113.9" font-family="Arial" font-size="14.00" fill="#000000">id </text>
<text text-anchor="start" x="430.7798" y="-113.9" font-family="Arial" font-size="14.00" fill="#666666">[char(22)]</text>
<polygon fill="none" stroke="#000000" points="409,-72.5 409,-102.5 613,-102.5 613,-72.5 409,-72.5"/>
<text text-anchor="start" x="416" y="-83.9" font-family="Arial" font-size="14.00" fill="#000000">name </text>
<text text-anchor="start" x="454.899" y="-83.9" font-family="Arial" font-size="14.00" fill="#666666">[varchar(256)]</text>
<polygon fill="none" stroke="#000000" points="409,-42.5 409,-72.5 613,-72.5 613,-42.5 409,-42.5"/>
<text text-anchor="start" x="416" y="-53.9" font-family="Arial" font-size="14.00" fill="#000000">url </text>
<text text-anchor="start" x="435.4404" y="-53.9" font-family="Arial" font-size="14.00" fill="#666666">[varchar(256)]</text>
</g>
<!-- repository_owners&#45;&gt;repositories -->
<g id="edge2" class="edge">
<title>repository_owners:repository_id&#45;&gt;repositories:id</title>
<path fill="none" stroke="#000000" d="M507.902,-304.9082C521.106,-295.9493 510.6829,-265.8113 498,-247 474.1469,-211.621 432.8531,-246.379 409,-211 385.7694,-176.5442 367.4444,-117.5 409,-117.5"/>
<polygon fill="#000000" stroke="#000000" points="507.6741,-304.9678 496.8605,-303.1467 502.8371,-306.2339 498,-307.5 498,-307.5 498,-307.5 502.8371,-306.2339 499.1395,-311.8533 507.6741,-304.9678 507.6741,-304.9678"/>
<text text-anchor="start" x="505.111" y="-317.5" font-family="Arial" font-size="10.00" fill="#000000">FOREIGN KEY (repository_id) REFERENCES repositories (id)</text>
</g>
</g>
</svg>
