<?xml version="1.0" encoding="UTF-8" standalone="no"?>
<!DOCTYPE svg PUBLIC "-//W3C//DTD SVG 1.1//EN"
 "http://www.w3.org/Graphics/SVG/1.1/DTD/svg11.dtd">
<!-- Generated by graphviz version 2.40.1 (20161225.0304)
 -->
<!-- Title: repositories Pages: 1 -->
<svg width="1106pt" height="682pt"
 viewBox="0.00 0.00 1106.00 682.00" xmlns="http://www.w3.org/2000/svg" xmlns:xlink="http://www.w3.org/1999/xlink">
<g id="graph0" class="graph" transform="scale(1 1) rotate(0) translate(4 678)">
<title>repositories</title>
<polygon fill="#ffffff" stroke="transparent" points="-4,4 -4,-678 1102,-678 1102,4 -4,4"/>
<!-- repositories -->
<g id="node1" class="node">
<title>repositories</title>
<polygon fill="#efefef" stroke="transparent" points="474,-135.5 474,-170.5 678,-170.5 678,-135.5 474,-135.5"/>
<polygon fill="none" stroke="#000000" points="474,-135.5 474,-170.5 678,-170.5 678,-135.5 474,-135.5"/>
<text text-anchor="start" x="480.8701" y="-148.3" font-family="Arial Bold" font-size="18.00" fill="#000000">repositories</text>
<text text-anchor="start" x="573.8761" y="-148.3" font-family="Arial" font-size="14.00" fill="#000000"> </text>
<text text-anchor="start" x="577.7667" y="-148.3" font-family="Arial" font-size="14.00" fill="#666666">[BASE TABLE]</text>
<polygon fill="none" stroke="#000000" points="474,-105.5 474,-135.5 678,-135.5 678,-105.5 474,-105.5"/>
<text text-anchor="start" x="481" y="-116.9" font-family="Arial" font-size="14.00" fill="#000000">id </text>
<text text-anchor="start" x="495.7798" y="-116.9" font-family="Arial" font-size="14.00" fill="#666666">[char(22)]</text>
<polygon fill="none" stroke="#000000" points="474,-75.5 474,-105.5 678,-105.5 678,-75.5 474,-75.5"/>
<text text-anchor="start" x="481" y="-86.9" font-family="Arial" font-size="14.00" fill="#000000">name </text>
<text text-anchor="start" x="519.899" y="-86.9" font-family="Arial" font-size="14.00" fill="#666666">[varchar(256)]</text>
<polygon fill="none" stroke="#000000" points="474,-45.5 474,-75.5 678,-75.5 678,-45.5 474,-45.5"/>
<text text-anchor="start" x="481" y="-56.9" font-family="Arial" font-size="14.00" fill="#000000">url </text>
<text text-anchor="start" x="500.4404" y="-56.9" font-family="Arial" font-size="14.00" fill="#666666">[varchar(256)]</text>
<polygon fill="none" stroke="#000000" stroke-width="3" points="472.5,-44.5 472.5,-172.5 679.5,-172.5 679.5,-44.5 472.5,-44.5"/>
</g>
<!-- applications -->
<g id="node2" class="node">
<title>applications</title>
<polygon fill="#efefef" stroke="transparent" points="43,-595.5 43,-630.5 353,-630.5 353,-595.5 43,-595.5"/>
<polygon fill="none" stroke="#000000" points="43,-595.5 43,-630.5 353,-630.5 353,-595.5 43,-595.5"/>
<text text-anchor="start" x="101.8621" y="-608.3" font-family="Arial Bold" font-size="18.00" fill="#000000">applications</text>
<text text-anchor="start" x="196.8841" y="-608.3" font-family="Arial" font-size="14.00" fill="#000000"> </text>
<text text-anchor="start" x="200.7747" y="-608.3" font-family="Arial" font-size="14.00" fill="#666666">[BASE TABLE]</text>
<polygon fill="none" stroke="#000000" points="43,-565.5 43,-595.5 353,-595.5 353,-565.5 43,-565.5"/>
<text text-anchor="start" x="50" y="-576.9" font-family="Arial" font-size="14.00" fill="#000000">id </text>
<text text-anchor="start" x="64.7798" y="-576.9" font-family="Arial" font-size="14.00" fill="#666666">[char(22)]</text>
<polygon fill="none" stroke="#000000" points="43,-535.5 43,-565.5 353,-565.5 353,-535.5 43,-535.5"/>
<text text-anchor="start" x="50" y="-546.9" font-family="Arial" font-size="14.00" fill="#000000">name </text>
<text text-anchor="start" x="88.899" y="-546.9" font-family="Arial" font-size="14.00" fill="#666666">[varchar(100)]</text>
<polygon fill="none" stroke="#000000" points="43,-505.5 43,-535.5 353,-535.5 353,-505.5 43,-505.5"/>
<text text-anchor="start" x="50" y="-516.9" font-family="Arial" font-size="14.00" fill="#000000">repository_id </text>
<text text-anchor="start" x="134.0112" y="-516.9" font-family="Arial" font-size="14.00" fill="#666666">[varchar(22)]</text>
<polygon fill="none" stroke="#000000" points="43,-475.5 43,-505.5 353,-505.5 353,-475.5 43,-475.5"/>
<text text-anchor="start" x="50" y="-486.9" font-family="Arial" font-size="14.00" fill="#000000">ref_name </text>
<text text-anchor="start" x="113.0154" y="-486.9" font-family="Arial" font-size="14.00" fill="#666666">[varchar(100)]</text>
<polygon fill="none" stroke="#000000" points="43,-445.5 43,-475.5 353,-475.5 353,-445.5 43,-445.5"/>
<text text-anchor="start" x="50" y="-456.9" font-family="Arial" font-size="14.00" fill="#000000">build_type </text>
<text text-anchor="start" x="117.69" y="-456.9" font-family="Arial" font-size="14.00" fill="#666666">[enum(&#39;runtime&#39;,&#39;static&#39;)]</text>
<polygon fill="none" stroke="#000000" points="43,-415.5 43,-445.5 353,-445.5 353,-415.5 43,-415.5"/>
<text text-anchor="start" x="49.88" y="-426.9" font-family="Arial" font-size="14.00" fill="#000000">state </text>
<text text-anchor="start" x="84.117" y="-426.9" font-family="Arial" font-size="14.00" fill="#666666">[enum(&#39;idle&#39;,&#39;deploying&#39;,&#39;running&#39;,&#39;errored&#39;)]</text>
<polygon fill="none" stroke="#000000" points="43,-385.5 43,-415.5 353,-415.5 353,-385.5 43,-385.5"/>
<text text-anchor="start" x="50" y="-396.9" font-family="Arial" font-size="14.00" fill="#000000">current_commit </text>
<text text-anchor="start" x="150.3338" y="-396.9" font-family="Arial" font-size="14.00" fill="#666666">[char(40)]</text>
<polygon fill="none" stroke="#000000" points="43,-355.5 43,-385.5 353,-385.5 353,-355.5 43,-355.5"/>
<text text-anchor="start" x="50" y="-366.9" font-family="Arial" font-size="14.00" fill="#000000">want_commit </text>
<text text-anchor="start" x="136.3366" y="-366.9" font-family="Arial" font-size="14.00" fill="#666666">[char(40)]</text>
<polygon fill="none" stroke="#000000" points="43,-325.5 43,-355.5 353,-355.5 353,-325.5 43,-325.5"/>
<text text-anchor="start" x="50" y="-336.9" font-family="Arial" font-size="14.00" fill="#000000">created_at </text>
<text text-anchor="start" x="120.028" y="-336.9" font-family="Arial" font-size="14.00" fill="#666666">[datetime(6)]</text>
<polygon fill="none" stroke="#000000" points="43,-295.5 43,-325.5 353,-325.5 353,-295.5 43,-295.5"/>
<text text-anchor="start" x="50" y="-306.9" font-family="Arial" font-size="14.00" fill="#000000">updated_at </text>
<text text-anchor="start" x="123.9326" y="-306.9" font-family="Arial" font-size="14.00" fill="#666666">[datetime(6)]</text>
</g>
<!-- applications&#45;&gt;repositories -->
<g id="edge1" class="edge">
<title>applications:repository_id&#45;&gt;repositories:id</title>
<path fill="none" stroke="#000000" d="M363.0505,-518.2675C410.2805,-495.5918 386.2394,-306.7083 405,-253 426.8949,-190.3186 407.6046,-120.5 474,-120.5"/>
<polygon fill="#000000" stroke="#000000" points="362.7621,-518.3315 352.0242,-516.1071 357.881,-519.4157 353,-520.5 353,-520.5 353,-520.5 357.881,-519.4157 353.9758,-524.8929 362.7621,-518.3315 362.7621,-518.3315"/>
<text text-anchor="start" x="360.111" y="-530.5" font-family="Arial" font-size="10.00" fill="#000000">FOREIGN KEY (repository_id) REFERENCES repositories (id)</text>
</g>
<!-- repository_auth -->
<g id="node3" class="node">
<title>repository_auth</title>
<polygon fill="#efefef" stroke="transparent" points="458,-520.5 458,-555.5 693,-555.5 693,-520.5 458,-520.5"/>
<polygon fill="none" stroke="#000000" points="458,-520.5 458,-555.5 693,-555.5 693,-520.5 458,-520.5"/>
<text text-anchor="start" x="464.8568" y="-533.3" font-family="Arial Bold" font-size="18.00" fill="#000000">repository_auth</text>
<text text-anchor="start" x="588.8894" y="-533.3" font-family="Arial" font-size="14.00" fill="#000000"> </text>
<text text-anchor="start" x="592.78" y="-533.3" font-family="Arial" font-size="14.00" fill="#666666">[BASE TABLE]</text>
<polygon fill="none" stroke="#000000" points="458,-490.5 458,-520.5 693,-520.5 693,-490.5 458,-490.5"/>
<text text-anchor="start" x="465" y="-501.9" font-family="Arial" font-size="14.00" fill="#000000">repository_id </text>
<text text-anchor="start" x="549.0112" y="-501.9" font-family="Arial" font-size="14.00" fill="#666666">[char(22)]</text>
<polygon fill="none" stroke="#000000" points="458,-460.5 458,-490.5 693,-490.5 693,-460.5 458,-460.5"/>
<text text-anchor="start" x="465" y="-471.9" font-family="Arial" font-size="14.00" fill="#000000">method </text>
<text text-anchor="start" x="515.5722" y="-471.9" font-family="Arial" font-size="14.00" fill="#666666">[enum(&#39;basic&#39;,&#39;ssh&#39;)]</text>
<polygon fill="none" stroke="#000000" points="458,-430.5 458,-460.5 693,-460.5 693,-430.5 458,-430.5"/>
<text text-anchor="start" x="465" y="-441.9" font-family="Arial" font-size="14.00" fill="#000000">username </text>
<text text-anchor="start" x="531.1248" y="-441.9" font-family="Arial" font-size="14.00" fill="#666666">[varchar(256)]</text>
<polygon fill="none" stroke="#000000" points="458,-400.5 458,-430.5 693,-430.5 693,-400.5 458,-400.5"/>
<text text-anchor="start" x="465" y="-411.9" font-family="Arial" font-size="14.00" fill="#000000">password </text>
<text text-anchor="start" x="528.7882" y="-411.9" font-family="Arial" font-size="14.00" fill="#666666">[varchar(256)]</text>
<polygon fill="none" stroke="#000000" points="458,-370.5 458,-400.5 693,-400.5 693,-370.5 458,-370.5"/>
<text text-anchor="start" x="465" y="-381.9" font-family="Arial" font-size="14.00" fill="#000000">ssh_key </text>
<text text-anchor="start" x="520.2384" y="-381.9" font-family="Arial" font-size="14.00" fill="#666666">[text]</text>
</g>
<!-- repository_auth&#45;&gt;repositories -->
<g id="edge2" class="edge">
<title>repository_auth:repository_id&#45;&gt;repositories:id</title>
<path fill="none" stroke="#000000" d="M703.3375,-504.7888C768.356,-495.2559 732.3553,-392.069 693,-328 635.8851,-235.0191 531.1149,-309.9809 474,-217 451.5517,-180.4551 431.1111,-120.5 474,-120.5"/>
<polygon fill="#000000" stroke="#000000" points="702.9764,-504.8136 692.6911,-501.0106 697.9882,-505.1568 693,-505.5 693,-505.5 693,-505.5 697.9882,-505.1568 693.3089,-509.9894 702.9764,-504.8136 702.9764,-504.8136"/>
<text text-anchor="start" x="700.111" y="-515.5" font-family="Arial" font-size="10.00" fill="#000000">FOREIGN KEY (repository_id) REFERENCES repositories (id)</text>
</g>
<!-- repository_owners -->
<g id="node4" class="node">
<title>repository_owners</title>
<polygon fill="#efefef" stroke="transparent" points="797,-475.5 797,-510.5 1055,-510.5 1055,-475.5 797,-475.5"/>
<polygon fill="none" stroke="#000000" points="797,-475.5 797,-510.5 1055,-510.5 1055,-475.5 797,-475.5"/>
<text text-anchor="start" x="803.8647" y="-488.3" font-family="Arial Bold" font-size="18.00" fill="#000000">repository_owners</text>
<text text-anchor="start" x="950.8815" y="-488.3" font-family="Arial" font-size="14.00" fill="#000000"> </text>
<text text-anchor="start" x="954.7721" y="-488.3" font-family="Arial" font-size="14.00" fill="#666666">[BASE TABLE]</text>
<polygon fill="none" stroke="#000000" points="797,-445.5 797,-475.5 1055,-475.5 1055,-445.5 797,-445.5"/>
<text text-anchor="start" x="804" y="-456.9" font-family="Arial" font-size="14.00" fill="#000000">user_id </text>
<text text-anchor="start" x="853.7882" y="-456.9" font-family="Arial" font-size="14.00" fill="#666666">[char(22)]</text>
<polygon fill="none" stroke="#000000" points="797,-415.5 797,-445.5 1055,-445.5 1055,-415.5 797,-415.5"/>
<text text-anchor="start" x="804" y="-426.9" font-family="Arial" font-size="14.00" fill="#000000">repository_id </text>
<text text-anchor="start" x="888.0112" y="-426.9" font-family="Arial" font-size="14.00" fill="#666666">[char(22)]</text>
</g>
<!-- repository_owners&#45;&gt;repositories -->
<g id="edge3" class="edge">
<title>repository_owners:repository_id&#45;&gt;repositories:id</title>
<path fill="none" stroke="#000000" d="M786.764,-429.8996C720.0422,-421.4705 773.8717,-326.0104 745,-253 720.7332,-191.6344 743.9895,-120.5 678,-120.5"/>
<polygon fill="#000000" stroke="#000000" points="787.0172,-429.9144 796.7365,-434.9923 792.0086,-430.2072 797,-430.5 797,-430.5 797,-430.5 792.0086,-430.2072 797.2635,-426.0077 787.0172,-429.9144 787.0172,-429.9144"/>
<text text-anchor="start" x="804.111" y="-440.5" font-family="Arial" font-size="10.00" fill="#000000">FOREIGN KEY (repository_id) REFERENCES repositories (id)</text>
</g>
</g>
</svg>
