<?xml version="1.0" encoding="UTF-8" standalone="no"?>
<!DOCTYPE svg PUBLIC "-//W3C//DTD SVG 1.1//EN"
 "http://www.w3.org/Graphics/SVG/1.1/DTD/svg11.dtd">
<!-- Generated by graphviz version 2.40.1 (20161225.0304)
 -->
<!-- Title: repository_auth Pages: 1 -->
<svg width="581pt" height="532pt"
 viewBox="0.00 0.00 580.50 532.00" xmlns="http://www.w3.org/2000/svg" xmlns:xlink="http://www.w3.org/1999/xlink">
<g id="graph0" class="graph" transform="scale(1 1) rotate(0) translate(4 528)">
<title>repository_auth</title>
<polygon fill="#ffffff" stroke="transparent" points="-4,4 -4,-528 576.5,-528 576.5,4 -4,4"/>
<!-- repository_auth -->
<g id="node1" class="node">
<title>repository_auth</title>
<polygon fill="#efefef" stroke="transparent" points="46.5,-442.5 46.5,-477.5 281.5,-477.5 281.5,-442.5 46.5,-442.5"/>
<polygon fill="none" stroke="#000000" points="46.5,-442.5 46.5,-477.5 281.5,-477.5 281.5,-442.5 46.5,-442.5"/>
<text text-anchor="start" x="53.3568" y="-455.3" font-family="Arial Bold" font-size="18.00" fill="#000000">repository_auth</text>
<text text-anchor="start" x="177.3894" y="-455.3" font-family="Arial" font-size="14.00" fill="#000000"> </text>
<text text-anchor="start" x="181.28" y="-455.3" font-family="Arial" font-size="14.00" fill="#666666">[BASE TABLE]</text>
<polygon fill="none" stroke="#000000" points="46.5,-412.5 46.5,-442.5 281.5,-442.5 281.5,-412.5 46.5,-412.5"/>
<text text-anchor="start" x="53.5" y="-423.9" font-family="Arial" font-size="14.00" fill="#000000">repository_id </text>
<text text-anchor="start" x="137.5112" y="-423.9" font-family="Arial" font-size="14.00" fill="#666666">[char(22)]</text>
<polygon fill="none" stroke="#000000" points="46.5,-382.5 46.5,-412.5 281.5,-412.5 281.5,-382.5 46.5,-382.5"/>
<text text-anchor="start" x="53.5" y="-393.9" font-family="Arial" font-size="14.00" fill="#000000">method </text>
<text text-anchor="start" x="104.0722" y="-393.9" font-family="Arial" font-size="14.00" fill="#666666">[enum(&#39;basic&#39;,&#39;ssh&#39;)]</text>
<polygon fill="none" stroke="#000000" points="46.5,-352.5 46.5,-382.5 281.5,-382.5 281.5,-352.5 46.5,-352.5"/>
<text text-anchor="start" x="53.5" y="-363.9" font-family="Arial" font-size="14.00" fill="#000000">username </text>
<text text-anchor="start" x="119.6248" y="-363.9" font-family="Arial" font-size="14.00" fill="#666666">[varchar(256)]</text>
<polygon fill="none" stroke="#000000" points="46.5,-322.5 46.5,-352.5 281.5,-352.5 281.5,-322.5 46.5,-322.5"/>
<text text-anchor="start" x="53.5" y="-333.9" font-family="Arial" font-size="14.00" fill="#000000">password </text>
<text text-anchor="start" x="117.2882" y="-333.9" font-family="Arial" font-size="14.00" fill="#666666">[varchar(256)]</text>
<polygon fill="none" stroke="#000000" points="46.5,-292.5 46.5,-322.5 281.5,-322.5 281.5,-292.5 46.5,-292.5"/>
<text text-anchor="start" x="53.5" y="-303.9" font-family="Arial" font-size="14.00" fill="#000000">ssh_key </text>
<text text-anchor="start" x="108.7384" y="-303.9" font-family="Arial" font-size="14.00" fill="#666666">[text]</text>
<polygon fill="none" stroke="#000000" stroke-width="3" points="44.5,-291.5 44.5,-479.5 282.5,-479.5 282.5,-291.5 44.5,-291.5"/>
</g>
<!-- repositories -->
<g id="node2" class="node">
<title>repositories</title>
<polygon fill="#efefef" stroke="transparent" points="62.5,-132.5 62.5,-167.5 266.5,-167.5 266.5,-132.5 62.5,-132.5"/>
<polygon fill="none" stroke="#000000" points="62.5,-132.5 62.5,-167.5 266.5,-167.5 266.5,-132.5 62.5,-132.5"/>
<text text-anchor="start" x="69.3701" y="-145.3" font-family="Arial Bold" font-size="18.00" fill="#000000">repositories</text>
<text text-anchor="start" x="162.3761" y="-145.3" font-family="Arial" font-size="14.00" fill="#000000"> </text>
<text text-anchor="start" x="166.2667" y="-145.3" font-family="Arial" font-size="14.00" fill="#666666">[BASE TABLE]</text>
<polygon fill="none" stroke="#000000" points="62.5,-102.5 62.5,-132.5 266.5,-132.5 266.5,-102.5 62.5,-102.5"/>
<text text-anchor="start" x="69.5" y="-113.9" font-family="Arial" font-size="14.00" fill="#000000">id </text>
<text text-anchor="start" x="84.2798" y="-113.9" font-family="Arial" font-size="14.00" fill="#666666">[char(22)]</text>
<polygon fill="none" stroke="#000000" points="62.5,-72.5 62.5,-102.5 266.5,-102.5 266.5,-72.5 62.5,-72.5"/>
<text text-anchor="start" x="69.5" y="-83.9" font-family="Arial" font-size="14.00" fill="#000000">name </text>
<text text-anchor="start" x="108.399" y="-83.9" font-family="Arial" font-size="14.00" fill="#666666">[varchar(256)]</text>
<polygon fill="none" stroke="#000000" points="62.5,-42.5 62.5,-72.5 266.5,-72.5 266.5,-42.5 62.5,-42.5"/>
<text text-anchor="start" x="69.5" y="-53.9" font-family="Arial" font-size="14.00" fill="#000000">url </text>
<text text-anchor="start" x="88.9404" y="-53.9" font-family="Arial" font-size="14.00" fill="#666666">[varchar(256)]</text>
</g>
<!-- repository_auth&#45;&gt;repositories -->
<g id="edge1" class="edge">
<title>repository_auth:repository_id&#45;&gt;repositories:id</title>
<path fill="none" stroke="#000000" d="M291.6619,-426.7936C359.1319,-416.8949 331.0892,-305.4064 281.5,-247 217.6582,-171.8069 126.3418,-286.1931 62.5,-211 35.6043,-179.3221 20.9444,-117.5 62.5,-117.5"/>
<polygon fill="#000000" stroke="#000000" points="291.4759,-426.8064 281.1879,-423.0108 286.488,-427.1532 281.5,-427.5 281.5,-427.5 281.5,-427.5 286.488,-427.1532 281.8121,-431.9892 291.4759,-426.8064 291.4759,-426.8064"/>
<text text-anchor="start" x="288.611" y="-437.5" font-family="Arial" font-size="10.00" fill="#000000">FOREIGN KEY (repository_id) REFERENCES repositories (id)</text>
</g>
</g>
</svg>
