<?xml version="1.0" encoding="UTF-8" standalone="no"?>
<!DOCTYPE svg PUBLIC "-//W3C//DTD SVG 1.1//EN"
 "http://www.w3.org/Graphics/SVG/1.1/DTD/svg11.dtd">
<!-- Generated by graphviz version 2.40.1 (20161225.0304)
 -->
<!-- Title: repositories Pages: 1 -->
<svg width="1258pt" height="712pt"
 viewBox="0.00 0.00 1258.00 712.00" xmlns="http://www.w3.org/2000/svg" xmlns:xlink="http://www.w3.org/1999/xlink">
<g id="graph0" class="graph" transform="scale(1 1) rotate(0) translate(4 708)">
<title>repositories</title>
<polygon fill="#ffffff" stroke="transparent" points="-4,4 -4,-708 1254,-708 1254,4 -4,4"/>
<!-- repositories -->
<g id="node1" class="node">
<title>repositories</title>
<polygon fill="#efefef" stroke="transparent" points="626,-135.5 626,-170.5 830,-170.5 830,-135.5 626,-135.5"/>
<polygon fill="none" stroke="#000000" points="626,-135.5 626,-170.5 830,-170.5 830,-135.5 626,-135.5"/>
<text text-anchor="start" x="632.8701" y="-148.3" font-family="Arial Bold" font-size="18.00" fill="#000000">repositories</text>
<text text-anchor="start" x="725.8761" y="-148.3" font-family="Arial" font-size="14.00" fill="#000000"> </text>
<text text-anchor="start" x="729.7667" y="-148.3" font-family="Arial" font-size="14.00" fill="#666666">[BASE TABLE]</text>
<polygon fill="none" stroke="#000000" points="626,-105.5 626,-135.5 830,-135.5 830,-105.5 626,-105.5"/>
<text text-anchor="start" x="633" y="-116.9" font-family="Arial" font-size="14.00" fill="#000000">id </text>
<text text-anchor="start" x="647.7798" y="-116.9" font-family="Arial" font-size="14.00" fill="#666666">[char(22)]</text>
<polygon fill="none" stroke="#000000" points="626,-75.5 626,-105.5 830,-105.5 830,-75.5 626,-75.5"/>
<text text-anchor="start" x="633" y="-86.9" font-family="Arial" font-size="14.00" fill="#000000">name </text>
<text text-anchor="start" x="671.899" y="-86.9" font-family="Arial" font-size="14.00" fill="#666666">[varchar(256)]</text>
<polygon fill="none" stroke="#000000" points="626,-45.5 626,-75.5 830,-75.5 830,-45.5 626,-45.5"/>
<text text-anchor="start" x="633" y="-56.9" font-family="Arial" font-size="14.00" fill="#000000">url </text>
<text text-anchor="start" x="652.4404" y="-56.9" font-family="Arial" font-size="14.00" fill="#666666">[varchar(256)]</text>
<polygon fill="none" stroke="#000000" stroke-width="3" points="624.5,-44.5 624.5,-172.5 831.5,-172.5 831.5,-44.5 624.5,-44.5"/>
</g>
<!-- applications -->
<g id="node2" class="node">
<title>applications</title>
<polygon fill="#efefef" stroke="transparent" points="43,-625.5 43,-660.5 505,-660.5 505,-625.5 43,-625.5"/>
<polygon fill="none" stroke="#000000" points="43,-625.5 43,-660.5 505,-660.5 505,-625.5 43,-625.5"/>
<text text-anchor="start" x="177.8621" y="-638.3" font-family="Arial Bold" font-size="18.00" fill="#000000">applications</text>
<text text-anchor="start" x="272.8841" y="-638.3" font-family="Arial" font-size="14.00" fill="#000000"> </text>
<text text-anchor="start" x="276.7747" y="-638.3" font-family="Arial" font-size="14.00" fill="#666666">[BASE TABLE]</text>
<polygon fill="none" stroke="#000000" points="43,-595.5 43,-625.5 505,-625.5 505,-595.5 43,-595.5"/>
<text text-anchor="start" x="50" y="-606.9" font-family="Arial" font-size="14.00" fill="#000000">id </text>
<text text-anchor="start" x="64.7798" y="-606.9" font-family="Arial" font-size="14.00" fill="#666666">[char(22)]</text>
<polygon fill="none" stroke="#000000" points="43,-565.5 43,-595.5 505,-595.5 505,-565.5 43,-565.5"/>
<text text-anchor="start" x="50" y="-576.9" font-family="Arial" font-size="14.00" fill="#000000">name </text>
<text text-anchor="start" x="88.899" y="-576.9" font-family="Arial" font-size="14.00" fill="#666666">[varchar(100)]</text>
<polygon fill="none" stroke="#000000" points="43,-535.5 43,-565.5 505,-565.5 505,-535.5 43,-535.5"/>
<text text-anchor="start" x="50" y="-546.9" font-family="Arial" font-size="14.00" fill="#000000">repository_id </text>
<text text-anchor="start" x="134.0112" y="-546.9" font-family="Arial" font-size="14.00" fill="#666666">[varchar(22)]</text>
<polygon fill="none" stroke="#000000" points="43,-505.5 43,-535.5 505,-535.5 505,-505.5 43,-505.5"/>
<text text-anchor="start" x="50" y="-516.9" font-family="Arial" font-size="14.00" fill="#000000">ref_name </text>
<text text-anchor="start" x="113.0154" y="-516.9" font-family="Arial" font-size="14.00" fill="#666666">[varchar(100)]</text>
<polygon fill="none" stroke="#000000" points="43,-475.5 43,-505.5 505,-505.5 505,-475.5 43,-475.5"/>
<text text-anchor="start" x="50" y="-486.9" font-family="Arial" font-size="14.00" fill="#000000">deploy_type </text>
<text text-anchor="start" x="129.366" y="-486.9" font-family="Arial" font-size="14.00" fill="#666666">[enum(&#39;runtime&#39;,&#39;static&#39;)]</text>
<polygon fill="none" stroke="#000000" points="43,-445.5 43,-475.5 505,-475.5 505,-445.5 43,-445.5"/>
<text text-anchor="start" x="50" y="-456.9" font-family="Arial" font-size="14.00" fill="#000000">running </text>
<text text-anchor="start" x="100.5708" y="-456.9" font-family="Arial" font-size="14.00" fill="#666666">[tinyint(1)]</text>
<polygon fill="none" stroke="#000000" points="43,-415.5 43,-445.5 505,-445.5 505,-415.5 43,-415.5"/>
<text text-anchor="start" x="49.6857" y="-426.9" font-family="Arial" font-size="14.00" fill="#000000">container </text>
<text text-anchor="start" x="111.1471" y="-426.9" font-family="Arial" font-size="14.00" fill="#666666">[enum(&#39;missing&#39;,&#39;starting&#39;,&#39;running&#39;,&#39;exited&#39;,&#39;errored&#39;,&#39;unknown&#39;)]</text>
<polygon fill="none" stroke="#000000" points="43,-385.5 43,-415.5 505,-415.5 505,-385.5 43,-385.5"/>
<text text-anchor="start" x="50" y="-396.9" font-family="Arial" font-size="14.00" fill="#000000">current_commit </text>
<text text-anchor="start" x="150.3338" y="-396.9" font-family="Arial" font-size="14.00" fill="#666666">[char(40)]</text>
<polygon fill="none" stroke="#000000" points="43,-355.5 43,-385.5 505,-385.5 505,-355.5 43,-355.5"/>
<text text-anchor="start" x="50" y="-366.9" font-family="Arial" font-size="14.00" fill="#000000">want_commit </text>
<text text-anchor="start" x="136.3366" y="-366.9" font-family="Arial" font-size="14.00" fill="#666666">[char(40)]</text>
<polygon fill="none" stroke="#000000" points="43,-325.5 43,-355.5 505,-355.5 505,-325.5 43,-325.5"/>
<text text-anchor="start" x="50" y="-336.9" font-family="Arial" font-size="14.00" fill="#000000">created_at </text>
<text text-anchor="start" x="120.028" y="-336.9" font-family="Arial" font-size="14.00" fill="#666666">[datetime(6)]</text>
<polygon fill="none" stroke="#000000" points="43,-295.5 43,-325.5 505,-325.5 505,-295.5 43,-295.5"/>
<text text-anchor="start" x="50" y="-306.9" font-family="Arial" font-size="14.00" fill="#000000">updated_at </text>
<text text-anchor="start" x="123.9326" y="-306.9" font-family="Arial" font-size="14.00" fill="#666666">[datetime(6)]</text>
</g>
<!-- applications&#45;&gt;repositories -->
<g id="edge1" class="edge">
<title>applications:repository_id&#45;&gt;repositories:id</title>
<path fill="none" stroke="#000000" d="M515.1064,-548.4672C568.2795,-525.423 536.6472,-313.0899 557,-253 578.2999,-190.1139 559.6046,-120.5 626,-120.5"/>
<polygon fill="#000000" stroke="#000000" points="514.8037,-548.528 504.1126,-546.0884 509.9018,-549.514 505,-550.5 505,-550.5 505,-550.5 509.9018,-549.514 505.8874,-554.9116 514.8037,-548.528 514.8037,-548.528"/>
<text text-anchor="start" x="512.111" y="-560.5" font-family="Arial" font-size="10.00" fill="#000000">FOREIGN KEY (repository_id) REFERENCES repositories (id)</text>
</g>
<!-- repository_auth -->
<g id="node3" class="node">
<title>repository_auth</title>
<polygon fill="#efefef" stroke="transparent" points="610,-535.5 610,-570.5 845,-570.5 845,-535.5 610,-535.5"/>
<polygon fill="none" stroke="#000000" points="610,-535.5 610,-570.5 845,-570.5 845,-535.5 610,-535.5"/>
<text text-anchor="start" x="616.8568" y="-548.3" font-family="Arial Bold" font-size="18.00" fill="#000000">repository_auth</text>
<text text-anchor="start" x="740.8894" y="-548.3" font-family="Arial" font-size="14.00" fill="#000000"> </text>
<text text-anchor="start" x="744.78" y="-548.3" font-family="Arial" font-size="14.00" fill="#666666">[BASE TABLE]</text>
<polygon fill="none" stroke="#000000" points="610,-505.5 610,-535.5 845,-535.5 845,-505.5 610,-505.5"/>
<text text-anchor="start" x="617" y="-516.9" font-family="Arial" font-size="14.00" fill="#000000">repository_id </text>
<text text-anchor="start" x="701.0112" y="-516.9" font-family="Arial" font-size="14.00" fill="#666666">[char(22)]</text>
<polygon fill="none" stroke="#000000" points="610,-475.5 610,-505.5 845,-505.5 845,-475.5 610,-475.5"/>
<text text-anchor="start" x="617" y="-486.9" font-family="Arial" font-size="14.00" fill="#000000">method </text>
<text text-anchor="start" x="667.5722" y="-486.9" font-family="Arial" font-size="14.00" fill="#666666">[enum(&#39;basic&#39;,&#39;ssh&#39;)]</text>
<polygon fill="none" stroke="#000000" points="610,-445.5 610,-475.5 845,-475.5 845,-445.5 610,-445.5"/>
<text text-anchor="start" x="617" y="-456.9" font-family="Arial" font-size="14.00" fill="#000000">username </text>
<text text-anchor="start" x="683.1248" y="-456.9" font-family="Arial" font-size="14.00" fill="#666666">[varchar(256)]</text>
<polygon fill="none" stroke="#000000" points="610,-415.5 610,-445.5 845,-445.5 845,-415.5 610,-415.5"/>
<text text-anchor="start" x="617" y="-426.9" font-family="Arial" font-size="14.00" fill="#000000">password </text>
<text text-anchor="start" x="680.7882" y="-426.9" font-family="Arial" font-size="14.00" fill="#666666">[varchar(256)]</text>
<polygon fill="none" stroke="#000000" points="610,-385.5 610,-415.5 845,-415.5 845,-385.5 610,-385.5"/>
<text text-anchor="start" x="617" y="-396.9" font-family="Arial" font-size="14.00" fill="#000000">ssh_key </text>
<text text-anchor="start" x="672.2384" y="-396.9" font-family="Arial" font-size="14.00" fill="#666666">[text]</text>
</g>
<!-- repository_auth&#45;&gt;repositories -->
<g id="edge2" class="edge">
<title>repository_auth:repository_id&#45;&gt;repositories:id</title>
<path fill="none" stroke="#000000" d="M855.3262,-519.7956C920.1956,-510.3515 882.6445,-408.0889 845,-343 788.7801,-245.7935 682.2199,-314.2065 626,-217 604.5276,-179.8733 583.1111,-120.5 626,-120.5"/>
<polygon fill="#000000" stroke="#000000" points="854.9768,-519.8193 844.6937,-516.0104 849.9884,-520.1597 845,-520.5 845,-520.5 845,-520.5 849.9884,-520.1597 845.3063,-524.9896 854.9768,-519.8193 854.9768,-519.8193"/>
<text text-anchor="start" x="852.111" y="-530.5" font-family="Arial" font-size="10.00" fill="#000000">FOREIGN KEY (repository_id) REFERENCES repositories (id)</text>
</g>
<!-- repository_owners -->
<g id="node4" class="node">
<title>repository_owners</title>
<polygon fill="#efefef" stroke="transparent" points="949,-490.5 949,-525.5 1207,-525.5 1207,-490.5 949,-490.5"/>
<polygon fill="none" stroke="#000000" points="949,-490.5 949,-525.5 1207,-525.5 1207,-490.5 949,-490.5"/>
<text text-anchor="start" x="955.8647" y="-503.3" font-family="Arial Bold" font-size="18.00" fill="#000000">repository_owners</text>
<text text-anchor="start" x="1102.8815" y="-503.3" font-family="Arial" font-size="14.00" fill="#000000"> </text>
<text text-anchor="start" x="1106.7721" y="-503.3" font-family="Arial" font-size="14.00" fill="#666666">[BASE TABLE]</text>
<polygon fill="none" stroke="#000000" points="949,-460.5 949,-490.5 1207,-490.5 1207,-460.5 949,-460.5"/>
<text text-anchor="start" x="956" y="-471.9" font-family="Arial" font-size="14.00" fill="#000000">user_id </text>
<text text-anchor="start" x="1005.7882" y="-471.9" font-family="Arial" font-size="14.00" fill="#666666">[char(22)]</text>
<polygon fill="none" stroke="#000000" points="949,-430.5 949,-460.5 1207,-460.5 1207,-430.5 949,-430.5"/>
<text text-anchor="start" x="956" y="-441.9" font-family="Arial" font-size="14.00" fill="#000000">repository_id </text>
<text text-anchor="start" x="1040.0112" y="-441.9" font-family="Arial" font-size="14.00" fill="#666666">[char(22)]</text>
</g>
<!-- repository_owners&#45;&gt;repositories -->
<g id="edge3" class="edge">
<title>repository_owners:repository_id&#45;&gt;repositories:id</title>
<path fill="none" stroke="#000000" d="M938.8697,-444.9556C865.8155,-436.5427 927.4154,-332.3582 897,-253 873.3835,-191.3812 895.9895,-120.5 830,-120.5"/>
<polygon fill="#000000" stroke="#000000" points="939.0144,-444.9632 948.7585,-449.9935 944.0072,-445.2316 949,-445.5 949,-445.5 949,-445.5 944.0072,-445.2316 949.2415,-441.0065 939.0144,-444.9632 939.0144,-444.9632"/>
<text text-anchor="start" x="956.111" y="-455.5" font-family="Arial" font-size="10.00" fill="#000000">FOREIGN KEY (repository_id) REFERENCES repositories (id)</text>
</g>
</g>
</svg>
