<?xml version="1.0" encoding="UTF-8" standalone="no"?>
<!DOCTYPE svg PUBLIC "-//W3C//DTD SVG 1.1//EN"
 "http://www.w3.org/Graphics/SVG/1.1/DTD/svg11.dtd">
<!-- Generated by graphviz version 2.40.1 (20161225.0304)
 -->
<!-- Title: repositories Pages: 1 -->
<svg width="562pt" height="652pt"
 viewBox="0.00 0.00 562.00 652.00" xmlns="http://www.w3.org/2000/svg" xmlns:xlink="http://www.w3.org/1999/xlink">
<g id="graph0" class="graph" transform="scale(1 1) rotate(0) translate(4 648)">
<title>repositories</title>
<polygon fill="#ffffff" stroke="transparent" points="-4,4 -4,-648 558,-648 558,4 -4,4"/>
<!-- repositories -->
<g id="node1" class="node">
<title>repositories</title>
<polygon fill="#efefef" stroke="transparent" points="51,-135.5 51,-170.5 255,-170.5 255,-135.5 51,-135.5"/>
<polygon fill="none" stroke="#000000" points="51,-135.5 51,-170.5 255,-170.5 255,-135.5 51,-135.5"/>
<text text-anchor="start" x="57.8701" y="-148.3" font-family="Arial Bold" font-size="18.00" fill="#000000">repositories</text>
<text text-anchor="start" x="150.8761" y="-148.3" font-family="Arial" font-size="14.00" fill="#000000"> </text>
<text text-anchor="start" x="154.7667" y="-148.3" font-family="Arial" font-size="14.00" fill="#666666">[BASE TABLE]</text>
<polygon fill="none" stroke="#000000" points="51,-105.5 51,-135.5 255,-135.5 255,-105.5 51,-105.5"/>
<text text-anchor="start" x="58" y="-116.9" font-family="Arial" font-size="14.00" fill="#000000">id </text>
<text text-anchor="start" x="72.7798" y="-116.9" font-family="Arial" font-size="14.00" fill="#666666">[varchar(22)]</text>
<polygon fill="none" stroke="#000000" points="51,-75.5 51,-105.5 255,-105.5 255,-75.5 51,-75.5"/>
<text text-anchor="start" x="58" y="-86.9" font-family="Arial" font-size="14.00" fill="#000000">name </text>
<text text-anchor="start" x="96.899" y="-86.9" font-family="Arial" font-size="14.00" fill="#666666">[varchar(256)]</text>
<polygon fill="none" stroke="#000000" points="51,-45.5 51,-75.5 255,-75.5 255,-45.5 51,-45.5"/>
<text text-anchor="start" x="58" y="-56.9" font-family="Arial" font-size="14.00" fill="#000000">url </text>
<text text-anchor="start" x="77.4404" y="-56.9" font-family="Arial" font-size="14.00" fill="#666666">[varchar(256)]</text>
<polygon fill="none" stroke="#000000" stroke-width="3" points="49.5,-44.5 49.5,-172.5 256.5,-172.5 256.5,-44.5 49.5,-44.5"/>
</g>
<!-- applications -->
<g id="node2" class="node">
<title>applications</title>
<polygon fill="#efefef" stroke="transparent" points="43,-565.5 43,-600.5 263,-600.5 263,-565.5 43,-565.5"/>
<polygon fill="none" stroke="#000000" points="43,-565.5 43,-600.5 263,-600.5 263,-565.5 43,-565.5"/>
<text text-anchor="start" x="56.8621" y="-578.3" font-family="Arial Bold" font-size="18.00" fill="#000000">applications</text>
<text text-anchor="start" x="151.8841" y="-578.3" font-family="Arial" font-size="14.00" fill="#000000"> </text>
<text text-anchor="start" x="155.7747" y="-578.3" font-family="Arial" font-size="14.00" fill="#666666">[BASE TABLE]</text>
<polygon fill="none" stroke="#000000" points="43,-535.5 43,-565.5 263,-565.5 263,-535.5 43,-535.5"/>
<text text-anchor="start" x="50" y="-546.9" font-family="Arial" font-size="14.00" fill="#000000">id </text>
<text text-anchor="start" x="64.7798" y="-546.9" font-family="Arial" font-size="14.00" fill="#666666">[varchar(22)]</text>
<polygon fill="none" stroke="#000000" points="43,-505.5 43,-535.5 263,-535.5 263,-505.5 43,-505.5"/>
<text text-anchor="start" x="50" y="-516.9" font-family="Arial" font-size="14.00" fill="#000000">repository_id </text>
<text text-anchor="start" x="134.0112" y="-516.9" font-family="Arial" font-size="14.00" fill="#666666">[varchar(22)]</text>
<polygon fill="none" stroke="#000000" points="43,-475.5 43,-505.5 263,-505.5 263,-475.5 43,-475.5"/>
<text text-anchor="start" x="50" y="-486.9" font-family="Arial" font-size="14.00" fill="#000000">branch_name </text>
<text text-anchor="start" x="139.4726" y="-486.9" font-family="Arial" font-size="14.00" fill="#666666">[varchar(100)]</text>
<polygon fill="none" stroke="#000000" points="43,-445.5 43,-475.5 263,-475.5 263,-445.5 43,-445.5"/>
<text text-anchor="start" x="49.5764" y="-456.9" font-family="Arial" font-size="14.00" fill="#000000">build_type </text>
<text text-anchor="start" x="117.2664" y="-456.9" font-family="Arial" font-size="14.00" fill="#666666">[enum(&#39;image&#39;,&#39;static&#39;)]</text>
<polygon fill="none" stroke="#000000" points="43,-415.5 43,-445.5 263,-445.5 263,-415.5 43,-415.5"/>
<text text-anchor="start" x="50" y="-426.9" font-family="Arial" font-size="14.00" fill="#000000">state </text>
<text text-anchor="start" x="84.237" y="-426.9" font-family="Arial" font-size="14.00" fill="#666666">[varchar(10)]</text>
<polygon fill="none" stroke="#000000" points="43,-385.5 43,-415.5 263,-415.5 263,-385.5 43,-385.5"/>
<text text-anchor="start" x="50" y="-396.9" font-family="Arial" font-size="14.00" fill="#000000">current_commit </text>
<text text-anchor="start" x="150.3338" y="-396.9" font-family="Arial" font-size="14.00" fill="#666666">[char(40)]</text>
<polygon fill="none" stroke="#000000" points="43,-355.5 43,-385.5 263,-385.5 263,-355.5 43,-355.5"/>
<text text-anchor="start" x="50" y="-366.9" font-family="Arial" font-size="14.00" fill="#000000">want_commit </text>
<text text-anchor="start" x="136.3366" y="-366.9" font-family="Arial" font-size="14.00" fill="#666666">[char(40)]</text>
<polygon fill="none" stroke="#000000" points="43,-325.5 43,-355.5 263,-355.5 263,-325.5 43,-325.5"/>
<text text-anchor="start" x="50" y="-336.9" font-family="Arial" font-size="14.00" fill="#000000">created_at </text>
<text text-anchor="start" x="120.028" y="-336.9" font-family="Arial" font-size="14.00" fill="#666666">[datetime(6)]</text>
<polygon fill="none" stroke="#000000" points="43,-295.5 43,-325.5 263,-325.5 263,-295.5 43,-295.5"/>
<text text-anchor="start" x="50" y="-306.9" font-family="Arial" font-size="14.00" fill="#000000">updated_at </text>
<text text-anchor="start" x="123.9326" y="-306.9" font-family="Arial" font-size="14.00" fill="#666666">[datetime(6)]</text>
</g>
<!-- applications&#45;&gt;repositories -->
<g id="edge1" class="edge">
<title>applications:repository_id&#45;&gt;repositories:id</title>
<path fill="none" stroke="#000000" d="M272.9761,-518.7166C351.1582,-489.8604 340.4337,-120.5 255,-120.5"/>
<polygon fill="#000000" stroke="#000000" points="272.8439,-518.7402 262.2081,-516.0702 267.922,-519.6201 263,-520.5 263,-520.5 263,-520.5 267.922,-519.6201 263.7919,-524.9298 272.8439,-518.7402 272.8439,-518.7402"/>
<text text-anchor="start" x="270.111" y="-530.5" font-family="Arial" font-size="10.00" fill="#000000">FOREIGN KEY (repository_id) REFERENCES repositories (id)</text>
</g>
</g>
</svg>
