<?xml version="1.0" encoding="UTF-8" standalone="no"?>
<!DOCTYPE svg PUBLIC "-//W3C//DTD SVG 1.1//EN"
        "http://www.w3.org/Graphics/SVG/1.1/DTD/svg11.dtd">
<!-- Generated by graphviz version 2.40.1 (20161225.0304)
 -->
<!-- Title: repositories Pages: 1 -->
<svg width="562pt" height="622pt"
     viewBox="0.00 0.00 562.00 622.00" xmlns="http://www.w3.org/2000/svg" xmlns:xlink="http://www.w3.org/1999/xlink">
    <g id="graph0" class="graph" transform="scale(1 1) rotate(0) translate(4 618)">
        <title>repositories</title>
        <polygon fill="#ffffff" stroke="transparent" points="-4,4 -4,-618 558,-618 558,4 -4,4"/>
        <!-- repositories -->
        <g id="node1" class="node">
            <title>repositories</title>
            <polygon fill="#efefef" stroke="transparent" points="51,-135.5 51,-170.5 255,-170.5 255,-135.5 51,-135.5"/>
            <polygon fill="none" stroke="#000000" points="51,-135.5 51,-170.5 255,-170.5 255,-135.5 51,-135.5"/>
            <text text-anchor="start" x="57.8701" y="-148.3" font-family="Arial Bold" font-size="18.00" fill="#000000">
                repositories
            </text>
            <text text-anchor="start" x="150.8761" y="-148.3" font-family="Arial" font-size="14.00"
                  fill="#000000"></text>
            <text text-anchor="start" x="154.7667" y="-148.3" font-family="Arial" font-size="14.00" fill="#666666">[BASE
                TABLE]
            </text>
            <polygon fill="none" stroke="#000000" points="51,-105.5 51,-135.5 255,-135.5 255,-105.5 51,-105.5"/>
            <text text-anchor="start" x="58" y="-116.9" font-family="Arial" font-size="14.00" fill="#000000">id</text>
            <text text-anchor="start" x="72.7798" y="-116.9" font-family="Arial" font-size="14.00" fill="#666666">
                [varchar(22)]
            </text>
            <polygon fill="none" stroke="#000000" points="51,-75.5 51,-105.5 255,-105.5 255,-75.5 51,-75.5"/>
            <text text-anchor="start" x="58" y="-86.9" font-family="Arial" font-size="14.00" fill="#000000">remote
            </text>
            <text text-anchor="start" x="105.4502" y="-86.9" font-family="Arial" font-size="14.00" fill="#666666">
                [text]
            </text>
            <polygon fill="none" stroke="#000000" points="51,-45.5 51,-75.5 255,-75.5 255,-45.5 51,-45.5"/>
            <text text-anchor="start" x="58" y="-56.9" font-family="Arial" font-size="14.00" fill="#000000">refs</text>
            <text text-anchor="start" x="85.2244" y="-56.9" font-family="Arial" font-size="14.00" fill="#666666">
                [text]
            </text>
            <polygon fill="none" stroke="#000000" stroke-width="3"
                     points="49.5,-44.5 49.5,-172.5 256.5,-172.5 256.5,-44.5 49.5,-44.5"/>
        </g>
        <!-- applications -->
        <g id="node2" class="node">
            <title>applications</title>
            <polygon fill="#efefef" stroke="transparent" points="43,-535.5 43,-570.5 263,-570.5 263,-535.5 43,-535.5"/>
            <polygon fill="none" stroke="#000000" points="43,-535.5 43,-570.5 263,-570.5 263,-535.5 43,-535.5"/>
            <text text-anchor="start" x="56.8621" y="-548.3" font-family="Arial Bold" font-size="18.00" fill="#000000">
                applications
            </text>
            <text text-anchor="start" x="151.8841" y="-548.3" font-family="Arial" font-size="14.00"
                  fill="#000000"></text>
            <text text-anchor="start" x="155.7747" y="-548.3" font-family="Arial" font-size="14.00" fill="#666666">[BASE
                TABLE]
            </text>
            <polygon fill="none" stroke="#000000" points="43,-505.5 43,-535.5 263,-535.5 263,-505.5 43,-505.5"/>
            <text text-anchor="start" x="50" y="-516.9" font-family="Arial" font-size="14.00" fill="#000000">id</text>
            <text text-anchor="start" x="64.7798" y="-516.9" font-family="Arial" font-size="14.00" fill="#666666">
                [varchar(22)]
            </text>
            <polygon fill="none" stroke="#000000" points="43,-475.5 43,-505.5 263,-505.5 263,-475.5 43,-475.5"/>
            <text text-anchor="start" x="50" y="-486.9" font-family="Arial" font-size="14.00" fill="#000000">owner
            </text>
            <text text-anchor="start" x="92.0056" y="-486.9" font-family="Arial" font-size="14.00" fill="#666666">
                [varchar(100)]
            </text>
            <polygon fill="none" stroke="#000000" points="43,-445.5 43,-475.5 263,-475.5 263,-445.5 43,-445.5"/>
            <text text-anchor="start" x="50" y="-456.9" font-family="Arial" font-size="14.00" fill="#000000">name</text>
            <text text-anchor="start" x="88.899" y="-456.9" font-family="Arial" font-size="14.00" fill="#666666">
                [varchar(100)]
            </text>
            <polygon fill="none" stroke="#000000" points="43,-415.5 43,-445.5 263,-445.5 263,-415.5 43,-415.5"/>
            <text text-anchor="start" x="50" y="-426.9" font-family="Arial" font-size="14.00" fill="#000000">
                repository_id
            </text>
            <text text-anchor="start" x="134.0112" y="-426.9" font-family="Arial" font-size="14.00" fill="#666666">
                [varchar(22)]
            </text>
            <polygon fill="none" stroke="#000000" points="43,-385.5 43,-415.5 263,-415.5 263,-385.5 43,-385.5"/>
            <text text-anchor="start" x="50" y="-396.9" font-family="Arial" font-size="14.00" fill="#000000">
                created_at
            </text>
            <text text-anchor="start" x="120.028" y="-396.9" font-family="Arial" font-size="14.00" fill="#666666">
                [datetime(6)]
            </text>
            <polygon fill="none" stroke="#000000" points="43,-355.5 43,-385.5 263,-385.5 263,-355.5 43,-355.5"/>
            <text text-anchor="start" x="50" y="-366.9" font-family="Arial" font-size="14.00" fill="#000000">
                updated_at
            </text>
            <text text-anchor="start" x="123.9326" y="-366.9" font-family="Arial" font-size="14.00" fill="#666666">
                [datetime(6)]
            </text>
            <polygon fill="none" stroke="#000000" points="43,-325.5 43,-355.5 263,-355.5 263,-325.5 43,-325.5"/>
            <text text-anchor="start" x="50" y="-336.9" font-family="Arial" font-size="14.00" fill="#000000">
                deleted_at
            </text>
            <text text-anchor="start" x="119.2566" y="-336.9" font-family="Arial" font-size="14.00" fill="#666666">
                [datetime(6)]
            </text>
            <polygon fill="none" stroke="#000000" points="43,-295.5 43,-325.5 263,-325.5 263,-295.5 43,-295.5"/>
            <text text-anchor="start" x="49.5764" y="-306.9" font-family="Arial" font-size="14.00" fill="#000000">
                build_type
            </text>
            <text text-anchor="start" x="117.2664" y="-306.9" font-family="Arial" font-size="14.00" fill="#666666">
                [enum(&#39;image&#39;,&#39;static&#39;)]
            </text>
        </g>
        <!-- applications&#45;&gt;repositories -->
        <g id="edge1" class="edge">
            <title>applications:repository_id&#45;&gt;repositories:id</title>
            <path fill="none" stroke="#000000" d="M272.9054,-428.183C330.9422,-399.815 320.4124,-120.5 255,-120.5"/>
            <polygon fill="#000000" stroke="#000000"
                     points="272.7372,-428.2222 261.975,-426.1183 267.8686,-429.3611 263,-430.5 263,-430.5 263,-430.5 267.8686,-429.3611 264.025,-434.8817 272.7372,-428.2222 272.7372,-428.2222"/>
            <text text-anchor="start" x="270.111" y="-440.5" font-family="Arial" font-size="10.00" fill="#000000">
                FOREIGN KEY (repository_id) REFERENCES repositories (id)
            </text>
        </g>
    </g>
</svg>
