<?xml version="1.0" encoding="UTF-8" standalone="no"?>
<!DOCTYPE svg PUBLIC "-//W3C//DTD SVG 1.1//EN"
 "http://www.w3.org/Graphics/SVG/1.1/DTD/svg11.dtd">
<!-- Generated by graphviz version 2.40.1 (20161225.0304)
 -->
<!-- Title: repositories Pages: 1 -->
<svg width="550pt" height="562pt"
 viewBox="0.00 0.00 550.00 562.00" xmlns="http://www.w3.org/2000/svg" xmlns:xlink="http://www.w3.org/1999/xlink">
<g id="graph0" class="graph" transform="scale(1 1) rotate(0) translate(4 558)">
<title>repositories</title>
<polygon fill="#ffffff" stroke="transparent" points="-4,4 -4,-558 546,-558 546,4 -4,4"/>
<!-- repositories -->
<g id="node1" class="node">
<title>repositories</title>
<polygon fill="#efefef" stroke="transparent" points="46,-105.5 46,-140.5 250,-140.5 250,-105.5 46,-105.5"/>
<polygon fill="none" stroke="#000000" points="46,-105.5 46,-140.5 250,-140.5 250,-105.5 46,-105.5"/>
<text text-anchor="start" x="52.8701" y="-118.3" font-family="Arial Bold" font-size="18.00" fill="#000000">repositories</text>
<text text-anchor="start" x="145.8761" y="-118.3" font-family="Arial" font-size="14.00" fill="#000000"> </text>
<text text-anchor="start" x="149.7667" y="-118.3" font-family="Arial" font-size="14.00" fill="#666666">[BASE TABLE]</text>
<polygon fill="none" stroke="#000000" points="46,-75.5 46,-105.5 250,-105.5 250,-75.5 46,-75.5"/>
<text text-anchor="start" x="53" y="-86.9" font-family="Arial" font-size="14.00" fill="#000000">id </text>
<text text-anchor="start" x="67.7798" y="-86.9" font-family="Arial" font-size="14.00" fill="#666666">[varchar(22)]</text>
<polygon fill="none" stroke="#000000" points="46,-45.5 46,-75.5 250,-75.5 250,-45.5 46,-45.5"/>
<text text-anchor="start" x="53" y="-56.9" font-family="Arial" font-size="14.00" fill="#000000">remote </text>
<text text-anchor="start" x="100.4502" y="-56.9" font-family="Arial" font-size="14.00" fill="#666666">[text]</text>
<polygon fill="none" stroke="#000000" stroke-width="3" points="44.5,-44.5 44.5,-142.5 251.5,-142.5 251.5,-44.5 44.5,-44.5"/>
</g>
<!-- applications -->
<g id="node2" class="node">
<title>applications</title>
<polygon fill="#efefef" stroke="transparent" points="45,-475.5 45,-510.5 251,-510.5 251,-475.5 45,-475.5"/>
<polygon fill="none" stroke="#000000" points="45,-475.5 45,-510.5 251,-510.5 251,-475.5 45,-475.5"/>
<text text-anchor="start" x="51.8621" y="-488.3" font-family="Arial Bold" font-size="18.00" fill="#000000">applications</text>
<text text-anchor="start" x="146.8841" y="-488.3" font-family="Arial" font-size="14.00" fill="#000000"> </text>
<text text-anchor="start" x="150.7747" y="-488.3" font-family="Arial" font-size="14.00" fill="#666666">[BASE TABLE]</text>
<polygon fill="none" stroke="#000000" points="45,-445.5 45,-475.5 251,-475.5 251,-445.5 45,-445.5"/>
<text text-anchor="start" x="52" y="-456.9" font-family="Arial" font-size="14.00" fill="#000000">id </text>
<text text-anchor="start" x="66.7798" y="-456.9" font-family="Arial" font-size="14.00" fill="#666666">[varchar(22)]</text>
<polygon fill="none" stroke="#000000" points="45,-415.5 45,-445.5 251,-445.5 251,-415.5 45,-415.5"/>
<text text-anchor="start" x="52" y="-426.9" font-family="Arial" font-size="14.00" fill="#000000">owner </text>
<text text-anchor="start" x="94.0056" y="-426.9" font-family="Arial" font-size="14.00" fill="#666666">[varchar(100)]</text>
<polygon fill="none" stroke="#000000" points="45,-385.5 45,-415.5 251,-415.5 251,-385.5 45,-385.5"/>
<text text-anchor="start" x="52" y="-396.9" font-family="Arial" font-size="14.00" fill="#000000">name </text>
<text text-anchor="start" x="90.899" y="-396.9" font-family="Arial" font-size="14.00" fill="#666666">[varchar(100)]</text>
<polygon fill="none" stroke="#000000" points="45,-355.5 45,-385.5 251,-385.5 251,-355.5 45,-355.5"/>
<text text-anchor="start" x="52" y="-366.9" font-family="Arial" font-size="14.00" fill="#000000">repository_id </text>
<text text-anchor="start" x="136.0112" y="-366.9" font-family="Arial" font-size="14.00" fill="#666666">[varchar(22)]</text>
<polygon fill="none" stroke="#000000" points="45,-325.5 45,-355.5 251,-355.5 251,-325.5 45,-325.5"/>
<text text-anchor="start" x="52" y="-336.9" font-family="Arial" font-size="14.00" fill="#000000">created_at </text>
<text text-anchor="start" x="122.028" y="-336.9" font-family="Arial" font-size="14.00" fill="#666666">[datetime(6)]</text>
<polygon fill="none" stroke="#000000" points="45,-295.5 45,-325.5 251,-325.5 251,-295.5 45,-295.5"/>
<text text-anchor="start" x="52" y="-306.9" font-family="Arial" font-size="14.00" fill="#000000">updated_at </text>
<text text-anchor="start" x="125.9326" y="-306.9" font-family="Arial" font-size="14.00" fill="#666666">[datetime(6)]</text>
<polygon fill="none" stroke="#000000" points="45,-265.5 45,-295.5 251,-295.5 251,-265.5 45,-265.5"/>
<text text-anchor="start" x="52" y="-276.9" font-family="Arial" font-size="14.00" fill="#000000">deleted_at </text>
<text text-anchor="start" x="121.2566" y="-276.9" font-family="Arial" font-size="14.00" fill="#666666">[datetime(6)]</text>
</g>
<!-- applications&#45;&gt;repositories -->
<g id="edge1" class="edge">
<title>applications:repository_id&#45;&gt;repositories:id</title>
<path fill="none" stroke="#000000" d="M260.9649,-367.9069C312.9129,-339.6795 308.6983,-90.5 250,-90.5"/>
<polygon fill="#000000" stroke="#000000" points="260.6777,-367.9816 249.8667,-366.145 255.8389,-369.2408 251,-370.5 251,-370.5 251,-370.5 255.8389,-369.2408 252.1333,-374.855 260.6777,-367.9816 260.6777,-367.9816"/>
<text text-anchor="start" x="258.111" y="-380.5" font-family="Arial" font-size="10.00" fill="#000000">FOREIGN KEY (repository_id) REFERENCES repositories (id)</text>
</g>
</g>
</svg>
