<?xml version="1.0" encoding="UTF-8" standalone="no"?>
<!DOCTYPE svg PUBLIC "-//W3C//DTD SVG 1.1//EN"
        "http://www.w3.org/Graphics/SVG/1.1/DTD/svg11.dtd">
<!-- Generated by graphviz version 2.40.1 (20161225.0304)
 -->
<!-- Title: neoshowcase Pages: 1 -->
<svg width="929pt" height="1290pt"
     viewBox="0.00 0.00 928.50 1290.00" xmlns="http://www.w3.org/2000/svg" xmlns:xlink="http://www.w3.org/1999/xlink">
    <g id="graph0" class="graph" transform="scale(1 1) rotate(0) translate(4 1286)">
        <title>neoshowcase</title>
        <polygon fill="#ffffff" stroke="transparent" points="-4,4 -4,-1286 924.5,-1286 924.5,4 -4,4"/>
        <!-- applications -->
        <g id="node1" class="node">
            <title>applications</title>
            <polygon fill="#efefef" stroke="transparent"
                     points="283.5,-529.5 283.5,-564.5 503.5,-564.5 503.5,-529.5 283.5,-529.5"/>
            <polygon fill="none" stroke="#000000"
                     points="283.5,-529.5 283.5,-564.5 503.5,-564.5 503.5,-529.5 283.5,-529.5"/>
            <text text-anchor="start" x="297.3621" y="-542.3" font-family="Arial Bold" font-size="18.00" fill="#000000">
                applications
            </text>
            <text text-anchor="start" x="392.3841" y="-542.3" font-family="Arial" font-size="14.00"
                  fill="#000000"></text>
            <text text-anchor="start" x="396.2747" y="-542.3" font-family="Arial" font-size="14.00" fill="#666666">[BASE
                TABLE]
            </text>
            <polygon fill="none" stroke="#000000"
                     points="283.5,-499.5 283.5,-529.5 503.5,-529.5 503.5,-499.5 283.5,-499.5"/>
            <text text-anchor="start" x="290.5" y="-510.9" font-family="Arial" font-size="14.00" fill="#000000">id
            </text>
            <text text-anchor="start" x="305.2798" y="-510.9" font-family="Arial" font-size="14.00" fill="#666666">
                [varchar(22)]
            </text>
            <polygon fill="none" stroke="#000000"
                     points="283.5,-469.5 283.5,-499.5 503.5,-499.5 503.5,-469.5 283.5,-469.5"/>
            <text text-anchor="start" x="290.5" y="-480.9" font-family="Arial" font-size="14.00" fill="#000000">owner
            </text>
            <text text-anchor="start" x="332.5056" y="-480.9" font-family="Arial" font-size="14.00" fill="#666666">
                [varchar(100)]
            </text>
            <polygon fill="none" stroke="#000000"
                     points="283.5,-439.5 283.5,-469.5 503.5,-469.5 503.5,-439.5 283.5,-439.5"/>
            <text text-anchor="start" x="290.5" y="-450.9" font-family="Arial" font-size="14.00" fill="#000000">name
            </text>
            <text text-anchor="start" x="329.399" y="-450.9" font-family="Arial" font-size="14.00" fill="#666666">
                [varchar(100)]
            </text>
            <polygon fill="none" stroke="#000000"
                     points="283.5,-409.5 283.5,-439.5 503.5,-439.5 503.5,-409.5 283.5,-409.5"/>
            <text text-anchor="start" x="290.5" y="-420.9" font-family="Arial" font-size="14.00" fill="#000000">
                repository_id
            </text>
            <text text-anchor="start" x="374.5112" y="-420.9" font-family="Arial" font-size="14.00" fill="#666666">
                [varchar(22)]
            </text>
            <polygon fill="none" stroke="#000000"
                     points="283.5,-379.5 283.5,-409.5 503.5,-409.5 503.5,-379.5 283.5,-379.5"/>
            <text text-anchor="start" x="290.5" y="-390.9" font-family="Arial" font-size="14.00" fill="#000000">
                created_at
            </text>
            <text text-anchor="start" x="360.528" y="-390.9" font-family="Arial" font-size="14.00" fill="#666666">
                [datetime(6)]
            </text>
            <polygon fill="none" stroke="#000000"
                     points="283.5,-349.5 283.5,-379.5 503.5,-379.5 503.5,-349.5 283.5,-349.5"/>
            <text text-anchor="start" x="290.5" y="-360.9" font-family="Arial" font-size="14.00" fill="#000000">
                updated_at
            </text>
            <text text-anchor="start" x="364.4326" y="-360.9" font-family="Arial" font-size="14.00" fill="#666666">
                [datetime(6)]
            </text>
            <polygon fill="none" stroke="#000000"
                     points="283.5,-319.5 283.5,-349.5 503.5,-349.5 503.5,-319.5 283.5,-319.5"/>
            <text text-anchor="start" x="290.5" y="-330.9" font-family="Arial" font-size="14.00" fill="#000000">
                deleted_at
            </text>
            <text text-anchor="start" x="359.7566" y="-330.9" font-family="Arial" font-size="14.00" fill="#666666">
                [datetime(6)]
            </text>
            <polygon fill="none" stroke="#000000"
                     points="283.5,-289.5 283.5,-319.5 503.5,-319.5 503.5,-289.5 283.5,-289.5"/>
            <text text-anchor="start" x="290.0764" y="-300.9" font-family="Arial" font-size="14.00" fill="#000000">
                build_type
            </text>
            <text text-anchor="start" x="357.7664" y="-300.9" font-family="Arial" font-size="14.00" fill="#666666">
                [enum(&#39;image&#39;,&#39;static&#39;)]
            </text>
        </g>
        <!-- repositories -->
        <g id="node4" class="node">
            <title>repositories</title>
            <polygon fill="#efefef" stroke="transparent"
                     points="291.5,-132.5 291.5,-167.5 495.5,-167.5 495.5,-132.5 291.5,-132.5"/>
            <polygon fill="none" stroke="#000000"
                     points="291.5,-132.5 291.5,-167.5 495.5,-167.5 495.5,-132.5 291.5,-132.5"/>
            <text text-anchor="start" x="298.3701" y="-145.3" font-family="Arial Bold" font-size="18.00" fill="#000000">
                repositories
            </text>
            <text text-anchor="start" x="391.3761" y="-145.3" font-family="Arial" font-size="14.00"
                  fill="#000000"></text>
            <text text-anchor="start" x="395.2667" y="-145.3" font-family="Arial" font-size="14.00" fill="#666666">[BASE
                TABLE]
            </text>
            <polygon fill="none" stroke="#000000"
                     points="291.5,-102.5 291.5,-132.5 495.5,-132.5 495.5,-102.5 291.5,-102.5"/>
            <text text-anchor="start" x="298.5" y="-113.9" font-family="Arial" font-size="14.00" fill="#000000">id
            </text>
            <text text-anchor="start" x="313.2798" y="-113.9" font-family="Arial" font-size="14.00" fill="#666666">
                [varchar(22)]
            </text>
            <polygon fill="none" stroke="#000000"
                     points="291.5,-72.5 291.5,-102.5 495.5,-102.5 495.5,-72.5 291.5,-72.5"/>
            <text text-anchor="start" x="298.5" y="-83.9" font-family="Arial" font-size="14.00" fill="#000000">remote
            </text>
            <text text-anchor="start" x="345.9502" y="-83.9" font-family="Arial" font-size="14.00" fill="#666666">
                [text]
            </text>
            <polygon fill="none" stroke="#000000" points="291.5,-42.5 291.5,-72.5 495.5,-72.5 495.5,-42.5 291.5,-42.5"/>
            <text text-anchor="start" x="298.5" y="-53.9" font-family="Arial" font-size="14.00" fill="#000000">refs
            </text>
            <text text-anchor="start" x="325.7244" y="-53.9" font-family="Arial" font-size="14.00" fill="#666666">
                [text]
            </text>
        </g>
        <!-- applications&#45;&gt;repositories -->
        <g id="edge1" class="edge">
            <title>applications:repository_id&#45;&gt;repositories:id</title>
            <path fill="none" stroke="#000000" d="M513.6176,-423.9163C639.5017,-409.1081 628.5252,-117.5 495.5,-117.5"/>
            <polygon fill="#000000" stroke="#000000"
                     points="513.4834,-423.9239 503.2408,-420.0075 508.4917,-424.212 503.5,-424.5 503.5,-424.5 503.5,-424.5 508.4917,-424.212 503.7592,-428.9925 513.4834,-423.9239 513.4834,-423.9239"/>
            <text text-anchor="start" x="510.611" y="-434.5" font-family="Arial" font-size="10.00" fill="#000000">
                FOREIGN KEY (repository_id) REFERENCES repositories (id)
            </text>
        </g>
        <!-- artifacts -->
        <g id="node2" class="node">
            <title>artifacts</title>
            <polygon fill="#efefef" stroke="transparent"
                     points="164.5,-1173.5 164.5,-1208.5 338.5,-1208.5 338.5,-1173.5 164.5,-1173.5"/>
            <polygon fill="none" stroke="#000000"
                     points="164.5,-1173.5 164.5,-1208.5 338.5,-1208.5 338.5,-1173.5 164.5,-1173.5"/>
            <text text-anchor="start" x="171.3704" y="-1186.3" font-family="Arial Bold" font-size="18.00"
                  fill="#000000">artifacts
            </text>
            <text text-anchor="start" x="234.3758" y="-1186.3" font-family="Arial" font-size="14.00"
                  fill="#000000"></text>
            <text text-anchor="start" x="238.2664" y="-1186.3" font-family="Arial" font-size="14.00" fill="#666666">
                [BASE TABLE]
            </text>
            <polygon fill="none" stroke="#000000"
                     points="164.5,-1143.5 164.5,-1173.5 338.5,-1173.5 338.5,-1143.5 164.5,-1143.5"/>
            <text text-anchor="start" x="171.5" y="-1154.9" font-family="Arial" font-size="14.00" fill="#000000">id
            </text>
            <text text-anchor="start" x="186.2798" y="-1154.9" font-family="Arial" font-size="14.00" fill="#666666">
                [varchar(22)]
            </text>
            <polygon fill="none" stroke="#000000"
                     points="164.5,-1113.5 164.5,-1143.5 338.5,-1143.5 338.5,-1113.5 164.5,-1113.5"/>
            <text text-anchor="start" x="171.5" y="-1124.9" font-family="Arial" font-size="14.00" fill="#000000">
                build_log_id
            </text>
            <text text-anchor="start" x="250.0778" y="-1124.9" font-family="Arial" font-size="14.00" fill="#666666">
                [varchar(22)]
            </text>
            <polygon fill="none" stroke="#000000"
                     points="164.5,-1083.5 164.5,-1113.5 338.5,-1113.5 338.5,-1083.5 164.5,-1083.5"/>
            <text text-anchor="start" x="171.5" y="-1094.9" font-family="Arial" font-size="14.00" fill="#000000">size
            </text>
            <text text-anchor="start" x="200.2798" y="-1094.9" font-family="Arial" font-size="14.00" fill="#666666">
                [bigint(20)]
            </text>
            <polygon fill="none" stroke="#000000"
                     points="164.5,-1053.5 164.5,-1083.5 338.5,-1083.5 338.5,-1053.5 164.5,-1053.5"/>
            <text text-anchor="start" x="171.5" y="-1064.9" font-family="Arial" font-size="14.00" fill="#000000">
                created_at
            </text>
            <text text-anchor="start" x="241.528" y="-1064.9" font-family="Arial" font-size="14.00" fill="#666666">
                [datetime(6)]
            </text>
            <polygon fill="none" stroke="#000000"
                     points="164.5,-1023.5 164.5,-1053.5 338.5,-1053.5 338.5,-1023.5 164.5,-1023.5"/>
            <text text-anchor="start" x="171.5" y="-1034.9" font-family="Arial" font-size="14.00" fill="#000000">
                deleted_at
            </text>
            <text text-anchor="start" x="240.7566" y="-1034.9" font-family="Arial" font-size="14.00" fill="#666666">
                [datetime(6)]
            </text>
        </g>
        <!-- build_logs -->
        <g id="node3" class="node">
            <title>build_logs</title>
            <polygon fill="#efefef" stroke="transparent"
                     points="43.5,-836.5 43.5,-871.5 462.5,-871.5 462.5,-836.5 43.5,-836.5"/>
            <polygon fill="none" stroke="#000000"
                     points="43.5,-836.5 43.5,-871.5 462.5,-871.5 462.5,-836.5 43.5,-836.5"/>
            <text text-anchor="start" x="163.8632" y="-849.3" font-family="Arial Bold" font-size="18.00" fill="#000000">
                build_logs
            </text>
            <text text-anchor="start" x="244.883" y="-849.3" font-family="Arial" font-size="14.00"
                  fill="#000000"></text>
            <text text-anchor="start" x="248.7736" y="-849.3" font-family="Arial" font-size="14.00" fill="#666666">[BASE
                TABLE]
            </text>
            <polygon fill="none" stroke="#000000"
                     points="43.5,-806.5 43.5,-836.5 462.5,-836.5 462.5,-806.5 43.5,-806.5"/>
            <text text-anchor="start" x="50.5" y="-817.9" font-family="Arial" font-size="14.00" fill="#000000">id</text>
            <text text-anchor="start" x="65.2798" y="-817.9" font-family="Arial" font-size="14.00" fill="#666666">
                [varchar(22)]
            </text>
            <polygon fill="none" stroke="#000000"
                     points="43.5,-776.5 43.5,-806.5 462.5,-806.5 462.5,-776.5 43.5,-776.5"/>
            <text text-anchor="start" x="50.5" y="-787.9" font-family="Arial" font-size="14.00" fill="#000000">
                application_id
            </text>
            <text text-anchor="start" x="139.9684" y="-787.9" font-family="Arial" font-size="14.00" fill="#666666">
                [varchar(22)]
            </text>
            <polygon fill="none" stroke="#000000"
                     points="43.5,-746.5 43.5,-776.5 462.5,-776.5 462.5,-746.5 43.5,-746.5"/>
            <text text-anchor="start" x="50.0742" y="-757.9" font-family="Arial" font-size="14.00" fill="#000000">
                result
            </text>
            <text text-anchor="start" x="88.1878" y="-757.9" font-family="Arial" font-size="14.00" fill="#666666">[enum(&#39;BUILDING&#39;,&#39;SUCCEEDED&#39;,&#39;FAILED&#39;,&#39;CANCELED&#39;)]</text>
            <polygon fill="none" stroke="#000000"
                     points="43.5,-716.5 43.5,-746.5 462.5,-746.5 462.5,-716.5 43.5,-716.5"/>
            <text text-anchor="start" x="50.5" y="-727.9" font-family="Arial" font-size="14.00" fill="#000000">
                started_at
            </text>
            <text text-anchor="start" x="116.636" y="-727.9" font-family="Arial" font-size="14.00" fill="#666666">
                [datetime(6)]
            </text>
            <polygon fill="none" stroke="#000000"
                     points="43.5,-686.5 43.5,-716.5 462.5,-716.5 462.5,-686.5 43.5,-686.5"/>
            <text text-anchor="start" x="50.5" y="-697.9" font-family="Arial" font-size="14.00" fill="#000000">
                finished_at
            </text>
            <text text-anchor="start" x="122.0806" y="-697.9" font-family="Arial" font-size="14.00" fill="#666666">
                [datetime(6)]
            </text>
        </g>
        <!-- artifacts&#45;&gt;build_logs -->
        <g id="edge2" class="edge">
            <title>artifacts:build_log_id&#45;&gt;build_logs:id</title>
            <path fill="none" stroke="#000000"
                  d="M348.7853,-1127.5985C401.2193,-1117.732 377.1619,-1029.2675 338.5,-981 254.5072,-876.1392 127.4928,-1019.8608 43.5,-915 17.5208,-882.5663 1.9444,-821.5 43.5,-821.5"/>
            <polygon fill="#000000" stroke="#000000"
                     points="348.4618,-1127.6268 338.1071,-1124.0172 343.4809,-1128.0634 338.5,-1128.5 338.5,-1128.5 338.5,-1128.5 343.4809,-1128.0634 338.8929,-1132.9828 348.4618,-1127.6268 348.4618,-1127.6268"/>
            <text text-anchor="start" x="64.881" y="-1138.5" font-family="Arial" font-size="10.00" fill="#000000">
                FOREIGN KEY (build_log_id) REFERENCES build_logs (id)
            </text>
        </g>
        <!-- build_logs&#45;&gt;applications -->
        <g id="edge3" class="edge">
            <title>build_logs:application_id&#45;&gt;applications:id</title>
            <path fill="none" stroke="#000000"
                  d="M472.7903,-790.5945C525.2782,-780.6843 501.6817,-691.8464 462.5,-644 411.0864,-581.2168 334.9136,-670.7832 283.5,-608 257.1715,-575.8492 241.9444,-514.5 283.5,-514.5"/>
            <polygon fill="#000000" stroke="#000000"
                     points="472.4615,-790.6233 462.1055,-787.0173 467.4808,-791.0617 462.5,-791.5 462.5,-791.5 462.5,-791.5 467.4808,-791.0617 462.8945,-795.9827 472.4615,-790.6233 472.4615,-790.6233"/>
            <text text-anchor="start" x="469.102" y="-801.5" font-family="Arial" font-size="10.00" fill="#000000">
                FOREIGN KEY (application_id) REFERENCES applications (id)
            </text>
        </g>
        <!-- websites -->
        <g id="node5" class="node">
            <title>websites</title>
            <polygon fill="#efefef" stroke="transparent"
                     points="442.5,-1203.5 442.5,-1238.5 624.5,-1238.5 624.5,-1203.5 442.5,-1203.5"/>
            <polygon fill="none" stroke="#000000"
                     points="442.5,-1203.5 442.5,-1238.5 624.5,-1238.5 624.5,-1203.5 442.5,-1203.5"/>
            <text text-anchor="start" x="449.8685" y="-1216.3" font-family="Arial Bold" font-size="18.00"
                  fill="#000000">websites
            </text>
            <text text-anchor="start" x="519.8777" y="-1216.3" font-family="Arial" font-size="14.00"
                  fill="#000000"></text>
            <text text-anchor="start" x="523.7683" y="-1216.3" font-family="Arial" font-size="14.00" fill="#666666">
                [BASE TABLE]
            </text>
            <polygon fill="none" stroke="#000000"
                     points="442.5,-1173.5 442.5,-1203.5 624.5,-1203.5 624.5,-1173.5 442.5,-1173.5"/>
            <text text-anchor="start" x="449.5" y="-1184.9" font-family="Arial" font-size="14.00" fill="#000000">id
            </text>
            <text text-anchor="start" x="464.2798" y="-1184.9" font-family="Arial" font-size="14.00" fill="#666666">
                [varchar(22)]
            </text>
            <polygon fill="none" stroke="#000000"
                     points="442.5,-1143.5 442.5,-1173.5 624.5,-1173.5 624.5,-1143.5 442.5,-1143.5"/>
            <text text-anchor="start" x="449.5" y="-1154.9" font-family="Arial" font-size="14.00" fill="#000000">fqdn
            </text>
            <text text-anchor="start" x="480.629" y="-1154.9" font-family="Arial" font-size="14.00" fill="#666666">
                [varchar(50)]
            </text>
            <polygon fill="none" stroke="#000000"
                     points="442.5,-1113.5 442.5,-1143.5 624.5,-1143.5 624.5,-1113.5 442.5,-1113.5"/>
            <text text-anchor="start" x="449.0975" y="-1124.9" font-family="Arial" font-size="14.00" fill="#000000">
                application_id
            </text>
            <text text-anchor="start" x="538.5659" y="-1124.9" font-family="Arial" font-size="14.00" fill="#666666">
                [varchar(22)]
            </text>
            <polygon fill="none" stroke="#000000"
                     points="442.5,-1083.5 442.5,-1113.5 624.5,-1113.5 624.5,-1083.5 442.5,-1083.5"/>
            <text text-anchor="start" x="449.5" y="-1094.9" font-family="Arial" font-size="14.00" fill="#000000">
                build_id
            </text>
            <text text-anchor="start" x="501.6234" y="-1094.9" font-family="Arial" font-size="14.00" fill="#666666">
                [varchar(22)]
            </text>
            <polygon fill="none" stroke="#000000"
                     points="442.5,-1053.5 442.5,-1083.5 624.5,-1083.5 624.5,-1053.5 442.5,-1053.5"/>
            <text text-anchor="start" x="449.5" y="-1064.9" font-family="Arial" font-size="14.00" fill="#000000">
                http_port
            </text>
            <text text-anchor="start" x="508.636" y="-1064.9" font-family="Arial" font-size="14.00" fill="#666666">
                [int(11)]
            </text>
            <polygon fill="none" stroke="#000000"
                     points="442.5,-1023.5 442.5,-1053.5 624.5,-1053.5 624.5,-1023.5 442.5,-1023.5"/>
            <text text-anchor="start" x="449.5" y="-1034.9" font-family="Arial" font-size="14.00" fill="#000000">
                created_at
            </text>
            <text text-anchor="start" x="519.528" y="-1034.9" font-family="Arial" font-size="14.00" fill="#666666">
                [datetime(6)]
            </text>
            <polygon fill="none" stroke="#000000"
                     points="442.5,-993.5 442.5,-1023.5 624.5,-1023.5 624.5,-993.5 442.5,-993.5"/>
            <text text-anchor="start" x="449.5" y="-1004.9" font-family="Arial" font-size="14.00" fill="#000000">
                updated_at
            </text>
            <text text-anchor="start" x="523.4326" y="-1004.9" font-family="Arial" font-size="14.00" fill="#666666">
                [datetime(6)]
            </text>
        </g>
        <!-- websites&#45;&gt;applications -->
        <g id="edge4" class="edge">
            <title>websites:application_id&#45;&gt;applications:id</title>
            <path fill="none" stroke="#000000"
                  d="M634.5941,-1127.3326C757.4125,-1097.7161 639.0376,-514.5 503.5,-514.5"/>
            <polygon fill="#000000" stroke="#000000"
                     points="634.4338,-1127.351 623.983,-1124.0298 629.4669,-1127.9255 624.5,-1128.5 624.5,-1128.5 624.5,-1128.5 629.4669,-1127.9255 625.017,-1132.9702 634.4338,-1127.351 634.4338,-1127.351"/>
            <text text-anchor="start" x="631.102" y="-1138.5" font-family="Arial" font-size="10.00" fill="#000000">
                FOREIGN KEY (application_id) REFERENCES applications (id)
            </text>
        </g>
        <!-- websites&#45;&gt;build_logs -->
        <g id="edge5" class="edge">
            <title>websites:build_id&#45;&gt;build_logs:id</title>
            <path fill="none" stroke="#000000"
                  d="M432.4375,-1097.7102C382.4031,-1089.0458 426.9874,-1010.8652 442.5,-951 447.0912,-933.2818 457.9088,-932.7182 462.5,-915 472.9238,-874.773 504.0556,-821.5 462.5,-821.5"/>
            <polygon fill="#000000" stroke="#000000"
                     points="432.5307,-1097.7174 442.1478,-1102.9862 437.5153,-1098.1087 442.5,-1098.5 442.5,-1098.5 442.5,-1098.5 437.5153,-1098.1087 442.8522,-1094.0138 432.5307,-1097.7174 432.5307,-1097.7174"/>
            <text text-anchor="start" x="449.329" y="-1108.5" font-family="Arial" font-size="10.00" fill="#000000">
                FOREIGN KEY (build_id) REFERENCES build_logs (id)
            </text>
        </g>
    </g>
</svg>
