<?xml version="1.0" encoding="UTF-8" standalone="no"?>
<!DOCTYPE svg PUBLIC "-//W3C//DTD SVG 1.1//EN"
 "http://www.w3.org/Graphics/SVG/1.1/DTD/svg11.dtd">
<!-- Generated by graphviz version 2.40.1 (20161225.0304)
 -->
<!-- Title: neoshowcase Pages: 1 -->
<svg width="2381pt" height="1410pt"
 viewBox="0.00 0.00 2381.00 1410.00" xmlns="http://www.w3.org/2000/svg" xmlns:xlink="http://www.w3.org/1999/xlink">
<g id="graph0" class="graph" transform="scale(1 1) rotate(0) translate(4 1406)">
<title>neoshowcase</title>
<polygon fill="#ffffff" stroke="transparent" points="-4,4 -4,-1406 2377,-1406 2377,4 -4,4"/>
<!-- applications -->
<g id="node1" class="node">
<title>applications</title>
<polygon fill="#efefef" stroke="transparent" points="1142.5,-589.5 1142.5,-624.5 1371.5,-624.5 1371.5,-589.5 1142.5,-589.5"/>
<polygon fill="none" stroke="#000000" points="1142.5,-589.5 1142.5,-624.5 1371.5,-624.5 1371.5,-589.5 1142.5,-589.5"/>
<text text-anchor="start" x="1160.8621" y="-602.3" font-family="Arial Bold" font-size="18.00" fill="#000000">applications</text>
<text text-anchor="start" x="1255.8841" y="-602.3" font-family="Arial" font-size="14.00" fill="#000000"> </text>
<text text-anchor="start" x="1259.7747" y="-602.3" font-family="Arial" font-size="14.00" fill="#666666">[BASE TABLE]</text>
<polygon fill="none" stroke="#000000" points="1142.5,-559.5 1142.5,-589.5 1371.5,-589.5 1371.5,-559.5 1142.5,-559.5"/>
<text text-anchor="start" x="1149.5" y="-570.9" font-family="Arial" font-size="14.00" fill="#000000">id </text>
<text text-anchor="start" x="1164.2798" y="-570.9" font-family="Arial" font-size="14.00" fill="#666666">[char(22)]</text>
<polygon fill="none" stroke="#000000" points="1142.5,-529.5 1142.5,-559.5 1371.5,-559.5 1371.5,-529.5 1142.5,-529.5"/>
<text text-anchor="start" x="1149.5" y="-540.9" font-family="Arial" font-size="14.00" fill="#000000">name </text>
<text text-anchor="start" x="1188.399" y="-540.9" font-family="Arial" font-size="14.00" fill="#666666">[varchar(100)]</text>
<polygon fill="none" stroke="#000000" points="1142.5,-499.5 1142.5,-529.5 1371.5,-529.5 1371.5,-499.5 1142.5,-499.5"/>
<text text-anchor="start" x="1149.5" y="-510.9" font-family="Arial" font-size="14.00" fill="#000000">repository_id </text>
<text text-anchor="start" x="1233.5112" y="-510.9" font-family="Arial" font-size="14.00" fill="#666666">[varchar(22)]</text>
<polygon fill="none" stroke="#000000" points="1142.5,-469.5 1142.5,-499.5 1371.5,-499.5 1371.5,-469.5 1142.5,-469.5"/>
<text text-anchor="start" x="1149.5" y="-480.9" font-family="Arial" font-size="14.00" fill="#000000">ref_name </text>
<text text-anchor="start" x="1212.5154" y="-480.9" font-family="Arial" font-size="14.00" fill="#666666">[varchar(100)]</text>
<polygon fill="none" stroke="#000000" points="1142.5,-439.5 1142.5,-469.5 1371.5,-469.5 1371.5,-439.5 1142.5,-439.5"/>
<text text-anchor="start" x="1149.3008" y="-450.9" font-family="Arial" font-size="14.00" fill="#000000">build_type </text>
<text text-anchor="start" x="1216.9908" y="-450.9" font-family="Arial" font-size="14.00" fill="#666666">[enum(&#39;runtime&#39;,&#39;static&#39;)]</text>
<polygon fill="none" stroke="#000000" points="1142.5,-409.5 1142.5,-439.5 1371.5,-439.5 1371.5,-409.5 1142.5,-409.5"/>
<text text-anchor="start" x="1149.5" y="-420.9" font-family="Arial" font-size="14.00" fill="#000000">running </text>
<text text-anchor="start" x="1200.0708" y="-420.9" font-family="Arial" font-size="14.00" fill="#666666">[tinyint(1)]</text>
<polygon fill="none" stroke="#000000" points="1142.5,-379.5 1142.5,-409.5 1371.5,-409.5 1371.5,-379.5 1142.5,-379.5"/>
<text text-anchor="start" x="1149.5" y="-390.9" font-family="Arial" font-size="14.00" fill="#000000">current_commit </text>
<text text-anchor="start" x="1249.8338" y="-390.9" font-family="Arial" font-size="14.00" fill="#666666">[char(40)]</text>
<polygon fill="none" stroke="#000000" points="1142.5,-349.5 1142.5,-379.5 1371.5,-379.5 1371.5,-349.5 1142.5,-349.5"/>
<text text-anchor="start" x="1149.5" y="-360.9" font-family="Arial" font-size="14.00" fill="#000000">want_commit </text>
<text text-anchor="start" x="1235.8366" y="-360.9" font-family="Arial" font-size="14.00" fill="#666666">[char(40)]</text>
<polygon fill="none" stroke="#000000" points="1142.5,-319.5 1142.5,-349.5 1371.5,-349.5 1371.5,-319.5 1142.5,-319.5"/>
<text text-anchor="start" x="1149.5" y="-330.9" font-family="Arial" font-size="14.00" fill="#000000">created_at </text>
<text text-anchor="start" x="1219.528" y="-330.9" font-family="Arial" font-size="14.00" fill="#666666">[datetime(6)]</text>
<polygon fill="none" stroke="#000000" points="1142.5,-289.5 1142.5,-319.5 1371.5,-319.5 1371.5,-289.5 1142.5,-289.5"/>
<text text-anchor="start" x="1149.5" y="-300.9" font-family="Arial" font-size="14.00" fill="#000000">updated_at </text>
<text text-anchor="start" x="1223.4326" y="-300.9" font-family="Arial" font-size="14.00" fill="#666666">[datetime(6)]</text>
</g>
<!-- repositories -->
<g id="node8" class="node">
<title>repositories</title>
<polygon fill="#efefef" stroke="transparent" points="247.5,-132.5 247.5,-167.5 451.5,-167.5 451.5,-132.5 247.5,-132.5"/>
<polygon fill="none" stroke="#000000" points="247.5,-132.5 247.5,-167.5 451.5,-167.5 451.5,-132.5 247.5,-132.5"/>
<text text-anchor="start" x="254.3701" y="-145.3" font-family="Arial Bold" font-size="18.00" fill="#000000">repositories</text>
<text text-anchor="start" x="347.3761" y="-145.3" font-family="Arial" font-size="14.00" fill="#000000"> </text>
<text text-anchor="start" x="351.2667" y="-145.3" font-family="Arial" font-size="14.00" fill="#666666">[BASE TABLE]</text>
<polygon fill="none" stroke="#000000" points="247.5,-102.5 247.5,-132.5 451.5,-132.5 451.5,-102.5 247.5,-102.5"/>
<text text-anchor="start" x="254.5" y="-113.9" font-family="Arial" font-size="14.00" fill="#000000">id </text>
<text text-anchor="start" x="269.2798" y="-113.9" font-family="Arial" font-size="14.00" fill="#666666">[char(22)]</text>
<polygon fill="none" stroke="#000000" points="247.5,-72.5 247.5,-102.5 451.5,-102.5 451.5,-72.5 247.5,-72.5"/>
<text text-anchor="start" x="254.5" y="-83.9" font-family="Arial" font-size="14.00" fill="#000000">name </text>
<text text-anchor="start" x="293.399" y="-83.9" font-family="Arial" font-size="14.00" fill="#666666">[varchar(256)]</text>
<polygon fill="none" stroke="#000000" points="247.5,-42.5 247.5,-72.5 451.5,-72.5 451.5,-42.5 247.5,-42.5"/>
<text text-anchor="start" x="254.5" y="-53.9" font-family="Arial" font-size="14.00" fill="#000000">url </text>
<text text-anchor="start" x="273.9404" y="-53.9" font-family="Arial" font-size="14.00" fill="#666666">[varchar(256)]</text>
</g>
<!-- applications&#45;&gt;repositories -->
<g id="edge1" class="edge">
<title>applications:repository_id&#45;&gt;repositories:id</title>
<path fill="none" stroke="#000000" d="M1132.4832,-514.3927C788.6082,-506.9759 802.3166,-117.5 451.5,-117.5"/>
<polygon fill="#000000" stroke="#000000" points="1132.5006,-514.3928 1142.4518,-518.9997 1137.5003,-514.4464 1142.5,-514.5 1142.5,-514.5 1142.5,-514.5 1137.5003,-514.4464 1142.5482,-510.0003 1132.5006,-514.3928 1132.5006,-514.3928"/>
<text text-anchor="start" x="858.611" y="-524.5" font-family="Arial" font-size="10.00" fill="#000000">FOREIGN KEY (repository_id) REFERENCES repositories (id)</text>
</g>
<!-- application_config -->
<g id="node2" class="node">
<title>application_config</title>
<polygon fill="#efefef" stroke="transparent" points="898.5,-1016.5 898.5,-1051.5 1153.5,-1051.5 1153.5,-1016.5 898.5,-1016.5"/>
<polygon fill="none" stroke="#000000" points="898.5,-1016.5 898.5,-1051.5 1153.5,-1051.5 1153.5,-1016.5 898.5,-1016.5"/>
<text text-anchor="start" x="905.3515" y="-1029.3" font-family="Arial Bold" font-size="18.00" fill="#000000">application_config</text>
<text text-anchor="start" x="1049.3947" y="-1029.3" font-family="Arial" font-size="14.00" fill="#000000"> </text>
<text text-anchor="start" x="1053.2853" y="-1029.3" font-family="Arial" font-size="14.00" fill="#666666">[BASE TABLE]</text>
<polygon fill="none" stroke="#000000" points="898.5,-986.5 898.5,-1016.5 1153.5,-1016.5 1153.5,-986.5 898.5,-986.5"/>
<text text-anchor="start" x="905.5" y="-997.9" font-family="Arial" font-size="14.00" fill="#000000">application_id </text>
<text text-anchor="start" x="994.9684" y="-997.9" font-family="Arial" font-size="14.00" fill="#666666">[char(22)]</text>
<polygon fill="none" stroke="#000000" points="898.5,-956.5 898.5,-986.5 1153.5,-986.5 1153.5,-956.5 898.5,-956.5"/>
<text text-anchor="start" x="905.5" y="-967.9" font-family="Arial" font-size="14.00" fill="#000000">use_mariadb </text>
<text text-anchor="start" x="990.2966" y="-967.9" font-family="Arial" font-size="14.00" fill="#666666">[tinyint(1)]</text>
<polygon fill="none" stroke="#000000" points="898.5,-926.5 898.5,-956.5 1153.5,-956.5 1153.5,-926.5 898.5,-926.5"/>
<text text-anchor="start" x="905.5" y="-937.9" font-family="Arial" font-size="14.00" fill="#000000">use_mongodb </text>
<text text-anchor="start" x="998.0946" y="-937.9" font-family="Arial" font-size="14.00" fill="#666666">[tinyint(1)]</text>
<polygon fill="none" stroke="#000000" points="898.5,-896.5 898.5,-926.5 1153.5,-926.5 1153.5,-896.5 898.5,-896.5"/>
<text text-anchor="start" x="905.5" y="-907.9" font-family="Arial" font-size="14.00" fill="#000000">base_image </text>
<text text-anchor="start" x="985.636" y="-907.9" font-family="Arial" font-size="14.00" fill="#666666">[varchar(1000)]</text>
<polygon fill="none" stroke="#000000" points="898.5,-866.5 898.5,-896.5 1153.5,-896.5 1153.5,-866.5 898.5,-866.5"/>
<text text-anchor="start" x="905.5" y="-877.9" font-family="Arial" font-size="14.00" fill="#000000">dockerfile_name </text>
<text text-anchor="start" x="1012.0764" y="-877.9" font-family="Arial" font-size="14.00" fill="#666666">[varchar(100)]</text>
<polygon fill="none" stroke="#000000" points="898.5,-836.5 898.5,-866.5 1153.5,-866.5 1153.5,-836.5 898.5,-836.5"/>
<text text-anchor="start" x="905.5" y="-847.9" font-family="Arial" font-size="14.00" fill="#000000">artifact_path </text>
<text text-anchor="start" x="986.4158" y="-847.9" font-family="Arial" font-size="14.00" fill="#666666">[varchar(100)]</text>
<polygon fill="none" stroke="#000000" points="898.5,-806.5 898.5,-836.5 1153.5,-836.5 1153.5,-806.5 898.5,-806.5"/>
<text text-anchor="start" x="905.5" y="-817.9" font-family="Arial" font-size="14.00" fill="#000000">build_cmd </text>
<text text-anchor="start" x="973.1774" y="-817.9" font-family="Arial" font-size="14.00" fill="#666666">[text]</text>
<polygon fill="none" stroke="#000000" points="898.5,-776.5 898.5,-806.5 1153.5,-806.5 1153.5,-776.5 898.5,-776.5"/>
<text text-anchor="start" x="905.5" y="-787.9" font-family="Arial" font-size="14.00" fill="#000000">entrypoint_cmd </text>
<text text-anchor="start" x="1005.0778" y="-787.9" font-family="Arial" font-size="14.00" fill="#666666">[text]</text>
<polygon fill="none" stroke="#000000" points="898.5,-746.5 898.5,-776.5 1153.5,-776.5 1153.5,-746.5 898.5,-746.5"/>
<text text-anchor="start" x="905.5" y="-757.9" font-family="Arial" font-size="14.00" fill="#000000">authentication </text>
<text text-anchor="start" x="996.5364" y="-757.9" font-family="Arial" font-size="14.00" fill="#666666">[enum(&#39;off&#39;,&#39;soft&#39;,&#39;hard&#39;)]</text>
</g>
<!-- application_config&#45;&gt;applications -->
<g id="edge2" class="edge">
<title>application_config:application_id&#45;&gt;applications:id</title>
<path fill="none" stroke="#000000" d="M1163.5859,-999.3385C1213.3778,-975.7407 1162.7134,-765.6822 1153.5,-704 1151.0284,-687.4533 1144.9716,-684.5467 1142.5,-668 1136.361,-626.9004 1100.9444,-574.5 1142.5,-574.5"/>
<polygon fill="#000000" stroke="#000000" points="1163.278,-999.4044 1152.557,-997.0999 1158.389,-1000.4522 1153.5,-1001.5 1153.5,-1001.5 1153.5,-1001.5 1158.389,-1000.4522 1154.443,-1005.9001 1163.278,-999.4044 1163.278,-999.4044"/>
<text text-anchor="start" x="1160.102" y="-1011.5" font-family="Arial" font-size="10.00" fill="#000000">FOREIGN KEY (application_id) REFERENCES applications (id)</text>
</g>
<!-- application_owners -->
<g id="node3" class="node">
<title>application_owners</title>
<polygon fill="#efefef" stroke="transparent" points="529.5,-911.5 529.5,-946.5 794.5,-946.5 794.5,-911.5 529.5,-911.5"/>
<polygon fill="none" stroke="#000000" points="529.5,-911.5 529.5,-946.5 794.5,-946.5 794.5,-911.5 529.5,-911.5"/>
<text text-anchor="start" x="536.3565" y="-924.3" font-family="Arial Bold" font-size="18.00" fill="#000000">application_owners</text>
<text text-anchor="start" x="690.3897" y="-924.3" font-family="Arial" font-size="14.00" fill="#000000"> </text>
<text text-anchor="start" x="694.2803" y="-924.3" font-family="Arial" font-size="14.00" fill="#666666">[BASE TABLE]</text>
<polygon fill="none" stroke="#000000" points="529.5,-881.5 529.5,-911.5 794.5,-911.5 794.5,-881.5 529.5,-881.5"/>
<text text-anchor="start" x="536.5" y="-892.9" font-family="Arial" font-size="14.00" fill="#000000">user_id </text>
<text text-anchor="start" x="586.2882" y="-892.9" font-family="Arial" font-size="14.00" fill="#666666">[char(22)]</text>
<polygon fill="none" stroke="#000000" points="529.5,-851.5 529.5,-881.5 794.5,-881.5 794.5,-851.5 529.5,-851.5"/>
<text text-anchor="start" x="536.5" y="-862.9" font-family="Arial" font-size="14.00" fill="#000000">application_id </text>
<text text-anchor="start" x="625.9684" y="-862.9" font-family="Arial" font-size="14.00" fill="#666666">[char(22)]</text>
</g>
<!-- application_owners&#45;&gt;applications -->
<g id="edge3" class="edge">
<title>application_owners:application_id&#45;&gt;applications:id</title>
<path fill="none" stroke="#000000" d="M804.5406,-865.7587C863.1441,-856.249 797.3856,-757.5625 845.5,-704 941.7309,-596.8727 998.4978,-574.5 1142.5,-574.5"/>
<polygon fill="#000000" stroke="#000000" points="804.4729,-865.7636 794.1686,-862.0122 799.4864,-866.1318 794.5,-866.5 794.5,-866.5 794.5,-866.5 799.4864,-866.1318 794.8314,-870.9878 804.4729,-865.7636 804.4729,-865.7636"/>
<text text-anchor="start" x="801.102" y="-876.5" font-family="Arial" font-size="10.00" fill="#000000">FOREIGN KEY (application_id) REFERENCES applications (id)</text>
</g>
<!-- users -->
<g id="node11" class="node">
<title>users</title>
<polygon fill="#efefef" stroke="transparent" points="476.5,-484.5 476.5,-519.5 631.5,-519.5 631.5,-484.5 476.5,-484.5"/>
<polygon fill="none" stroke="#000000" points="476.5,-484.5 476.5,-519.5 631.5,-519.5 631.5,-484.5 476.5,-484.5"/>
<text text-anchor="start" x="483.3708" y="-497.3" font-family="Arial Bold" font-size="18.00" fill="#000000">users</text>
<text text-anchor="start" x="527.3754" y="-497.3" font-family="Arial" font-size="14.00" fill="#000000"> </text>
<text text-anchor="start" x="531.266" y="-497.3" font-family="Arial" font-size="14.00" fill="#666666">[BASE TABLE]</text>
<polygon fill="none" stroke="#000000" points="476.5,-454.5 476.5,-484.5 631.5,-484.5 631.5,-454.5 476.5,-454.5"/>
<text text-anchor="start" x="483.5" y="-465.9" font-family="Arial" font-size="14.00" fill="#000000">id </text>
<text text-anchor="start" x="498.2798" y="-465.9" font-family="Arial" font-size="14.00" fill="#666666">[char(22)]</text>
<polygon fill="none" stroke="#000000" points="476.5,-424.5 476.5,-454.5 631.5,-454.5 631.5,-424.5 476.5,-424.5"/>
<text text-anchor="start" x="483.5" y="-435.9" font-family="Arial" font-size="14.00" fill="#000000">name </text>
<text text-anchor="start" x="522.399" y="-435.9" font-family="Arial" font-size="14.00" fill="#666666">[varchar(255)]</text>
<polygon fill="none" stroke="#000000" points="476.5,-394.5 476.5,-424.5 631.5,-424.5 631.5,-394.5 476.5,-394.5"/>
<text text-anchor="start" x="483.5" y="-405.9" font-family="Arial" font-size="14.00" fill="#000000">admin </text>
<text text-anchor="start" x="525.5056" y="-405.9" font-family="Arial" font-size="14.00" fill="#666666">[tinyint(1)]</text>
</g>
<!-- application_owners&#45;&gt;users -->
<g id="edge4" class="edge">
<title>application_owners:user_id&#45;&gt;users:id</title>
<path fill="none" stroke="#000000" d="M519.3401,-896.0644C352.4127,-880.8013 822.9968,-469.5 631.5,-469.5"/>
<polygon fill="#000000" stroke="#000000" points="519.5092,-896.0716 529.3072,-900.9959 524.5046,-896.2858 529.5,-896.5 529.5,-896.5 529.5,-896.5 524.5046,-896.2858 529.6928,-892.0041 519.5092,-896.0716 519.5092,-896.0716"/>
<text text-anchor="start" x="476.445" y="-880.5" font-family="Arial" font-size="10.00" fill="#000000">FOREIGN KEY (user_id) REFERENCES users (id)</text>
</g>
<!-- artifacts -->
<g id="node4" class="node">
<title>artifacts</title>
<polygon fill="#efefef" stroke="transparent" points="1402.5,-1323.5 1402.5,-1358.5 1576.5,-1358.5 1576.5,-1323.5 1402.5,-1323.5"/>
<polygon fill="none" stroke="#000000" points="1402.5,-1323.5 1402.5,-1358.5 1576.5,-1358.5 1576.5,-1323.5 1402.5,-1323.5"/>
<text text-anchor="start" x="1409.3704" y="-1336.3" font-family="Arial Bold" font-size="18.00" fill="#000000">artifacts</text>
<text text-anchor="start" x="1472.3758" y="-1336.3" font-family="Arial" font-size="14.00" fill="#000000"> </text>
<text text-anchor="start" x="1476.2664" y="-1336.3" font-family="Arial" font-size="14.00" fill="#666666">[BASE TABLE]</text>
<polygon fill="none" stroke="#000000" points="1402.5,-1293.5 1402.5,-1323.5 1576.5,-1323.5 1576.5,-1293.5 1402.5,-1293.5"/>
<text text-anchor="start" x="1409.5" y="-1304.9" font-family="Arial" font-size="14.00" fill="#000000">id </text>
<text text-anchor="start" x="1424.2798" y="-1304.9" font-family="Arial" font-size="14.00" fill="#666666">[char(22)]</text>
<polygon fill="none" stroke="#000000" points="1402.5,-1263.5 1402.5,-1293.5 1576.5,-1293.5 1576.5,-1263.5 1402.5,-1263.5"/>
<text text-anchor="start" x="1409.5" y="-1274.9" font-family="Arial" font-size="14.00" fill="#000000">size </text>
<text text-anchor="start" x="1438.2798" y="-1274.9" font-family="Arial" font-size="14.00" fill="#666666">[bigint(20)]</text>
<polygon fill="none" stroke="#000000" points="1402.5,-1233.5 1402.5,-1263.5 1576.5,-1263.5 1576.5,-1233.5 1402.5,-1233.5"/>
<text text-anchor="start" x="1409.5" y="-1244.9" font-family="Arial" font-size="14.00" fill="#000000">created_at </text>
<text text-anchor="start" x="1479.528" y="-1244.9" font-family="Arial" font-size="14.00" fill="#666666">[datetime(6)]</text>
<polygon fill="none" stroke="#000000" points="1402.5,-1203.5 1402.5,-1233.5 1576.5,-1233.5 1576.5,-1203.5 1402.5,-1203.5"/>
<text text-anchor="start" x="1409.5" y="-1214.9" font-family="Arial" font-size="14.00" fill="#000000">deleted_at </text>
<text text-anchor="start" x="1478.7566" y="-1214.9" font-family="Arial" font-size="14.00" fill="#666666">[datetime(6)]</text>
<polygon fill="none" stroke="#000000" points="1402.5,-1173.5 1402.5,-1203.5 1576.5,-1203.5 1576.5,-1173.5 1402.5,-1173.5"/>
<text text-anchor="start" x="1409.5" y="-1184.9" font-family="Arial" font-size="14.00" fill="#000000">build_id </text>
<text text-anchor="start" x="1461.6234" y="-1184.9" font-family="Arial" font-size="14.00" fill="#666666">[varchar(22)]</text>
</g>
<!-- builds -->
<g id="node6" class="node">
<title>builds</title>
<polygon fill="#efefef" stroke="transparent" points="1257.5,-1001.5 1257.5,-1036.5 1721.5,-1036.5 1721.5,-1001.5 1257.5,-1001.5"/>
<polygon fill="none" stroke="#000000" points="1257.5,-1001.5 1257.5,-1036.5 1721.5,-1036.5 1721.5,-1001.5 1257.5,-1001.5"/>
<text text-anchor="start" x="1417.3696" y="-1014.3" font-family="Arial Bold" font-size="18.00" fill="#000000">builds</text>
<text text-anchor="start" x="1464.3766" y="-1014.3" font-family="Arial" font-size="14.00" fill="#000000"> </text>
<text text-anchor="start" x="1468.2672" y="-1014.3" font-family="Arial" font-size="14.00" fill="#666666">[BASE TABLE]</text>
<polygon fill="none" stroke="#000000" points="1257.5,-971.5 1257.5,-1001.5 1721.5,-1001.5 1721.5,-971.5 1257.5,-971.5"/>
<text text-anchor="start" x="1264.5" y="-982.9" font-family="Arial" font-size="14.00" fill="#000000">id </text>
<text text-anchor="start" x="1279.2798" y="-982.9" font-family="Arial" font-size="14.00" fill="#666666">[char(22)]</text>
<polygon fill="none" stroke="#000000" points="1257.5,-941.5 1257.5,-971.5 1721.5,-971.5 1721.5,-941.5 1257.5,-941.5"/>
<text text-anchor="start" x="1264.5" y="-952.9" font-family="Arial" font-size="14.00" fill="#000000">commit </text>
<text text-anchor="start" x="1313.4916" y="-952.9" font-family="Arial" font-size="14.00" fill="#666666">[char(40)]</text>
<polygon fill="none" stroke="#000000" points="1257.5,-911.5 1257.5,-941.5 1721.5,-941.5 1721.5,-911.5 1257.5,-911.5"/>
<text text-anchor="start" x="1264.3779" y="-922.9" font-family="Arial" font-size="14.00" fill="#000000">status </text>
<text text-anchor="start" x="1305.6149" y="-922.9" font-family="Arial" font-size="14.00" fill="#666666">[enum(&#39;building&#39;,&#39;succeeded&#39;,&#39;failed&#39;,&#39;canceled&#39;,&#39;queued&#39;,&#39;skipped&#39;)]</text>
<polygon fill="none" stroke="#000000" points="1257.5,-881.5 1257.5,-911.5 1721.5,-911.5 1721.5,-881.5 1257.5,-881.5"/>
<text text-anchor="start" x="1264.5" y="-892.9" font-family="Arial" font-size="14.00" fill="#000000">started_at </text>
<text text-anchor="start" x="1330.636" y="-892.9" font-family="Arial" font-size="14.00" fill="#666666">[datetime(6)]</text>
<polygon fill="none" stroke="#000000" points="1257.5,-851.5 1257.5,-881.5 1721.5,-881.5 1721.5,-851.5 1257.5,-851.5"/>
<text text-anchor="start" x="1264.5" y="-862.9" font-family="Arial" font-size="14.00" fill="#000000">updated_at </text>
<text text-anchor="start" x="1338.4326" y="-862.9" font-family="Arial" font-size="14.00" fill="#666666">[datetime(6)]</text>
<polygon fill="none" stroke="#000000" points="1257.5,-821.5 1257.5,-851.5 1721.5,-851.5 1721.5,-821.5 1257.5,-821.5"/>
<text text-anchor="start" x="1264.5" y="-832.9" font-family="Arial" font-size="14.00" fill="#000000">finished_at </text>
<text text-anchor="start" x="1336.0806" y="-832.9" font-family="Arial" font-size="14.00" fill="#666666">[datetime(6)]</text>
<polygon fill="none" stroke="#000000" points="1257.5,-791.5 1257.5,-821.5 1721.5,-821.5 1721.5,-791.5 1257.5,-791.5"/>
<text text-anchor="start" x="1264.5" y="-802.9" font-family="Arial" font-size="14.00" fill="#000000">retriable </text>
<text text-anchor="start" x="1318.946" y="-802.9" font-family="Arial" font-size="14.00" fill="#666666">[tinyint(1)]</text>
<polygon fill="none" stroke="#000000" points="1257.5,-761.5 1257.5,-791.5 1721.5,-791.5 1721.5,-761.5 1257.5,-761.5"/>
<text text-anchor="start" x="1264.5" y="-772.9" font-family="Arial" font-size="14.00" fill="#000000">application_id </text>
<text text-anchor="start" x="1353.9684" y="-772.9" font-family="Arial" font-size="14.00" fill="#666666">[char(22)]</text>
</g>
<!-- artifacts&#45;&gt;builds -->
<g id="edge5" class="edge">
<title>artifacts:build_id&#45;&gt;builds:id</title>
<path fill="none" stroke="#000000" d="M1490.0197,-1163.4265C1500.3321,-1069.1977 1661.2992,-1169.1679 1721.5,-1080 1744.7525,-1045.559 1763.0556,-986.5 1721.5,-986.5"/>
<polygon fill="#000000" stroke="#000000" points="1490.0154,-1163.5133 1485.006,-1173.2681 1489.7577,-1168.5066 1489.5,-1173.5 1489.5,-1173.5 1489.5,-1173.5 1489.7577,-1168.5066 1493.994,-1173.7319 1490.0154,-1163.5133 1490.0154,-1163.5133"/>
<text text-anchor="start" x="1253.777" y="-1183.5" font-family="Arial" font-size="10.00" fill="#000000">FOREIGN KEY (build_id) REFERENCES builds (id)</text>
</g>
<!-- available_domains -->
<g id="node5" class="node">
<title>available_domains</title>
<polygon fill="#efefef" stroke="transparent" points="1680.5,-1278.5 1680.5,-1313.5 1940.5,-1313.5 1940.5,-1278.5 1680.5,-1278.5"/>
<polygon fill="none" stroke="#000000" points="1680.5,-1278.5 1680.5,-1313.5 1940.5,-1313.5 1940.5,-1278.5 1680.5,-1278.5"/>
<text text-anchor="start" x="1687.3576" y="-1291.3" font-family="Arial Bold" font-size="18.00" fill="#000000">available_domains</text>
<text text-anchor="start" x="1836.3886" y="-1291.3" font-family="Arial" font-size="14.00" fill="#000000"> </text>
<text text-anchor="start" x="1840.2792" y="-1291.3" font-family="Arial" font-size="14.00" fill="#666666">[BASE TABLE]</text>
<polygon fill="none" stroke="#000000" points="1680.5,-1248.5 1680.5,-1278.5 1940.5,-1278.5 1940.5,-1248.5 1680.5,-1248.5"/>
<text text-anchor="start" x="1687.5" y="-1259.9" font-family="Arial" font-size="14.00" fill="#000000">domain </text>
<text text-anchor="start" x="1737.2882" y="-1259.9" font-family="Arial" font-size="14.00" fill="#666666">[varchar(100)]</text>
<polygon fill="none" stroke="#000000" points="1680.5,-1218.5 1680.5,-1248.5 1940.5,-1248.5 1940.5,-1218.5 1680.5,-1218.5"/>
<text text-anchor="start" x="1687.5" y="-1229.9" font-family="Arial" font-size="14.00" fill="#000000">available </text>
<text text-anchor="start" x="1746.6234" y="-1229.9" font-family="Arial" font-size="14.00" fill="#666666">[tinyint(1)]</text>
</g>
<!-- builds&#45;&gt;applications -->
<g id="edge6" class="edge">
<title>builds:application_id&#45;&gt;applications:id</title>
<path fill="none" stroke="#000000" d="M1247.7723,-773.8123C1235.8295,-765.0627 1245.8809,-736.9268 1257.5,-719 1287.6891,-672.422 1341.3109,-714.578 1371.5,-668 1394.1017,-633.1284 1413.0556,-574.5 1371.5,-574.5"/>
<polygon fill="#000000" stroke="#000000" points="1247.8611,-773.8368 1256.3016,-780.8375 1252.6806,-775.1684 1257.5,-776.5 1257.5,-776.5 1257.5,-776.5 1252.6806,-775.1684 1258.6984,-772.1625 1247.8611,-773.8368 1247.8611,-773.8368"/>
<text text-anchor="start" x="1264.102" y="-786.5" font-family="Arial" font-size="10.00" fill="#000000">FOREIGN KEY (application_id) REFERENCES applications (id)</text>
</g>
<!-- environments -->
<g id="node7" class="node">
<title>environments</title>
<polygon fill="#efefef" stroke="transparent" points="1826.5,-941.5 1826.5,-976.5 2045.5,-976.5 2045.5,-941.5 1826.5,-941.5"/>
<polygon fill="none" stroke="#000000" points="1826.5,-941.5 1826.5,-976.5 2045.5,-976.5 2045.5,-941.5 1826.5,-941.5"/>
<text text-anchor="start" x="1833.3641" y="-954.3" font-family="Arial Bold" font-size="18.00" fill="#000000">environments</text>
<text text-anchor="start" x="1941.3821" y="-954.3" font-family="Arial" font-size="14.00" fill="#000000"> </text>
<text text-anchor="start" x="1945.2727" y="-954.3" font-family="Arial" font-size="14.00" fill="#666666">[BASE TABLE]</text>
<polygon fill="none" stroke="#000000" points="1826.5,-911.5 1826.5,-941.5 2045.5,-941.5 2045.5,-911.5 1826.5,-911.5"/>
<text text-anchor="start" x="1833.5" y="-922.9" font-family="Arial" font-size="14.00" fill="#000000">application_id </text>
<text text-anchor="start" x="1922.9684" y="-922.9" font-family="Arial" font-size="14.00" fill="#666666">[char(22)]</text>
<polygon fill="none" stroke="#000000" points="1826.5,-881.5 1826.5,-911.5 2045.5,-911.5 2045.5,-881.5 1826.5,-881.5"/>
<text text-anchor="start" x="1833.5" y="-892.9" font-family="Arial" font-size="14.00" fill="#000000">key </text>
<text text-anchor="start" x="1859.1732" y="-892.9" font-family="Arial" font-size="14.00" fill="#666666">[varchar(100)]</text>
<polygon fill="none" stroke="#000000" points="1826.5,-851.5 1826.5,-881.5 2045.5,-881.5 2045.5,-851.5 1826.5,-851.5"/>
<text text-anchor="start" x="1833.5" y="-862.9" font-family="Arial" font-size="14.00" fill="#000000">value </text>
<text text-anchor="start" x="1870.845" y="-862.9" font-family="Arial" font-size="14.00" fill="#666666">[text]</text>
<polygon fill="none" stroke="#000000" points="1826.5,-821.5 1826.5,-851.5 2045.5,-851.5 2045.5,-821.5 1826.5,-821.5"/>
<text text-anchor="start" x="1833.5" y="-832.9" font-family="Arial" font-size="14.00" fill="#000000">system </text>
<text text-anchor="start" x="1881.7244" y="-832.9" font-family="Arial" font-size="14.00" fill="#666666">[tinyint(1)]</text>
</g>
<!-- environments&#45;&gt;applications -->
<g id="edge7" class="edge">
<title>environments:application_id&#45;&gt;applications:id</title>
<path fill="none" stroke="#000000" d="M1816.3206,-925.9312C1733.1053,-915.9092 1840.0373,-775.9261 1773.5,-704 1709.7662,-635.1044 1465.3542,-574.5 1371.5,-574.5"/>
<polygon fill="#000000" stroke="#000000" points="1816.5156,-925.942 1826.2489,-930.993 1821.5078,-926.221 1826.5,-926.5 1826.5,-926.5 1826.5,-926.5 1821.5078,-926.221 1826.7511,-922.007 1816.5156,-925.942 1816.5156,-925.942"/>
<text text-anchor="start" x="1611.102" y="-910.5" font-family="Arial" font-size="10.00" fill="#000000">FOREIGN KEY (application_id) REFERENCES applications (id)</text>
</g>
<!-- repository_auth -->
<g id="node9" class="node">
<title>repository_auth</title>
<polygon fill="#efefef" stroke="transparent" points="43.5,-514.5 43.5,-549.5 278.5,-549.5 278.5,-514.5 43.5,-514.5"/>
<polygon fill="none" stroke="#000000" points="43.5,-514.5 43.5,-549.5 278.5,-549.5 278.5,-514.5 43.5,-514.5"/>
<text text-anchor="start" x="50.3568" y="-527.3" font-family="Arial Bold" font-size="18.00" fill="#000000">repository_auth</text>
<text text-anchor="start" x="174.3894" y="-527.3" font-family="Arial" font-size="14.00" fill="#000000"> </text>
<text text-anchor="start" x="178.28" y="-527.3" font-family="Arial" font-size="14.00" fill="#666666">[BASE TABLE]</text>
<polygon fill="none" stroke="#000000" points="43.5,-484.5 43.5,-514.5 278.5,-514.5 278.5,-484.5 43.5,-484.5"/>
<text text-anchor="start" x="50.5" y="-495.9" font-family="Arial" font-size="14.00" fill="#000000">repository_id </text>
<text text-anchor="start" x="134.5112" y="-495.9" font-family="Arial" font-size="14.00" fill="#666666">[char(22)]</text>
<polygon fill="none" stroke="#000000" points="43.5,-454.5 43.5,-484.5 278.5,-484.5 278.5,-454.5 43.5,-454.5"/>
<text text-anchor="start" x="50.5" y="-465.9" font-family="Arial" font-size="14.00" fill="#000000">method </text>
<text text-anchor="start" x="101.0722" y="-465.9" font-family="Arial" font-size="14.00" fill="#666666">[enum(&#39;basic&#39;,&#39;ssh&#39;)]</text>
<polygon fill="none" stroke="#000000" points="43.5,-424.5 43.5,-454.5 278.5,-454.5 278.5,-424.5 43.5,-424.5"/>
<text text-anchor="start" x="50.5" y="-435.9" font-family="Arial" font-size="14.00" fill="#000000">username </text>
<text text-anchor="start" x="116.6248" y="-435.9" font-family="Arial" font-size="14.00" fill="#666666">[varchar(256)]</text>
<polygon fill="none" stroke="#000000" points="43.5,-394.5 43.5,-424.5 278.5,-424.5 278.5,-394.5 43.5,-394.5"/>
<text text-anchor="start" x="50.5" y="-405.9" font-family="Arial" font-size="14.00" fill="#000000">password </text>
<text text-anchor="start" x="114.2882" y="-405.9" font-family="Arial" font-size="14.00" fill="#666666">[varchar(256)]</text>
<polygon fill="none" stroke="#000000" points="43.5,-364.5 43.5,-394.5 278.5,-394.5 278.5,-364.5 43.5,-364.5"/>
<text text-anchor="start" x="50.5" y="-375.9" font-family="Arial" font-size="14.00" fill="#000000">ssh_key </text>
<text text-anchor="start" x="105.7384" y="-375.9" font-family="Arial" font-size="14.00" fill="#666666">[text]</text>
</g>
<!-- repository_auth&#45;&gt;repositories -->
<g id="edge8" class="edge">
<title>repository_auth:repository_id&#45;&gt;repositories:id</title>
<path fill="none" stroke="#000000" d="M288.8125,-499.1177C399.4919,-490.4224 264.5105,-335.1482 247.5,-211 241.8588,-169.8291 205.9444,-117.5 247.5,-117.5"/>
<polygon fill="#000000" stroke="#000000" points="288.4931,-499.1294 278.3332,-495.0031 283.4966,-499.3147 278.5,-499.5 278.5,-499.5 278.5,-499.5 283.4966,-499.3147 278.6668,-503.9969 288.4931,-499.1294 288.4931,-499.1294"/>
<text text-anchor="start" x="212.861" y="-483.5" font-family="Arial" font-size="10.00" fill="#000000">FOREIGN KEY (repository_id) REFERENCES repositories (id)</text>
</g>
<!-- repository_owners -->
<g id="node10" class="node">
<title>repository_owners</title>
<polygon fill="#efefef" stroke="transparent" points="166.5,-911.5 166.5,-946.5 424.5,-946.5 424.5,-911.5 166.5,-911.5"/>
<polygon fill="none" stroke="#000000" points="166.5,-911.5 166.5,-946.5 424.5,-946.5 424.5,-911.5 166.5,-911.5"/>
<text text-anchor="start" x="173.3647" y="-924.3" font-family="Arial Bold" font-size="18.00" fill="#000000">repository_owners</text>
<text text-anchor="start" x="320.3815" y="-924.3" font-family="Arial" font-size="14.00" fill="#000000"> </text>
<text text-anchor="start" x="324.2721" y="-924.3" font-family="Arial" font-size="14.00" fill="#666666">[BASE TABLE]</text>
<polygon fill="none" stroke="#000000" points="166.5,-881.5 166.5,-911.5 424.5,-911.5 424.5,-881.5 166.5,-881.5"/>
<text text-anchor="start" x="173.5" y="-892.9" font-family="Arial" font-size="14.00" fill="#000000">user_id </text>
<text text-anchor="start" x="223.2882" y="-892.9" font-family="Arial" font-size="14.00" fill="#666666">[char(22)]</text>
<polygon fill="none" stroke="#000000" points="166.5,-851.5 166.5,-881.5 424.5,-881.5 424.5,-851.5 166.5,-851.5"/>
<text text-anchor="start" x="173.5" y="-862.9" font-family="Arial" font-size="14.00" fill="#000000">repository_id </text>
<text text-anchor="start" x="257.5112" y="-862.9" font-family="Arial" font-size="14.00" fill="#666666">[char(22)]</text>
</g>
<!-- repository_owners&#45;&gt;repositories -->
<g id="edge9" class="edge">
<title>repository_owners:repository_id&#45;&gt;repositories:id</title>
<path fill="none" stroke="#000000" d="M296.9424,-841.5668C310.5962,-762.9419 416.7353,-261.5632 423.5,-247 432.0392,-228.6167 444.9217,-230.1726 451.5,-211 464.9863,-171.6937 493.0556,-117.5 451.5,-117.5"/>
<polygon fill="#000000" stroke="#000000" points="296.9371,-841.6038 291.0467,-850.8533 296.2185,-846.5519 295.5,-851.5 295.5,-851.5 295.5,-851.5 296.2185,-846.5519 299.9533,-852.1467 296.9371,-841.6038 296.9371,-841.6038"/>
<text text-anchor="start" x="11.611" y="-861.5" font-family="Arial" font-size="10.00" fill="#000000">FOREIGN KEY (repository_id) REFERENCES repositories (id)</text>
</g>
<!-- repository_owners&#45;&gt;users -->
<g id="edge10" class="edge">
<title>repository_owners:user_id&#45;&gt;users:id</title>
<path fill="none" stroke="#000000" d="M434.6552,-894.5963C509.5747,-863.7922 384.6441,-469.5 476.5,-469.5"/>
<polygon fill="#000000" stroke="#000000" points="434.3288,-894.6574 423.6708,-892.077 429.4144,-895.5787 424.5,-896.5 424.5,-896.5 424.5,-896.5 429.4144,-895.5787 425.3292,-900.923 434.3288,-894.6574 434.3288,-894.6574"/>
<text text-anchor="start" x="431.445" y="-906.5" font-family="Arial" font-size="10.00" fill="#000000">FOREIGN KEY (user_id) REFERENCES users (id)</text>
</g>
<!-- websites -->
<g id="node12" class="node">
<title>websites</title>
<polygon fill="#efefef" stroke="transparent" points="2149.5,-986.5 2149.5,-1021.5 2330.5,-1021.5 2330.5,-986.5 2149.5,-986.5"/>
<polygon fill="none" stroke="#000000" points="2149.5,-986.5 2149.5,-1021.5 2330.5,-1021.5 2330.5,-986.5 2149.5,-986.5"/>
<text text-anchor="start" x="2156.3685" y="-999.3" font-family="Arial Bold" font-size="18.00" fill="#000000">websites</text>
<text text-anchor="start" x="2226.3777" y="-999.3" font-family="Arial" font-size="14.00" fill="#000000"> </text>
<text text-anchor="start" x="2230.2683" y="-999.3" font-family="Arial" font-size="14.00" fill="#666666">[BASE TABLE]</text>
<polygon fill="none" stroke="#000000" points="2149.5,-956.5 2149.5,-986.5 2330.5,-986.5 2330.5,-956.5 2149.5,-956.5"/>
<text text-anchor="start" x="2156.5" y="-967.9" font-family="Arial" font-size="14.00" fill="#000000">id </text>
<text text-anchor="start" x="2171.2798" y="-967.9" font-family="Arial" font-size="14.00" fill="#666666">[char(22)]</text>
<polygon fill="none" stroke="#000000" points="2149.5,-926.5 2149.5,-956.5 2330.5,-956.5 2330.5,-926.5 2149.5,-926.5"/>
<text text-anchor="start" x="2156.5" y="-937.9" font-family="Arial" font-size="14.00" fill="#000000">fqdn </text>
<text text-anchor="start" x="2187.629" y="-937.9" font-family="Arial" font-size="14.00" fill="#666666">[varchar(100)]</text>
<polygon fill="none" stroke="#000000" points="2149.5,-896.5 2149.5,-926.5 2330.5,-926.5 2330.5,-896.5 2149.5,-896.5"/>
<text text-anchor="start" x="2156.5" y="-907.9" font-family="Arial" font-size="14.00" fill="#000000">path_prefix </text>
<text text-anchor="start" x="2229.6346" y="-907.9" font-family="Arial" font-size="14.00" fill="#666666">[varchar(100)]</text>
<polygon fill="none" stroke="#000000" points="2149.5,-866.5 2149.5,-896.5 2330.5,-896.5 2330.5,-866.5 2149.5,-866.5"/>
<text text-anchor="start" x="2156.5" y="-877.9" font-family="Arial" font-size="14.00" fill="#000000">strip_prefix </text>
<text text-anchor="start" x="2228.8366" y="-877.9" font-family="Arial" font-size="14.00" fill="#666666">[tinyint(1)]</text>
<polygon fill="none" stroke="#000000" points="2149.5,-836.5 2149.5,-866.5 2330.5,-866.5 2330.5,-836.5 2149.5,-836.5"/>
<text text-anchor="start" x="2156.5" y="-847.9" font-family="Arial" font-size="14.00" fill="#000000">https </text>
<text text-anchor="start" x="2190.737" y="-847.9" font-family="Arial" font-size="14.00" fill="#666666">[tinyint(1)]</text>
<polygon fill="none" stroke="#000000" points="2149.5,-806.5 2149.5,-836.5 2330.5,-836.5 2330.5,-806.5 2149.5,-806.5"/>
<text text-anchor="start" x="2156.5" y="-817.9" font-family="Arial" font-size="14.00" fill="#000000">http_port </text>
<text text-anchor="start" x="2215.636" y="-817.9" font-family="Arial" font-size="14.00" fill="#666666">[int(11)]</text>
<polygon fill="none" stroke="#000000" points="2149.5,-776.5 2149.5,-806.5 2330.5,-806.5 2330.5,-776.5 2149.5,-776.5"/>
<text text-anchor="start" x="2156.5" y="-787.9" font-family="Arial" font-size="14.00" fill="#000000">application_id </text>
<text text-anchor="start" x="2245.9684" y="-787.9" font-family="Arial" font-size="14.00" fill="#666666">[char(22)]</text>
</g>
<!-- websites&#45;&gt;applications -->
<g id="edge11" class="edge">
<title>websites:application_id&#45;&gt;applications:id</title>
<path fill="none" stroke="#000000" d="M2139.4227,-790.1939C2108.9931,-781.1526 2131.4977,-727.5373 2097.5,-704 1962.7601,-610.7167 1535.3798,-574.5 1371.5,-574.5"/>
<polygon fill="#000000" stroke="#000000" points="2139.5829,-790.2146 2148.9216,-795.9627 2144.5415,-790.8573 2149.5,-791.5 2149.5,-791.5 2149.5,-791.5 2144.5415,-790.8573 2150.0784,-787.0373 2139.5829,-790.2146 2139.5829,-790.2146"/>
<text text-anchor="start" x="1860.102" y="-775.5" font-family="Arial" font-size="10.00" fill="#000000">FOREIGN KEY (application_id) REFERENCES applications (id)</text>
</g>
</g>
</svg>
