<?xml version="1.0" encoding="UTF-8" standalone="no"?>
<!DOCTYPE svg PUBLIC "-//W3C//DTD SVG 1.1//EN"
        "http://www.w3.org/Graphics/SVG/1.1/DTD/svg11.dtd">
<!-- Generated by graphviz version 2.40.1 (20161225.0304)
 -->
<!-- Title: neoshowcase Pages: 1 -->
<svg width="1162pt" height="1260pt"
     viewBox="0.00 0.00 1162.00 1260.00" xmlns="http://www.w3.org/2000/svg" xmlns:xlink="http://www.w3.org/1999/xlink">
    <g id="graph0" class="graph" transform="scale(1 1) rotate(0) translate(4 1256)">
        <title>neoshowcase</title>
        <polygon fill="#ffffff" stroke="transparent" points="-4,4 -4,-1256 1158,-1256 1158,4 -4,4"/>
        <!-- applications -->
        <g id="node1" class="node">
            <title>applications</title>
            <polygon fill="#efefef" stroke="transparent"
                     points="657,-469.5 657,-504.5 863,-504.5 863,-469.5 657,-469.5"/>
            <polygon fill="none" stroke="#000000" points="657,-469.5 657,-504.5 863,-504.5 863,-469.5 657,-469.5"/>
            <text text-anchor="start" x="663.8621" y="-482.3" font-family="Arial Bold" font-size="18.00" fill="#000000">
                applications
            </text>
            <text text-anchor="start" x="758.8841" y="-482.3" font-family="Arial" font-size="14.00"
                  fill="#000000"></text>
            <text text-anchor="start" x="762.7747" y="-482.3" font-family="Arial" font-size="14.00" fill="#666666">[BASE
                TABLE]
            </text>
            <polygon fill="none" stroke="#000000" points="657,-439.5 657,-469.5 863,-469.5 863,-439.5 657,-439.5"/>
            <text text-anchor="start" x="664" y="-450.9" font-family="Arial" font-size="14.00" fill="#000000">id</text>
            <text text-anchor="start" x="678.7798" y="-450.9" font-family="Arial" font-size="14.00" fill="#666666">
                [varchar(22)]
            </text>
            <polygon fill="none" stroke="#000000" points="657,-409.5 657,-439.5 863,-439.5 863,-409.5 657,-409.5"/>
            <text text-anchor="start" x="664" y="-420.9" font-family="Arial" font-size="14.00" fill="#000000">owner
            </text>
            <text text-anchor="start" x="706.0056" y="-420.9" font-family="Arial" font-size="14.00" fill="#666666">
                [varchar(100)]
            </text>
            <polygon fill="none" stroke="#000000" points="657,-379.5 657,-409.5 863,-409.5 863,-379.5 657,-379.5"/>
            <text text-anchor="start" x="664" y="-390.9" font-family="Arial" font-size="14.00" fill="#000000">name
            </text>
            <text text-anchor="start" x="702.899" y="-390.9" font-family="Arial" font-size="14.00" fill="#666666">
                [varchar(100)]
            </text>
            <polygon fill="none" stroke="#000000" points="657,-349.5 657,-379.5 863,-379.5 863,-349.5 657,-349.5"/>
            <text text-anchor="start" x="664" y="-360.9" font-family="Arial" font-size="14.00" fill="#000000">
                repository_id
            </text>
            <text text-anchor="start" x="748.0112" y="-360.9" font-family="Arial" font-size="14.00" fill="#666666">
                [varchar(22)]
            </text>
            <polygon fill="none" stroke="#000000" points="657,-319.5 657,-349.5 863,-349.5 863,-319.5 657,-319.5"/>
            <text text-anchor="start" x="664" y="-330.9" font-family="Arial" font-size="14.00" fill="#000000">
                created_at
            </text>
            <text text-anchor="start" x="734.028" y="-330.9" font-family="Arial" font-size="14.00" fill="#666666">
                [datetime(6)]
            </text>
            <polygon fill="none" stroke="#000000" points="657,-289.5 657,-319.5 863,-319.5 863,-289.5 657,-289.5"/>
            <text text-anchor="start" x="664" y="-300.9" font-family="Arial" font-size="14.00" fill="#000000">
                updated_at
            </text>
            <text text-anchor="start" x="737.9326" y="-300.9" font-family="Arial" font-size="14.00" fill="#666666">
                [datetime(6)]
            </text>
            <polygon fill="none" stroke="#000000" points="657,-259.5 657,-289.5 863,-289.5 863,-259.5 657,-259.5"/>
            <text text-anchor="start" x="664" y="-270.9" font-family="Arial" font-size="14.00" fill="#000000">
                deleted_at
            </text>
            <text text-anchor="start" x="733.2566" y="-270.9" font-family="Arial" font-size="14.00" fill="#666666">
                [datetime(6)]
            </text>
        </g>
        <!-- repositories -->
        <g id="node6" class="node">
            <title>repositories</title>
            <polygon fill="#efefef" stroke="transparent"
                     points="658,-102.5 658,-137.5 862,-137.5 862,-102.5 658,-102.5"/>
            <polygon fill="none" stroke="#000000" points="658,-102.5 658,-137.5 862,-137.5 862,-102.5 658,-102.5"/>
            <text text-anchor="start" x="664.8701" y="-115.3" font-family="Arial Bold" font-size="18.00" fill="#000000">
                repositories
            </text>
            <text text-anchor="start" x="757.8761" y="-115.3" font-family="Arial" font-size="14.00"
                  fill="#000000"></text>
            <text text-anchor="start" x="761.7667" y="-115.3" font-family="Arial" font-size="14.00" fill="#666666">[BASE
                TABLE]
            </text>
            <polygon fill="none" stroke="#000000" points="658,-72.5 658,-102.5 862,-102.5 862,-72.5 658,-72.5"/>
            <text text-anchor="start" x="665" y="-83.9" font-family="Arial" font-size="14.00" fill="#000000">id</text>
            <text text-anchor="start" x="679.7798" y="-83.9" font-family="Arial" font-size="14.00" fill="#666666">
                [varchar(22)]
            </text>
            <polygon fill="none" stroke="#000000" points="658,-42.5 658,-72.5 862,-72.5 862,-42.5 658,-42.5"/>
            <text text-anchor="start" x="665" y="-53.9" font-family="Arial" font-size="14.00" fill="#000000">remote
            </text>
            <text text-anchor="start" x="712.4502" y="-53.9" font-family="Arial" font-size="14.00" fill="#666666">
                [text]
            </text>
        </g>
        <!-- applications&#45;&gt;repositories -->
        <g id="edge1" class="edge">
            <title>applications:repository_id&#45;&gt;repositories:id</title>
            <path fill="none" stroke="#000000" d="M873.1611,-363.8461C985.9573,-349.0327 981.6253,-87.5 862,-87.5"/>
            <polygon fill="#000000" stroke="#000000"
                     points="872.9794,-363.8577 862.711,-360.0093 867.9897,-364.1788 863,-364.5 863,-364.5 863,-364.5 867.9897,-364.1788 863.289,-368.9907 872.9794,-363.8577 872.9794,-363.8577"/>
            <text text-anchor="start" x="870.111" y="-374.5" font-family="Arial" font-size="10.00" fill="#000000">
                FOREIGN KEY (repository_id) REFERENCES repositories (id)
            </text>
        </g>
        <!-- artifacts -->
        <g id="node2" class="node">
            <title>artifacts</title>
            <polygon fill="#efefef" stroke="transparent"
                     points="107,-806.5 107,-841.5 281,-841.5 281,-806.5 107,-806.5"/>
            <polygon fill="none" stroke="#000000" points="107,-806.5 107,-841.5 281,-841.5 281,-806.5 107,-806.5"/>
            <text text-anchor="start" x="113.8704" y="-819.3" font-family="Arial Bold" font-size="18.00" fill="#000000">
                artifacts
            </text>
            <text text-anchor="start" x="176.8758" y="-819.3" font-family="Arial" font-size="14.00"
                  fill="#000000"></text>
            <text text-anchor="start" x="180.7664" y="-819.3" font-family="Arial" font-size="14.00" fill="#666666">[BASE
                TABLE]
            </text>
            <polygon fill="none" stroke="#000000" points="107,-776.5 107,-806.5 281,-806.5 281,-776.5 107,-776.5"/>
            <text text-anchor="start" x="114" y="-787.9" font-family="Arial" font-size="14.00" fill="#000000">id</text>
            <text text-anchor="start" x="128.7798" y="-787.9" font-family="Arial" font-size="14.00" fill="#666666">
                [varchar(22)]
            </text>
            <polygon fill="none" stroke="#000000" points="107,-746.5 107,-776.5 281,-776.5 281,-746.5 107,-746.5"/>
            <text text-anchor="start" x="114" y="-757.9" font-family="Arial" font-size="14.00" fill="#000000">
                build_log_id
            </text>
            <text text-anchor="start" x="192.5778" y="-757.9" font-family="Arial" font-size="14.00" fill="#666666">
                [varchar(22)]
            </text>
            <polygon fill="none" stroke="#000000" points="107,-716.5 107,-746.5 281,-746.5 281,-716.5 107,-716.5"/>
            <text text-anchor="start" x="114" y="-727.9" font-family="Arial" font-size="14.00" fill="#000000">size
            </text>
            <text text-anchor="start" x="142.7798" y="-727.9" font-family="Arial" font-size="14.00" fill="#666666">
                [bigint(20)]
            </text>
            <polygon fill="none" stroke="#000000" points="107,-686.5 107,-716.5 281,-716.5 281,-686.5 107,-686.5"/>
            <text text-anchor="start" x="114" y="-697.9" font-family="Arial" font-size="14.00" fill="#000000">
                created_at
            </text>
            <text text-anchor="start" x="184.028" y="-697.9" font-family="Arial" font-size="14.00" fill="#666666">
                [datetime(6)]
            </text>
            <polygon fill="none" stroke="#000000" points="107,-656.5 107,-686.5 281,-686.5 281,-656.5 107,-656.5"/>
            <text text-anchor="start" x="114" y="-667.9" font-family="Arial" font-size="14.00" fill="#000000">
                deleted_at
            </text>
            <text text-anchor="start" x="183.2566" y="-667.9" font-family="Arial" font-size="14.00" fill="#666666">
                [datetime(6)]
            </text>
        </g>
        <!-- build_logs -->
        <g id="node4" class="node">
            <title>build_logs</title>
            <polygon fill="#efefef" stroke="transparent"
                     points="134,-439.5 134,-474.5 553,-474.5 553,-439.5 134,-439.5"/>
            <polygon fill="none" stroke="#000000" points="134,-439.5 134,-474.5 553,-474.5 553,-439.5 134,-439.5"/>
            <text text-anchor="start" x="254.3632" y="-452.3" font-family="Arial Bold" font-size="18.00" fill="#000000">
                build_logs
            </text>
            <text text-anchor="start" x="335.383" y="-452.3" font-family="Arial" font-size="14.00"
                  fill="#000000"></text>
            <text text-anchor="start" x="339.2736" y="-452.3" font-family="Arial" font-size="14.00" fill="#666666">[BASE
                TABLE]
            </text>
            <polygon fill="none" stroke="#000000" points="134,-409.5 134,-439.5 553,-439.5 553,-409.5 134,-409.5"/>
            <text text-anchor="start" x="141" y="-420.9" font-family="Arial" font-size="14.00" fill="#000000">id</text>
            <text text-anchor="start" x="155.7798" y="-420.9" font-family="Arial" font-size="14.00" fill="#666666">
                [varchar(22)]
            </text>
            <polygon fill="none" stroke="#000000" points="134,-379.5 134,-409.5 553,-409.5 553,-379.5 134,-379.5"/>
            <text text-anchor="start" x="140.5742" y="-390.9" font-family="Arial" font-size="14.00" fill="#000000">
                result
            </text>
            <text text-anchor="start" x="178.6878" y="-390.9" font-family="Arial" font-size="14.00" fill="#666666">
                [enum(&#39;BUILDING&#39;,&#39;SUCCEEDED&#39;,&#39;FAILED&#39;,&#39;CANCELED&#39;)]
            </text>
            <polygon fill="none" stroke="#000000" points="134,-349.5 134,-379.5 553,-379.5 553,-349.5 134,-349.5"/>
            <text text-anchor="start" x="141" y="-360.9" font-family="Arial" font-size="14.00" fill="#000000">
                started_at
            </text>
            <text text-anchor="start" x="207.136" y="-360.9" font-family="Arial" font-size="14.00" fill="#666666">
                [datetime(6)]
            </text>
            <polygon fill="none" stroke="#000000" points="134,-319.5 134,-349.5 553,-349.5 553,-319.5 134,-319.5"/>
            <text text-anchor="start" x="141" y="-330.9" font-family="Arial" font-size="14.00" fill="#000000">
                finished_at
            </text>
            <text text-anchor="start" x="212.5806" y="-330.9" font-family="Arial" font-size="14.00" fill="#666666">
                [datetime(6)]
            </text>
            <polygon fill="none" stroke="#000000" points="134,-289.5 134,-319.5 553,-319.5 553,-289.5 134,-289.5"/>
            <text text-anchor="start" x="141" y="-300.9" font-family="Arial" font-size="14.00" fill="#000000">
                environment_id
            </text>
            <text text-anchor="start" x="240.5764" y="-300.9" font-family="Arial" font-size="14.00" fill="#666666">
                [varchar(22)]
            </text>
        </g>
        <!-- artifacts&#45;&gt;build_logs -->
        <g id="edge2" class="edge">
            <title>artifacts:build_log_id&#45;&gt;build_logs:id</title>
            <path fill="none" stroke="#000000"
                  d="M291.1965,-760.6574C342.6745,-751.4251 310.4389,-668.386 281,-614 243.8547,-545.377 171.1453,-586.623 134,-518 114.2183,-481.4549 92.4444,-424.5 134,-424.5"/>
            <polygon fill="#000000" stroke="#000000"
                     points="290.966,-760.6764 280.6294,-757.0153 285.983,-761.0882 281,-761.5 281,-761.5 281,-761.5 285.983,-761.0882 281.3706,-765.9847 290.966,-760.6764 290.966,-760.6764"/>
            <text text-anchor="start" x="7.381" y="-771.5" font-family="Arial" font-size="10.00" fill="#000000">FOREIGN
                KEY (build_log_id) REFERENCES build_logs (id)
            </text>
        </g>
        <!-- available_domains -->
        <g id="node3" class="node">
            <title>available_domains</title>
            <polygon fill="#efefef" stroke="transparent"
                     points="695,-1128.5 695,-1163.5 955,-1163.5 955,-1128.5 695,-1128.5"/>
            <polygon fill="none" stroke="#000000" points="695,-1128.5 695,-1163.5 955,-1163.5 955,-1128.5 695,-1128.5"/>
            <text text-anchor="start" x="701.8576" y="-1141.3" font-family="Arial Bold" font-size="18.00"
                  fill="#000000">available_domains
            </text>
            <text text-anchor="start" x="850.8886" y="-1141.3" font-family="Arial" font-size="14.00"
                  fill="#000000"></text>
            <text text-anchor="start" x="854.7792" y="-1141.3" font-family="Arial" font-size="14.00" fill="#666666">
                [BASE TABLE]
            </text>
            <polygon fill="none" stroke="#000000" points="695,-1098.5 695,-1128.5 955,-1128.5 955,-1098.5 695,-1098.5"/>
            <text text-anchor="start" x="702" y="-1109.9" font-family="Arial" font-size="14.00" fill="#000000">id</text>
            <text text-anchor="start" x="716.7798" y="-1109.9" font-family="Arial" font-size="14.00" fill="#666666">
                [varchar(22)]
            </text>
            <polygon fill="none" stroke="#000000" points="695,-1068.5 695,-1098.5 955,-1098.5 955,-1068.5 695,-1068.5"/>
            <text text-anchor="start" x="702" y="-1079.9" font-family="Arial" font-size="14.00" fill="#000000">domain
            </text>
            <text text-anchor="start" x="751.7882" y="-1079.9" font-family="Arial" font-size="14.00" fill="#666666">
                [varchar(100)]
            </text>
            <polygon fill="none" stroke="#000000" points="695,-1038.5 695,-1068.5 955,-1068.5 955,-1038.5 695,-1038.5"/>
            <text text-anchor="start" x="702" y="-1049.9" font-family="Arial" font-size="14.00" fill="#000000">
                subdomain
            </text>
            <text text-anchor="start" x="774.3534" y="-1049.9" font-family="Arial" font-size="14.00" fill="#666666">
                [tinyint(1)]
            </text>
        </g>
        <!-- environments -->
        <g id="node5" class="node">
            <title>environments</title>
            <polygon fill="#efefef" stroke="transparent"
                     points="385,-836.5 385,-871.5 605,-871.5 605,-836.5 385,-836.5"/>
            <polygon fill="none" stroke="#000000" points="385,-836.5 385,-871.5 605,-871.5 605,-836.5 385,-836.5"/>
            <text text-anchor="start" x="392.3641" y="-849.3" font-family="Arial Bold" font-size="18.00" fill="#000000">
                environments
            </text>
            <text text-anchor="start" x="500.3821" y="-849.3" font-family="Arial" font-size="14.00"
                  fill="#000000"></text>
            <text text-anchor="start" x="504.2727" y="-849.3" font-family="Arial" font-size="14.00" fill="#666666">[BASE
                TABLE]
            </text>
            <polygon fill="none" stroke="#000000" points="385,-806.5 385,-836.5 605,-836.5 605,-806.5 385,-806.5"/>
            <text text-anchor="start" x="392" y="-817.9" font-family="Arial" font-size="14.00" fill="#000000">id</text>
            <text text-anchor="start" x="406.7798" y="-817.9" font-family="Arial" font-size="14.00" fill="#666666">
                [varchar(22)]
            </text>
            <polygon fill="none" stroke="#000000" points="385,-776.5 385,-806.5 605,-806.5 605,-776.5 385,-776.5"/>
            <text text-anchor="start" x="392" y="-787.9" font-family="Arial" font-size="14.00" fill="#000000">
                application_id
            </text>
            <text text-anchor="start" x="481.4684" y="-787.9" font-family="Arial" font-size="14.00" fill="#666666">
                [varchar(22)]
            </text>
            <polygon fill="none" stroke="#000000" points="385,-746.5 385,-776.5 605,-776.5 605,-746.5 385,-746.5"/>
            <text text-anchor="start" x="392" y="-757.9" font-family="Arial" font-size="14.00" fill="#000000">
                branch_name
            </text>
            <text text-anchor="start" x="481.4726" y="-757.9" font-family="Arial" font-size="14.00" fill="#666666">
                [varchar(100)]
            </text>
            <polygon fill="none" stroke="#000000" points="385,-716.5 385,-746.5 605,-746.5 605,-716.5 385,-716.5"/>
            <text text-anchor="start" x="391.5764" y="-727.9" font-family="Arial" font-size="14.00" fill="#000000">
                build_type
            </text>
            <text text-anchor="start" x="459.2664" y="-727.9" font-family="Arial" font-size="14.00" fill="#666666">
                [enum(&#39;image&#39;,&#39;static&#39;)]
            </text>
            <polygon fill="none" stroke="#000000" points="385,-686.5 385,-716.5 605,-716.5 605,-686.5 385,-686.5"/>
            <text text-anchor="start" x="392" y="-697.9" font-family="Arial" font-size="14.00" fill="#000000">
                created_at
            </text>
            <text text-anchor="start" x="462.028" y="-697.9" font-family="Arial" font-size="14.00" fill="#666666">
                [datetime(6)]
            </text>
            <polygon fill="none" stroke="#000000" points="385,-656.5 385,-686.5 605,-686.5 605,-656.5 385,-656.5"/>
            <text text-anchor="start" x="392" y="-667.9" font-family="Arial" font-size="14.00" fill="#000000">
                updated_at
            </text>
            <text text-anchor="start" x="465.9326" y="-667.9" font-family="Arial" font-size="14.00" fill="#666666">
                [datetime(6)]
            </text>
            <polygon fill="none" stroke="#000000" points="385,-626.5 385,-656.5 605,-656.5 605,-626.5 385,-626.5"/>
            <text text-anchor="start" x="392" y="-637.9" font-family="Arial" font-size="14.00" fill="#000000">build_id
            </text>
            <text text-anchor="start" x="444.1234" y="-637.9" font-family="Arial" font-size="14.00" fill="#666666">
                [varchar(22)]
            </text>
        </g>
        <!-- build_logs&#45;&gt;environments -->
        <g id="edge3" class="edge">
            <title>build_logs:environment_id&#45;&gt;environments:id</title>
            <path fill="none" stroke="#000000"
                  d="M562.9012,-307.5439C597.1696,-330.9091 577.6324,-481.858 553,-518 507.8205,-584.29 430.1795,-517.71 385,-584 355.2765,-627.612 332.2222,-821.5 385,-821.5"/>
            <polygon fill="#000000" stroke="#000000"
                     points="562.5585,-307.4386 554.3224,-300.1987 557.7793,-305.9693 553,-304.5 553,-304.5 553,-304.5 557.7793,-305.9693 551.6776,-308.8013 562.5585,-307.4386 562.5585,-307.4386"/>
            <text text-anchor="start" x="404.882" y="-288.5" font-family="Arial" font-size="10.00" fill="#000000">
                FOREIGN KEY (environment_id) REFERENCES environments (id)
            </text>
        </g>
        <!-- environments&#45;&gt;applications -->
        <g id="edge4" class="edge">
            <title>environments:application_id&#45;&gt;applications:id</title>
            <path fill="none" stroke="#000000" d="M615.0027,-790.9533C745.0012,-775.8882 509.0016,-454.5 657,-454.5"/>
            <polygon fill="#000000" stroke="#000000"
                     points="614.9851,-790.9542 604.7544,-787.0067 609.9925,-791.2271 605,-791.5 605,-791.5 605,-791.5 609.9925,-791.2271 605.2456,-795.9933 614.9851,-790.9542 614.9851,-790.9542"/>
            <text text-anchor="start" x="611.602" y="-801.5" font-family="Arial" font-size="10.00" fill="#000000">
                FOREIGN KEY (application_id) REFERENCES applications (id)
            </text>
        </g>
        <!-- environments&#45;&gt;build_logs -->
        <g id="edge5" class="edge">
            <title>environments:build_id&#45;&gt;build_logs:id</title>
            <path fill="none" stroke="#000000"
                  d="M375.239,-638.7902C363.1943,-629.9728 372.9688,-601.6528 385,-584 430.1795,-517.71 507.8205,-584.29 553,-518 576.4033,-483.6613 594.5556,-424.5 553,-424.5"/>
            <polygon fill="#000000" stroke="#000000"
                     points="375.3644,-638.8249 383.7962,-645.836 380.1822,-640.1625 385,-641.5 385,-641.5 385,-641.5 380.1822,-640.1625 386.2038,-637.164 375.3644,-638.8249 375.3644,-638.8249"/>
            <text text-anchor="start" x="391.829" y="-651.5" font-family="Arial" font-size="10.00" fill="#000000">
                FOREIGN KEY (build_id) REFERENCES build_logs (id)
            </text>
        </g>
        <!-- websites -->
        <g id="node7" class="node">
            <title>websites</title>
            <polygon fill="#efefef" stroke="transparent"
                     points="399,-1173.5 399,-1208.5 591,-1208.5 591,-1173.5 399,-1173.5"/>
            <polygon fill="none" stroke="#000000" points="399,-1173.5 399,-1208.5 591,-1208.5 591,-1173.5 399,-1173.5"/>
            <text text-anchor="start" x="411.3685" y="-1186.3" font-family="Arial Bold" font-size="18.00"
                  fill="#000000">websites
            </text>
            <text text-anchor="start" x="481.3777" y="-1186.3" font-family="Arial" font-size="14.00"
                  fill="#000000"></text>
            <text text-anchor="start" x="485.2683" y="-1186.3" font-family="Arial" font-size="14.00" fill="#666666">
                [BASE TABLE]
            </text>
            <polygon fill="none" stroke="#000000" points="399,-1143.5 399,-1173.5 591,-1173.5 591,-1143.5 399,-1143.5"/>
            <text text-anchor="start" x="406" y="-1154.9" font-family="Arial" font-size="14.00" fill="#000000">id</text>
            <text text-anchor="start" x="420.7798" y="-1154.9" font-family="Arial" font-size="14.00" fill="#666666">
                [varchar(22)]
            </text>
            <polygon fill="none" stroke="#000000" points="399,-1113.5 399,-1143.5 591,-1143.5 591,-1113.5 399,-1113.5"/>
            <text text-anchor="start" x="406" y="-1124.9" font-family="Arial" font-size="14.00" fill="#000000">fqdn
            </text>
            <text text-anchor="start" x="437.129" y="-1124.9" font-family="Arial" font-size="14.00" fill="#666666">
                [varchar(50)]
            </text>
            <polygon fill="none" stroke="#000000" points="399,-1083.5 399,-1113.5 591,-1113.5 591,-1083.5 399,-1083.5"/>
            <text text-anchor="start" x="406" y="-1094.9" font-family="Arial" font-size="14.00" fill="#000000">
                http_port
            </text>
            <text text-anchor="start" x="465.136" y="-1094.9" font-family="Arial" font-size="14.00" fill="#666666">
                [int(11)]
            </text>
            <polygon fill="none" stroke="#000000" points="399,-1053.5 399,-1083.5 591,-1083.5 591,-1053.5 399,-1053.5"/>
            <text text-anchor="start" x="406" y="-1064.9" font-family="Arial" font-size="14.00" fill="#000000">
                created_at
            </text>
            <text text-anchor="start" x="476.028" y="-1064.9" font-family="Arial" font-size="14.00" fill="#666666">
                [datetime(6)]
            </text>
            <polygon fill="none" stroke="#000000" points="399,-1023.5 399,-1053.5 591,-1053.5 591,-1023.5 399,-1023.5"/>
            <text text-anchor="start" x="406" y="-1034.9" font-family="Arial" font-size="14.00" fill="#000000">
                updated_at
            </text>
            <text text-anchor="start" x="479.9326" y="-1034.9" font-family="Arial" font-size="14.00" fill="#666666">
                [datetime(6)]
            </text>
            <polygon fill="none" stroke="#000000" points="399,-993.5 399,-1023.5 591,-1023.5 591,-993.5 399,-993.5"/>
            <text text-anchor="start" x="405.5435" y="-1004.9" font-family="Arial" font-size="14.00" fill="#000000">
                environment_id
            </text>
            <text text-anchor="start" x="505.1199" y="-1004.9" font-family="Arial" font-size="14.00" fill="#666666">
                [varchar(22)]
            </text>
        </g>
        <!-- websites&#45;&gt;environments -->
        <g id="edge6" class="edge">
            <title>websites:environment_id&#45;&gt;environments:id</title>
            <path fill="none" stroke="#000000"
                  d="M495.9333,-983.3073C505.0983,-937.4636 579.224,-965.0612 605,-915 624.023,-878.0542 646.5556,-821.5 605,-821.5"/>
            <polygon fill="#000000" stroke="#000000"
                     points="495.9119,-983.5417 490.5187,-993.0896 495.456,-988.5208 495,-993.5 495,-993.5 495,-993.5 495.456,-988.5208 499.4813,-993.9104 495.9119,-983.5417 495.9119,-983.5417"/>
            <text text-anchor="start" x="191.382" y="-1003.5" font-family="Arial" font-size="10.00" fill="#000000">
                FOREIGN KEY (environment_id) REFERENCES environments (id)
            </text>
        </g>
    </g>
</svg>
