<?xml version="1.0" encoding="UTF-8" standalone="no"?>
<!DOCTYPE svg PUBLIC "-//W3C//DTD SVG 1.1//EN"
 "http://www.w3.org/Graphics/SVG/1.1/DTD/svg11.dtd">
<!-- Generated by graphviz version 2.40.1 (20161225.0304)
 -->
<!-- Title: neoshowcase Pages: 1 -->
<svg width="2393pt" height="1440pt"
 viewBox="0.00 0.00 2393.00 1440.00" xmlns="http://www.w3.org/2000/svg" xmlns:xlink="http://www.w3.org/1999/xlink">
<g id="graph0" class="graph" transform="scale(1 1) rotate(0) translate(4 1436)">
<title>neoshowcase</title>
<polygon fill="#ffffff" stroke="transparent" points="-4,4 -4,-1436 2389,-1436 2389,4 -4,4"/>
<!-- applications -->
<g id="node1" class="node">
<title>applications</title>
<polygon fill="#efefef" stroke="transparent" points="873.5,-619.5 873.5,-654.5 1335.5,-654.5 1335.5,-619.5 873.5,-619.5"/>
<polygon fill="none" stroke="#000000" points="873.5,-619.5 873.5,-654.5 1335.5,-654.5 1335.5,-619.5 873.5,-619.5"/>
<text text-anchor="start" x="1008.3621" y="-632.3" font-family="Arial Bold" font-size="18.00" fill="#000000">applications</text>
<text text-anchor="start" x="1103.3841" y="-632.3" font-family="Arial" font-size="14.00" fill="#000000"> </text>
<text text-anchor="start" x="1107.2747" y="-632.3" font-family="Arial" font-size="14.00" fill="#666666">[BASE TABLE]</text>
<polygon fill="none" stroke="#000000" points="873.5,-589.5 873.5,-619.5 1335.5,-619.5 1335.5,-589.5 873.5,-589.5"/>
<text text-anchor="start" x="880.5" y="-600.9" font-family="Arial" font-size="14.00" fill="#000000">id </text>
<text text-anchor="start" x="895.2798" y="-600.9" font-family="Arial" font-size="14.00" fill="#666666">[char(22)]</text>
<polygon fill="none" stroke="#000000" points="873.5,-559.5 873.5,-589.5 1335.5,-589.5 1335.5,-559.5 873.5,-559.5"/>
<text text-anchor="start" x="880.5" y="-570.9" font-family="Arial" font-size="14.00" fill="#000000">name </text>
<text text-anchor="start" x="919.399" y="-570.9" font-family="Arial" font-size="14.00" fill="#666666">[varchar(100)]</text>
<polygon fill="none" stroke="#000000" points="873.5,-529.5 873.5,-559.5 1335.5,-559.5 1335.5,-529.5 873.5,-529.5"/>
<text text-anchor="start" x="880.5" y="-540.9" font-family="Arial" font-size="14.00" fill="#000000">repository_id </text>
<text text-anchor="start" x="964.5112" y="-540.9" font-family="Arial" font-size="14.00" fill="#666666">[varchar(22)]</text>
<polygon fill="none" stroke="#000000" points="873.5,-499.5 873.5,-529.5 1335.5,-529.5 1335.5,-499.5 873.5,-499.5"/>
<text text-anchor="start" x="880.5" y="-510.9" font-family="Arial" font-size="14.00" fill="#000000">ref_name </text>
<text text-anchor="start" x="943.5154" y="-510.9" font-family="Arial" font-size="14.00" fill="#666666">[varchar(100)]</text>
<polygon fill="none" stroke="#000000" points="873.5,-469.5 873.5,-499.5 1335.5,-499.5 1335.5,-469.5 873.5,-469.5"/>
<text text-anchor="start" x="880.5" y="-480.9" font-family="Arial" font-size="14.00" fill="#000000">build_type </text>
<text text-anchor="start" x="948.19" y="-480.9" font-family="Arial" font-size="14.00" fill="#666666">[enum(&#39;runtime&#39;,&#39;static&#39;)]</text>
<polygon fill="none" stroke="#000000" points="873.5,-439.5 873.5,-469.5 1335.5,-469.5 1335.5,-439.5 873.5,-439.5"/>
<text text-anchor="start" x="880.5" y="-450.9" font-family="Arial" font-size="14.00" fill="#000000">running </text>
<text text-anchor="start" x="931.0708" y="-450.9" font-family="Arial" font-size="14.00" fill="#666666">[tinyint(1)]</text>
<polygon fill="none" stroke="#000000" points="873.5,-409.5 873.5,-439.5 1335.5,-439.5 1335.5,-409.5 873.5,-409.5"/>
<text text-anchor="start" x="880.1857" y="-420.9" font-family="Arial" font-size="14.00" fill="#000000">container </text>
<text text-anchor="start" x="941.6471" y="-420.9" font-family="Arial" font-size="14.00" fill="#666666">[enum(&#39;missing&#39;,&#39;starting&#39;,&#39;running&#39;,&#39;exited&#39;,&#39;errored&#39;,&#39;unknown&#39;)]</text>
<polygon fill="none" stroke="#000000" points="873.5,-379.5 873.5,-409.5 1335.5,-409.5 1335.5,-379.5 873.5,-379.5"/>
<text text-anchor="start" x="880.5" y="-390.9" font-family="Arial" font-size="14.00" fill="#000000">current_commit </text>
<text text-anchor="start" x="980.8338" y="-390.9" font-family="Arial" font-size="14.00" fill="#666666">[char(40)]</text>
<polygon fill="none" stroke="#000000" points="873.5,-349.5 873.5,-379.5 1335.5,-379.5 1335.5,-349.5 873.5,-349.5"/>
<text text-anchor="start" x="880.5" y="-360.9" font-family="Arial" font-size="14.00" fill="#000000">want_commit </text>
<text text-anchor="start" x="966.8366" y="-360.9" font-family="Arial" font-size="14.00" fill="#666666">[char(40)]</text>
<polygon fill="none" stroke="#000000" points="873.5,-319.5 873.5,-349.5 1335.5,-349.5 1335.5,-319.5 873.5,-319.5"/>
<text text-anchor="start" x="880.5" y="-330.9" font-family="Arial" font-size="14.00" fill="#000000">created_at </text>
<text text-anchor="start" x="950.528" y="-330.9" font-family="Arial" font-size="14.00" fill="#666666">[datetime(6)]</text>
<polygon fill="none" stroke="#000000" points="873.5,-289.5 873.5,-319.5 1335.5,-319.5 1335.5,-289.5 873.5,-289.5"/>
<text text-anchor="start" x="880.5" y="-300.9" font-family="Arial" font-size="14.00" fill="#000000">updated_at </text>
<text text-anchor="start" x="954.4326" y="-300.9" font-family="Arial" font-size="14.00" fill="#666666">[datetime(6)]</text>
</g>
<!-- repositories -->
<g id="node8" class="node">
<title>repositories</title>
<polygon fill="#efefef" stroke="transparent" points="247.5,-132.5 247.5,-167.5 451.5,-167.5 451.5,-132.5 247.5,-132.5"/>
<polygon fill="none" stroke="#000000" points="247.5,-132.5 247.5,-167.5 451.5,-167.5 451.5,-132.5 247.5,-132.5"/>
<text text-anchor="start" x="254.3701" y="-145.3" font-family="Arial Bold" font-size="18.00" fill="#000000">repositories</text>
<text text-anchor="start" x="347.3761" y="-145.3" font-family="Arial" font-size="14.00" fill="#000000"> </text>
<text text-anchor="start" x="351.2667" y="-145.3" font-family="Arial" font-size="14.00" fill="#666666">[BASE TABLE]</text>
<polygon fill="none" stroke="#000000" points="247.5,-102.5 247.5,-132.5 451.5,-132.5 451.5,-102.5 247.5,-102.5"/>
<text text-anchor="start" x="254.5" y="-113.9" font-family="Arial" font-size="14.00" fill="#000000">id </text>
<text text-anchor="start" x="269.2798" y="-113.9" font-family="Arial" font-size="14.00" fill="#666666">[char(22)]</text>
<polygon fill="none" stroke="#000000" points="247.5,-72.5 247.5,-102.5 451.5,-102.5 451.5,-72.5 247.5,-72.5"/>
<text text-anchor="start" x="254.5" y="-83.9" font-family="Arial" font-size="14.00" fill="#000000">name </text>
<text text-anchor="start" x="293.399" y="-83.9" font-family="Arial" font-size="14.00" fill="#666666">[varchar(256)]</text>
<polygon fill="none" stroke="#000000" points="247.5,-42.5 247.5,-72.5 451.5,-72.5 451.5,-42.5 247.5,-42.5"/>
<text text-anchor="start" x="254.5" y="-53.9" font-family="Arial" font-size="14.00" fill="#000000">url </text>
<text text-anchor="start" x="273.9404" y="-53.9" font-family="Arial" font-size="14.00" fill="#666666">[varchar(256)]</text>
</g>
<!-- applications&#45;&gt;repositories -->
<g id="edge1" class="edge">
<title>applications:repository_id&#45;&gt;repositories:id</title>
<path fill="none" stroke="#000000" d="M863.2915,-544.1558C733.2605,-535.0418 837.1732,-347.1651 736.5,-247 637.8719,-148.8696 590.6297,-117.5 451.5,-117.5"/>
<polygon fill="#000000" stroke="#000000" points="863.5057,-544.1629 873.3483,-548.9974 868.5028,-544.3315 873.5,-544.5 873.5,-544.5 873.5,-544.5 868.5028,-544.3315 873.6517,-540.0026 863.5057,-544.1629 863.5057,-544.1629"/>
<text text-anchor="start" x="735.111" y="-528.5" font-family="Arial" font-size="10.00" fill="#000000">FOREIGN KEY (repository_id) REFERENCES repositories (id)</text>
</g>
<!-- application_config -->
<g id="node2" class="node">
<title>application_config</title>
<polygon fill="#efefef" stroke="transparent" points="910.5,-1046.5 910.5,-1081.5 1165.5,-1081.5 1165.5,-1046.5 910.5,-1046.5"/>
<polygon fill="none" stroke="#000000" points="910.5,-1046.5 910.5,-1081.5 1165.5,-1081.5 1165.5,-1046.5 910.5,-1046.5"/>
<text text-anchor="start" x="917.3515" y="-1059.3" font-family="Arial Bold" font-size="18.00" fill="#000000">application_config</text>
<text text-anchor="start" x="1061.3947" y="-1059.3" font-family="Arial" font-size="14.00" fill="#000000"> </text>
<text text-anchor="start" x="1065.2853" y="-1059.3" font-family="Arial" font-size="14.00" fill="#666666">[BASE TABLE]</text>
<polygon fill="none" stroke="#000000" points="910.5,-1016.5 910.5,-1046.5 1165.5,-1046.5 1165.5,-1016.5 910.5,-1016.5"/>
<text text-anchor="start" x="917.5" y="-1027.9" font-family="Arial" font-size="14.00" fill="#000000">application_id </text>
<text text-anchor="start" x="1006.9684" y="-1027.9" font-family="Arial" font-size="14.00" fill="#666666">[char(22)]</text>
<polygon fill="none" stroke="#000000" points="910.5,-986.5 910.5,-1016.5 1165.5,-1016.5 1165.5,-986.5 910.5,-986.5"/>
<text text-anchor="start" x="917.5" y="-997.9" font-family="Arial" font-size="14.00" fill="#000000">use_mariadb </text>
<text text-anchor="start" x="1002.2966" y="-997.9" font-family="Arial" font-size="14.00" fill="#666666">[tinyint(1)]</text>
<polygon fill="none" stroke="#000000" points="910.5,-956.5 910.5,-986.5 1165.5,-986.5 1165.5,-956.5 910.5,-956.5"/>
<text text-anchor="start" x="917.5" y="-967.9" font-family="Arial" font-size="14.00" fill="#000000">use_mongodb </text>
<text text-anchor="start" x="1010.0946" y="-967.9" font-family="Arial" font-size="14.00" fill="#666666">[tinyint(1)]</text>
<polygon fill="none" stroke="#000000" points="910.5,-926.5 910.5,-956.5 1165.5,-956.5 1165.5,-926.5 910.5,-926.5"/>
<text text-anchor="start" x="917.5" y="-937.9" font-family="Arial" font-size="14.00" fill="#000000">base_image </text>
<text text-anchor="start" x="997.636" y="-937.9" font-family="Arial" font-size="14.00" fill="#666666">[varchar(1000)]</text>
<polygon fill="none" stroke="#000000" points="910.5,-896.5 910.5,-926.5 1165.5,-926.5 1165.5,-896.5 910.5,-896.5"/>
<text text-anchor="start" x="917.5" y="-907.9" font-family="Arial" font-size="14.00" fill="#000000">dockerfile_name </text>
<text text-anchor="start" x="1024.0764" y="-907.9" font-family="Arial" font-size="14.00" fill="#666666">[varchar(100)]</text>
<polygon fill="none" stroke="#000000" points="910.5,-866.5 910.5,-896.5 1165.5,-896.5 1165.5,-866.5 910.5,-866.5"/>
<text text-anchor="start" x="917.5" y="-877.9" font-family="Arial" font-size="14.00" fill="#000000">artifact_path </text>
<text text-anchor="start" x="998.4158" y="-877.9" font-family="Arial" font-size="14.00" fill="#666666">[varchar(100)]</text>
<polygon fill="none" stroke="#000000" points="910.5,-836.5 910.5,-866.5 1165.5,-866.5 1165.5,-836.5 910.5,-836.5"/>
<text text-anchor="start" x="917.5" y="-847.9" font-family="Arial" font-size="14.00" fill="#000000">build_cmd </text>
<text text-anchor="start" x="985.1774" y="-847.9" font-family="Arial" font-size="14.00" fill="#666666">[text]</text>
<polygon fill="none" stroke="#000000" points="910.5,-806.5 910.5,-836.5 1165.5,-836.5 1165.5,-806.5 910.5,-806.5"/>
<text text-anchor="start" x="917.5" y="-817.9" font-family="Arial" font-size="14.00" fill="#000000">entrypoint_cmd </text>
<text text-anchor="start" x="1017.0778" y="-817.9" font-family="Arial" font-size="14.00" fill="#666666">[text]</text>
<polygon fill="none" stroke="#000000" points="910.5,-776.5 910.5,-806.5 1165.5,-806.5 1165.5,-776.5 910.5,-776.5"/>
<text text-anchor="start" x="917.5" y="-787.9" font-family="Arial" font-size="14.00" fill="#000000">authentication </text>
<text text-anchor="start" x="1008.5364" y="-787.9" font-family="Arial" font-size="14.00" fill="#666666">[enum(&#39;off&#39;,&#39;soft&#39;,&#39;hard&#39;)]</text>
</g>
<!-- application_config&#45;&gt;applications -->
<g id="edge2" class="edge">
<title>application_config:application_id&#45;&gt;applications:id</title>
<path fill="none" stroke="#000000" d="M1175.5639,-1029.3481C1229.106,-1004.9713 1206.8993,-780.8167 1165.5,-734 1078.8798,-636.0448 960.1202,-795.9552 873.5,-698 845.9722,-666.8699 831.9444,-604.5 873.5,-604.5"/>
<polygon fill="#000000" stroke="#000000" points="1175.279,-1029.409 1164.559,-1027.0995 1170.3895,-1030.4545 1165.5,-1031.5 1165.5,-1031.5 1165.5,-1031.5 1170.3895,-1030.4545 1166.441,-1035.9005 1175.279,-1029.409 1175.279,-1029.409"/>
<text text-anchor="start" x="1172.102" y="-1041.5" font-family="Arial" font-size="10.00" fill="#000000">FOREIGN KEY (application_id) REFERENCES applications (id)</text>
</g>
<!-- application_owners -->
<g id="node3" class="node">
<title>application_owners</title>
<polygon fill="#efefef" stroke="transparent" points="541.5,-941.5 541.5,-976.5 806.5,-976.5 806.5,-941.5 541.5,-941.5"/>
<polygon fill="none" stroke="#000000" points="541.5,-941.5 541.5,-976.5 806.5,-976.5 806.5,-941.5 541.5,-941.5"/>
<text text-anchor="start" x="548.3565" y="-954.3" font-family="Arial Bold" font-size="18.00" fill="#000000">application_owners</text>
<text text-anchor="start" x="702.3897" y="-954.3" font-family="Arial" font-size="14.00" fill="#000000"> </text>
<text text-anchor="start" x="706.2803" y="-954.3" font-family="Arial" font-size="14.00" fill="#666666">[BASE TABLE]</text>
<polygon fill="none" stroke="#000000" points="541.5,-911.5 541.5,-941.5 806.5,-941.5 806.5,-911.5 541.5,-911.5"/>
<text text-anchor="start" x="548.5" y="-922.9" font-family="Arial" font-size="14.00" fill="#000000">user_id </text>
<text text-anchor="start" x="598.2882" y="-922.9" font-family="Arial" font-size="14.00" fill="#666666">[char(22)]</text>
<polygon fill="none" stroke="#000000" points="541.5,-881.5 541.5,-911.5 806.5,-911.5 806.5,-881.5 541.5,-881.5"/>
<text text-anchor="start" x="548.5" y="-892.9" font-family="Arial" font-size="14.00" fill="#000000">application_id </text>
<text text-anchor="start" x="637.9684" y="-892.9" font-family="Arial" font-size="14.00" fill="#666666">[char(22)]</text>
</g>
<!-- application_owners&#45;&gt;applications -->
<g id="edge3" class="edge">
<title>application_owners:application_id&#45;&gt;applications:id</title>
<path fill="none" stroke="#000000" d="M816.6904,-895.857C928.9996,-880.7496 743.9906,-604.5 873.5,-604.5"/>
<polygon fill="#000000" stroke="#000000" points="816.4802,-895.8701 806.2166,-892.0089 811.4901,-896.1851 806.5,-896.5 806.5,-896.5 806.5,-896.5 811.4901,-896.1851 806.7834,-900.9911 816.4802,-895.8701 816.4802,-895.8701"/>
<text text-anchor="start" x="813.102" y="-906.5" font-family="Arial" font-size="10.00" fill="#000000">FOREIGN KEY (application_id) REFERENCES applications (id)</text>
</g>
<!-- users -->
<g id="node11" class="node">
<title>users</title>
<polygon fill="#efefef" stroke="transparent" points="530.5,-499.5 530.5,-534.5 685.5,-534.5 685.5,-499.5 530.5,-499.5"/>
<polygon fill="none" stroke="#000000" points="530.5,-499.5 530.5,-534.5 685.5,-534.5 685.5,-499.5 530.5,-499.5"/>
<text text-anchor="start" x="537.3708" y="-512.3" font-family="Arial Bold" font-size="18.00" fill="#000000">users</text>
<text text-anchor="start" x="581.3754" y="-512.3" font-family="Arial" font-size="14.00" fill="#000000"> </text>
<text text-anchor="start" x="585.266" y="-512.3" font-family="Arial" font-size="14.00" fill="#666666">[BASE TABLE]</text>
<polygon fill="none" stroke="#000000" points="530.5,-469.5 530.5,-499.5 685.5,-499.5 685.5,-469.5 530.5,-469.5"/>
<text text-anchor="start" x="537.5" y="-480.9" font-family="Arial" font-size="14.00" fill="#000000">id </text>
<text text-anchor="start" x="552.2798" y="-480.9" font-family="Arial" font-size="14.00" fill="#666666">[char(22)]</text>
<polygon fill="none" stroke="#000000" points="530.5,-439.5 530.5,-469.5 685.5,-469.5 685.5,-439.5 530.5,-439.5"/>
<text text-anchor="start" x="537.5" y="-450.9" font-family="Arial" font-size="14.00" fill="#000000">name </text>
<text text-anchor="start" x="576.399" y="-450.9" font-family="Arial" font-size="14.00" fill="#666666">[varchar(255)]</text>
<polygon fill="none" stroke="#000000" points="530.5,-409.5 530.5,-439.5 685.5,-439.5 685.5,-409.5 530.5,-409.5"/>
<text text-anchor="start" x="537.5" y="-420.9" font-family="Arial" font-size="14.00" fill="#000000">admin </text>
<text text-anchor="start" x="579.5056" y="-420.9" font-family="Arial" font-size="14.00" fill="#666666">[tinyint(1)]</text>
</g>
<!-- application_owners&#45;&gt;users -->
<g id="edge4" class="edge">
<title>application_owners:user_id&#45;&gt;users:id</title>
<path fill="none" stroke="#000000" d="M531.3045,-926.0951C354.2466,-911.0975 888.4752,-484.5 685.5,-484.5"/>
<polygon fill="#000000" stroke="#000000" points="531.5079,-926.1031 541.3214,-930.9965 536.5039,-926.3015 541.5,-926.5 541.5,-926.5 541.5,-926.5 536.5039,-926.3015 541.6786,-922.0035 531.5079,-926.1031 531.5079,-926.1031"/>
<text text-anchor="start" x="488.445" y="-910.5" font-family="Arial" font-size="10.00" fill="#000000">FOREIGN KEY (user_id) REFERENCES users (id)</text>
</g>
<!-- artifacts -->
<g id="node4" class="node">
<title>artifacts</title>
<polygon fill="#efefef" stroke="transparent" points="1414.5,-1353.5 1414.5,-1388.5 1588.5,-1388.5 1588.5,-1353.5 1414.5,-1353.5"/>
<polygon fill="none" stroke="#000000" points="1414.5,-1353.5 1414.5,-1388.5 1588.5,-1388.5 1588.5,-1353.5 1414.5,-1353.5"/>
<text text-anchor="start" x="1421.3704" y="-1366.3" font-family="Arial Bold" font-size="18.00" fill="#000000">artifacts</text>
<text text-anchor="start" x="1484.3758" y="-1366.3" font-family="Arial" font-size="14.00" fill="#000000"> </text>
<text text-anchor="start" x="1488.2664" y="-1366.3" font-family="Arial" font-size="14.00" fill="#666666">[BASE TABLE]</text>
<polygon fill="none" stroke="#000000" points="1414.5,-1323.5 1414.5,-1353.5 1588.5,-1353.5 1588.5,-1323.5 1414.5,-1323.5"/>
<text text-anchor="start" x="1421.5" y="-1334.9" font-family="Arial" font-size="14.00" fill="#000000">id </text>
<text text-anchor="start" x="1436.2798" y="-1334.9" font-family="Arial" font-size="14.00" fill="#666666">[char(22)]</text>
<polygon fill="none" stroke="#000000" points="1414.5,-1293.5 1414.5,-1323.5 1588.5,-1323.5 1588.5,-1293.5 1414.5,-1293.5"/>
<text text-anchor="start" x="1421.5" y="-1304.9" font-family="Arial" font-size="14.00" fill="#000000">size </text>
<text text-anchor="start" x="1450.2798" y="-1304.9" font-family="Arial" font-size="14.00" fill="#666666">[bigint(20)]</text>
<polygon fill="none" stroke="#000000" points="1414.5,-1263.5 1414.5,-1293.5 1588.5,-1293.5 1588.5,-1263.5 1414.5,-1263.5"/>
<text text-anchor="start" x="1421.5" y="-1274.9" font-family="Arial" font-size="14.00" fill="#000000">created_at </text>
<text text-anchor="start" x="1491.528" y="-1274.9" font-family="Arial" font-size="14.00" fill="#666666">[datetime(6)]</text>
<polygon fill="none" stroke="#000000" points="1414.5,-1233.5 1414.5,-1263.5 1588.5,-1263.5 1588.5,-1233.5 1414.5,-1233.5"/>
<text text-anchor="start" x="1421.5" y="-1244.9" font-family="Arial" font-size="14.00" fill="#000000">deleted_at </text>
<text text-anchor="start" x="1490.7566" y="-1244.9" font-family="Arial" font-size="14.00" fill="#666666">[datetime(6)]</text>
<polygon fill="none" stroke="#000000" points="1414.5,-1203.5 1414.5,-1233.5 1588.5,-1233.5 1588.5,-1203.5 1414.5,-1203.5"/>
<text text-anchor="start" x="1421.5" y="-1214.9" font-family="Arial" font-size="14.00" fill="#000000">build_id </text>
<text text-anchor="start" x="1473.6234" y="-1214.9" font-family="Arial" font-size="14.00" fill="#666666">[varchar(22)]</text>
</g>
<!-- builds -->
<g id="node6" class="node">
<title>builds</title>
<polygon fill="#efefef" stroke="transparent" points="1269.5,-1031.5 1269.5,-1066.5 1733.5,-1066.5 1733.5,-1031.5 1269.5,-1031.5"/>
<polygon fill="none" stroke="#000000" points="1269.5,-1031.5 1269.5,-1066.5 1733.5,-1066.5 1733.5,-1031.5 1269.5,-1031.5"/>
<text text-anchor="start" x="1429.3696" y="-1044.3" font-family="Arial Bold" font-size="18.00" fill="#000000">builds</text>
<text text-anchor="start" x="1476.3766" y="-1044.3" font-family="Arial" font-size="14.00" fill="#000000"> </text>
<text text-anchor="start" x="1480.2672" y="-1044.3" font-family="Arial" font-size="14.00" fill="#666666">[BASE TABLE]</text>
<polygon fill="none" stroke="#000000" points="1269.5,-1001.5 1269.5,-1031.5 1733.5,-1031.5 1733.5,-1001.5 1269.5,-1001.5"/>
<text text-anchor="start" x="1276.5" y="-1012.9" font-family="Arial" font-size="14.00" fill="#000000">id </text>
<text text-anchor="start" x="1291.2798" y="-1012.9" font-family="Arial" font-size="14.00" fill="#666666">[char(22)]</text>
<polygon fill="none" stroke="#000000" points="1269.5,-971.5 1269.5,-1001.5 1733.5,-1001.5 1733.5,-971.5 1269.5,-971.5"/>
<text text-anchor="start" x="1276.5" y="-982.9" font-family="Arial" font-size="14.00" fill="#000000">commit </text>
<text text-anchor="start" x="1325.4916" y="-982.9" font-family="Arial" font-size="14.00" fill="#666666">[char(40)]</text>
<polygon fill="none" stroke="#000000" points="1269.5,-941.5 1269.5,-971.5 1733.5,-971.5 1733.5,-941.5 1269.5,-941.5"/>
<text text-anchor="start" x="1276.3779" y="-952.9" font-family="Arial" font-size="14.00" fill="#000000">status </text>
<text text-anchor="start" x="1317.6149" y="-952.9" font-family="Arial" font-size="14.00" fill="#666666">[enum(&#39;building&#39;,&#39;succeeded&#39;,&#39;failed&#39;,&#39;canceled&#39;,&#39;queued&#39;,&#39;skipped&#39;)]</text>
<polygon fill="none" stroke="#000000" points="1269.5,-911.5 1269.5,-941.5 1733.5,-941.5 1733.5,-911.5 1269.5,-911.5"/>
<text text-anchor="start" x="1276.5" y="-922.9" font-family="Arial" font-size="14.00" fill="#000000">started_at </text>
<text text-anchor="start" x="1342.636" y="-922.9" font-family="Arial" font-size="14.00" fill="#666666">[datetime(6)]</text>
<polygon fill="none" stroke="#000000" points="1269.5,-881.5 1269.5,-911.5 1733.5,-911.5 1733.5,-881.5 1269.5,-881.5"/>
<text text-anchor="start" x="1276.5" y="-892.9" font-family="Arial" font-size="14.00" fill="#000000">updated_at </text>
<text text-anchor="start" x="1350.4326" y="-892.9" font-family="Arial" font-size="14.00" fill="#666666">[datetime(6)]</text>
<polygon fill="none" stroke="#000000" points="1269.5,-851.5 1269.5,-881.5 1733.5,-881.5 1733.5,-851.5 1269.5,-851.5"/>
<text text-anchor="start" x="1276.5" y="-862.9" font-family="Arial" font-size="14.00" fill="#000000">finished_at </text>
<text text-anchor="start" x="1348.0806" y="-862.9" font-family="Arial" font-size="14.00" fill="#666666">[datetime(6)]</text>
<polygon fill="none" stroke="#000000" points="1269.5,-821.5 1269.5,-851.5 1733.5,-851.5 1733.5,-821.5 1269.5,-821.5"/>
<text text-anchor="start" x="1276.5" y="-832.9" font-family="Arial" font-size="14.00" fill="#000000">retriable </text>
<text text-anchor="start" x="1330.946" y="-832.9" font-family="Arial" font-size="14.00" fill="#666666">[tinyint(1)]</text>
<polygon fill="none" stroke="#000000" points="1269.5,-791.5 1269.5,-821.5 1733.5,-821.5 1733.5,-791.5 1269.5,-791.5"/>
<text text-anchor="start" x="1276.5" y="-802.9" font-family="Arial" font-size="14.00" fill="#000000">application_id </text>
<text text-anchor="start" x="1365.9684" y="-802.9" font-family="Arial" font-size="14.00" fill="#666666">[char(22)]</text>
</g>
<!-- artifacts&#45;&gt;builds -->
<g id="edge5" class="edge">
<title>artifacts:build_id&#45;&gt;builds:id</title>
<path fill="none" stroke="#000000" d="M1502.0197,-1193.4265C1512.3321,-1099.1977 1673.2992,-1199.1679 1733.5,-1110 1756.7525,-1075.559 1775.0556,-1016.5 1733.5,-1016.5"/>
<polygon fill="#000000" stroke="#000000" points="1502.0154,-1193.5133 1497.006,-1203.2681 1501.7577,-1198.5066 1501.5,-1203.5 1501.5,-1203.5 1501.5,-1203.5 1501.7577,-1198.5066 1505.994,-1203.7319 1502.0154,-1193.5133 1502.0154,-1193.5133"/>
<text text-anchor="start" x="1265.777" y="-1213.5" font-family="Arial" font-size="10.00" fill="#000000">FOREIGN KEY (build_id) REFERENCES builds (id)</text>
</g>
<!-- available_domains -->
<g id="node5" class="node">
<title>available_domains</title>
<polygon fill="#efefef" stroke="transparent" points="1692.5,-1308.5 1692.5,-1343.5 1952.5,-1343.5 1952.5,-1308.5 1692.5,-1308.5"/>
<polygon fill="none" stroke="#000000" points="1692.5,-1308.5 1692.5,-1343.5 1952.5,-1343.5 1952.5,-1308.5 1692.5,-1308.5"/>
<text text-anchor="start" x="1699.3576" y="-1321.3" font-family="Arial Bold" font-size="18.00" fill="#000000">available_domains</text>
<text text-anchor="start" x="1848.3886" y="-1321.3" font-family="Arial" font-size="14.00" fill="#000000"> </text>
<text text-anchor="start" x="1852.2792" y="-1321.3" font-family="Arial" font-size="14.00" fill="#666666">[BASE TABLE]</text>
<polygon fill="none" stroke="#000000" points="1692.5,-1278.5 1692.5,-1308.5 1952.5,-1308.5 1952.5,-1278.5 1692.5,-1278.5"/>
<text text-anchor="start" x="1699.5" y="-1289.9" font-family="Arial" font-size="14.00" fill="#000000">domain </text>
<text text-anchor="start" x="1749.2882" y="-1289.9" font-family="Arial" font-size="14.00" fill="#666666">[varchar(100)]</text>
<polygon fill="none" stroke="#000000" points="1692.5,-1248.5 1692.5,-1278.5 1952.5,-1278.5 1952.5,-1248.5 1692.5,-1248.5"/>
<text text-anchor="start" x="1699.5" y="-1259.9" font-family="Arial" font-size="14.00" fill="#000000">available </text>
<text text-anchor="start" x="1758.6234" y="-1259.9" font-family="Arial" font-size="14.00" fill="#666666">[tinyint(1)]</text>
</g>
<!-- builds&#45;&gt;applications -->
<g id="edge6" class="edge">
<title>builds:application_id&#45;&gt;applications:id</title>
<path fill="none" stroke="#000000" d="M1259.6366,-803.6716C1248.7677,-794.963 1260.1719,-767.9965 1269.5,-749 1285.8395,-715.7247 1319.1605,-731.2753 1335.5,-698 1353.8164,-660.6989 1377.0556,-604.5 1335.5,-604.5"/>
<polygon fill="#000000" stroke="#000000" points="1259.8874,-803.7435 1268.2596,-810.8257 1264.6937,-805.1217 1269.5,-806.5 1269.5,-806.5 1269.5,-806.5 1264.6937,-805.1217 1270.7404,-802.1743 1259.8874,-803.7435 1259.8874,-803.7435"/>
<text text-anchor="start" x="1276.102" y="-816.5" font-family="Arial" font-size="10.00" fill="#000000">FOREIGN KEY (application_id) REFERENCES applications (id)</text>
</g>
<!-- environments -->
<g id="node7" class="node">
<title>environments</title>
<polygon fill="#efefef" stroke="transparent" points="1838.5,-971.5 1838.5,-1006.5 2057.5,-1006.5 2057.5,-971.5 1838.5,-971.5"/>
<polygon fill="none" stroke="#000000" points="1838.5,-971.5 1838.5,-1006.5 2057.5,-1006.5 2057.5,-971.5 1838.5,-971.5"/>
<text text-anchor="start" x="1845.3641" y="-984.3" font-family="Arial Bold" font-size="18.00" fill="#000000">environments</text>
<text text-anchor="start" x="1953.3821" y="-984.3" font-family="Arial" font-size="14.00" fill="#000000"> </text>
<text text-anchor="start" x="1957.2727" y="-984.3" font-family="Arial" font-size="14.00" fill="#666666">[BASE TABLE]</text>
<polygon fill="none" stroke="#000000" points="1838.5,-941.5 1838.5,-971.5 2057.5,-971.5 2057.5,-941.5 1838.5,-941.5"/>
<text text-anchor="start" x="1845.5" y="-952.9" font-family="Arial" font-size="14.00" fill="#000000">application_id </text>
<text text-anchor="start" x="1934.9684" y="-952.9" font-family="Arial" font-size="14.00" fill="#666666">[char(22)]</text>
<polygon fill="none" stroke="#000000" points="1838.5,-911.5 1838.5,-941.5 2057.5,-941.5 2057.5,-911.5 1838.5,-911.5"/>
<text text-anchor="start" x="1845.5" y="-922.9" font-family="Arial" font-size="14.00" fill="#000000">key </text>
<text text-anchor="start" x="1871.1732" y="-922.9" font-family="Arial" font-size="14.00" fill="#666666">[varchar(100)]</text>
<polygon fill="none" stroke="#000000" points="1838.5,-881.5 1838.5,-911.5 2057.5,-911.5 2057.5,-881.5 1838.5,-881.5"/>
<text text-anchor="start" x="1845.5" y="-892.9" font-family="Arial" font-size="14.00" fill="#000000">value </text>
<text text-anchor="start" x="1882.845" y="-892.9" font-family="Arial" font-size="14.00" fill="#666666">[text]</text>
<polygon fill="none" stroke="#000000" points="1838.5,-851.5 1838.5,-881.5 2057.5,-881.5 2057.5,-851.5 1838.5,-851.5"/>
<text text-anchor="start" x="1845.5" y="-862.9" font-family="Arial" font-size="14.00" fill="#000000">system </text>
<text text-anchor="start" x="1893.7244" y="-862.9" font-family="Arial" font-size="14.00" fill="#666666">[tinyint(1)]</text>
</g>
<!-- environments&#45;&gt;applications -->
<g id="edge7" class="edge">
<title>environments:application_id&#45;&gt;applications:id</title>
<path fill="none" stroke="#000000" d="M1828.325,-955.9271C1745.1864,-945.833 1853.1596,-804.8715 1785.5,-734 1713.6448,-658.7338 1439.5584,-604.5 1335.5,-604.5"/>
<polygon fill="#000000" stroke="#000000" points="1828.5158,-955.9378 1838.247,-960.9929 1833.5079,-956.2189 1838.5,-956.5 1838.5,-956.5 1838.5,-956.5 1833.5079,-956.2189 1838.753,-952.0071 1828.5158,-955.9378 1828.5158,-955.9378"/>
<text text-anchor="start" x="1845.102" y="-966.5" font-family="Arial" font-size="10.00" fill="#000000">FOREIGN KEY (application_id) REFERENCES applications (id)</text>
</g>
<!-- repository_auth -->
<g id="node9" class="node">
<title>repository_auth</title>
<polygon fill="#efefef" stroke="transparent" points="43.5,-529.5 43.5,-564.5 278.5,-564.5 278.5,-529.5 43.5,-529.5"/>
<polygon fill="none" stroke="#000000" points="43.5,-529.5 43.5,-564.5 278.5,-564.5 278.5,-529.5 43.5,-529.5"/>
<text text-anchor="start" x="50.3568" y="-542.3" font-family="Arial Bold" font-size="18.00" fill="#000000">repository_auth</text>
<text text-anchor="start" x="174.3894" y="-542.3" font-family="Arial" font-size="14.00" fill="#000000"> </text>
<text text-anchor="start" x="178.28" y="-542.3" font-family="Arial" font-size="14.00" fill="#666666">[BASE TABLE]</text>
<polygon fill="none" stroke="#000000" points="43.5,-499.5 43.5,-529.5 278.5,-529.5 278.5,-499.5 43.5,-499.5"/>
<text text-anchor="start" x="50.5" y="-510.9" font-family="Arial" font-size="14.00" fill="#000000">repository_id </text>
<text text-anchor="start" x="134.5112" y="-510.9" font-family="Arial" font-size="14.00" fill="#666666">[char(22)]</text>
<polygon fill="none" stroke="#000000" points="43.5,-469.5 43.5,-499.5 278.5,-499.5 278.5,-469.5 43.5,-469.5"/>
<text text-anchor="start" x="50.5" y="-480.9" font-family="Arial" font-size="14.00" fill="#000000">method </text>
<text text-anchor="start" x="101.0722" y="-480.9" font-family="Arial" font-size="14.00" fill="#666666">[enum(&#39;basic&#39;,&#39;ssh&#39;)]</text>
<polygon fill="none" stroke="#000000" points="43.5,-439.5 43.5,-469.5 278.5,-469.5 278.5,-439.5 43.5,-439.5"/>
<text text-anchor="start" x="50.5" y="-450.9" font-family="Arial" font-size="14.00" fill="#000000">username </text>
<text text-anchor="start" x="116.6248" y="-450.9" font-family="Arial" font-size="14.00" fill="#666666">[varchar(256)]</text>
<polygon fill="none" stroke="#000000" points="43.5,-409.5 43.5,-439.5 278.5,-439.5 278.5,-409.5 43.5,-409.5"/>
<text text-anchor="start" x="50.5" y="-420.9" font-family="Arial" font-size="14.00" fill="#000000">password </text>
<text text-anchor="start" x="114.2882" y="-420.9" font-family="Arial" font-size="14.00" fill="#666666">[varchar(256)]</text>
<polygon fill="none" stroke="#000000" points="43.5,-379.5 43.5,-409.5 278.5,-409.5 278.5,-379.5 43.5,-379.5"/>
<text text-anchor="start" x="50.5" y="-390.9" font-family="Arial" font-size="14.00" fill="#000000">ssh_key </text>
<text text-anchor="start" x="105.7384" y="-390.9" font-family="Arial" font-size="14.00" fill="#666666">[text]</text>
</g>
<!-- repository_auth&#45;&gt;repositories -->
<g id="edge8" class="edge">
<title>repository_auth:repository_id&#45;&gt;repositories:id</title>
<path fill="none" stroke="#000000" d="M288.6369,-514.1515C406.2592,-505.6173 263.3852,-342.0564 247.5,-211 242.4997,-169.7464 205.9444,-117.5 247.5,-117.5"/>
<polygon fill="#000000" stroke="#000000" points="288.4941,-514.1563 278.3453,-510.0027 283.497,-514.3281 278.5,-514.5 278.5,-514.5 278.5,-514.5 283.497,-514.3281 278.6547,-518.9973 288.4941,-514.1563 288.4941,-514.1563"/>
<text text-anchor="start" x="212.861" y="-498.5" font-family="Arial" font-size="10.00" fill="#000000">FOREIGN KEY (repository_id) REFERENCES repositories (id)</text>
</g>
<!-- repository_owners -->
<g id="node10" class="node">
<title>repository_owners</title>
<polygon fill="#efefef" stroke="transparent" points="178.5,-941.5 178.5,-976.5 436.5,-976.5 436.5,-941.5 178.5,-941.5"/>
<polygon fill="none" stroke="#000000" points="178.5,-941.5 178.5,-976.5 436.5,-976.5 436.5,-941.5 178.5,-941.5"/>
<text text-anchor="start" x="185.3647" y="-954.3" font-family="Arial Bold" font-size="18.00" fill="#000000">repository_owners</text>
<text text-anchor="start" x="332.3815" y="-954.3" font-family="Arial" font-size="14.00" fill="#000000"> </text>
<text text-anchor="start" x="336.2721" y="-954.3" font-family="Arial" font-size="14.00" fill="#666666">[BASE TABLE]</text>
<polygon fill="none" stroke="#000000" points="178.5,-911.5 178.5,-941.5 436.5,-941.5 436.5,-911.5 178.5,-911.5"/>
<text text-anchor="start" x="185.5" y="-922.9" font-family="Arial" font-size="14.00" fill="#000000">user_id </text>
<text text-anchor="start" x="235.2882" y="-922.9" font-family="Arial" font-size="14.00" fill="#666666">[char(22)]</text>
<polygon fill="none" stroke="#000000" points="178.5,-881.5 178.5,-911.5 436.5,-911.5 436.5,-881.5 178.5,-881.5"/>
<text text-anchor="start" x="185.5" y="-892.9" font-family="Arial" font-size="14.00" fill="#000000">repository_id </text>
<text text-anchor="start" x="269.5112" y="-892.9" font-family="Arial" font-size="14.00" fill="#666666">[char(22)]</text>
</g>
<!-- repository_owners&#45;&gt;repositories -->
<g id="edge9" class="edge">
<title>repository_owners:repository_id&#45;&gt;repositories:id</title>
<path fill="none" stroke="#000000" d="M308.1995,-871.3489C322.02,-752.1457 535.0997,-117.5 451.5,-117.5"/>
<polygon fill="#000000" stroke="#000000" points="308.1875,-871.5237 303.0106,-881.1906 307.8438,-876.5118 307.5,-881.5 307.5,-881.5 307.5,-881.5 307.8438,-876.5118 311.9894,-881.8094 308.1875,-871.5237 308.1875,-871.5237"/>
<text text-anchor="start" x="23.611" y="-891.5" font-family="Arial" font-size="10.00" fill="#000000">FOREIGN KEY (repository_id) REFERENCES repositories (id)</text>
</g>
<!-- repository_owners&#45;&gt;users -->
<g id="edge10" class="edge">
<title>repository_owners:user_id&#45;&gt;users:id</title>
<path fill="none" stroke="#000000" d="M446.593,-924.8105C529.4688,-895.1357 433.7095,-484.5 530.5,-484.5"/>
<polygon fill="#000000" stroke="#000000" points="446.3628,-924.849 435.757,-922.0618 441.4314,-925.6745 436.5,-926.5 436.5,-926.5 436.5,-926.5 441.4314,-925.6745 437.243,-930.9382 446.3628,-924.849 446.3628,-924.849"/>
<text text-anchor="start" x="443.445" y="-936.5" font-family="Arial" font-size="10.00" fill="#000000">FOREIGN KEY (user_id) REFERENCES users (id)</text>
</g>
<!-- websites -->
<g id="node12" class="node">
<title>websites</title>
<polygon fill="#efefef" stroke="transparent" points="2161.5,-1016.5 2161.5,-1051.5 2342.5,-1051.5 2342.5,-1016.5 2161.5,-1016.5"/>
<polygon fill="none" stroke="#000000" points="2161.5,-1016.5 2161.5,-1051.5 2342.5,-1051.5 2342.5,-1016.5 2161.5,-1016.5"/>
<text text-anchor="start" x="2168.3685" y="-1029.3" font-family="Arial Bold" font-size="18.00" fill="#000000">websites</text>
<text text-anchor="start" x="2238.3777" y="-1029.3" font-family="Arial" font-size="14.00" fill="#000000"> </text>
<text text-anchor="start" x="2242.2683" y="-1029.3" font-family="Arial" font-size="14.00" fill="#666666">[BASE TABLE]</text>
<polygon fill="none" stroke="#000000" points="2161.5,-986.5 2161.5,-1016.5 2342.5,-1016.5 2342.5,-986.5 2161.5,-986.5"/>
<text text-anchor="start" x="2168.5" y="-997.9" font-family="Arial" font-size="14.00" fill="#000000">id </text>
<text text-anchor="start" x="2183.2798" y="-997.9" font-family="Arial" font-size="14.00" fill="#666666">[char(22)]</text>
<polygon fill="none" stroke="#000000" points="2161.5,-956.5 2161.5,-986.5 2342.5,-986.5 2342.5,-956.5 2161.5,-956.5"/>
<text text-anchor="start" x="2168.5" y="-967.9" font-family="Arial" font-size="14.00" fill="#000000">fqdn </text>
<text text-anchor="start" x="2199.629" y="-967.9" font-family="Arial" font-size="14.00" fill="#666666">[varchar(100)]</text>
<polygon fill="none" stroke="#000000" points="2161.5,-926.5 2161.5,-956.5 2342.5,-956.5 2342.5,-926.5 2161.5,-926.5"/>
<text text-anchor="start" x="2168.5" y="-937.9" font-family="Arial" font-size="14.00" fill="#000000">path_prefix </text>
<text text-anchor="start" x="2241.6346" y="-937.9" font-family="Arial" font-size="14.00" fill="#666666">[varchar(100)]</text>
<polygon fill="none" stroke="#000000" points="2161.5,-896.5 2161.5,-926.5 2342.5,-926.5 2342.5,-896.5 2161.5,-896.5"/>
<text text-anchor="start" x="2168.5" y="-907.9" font-family="Arial" font-size="14.00" fill="#000000">strip_prefix </text>
<text text-anchor="start" x="2240.8366" y="-907.9" font-family="Arial" font-size="14.00" fill="#666666">[tinyint(1)]</text>
<polygon fill="none" stroke="#000000" points="2161.5,-866.5 2161.5,-896.5 2342.5,-896.5 2342.5,-866.5 2161.5,-866.5"/>
<text text-anchor="start" x="2168.5" y="-877.9" font-family="Arial" font-size="14.00" fill="#000000">https </text>
<text text-anchor="start" x="2202.737" y="-877.9" font-family="Arial" font-size="14.00" fill="#666666">[tinyint(1)]</text>
<polygon fill="none" stroke="#000000" points="2161.5,-836.5 2161.5,-866.5 2342.5,-866.5 2342.5,-836.5 2161.5,-836.5"/>
<text text-anchor="start" x="2168.5" y="-847.9" font-family="Arial" font-size="14.00" fill="#000000">http_port </text>
<text text-anchor="start" x="2227.636" y="-847.9" font-family="Arial" font-size="14.00" fill="#666666">[int(11)]</text>
<polygon fill="none" stroke="#000000" points="2161.5,-806.5 2161.5,-836.5 2342.5,-836.5 2342.5,-806.5 2161.5,-806.5"/>
<text text-anchor="start" x="2168.5" y="-817.9" font-family="Arial" font-size="14.00" fill="#000000">application_id </text>
<text text-anchor="start" x="2257.9684" y="-817.9" font-family="Arial" font-size="14.00" fill="#666666">[char(22)]</text>
</g>
<!-- websites&#45;&gt;applications -->
<g id="edge11" class="edge">
<title>websites:application_id&#45;&gt;applications:id</title>
<path fill="none" stroke="#000000" d="M2151.4255,-820.1899C2121.0148,-811.1212 2143.6236,-757.3544 2109.5,-734 1965.5871,-635.5052 1509.8908,-604.5 1335.5,-604.5"/>
<polygon fill="#000000" stroke="#000000" points="2151.5835,-820.2103 2160.9197,-825.9624 2156.5417,-820.8552 2161.5,-821.5 2161.5,-821.5 2161.5,-821.5 2156.5417,-820.8552 2162.0803,-817.0376 2151.5835,-820.2103 2151.5835,-820.2103"/>
<text text-anchor="start" x="1872.102" y="-805.5" font-family="Arial" font-size="10.00" fill="#000000">FOREIGN KEY (application_id) REFERENCES applications (id)</text>
</g>
</g>
</svg>
