<?xml version="1.0" encoding="UTF-8" standalone="no"?>
<!DOCTYPE svg PUBLIC "-//W3C//DTD SVG 1.1//EN"
        "http://www.w3.org/Graphics/SVG/1.1/DTD/svg11.dtd">
<!-- Generated by graphviz version 2.40.1 (20161225.0304)
 -->
<!-- Title: neoshowcase Pages: 1 -->
<svg width="1045pt" height="1567pt"
     viewBox="0.00 0.00 1044.50 1567.00" xmlns="http://www.w3.org/2000/svg" xmlns:xlink="http://www.w3.org/1999/xlink">
    <g id="graph0" class="graph" transform="scale(1 1) rotate(0) translate(4 1563)">
        <title>neoshowcase</title>
        <polygon fill="#ffffff" stroke="transparent" points="-4,4 -4,-1563 1040.5,-1563 1040.5,4 -4,4"/>
        <!-- applications -->
        <g id="node1" class="node">
            <title>applications</title>
            <polygon fill="#efefef" stroke="transparent"
                     points="290.5,-469.5 290.5,-504.5 496.5,-504.5 496.5,-469.5 290.5,-469.5"/>
            <polygon fill="none" stroke="#000000"
                     points="290.5,-469.5 290.5,-504.5 496.5,-504.5 496.5,-469.5 290.5,-469.5"/>
            <text text-anchor="start" x="297.3621" y="-482.3" font-family="Arial Bold" font-size="18.00" fill="#000000">
                applications
            </text>
            <text text-anchor="start" x="392.3841" y="-482.3" font-family="Arial" font-size="14.00"
                  fill="#000000"></text>
            <text text-anchor="start" x="396.2747" y="-482.3" font-family="Arial" font-size="14.00" fill="#666666">[BASE
                TABLE]
            </text>
            <polygon fill="none" stroke="#000000"
                     points="290.5,-439.5 290.5,-469.5 496.5,-469.5 496.5,-439.5 290.5,-439.5"/>
            <text text-anchor="start" x="297.5" y="-450.9" font-family="Arial" font-size="14.00" fill="#000000">id
            </text>
            <text text-anchor="start" x="312.2798" y="-450.9" font-family="Arial" font-size="14.00" fill="#666666">
                [varchar(22)]
            </text>
            <polygon fill="none" stroke="#000000"
                     points="290.5,-409.5 290.5,-439.5 496.5,-439.5 496.5,-409.5 290.5,-409.5"/>
            <text text-anchor="start" x="297.5" y="-420.9" font-family="Arial" font-size="14.00" fill="#000000">owner
            </text>
            <text text-anchor="start" x="339.5056" y="-420.9" font-family="Arial" font-size="14.00" fill="#666666">
                [varchar(100)]
            </text>
            <polygon fill="none" stroke="#000000"
                     points="290.5,-379.5 290.5,-409.5 496.5,-409.5 496.5,-379.5 290.5,-379.5"/>
            <text text-anchor="start" x="297.5" y="-390.9" font-family="Arial" font-size="14.00" fill="#000000">name
            </text>
            <text text-anchor="start" x="336.399" y="-390.9" font-family="Arial" font-size="14.00" fill="#666666">
                [varchar(100)]
            </text>
            <polygon fill="none" stroke="#000000"
                     points="290.5,-349.5 290.5,-379.5 496.5,-379.5 496.5,-349.5 290.5,-349.5"/>
            <text text-anchor="start" x="297.5" y="-360.9" font-family="Arial" font-size="14.00" fill="#000000">
                repository_id
            </text>
            <text text-anchor="start" x="381.5112" y="-360.9" font-family="Arial" font-size="14.00" fill="#666666">
                [varchar(22)]
            </text>
            <polygon fill="none" stroke="#000000"
                     points="290.5,-319.5 290.5,-349.5 496.5,-349.5 496.5,-319.5 290.5,-319.5"/>
            <text text-anchor="start" x="297.5" y="-330.9" font-family="Arial" font-size="14.00" fill="#000000">
                created_at
            </text>
            <text text-anchor="start" x="367.528" y="-330.9" font-family="Arial" font-size="14.00" fill="#666666">
                [datetime(6)]
            </text>
            <polygon fill="none" stroke="#000000"
                     points="290.5,-289.5 290.5,-319.5 496.5,-319.5 496.5,-289.5 290.5,-289.5"/>
            <text text-anchor="start" x="297.5" y="-300.9" font-family="Arial" font-size="14.00" fill="#000000">
                updated_at
            </text>
            <text text-anchor="start" x="371.4326" y="-300.9" font-family="Arial" font-size="14.00" fill="#666666">
                [datetime(6)]
            </text>
            <polygon fill="none" stroke="#000000"
                     points="290.5,-259.5 290.5,-289.5 496.5,-289.5 496.5,-259.5 290.5,-259.5"/>
            <text text-anchor="start" x="297.5" y="-270.9" font-family="Arial" font-size="14.00" fill="#000000">
                deleted_at
            </text>
            <text text-anchor="start" x="366.7566" y="-270.9" font-family="Arial" font-size="14.00" fill="#666666">
                [datetime(6)]
            </text>
        </g>
        <!-- repositories -->
        <g id="node6" class="node">
            <title>repositories</title>
            <polygon fill="#efefef" stroke="transparent"
                     points="291.5,-102.5 291.5,-137.5 495.5,-137.5 495.5,-102.5 291.5,-102.5"/>
            <polygon fill="none" stroke="#000000"
                     points="291.5,-102.5 291.5,-137.5 495.5,-137.5 495.5,-102.5 291.5,-102.5"/>
            <text text-anchor="start" x="298.3701" y="-115.3" font-family="Arial Bold" font-size="18.00" fill="#000000">
                repositories
            </text>
            <text text-anchor="start" x="391.3761" y="-115.3" font-family="Arial" font-size="14.00"
                  fill="#000000"></text>
            <text text-anchor="start" x="395.2667" y="-115.3" font-family="Arial" font-size="14.00" fill="#666666">[BASE
                TABLE]
            </text>
            <polygon fill="none" stroke="#000000"
                     points="291.5,-72.5 291.5,-102.5 495.5,-102.5 495.5,-72.5 291.5,-72.5"/>
            <text text-anchor="start" x="298.5" y="-83.9" font-family="Arial" font-size="14.00" fill="#000000">id</text>
            <text text-anchor="start" x="313.2798" y="-83.9" font-family="Arial" font-size="14.00" fill="#666666">
                [varchar(22)]
            </text>
            <polygon fill="none" stroke="#000000" points="291.5,-42.5 291.5,-72.5 495.5,-72.5 495.5,-42.5 291.5,-42.5"/>
            <text text-anchor="start" x="298.5" y="-53.9" font-family="Arial" font-size="14.00" fill="#000000">remote
            </text>
            <text text-anchor="start" x="345.9502" y="-53.9" font-family="Arial" font-size="14.00" fill="#666666">
                [text]
            </text>
        </g>
        <!-- applications&#45;&gt;repositories -->
        <g id="edge1" class="edge">
            <title>applications:repository_id&#45;&gt;repositories:id</title>
            <path fill="none" stroke="#000000" d="M506.6611,-363.8461C619.4573,-349.0327 615.1253,-87.5 495.5,-87.5"/>
            <polygon fill="#000000" stroke="#000000"
                     points="506.4794,-363.8577 496.211,-360.0093 501.4897,-364.1788 496.5,-364.5 496.5,-364.5 496.5,-364.5 501.4897,-364.1788 496.789,-368.9907 506.4794,-363.8577 506.4794,-363.8577"/>
            <text text-anchor="start" x="503.611" y="-374.5" font-family="Arial" font-size="10.00" fill="#000000">
                FOREIGN KEY (repository_id) REFERENCES repositories (id)
            </text>
        </g>
        <!-- artifacts -->
        <g id="node2" class="node">
            <title>artifacts</title>
            <polygon fill="#efefef" stroke="transparent"
                     points="159.5,-1450.5 159.5,-1485.5 333.5,-1485.5 333.5,-1450.5 159.5,-1450.5"/>
            <polygon fill="none" stroke="#000000"
                     points="159.5,-1450.5 159.5,-1485.5 333.5,-1485.5 333.5,-1450.5 159.5,-1450.5"/>
            <text text-anchor="start" x="166.3704" y="-1463.3" font-family="Arial Bold" font-size="18.00"
                  fill="#000000">artifacts
            </text>
            <text text-anchor="start" x="229.3758" y="-1463.3" font-family="Arial" font-size="14.00"
                  fill="#000000"></text>
            <text text-anchor="start" x="233.2664" y="-1463.3" font-family="Arial" font-size="14.00" fill="#666666">
                [BASE TABLE]
            </text>
            <polygon fill="none" stroke="#000000"
                     points="159.5,-1420.5 159.5,-1450.5 333.5,-1450.5 333.5,-1420.5 159.5,-1420.5"/>
            <text text-anchor="start" x="166.5" y="-1431.9" font-family="Arial" font-size="14.00" fill="#000000">id
            </text>
            <text text-anchor="start" x="181.2798" y="-1431.9" font-family="Arial" font-size="14.00" fill="#666666">
                [varchar(22)]
            </text>
            <polygon fill="none" stroke="#000000"
                     points="159.5,-1390.5 159.5,-1420.5 333.5,-1420.5 333.5,-1390.5 159.5,-1390.5"/>
            <text text-anchor="start" x="166.5" y="-1401.9" font-family="Arial" font-size="14.00" fill="#000000">
                build_log_id
            </text>
            <text text-anchor="start" x="245.0778" y="-1401.9" font-family="Arial" font-size="14.00" fill="#666666">
                [varchar(22)]
            </text>
            <polygon fill="none" stroke="#000000"
                     points="159.5,-1360.5 159.5,-1390.5 333.5,-1390.5 333.5,-1360.5 159.5,-1360.5"/>
            <text text-anchor="start" x="166.5" y="-1371.9" font-family="Arial" font-size="14.00" fill="#000000">size
            </text>
            <text text-anchor="start" x="195.2798" y="-1371.9" font-family="Arial" font-size="14.00" fill="#666666">
                [bigint(20)]
            </text>
            <polygon fill="none" stroke="#000000"
                     points="159.5,-1330.5 159.5,-1360.5 333.5,-1360.5 333.5,-1330.5 159.5,-1330.5"/>
            <text text-anchor="start" x="166.5" y="-1341.9" font-family="Arial" font-size="14.00" fill="#000000">
                created_at
            </text>
            <text text-anchor="start" x="236.528" y="-1341.9" font-family="Arial" font-size="14.00" fill="#666666">
                [datetime(6)]
            </text>
            <polygon fill="none" stroke="#000000"
                     points="159.5,-1300.5 159.5,-1330.5 333.5,-1330.5 333.5,-1300.5 159.5,-1300.5"/>
            <text text-anchor="start" x="166.5" y="-1311.9" font-family="Arial" font-size="14.00" fill="#000000">
                deleted_at
            </text>
            <text text-anchor="start" x="235.7566" y="-1311.9" font-family="Arial" font-size="14.00" fill="#666666">
                [datetime(6)]
            </text>
        </g>
        <!-- build_logs -->
        <g id="node4" class="node">
            <title>build_logs</title>
            <polygon fill="#efefef" stroke="transparent"
                     points="43.5,-1113.5 43.5,-1148.5 462.5,-1148.5 462.5,-1113.5 43.5,-1113.5"/>
            <polygon fill="none" stroke="#000000"
                     points="43.5,-1113.5 43.5,-1148.5 462.5,-1148.5 462.5,-1113.5 43.5,-1113.5"/>
            <text text-anchor="start" x="163.8632" y="-1126.3" font-family="Arial Bold" font-size="18.00"
                  fill="#000000">build_logs
            </text>
            <text text-anchor="start" x="244.883" y="-1126.3" font-family="Arial" font-size="14.00"
                  fill="#000000"></text>
            <text text-anchor="start" x="248.7736" y="-1126.3" font-family="Arial" font-size="14.00" fill="#666666">
                [BASE TABLE]
            </text>
            <polygon fill="none" stroke="#000000"
                     points="43.5,-1083.5 43.5,-1113.5 462.5,-1113.5 462.5,-1083.5 43.5,-1083.5"/>
            <text text-anchor="start" x="50.5" y="-1094.9" font-family="Arial" font-size="14.00" fill="#000000">id
            </text>
            <text text-anchor="start" x="65.2798" y="-1094.9" font-family="Arial" font-size="14.00" fill="#666666">
                [varchar(22)]
            </text>
            <polygon fill="none" stroke="#000000"
                     points="43.5,-1053.5 43.5,-1083.5 462.5,-1083.5 462.5,-1053.5 43.5,-1053.5"/>
            <text text-anchor="start" x="50.0742" y="-1064.9" font-family="Arial" font-size="14.00" fill="#000000">
                result
            </text>
            <text text-anchor="start" x="88.1878" y="-1064.9" font-family="Arial" font-size="14.00" fill="#666666">
                [enum(&#39;BUILDING&#39;,&#39;SUCCEEDED&#39;,&#39;FAILED&#39;,&#39;CANCELED&#39;)]
            </text>
            <polygon fill="none" stroke="#000000"
                     points="43.5,-1023.5 43.5,-1053.5 462.5,-1053.5 462.5,-1023.5 43.5,-1023.5"/>
            <text text-anchor="start" x="50.5" y="-1034.9" font-family="Arial" font-size="14.00" fill="#000000">
                started_at
            </text>
            <text text-anchor="start" x="116.636" y="-1034.9" font-family="Arial" font-size="14.00" fill="#666666">
                [datetime(6)]
            </text>
            <polygon fill="none" stroke="#000000"
                     points="43.5,-993.5 43.5,-1023.5 462.5,-1023.5 462.5,-993.5 43.5,-993.5"/>
            <text text-anchor="start" x="50.5" y="-1004.9" font-family="Arial" font-size="14.00" fill="#000000">
                finished_at
            </text>
            <text text-anchor="start" x="122.0806" y="-1004.9" font-family="Arial" font-size="14.00" fill="#666666">
                [datetime(6)]
            </text>
            <polygon fill="none" stroke="#000000"
                     points="43.5,-963.5 43.5,-993.5 462.5,-993.5 462.5,-963.5 43.5,-963.5"/>
            <text text-anchor="start" x="50.5" y="-974.9" font-family="Arial" font-size="14.00" fill="#000000">
                environment_id
            </text>
            <text text-anchor="start" x="150.0764" y="-974.9" font-family="Arial" font-size="14.00" fill="#666666">
                [varchar(22)]
            </text>
        </g>
        <!-- artifacts&#45;&gt;build_logs -->
        <g id="edge2" class="edge">
            <title>artifacts:build_log_id&#45;&gt;build_logs:id</title>
            <path fill="none" stroke="#000000"
                  d="M343.7844,-1404.5992C396.2093,-1394.74 372.0732,-1306.3383 333.5,-1258 251.0519,-1154.6796 125.9481,-1295.3204 43.5,-1192 17.5804,-1159.5187 1.9444,-1098.5 43.5,-1098.5"/>
            <polygon fill="#000000" stroke="#000000"
                     points="343.4619,-1404.6274 333.1073,-1401.0172 338.4809,-1405.0637 333.5,-1405.5 333.5,-1405.5 333.5,-1405.5 338.4809,-1405.0637 333.8927,-1409.9828 343.4619,-1404.6274 343.4619,-1404.6274"/>
            <text text-anchor="start" x="59.881" y="-1415.5" font-family="Arial" font-size="10.00" fill="#000000">
                FOREIGN KEY (build_log_id) REFERENCES build_logs (id)
            </text>
        </g>
        <!-- available_domains -->
        <g id="node3" class="node">
            <title>available_domains</title>
            <polygon fill="#efefef" stroke="transparent"
                     points="733.5,-1420.5 733.5,-1455.5 993.5,-1455.5 993.5,-1420.5 733.5,-1420.5"/>
            <polygon fill="none" stroke="#000000"
                     points="733.5,-1420.5 733.5,-1455.5 993.5,-1455.5 993.5,-1420.5 733.5,-1420.5"/>
            <text text-anchor="start" x="740.3576" y="-1433.3" font-family="Arial Bold" font-size="18.00"
                  fill="#000000">available_domains
            </text>
            <text text-anchor="start" x="889.3886" y="-1433.3" font-family="Arial" font-size="14.00"
                  fill="#000000"></text>
            <text text-anchor="start" x="893.2792" y="-1433.3" font-family="Arial" font-size="14.00" fill="#666666">
                [BASE TABLE]
            </text>
            <polygon fill="none" stroke="#000000"
                     points="733.5,-1390.5 733.5,-1420.5 993.5,-1420.5 993.5,-1390.5 733.5,-1390.5"/>
            <text text-anchor="start" x="740.5" y="-1401.9" font-family="Arial" font-size="14.00" fill="#000000">id
            </text>
            <text text-anchor="start" x="755.2798" y="-1401.9" font-family="Arial" font-size="14.00" fill="#666666">
                [varchar(22)]
            </text>
            <polygon fill="none" stroke="#000000"
                     points="733.5,-1360.5 733.5,-1390.5 993.5,-1390.5 993.5,-1360.5 733.5,-1360.5"/>
            <text text-anchor="start" x="740.5" y="-1371.9" font-family="Arial" font-size="14.00" fill="#000000">
                domain
            </text>
            <text text-anchor="start" x="790.2882" y="-1371.9" font-family="Arial" font-size="14.00" fill="#666666">
                [varchar(100)]
            </text>
            <polygon fill="none" stroke="#000000"
                     points="733.5,-1330.5 733.5,-1360.5 993.5,-1360.5 993.5,-1330.5 733.5,-1330.5"/>
            <text text-anchor="start" x="740.5" y="-1341.9" font-family="Arial" font-size="14.00" fill="#000000">
                subdomain
            </text>
            <text text-anchor="start" x="812.8534" y="-1341.9" font-family="Arial" font-size="14.00" fill="#666666">
                [tinyint(1)]
            </text>
        </g>
        <!-- environments -->
        <g id="node5" class="node">
            <title>environments</title>
            <polygon fill="#efefef" stroke="transparent"
                     points="283.5,-806.5 283.5,-841.5 503.5,-841.5 503.5,-806.5 283.5,-806.5"/>
            <polygon fill="none" stroke="#000000"
                     points="283.5,-806.5 283.5,-841.5 503.5,-841.5 503.5,-806.5 283.5,-806.5"/>
            <text text-anchor="start" x="290.8641" y="-819.3" font-family="Arial Bold" font-size="18.00" fill="#000000">
                environments
            </text>
            <text text-anchor="start" x="398.8821" y="-819.3" font-family="Arial" font-size="14.00"
                  fill="#000000"></text>
            <text text-anchor="start" x="402.7727" y="-819.3" font-family="Arial" font-size="14.00" fill="#666666">[BASE
                TABLE]
            </text>
            <polygon fill="none" stroke="#000000"
                     points="283.5,-776.5 283.5,-806.5 503.5,-806.5 503.5,-776.5 283.5,-776.5"/>
            <text text-anchor="start" x="290.5" y="-787.9" font-family="Arial" font-size="14.00" fill="#000000">id
            </text>
            <text text-anchor="start" x="305.2798" y="-787.9" font-family="Arial" font-size="14.00" fill="#666666">
                [varchar(22)]
            </text>
            <polygon fill="none" stroke="#000000"
                     points="283.5,-746.5 283.5,-776.5 503.5,-776.5 503.5,-746.5 283.5,-746.5"/>
            <text text-anchor="start" x="290.5" y="-757.9" font-family="Arial" font-size="14.00" fill="#000000">
                application_id
            </text>
            <text text-anchor="start" x="379.9684" y="-757.9" font-family="Arial" font-size="14.00" fill="#666666">
                [varchar(22)]
            </text>
            <polygon fill="none" stroke="#000000"
                     points="283.5,-716.5 283.5,-746.5 503.5,-746.5 503.5,-716.5 283.5,-716.5"/>
            <text text-anchor="start" x="290.5" y="-727.9" font-family="Arial" font-size="14.00" fill="#000000">
                branch_name
            </text>
            <text text-anchor="start" x="379.9726" y="-727.9" font-family="Arial" font-size="14.00" fill="#666666">
                [varchar(100)]
            </text>
            <polygon fill="none" stroke="#000000"
                     points="283.5,-686.5 283.5,-716.5 503.5,-716.5 503.5,-686.5 283.5,-686.5"/>
            <text text-anchor="start" x="290.0764" y="-697.9" font-family="Arial" font-size="14.00" fill="#000000">
                build_type
            </text>
            <text text-anchor="start" x="357.7664" y="-697.9" font-family="Arial" font-size="14.00" fill="#666666">
                [enum(&#39;image&#39;,&#39;static&#39;)]
            </text>
            <polygon fill="none" stroke="#000000"
                     points="283.5,-656.5 283.5,-686.5 503.5,-686.5 503.5,-656.5 283.5,-656.5"/>
            <text text-anchor="start" x="290.5" y="-667.9" font-family="Arial" font-size="14.00" fill="#000000">
                created_at
            </text>
            <text text-anchor="start" x="360.528" y="-667.9" font-family="Arial" font-size="14.00" fill="#666666">
                [datetime(6)]
            </text>
            <polygon fill="none" stroke="#000000"
                     points="283.5,-626.5 283.5,-656.5 503.5,-656.5 503.5,-626.5 283.5,-626.5"/>
            <text text-anchor="start" x="290.5" y="-637.9" font-family="Arial" font-size="14.00" fill="#000000">
                updated_at
            </text>
            <text text-anchor="start" x="364.4326" y="-637.9" font-family="Arial" font-size="14.00" fill="#666666">
                [datetime(6)]
            </text>
        </g>
        <!-- build_logs&#45;&gt;environments -->
        <g id="edge3" class="edge">
            <title>build_logs:environment_id&#45;&gt;environments:id</title>
            <path fill="none" stroke="#000000"
                  d="M472.3824,-975.6994C484.7992,-966.6038 476.0349,-937.5281 462.5,-921 411.0864,-858.2168 334.9136,-947.7832 283.5,-885 257.1715,-852.8492 241.9444,-791.5 283.5,-791.5"/>
            <polygon fill="#000000" stroke="#000000"
                     points="472.1211,-975.7734 461.273,-974.1705 467.3106,-977.1367 462.5,-978.5 462.5,-978.5 462.5,-978.5 467.3106,-977.1367 463.727,-982.8295 472.1211,-975.7734 472.1211,-975.7734"/>
            <text text-anchor="start" x="469.882" y="-988.5" font-family="Arial" font-size="10.00" fill="#000000">
                FOREIGN KEY (environment_id) REFERENCES environments (id)
            </text>
        </g>
        <!-- environments&#45;&gt;applications -->
        <g id="edge4" class="edge">
            <title>environments:application_id&#45;&gt;applications:id</title>
            <path fill="none" stroke="#000000" d="M513.6187,-760.9163C639.541,-746.1081 629.5146,-454.5 496.5,-454.5"/>
            <polygon fill="#000000" stroke="#000000"
                     points="513.4834,-760.924 503.2408,-757.0075 508.4917,-761.212 503.5,-761.5 503.5,-761.5 503.5,-761.5 508.4917,-761.212 503.7592,-765.9925 513.4834,-760.924 513.4834,-760.924"/>
            <text text-anchor="start" x="510.102" y="-771.5" font-family="Arial" font-size="10.00" fill="#000000">
                FOREIGN KEY (application_id) REFERENCES applications (id)
            </text>
        </g>
        <!-- websites -->
        <g id="node7" class="node">
            <title>websites</title>
            <polygon fill="#efefef" stroke="transparent"
                     points="437.5,-1480.5 437.5,-1515.5 629.5,-1515.5 629.5,-1480.5 437.5,-1480.5"/>
            <polygon fill="none" stroke="#000000"
                     points="437.5,-1480.5 437.5,-1515.5 629.5,-1515.5 629.5,-1480.5 437.5,-1480.5"/>
            <text text-anchor="start" x="449.8685" y="-1493.3" font-family="Arial Bold" font-size="18.00"
                  fill="#000000">websites
            </text>
            <text text-anchor="start" x="519.8777" y="-1493.3" font-family="Arial" font-size="14.00"
                  fill="#000000"></text>
            <text text-anchor="start" x="523.7683" y="-1493.3" font-family="Arial" font-size="14.00" fill="#666666">
                [BASE TABLE]
            </text>
            <polygon fill="none" stroke="#000000"
                     points="437.5,-1450.5 437.5,-1480.5 629.5,-1480.5 629.5,-1450.5 437.5,-1450.5"/>
            <text text-anchor="start" x="444.5" y="-1461.9" font-family="Arial" font-size="14.00" fill="#000000">id
            </text>
            <text text-anchor="start" x="459.2798" y="-1461.9" font-family="Arial" font-size="14.00" fill="#666666">
                [varchar(22)]
            </text>
            <polygon fill="none" stroke="#000000"
                     points="437.5,-1420.5 437.5,-1450.5 629.5,-1450.5 629.5,-1420.5 437.5,-1420.5"/>
            <text text-anchor="start" x="444.5" y="-1431.9" font-family="Arial" font-size="14.00" fill="#000000">fqdn
            </text>
            <text text-anchor="start" x="475.629" y="-1431.9" font-family="Arial" font-size="14.00" fill="#666666">
                [varchar(50)]
            </text>
            <polygon fill="none" stroke="#000000"
                     points="437.5,-1390.5 437.5,-1420.5 629.5,-1420.5 629.5,-1390.5 437.5,-1390.5"/>
            <text text-anchor="start" x="444.5" y="-1401.9" font-family="Arial" font-size="14.00" fill="#000000">
                build_id
            </text>
            <text text-anchor="start" x="496.6234" y="-1401.9" font-family="Arial" font-size="14.00" fill="#666666">
                [varchar(22)]
            </text>
            <polygon fill="none" stroke="#000000"
                     points="437.5,-1360.5 437.5,-1390.5 629.5,-1390.5 629.5,-1360.5 437.5,-1360.5"/>
            <text text-anchor="start" x="444.5" y="-1371.9" font-family="Arial" font-size="14.00" fill="#000000">
                http_port
            </text>
            <text text-anchor="start" x="503.636" y="-1371.9" font-family="Arial" font-size="14.00" fill="#666666">
                [int(11)]
            </text>
            <polygon fill="none" stroke="#000000"
                     points="437.5,-1330.5 437.5,-1360.5 629.5,-1360.5 629.5,-1330.5 437.5,-1330.5"/>
            <text text-anchor="start" x="444.5" y="-1341.9" font-family="Arial" font-size="14.00" fill="#000000">
                created_at
            </text>
            <text text-anchor="start" x="514.528" y="-1341.9" font-family="Arial" font-size="14.00" fill="#666666">
                [datetime(6)]
            </text>
            <polygon fill="none" stroke="#000000"
                     points="437.5,-1300.5 437.5,-1330.5 629.5,-1330.5 629.5,-1300.5 437.5,-1300.5"/>
            <text text-anchor="start" x="444.5" y="-1311.9" font-family="Arial" font-size="14.00" fill="#000000">
                updated_at
            </text>
            <text text-anchor="start" x="518.4326" y="-1311.9" font-family="Arial" font-size="14.00" fill="#666666">
                [datetime(6)]
            </text>
            <polygon fill="none" stroke="#000000"
                     points="437.5,-1270.5 437.5,-1300.5 629.5,-1300.5 629.5,-1270.5 437.5,-1270.5"/>
            <text text-anchor="start" x="444.0435" y="-1281.9" font-family="Arial" font-size="14.00" fill="#000000">
                environment_id
            </text>
            <text text-anchor="start" x="543.6199" y="-1281.9" font-family="Arial" font-size="14.00" fill="#666666">
                [varchar(22)]
            </text>
        </g>
        <!-- websites&#45;&gt;build_logs -->
        <g id="edge5" class="edge">
            <title>websites:build_id&#45;&gt;build_logs:id</title>
            <path fill="none" stroke="#000000"
                  d="M427.2738,-1404.8395C363.7269,-1395.9764 415.0287,-1299.7546 437.5,-1228 443.3216,-1209.4106 456.6784,-1210.5894 462.5,-1192 474.9191,-1152.3436 504.0556,-1098.5 462.5,-1098.5"/>
            <polygon fill="#000000" stroke="#000000"
                     points="427.5208,-1404.8554 437.2099,-1409.9906 432.5104,-1405.1777 437.5,-1405.5 437.5,-1405.5 437.5,-1405.5 432.5104,-1405.1777 437.7901,-1401.0094 427.5208,-1404.8554 427.5208,-1404.8554"/>
            <text text-anchor="start" x="247.829" y="-1389.5" font-family="Arial" font-size="10.00" fill="#000000">
                FOREIGN KEY (build_id) REFERENCES build_logs (id)
            </text>
        </g>
        <!-- websites&#45;&gt;environments -->
        <g id="edge6" class="edge">
            <title>websites:environment_id&#45;&gt;environments:id</title>
            <path fill="none" stroke="#000000"
                  d="M533.632,-1260.4641C539.1315,-1048.9559 713.4731,-791.5 503.5,-791.5"/>
            <polygon fill="#000000" stroke="#000000"
                     points="533.6317,-1260.5009 529.0004,-1270.4408 533.5658,-1265.5004 533.5,-1270.5 533.5,-1270.5 533.5,-1270.5 533.5658,-1265.5004 537.9996,-1270.5592 533.6317,-1260.5009 533.6317,-1260.5009"/>
            <text text-anchor="start" x="540.882" y="-1254.5" font-family="Arial" font-size="10.00" fill="#000000">
                FOREIGN KEY (environment_id) REFERENCES environments (id)
            </text>
        </g>
    </g>
</svg>
