<?xml version="1.0" encoding="UTF-8" standalone="no"?>
<!DOCTYPE svg PUBLIC "-//W3C//DTD SVG 1.1//EN"
 "http://www.w3.org/Graphics/SVG/1.1/DTD/svg11.dtd">
<!-- Generated by graphviz version 2.40.1 (20161225.0304)
 -->
<!-- Title: neoshowcase Pages: 1 -->
<svg width="1183pt" height="1260pt"
 viewBox="0.00 0.00 1183.00 1260.00" xmlns="http://www.w3.org/2000/svg" xmlns:xlink="http://www.w3.org/1999/xlink">
<g id="graph0" class="graph" transform="scale(1 1) rotate(0) translate(4 1256)">
<title>neoshowcase</title>
<polygon fill="#ffffff" stroke="transparent" points="-4,4 -4,-1256 1179,-1256 1179,4 -4,4"/>
<!-- applications -->
<g id="node1" class="node">
<title>applications</title>
<polygon fill="#efefef" stroke="transparent" points="576,-469.5 576,-504.5 782,-504.5 782,-469.5 576,-469.5"/>
<polygon fill="none" stroke="#000000" points="576,-469.5 576,-504.5 782,-504.5 782,-469.5 576,-469.5"/>
<text text-anchor="start" x="582.8621" y="-482.3" font-family="Arial Bold" font-size="18.00" fill="#000000">applications</text>
<text text-anchor="start" x="677.8841" y="-482.3" font-family="Arial" font-size="14.00" fill="#000000"> </text>
<text text-anchor="start" x="681.7747" y="-482.3" font-family="Arial" font-size="14.00" fill="#666666">[BASE TABLE]</text>
<polygon fill="none" stroke="#000000" points="576,-439.5 576,-469.5 782,-469.5 782,-439.5 576,-439.5"/>
<text text-anchor="start" x="583" y="-450.9" font-family="Arial" font-size="14.00" fill="#000000">id </text>
<text text-anchor="start" x="597.7798" y="-450.9" font-family="Arial" font-size="14.00" fill="#666666">[varchar(22)]</text>
<polygon fill="none" stroke="#000000" points="576,-409.5 576,-439.5 782,-439.5 782,-409.5 576,-409.5"/>
<text text-anchor="start" x="583" y="-420.9" font-family="Arial" font-size="14.00" fill="#000000">owner </text>
<text text-anchor="start" x="625.0056" y="-420.9" font-family="Arial" font-size="14.00" fill="#666666">[varchar(100)]</text>
<polygon fill="none" stroke="#000000" points="576,-379.5 576,-409.5 782,-409.5 782,-379.5 576,-379.5"/>
<text text-anchor="start" x="583" y="-390.9" font-family="Arial" font-size="14.00" fill="#000000">name </text>
<text text-anchor="start" x="621.899" y="-390.9" font-family="Arial" font-size="14.00" fill="#666666">[varchar(100)]</text>
<polygon fill="none" stroke="#000000" points="576,-349.5 576,-379.5 782,-379.5 782,-349.5 576,-349.5"/>
<text text-anchor="start" x="583" y="-360.9" font-family="Arial" font-size="14.00" fill="#000000">repository_id </text>
<text text-anchor="start" x="667.0112" y="-360.9" font-family="Arial" font-size="14.00" fill="#666666">[varchar(22)]</text>
<polygon fill="none" stroke="#000000" points="576,-319.5 576,-349.5 782,-349.5 782,-319.5 576,-319.5"/>
<text text-anchor="start" x="583" y="-330.9" font-family="Arial" font-size="14.00" fill="#000000">created_at </text>
<text text-anchor="start" x="653.028" y="-330.9" font-family="Arial" font-size="14.00" fill="#666666">[datetime(6)]</text>
<polygon fill="none" stroke="#000000" points="576,-289.5 576,-319.5 782,-319.5 782,-289.5 576,-289.5"/>
<text text-anchor="start" x="583" y="-300.9" font-family="Arial" font-size="14.00" fill="#000000">updated_at </text>
<text text-anchor="start" x="656.9326" y="-300.9" font-family="Arial" font-size="14.00" fill="#666666">[datetime(6)]</text>
<polygon fill="none" stroke="#000000" points="576,-259.5 576,-289.5 782,-289.5 782,-259.5 576,-259.5"/>
<text text-anchor="start" x="583" y="-270.9" font-family="Arial" font-size="14.00" fill="#000000">deleted_at </text>
<text text-anchor="start" x="652.2566" y="-270.9" font-family="Arial" font-size="14.00" fill="#666666">[datetime(6)]</text>
</g>
<!-- repositories -->
<g id="node8" class="node">
<title>repositories</title>
<polygon fill="#efefef" stroke="transparent" points="579,-102.5 579,-137.5 783,-137.5 783,-102.5 579,-102.5"/>
<polygon fill="none" stroke="#000000" points="579,-102.5 579,-137.5 783,-137.5 783,-102.5 579,-102.5"/>
<text text-anchor="start" x="585.8701" y="-115.3" font-family="Arial Bold" font-size="18.00" fill="#000000">repositories</text>
<text text-anchor="start" x="678.8761" y="-115.3" font-family="Arial" font-size="14.00" fill="#000000"> </text>
<text text-anchor="start" x="682.7667" y="-115.3" font-family="Arial" font-size="14.00" fill="#666666">[BASE TABLE]</text>
<polygon fill="none" stroke="#000000" points="579,-72.5 579,-102.5 783,-102.5 783,-72.5 579,-72.5"/>
<text text-anchor="start" x="586" y="-83.9" font-family="Arial" font-size="14.00" fill="#000000">id </text>
<text text-anchor="start" x="600.7798" y="-83.9" font-family="Arial" font-size="14.00" fill="#666666">[varchar(22)]</text>
<polygon fill="none" stroke="#000000" points="579,-42.5 579,-72.5 783,-72.5 783,-42.5 579,-42.5"/>
<text text-anchor="start" x="586" y="-53.9" font-family="Arial" font-size="14.00" fill="#000000">remote </text>
<text text-anchor="start" x="633.4502" y="-53.9" font-family="Arial" font-size="14.00" fill="#666666">[text]</text>
</g>
<!-- applications&#45;&gt;repositories -->
<g id="edge1" class="edge">
<title>applications:repository_id&#45;&gt;repositories:id</title>
<path fill="none" stroke="#000000" d="M791.9682,-363.651C844.9358,-354.0027 821.8105,-264.4917 782,-217 723.1359,-146.7785 637.8641,-251.2215 579,-181 552.3042,-149.1535 537.4444,-87.5 579,-87.5"/>
<polygon fill="#000000" stroke="#000000" points="791.9639,-363.6512 781.6181,-360.0162 786.982,-364.0756 782,-364.5 782,-364.5 782,-364.5 786.982,-364.0756 782.3819,-368.9838 791.9639,-363.6512 791.9639,-363.6512"/>
<text text-anchor="start" x="789.111" y="-374.5" font-family="Arial" font-size="10.00" fill="#000000">FOREIGN KEY (repository_id) REFERENCES repositories (id)</text>
</g>
<!-- artifacts -->
<g id="node2" class="node">
<title>artifacts</title>
<polygon fill="#efefef" stroke="transparent" points="138,-806.5 138,-841.5 312,-841.5 312,-806.5 138,-806.5"/>
<polygon fill="none" stroke="#000000" points="138,-806.5 138,-841.5 312,-841.5 312,-806.5 138,-806.5"/>
<text text-anchor="start" x="144.8704" y="-819.3" font-family="Arial Bold" font-size="18.00" fill="#000000">artifacts</text>
<text text-anchor="start" x="207.8758" y="-819.3" font-family="Arial" font-size="14.00" fill="#000000"> </text>
<text text-anchor="start" x="211.7664" y="-819.3" font-family="Arial" font-size="14.00" fill="#666666">[BASE TABLE]</text>
<polygon fill="none" stroke="#000000" points="138,-776.5 138,-806.5 312,-806.5 312,-776.5 138,-776.5"/>
<text text-anchor="start" x="145" y="-787.9" font-family="Arial" font-size="14.00" fill="#000000">id </text>
<text text-anchor="start" x="159.7798" y="-787.9" font-family="Arial" font-size="14.00" fill="#666666">[varchar(22)]</text>
<polygon fill="none" stroke="#000000" points="138,-746.5 138,-776.5 312,-776.5 312,-746.5 138,-746.5"/>
<text text-anchor="start" x="145" y="-757.9" font-family="Arial" font-size="14.00" fill="#000000">build_log_id </text>
<text text-anchor="start" x="223.5778" y="-757.9" font-family="Arial" font-size="14.00" fill="#666666">[varchar(22)]</text>
<polygon fill="none" stroke="#000000" points="138,-716.5 138,-746.5 312,-746.5 312,-716.5 138,-716.5"/>
<text text-anchor="start" x="145" y="-727.9" font-family="Arial" font-size="14.00" fill="#000000">size </text>
<text text-anchor="start" x="173.7798" y="-727.9" font-family="Arial" font-size="14.00" fill="#666666">[bigint(20)]</text>
<polygon fill="none" stroke="#000000" points="138,-686.5 138,-716.5 312,-716.5 312,-686.5 138,-686.5"/>
<text text-anchor="start" x="145" y="-697.9" font-family="Arial" font-size="14.00" fill="#000000">created_at </text>
<text text-anchor="start" x="215.028" y="-697.9" font-family="Arial" font-size="14.00" fill="#666666">[datetime(6)]</text>
<polygon fill="none" stroke="#000000" points="138,-656.5 138,-686.5 312,-686.5 312,-656.5 138,-656.5"/>
<text text-anchor="start" x="145" y="-667.9" font-family="Arial" font-size="14.00" fill="#000000">deleted_at </text>
<text text-anchor="start" x="214.2566" y="-667.9" font-family="Arial" font-size="14.00" fill="#666666">[datetime(6)]</text>
</g>
<!-- build_logs -->
<g id="node5" class="node">
<title>build_logs</title>
<polygon fill="#efefef" stroke="transparent" points="279,-439.5 279,-474.5 471,-474.5 471,-439.5 279,-439.5"/>
<polygon fill="none" stroke="#000000" points="279,-439.5 279,-474.5 471,-474.5 471,-439.5 279,-439.5"/>
<text text-anchor="start" x="285.8632" y="-452.3" font-family="Arial Bold" font-size="18.00" fill="#000000">build_logs</text>
<text text-anchor="start" x="366.883" y="-452.3" font-family="Arial" font-size="14.00" fill="#000000"> </text>
<text text-anchor="start" x="370.7736" y="-452.3" font-family="Arial" font-size="14.00" fill="#666666">[BASE TABLE]</text>
<polygon fill="none" stroke="#000000" points="279,-409.5 279,-439.5 471,-439.5 471,-409.5 279,-409.5"/>
<text text-anchor="start" x="286" y="-420.9" font-family="Arial" font-size="14.00" fill="#000000">id </text>
<text text-anchor="start" x="300.7798" y="-420.9" font-family="Arial" font-size="14.00" fill="#666666">[varchar(22)]</text>
<polygon fill="none" stroke="#000000" points="279,-379.5 279,-409.5 471,-409.5 471,-379.5 279,-379.5"/>
<text text-anchor="start" x="286" y="-390.9" font-family="Arial" font-size="14.00" fill="#000000">result </text>
<text text-anchor="start" x="324.1136" y="-390.9" font-family="Arial" font-size="14.00" fill="#666666">[varchar(10)]</text>
<polygon fill="none" stroke="#000000" points="279,-349.5 279,-379.5 471,-379.5 471,-349.5 279,-349.5"/>
<text text-anchor="start" x="286" y="-360.9" font-family="Arial" font-size="14.00" fill="#000000">started_at </text>
<text text-anchor="start" x="352.136" y="-360.9" font-family="Arial" font-size="14.00" fill="#666666">[datetime(6)]</text>
<polygon fill="none" stroke="#000000" points="279,-319.5 279,-349.5 471,-349.5 471,-319.5 279,-319.5"/>
<text text-anchor="start" x="286" y="-330.9" font-family="Arial" font-size="14.00" fill="#000000">finished_at </text>
<text text-anchor="start" x="357.5806" y="-330.9" font-family="Arial" font-size="14.00" fill="#666666">[datetime(6)]</text>
<polygon fill="none" stroke="#000000" points="279,-289.5 279,-319.5 471,-319.5 471,-289.5 279,-289.5"/>
<text text-anchor="start" x="286" y="-300.9" font-family="Arial" font-size="14.00" fill="#000000">branch_id </text>
<text text-anchor="start" x="351.3534" y="-300.9" font-family="Arial" font-size="14.00" fill="#666666">[varchar(22)]</text>
</g>
<!-- artifacts&#45;&gt;build_logs -->
<g id="edge2" class="edge">
<title>artifacts:build_log_id&#45;&gt;build_logs:id</title>
<path fill="none" stroke="#000000" d="M322.1189,-761.0569C413.08,-752.5142 296.3997,-622.1418 279,-518 272.1519,-477.0126 237.4444,-424.5 279,-424.5"/>
<polygon fill="#000000" stroke="#000000" points="321.9904,-761.0625 311.8031,-757.0043 316.9952,-761.2812 312,-761.5 312,-761.5 312,-761.5 316.9952,-761.2812 312.1969,-765.9957 321.9904,-761.0625 321.9904,-761.0625"/>
<text text-anchor="start" x="38.381" y="-771.5" font-family="Arial" font-size="10.00" fill="#000000">FOREIGN KEY (build_log_id) REFERENCES build_logs (id)</text>
</g>
<!-- available_domains -->
<g id="node3" class="node">
<title>available_domains</title>
<polygon fill="#efefef" stroke="transparent" points="872,-1128.5 872,-1163.5 1132,-1163.5 1132,-1128.5 872,-1128.5"/>
<polygon fill="none" stroke="#000000" points="872,-1128.5 872,-1163.5 1132,-1163.5 1132,-1128.5 872,-1128.5"/>
<text text-anchor="start" x="878.8576" y="-1141.3" font-family="Arial Bold" font-size="18.00" fill="#000000">available_domains</text>
<text text-anchor="start" x="1027.8886" y="-1141.3" font-family="Arial" font-size="14.00" fill="#000000"> </text>
<text text-anchor="start" x="1031.7792" y="-1141.3" font-family="Arial" font-size="14.00" fill="#666666">[BASE TABLE]</text>
<polygon fill="none" stroke="#000000" points="872,-1098.5 872,-1128.5 1132,-1128.5 1132,-1098.5 872,-1098.5"/>
<text text-anchor="start" x="879" y="-1109.9" font-family="Arial" font-size="14.00" fill="#000000">id </text>
<text text-anchor="start" x="893.7798" y="-1109.9" font-family="Arial" font-size="14.00" fill="#666666">[varchar(22)]</text>
<polygon fill="none" stroke="#000000" points="872,-1068.5 872,-1098.5 1132,-1098.5 1132,-1068.5 872,-1068.5"/>
<text text-anchor="start" x="879" y="-1079.9" font-family="Arial" font-size="14.00" fill="#000000">domain </text>
<text text-anchor="start" x="928.7882" y="-1079.9" font-family="Arial" font-size="14.00" fill="#666666">[varchar(100)]</text>
<polygon fill="none" stroke="#000000" points="872,-1038.5 872,-1068.5 1132,-1068.5 1132,-1038.5 872,-1038.5"/>
<text text-anchor="start" x="879" y="-1049.9" font-family="Arial" font-size="14.00" fill="#000000">subdomain </text>
<text text-anchor="start" x="951.3534" y="-1049.9" font-family="Arial" font-size="14.00" fill="#666666">[tinyint(1)]</text>
</g>
<!-- branches -->
<g id="node4" class="node">
<title>branches</title>
<polygon fill="#efefef" stroke="transparent" points="416,-836.5 416,-871.5 636,-871.5 636,-836.5 416,-836.5"/>
<polygon fill="none" stroke="#000000" points="416,-836.5 416,-871.5 636,-871.5 636,-836.5 416,-836.5"/>
<text text-anchor="start" x="440.3615" y="-849.3" font-family="Arial Bold" font-size="18.00" fill="#000000">branches</text>
<text text-anchor="start" x="514.3847" y="-849.3" font-family="Arial" font-size="14.00" fill="#000000"> </text>
<text text-anchor="start" x="518.2753" y="-849.3" font-family="Arial" font-size="14.00" fill="#666666">[BASE TABLE]</text>
<polygon fill="none" stroke="#000000" points="416,-806.5 416,-836.5 636,-836.5 636,-806.5 416,-806.5"/>
<text text-anchor="start" x="423" y="-817.9" font-family="Arial" font-size="14.00" fill="#000000">id </text>
<text text-anchor="start" x="437.7798" y="-817.9" font-family="Arial" font-size="14.00" fill="#666666">[varchar(22)]</text>
<polygon fill="none" stroke="#000000" points="416,-776.5 416,-806.5 636,-806.5 636,-776.5 416,-776.5"/>
<text text-anchor="start" x="423" y="-787.9" font-family="Arial" font-size="14.00" fill="#000000">application_id </text>
<text text-anchor="start" x="512.4684" y="-787.9" font-family="Arial" font-size="14.00" fill="#666666">[varchar(22)]</text>
<polygon fill="none" stroke="#000000" points="416,-746.5 416,-776.5 636,-776.5 636,-746.5 416,-746.5"/>
<text text-anchor="start" x="423" y="-757.9" font-family="Arial" font-size="14.00" fill="#000000">branch_name </text>
<text text-anchor="start" x="512.4726" y="-757.9" font-family="Arial" font-size="14.00" fill="#666666">[varchar(100)]</text>
<polygon fill="none" stroke="#000000" points="416,-716.5 416,-746.5 636,-746.5 636,-716.5 416,-716.5"/>
<text text-anchor="start" x="422.5764" y="-727.9" font-family="Arial" font-size="14.00" fill="#000000">build_type </text>
<text text-anchor="start" x="490.2664" y="-727.9" font-family="Arial" font-size="14.00" fill="#666666">[enum(&#39;image&#39;,&#39;static&#39;)]</text>
<polygon fill="none" stroke="#000000" points="416,-686.5 416,-716.5 636,-716.5 636,-686.5 416,-686.5"/>
<text text-anchor="start" x="423" y="-697.9" font-family="Arial" font-size="14.00" fill="#000000">created_at </text>
<text text-anchor="start" x="493.028" y="-697.9" font-family="Arial" font-size="14.00" fill="#666666">[datetime(6)]</text>
<polygon fill="none" stroke="#000000" points="416,-656.5 416,-686.5 636,-686.5 636,-656.5 416,-656.5"/>
<text text-anchor="start" x="423" y="-667.9" font-family="Arial" font-size="14.00" fill="#000000">updated_at </text>
<text text-anchor="start" x="496.9326" y="-667.9" font-family="Arial" font-size="14.00" fill="#666666">[datetime(6)]</text>
<polygon fill="none" stroke="#000000" points="416,-626.5 416,-656.5 636,-656.5 636,-626.5 416,-626.5"/>
<text text-anchor="start" x="423" y="-637.9" font-family="Arial" font-size="14.00" fill="#000000">build_id </text>
<text text-anchor="start" x="475.1234" y="-637.9" font-family="Arial" font-size="14.00" fill="#666666">[varchar(22)]</text>
</g>
<!-- branches&#45;&gt;applications -->
<g id="edge3" class="edge">
<title>branches:application_id&#45;&gt;applications:id</title>
<path fill="none" stroke="#000000" d="M646.1635,-791.4648C1114.1099,-788.1814 580.6852,-556.275 576,-548 555.5256,-511.8384 534.4444,-454.5 576,-454.5"/>
<polygon fill="#000000" stroke="#000000" points="645.9999,-791.4653 635.9844,-787 641,-791.4826 636,-791.5 636,-791.5 636,-791.5 641,-791.4826 636.0156,-796 645.9999,-791.4653 645.9999,-791.4653"/>
<text text-anchor="start" x="642.602" y="-801.5" font-family="Arial" font-size="10.00" fill="#000000">FOREIGN KEY (application_id) REFERENCES applications (id)</text>
</g>
<!-- branches&#45;&gt;build_logs -->
<g id="edge4" class="edge">
<title>branches:build_id&#45;&gt;build_logs:id</title>
<path fill="none" stroke="#000000" d="M406.3248,-638.7516C395.9977,-630.2733 408.7955,-603.8992 416,-584 428.9986,-548.0972 458.0014,-553.9028 471,-518 485.1466,-478.9265 512.5556,-424.5 471,-424.5"/>
<polygon fill="#000000" stroke="#000000" points="406.3806,-638.7674 414.7703,-645.8287 411.1903,-640.1337 416,-641.5 416,-641.5 416,-641.5 411.1903,-640.1337 417.2297,-637.1713 406.3806,-638.7674 406.3806,-638.7674"/>
<text text-anchor="start" x="422.829" y="-651.5" font-family="Arial" font-size="10.00" fill="#000000">FOREIGN KEY (build_id) REFERENCES build_logs (id)</text>
</g>
<!-- build_logs&#45;&gt;branches -->
<g id="edge5" class="edge">
<title>build_logs:branch_id&#45;&gt;branches:id</title>
<path fill="none" stroke="#000000" d="M481.4101,-305.0594C561.0455,-314.1558 502.0408,-432.2639 471,-518 458.0014,-553.9028 428.9986,-548.0972 416,-584 398.0331,-633.6254 363.2222,-821.5 416,-821.5"/>
<polygon fill="#000000" stroke="#000000" points="480.9856,-305.0367 471.2415,-300.0065 475.9928,-304.7683 471,-304.5 471,-304.5 471,-304.5 475.9928,-304.7683 470.7585,-308.9935 480.9856,-305.0367 480.9856,-305.0367"/>
<text text-anchor="start" x="211.0475" y="-314.5" font-family="Arial" font-size="10.00" fill="#000000">FOREIGN KEY (branch_id) REFERENCES branches (id)</text>
</g>
<!-- build_status -->
<g id="node6" class="node">
<title>build_status</title>
<polygon fill="#efefef" stroke="transparent" points="268,-87.5 268,-122.5 475,-122.5 475,-87.5 268,-87.5"/>
<polygon fill="none" stroke="#000000" points="268,-87.5 268,-122.5 475,-122.5 475,-87.5 268,-87.5"/>
<text text-anchor="start" x="274.8581" y="-100.3" font-family="Arial Bold" font-size="18.00" fill="#000000">build_status</text>
<text text-anchor="start" x="370.8881" y="-100.3" font-family="Arial" font-size="14.00" fill="#000000"> </text>
<text text-anchor="start" x="374.7787" y="-100.3" font-family="Arial" font-size="14.00" fill="#666666">[BASE TABLE]</text>
<polygon fill="none" stroke="#000000" points="268,-57.5 268,-87.5 475,-87.5 475,-57.5 268,-57.5"/>
<text text-anchor="start" x="275" y="-68.9" font-family="Arial" font-size="14.00" fill="#000000">status </text>
<text text-anchor="start" x="316.237" y="-68.9" font-family="Arial" font-size="14.00" fill="#666666">[varchar(10)]</text>
</g>
<!-- build_logs&#45;&gt;build_status -->
<g id="edge6" class="edge">
<title>build_logs:result&#45;&gt;build_status:status</title>
<path fill="none" stroke="#000000" d="M268.7402,-393.6178C216.5802,-383.959 242.9819,-297.2711 279,-247 344.1994,-155.9998 452.3006,-257.0002 517.5,-166 517.5,-166 372,-57.5 372,-57.5"/>
<polygon fill="#000000" stroke="#000000" points="269.0368,-393.6432 278.6145,-398.9835 274.0184,-394.0716 279,-394.5 279,-394.5 279,-394.5 274.0184,-394.0716 279.3855,-390.0165 269.0368,-393.6432 269.0368,-393.6432"/>
<text text-anchor="start" x="7.214" y="-404.5" font-family="Arial" font-size="10.00" fill="#000000">FOREIGN KEY (result) REFERENCES build_status (status)</text>
</g>
<!-- environments -->
<g id="node7" class="node">
<title>environments</title>
<polygon fill="#efefef" stroke="transparent" points="264,-1143.5 264,-1178.5 483,-1178.5 483,-1143.5 264,-1143.5"/>
<polygon fill="none" stroke="#000000" points="264,-1143.5 264,-1178.5 483,-1178.5 483,-1143.5 264,-1143.5"/>
<text text-anchor="start" x="270.8641" y="-1156.3" font-family="Arial Bold" font-size="18.00" fill="#000000">environments</text>
<text text-anchor="start" x="378.8821" y="-1156.3" font-family="Arial" font-size="14.00" fill="#000000"> </text>
<text text-anchor="start" x="382.7727" y="-1156.3" font-family="Arial" font-size="14.00" fill="#666666">[BASE TABLE]</text>
<polygon fill="none" stroke="#000000" points="264,-1113.5 264,-1143.5 483,-1143.5 483,-1113.5 264,-1113.5"/>
<text text-anchor="start" x="271" y="-1124.9" font-family="Arial" font-size="14.00" fill="#000000">id </text>
<text text-anchor="start" x="285.7798" y="-1124.9" font-family="Arial" font-size="14.00" fill="#666666">[varchar(22)]</text>
<polygon fill="none" stroke="#000000" points="264,-1083.5 264,-1113.5 483,-1113.5 483,-1083.5 264,-1083.5"/>
<text text-anchor="start" x="271" y="-1094.9" font-family="Arial" font-size="14.00" fill="#000000">branch_id </text>
<text text-anchor="start" x="336.3534" y="-1094.9" font-family="Arial" font-size="14.00" fill="#666666">[varchar(22)]</text>
<polygon fill="none" stroke="#000000" points="264,-1053.5 264,-1083.5 483,-1083.5 483,-1053.5 264,-1053.5"/>
<text text-anchor="start" x="271" y="-1064.9" font-family="Arial" font-size="14.00" fill="#000000">key </text>
<text text-anchor="start" x="296.6732" y="-1064.9" font-family="Arial" font-size="14.00" fill="#666666">[varchar(100)]</text>
<polygon fill="none" stroke="#000000" points="264,-1023.5 264,-1053.5 483,-1053.5 483,-1023.5 264,-1023.5"/>
<text text-anchor="start" x="271" y="-1034.9" font-family="Arial" font-size="14.00" fill="#000000">value </text>
<text text-anchor="start" x="308.345" y="-1034.9" font-family="Arial" font-size="14.00" fill="#666666">[text]</text>
</g>
<!-- environments&#45;&gt;branches -->
<g id="edge7" class="edge">
<title>environments:branch_id&#45;&gt;branches:id</title>
<path fill="none" stroke="#000000" d="M493.2742,-1097.3913C530.5293,-1088.3256 501.6691,-1025.5963 483,-981 466.8591,-942.4431 432.1409,-953.5569 416,-915 399.9532,-876.6677 374.4444,-821.5 416,-821.5"/>
<polygon fill="#000000" stroke="#000000" points="492.9423,-1097.4271 482.5172,-1094.026 487.9711,-1097.9635 483,-1098.5 483,-1098.5 483,-1098.5 487.9711,-1097.9635 483.4828,-1102.974 492.9423,-1097.4271 492.9423,-1097.4271"/>
<text text-anchor="start" x="356.5475" y="-1082.5" font-family="Arial" font-size="10.00" fill="#000000">FOREIGN KEY (branch_id) REFERENCES branches (id)</text>
</g>
<!-- websites -->
<g id="node9" class="node">
<title>websites</title>
<polygon fill="#efefef" stroke="transparent" points="587,-1173.5 587,-1208.5 768,-1208.5 768,-1173.5 587,-1173.5"/>
<polygon fill="none" stroke="#000000" points="587,-1173.5 587,-1208.5 768,-1208.5 768,-1173.5 587,-1173.5"/>
<text text-anchor="start" x="593.8685" y="-1186.3" font-family="Arial Bold" font-size="18.00" fill="#000000">websites</text>
<text text-anchor="start" x="663.8777" y="-1186.3" font-family="Arial" font-size="14.00" fill="#000000"> </text>
<text text-anchor="start" x="667.7683" y="-1186.3" font-family="Arial" font-size="14.00" fill="#666666">[BASE TABLE]</text>
<polygon fill="none" stroke="#000000" points="587,-1143.5 587,-1173.5 768,-1173.5 768,-1143.5 587,-1143.5"/>
<text text-anchor="start" x="594" y="-1154.9" font-family="Arial" font-size="14.00" fill="#000000">id </text>
<text text-anchor="start" x="608.7798" y="-1154.9" font-family="Arial" font-size="14.00" fill="#666666">[varchar(22)]</text>
<polygon fill="none" stroke="#000000" points="587,-1113.5 587,-1143.5 768,-1143.5 768,-1113.5 587,-1113.5"/>
<text text-anchor="start" x="594" y="-1124.9" font-family="Arial" font-size="14.00" fill="#000000">fqdn </text>
<text text-anchor="start" x="625.129" y="-1124.9" font-family="Arial" font-size="14.00" fill="#666666">[varchar(50)]</text>
<polygon fill="none" stroke="#000000" points="587,-1083.5 587,-1113.5 768,-1113.5 768,-1083.5 587,-1083.5"/>
<text text-anchor="start" x="594" y="-1094.9" font-family="Arial" font-size="14.00" fill="#000000">http_port </text>
<text text-anchor="start" x="653.136" y="-1094.9" font-family="Arial" font-size="14.00" fill="#666666">[int(11)]</text>
<polygon fill="none" stroke="#000000" points="587,-1053.5 587,-1083.5 768,-1083.5 768,-1053.5 587,-1053.5"/>
<text text-anchor="start" x="594" y="-1064.9" font-family="Arial" font-size="14.00" fill="#000000">created_at </text>
<text text-anchor="start" x="664.028" y="-1064.9" font-family="Arial" font-size="14.00" fill="#666666">[datetime(6)]</text>
<polygon fill="none" stroke="#000000" points="587,-1023.5 587,-1053.5 768,-1053.5 768,-1023.5 587,-1023.5"/>
<text text-anchor="start" x="594" y="-1034.9" font-family="Arial" font-size="14.00" fill="#000000">updated_at </text>
<text text-anchor="start" x="667.9326" y="-1034.9" font-family="Arial" font-size="14.00" fill="#666666">[datetime(6)]</text>
<polygon fill="none" stroke="#000000" points="587,-993.5 587,-1023.5 768,-1023.5 768,-993.5 587,-993.5"/>
<text text-anchor="start" x="594" y="-1004.9" font-family="Arial" font-size="14.00" fill="#000000">branch_id </text>
<text text-anchor="start" x="659.3534" y="-1004.9" font-family="Arial" font-size="14.00" fill="#666666">[varchar(22)]</text>
</g>
<!-- websites&#45;&gt;branches -->
<g id="edge8" class="edge">
<title>websites:branch_id&#45;&gt;branches:id</title>
<path fill="none" stroke="#000000" d="M577.1162,-1005.6615C566.1888,-996.9237 577.4423,-969.882 587,-951 599.2044,-926.8893 623.7956,-939.1107 636,-915 654.7674,-877.9237 677.5556,-821.5 636,-821.5"/>
<polygon fill="#000000" stroke="#000000" points="577.3885,-1005.7396 585.7578,-1012.8252 582.1943,-1007.1198 587,-1008.5 587,-1008.5 587,-1008.5 582.1943,-1007.1198 588.2422,-1004.1748 577.3885,-1005.7396 577.3885,-1005.7396"/>
<text text-anchor="start" x="594.0475" y="-1018.5" font-family="Arial" font-size="10.00" fill="#000000">FOREIGN KEY (branch_id) REFERENCES branches (id)</text>
</g>
</g>
</svg>
