<?xml version="1.0" encoding="UTF-8" standalone="no"?>
<!DOCTYPE svg PUBLIC "-//W3C//DTD SVG 1.1//EN"
        "http://www.w3.org/Graphics/SVG/1.1/DTD/svg11.dtd">
<!-- Generated by graphviz version 2.40.1 (20161225.0304)
 -->
<!-- Title: neoshowcase Pages: 1 -->
<svg width="870pt" height="1477pt"
     viewBox="0.00 0.00 870.00 1477.00" xmlns="http://www.w3.org/2000/svg" xmlns:xlink="http://www.w3.org/1999/xlink">
    <g id="graph0" class="graph" transform="scale(1 1) rotate(0) translate(4 1473)">
        <title>neoshowcase</title>
        <polygon fill="#ffffff" stroke="transparent" points="-4,4 -4,-1473 866,-1473 866,4 -4,4"/>
        <!-- applications -->
        <g id="node1" class="node">
            <title>applications</title>
            <polygon fill="#efefef" stroke="transparent"
                     points="303,-499.5 303,-534.5 509,-534.5 509,-499.5 303,-499.5"/>
            <polygon fill="none" stroke="#000000" points="303,-499.5 303,-534.5 509,-534.5 509,-499.5 303,-499.5"/>
            <text text-anchor="start" x="309.8621" y="-512.3" font-family="Arial Bold" font-size="18.00" fill="#000000">
                applications
            </text>
            <text text-anchor="start" x="404.8841" y="-512.3" font-family="Arial" font-size="14.00"
                  fill="#000000"></text>
            <text text-anchor="start" x="408.7747" y="-512.3" font-family="Arial" font-size="14.00" fill="#666666">[BASE
                TABLE]
            </text>
            <polygon fill="none" stroke="#000000" points="303,-469.5 303,-499.5 509,-499.5 509,-469.5 303,-469.5"/>
            <text text-anchor="start" x="310" y="-480.9" font-family="Arial" font-size="14.00" fill="#000000">id</text>
            <text text-anchor="start" x="324.7798" y="-480.9" font-family="Arial" font-size="14.00" fill="#666666">
                [varchar(22)]
            </text>
            <polygon fill="none" stroke="#000000" points="303,-439.5 303,-469.5 509,-469.5 509,-439.5 303,-439.5"/>
            <text text-anchor="start" x="310" y="-450.9" font-family="Arial" font-size="14.00" fill="#000000">owner
            </text>
            <text text-anchor="start" x="352.0056" y="-450.9" font-family="Arial" font-size="14.00" fill="#666666">
                [varchar(100)]
            </text>
            <polygon fill="none" stroke="#000000" points="303,-409.5 303,-439.5 509,-439.5 509,-409.5 303,-409.5"/>
            <text text-anchor="start" x="310" y="-420.9" font-family="Arial" font-size="14.00" fill="#000000">name
            </text>
            <text text-anchor="start" x="348.899" y="-420.9" font-family="Arial" font-size="14.00" fill="#666666">
                [varchar(100)]
            </text>
            <polygon fill="none" stroke="#000000" points="303,-379.5 303,-409.5 509,-409.5 509,-379.5 303,-379.5"/>
            <text text-anchor="start" x="310" y="-390.9" font-family="Arial" font-size="14.00" fill="#000000">
                repository_id
            </text>
            <text text-anchor="start" x="394.0112" y="-390.9" font-family="Arial" font-size="14.00" fill="#666666">
                [varchar(22)]
            </text>
            <polygon fill="none" stroke="#000000" points="303,-349.5 303,-379.5 509,-379.5 509,-349.5 303,-349.5"/>
            <text text-anchor="start" x="310" y="-360.9" font-family="Arial" font-size="14.00" fill="#000000">
                created_at
            </text>
            <text text-anchor="start" x="380.028" y="-360.9" font-family="Arial" font-size="14.00" fill="#666666">
                [datetime(6)]
            </text>
            <polygon fill="none" stroke="#000000" points="303,-319.5 303,-349.5 509,-349.5 509,-319.5 303,-319.5"/>
            <text text-anchor="start" x="310" y="-330.9" font-family="Arial" font-size="14.00" fill="#000000">
                updated_at
            </text>
            <text text-anchor="start" x="383.9326" y="-330.9" font-family="Arial" font-size="14.00" fill="#666666">
                [datetime(6)]
            </text>
            <polygon fill="none" stroke="#000000" points="303,-289.5 303,-319.5 509,-319.5 509,-289.5 303,-289.5"/>
            <text text-anchor="start" x="310" y="-300.9" font-family="Arial" font-size="14.00" fill="#000000">
                deleted_at
            </text>
            <text text-anchor="start" x="379.2566" y="-300.9" font-family="Arial" font-size="14.00" fill="#666666">
                [datetime(6)]
            </text>
        </g>
        <!-- repositories -->
        <g id="node5" class="node">
            <title>repositories</title>
            <polygon fill="#efefef" stroke="transparent"
                     points="304,-132.5 304,-167.5 508,-167.5 508,-132.5 304,-132.5"/>
            <polygon fill="none" stroke="#000000" points="304,-132.5 304,-167.5 508,-167.5 508,-132.5 304,-132.5"/>
            <text text-anchor="start" x="310.8701" y="-145.3" font-family="Arial Bold" font-size="18.00" fill="#000000">
                repositories
            </text>
            <text text-anchor="start" x="403.8761" y="-145.3" font-family="Arial" font-size="14.00"
                  fill="#000000"></text>
            <text text-anchor="start" x="407.7667" y="-145.3" font-family="Arial" font-size="14.00" fill="#666666">[BASE
                TABLE]
            </text>
            <polygon fill="none" stroke="#000000" points="304,-102.5 304,-132.5 508,-132.5 508,-102.5 304,-102.5"/>
            <text text-anchor="start" x="311" y="-113.9" font-family="Arial" font-size="14.00" fill="#000000">id</text>
            <text text-anchor="start" x="325.7798" y="-113.9" font-family="Arial" font-size="14.00" fill="#666666">
                [varchar(22)]
            </text>
            <polygon fill="none" stroke="#000000" points="304,-72.5 304,-102.5 508,-102.5 508,-72.5 304,-72.5"/>
            <text text-anchor="start" x="311" y="-83.9" font-family="Arial" font-size="14.00" fill="#000000">remote
            </text>
            <text text-anchor="start" x="358.4502" y="-83.9" font-family="Arial" font-size="14.00" fill="#666666">
                [text]
            </text>
            <polygon fill="none" stroke="#000000" points="304,-42.5 304,-72.5 508,-72.5 508,-42.5 304,-42.5"/>
            <text text-anchor="start" x="311" y="-53.9" font-family="Arial" font-size="14.00" fill="#000000">refs</text>
            <text text-anchor="start" x="338.2244" y="-53.9" font-family="Arial" font-size="14.00" fill="#666666">
                [text]
            </text>
        </g>
        <!-- applications&#45;&gt;repositories -->
        <g id="edge1" class="edge">
            <title>applications:repository_id&#45;&gt;repositories:id</title>
            <path fill="none" stroke="#000000" d="M519.1611,-393.8461C631.9573,-379.0327 627.6253,-117.5 508,-117.5"/>
            <polygon fill="#000000" stroke="#000000"
                     points="518.9794,-393.8577 508.711,-390.0093 513.9897,-394.1788 509,-394.5 509,-394.5 509,-394.5 513.9897,-394.1788 509.289,-398.9907 518.9794,-393.8577 518.9794,-393.8577"/>
            <text text-anchor="start" x="516.111" y="-404.5" font-family="Arial" font-size="10.00" fill="#000000">
                FOREIGN KEY (repository_id) REFERENCES repositories (id)
            </text>
        </g>
        <!-- artifacts -->
        <g id="node2" class="node">
            <title>artifacts</title>
            <polygon fill="#efefef" stroke="transparent"
                     points="174,-1143.5 174,-1178.5 348,-1178.5 348,-1143.5 174,-1143.5"/>
            <polygon fill="none" stroke="#000000" points="174,-1143.5 174,-1178.5 348,-1178.5 348,-1143.5 174,-1143.5"/>
            <text text-anchor="start" x="180.8704" y="-1156.3" font-family="Arial Bold" font-size="18.00"
                  fill="#000000">artifacts
            </text>
            <text text-anchor="start" x="243.8758" y="-1156.3" font-family="Arial" font-size="14.00"
                  fill="#000000"></text>
            <text text-anchor="start" x="247.7664" y="-1156.3" font-family="Arial" font-size="14.00" fill="#666666">
                [BASE TABLE]
            </text>
            <polygon fill="none" stroke="#000000" points="174,-1113.5 174,-1143.5 348,-1143.5 348,-1113.5 174,-1113.5"/>
            <text text-anchor="start" x="181" y="-1124.9" font-family="Arial" font-size="14.00" fill="#000000">id</text>
            <text text-anchor="start" x="195.7798" y="-1124.9" font-family="Arial" font-size="14.00" fill="#666666">
                [varchar(22)]
            </text>
            <polygon fill="none" stroke="#000000" points="174,-1083.5 174,-1113.5 348,-1113.5 348,-1083.5 174,-1083.5"/>
            <text text-anchor="start" x="181" y="-1094.9" font-family="Arial" font-size="14.00" fill="#000000">
                build_log_id
            </text>
            <text text-anchor="start" x="259.5778" y="-1094.9" font-family="Arial" font-size="14.00" fill="#666666">
                [varchar(22)]
            </text>
            <polygon fill="none" stroke="#000000" points="174,-1053.5 174,-1083.5 348,-1083.5 348,-1053.5 174,-1053.5"/>
            <text text-anchor="start" x="181" y="-1064.9" font-family="Arial" font-size="14.00" fill="#000000">size
            </text>
            <text text-anchor="start" x="209.7798" y="-1064.9" font-family="Arial" font-size="14.00" fill="#666666">
                [bigint(20)]
            </text>
            <polygon fill="none" stroke="#000000" points="174,-1023.5 174,-1053.5 348,-1053.5 348,-1023.5 174,-1023.5"/>
            <text text-anchor="start" x="181" y="-1034.9" font-family="Arial" font-size="14.00" fill="#000000">
                created_at
            </text>
            <text text-anchor="start" x="251.028" y="-1034.9" font-family="Arial" font-size="14.00" fill="#666666">
                [datetime(6)]
            </text>
            <polygon fill="none" stroke="#000000" points="174,-993.5 174,-1023.5 348,-1023.5 348,-993.5 174,-993.5"/>
            <text text-anchor="start" x="181" y="-1004.9" font-family="Arial" font-size="14.00" fill="#000000">
                deleted_at
            </text>
            <text text-anchor="start" x="250.2566" y="-1004.9" font-family="Arial" font-size="14.00" fill="#666666">
                [datetime(6)]
            </text>
        </g>
        <!-- build_logs -->
        <g id="node3" class="node">
            <title>build_logs</title>
            <polygon fill="#efefef" stroke="transparent" points="56,-806.5 56,-841.5 475,-841.5 475,-806.5 56,-806.5"/>
            <polygon fill="none" stroke="#000000" points="56,-806.5 56,-841.5 475,-841.5 475,-806.5 56,-806.5"/>
            <text text-anchor="start" x="176.3632" y="-819.3" font-family="Arial Bold" font-size="18.00" fill="#000000">
                build_logs
            </text>
            <text text-anchor="start" x="257.383" y="-819.3" font-family="Arial" font-size="14.00"
                  fill="#000000"></text>
            <text text-anchor="start" x="261.2736" y="-819.3" font-family="Arial" font-size="14.00" fill="#666666">[BASE
                TABLE]
            </text>
            <polygon fill="none" stroke="#000000" points="56,-776.5 56,-806.5 475,-806.5 475,-776.5 56,-776.5"/>
            <text text-anchor="start" x="63" y="-787.9" font-family="Arial" font-size="14.00" fill="#000000">id</text>
            <text text-anchor="start" x="77.7798" y="-787.9" font-family="Arial" font-size="14.00" fill="#666666">
                [varchar(22)]
            </text>
            <polygon fill="none" stroke="#000000" points="56,-746.5 56,-776.5 475,-776.5 475,-746.5 56,-746.5"/>
            <text text-anchor="start" x="63" y="-757.9" font-family="Arial" font-size="14.00" fill="#000000">
                application_id
            </text>
            <text text-anchor="start" x="152.4684" y="-757.9" font-family="Arial" font-size="14.00" fill="#666666">
                [varchar(22)]
            </text>
            <polygon fill="none" stroke="#000000" points="56,-716.5 56,-746.5 475,-746.5 475,-716.5 56,-716.5"/>
            <text text-anchor="start" x="62.5742" y="-727.9" font-family="Arial" font-size="14.00" fill="#000000">
                result
            </text>
            <text text-anchor="start" x="100.6878" y="-727.9" font-family="Arial" font-size="14.00" fill="#666666">
                [enum(&#39;BUILDING&#39;,&#39;SUCCEEDED&#39;,&#39;FAILED&#39;,&#39;CANCELED&#39;)]
            </text>
            <polygon fill="none" stroke="#000000" points="56,-686.5 56,-716.5 475,-716.5 475,-686.5 56,-686.5"/>
            <text text-anchor="start" x="63" y="-697.9" font-family="Arial" font-size="14.00" fill="#000000">
                started_at
            </text>
            <text text-anchor="start" x="129.136" y="-697.9" font-family="Arial" font-size="14.00" fill="#666666">
                [datetime(6)]
            </text>
            <polygon fill="none" stroke="#000000" points="56,-656.5 56,-686.5 475,-686.5 475,-656.5 56,-656.5"/>
            <text text-anchor="start" x="63" y="-667.9" font-family="Arial" font-size="14.00" fill="#000000">
                finished_at
            </text>
            <text text-anchor="start" x="134.5806" y="-667.9" font-family="Arial" font-size="14.00" fill="#666666">
                [datetime(6)]
            </text>
        </g>
        <!-- artifacts&#45;&gt;build_logs -->
        <g id="edge2" class="edge">
            <title>artifacts:build_log_id&#45;&gt;build_logs:id</title>
            <path fill="none" stroke="#000000"
                  d="M358.2848,-1097.599C410.7133,-1087.7368 386.6091,-999.3097 348,-951 264.9342,-847.0636 139.0658,-988.9364 56,-885 30.0563,-852.5379 14.4444,-791.5 56,-791.5"/>
            <polygon fill="#000000" stroke="#000000"
                     points="357.9618,-1097.6272 347.6072,-1094.0172 352.9809,-1098.0636 348,-1098.5 348,-1098.5 348,-1098.5 352.9809,-1098.0636 348.3928,-1102.9828 357.9618,-1097.6272 357.9618,-1097.6272"/>
            <text text-anchor="start" x="74.381" y="-1108.5" font-family="Arial" font-size="10.00" fill="#000000">
                FOREIGN KEY (build_log_id) REFERENCES build_logs (id)
            </text>
        </g>
        <!-- build_logs&#45;&gt;applications -->
        <g id="edge3" class="edge">
            <title>build_logs:application_id&#45;&gt;applications:id</title>
            <path fill="none" stroke="#000000"
                  d="M485.2885,-760.596C537.7569,-750.7017 513.9935,-661.9999 475,-614 425.755,-553.3808 352.245,-638.6192 303,-578 276.798,-545.746 261.4444,-484.5 303,-484.5"/>
            <polygon fill="#000000" stroke="#000000"
                     points="484.9616,-760.6246 474.6061,-757.0173 479.9808,-761.0623 475,-761.5 475,-761.5 475,-761.5 479.9808,-761.0623 475.3939,-765.9827 484.9616,-760.6246 484.9616,-760.6246"/>
            <text text-anchor="start" x="481.602" y="-771.5" font-family="Arial" font-size="10.00" fill="#000000">
                FOREIGN KEY (application_id) REFERENCES applications (id)
            </text>
        </g>
        <!-- dynamic_site_details -->
        <g id="node4" class="node">
            <title>dynamic_site_details</title>
            <polygon fill="#efefef" stroke="transparent"
                     points="491,-1375.5 491,-1410.5 769,-1410.5 769,-1375.5 491,-1375.5"/>
            <polygon fill="none" stroke="#000000" points="491,-1375.5 491,-1410.5 769,-1410.5 769,-1375.5 491,-1375.5"/>
            <text text-anchor="start" x="497.8585" y="-1388.3" font-family="Arial Bold" font-size="18.00"
                  fill="#000000">dynamic_site_details
            </text>
            <text text-anchor="start" x="664.8877" y="-1388.3" font-family="Arial" font-size="14.00"
                  fill="#000000"></text>
            <text text-anchor="start" x="668.7783" y="-1388.3" font-family="Arial" font-size="14.00" fill="#666666">
                [BASE TABLE]
            </text>
            <polygon fill="none" stroke="#000000" points="491,-1345.5 491,-1375.5 769,-1375.5 769,-1345.5 491,-1345.5"/>
            <text text-anchor="start" x="498" y="-1356.9" font-family="Arial" font-size="14.00" fill="#000000">site_id
            </text>
            <text text-anchor="start" x="542.3422" y="-1356.9" font-family="Arial" font-size="14.00" fill="#666666">
                [varchar(22)]
            </text>
        </g>
        <!-- sites -->
        <g id="node6" class="node">
            <title>sites</title>
            <polygon fill="#efefef" stroke="transparent"
                     points="453,-1173.5 453,-1208.5 650,-1208.5 650,-1173.5 453,-1173.5"/>
            <polygon fill="none" stroke="#000000" points="453,-1173.5 453,-1208.5 650,-1208.5 650,-1173.5 453,-1173.5"/>
            <text text-anchor="start" x="484.3718" y="-1186.3" font-family="Arial Bold" font-size="18.00"
                  fill="#000000">sites
            </text>
            <text text-anchor="start" x="521.3744" y="-1186.3" font-family="Arial" font-size="14.00"
                  fill="#000000"></text>
            <text text-anchor="start" x="525.265" y="-1186.3" font-family="Arial" font-size="14.00" fill="#666666">[BASE
                TABLE]
            </text>
            <polygon fill="none" stroke="#000000" points="453,-1143.5 453,-1173.5 650,-1173.5 650,-1143.5 453,-1143.5"/>
            <text text-anchor="start" x="460" y="-1154.9" font-family="Arial" font-size="14.00" fill="#000000">id</text>
            <text text-anchor="start" x="474.7798" y="-1154.9" font-family="Arial" font-size="14.00" fill="#666666">
                [varchar(22)]
            </text>
            <polygon fill="none" stroke="#000000" points="453,-1113.5 453,-1143.5 650,-1143.5 650,-1113.5 453,-1113.5"/>
            <text text-anchor="start" x="460" y="-1124.9" font-family="Arial" font-size="14.00" fill="#000000">fqdn
            </text>
            <text text-anchor="start" x="491.129" y="-1124.9" font-family="Arial" font-size="14.00" fill="#666666">
                [varchar(50)]
            </text>
            <polygon fill="none" stroke="#000000" points="453,-1083.5 453,-1113.5 650,-1113.5 650,-1083.5 453,-1083.5"/>
            <text text-anchor="start" x="460" y="-1094.9" font-family="Arial" font-size="14.00" fill="#000000">
                path_prefix
            </text>
            <text text-anchor="start" x="533.1346" y="-1094.9" font-family="Arial" font-size="14.00" fill="#666666">
                [varchar(50)]
            </text>
            <polygon fill="none" stroke="#000000" points="453,-1053.5 453,-1083.5 650,-1083.5 650,-1053.5 453,-1053.5"/>
            <text text-anchor="start" x="459.7482" y="-1064.9" font-family="Arial" font-size="14.00" fill="#000000">
                type
            </text>
            <text text-anchor="start" x="490.0946" y="-1064.9" font-family="Arial" font-size="14.00" fill="#666666">
                [enum(&#39;static&#39;,&#39;dynamic&#39;)]
            </text>
            <polygon fill="none" stroke="#000000" points="453,-1023.5 453,-1053.5 650,-1053.5 650,-1023.5 453,-1023.5"/>
            <text text-anchor="start" x="460" y="-1034.9" font-family="Arial" font-size="14.00" fill="#000000">
                application_id
            </text>
            <text text-anchor="start" x="549.4684" y="-1034.9" font-family="Arial" font-size="14.00" fill="#666666">
                [varchar(22)]
            </text>
            <polygon fill="none" stroke="#000000" points="453,-993.5 453,-1023.5 650,-1023.5 650,-993.5 453,-993.5"/>
            <text text-anchor="start" x="460" y="-1004.9" font-family="Arial" font-size="14.00" fill="#000000">
                created_at
            </text>
            <text text-anchor="start" x="530.028" y="-1004.9" font-family="Arial" font-size="14.00" fill="#666666">
                [datetime(6)]
            </text>
            <polygon fill="none" stroke="#000000" points="453,-963.5 453,-993.5 650,-993.5 650,-963.5 453,-963.5"/>
            <text text-anchor="start" x="460" y="-974.9" font-family="Arial" font-size="14.00" fill="#000000">
                updated_at
            </text>
            <text text-anchor="start" x="533.9326" y="-974.9" font-family="Arial" font-size="14.00" fill="#666666">
                [datetime(6)]
            </text>
        </g>
        <!-- dynamic_site_details&#45;&gt;sites -->
        <g id="edge4" class="edge">
            <title>dynamic_site_details:site_id&#45;&gt;sites:id</title>
            <path fill="none" stroke="#000000"
                  d="M630.5027,-1335.1235C638.1823,-1253.6056 730.1568,-1158.5 650,-1158.5"/>
            <polygon fill="#000000" stroke="#000000"
                     points="630.484,-1335.5117 625.5053,-1345.2822 630.242,-1340.5059 630,-1345.5 630,-1345.5 630,-1345.5 630.242,-1340.5059 634.4947,-1345.7178 630.484,-1335.5117 630.484,-1335.5117"/>
            <text text-anchor="start" x="636.835" y="-1355.5" font-family="Arial" font-size="10.00" fill="#000000">
                FOREIGN KEY (site_id) REFERENCES sites (id)
            </text>
        </g>
        <!-- sites&#45;&gt;applications -->
        <g id="edge5" class="edge">
            <title>sites:application_id&#45;&gt;applications:id</title>
            <path fill="none" stroke="#000000"
                  d="M442.6106,-1037.3317C404.4359,-1027.7899 427.3597,-961.9871 453,-921 472.397,-889.993 507.603,-916.007 527,-885 621.4969,-733.9426 687.1797,-484.5 509,-484.5"/>
            <polygon fill="#000000" stroke="#000000"
                     points="443.0626,-1037.3824 452.4971,-1042.9718 448.0313,-1037.9412 453,-1038.5 453,-1038.5 453,-1038.5 448.0313,-1037.9412 453.5029,-1034.0282 443.0626,-1037.3824 443.0626,-1037.3824"/>
            <text text-anchor="start" x="459.602" y="-1048.5" font-family="Arial" font-size="10.00" fill="#000000">
                FOREIGN KEY (application_id) REFERENCES applications (id)
            </text>
        </g>
        <!-- static_site_details -->
        <g id="node7" class="node">
            <title>static_site_details</title>
            <polygon fill="#efefef" stroke="transparent"
                     points="134,-1390.5 134,-1425.5 387,-1425.5 387,-1390.5 134,-1390.5"/>
            <polygon fill="none" stroke="#000000" points="134,-1390.5 134,-1425.5 387,-1425.5 387,-1390.5 134,-1390.5"/>
            <text text-anchor="start" x="140.8586" y="-1403.3" font-family="Arial Bold" font-size="18.00"
                  fill="#000000">static_site_details
            </text>
            <text text-anchor="start" x="282.8876" y="-1403.3" font-family="Arial" font-size="14.00"
                  fill="#000000"></text>
            <text text-anchor="start" x="286.7782" y="-1403.3" font-family="Arial" font-size="14.00" fill="#666666">
                [BASE TABLE]
            </text>
            <polygon fill="none" stroke="#000000" points="134,-1360.5 134,-1390.5 387,-1390.5 387,-1360.5 134,-1360.5"/>
            <text text-anchor="start" x="141" y="-1371.9" font-family="Arial" font-size="14.00" fill="#000000">site_id
            </text>
            <text text-anchor="start" x="185.3422" y="-1371.9" font-family="Arial" font-size="14.00" fill="#666666">
                [varchar(22)]
            </text>
            <polygon fill="none" stroke="#000000" points="134,-1330.5 134,-1360.5 387,-1360.5 387,-1330.5 134,-1330.5"/>
            <text text-anchor="start" x="141" y="-1341.9" font-family="Arial" font-size="14.00" fill="#000000">
                artifact_id
            </text>
            <text text-anchor="start" x="205.5666" y="-1341.9" font-family="Arial" font-size="14.00" fill="#666666">
                [varchar(22)]
            </text>
        </g>
        <!-- static_site_details&#45;&gt;artifacts -->
        <g id="edge6" class="edge">
            <title>static_site_details:artifact_id&#45;&gt;artifacts:id</title>
            <path fill="none" stroke="#000000"
                  d="M260.3376,-1320.3624C253.3641,-1269.812 193.2916,-1276.8975 174,-1222 160.2228,-1182.7947 132.4444,-1128.5 174,-1128.5"/>
            <polygon fill="#000000" stroke="#000000"
                     points="260.3479,-1320.5213 256.5096,-1330.7934 260.674,-1325.5106 261,-1330.5 261,-1330.5 261,-1330.5 260.674,-1325.5106 265.4904,-1330.2066 260.3479,-1320.5213 260.3479,-1320.5213"/>
            <text text-anchor="start" x="7.389" y="-1340.5" font-family="Arial" font-size="10.00" fill="#000000">FOREIGN
                KEY (artifact_id) REFERENCES artifacts (id)
            </text>
        </g>
        <!-- static_site_details&#45;&gt;sites -->
        <g id="edge7" class="edge">
            <title>static_site_details:site_id&#45;&gt;sites:id</title>
            <path fill="none" stroke="#000000"
                  d="M397.2701,-1374.6257C478.0672,-1359.6934 355.9342,-1158.5 453,-1158.5"/>
            <polygon fill="#000000" stroke="#000000"
                     points="396.964,-1374.6517 386.6182,-1371.0162 391.982,-1375.0758 387,-1375.5 387,-1375.5 387,-1375.5 391.982,-1375.0758 387.3818,-1379.9838 396.964,-1374.6517 396.964,-1374.6517"/>
            <text text-anchor="start" x="393.835" y="-1385.5" font-family="Arial" font-size="10.00" fill="#000000">
                FOREIGN KEY (site_id) REFERENCES sites (id)
            </text>
        </g>
    </g>
</svg>
