<?xml version="1.0" encoding="UTF-8" standalone="no"?>
<!DOCTYPE svg PUBLIC "-//W3C//DTD SVG 1.1//EN"
 "http://www.w3.org/Graphics/SVG/1.1/DTD/svg11.dtd">
<!-- Generated by graphviz version 2.40.1 (20161225.0304)
 -->
<!-- Title: neoshowcase Pages: 1 -->
<svg width="1718pt" height="1350pt"
 viewBox="0.00 0.00 1717.50 1350.00" xmlns="http://www.w3.org/2000/svg" xmlns:xlink="http://www.w3.org/1999/xlink">
<g id="graph0" class="graph" transform="scale(1 1) rotate(0) translate(4 1346)">
<title>neoshowcase</title>
<polygon fill="#ffffff" stroke="transparent" points="-4,4 -4,-1346 1713.5,-1346 1713.5,4 -4,4"/>
<!-- applications -->
<g id="node1" class="node">
<title>applications</title>
<polygon fill="#efefef" stroke="transparent" points="665.5,-589.5 665.5,-624.5 894.5,-624.5 894.5,-589.5 665.5,-589.5"/>
<polygon fill="none" stroke="#000000" points="665.5,-589.5 665.5,-624.5 894.5,-624.5 894.5,-589.5 665.5,-589.5"/>
<text text-anchor="start" x="683.8621" y="-602.3" font-family="Arial Bold" font-size="18.00" fill="#000000">applications</text>
<text text-anchor="start" x="778.8841" y="-602.3" font-family="Arial" font-size="14.00" fill="#000000"> </text>
<text text-anchor="start" x="782.7747" y="-602.3" font-family="Arial" font-size="14.00" fill="#666666">[BASE TABLE]</text>
<polygon fill="none" stroke="#000000" points="665.5,-559.5 665.5,-589.5 894.5,-589.5 894.5,-559.5 665.5,-559.5"/>
<text text-anchor="start" x="672.5" y="-570.9" font-family="Arial" font-size="14.00" fill="#000000">id </text>
<text text-anchor="start" x="687.2798" y="-570.9" font-family="Arial" font-size="14.00" fill="#666666">[varchar(22)]</text>
<polygon fill="none" stroke="#000000" points="665.5,-529.5 665.5,-559.5 894.5,-559.5 894.5,-529.5 665.5,-529.5"/>
<text text-anchor="start" x="672.5" y="-540.9" font-family="Arial" font-size="14.00" fill="#000000">name </text>
<text text-anchor="start" x="711.399" y="-540.9" font-family="Arial" font-size="14.00" fill="#666666">[varchar(100)]</text>
<polygon fill="none" stroke="#000000" points="665.5,-499.5 665.5,-529.5 894.5,-529.5 894.5,-499.5 665.5,-499.5"/>
<text text-anchor="start" x="672.5" y="-510.9" font-family="Arial" font-size="14.00" fill="#000000">repository_id </text>
<text text-anchor="start" x="756.5112" y="-510.9" font-family="Arial" font-size="14.00" fill="#666666">[varchar(22)]</text>
<polygon fill="none" stroke="#000000" points="665.5,-469.5 665.5,-499.5 894.5,-499.5 894.5,-469.5 665.5,-469.5"/>
<text text-anchor="start" x="672.5" y="-480.9" font-family="Arial" font-size="14.00" fill="#000000">branch_name </text>
<text text-anchor="start" x="761.9726" y="-480.9" font-family="Arial" font-size="14.00" fill="#666666">[varchar(100)]</text>
<polygon fill="none" stroke="#000000" points="665.5,-439.5 665.5,-469.5 894.5,-469.5 894.5,-439.5 665.5,-439.5"/>
<text text-anchor="start" x="672.3008" y="-450.9" font-family="Arial" font-size="14.00" fill="#000000">build_type </text>
<text text-anchor="start" x="739.9908" y="-450.9" font-family="Arial" font-size="14.00" fill="#666666">[enum(&#39;runtime&#39;,&#39;static&#39;)]</text>
<polygon fill="none" stroke="#000000" points="665.5,-409.5 665.5,-439.5 894.5,-439.5 894.5,-409.5 665.5,-409.5"/>
<text text-anchor="start" x="672.5" y="-420.9" font-family="Arial" font-size="14.00" fill="#000000">state </text>
<text text-anchor="start" x="706.737" y="-420.9" font-family="Arial" font-size="14.00" fill="#666666">[varchar(10)]</text>
<polygon fill="none" stroke="#000000" points="665.5,-379.5 665.5,-409.5 894.5,-409.5 894.5,-379.5 665.5,-379.5"/>
<text text-anchor="start" x="672.5" y="-390.9" font-family="Arial" font-size="14.00" fill="#000000">current_commit </text>
<text text-anchor="start" x="772.8338" y="-390.9" font-family="Arial" font-size="14.00" fill="#666666">[char(40)]</text>
<polygon fill="none" stroke="#000000" points="665.5,-349.5 665.5,-379.5 894.5,-379.5 894.5,-349.5 665.5,-349.5"/>
<text text-anchor="start" x="672.5" y="-360.9" font-family="Arial" font-size="14.00" fill="#000000">want_commit </text>
<text text-anchor="start" x="758.8366" y="-360.9" font-family="Arial" font-size="14.00" fill="#666666">[char(40)]</text>
<polygon fill="none" stroke="#000000" points="665.5,-319.5 665.5,-349.5 894.5,-349.5 894.5,-319.5 665.5,-319.5"/>
<text text-anchor="start" x="672.5" y="-330.9" font-family="Arial" font-size="14.00" fill="#000000">created_at </text>
<text text-anchor="start" x="742.528" y="-330.9" font-family="Arial" font-size="14.00" fill="#666666">[datetime(6)]</text>
<polygon fill="none" stroke="#000000" points="665.5,-289.5 665.5,-319.5 894.5,-319.5 894.5,-289.5 665.5,-289.5"/>
<text text-anchor="start" x="672.5" y="-300.9" font-family="Arial" font-size="14.00" fill="#000000">updated_at </text>
<text text-anchor="start" x="746.4326" y="-300.9" font-family="Arial" font-size="14.00" fill="#666666">[datetime(6)]</text>
</g>
<!-- application_state -->
<g id="node3" class="node">
<title>application_state</title>
<polygon fill="#efefef" stroke="transparent" points="493.5,-102.5 493.5,-137.5 739.5,-137.5 739.5,-102.5 493.5,-102.5"/>
<polygon fill="none" stroke="#000000" points="493.5,-102.5 493.5,-137.5 739.5,-137.5 739.5,-102.5 493.5,-102.5"/>
<text text-anchor="start" x="500.3506" y="-115.3" font-family="Arial Bold" font-size="18.00" fill="#000000">application_state</text>
<text text-anchor="start" x="635.3956" y="-115.3" font-family="Arial" font-size="14.00" fill="#000000"> </text>
<text text-anchor="start" x="639.2862" y="-115.3" font-family="Arial" font-size="14.00" fill="#666666">[BASE TABLE]</text>
<polygon fill="none" stroke="#000000" points="493.5,-72.5 493.5,-102.5 739.5,-102.5 739.5,-72.5 493.5,-72.5"/>
<text text-anchor="start" x="500.5" y="-83.9" font-family="Arial" font-size="14.00" fill="#000000">state </text>
<text text-anchor="start" x="534.737" y="-83.9" font-family="Arial" font-size="14.00" fill="#666666">[varchar(10)]</text>
</g>
<!-- applications&#45;&gt;application_state -->
<g id="edge2" class="edge">
<title>applications:state&#45;&gt;application_state:state</title>
<path fill="none" stroke="#000000" d="M655.3943,-424.4071C378.8286,-419.2044 732.2745,-197.1262 739.5,-181 756.4917,-143.0771 781.0556,-87.5 739.5,-87.5"/>
<polygon fill="#000000" stroke="#000000" points="655.5004,-424.408 665.4586,-428.9998 660.5002,-424.454 665.5,-424.5 665.5,-424.5 665.5,-424.5 660.5002,-424.454 665.5414,-420.0002 655.5004,-424.408 655.5004,-424.408"/>
<text text-anchor="start" x="379.761" y="-434.5" font-family="Arial" font-size="10.00" fill="#000000">FOREIGN KEY (state) REFERENCES application_state (state)</text>
</g>
<!-- repositories -->
<g id="node10" class="node">
<title>repositories</title>
<polygon fill="#efefef" stroke="transparent" points="843.5,-132.5 843.5,-167.5 1047.5,-167.5 1047.5,-132.5 843.5,-132.5"/>
<polygon fill="none" stroke="#000000" points="843.5,-132.5 843.5,-167.5 1047.5,-167.5 1047.5,-132.5 843.5,-132.5"/>
<text text-anchor="start" x="850.3701" y="-145.3" font-family="Arial Bold" font-size="18.00" fill="#000000">repositories</text>
<text text-anchor="start" x="943.3761" y="-145.3" font-family="Arial" font-size="14.00" fill="#000000"> </text>
<text text-anchor="start" x="947.2667" y="-145.3" font-family="Arial" font-size="14.00" fill="#666666">[BASE TABLE]</text>
<polygon fill="none" stroke="#000000" points="843.5,-102.5 843.5,-132.5 1047.5,-132.5 1047.5,-102.5 843.5,-102.5"/>
<text text-anchor="start" x="850.5" y="-113.9" font-family="Arial" font-size="14.00" fill="#000000">id </text>
<text text-anchor="start" x="865.2798" y="-113.9" font-family="Arial" font-size="14.00" fill="#666666">[varchar(22)]</text>
<polygon fill="none" stroke="#000000" points="843.5,-72.5 843.5,-102.5 1047.5,-102.5 1047.5,-72.5 843.5,-72.5"/>
<text text-anchor="start" x="850.5" y="-83.9" font-family="Arial" font-size="14.00" fill="#000000">name </text>
<text text-anchor="start" x="889.399" y="-83.9" font-family="Arial" font-size="14.00" fill="#666666">[varchar(256)]</text>
<polygon fill="none" stroke="#000000" points="843.5,-42.5 843.5,-72.5 1047.5,-72.5 1047.5,-42.5 843.5,-42.5"/>
<text text-anchor="start" x="850.5" y="-53.9" font-family="Arial" font-size="14.00" fill="#000000">url </text>
<text text-anchor="start" x="869.9404" y="-53.9" font-family="Arial" font-size="14.00" fill="#666666">[varchar(256)]</text>
</g>
<!-- applications&#45;&gt;repositories -->
<g id="edge1" class="edge">
<title>applications:repository_id&#45;&gt;repositories:id</title>
<path fill="none" stroke="#000000" d="M904.3122,-512.2222C950.0752,-489.0924 920.1924,-296.5842 894.5,-247 881.7356,-222.3657 856.2644,-235.6343 843.5,-211 824.3818,-174.1034 801.9444,-117.5 843.5,-117.5"/>
<polygon fill="#000000" stroke="#000000" points="904.241,-512.2386 893.4824,-510.1166 899.3705,-513.3693 894.5,-514.5 894.5,-514.5 894.5,-514.5 899.3705,-513.3693 895.5176,-518.8834 904.241,-512.2386 904.241,-512.2386"/>
<text text-anchor="start" x="610.611" y="-524.5" font-family="Arial" font-size="10.00" fill="#000000">FOREIGN KEY (repository_id) REFERENCES repositories (id)</text>
</g>
<!-- application_config -->
<g id="node2" class="node">
<title>application_config</title>
<polygon fill="#efefef" stroke="transparent" points="43.5,-956.5 43.5,-991.5 298.5,-991.5 298.5,-956.5 43.5,-956.5"/>
<polygon fill="none" stroke="#000000" points="43.5,-956.5 43.5,-991.5 298.5,-991.5 298.5,-956.5 43.5,-956.5"/>
<text text-anchor="start" x="50.3515" y="-969.3" font-family="Arial Bold" font-size="18.00" fill="#000000">application_config</text>
<text text-anchor="start" x="194.3947" y="-969.3" font-family="Arial" font-size="14.00" fill="#000000"> </text>
<text text-anchor="start" x="198.2853" y="-969.3" font-family="Arial" font-size="14.00" fill="#666666">[BASE TABLE]</text>
<polygon fill="none" stroke="#000000" points="43.5,-926.5 43.5,-956.5 298.5,-956.5 298.5,-926.5 43.5,-926.5"/>
<text text-anchor="start" x="50.5" y="-937.9" font-family="Arial" font-size="14.00" fill="#000000">application_id </text>
<text text-anchor="start" x="139.9684" y="-937.9" font-family="Arial" font-size="14.00" fill="#666666">[varchar(22)]</text>
<polygon fill="none" stroke="#000000" points="43.5,-896.5 43.5,-926.5 298.5,-926.5 298.5,-896.5 43.5,-896.5"/>
<text text-anchor="start" x="50.5" y="-907.9" font-family="Arial" font-size="14.00" fill="#000000">use_mariadb </text>
<text text-anchor="start" x="135.2966" y="-907.9" font-family="Arial" font-size="14.00" fill="#666666">[tinyint(1)]</text>
<polygon fill="none" stroke="#000000" points="43.5,-866.5 43.5,-896.5 298.5,-896.5 298.5,-866.5 43.5,-866.5"/>
<text text-anchor="start" x="50.5" y="-877.9" font-family="Arial" font-size="14.00" fill="#000000">use_mongodb </text>
<text text-anchor="start" x="143.0946" y="-877.9" font-family="Arial" font-size="14.00" fill="#666666">[tinyint(1)]</text>
<polygon fill="none" stroke="#000000" points="43.5,-836.5 43.5,-866.5 298.5,-866.5 298.5,-836.5 43.5,-836.5"/>
<text text-anchor="start" x="50.5" y="-847.9" font-family="Arial" font-size="14.00" fill="#000000">base_image </text>
<text text-anchor="start" x="130.636" y="-847.9" font-family="Arial" font-size="14.00" fill="#666666">[varchar(1000)]</text>
<polygon fill="none" stroke="#000000" points="43.5,-806.5 43.5,-836.5 298.5,-836.5 298.5,-806.5 43.5,-806.5"/>
<text text-anchor="start" x="50.5" y="-817.9" font-family="Arial" font-size="14.00" fill="#000000">build_cmd </text>
<text text-anchor="start" x="118.1774" y="-817.9" font-family="Arial" font-size="14.00" fill="#666666">[text]</text>
<polygon fill="none" stroke="#000000" points="43.5,-776.5 43.5,-806.5 298.5,-806.5 298.5,-776.5 43.5,-776.5"/>
<text text-anchor="start" x="50.5" y="-787.9" font-family="Arial" font-size="14.00" fill="#000000">entrypoint_cmd </text>
<text text-anchor="start" x="150.0778" y="-787.9" font-family="Arial" font-size="14.00" fill="#666666">[text]</text>
<polygon fill="none" stroke="#000000" points="43.5,-746.5 43.5,-776.5 298.5,-776.5 298.5,-746.5 43.5,-746.5"/>
<text text-anchor="start" x="50.5" y="-757.9" font-family="Arial" font-size="14.00" fill="#000000">authentication </text>
<text text-anchor="start" x="141.5364" y="-757.9" font-family="Arial" font-size="14.00" fill="#666666">[enum(&#39;off&#39;,&#39;soft&#39;,&#39;hard&#39;)]</text>
</g>
<!-- application_config&#45;&gt;applications -->
<g id="edge3" class="edge">
<title>application_config:application_id&#45;&gt;applications:id</title>
<path fill="none" stroke="#000000" d="M308.4952,-940.9967C398.2943,-931.3064 282.5228,-784.054 349.5,-704 446.8952,-587.5893 513.7196,-574.5 665.5,-574.5"/>
<polygon fill="#000000" stroke="#000000" points="308.4873,-940.997 298.2736,-937.0057 303.4937,-941.2485 298.5,-941.5 298.5,-941.5 298.5,-941.5 303.4937,-941.2485 298.7264,-945.9943 308.4873,-940.997 308.4873,-940.997"/>
<text text-anchor="start" x="157.102" y="-925.5" font-family="Arial" font-size="10.00" fill="#000000">FOREIGN KEY (application_id) REFERENCES applications (id)</text>
</g>
<!-- artifacts -->
<g id="node4" class="node">
<title>artifacts</title>
<polygon fill="#efefef" stroke="transparent" points="1015.5,-1263.5 1015.5,-1298.5 1189.5,-1298.5 1189.5,-1263.5 1015.5,-1263.5"/>
<polygon fill="none" stroke="#000000" points="1015.5,-1263.5 1015.5,-1298.5 1189.5,-1298.5 1189.5,-1263.5 1015.5,-1263.5"/>
<text text-anchor="start" x="1022.3704" y="-1276.3" font-family="Arial Bold" font-size="18.00" fill="#000000">artifacts</text>
<text text-anchor="start" x="1085.3758" y="-1276.3" font-family="Arial" font-size="14.00" fill="#000000"> </text>
<text text-anchor="start" x="1089.2664" y="-1276.3" font-family="Arial" font-size="14.00" fill="#666666">[BASE TABLE]</text>
<polygon fill="none" stroke="#000000" points="1015.5,-1233.5 1015.5,-1263.5 1189.5,-1263.5 1189.5,-1233.5 1015.5,-1233.5"/>
<text text-anchor="start" x="1022.5" y="-1244.9" font-family="Arial" font-size="14.00" fill="#000000">id </text>
<text text-anchor="start" x="1037.2798" y="-1244.9" font-family="Arial" font-size="14.00" fill="#666666">[varchar(22)]</text>
<polygon fill="none" stroke="#000000" points="1015.5,-1203.5 1015.5,-1233.5 1189.5,-1233.5 1189.5,-1203.5 1015.5,-1203.5"/>
<text text-anchor="start" x="1022.5" y="-1214.9" font-family="Arial" font-size="14.00" fill="#000000">size </text>
<text text-anchor="start" x="1051.2798" y="-1214.9" font-family="Arial" font-size="14.00" fill="#666666">[bigint(20)]</text>
<polygon fill="none" stroke="#000000" points="1015.5,-1173.5 1015.5,-1203.5 1189.5,-1203.5 1189.5,-1173.5 1015.5,-1173.5"/>
<text text-anchor="start" x="1022.5" y="-1184.9" font-family="Arial" font-size="14.00" fill="#000000">created_at </text>
<text text-anchor="start" x="1092.528" y="-1184.9" font-family="Arial" font-size="14.00" fill="#666666">[datetime(6)]</text>
<polygon fill="none" stroke="#000000" points="1015.5,-1143.5 1015.5,-1173.5 1189.5,-1173.5 1189.5,-1143.5 1015.5,-1143.5"/>
<text text-anchor="start" x="1022.5" y="-1154.9" font-family="Arial" font-size="14.00" fill="#000000">deleted_at </text>
<text text-anchor="start" x="1091.7566" y="-1154.9" font-family="Arial" font-size="14.00" fill="#666666">[datetime(6)]</text>
<polygon fill="none" stroke="#000000" points="1015.5,-1113.5 1015.5,-1143.5 1189.5,-1143.5 1189.5,-1113.5 1015.5,-1113.5"/>
<text text-anchor="start" x="1022.5" y="-1124.9" font-family="Arial" font-size="14.00" fill="#000000">build_id </text>
<text text-anchor="start" x="1074.6234" y="-1124.9" font-family="Arial" font-size="14.00" fill="#666666">[varchar(22)]</text>
</g>
<!-- builds -->
<g id="node6" class="node">
<title>builds</title>
<polygon fill="#efefef" stroke="transparent" points="1011.5,-941.5 1011.5,-976.5 1193.5,-976.5 1193.5,-941.5 1011.5,-941.5"/>
<polygon fill="none" stroke="#000000" points="1011.5,-941.5 1011.5,-976.5 1193.5,-976.5 1193.5,-941.5 1011.5,-941.5"/>
<text text-anchor="start" x="1030.3696" y="-954.3" font-family="Arial Bold" font-size="18.00" fill="#000000">builds</text>
<text text-anchor="start" x="1077.3766" y="-954.3" font-family="Arial" font-size="14.00" fill="#000000"> </text>
<text text-anchor="start" x="1081.2672" y="-954.3" font-family="Arial" font-size="14.00" fill="#666666">[BASE TABLE]</text>
<polygon fill="none" stroke="#000000" points="1011.5,-911.5 1011.5,-941.5 1193.5,-941.5 1193.5,-911.5 1011.5,-911.5"/>
<text text-anchor="start" x="1018.5" y="-922.9" font-family="Arial" font-size="14.00" fill="#000000">id </text>
<text text-anchor="start" x="1033.2798" y="-922.9" font-family="Arial" font-size="14.00" fill="#666666">[varchar(22)]</text>
<polygon fill="none" stroke="#000000" points="1011.5,-881.5 1011.5,-911.5 1193.5,-911.5 1193.5,-881.5 1011.5,-881.5"/>
<text text-anchor="start" x="1018.5" y="-892.9" font-family="Arial" font-size="14.00" fill="#000000">commit </text>
<text text-anchor="start" x="1067.4916" y="-892.9" font-family="Arial" font-size="14.00" fill="#666666">[char(40)]</text>
<polygon fill="none" stroke="#000000" points="1011.5,-851.5 1011.5,-881.5 1193.5,-881.5 1193.5,-851.5 1011.5,-851.5"/>
<text text-anchor="start" x="1018.5" y="-862.9" font-family="Arial" font-size="14.00" fill="#000000">status </text>
<text text-anchor="start" x="1059.737" y="-862.9" font-family="Arial" font-size="14.00" fill="#666666">[varchar(10)]</text>
<polygon fill="none" stroke="#000000" points="1011.5,-821.5 1011.5,-851.5 1193.5,-851.5 1193.5,-821.5 1011.5,-821.5"/>
<text text-anchor="start" x="1018.5" y="-832.9" font-family="Arial" font-size="14.00" fill="#000000">started_at </text>
<text text-anchor="start" x="1084.636" y="-832.9" font-family="Arial" font-size="14.00" fill="#666666">[datetime(6)]</text>
<polygon fill="none" stroke="#000000" points="1011.5,-791.5 1011.5,-821.5 1193.5,-821.5 1193.5,-791.5 1011.5,-791.5"/>
<text text-anchor="start" x="1018.5" y="-802.9" font-family="Arial" font-size="14.00" fill="#000000">finished_at </text>
<text text-anchor="start" x="1090.0806" y="-802.9" font-family="Arial" font-size="14.00" fill="#666666">[datetime(6)]</text>
<polygon fill="none" stroke="#000000" points="1011.5,-761.5 1011.5,-791.5 1193.5,-791.5 1193.5,-761.5 1011.5,-761.5"/>
<text text-anchor="start" x="1018.0975" y="-772.9" font-family="Arial" font-size="14.00" fill="#000000">application_id </text>
<text text-anchor="start" x="1107.5659" y="-772.9" font-family="Arial" font-size="14.00" fill="#666666">[varchar(22)]</text>
</g>
<!-- artifacts&#45;&gt;builds -->
<g id="edge4" class="edge">
<title>artifacts:build_id&#45;&gt;builds:id</title>
<path fill="none" stroke="#000000" d="M1103.2822,-1103.484C1110.9616,-1057.5073 1173.0366,-1070.3654 1193.5,-1020 1209.1422,-981.5008 1235.0556,-926.5 1193.5,-926.5"/>
<polygon fill="#000000" stroke="#000000" points="1103.2786,-1103.5304 1098.0137,-1113.1496 1102.8893,-1108.5152 1102.5,-1113.5 1102.5,-1113.5 1102.5,-1113.5 1102.8893,-1108.5152 1106.9863,-1113.8504 1103.2786,-1103.5304 1103.2786,-1103.5304"/>
<text text-anchor="start" x="866.777" y="-1123.5" font-family="Arial" font-size="10.00" fill="#000000">FOREIGN KEY (build_id) REFERENCES builds (id)</text>
</g>
<!-- available_domains -->
<g id="node5" class="node">
<title>available_domains</title>
<polygon fill="#efefef" stroke="transparent" points="1293.5,-1233.5 1293.5,-1268.5 1553.5,-1268.5 1553.5,-1233.5 1293.5,-1233.5"/>
<polygon fill="none" stroke="#000000" points="1293.5,-1233.5 1293.5,-1268.5 1553.5,-1268.5 1553.5,-1233.5 1293.5,-1233.5"/>
<text text-anchor="start" x="1300.3576" y="-1246.3" font-family="Arial Bold" font-size="18.00" fill="#000000">available_domains</text>
<text text-anchor="start" x="1449.3886" y="-1246.3" font-family="Arial" font-size="14.00" fill="#000000"> </text>
<text text-anchor="start" x="1453.2792" y="-1246.3" font-family="Arial" font-size="14.00" fill="#666666">[BASE TABLE]</text>
<polygon fill="none" stroke="#000000" points="1293.5,-1203.5 1293.5,-1233.5 1553.5,-1233.5 1553.5,-1203.5 1293.5,-1203.5"/>
<text text-anchor="start" x="1300.5" y="-1214.9" font-family="Arial" font-size="14.00" fill="#000000">id </text>
<text text-anchor="start" x="1315.2798" y="-1214.9" font-family="Arial" font-size="14.00" fill="#666666">[varchar(22)]</text>
<polygon fill="none" stroke="#000000" points="1293.5,-1173.5 1293.5,-1203.5 1553.5,-1203.5 1553.5,-1173.5 1293.5,-1173.5"/>
<text text-anchor="start" x="1300.5" y="-1184.9" font-family="Arial" font-size="14.00" fill="#000000">domain </text>
<text text-anchor="start" x="1350.2882" y="-1184.9" font-family="Arial" font-size="14.00" fill="#666666">[varchar(100)]</text>
<polygon fill="none" stroke="#000000" points="1293.5,-1143.5 1293.5,-1173.5 1553.5,-1173.5 1553.5,-1143.5 1293.5,-1143.5"/>
<text text-anchor="start" x="1300.5" y="-1154.9" font-family="Arial" font-size="14.00" fill="#000000">subdomain </text>
<text text-anchor="start" x="1372.8534" y="-1154.9" font-family="Arial" font-size="14.00" fill="#666666">[tinyint(1)]</text>
</g>
<!-- builds&#45;&gt;applications -->
<g id="edge5" class="edge">
<title>builds:application_id&#45;&gt;applications:id</title>
<path fill="none" stroke="#000000" d="M1001.7734,-773.2684C977.8591,-757.6193 957.9426,-689.5849 945.5,-668 921.8601,-626.9903 941.8354,-574.5 894.5,-574.5"/>
<polygon fill="#000000" stroke="#000000" points="1002.0101,-773.347 1010.0811,-780.7705 1006.755,-774.9235 1011.5,-776.5 1011.5,-776.5 1011.5,-776.5 1006.755,-774.9235 1012.9189,-772.2295 1002.0101,-773.347 1002.0101,-773.347"/>
<text text-anchor="start" x="1018.102" y="-760.5" font-family="Arial" font-size="10.00" fill="#000000">FOREIGN KEY (application_id) REFERENCES applications (id)</text>
</g>
<!-- build_status -->
<g id="node7" class="node">
<title>build_status</title>
<polygon fill="#efefef" stroke="transparent" points="998.5,-454.5 998.5,-489.5 1205.5,-489.5 1205.5,-454.5 998.5,-454.5"/>
<polygon fill="none" stroke="#000000" points="998.5,-454.5 998.5,-489.5 1205.5,-489.5 1205.5,-454.5 998.5,-454.5"/>
<text text-anchor="start" x="1005.3581" y="-467.3" font-family="Arial Bold" font-size="18.00" fill="#000000">build_status</text>
<text text-anchor="start" x="1101.3881" y="-467.3" font-family="Arial" font-size="14.00" fill="#000000"> </text>
<text text-anchor="start" x="1105.2787" y="-467.3" font-family="Arial" font-size="14.00" fill="#666666">[BASE TABLE]</text>
<polygon fill="none" stroke="#000000" points="998.5,-424.5 998.5,-454.5 1205.5,-454.5 1205.5,-424.5 998.5,-424.5"/>
<text text-anchor="start" x="1005.5" y="-435.9" font-family="Arial" font-size="14.00" fill="#000000">status </text>
<text text-anchor="start" x="1046.737" y="-435.9" font-family="Arial" font-size="14.00" fill="#666666">[varchar(10)]</text>
</g>
<!-- builds&#45;&gt;build_status -->
<g id="edge6" class="edge">
<title>builds:status&#45;&gt;build_status:status</title>
<path fill="none" stroke="#000000" d="M1001.3533,-865.6815C950.4115,-856.708 987.2339,-775.8827 1011.5,-719 1058.3701,-609.1308 1158.6299,-642.8692 1205.5,-533 1221.8058,-494.7772 1247.0556,-439.5 1205.5,-439.5"/>
<polygon fill="#000000" stroke="#000000" points="1001.5324,-865.6958 1011.1381,-870.9854 1006.5162,-866.0979 1011.5,-866.5 1011.5,-866.5 1011.5,-866.5 1006.5162,-866.0979 1011.8619,-862.0146 1001.5324,-865.6958 1001.5324,-865.6958"/>
<text text-anchor="start" x="807.8485" y="-850.5" font-family="Arial" font-size="10.00" fill="#000000">FOREIGN KEY (status) REFERENCES build_status (status)</text>
</g>
<!-- environments -->
<g id="node8" class="node">
<title>environments</title>
<polygon fill="#efefef" stroke="transparent" points="402.5,-911.5 402.5,-946.5 621.5,-946.5 621.5,-911.5 402.5,-911.5"/>
<polygon fill="none" stroke="#000000" points="402.5,-911.5 402.5,-946.5 621.5,-946.5 621.5,-911.5 402.5,-911.5"/>
<text text-anchor="start" x="409.3641" y="-924.3" font-family="Arial Bold" font-size="18.00" fill="#000000">environments</text>
<text text-anchor="start" x="517.3821" y="-924.3" font-family="Arial" font-size="14.00" fill="#000000"> </text>
<text text-anchor="start" x="521.2727" y="-924.3" font-family="Arial" font-size="14.00" fill="#666666">[BASE TABLE]</text>
<polygon fill="none" stroke="#000000" points="402.5,-881.5 402.5,-911.5 621.5,-911.5 621.5,-881.5 402.5,-881.5"/>
<text text-anchor="start" x="409.5" y="-892.9" font-family="Arial" font-size="14.00" fill="#000000">id </text>
<text text-anchor="start" x="424.2798" y="-892.9" font-family="Arial" font-size="14.00" fill="#666666">[varchar(22)]</text>
<polygon fill="none" stroke="#000000" points="402.5,-851.5 402.5,-881.5 621.5,-881.5 621.5,-851.5 402.5,-851.5"/>
<text text-anchor="start" x="409.5" y="-862.9" font-family="Arial" font-size="14.00" fill="#000000">application_id </text>
<text text-anchor="start" x="498.9684" y="-862.9" font-family="Arial" font-size="14.00" fill="#666666">[varchar(22)]</text>
<polygon fill="none" stroke="#000000" points="402.5,-821.5 402.5,-851.5 621.5,-851.5 621.5,-821.5 402.5,-821.5"/>
<text text-anchor="start" x="409.5" y="-832.9" font-family="Arial" font-size="14.00" fill="#000000">key </text>
<text text-anchor="start" x="435.1732" y="-832.9" font-family="Arial" font-size="14.00" fill="#666666">[varchar(100)]</text>
<polygon fill="none" stroke="#000000" points="402.5,-791.5 402.5,-821.5 621.5,-821.5 621.5,-791.5 402.5,-791.5"/>
<text text-anchor="start" x="409.5" y="-802.9" font-family="Arial" font-size="14.00" fill="#000000">value </text>
<text text-anchor="start" x="446.845" y="-802.9" font-family="Arial" font-size="14.00" fill="#666666">[text]</text>
</g>
<!-- environments&#45;&gt;applications -->
<g id="edge7" class="edge">
<title>environments:application_id&#45;&gt;applications:id</title>
<path fill="none" stroke="#000000" d="M631.4959,-865.857C741.0559,-850.7496 537.8458,-574.5 665.5,-574.5"/>
<polygon fill="#000000" stroke="#000000" points="631.4794,-865.8579 621.2111,-862.0093 626.4897,-866.179 621.5,-866.5 621.5,-866.5 621.5,-866.5 626.4897,-866.179 621.7889,-870.9907 631.4794,-865.8579 631.4794,-865.8579"/>
<text text-anchor="start" x="628.102" y="-876.5" font-family="Arial" font-size="10.00" fill="#000000">FOREIGN KEY (application_id) REFERENCES applications (id)</text>
</g>
<!-- owners -->
<g id="node9" class="node">
<title>owners</title>
<polygon fill="#efefef" stroke="transparent" points="1300.5,-881.5 1300.5,-916.5 1469.5,-916.5 1469.5,-881.5 1300.5,-881.5"/>
<polygon fill="none" stroke="#000000" points="1300.5,-881.5 1300.5,-916.5 1469.5,-916.5 1469.5,-881.5 1300.5,-881.5"/>
<text text-anchor="start" x="1307.3706" y="-894.3" font-family="Arial Bold" font-size="18.00" fill="#000000">owners</text>
<text text-anchor="start" x="1365.3756" y="-894.3" font-family="Arial" font-size="14.00" fill="#000000"> </text>
<text text-anchor="start" x="1369.2662" y="-894.3" font-family="Arial" font-size="14.00" fill="#666666">[BASE TABLE]</text>
<polygon fill="none" stroke="#000000" points="1300.5,-851.5 1300.5,-881.5 1469.5,-881.5 1469.5,-851.5 1300.5,-851.5"/>
<text text-anchor="start" x="1307.5" y="-862.9" font-family="Arial" font-size="14.00" fill="#000000">user_id </text>
<text text-anchor="start" x="1357.2882" y="-862.9" font-family="Arial" font-size="14.00" fill="#666666">[char(36)]</text>
<polygon fill="none" stroke="#000000" points="1300.5,-821.5 1300.5,-851.5 1469.5,-851.5 1469.5,-821.5 1300.5,-821.5"/>
<text text-anchor="start" x="1307.5" y="-832.9" font-family="Arial" font-size="14.00" fill="#000000">application_id </text>
<text text-anchor="start" x="1396.9684" y="-832.9" font-family="Arial" font-size="14.00" fill="#666666">[char(36)]</text>
</g>
<!-- owners&#45;&gt;applications -->
<g id="edge8" class="edge">
<title>owners:application_id&#45;&gt;applications:id</title>
<path fill="none" stroke="#000000" d="M1290.5154,-835.562C1243.3425,-825.6755 1293.3433,-740.2491 1245.5,-704 1138.4631,-622.9021 1056.6789,-743.3195 945.5,-668 906.3109,-641.4509 941.8354,-574.5 894.5,-574.5"/>
<polygon fill="#000000" stroke="#000000" points="1290.5438,-835.5645 1300.079,-840.9803 1295.5219,-836.0323 1300.5,-836.5 1300.5,-836.5 1300.5,-836.5 1295.5219,-836.0323 1300.921,-832.0197 1290.5438,-835.5645 1290.5438,-835.5645"/>
<text text-anchor="start" x="1307.102" y="-846.5" font-family="Arial" font-size="10.00" fill="#000000">FOREIGN KEY (application_id) REFERENCES applications (id)</text>
</g>
<!-- users -->
<g id="node11" class="node">
<title>users</title>
<polygon fill="#efefef" stroke="transparent" points="1309.5,-469.5 1309.5,-504.5 1464.5,-504.5 1464.5,-469.5 1309.5,-469.5"/>
<polygon fill="none" stroke="#000000" points="1309.5,-469.5 1309.5,-504.5 1464.5,-504.5 1464.5,-469.5 1309.5,-469.5"/>
<text text-anchor="start" x="1316.3708" y="-482.3" font-family="Arial Bold" font-size="18.00" fill="#000000">users</text>
<text text-anchor="start" x="1360.3754" y="-482.3" font-family="Arial" font-size="14.00" fill="#000000"> </text>
<text text-anchor="start" x="1364.266" y="-482.3" font-family="Arial" font-size="14.00" fill="#666666">[BASE TABLE]</text>
<polygon fill="none" stroke="#000000" points="1309.5,-439.5 1309.5,-469.5 1464.5,-469.5 1464.5,-439.5 1309.5,-439.5"/>
<text text-anchor="start" x="1316.5" y="-450.9" font-family="Arial" font-size="14.00" fill="#000000">id </text>
<text text-anchor="start" x="1331.2798" y="-450.9" font-family="Arial" font-size="14.00" fill="#666666">[char(36)]</text>
<polygon fill="none" stroke="#000000" points="1309.5,-409.5 1309.5,-439.5 1464.5,-439.5 1464.5,-409.5 1309.5,-409.5"/>
<text text-anchor="start" x="1316.5" y="-420.9" font-family="Arial" font-size="14.00" fill="#000000">name </text>
<text text-anchor="start" x="1355.399" y="-420.9" font-family="Arial" font-size="14.00" fill="#666666">[varchar(255)]</text>
</g>
<!-- owners&#45;&gt;users -->
<g id="edge9" class="edge">
<title>owners:user_id&#45;&gt;users:id</title>
<path fill="none" stroke="#000000" d="M1479.67,-866.0797C1645.6757,-851.3528 1116.7104,-454.5 1309.5,-454.5"/>
<polygon fill="#000000" stroke="#000000" points="1479.4915,-866.087 1469.3142,-862.0038 1474.4957,-866.2935 1469.5,-866.5 1469.5,-866.5 1469.5,-866.5 1474.4957,-866.2935 1469.6858,-870.9962 1479.4915,-866.087 1479.4915,-866.087"/>
<text text-anchor="start" x="1476.445" y="-876.5" font-family="Arial" font-size="10.00" fill="#000000">FOREIGN KEY (user_id) REFERENCES users (id)</text>
</g>
<!-- websites -->
<g id="node12" class="node">
<title>websites</title>
<polygon fill="#efefef" stroke="transparent" points="725.5,-941.5 725.5,-976.5 907.5,-976.5 907.5,-941.5 725.5,-941.5"/>
<polygon fill="none" stroke="#000000" points="725.5,-941.5 725.5,-976.5 907.5,-976.5 907.5,-941.5 725.5,-941.5"/>
<text text-anchor="start" x="732.8685" y="-954.3" font-family="Arial Bold" font-size="18.00" fill="#000000">websites</text>
<text text-anchor="start" x="802.8777" y="-954.3" font-family="Arial" font-size="14.00" fill="#000000"> </text>
<text text-anchor="start" x="806.7683" y="-954.3" font-family="Arial" font-size="14.00" fill="#666666">[BASE TABLE]</text>
<polygon fill="none" stroke="#000000" points="725.5,-911.5 725.5,-941.5 907.5,-941.5 907.5,-911.5 725.5,-911.5"/>
<text text-anchor="start" x="732.5" y="-922.9" font-family="Arial" font-size="14.00" fill="#000000">id </text>
<text text-anchor="start" x="747.2798" y="-922.9" font-family="Arial" font-size="14.00" fill="#666666">[varchar(22)]</text>
<polygon fill="none" stroke="#000000" points="725.5,-881.5 725.5,-911.5 907.5,-911.5 907.5,-881.5 725.5,-881.5"/>
<text text-anchor="start" x="732.5" y="-892.9" font-family="Arial" font-size="14.00" fill="#000000">fqdn </text>
<text text-anchor="start" x="763.629" y="-892.9" font-family="Arial" font-size="14.00" fill="#666666">[varchar(50)]</text>
<polygon fill="none" stroke="#000000" points="725.5,-851.5 725.5,-881.5 907.5,-881.5 907.5,-851.5 725.5,-851.5"/>
<text text-anchor="start" x="732.5" y="-862.9" font-family="Arial" font-size="14.00" fill="#000000">http_port </text>
<text text-anchor="start" x="791.636" y="-862.9" font-family="Arial" font-size="14.00" fill="#666666">[int(11)]</text>
<polygon fill="none" stroke="#000000" points="725.5,-821.5 725.5,-851.5 907.5,-851.5 907.5,-821.5 725.5,-821.5"/>
<text text-anchor="start" x="732.5" y="-832.9" font-family="Arial" font-size="14.00" fill="#000000">created_at </text>
<text text-anchor="start" x="802.528" y="-832.9" font-family="Arial" font-size="14.00" fill="#666666">[datetime(6)]</text>
<polygon fill="none" stroke="#000000" points="725.5,-791.5 725.5,-821.5 907.5,-821.5 907.5,-791.5 725.5,-791.5"/>
<text text-anchor="start" x="732.5" y="-802.9" font-family="Arial" font-size="14.00" fill="#000000">updated_at </text>
<text text-anchor="start" x="806.4326" y="-802.9" font-family="Arial" font-size="14.00" fill="#666666">[datetime(6)]</text>
<polygon fill="none" stroke="#000000" points="725.5,-761.5 725.5,-791.5 907.5,-791.5 907.5,-761.5 725.5,-761.5"/>
<text text-anchor="start" x="732.0975" y="-772.9" font-family="Arial" font-size="14.00" fill="#000000">application_id </text>
<text text-anchor="start" x="821.5659" y="-772.9" font-family="Arial" font-size="14.00" fill="#666666">[varchar(22)]</text>
</g>
<!-- websites&#45;&gt;applications -->
<g id="edge10" class="edge">
<title>websites:application_id&#45;&gt;applications:id</title>
<path fill="none" stroke="#000000" d="M817.3029,-751.2808C824.4513,-708.6634 877.3241,-715.4017 894.5,-668 908.6568,-628.9302 936.0556,-574.5 894.5,-574.5"/>
<polygon fill="#000000" stroke="#000000" points="817.2833,-751.5307 812.0138,-761.1475 816.8917,-756.5154 816.5,-761.5 816.5,-761.5 816.5,-761.5 816.8917,-756.5154 820.9862,-761.8525 817.2833,-751.5307 817.2833,-751.5307"/>
<text text-anchor="start" x="527.102" y="-745.5" font-family="Arial" font-size="10.00" fill="#000000">FOREIGN KEY (application_id) REFERENCES applications (id)</text>
</g>
</g>
</svg>
