<?xml version="1.0" encoding="UTF-8" standalone="no"?>
<!DOCTYPE svg PUBLIC "-//W3C//DTD SVG 1.1//EN"
 "http://www.w3.org/Graphics/SVG/1.1/DTD/svg11.dtd">
<!-- Generated by graphviz version 2.40.1 (20161225.0304)
 -->
<!-- Title: neoshowcase Pages: 1 -->
<svg width="1482pt" height="1200pt"
 viewBox="0.00 0.00 1482.00 1200.00" xmlns="http://www.w3.org/2000/svg" xmlns:xlink="http://www.w3.org/1999/xlink">
<g id="graph0" class="graph" transform="scale(1 1) rotate(0) translate(4 1196)">
<title>neoshowcase</title>
<polygon fill="#ffffff" stroke="transparent" points="-4,4 -4,-1196 1478,-1196 1478,4 -4,4"/>
<!-- applications -->
<g id="node1" class="node">
<title>applications</title>
<polygon fill="#efefef" stroke="transparent" points="720,-469.5 720,-504.5 940,-504.5 940,-469.5 720,-469.5"/>
<polygon fill="none" stroke="#000000" points="720,-469.5 720,-504.5 940,-504.5 940,-469.5 720,-469.5"/>
<text text-anchor="start" x="733.8621" y="-482.3" font-family="Arial Bold" font-size="18.00" fill="#000000">applications</text>
<text text-anchor="start" x="828.8841" y="-482.3" font-family="Arial" font-size="14.00" fill="#000000"> </text>
<text text-anchor="start" x="832.7747" y="-482.3" font-family="Arial" font-size="14.00" fill="#666666">[BASE TABLE]</text>
<polygon fill="none" stroke="#000000" points="720,-439.5 720,-469.5 940,-469.5 940,-439.5 720,-439.5"/>
<text text-anchor="start" x="727" y="-450.9" font-family="Arial" font-size="14.00" fill="#000000">id </text>
<text text-anchor="start" x="741.7798" y="-450.9" font-family="Arial" font-size="14.00" fill="#666666">[varchar(22)]</text>
<polygon fill="none" stroke="#000000" points="720,-409.5 720,-439.5 940,-439.5 940,-409.5 720,-409.5"/>
<text text-anchor="start" x="727" y="-420.9" font-family="Arial" font-size="14.00" fill="#000000">repository_id </text>
<text text-anchor="start" x="811.0112" y="-420.9" font-family="Arial" font-size="14.00" fill="#666666">[varchar(22)]</text>
<polygon fill="none" stroke="#000000" points="720,-379.5 720,-409.5 940,-409.5 940,-379.5 720,-379.5"/>
<text text-anchor="start" x="727" y="-390.9" font-family="Arial" font-size="14.00" fill="#000000">branch_name </text>
<text text-anchor="start" x="816.4726" y="-390.9" font-family="Arial" font-size="14.00" fill="#666666">[varchar(100)]</text>
<polygon fill="none" stroke="#000000" points="720,-349.5 720,-379.5 940,-379.5 940,-349.5 720,-349.5"/>
<text text-anchor="start" x="726.5764" y="-360.9" font-family="Arial" font-size="14.00" fill="#000000">build_type </text>
<text text-anchor="start" x="794.2664" y="-360.9" font-family="Arial" font-size="14.00" fill="#666666">[enum(&#39;image&#39;,&#39;static&#39;)]</text>
<polygon fill="none" stroke="#000000" points="720,-319.5 720,-349.5 940,-349.5 940,-319.5 720,-319.5"/>
<text text-anchor="start" x="727" y="-330.9" font-family="Arial" font-size="14.00" fill="#000000">created_at </text>
<text text-anchor="start" x="797.028" y="-330.9" font-family="Arial" font-size="14.00" fill="#666666">[datetime(6)]</text>
<polygon fill="none" stroke="#000000" points="720,-289.5 720,-319.5 940,-319.5 940,-289.5 720,-289.5"/>
<text text-anchor="start" x="727" y="-300.9" font-family="Arial" font-size="14.00" fill="#000000">updated_at </text>
<text text-anchor="start" x="800.9326" y="-300.9" font-family="Arial" font-size="14.00" fill="#666666">[datetime(6)]</text>
</g>
<!-- repositories -->
<g id="node8" class="node">
<title>repositories</title>
<polygon fill="#efefef" stroke="transparent" points="728,-132.5 728,-167.5 932,-167.5 932,-132.5 728,-132.5"/>
<polygon fill="none" stroke="#000000" points="728,-132.5 728,-167.5 932,-167.5 932,-132.5 728,-132.5"/>
<text text-anchor="start" x="734.8701" y="-145.3" font-family="Arial Bold" font-size="18.00" fill="#000000">repositories</text>
<text text-anchor="start" x="827.8761" y="-145.3" font-family="Arial" font-size="14.00" fill="#000000"> </text>
<text text-anchor="start" x="831.7667" y="-145.3" font-family="Arial" font-size="14.00" fill="#666666">[BASE TABLE]</text>
<polygon fill="none" stroke="#000000" points="728,-102.5 728,-132.5 932,-132.5 932,-102.5 728,-102.5"/>
<text text-anchor="start" x="735" y="-113.9" font-family="Arial" font-size="14.00" fill="#000000">id </text>
<text text-anchor="start" x="749.7798" y="-113.9" font-family="Arial" font-size="14.00" fill="#666666">[varchar(22)]</text>
<polygon fill="none" stroke="#000000" points="728,-72.5 728,-102.5 932,-102.5 932,-72.5 728,-72.5"/>
<text text-anchor="start" x="735" y="-83.9" font-family="Arial" font-size="14.00" fill="#000000">name </text>
<text text-anchor="start" x="773.899" y="-83.9" font-family="Arial" font-size="14.00" fill="#666666">[varchar(256)]</text>
<polygon fill="none" stroke="#000000" points="728,-42.5 728,-72.5 932,-72.5 932,-42.5 728,-42.5"/>
<text text-anchor="start" x="735" y="-53.9" font-family="Arial" font-size="14.00" fill="#000000">url </text>
<text text-anchor="start" x="754.4404" y="-53.9" font-family="Arial" font-size="14.00" fill="#666666">[varchar(256)]</text>
</g>
<!-- applications&#45;&gt;repositories -->
<g id="edge1" class="edge">
<title>applications:repository_id&#45;&gt;repositories:id</title>
<path fill="none" stroke="#000000" d="M950.1176,-423.9163C1076.0017,-409.1081 1065.0252,-117.5 932,-117.5"/>
<polygon fill="#000000" stroke="#000000" points="949.9834,-423.9239 939.7408,-420.0075 944.9917,-424.212 940,-424.5 940,-424.5 940,-424.5 944.9917,-424.212 940.2592,-428.9925 949.9834,-423.9239 949.9834,-423.9239"/>
<text text-anchor="start" x="947.111" y="-434.5" font-family="Arial" font-size="10.00" fill="#000000">FOREIGN KEY (repository_id) REFERENCES repositories (id)</text>
</g>
<!-- artifacts -->
<g id="node2" class="node">
<title>artifacts</title>
<polygon fill="#efefef" stroke="transparent" points="285,-1113.5 285,-1148.5 459,-1148.5 459,-1113.5 285,-1113.5"/>
<polygon fill="none" stroke="#000000" points="285,-1113.5 285,-1148.5 459,-1148.5 459,-1113.5 285,-1113.5"/>
<text text-anchor="start" x="291.8704" y="-1126.3" font-family="Arial Bold" font-size="18.00" fill="#000000">artifacts</text>
<text text-anchor="start" x="354.8758" y="-1126.3" font-family="Arial" font-size="14.00" fill="#000000"> </text>
<text text-anchor="start" x="358.7664" y="-1126.3" font-family="Arial" font-size="14.00" fill="#666666">[BASE TABLE]</text>
<polygon fill="none" stroke="#000000" points="285,-1083.5 285,-1113.5 459,-1113.5 459,-1083.5 285,-1083.5"/>
<text text-anchor="start" x="292" y="-1094.9" font-family="Arial" font-size="14.00" fill="#000000">id </text>
<text text-anchor="start" x="306.7798" y="-1094.9" font-family="Arial" font-size="14.00" fill="#666666">[varchar(22)]</text>
<polygon fill="none" stroke="#000000" points="285,-1053.5 285,-1083.5 459,-1083.5 459,-1053.5 285,-1053.5"/>
<text text-anchor="start" x="292" y="-1064.9" font-family="Arial" font-size="14.00" fill="#000000">size </text>
<text text-anchor="start" x="320.7798" y="-1064.9" font-family="Arial" font-size="14.00" fill="#666666">[bigint(20)]</text>
<polygon fill="none" stroke="#000000" points="285,-1023.5 285,-1053.5 459,-1053.5 459,-1023.5 285,-1023.5"/>
<text text-anchor="start" x="292" y="-1034.9" font-family="Arial" font-size="14.00" fill="#000000">created_at </text>
<text text-anchor="start" x="362.028" y="-1034.9" font-family="Arial" font-size="14.00" fill="#666666">[datetime(6)]</text>
<polygon fill="none" stroke="#000000" points="285,-993.5 285,-1023.5 459,-1023.5 459,-993.5 285,-993.5"/>
<text text-anchor="start" x="292" y="-1004.9" font-family="Arial" font-size="14.00" fill="#000000">deleted_at </text>
<text text-anchor="start" x="361.2566" y="-1004.9" font-family="Arial" font-size="14.00" fill="#666666">[datetime(6)]</text>
<polygon fill="none" stroke="#000000" points="285,-963.5 285,-993.5 459,-993.5 459,-963.5 285,-963.5"/>
<text text-anchor="start" x="292" y="-974.9" font-family="Arial" font-size="14.00" fill="#000000">build_id </text>
<text text-anchor="start" x="344.1234" y="-974.9" font-family="Arial" font-size="14.00" fill="#666666">[varchar(22)]</text>
</g>
<!-- builds -->
<g id="node4" class="node">
<title>builds</title>
<polygon fill="#efefef" stroke="transparent" points="281,-791.5 281,-826.5 463,-826.5 463,-791.5 281,-791.5"/>
<polygon fill="none" stroke="#000000" points="281,-791.5 281,-826.5 463,-826.5 463,-791.5 281,-791.5"/>
<text text-anchor="start" x="299.8696" y="-804.3" font-family="Arial Bold" font-size="18.00" fill="#000000">builds</text>
<text text-anchor="start" x="346.8766" y="-804.3" font-family="Arial" font-size="14.00" fill="#000000"> </text>
<text text-anchor="start" x="350.7672" y="-804.3" font-family="Arial" font-size="14.00" fill="#666666">[BASE TABLE]</text>
<polygon fill="none" stroke="#000000" points="281,-761.5 281,-791.5 463,-791.5 463,-761.5 281,-761.5"/>
<text text-anchor="start" x="288" y="-772.9" font-family="Arial" font-size="14.00" fill="#000000">id </text>
<text text-anchor="start" x="302.7798" y="-772.9" font-family="Arial" font-size="14.00" fill="#666666">[varchar(22)]</text>
<polygon fill="none" stroke="#000000" points="281,-731.5 281,-761.5 463,-761.5 463,-731.5 281,-731.5"/>
<text text-anchor="start" x="288" y="-742.9" font-family="Arial" font-size="14.00" fill="#000000">status </text>
<text text-anchor="start" x="329.237" y="-742.9" font-family="Arial" font-size="14.00" fill="#666666">[varchar(10)]</text>
<polygon fill="none" stroke="#000000" points="281,-701.5 281,-731.5 463,-731.5 463,-701.5 281,-701.5"/>
<text text-anchor="start" x="288" y="-712.9" font-family="Arial" font-size="14.00" fill="#000000">started_at </text>
<text text-anchor="start" x="354.136" y="-712.9" font-family="Arial" font-size="14.00" fill="#666666">[datetime(6)]</text>
<polygon fill="none" stroke="#000000" points="281,-671.5 281,-701.5 463,-701.5 463,-671.5 281,-671.5"/>
<text text-anchor="start" x="288" y="-682.9" font-family="Arial" font-size="14.00" fill="#000000">finished_at </text>
<text text-anchor="start" x="359.5806" y="-682.9" font-family="Arial" font-size="14.00" fill="#666666">[datetime(6)]</text>
<polygon fill="none" stroke="#000000" points="281,-641.5 281,-671.5 463,-671.5 463,-641.5 281,-641.5"/>
<text text-anchor="start" x="287.5975" y="-652.9" font-family="Arial" font-size="14.00" fill="#000000">application_id </text>
<text text-anchor="start" x="377.0659" y="-652.9" font-family="Arial" font-size="14.00" fill="#666666">[varchar(22)]</text>
</g>
<!-- artifacts&#45;&gt;builds -->
<g id="edge2" class="edge">
<title>artifacts:build_id&#45;&gt;builds:id</title>
<path fill="none" stroke="#000000" d="M372.7822,-953.484C380.4616,-907.5073 442.5366,-920.3654 463,-870 478.6422,-831.5008 504.5556,-776.5 463,-776.5"/>
<polygon fill="#000000" stroke="#000000" points="372.7786,-953.5304 367.5137,-963.1496 372.3893,-958.5152 372,-963.5 372,-963.5 372,-963.5 372.3893,-958.5152 376.4863,-963.8504 372.7786,-953.5304 372.7786,-953.5304"/>
<text text-anchor="start" x="136.277" y="-973.5" font-family="Arial" font-size="10.00" fill="#000000">FOREIGN KEY (build_id) REFERENCES builds (id)</text>
</g>
<!-- available_domains -->
<g id="node3" class="node">
<title>available_domains</title>
<polygon fill="#efefef" stroke="transparent" points="563,-1083.5 563,-1118.5 823,-1118.5 823,-1083.5 563,-1083.5"/>
<polygon fill="none" stroke="#000000" points="563,-1083.5 563,-1118.5 823,-1118.5 823,-1083.5 563,-1083.5"/>
<text text-anchor="start" x="569.8576" y="-1096.3" font-family="Arial Bold" font-size="18.00" fill="#000000">available_domains</text>
<text text-anchor="start" x="718.8886" y="-1096.3" font-family="Arial" font-size="14.00" fill="#000000"> </text>
<text text-anchor="start" x="722.7792" y="-1096.3" font-family="Arial" font-size="14.00" fill="#666666">[BASE TABLE]</text>
<polygon fill="none" stroke="#000000" points="563,-1053.5 563,-1083.5 823,-1083.5 823,-1053.5 563,-1053.5"/>
<text text-anchor="start" x="570" y="-1064.9" font-family="Arial" font-size="14.00" fill="#000000">id </text>
<text text-anchor="start" x="584.7798" y="-1064.9" font-family="Arial" font-size="14.00" fill="#666666">[varchar(22)]</text>
<polygon fill="none" stroke="#000000" points="563,-1023.5 563,-1053.5 823,-1053.5 823,-1023.5 563,-1023.5"/>
<text text-anchor="start" x="570" y="-1034.9" font-family="Arial" font-size="14.00" fill="#000000">domain </text>
<text text-anchor="start" x="619.7882" y="-1034.9" font-family="Arial" font-size="14.00" fill="#666666">[varchar(100)]</text>
<polygon fill="none" stroke="#000000" points="563,-993.5 563,-1023.5 823,-1023.5 823,-993.5 563,-993.5"/>
<text text-anchor="start" x="570" y="-1004.9" font-family="Arial" font-size="14.00" fill="#000000">subdomain </text>
<text text-anchor="start" x="642.3534" y="-1004.9" font-family="Arial" font-size="14.00" fill="#666666">[tinyint(1)]</text>
</g>
<!-- builds&#45;&gt;applications -->
<g id="edge3" class="edge">
<title>builds:application_id&#45;&gt;applications:id</title>
<path fill="none" stroke="#000000" d="M473.1051,-655.2631C499.8624,-647.8255 488.9662,-608.5464 515,-584 593.4102,-510.0696 612.2323,-454.5 720,-454.5"/>
<polygon fill="#000000" stroke="#000000" points="472.9259,-655.2849 462.4532,-652.0333 467.963,-655.8925 463,-656.5 463,-656.5 463,-656.5 467.963,-655.8925 463.5468,-660.9667 472.9259,-655.2849 472.9259,-655.2849"/>
<text text-anchor="start" x="173.602" y="-666.5" font-family="Arial" font-size="10.00" fill="#000000">FOREIGN KEY (application_id) REFERENCES applications (id)</text>
</g>
<!-- build_status -->
<g id="node5" class="node">
<title>build_status</title>
<polygon fill="#efefef" stroke="transparent" points="268,-394.5 268,-429.5 475,-429.5 475,-394.5 268,-394.5"/>
<polygon fill="none" stroke="#000000" points="268,-394.5 268,-429.5 475,-429.5 475,-394.5 268,-394.5"/>
<text text-anchor="start" x="274.8581" y="-407.3" font-family="Arial Bold" font-size="18.00" fill="#000000">build_status</text>
<text text-anchor="start" x="370.8881" y="-407.3" font-family="Arial" font-size="14.00" fill="#000000"> </text>
<text text-anchor="start" x="374.7787" y="-407.3" font-family="Arial" font-size="14.00" fill="#666666">[BASE TABLE]</text>
<polygon fill="none" stroke="#000000" points="268,-364.5 268,-394.5 475,-394.5 475,-364.5 268,-364.5"/>
<text text-anchor="start" x="275" y="-375.9" font-family="Arial" font-size="14.00" fill="#000000">status </text>
<text text-anchor="start" x="316.237" y="-375.9" font-family="Arial" font-size="14.00" fill="#666666">[varchar(10)]</text>
</g>
<!-- builds&#45;&gt;build_status -->
<g id="edge4" class="edge">
<title>builds:status&#45;&gt;build_status:status</title>
<path fill="none" stroke="#000000" d="M270.8028,-745.6571C219.3177,-736.4209 251.4928,-653.349 281,-599 330.0551,-508.6459 425.9449,-563.3541 475,-473 494.8276,-436.4797 516.5556,-379.5 475,-379.5"/>
<polygon fill="#000000" stroke="#000000" points="271.034,-745.6761 280.6292,-750.9847 276.017,-746.088 281,-746.5 281,-746.5 281,-746.5 276.017,-746.088 281.3708,-742.0153 271.034,-745.6761 271.034,-745.6761"/>
<text text-anchor="start" x="7.0985" y="-756.5" font-family="Arial" font-size="10.00" fill="#000000">FOREIGN KEY (status) REFERENCES build_status (status)</text>
</g>
<!-- environments -->
<g id="node6" class="node">
<title>environments</title>
<polygon fill="#efefef" stroke="transparent" points="568,-776.5 568,-811.5 787,-811.5 787,-776.5 568,-776.5"/>
<polygon fill="none" stroke="#000000" points="568,-776.5 568,-811.5 787,-811.5 787,-776.5 568,-776.5"/>
<text text-anchor="start" x="574.8641" y="-789.3" font-family="Arial Bold" font-size="18.00" fill="#000000">environments</text>
<text text-anchor="start" x="682.8821" y="-789.3" font-family="Arial" font-size="14.00" fill="#000000"> </text>
<text text-anchor="start" x="686.7727" y="-789.3" font-family="Arial" font-size="14.00" fill="#666666">[BASE TABLE]</text>
<polygon fill="none" stroke="#000000" points="568,-746.5 568,-776.5 787,-776.5 787,-746.5 568,-746.5"/>
<text text-anchor="start" x="575" y="-757.9" font-family="Arial" font-size="14.00" fill="#000000">id </text>
<text text-anchor="start" x="589.7798" y="-757.9" font-family="Arial" font-size="14.00" fill="#666666">[varchar(22)]</text>
<polygon fill="none" stroke="#000000" points="568,-716.5 568,-746.5 787,-746.5 787,-716.5 568,-716.5"/>
<text text-anchor="start" x="575" y="-727.9" font-family="Arial" font-size="14.00" fill="#000000">application_id </text>
<text text-anchor="start" x="664.4684" y="-727.9" font-family="Arial" font-size="14.00" fill="#666666">[varchar(22)]</text>
<polygon fill="none" stroke="#000000" points="568,-686.5 568,-716.5 787,-716.5 787,-686.5 568,-686.5"/>
<text text-anchor="start" x="575" y="-697.9" font-family="Arial" font-size="14.00" fill="#000000">key </text>
<text text-anchor="start" x="600.6732" y="-697.9" font-family="Arial" font-size="14.00" fill="#666666">[varchar(100)]</text>
<polygon fill="none" stroke="#000000" points="568,-656.5 568,-686.5 787,-686.5 787,-656.5 568,-656.5"/>
<text text-anchor="start" x="575" y="-667.9" font-family="Arial" font-size="14.00" fill="#000000">value </text>
<text text-anchor="start" x="612.345" y="-667.9" font-family="Arial" font-size="14.00" fill="#666666">[text]</text>
</g>
<!-- environments&#45;&gt;applications -->
<g id="edge5" class="edge">
<title>environments:application_id&#45;&gt;applications:id</title>
<path fill="none" stroke="#000000" d="M797.2742,-730.3913C834.5293,-721.3256 805.6691,-658.5963 787,-614 770.8591,-575.4431 736.1409,-586.5569 720,-548 703.9532,-509.6677 678.4444,-454.5 720,-454.5"/>
<polygon fill="#000000" stroke="#000000" points="796.9423,-730.4271 786.5172,-727.026 791.9711,-730.9635 787,-731.5 787,-731.5 787,-731.5 791.9711,-730.9635 787.4828,-735.974 796.9423,-730.4271 796.9423,-730.4271"/>
<text text-anchor="start" x="497.602" y="-741.5" font-family="Arial" font-size="10.00" fill="#000000">FOREIGN KEY (application_id) REFERENCES applications (id)</text>
</g>
<!-- owners -->
<g id="node7" class="node">
<title>owners</title>
<polygon fill="#efefef" stroke="transparent" points="1178,-746.5 1178,-781.5 1347,-781.5 1347,-746.5 1178,-746.5"/>
<polygon fill="none" stroke="#000000" points="1178,-746.5 1178,-781.5 1347,-781.5 1347,-746.5 1178,-746.5"/>
<text text-anchor="start" x="1184.8706" y="-759.3" font-family="Arial Bold" font-size="18.00" fill="#000000">owners</text>
<text text-anchor="start" x="1242.8756" y="-759.3" font-family="Arial" font-size="14.00" fill="#000000"> </text>
<text text-anchor="start" x="1246.7662" y="-759.3" font-family="Arial" font-size="14.00" fill="#666666">[BASE TABLE]</text>
<polygon fill="none" stroke="#000000" points="1178,-716.5 1178,-746.5 1347,-746.5 1347,-716.5 1178,-716.5"/>
<text text-anchor="start" x="1185" y="-727.9" font-family="Arial" font-size="14.00" fill="#000000">user_id </text>
<text text-anchor="start" x="1234.7882" y="-727.9" font-family="Arial" font-size="14.00" fill="#666666">[char(36)]</text>
<polygon fill="none" stroke="#000000" points="1178,-686.5 1178,-716.5 1347,-716.5 1347,-686.5 1178,-686.5"/>
<text text-anchor="start" x="1185" y="-697.9" font-family="Arial" font-size="14.00" fill="#000000">application_id </text>
<text text-anchor="start" x="1274.4684" y="-697.9" font-family="Arial" font-size="14.00" fill="#666666">[char(36)]</text>
</g>
<!-- owners&#45;&gt;applications -->
<g id="edge6" class="edge">
<title>owners:application_id&#45;&gt;applications:id</title>
<path fill="none" stroke="#000000" d="M1167.8337,-700.5592C1125.7938,-691.8825 1159.1234,-625.1849 1125,-584 1060.9666,-506.7157 1040.365,-454.5 940,-454.5"/>
<polygon fill="#000000" stroke="#000000" points="1168.0425,-700.5784 1177.5853,-705.9809 1173.0213,-701.0392 1178,-701.5 1178,-701.5 1178,-701.5 1173.0213,-701.0392 1178.4147,-697.0191 1168.0425,-700.5784 1168.0425,-700.5784"/>
<text text-anchor="start" x="1184.602" y="-711.5" font-family="Arial" font-size="10.00" fill="#000000">FOREIGN KEY (application_id) REFERENCES applications (id)</text>
</g>
<!-- users -->
<g id="node9" class="node">
<title>users</title>
<polygon fill="#efefef" stroke="transparent" points="1185,-409.5 1185,-444.5 1340,-444.5 1340,-409.5 1185,-409.5"/>
<polygon fill="none" stroke="#000000" points="1185,-409.5 1185,-444.5 1340,-444.5 1340,-409.5 1185,-409.5"/>
<text text-anchor="start" x="1191.8708" y="-422.3" font-family="Arial Bold" font-size="18.00" fill="#000000">users</text>
<text text-anchor="start" x="1235.8754" y="-422.3" font-family="Arial" font-size="14.00" fill="#000000"> </text>
<text text-anchor="start" x="1239.766" y="-422.3" font-family="Arial" font-size="14.00" fill="#666666">[BASE TABLE]</text>
<polygon fill="none" stroke="#000000" points="1185,-379.5 1185,-409.5 1340,-409.5 1340,-379.5 1185,-379.5"/>
<text text-anchor="start" x="1192" y="-390.9" font-family="Arial" font-size="14.00" fill="#000000">id </text>
<text text-anchor="start" x="1206.7798" y="-390.9" font-family="Arial" font-size="14.00" fill="#666666">[char(36)]</text>
<polygon fill="none" stroke="#000000" points="1185,-349.5 1185,-379.5 1340,-379.5 1340,-349.5 1185,-349.5"/>
<text text-anchor="start" x="1192" y="-360.9" font-family="Arial" font-size="14.00" fill="#000000">name </text>
<text text-anchor="start" x="1230.899" y="-360.9" font-family="Arial" font-size="14.00" fill="#666666">[varchar(255)]</text>
</g>
<!-- owners&#45;&gt;users -->
<g id="edge7" class="edge">
<title>owners:user_id&#45;&gt;users:id</title>
<path fill="none" stroke="#000000" d="M1168.0049,-729.348C1103.9004,-700.6467 1113.6061,-394.5 1185,-394.5"/>
<polygon fill="#000000" stroke="#000000" points="1168.224,-729.3951 1177.0528,-735.8992 1173.112,-730.4475 1178,-731.5 1178,-731.5 1178,-731.5 1173.112,-730.4475 1178.9472,-727.1008 1168.224,-729.3951 1168.224,-729.3951"/>
<text text-anchor="start" x="1184.945" y="-741.5" font-family="Arial" font-size="10.00" fill="#000000">FOREIGN KEY (user_id) REFERENCES users (id)</text>
</g>
<!-- websites -->
<g id="node10" class="node">
<title>websites</title>
<polygon fill="#efefef" stroke="transparent" points="891,-806.5 891,-841.5 1073,-841.5 1073,-806.5 891,-806.5"/>
<polygon fill="none" stroke="#000000" points="891,-806.5 891,-841.5 1073,-841.5 1073,-806.5 891,-806.5"/>
<text text-anchor="start" x="898.3685" y="-819.3" font-family="Arial Bold" font-size="18.00" fill="#000000">websites</text>
<text text-anchor="start" x="968.3777" y="-819.3" font-family="Arial" font-size="14.00" fill="#000000"> </text>
<text text-anchor="start" x="972.2683" y="-819.3" font-family="Arial" font-size="14.00" fill="#666666">[BASE TABLE]</text>
<polygon fill="none" stroke="#000000" points="891,-776.5 891,-806.5 1073,-806.5 1073,-776.5 891,-776.5"/>
<text text-anchor="start" x="898" y="-787.9" font-family="Arial" font-size="14.00" fill="#000000">id </text>
<text text-anchor="start" x="912.7798" y="-787.9" font-family="Arial" font-size="14.00" fill="#666666">[varchar(22)]</text>
<polygon fill="none" stroke="#000000" points="891,-746.5 891,-776.5 1073,-776.5 1073,-746.5 891,-746.5"/>
<text text-anchor="start" x="898" y="-757.9" font-family="Arial" font-size="14.00" fill="#000000">fqdn </text>
<text text-anchor="start" x="929.129" y="-757.9" font-family="Arial" font-size="14.00" fill="#666666">[varchar(50)]</text>
<polygon fill="none" stroke="#000000" points="891,-716.5 891,-746.5 1073,-746.5 1073,-716.5 891,-716.5"/>
<text text-anchor="start" x="898" y="-727.9" font-family="Arial" font-size="14.00" fill="#000000">http_port </text>
<text text-anchor="start" x="957.136" y="-727.9" font-family="Arial" font-size="14.00" fill="#666666">[int(11)]</text>
<polygon fill="none" stroke="#000000" points="891,-686.5 891,-716.5 1073,-716.5 1073,-686.5 891,-686.5"/>
<text text-anchor="start" x="898" y="-697.9" font-family="Arial" font-size="14.00" fill="#000000">created_at </text>
<text text-anchor="start" x="968.028" y="-697.9" font-family="Arial" font-size="14.00" fill="#666666">[datetime(6)]</text>
<polygon fill="none" stroke="#000000" points="891,-656.5 891,-686.5 1073,-686.5 1073,-656.5 891,-656.5"/>
<text text-anchor="start" x="898" y="-667.9" font-family="Arial" font-size="14.00" fill="#000000">updated_at </text>
<text text-anchor="start" x="971.9326" y="-667.9" font-family="Arial" font-size="14.00" fill="#666666">[datetime(6)]</text>
<polygon fill="none" stroke="#000000" points="891,-626.5 891,-656.5 1073,-656.5 1073,-626.5 891,-626.5"/>
<text text-anchor="start" x="897.5975" y="-637.9" font-family="Arial" font-size="14.00" fill="#000000">application_id </text>
<text text-anchor="start" x="987.0659" y="-637.9" font-family="Arial" font-size="14.00" fill="#666666">[varchar(22)]</text>
</g>
<!-- websites&#45;&gt;applications -->
<g id="edge8" class="edge">
<title>websites:application_id&#45;&gt;applications:id</title>
<path fill="none" stroke="#000000" d="M881.1162,-638.6615C870.1888,-629.9237 881.4423,-602.882 891,-584 903.2044,-559.8893 927.7956,-572.1107 940,-548 958.7674,-510.9237 981.5556,-454.5 940,-454.5"/>
<polygon fill="#000000" stroke="#000000" points="881.3885,-638.7396 889.7578,-645.8252 886.1943,-640.1198 891,-641.5 891,-641.5 891,-641.5 886.1943,-640.1198 892.2422,-637.1748 881.3885,-638.7396 881.3885,-638.7396"/>
<text text-anchor="start" x="897.602" y="-625.5" font-family="Arial" font-size="10.00" fill="#000000">FOREIGN KEY (application_id) REFERENCES applications (id)</text>
</g>
</g>
</svg>
