<?xml version="1.0" encoding="UTF-8" standalone="no"?>
<!DOCTYPE svg PUBLIC "-//W3C//DTD SVG 1.1//EN"
 "http://www.w3.org/Graphics/SVG/1.1/DTD/svg11.dtd">
<!-- Generated by graphviz version 2.40.1 (20161225.0304)
 -->
<!-- Title: neoshowcase Pages: 1 -->
<svg width="1718pt" height="1410pt"
 viewBox="0.00 0.00 1717.50 1410.00" xmlns="http://www.w3.org/2000/svg" xmlns:xlink="http://www.w3.org/1999/xlink">
<g id="graph0" class="graph" transform="scale(1 1) rotate(0) translate(4 1406)">
<title>neoshowcase</title>
<polygon fill="#ffffff" stroke="transparent" points="-4,4 -4,-1406 1713.5,-1406 1713.5,4 -4,4"/>
<!-- applications -->
<g id="node1" class="node">
<title>applications</title>
<polygon fill="#efefef" stroke="transparent" points="665.5,-589.5 665.5,-624.5 894.5,-624.5 894.5,-589.5 665.5,-589.5"/>
<polygon fill="none" stroke="#000000" points="665.5,-589.5 665.5,-624.5 894.5,-624.5 894.5,-589.5 665.5,-589.5"/>
<text text-anchor="start" x="683.8621" y="-602.3" font-family="Arial Bold" font-size="18.00" fill="#000000">applications</text>
<text text-anchor="start" x="778.8841" y="-602.3" font-family="Arial" font-size="14.00" fill="#000000"> </text>
<text text-anchor="start" x="782.7747" y="-602.3" font-family="Arial" font-size="14.00" fill="#666666">[BASE TABLE]</text>
<polygon fill="none" stroke="#000000" points="665.5,-559.5 665.5,-589.5 894.5,-589.5 894.5,-559.5 665.5,-559.5"/>
<text text-anchor="start" x="672.5" y="-570.9" font-family="Arial" font-size="14.00" fill="#000000">id </text>
<text text-anchor="start" x="687.2798" y="-570.9" font-family="Arial" font-size="14.00" fill="#666666">[varchar(22)]</text>
<polygon fill="none" stroke="#000000" points="665.5,-529.5 665.5,-559.5 894.5,-559.5 894.5,-529.5 665.5,-529.5"/>
<text text-anchor="start" x="672.5" y="-540.9" font-family="Arial" font-size="14.00" fill="#000000">name </text>
<text text-anchor="start" x="711.399" y="-540.9" font-family="Arial" font-size="14.00" fill="#666666">[varchar(100)]</text>
<polygon fill="none" stroke="#000000" points="665.5,-499.5 665.5,-529.5 894.5,-529.5 894.5,-499.5 665.5,-499.5"/>
<text text-anchor="start" x="672.5" y="-510.9" font-family="Arial" font-size="14.00" fill="#000000">repository_id </text>
<text text-anchor="start" x="756.5112" y="-510.9" font-family="Arial" font-size="14.00" fill="#666666">[varchar(22)]</text>
<polygon fill="none" stroke="#000000" points="665.5,-469.5 665.5,-499.5 894.5,-499.5 894.5,-469.5 665.5,-469.5"/>
<text text-anchor="start" x="672.5" y="-480.9" font-family="Arial" font-size="14.00" fill="#000000">branch_name </text>
<text text-anchor="start" x="761.9726" y="-480.9" font-family="Arial" font-size="14.00" fill="#666666">[varchar(100)]</text>
<polygon fill="none" stroke="#000000" points="665.5,-439.5 665.5,-469.5 894.5,-469.5 894.5,-439.5 665.5,-439.5"/>
<text text-anchor="start" x="672.3008" y="-450.9" font-family="Arial" font-size="14.00" fill="#000000">build_type </text>
<text text-anchor="start" x="739.9908" y="-450.9" font-family="Arial" font-size="14.00" fill="#666666">[enum(&#39;runtime&#39;,&#39;static&#39;)]</text>
<polygon fill="none" stroke="#000000" points="665.5,-409.5 665.5,-439.5 894.5,-439.5 894.5,-409.5 665.5,-409.5"/>
<text text-anchor="start" x="672.5" y="-420.9" font-family="Arial" font-size="14.00" fill="#000000">state </text>
<text text-anchor="start" x="706.737" y="-420.9" font-family="Arial" font-size="14.00" fill="#666666">[varchar(10)]</text>
<polygon fill="none" stroke="#000000" points="665.5,-379.5 665.5,-409.5 894.5,-409.5 894.5,-379.5 665.5,-379.5"/>
<text text-anchor="start" x="672.5" y="-390.9" font-family="Arial" font-size="14.00" fill="#000000">current_commit </text>
<text text-anchor="start" x="772.8338" y="-390.9" font-family="Arial" font-size="14.00" fill="#666666">[char(40)]</text>
<polygon fill="none" stroke="#000000" points="665.5,-349.5 665.5,-379.5 894.5,-379.5 894.5,-349.5 665.5,-349.5"/>
<text text-anchor="start" x="672.5" y="-360.9" font-family="Arial" font-size="14.00" fill="#000000">want_commit </text>
<text text-anchor="start" x="758.8366" y="-360.9" font-family="Arial" font-size="14.00" fill="#666666">[char(40)]</text>
<polygon fill="none" stroke="#000000" points="665.5,-319.5 665.5,-349.5 894.5,-349.5 894.5,-319.5 665.5,-319.5"/>
<text text-anchor="start" x="672.5" y="-330.9" font-family="Arial" font-size="14.00" fill="#000000">created_at </text>
<text text-anchor="start" x="742.528" y="-330.9" font-family="Arial" font-size="14.00" fill="#666666">[datetime(6)]</text>
<polygon fill="none" stroke="#000000" points="665.5,-289.5 665.5,-319.5 894.5,-319.5 894.5,-289.5 665.5,-289.5"/>
<text text-anchor="start" x="672.5" y="-300.9" font-family="Arial" font-size="14.00" fill="#000000">updated_at </text>
<text text-anchor="start" x="746.4326" y="-300.9" font-family="Arial" font-size="14.00" fill="#666666">[datetime(6)]</text>
</g>
<!-- application_state -->
<g id="node3" class="node">
<title>application_state</title>
<polygon fill="#efefef" stroke="transparent" points="493.5,-102.5 493.5,-137.5 739.5,-137.5 739.5,-102.5 493.5,-102.5"/>
<polygon fill="none" stroke="#000000" points="493.5,-102.5 493.5,-137.5 739.5,-137.5 739.5,-102.5 493.5,-102.5"/>
<text text-anchor="start" x="500.3506" y="-115.3" font-family="Arial Bold" font-size="18.00" fill="#000000">application_state</text>
<text text-anchor="start" x="635.3956" y="-115.3" font-family="Arial" font-size="14.00" fill="#000000"> </text>
<text text-anchor="start" x="639.2862" y="-115.3" font-family="Arial" font-size="14.00" fill="#666666">[BASE TABLE]</text>
<polygon fill="none" stroke="#000000" points="493.5,-72.5 493.5,-102.5 739.5,-102.5 739.5,-72.5 493.5,-72.5"/>
<text text-anchor="start" x="500.5" y="-83.9" font-family="Arial" font-size="14.00" fill="#000000">state </text>
<text text-anchor="start" x="534.737" y="-83.9" font-family="Arial" font-size="14.00" fill="#666666">[varchar(10)]</text>
</g>
<!-- applications&#45;&gt;application_state -->
<g id="edge2" class="edge">
<title>applications:state&#45;&gt;application_state:state</title>
<path fill="none" stroke="#000000" d="M655.3943,-424.4071C378.8286,-419.2044 732.2745,-197.1262 739.5,-181 756.4917,-143.0771 781.0556,-87.5 739.5,-87.5"/>
<polygon fill="#000000" stroke="#000000" points="655.5004,-424.408 665.4586,-428.9998 660.5002,-424.454 665.5,-424.5 665.5,-424.5 665.5,-424.5 660.5002,-424.454 665.5414,-420.0002 655.5004,-424.408 655.5004,-424.408"/>
<text text-anchor="start" x="379.761" y="-434.5" font-family="Arial" font-size="10.00" fill="#000000">FOREIGN KEY (state) REFERENCES application_state (state)</text>
</g>
<!-- repositories -->
<g id="node10" class="node">
<title>repositories</title>
<polygon fill="#efefef" stroke="transparent" points="843.5,-132.5 843.5,-167.5 1047.5,-167.5 1047.5,-132.5 843.5,-132.5"/>
<polygon fill="none" stroke="#000000" points="843.5,-132.5 843.5,-167.5 1047.5,-167.5 1047.5,-132.5 843.5,-132.5"/>
<text text-anchor="start" x="850.3701" y="-145.3" font-family="Arial Bold" font-size="18.00" fill="#000000">repositories</text>
<text text-anchor="start" x="943.3761" y="-145.3" font-family="Arial" font-size="14.00" fill="#000000"> </text>
<text text-anchor="start" x="947.2667" y="-145.3" font-family="Arial" font-size="14.00" fill="#666666">[BASE TABLE]</text>
<polygon fill="none" stroke="#000000" points="843.5,-102.5 843.5,-132.5 1047.5,-132.5 1047.5,-102.5 843.5,-102.5"/>
<text text-anchor="start" x="850.5" y="-113.9" font-family="Arial" font-size="14.00" fill="#000000">id </text>
<text text-anchor="start" x="865.2798" y="-113.9" font-family="Arial" font-size="14.00" fill="#666666">[varchar(22)]</text>
<polygon fill="none" stroke="#000000" points="843.5,-72.5 843.5,-102.5 1047.5,-102.5 1047.5,-72.5 843.5,-72.5"/>
<text text-anchor="start" x="850.5" y="-83.9" font-family="Arial" font-size="14.00" fill="#000000">name </text>
<text text-anchor="start" x="889.399" y="-83.9" font-family="Arial" font-size="14.00" fill="#666666">[varchar(256)]</text>
<polygon fill="none" stroke="#000000" points="843.5,-42.5 843.5,-72.5 1047.5,-72.5 1047.5,-42.5 843.5,-42.5"/>
<text text-anchor="start" x="850.5" y="-53.9" font-family="Arial" font-size="14.00" fill="#000000">url </text>
<text text-anchor="start" x="869.9404" y="-53.9" font-family="Arial" font-size="14.00" fill="#666666">[varchar(256)]</text>
</g>
<!-- applications&#45;&gt;repositories -->
<g id="edge1" class="edge">
<title>applications:repository_id&#45;&gt;repositories:id</title>
<path fill="none" stroke="#000000" d="M904.3122,-512.2222C950.0752,-489.0924 920.1924,-296.5842 894.5,-247 881.7356,-222.3657 856.2644,-235.6343 843.5,-211 824.3818,-174.1034 801.9444,-117.5 843.5,-117.5"/>
<polygon fill="#000000" stroke="#000000" points="904.241,-512.2386 893.4824,-510.1166 899.3705,-513.3693 894.5,-514.5 894.5,-514.5 894.5,-514.5 899.3705,-513.3693 895.5176,-518.8834 904.241,-512.2386 904.241,-512.2386"/>
<text text-anchor="start" x="610.611" y="-524.5" font-family="Arial" font-size="10.00" fill="#000000">FOREIGN KEY (repository_id) REFERENCES repositories (id)</text>
</g>
<!-- application_config -->
<g id="node2" class="node">
<title>application_config</title>
<polygon fill="#efefef" stroke="transparent" points="43.5,-1016.5 43.5,-1051.5 298.5,-1051.5 298.5,-1016.5 43.5,-1016.5"/>
<polygon fill="none" stroke="#000000" points="43.5,-1016.5 43.5,-1051.5 298.5,-1051.5 298.5,-1016.5 43.5,-1016.5"/>
<text text-anchor="start" x="50.3515" y="-1029.3" font-family="Arial Bold" font-size="18.00" fill="#000000">application_config</text>
<text text-anchor="start" x="194.3947" y="-1029.3" font-family="Arial" font-size="14.00" fill="#000000"> </text>
<text text-anchor="start" x="198.2853" y="-1029.3" font-family="Arial" font-size="14.00" fill="#666666">[BASE TABLE]</text>
<polygon fill="none" stroke="#000000" points="43.5,-986.5 43.5,-1016.5 298.5,-1016.5 298.5,-986.5 43.5,-986.5"/>
<text text-anchor="start" x="50.5" y="-997.9" font-family="Arial" font-size="14.00" fill="#000000">application_id </text>
<text text-anchor="start" x="139.9684" y="-997.9" font-family="Arial" font-size="14.00" fill="#666666">[varchar(22)]</text>
<polygon fill="none" stroke="#000000" points="43.5,-956.5 43.5,-986.5 298.5,-986.5 298.5,-956.5 43.5,-956.5"/>
<text text-anchor="start" x="50.5" y="-967.9" font-family="Arial" font-size="14.00" fill="#000000">use_mariadb </text>
<text text-anchor="start" x="135.2966" y="-967.9" font-family="Arial" font-size="14.00" fill="#666666">[tinyint(1)]</text>
<polygon fill="none" stroke="#000000" points="43.5,-926.5 43.5,-956.5 298.5,-956.5 298.5,-926.5 43.5,-926.5"/>
<text text-anchor="start" x="50.5" y="-937.9" font-family="Arial" font-size="14.00" fill="#000000">use_mongodb </text>
<text text-anchor="start" x="143.0946" y="-937.9" font-family="Arial" font-size="14.00" fill="#666666">[tinyint(1)]</text>
<polygon fill="none" stroke="#000000" points="43.5,-896.5 43.5,-926.5 298.5,-926.5 298.5,-896.5 43.5,-896.5"/>
<text text-anchor="start" x="50.5" y="-907.9" font-family="Arial" font-size="14.00" fill="#000000">dockerfile_name </text>
<text text-anchor="start" x="157.0764" y="-907.9" font-family="Arial" font-size="14.00" fill="#666666">[varchar(100)]</text>
<polygon fill="none" stroke="#000000" points="43.5,-866.5 43.5,-896.5 298.5,-896.5 298.5,-866.5 43.5,-866.5"/>
<text text-anchor="start" x="50.5" y="-877.9" font-family="Arial" font-size="14.00" fill="#000000">base_image </text>
<text text-anchor="start" x="130.636" y="-877.9" font-family="Arial" font-size="14.00" fill="#666666">[varchar(1000)]</text>
<polygon fill="none" stroke="#000000" points="43.5,-836.5 43.5,-866.5 298.5,-866.5 298.5,-836.5 43.5,-836.5"/>
<text text-anchor="start" x="50.5" y="-847.9" font-family="Arial" font-size="14.00" fill="#000000">artifact_path </text>
<text text-anchor="start" x="131.4158" y="-847.9" font-family="Arial" font-size="14.00" fill="#666666">[varchar(100)]</text>
<polygon fill="none" stroke="#000000" points="43.5,-806.5 43.5,-836.5 298.5,-836.5 298.5,-806.5 43.5,-806.5"/>
<text text-anchor="start" x="50.5" y="-817.9" font-family="Arial" font-size="14.00" fill="#000000">build_cmd </text>
<text text-anchor="start" x="118.1774" y="-817.9" font-family="Arial" font-size="14.00" fill="#666666">[text]</text>
<polygon fill="none" stroke="#000000" points="43.5,-776.5 43.5,-806.5 298.5,-806.5 298.5,-776.5 43.5,-776.5"/>
<text text-anchor="start" x="50.5" y="-787.9" font-family="Arial" font-size="14.00" fill="#000000">entrypoint_cmd </text>
<text text-anchor="start" x="150.0778" y="-787.9" font-family="Arial" font-size="14.00" fill="#666666">[text]</text>
<polygon fill="none" stroke="#000000" points="43.5,-746.5 43.5,-776.5 298.5,-776.5 298.5,-746.5 43.5,-746.5"/>
<text text-anchor="start" x="50.5" y="-757.9" font-family="Arial" font-size="14.00" fill="#000000">authentication </text>
<text text-anchor="start" x="141.5364" y="-757.9" font-family="Arial" font-size="14.00" fill="#666666">[enum(&#39;off&#39;,&#39;soft&#39;,&#39;hard&#39;)]</text>
</g>
<!-- application_config&#45;&gt;applications -->
<g id="edge3" class="edge">
<title>application_config:application_id&#45;&gt;applications:id</title>
<path fill="none" stroke="#000000" d="M308.4189,-999.3719C359.5271,-975.2615 309.8364,-753.47 349.5,-704 444.4443,-585.5818 513.7196,-574.5 665.5,-574.5"/>
<polygon fill="#000000" stroke="#000000" points="308.2775,-999.4022 297.556,-997.1001 303.3888,-1000.4511 298.5,-1001.5 298.5,-1001.5 298.5,-1001.5 303.3888,-1000.4511 299.444,-1005.8999 308.2775,-999.4022 308.2775,-999.4022"/>
<text text-anchor="start" x="157.102" y="-985.5" font-family="Arial" font-size="10.00" fill="#000000">FOREIGN KEY (application_id) REFERENCES applications (id)</text>
</g>
<!-- artifacts -->
<g id="node4" class="node">
<title>artifacts</title>
<polygon fill="#efefef" stroke="transparent" points="1015.5,-1323.5 1015.5,-1358.5 1189.5,-1358.5 1189.5,-1323.5 1015.5,-1323.5"/>
<polygon fill="none" stroke="#000000" points="1015.5,-1323.5 1015.5,-1358.5 1189.5,-1358.5 1189.5,-1323.5 1015.5,-1323.5"/>
<text text-anchor="start" x="1022.3704" y="-1336.3" font-family="Arial Bold" font-size="18.00" fill="#000000">artifacts</text>
<text text-anchor="start" x="1085.3758" y="-1336.3" font-family="Arial" font-size="14.00" fill="#000000"> </text>
<text text-anchor="start" x="1089.2664" y="-1336.3" font-family="Arial" font-size="14.00" fill="#666666">[BASE TABLE]</text>
<polygon fill="none" stroke="#000000" points="1015.5,-1293.5 1015.5,-1323.5 1189.5,-1323.5 1189.5,-1293.5 1015.5,-1293.5"/>
<text text-anchor="start" x="1022.5" y="-1304.9" font-family="Arial" font-size="14.00" fill="#000000">id </text>
<text text-anchor="start" x="1037.2798" y="-1304.9" font-family="Arial" font-size="14.00" fill="#666666">[varchar(22)]</text>
<polygon fill="none" stroke="#000000" points="1015.5,-1263.5 1015.5,-1293.5 1189.5,-1293.5 1189.5,-1263.5 1015.5,-1263.5"/>
<text text-anchor="start" x="1022.5" y="-1274.9" font-family="Arial" font-size="14.00" fill="#000000">size </text>
<text text-anchor="start" x="1051.2798" y="-1274.9" font-family="Arial" font-size="14.00" fill="#666666">[bigint(20)]</text>
<polygon fill="none" stroke="#000000" points="1015.5,-1233.5 1015.5,-1263.5 1189.5,-1263.5 1189.5,-1233.5 1015.5,-1233.5"/>
<text text-anchor="start" x="1022.5" y="-1244.9" font-family="Arial" font-size="14.00" fill="#000000">created_at </text>
<text text-anchor="start" x="1092.528" y="-1244.9" font-family="Arial" font-size="14.00" fill="#666666">[datetime(6)]</text>
<polygon fill="none" stroke="#000000" points="1015.5,-1203.5 1015.5,-1233.5 1189.5,-1233.5 1189.5,-1203.5 1015.5,-1203.5"/>
<text text-anchor="start" x="1022.5" y="-1214.9" font-family="Arial" font-size="14.00" fill="#000000">deleted_at </text>
<text text-anchor="start" x="1091.7566" y="-1214.9" font-family="Arial" font-size="14.00" fill="#666666">[datetime(6)]</text>
<polygon fill="none" stroke="#000000" points="1015.5,-1173.5 1015.5,-1203.5 1189.5,-1203.5 1189.5,-1173.5 1015.5,-1173.5"/>
<text text-anchor="start" x="1022.5" y="-1184.9" font-family="Arial" font-size="14.00" fill="#000000">build_id </text>
<text text-anchor="start" x="1074.6234" y="-1184.9" font-family="Arial" font-size="14.00" fill="#666666">[varchar(22)]</text>
</g>
<!-- builds -->
<g id="node6" class="node">
<title>builds</title>
<polygon fill="#efefef" stroke="transparent" points="1011.5,-986.5 1011.5,-1021.5 1193.5,-1021.5 1193.5,-986.5 1011.5,-986.5"/>
<polygon fill="none" stroke="#000000" points="1011.5,-986.5 1011.5,-1021.5 1193.5,-1021.5 1193.5,-986.5 1011.5,-986.5"/>
<text text-anchor="start" x="1030.3696" y="-999.3" font-family="Arial Bold" font-size="18.00" fill="#000000">builds</text>
<text text-anchor="start" x="1077.3766" y="-999.3" font-family="Arial" font-size="14.00" fill="#000000"> </text>
<text text-anchor="start" x="1081.2672" y="-999.3" font-family="Arial" font-size="14.00" fill="#666666">[BASE TABLE]</text>
<polygon fill="none" stroke="#000000" points="1011.5,-956.5 1011.5,-986.5 1193.5,-986.5 1193.5,-956.5 1011.5,-956.5"/>
<text text-anchor="start" x="1018.5" y="-967.9" font-family="Arial" font-size="14.00" fill="#000000">id </text>
<text text-anchor="start" x="1033.2798" y="-967.9" font-family="Arial" font-size="14.00" fill="#666666">[varchar(22)]</text>
<polygon fill="none" stroke="#000000" points="1011.5,-926.5 1011.5,-956.5 1193.5,-956.5 1193.5,-926.5 1011.5,-926.5"/>
<text text-anchor="start" x="1018.5" y="-937.9" font-family="Arial" font-size="14.00" fill="#000000">commit </text>
<text text-anchor="start" x="1067.4916" y="-937.9" font-family="Arial" font-size="14.00" fill="#666666">[char(40)]</text>
<polygon fill="none" stroke="#000000" points="1011.5,-896.5 1011.5,-926.5 1193.5,-926.5 1193.5,-896.5 1011.5,-896.5"/>
<text text-anchor="start" x="1018.5" y="-907.9" font-family="Arial" font-size="14.00" fill="#000000">status </text>
<text text-anchor="start" x="1059.737" y="-907.9" font-family="Arial" font-size="14.00" fill="#666666">[varchar(10)]</text>
<polygon fill="none" stroke="#000000" points="1011.5,-866.5 1011.5,-896.5 1193.5,-896.5 1193.5,-866.5 1011.5,-866.5"/>
<text text-anchor="start" x="1018.5" y="-877.9" font-family="Arial" font-size="14.00" fill="#000000">started_at </text>
<text text-anchor="start" x="1084.636" y="-877.9" font-family="Arial" font-size="14.00" fill="#666666">[datetime(6)]</text>
<polygon fill="none" stroke="#000000" points="1011.5,-836.5 1011.5,-866.5 1193.5,-866.5 1193.5,-836.5 1011.5,-836.5"/>
<text text-anchor="start" x="1018.5" y="-847.9" font-family="Arial" font-size="14.00" fill="#000000">finished_at </text>
<text text-anchor="start" x="1090.0806" y="-847.9" font-family="Arial" font-size="14.00" fill="#666666">[datetime(6)]</text>
<polygon fill="none" stroke="#000000" points="1011.5,-806.5 1011.5,-836.5 1193.5,-836.5 1193.5,-806.5 1011.5,-806.5"/>
<text text-anchor="start" x="1018.5" y="-817.9" font-family="Arial" font-size="14.00" fill="#000000">retriable </text>
<text text-anchor="start" x="1072.946" y="-817.9" font-family="Arial" font-size="14.00" fill="#666666">[tinyint(1)]</text>
<polygon fill="none" stroke="#000000" points="1011.5,-776.5 1011.5,-806.5 1193.5,-806.5 1193.5,-776.5 1011.5,-776.5"/>
<text text-anchor="start" x="1018.0975" y="-787.9" font-family="Arial" font-size="14.00" fill="#000000">application_id </text>
<text text-anchor="start" x="1107.5659" y="-787.9" font-family="Arial" font-size="14.00" fill="#666666">[varchar(22)]</text>
</g>
<!-- artifacts&#45;&gt;builds -->
<g id="edge4" class="edge">
<title>artifacts:build_id&#45;&gt;builds:id</title>
<path fill="none" stroke="#000000" d="M1103.1474,-1163.5149C1110.217,-1111.8677 1173.1997,-1120.7944 1193.5,-1065 1207.7084,-1025.9489 1235.0556,-971.5 1193.5,-971.5"/>
<polygon fill="#000000" stroke="#000000" points="1103.1471,-1163.521 1098.0094,-1173.2088 1102.8235,-1168.5105 1102.5,-1173.5 1102.5,-1173.5 1102.5,-1173.5 1102.8235,-1168.5105 1106.9906,-1173.7912 1103.1471,-1163.521 1103.1471,-1163.521"/>
<text text-anchor="start" x="866.777" y="-1183.5" font-family="Arial" font-size="10.00" fill="#000000">FOREIGN KEY (build_id) REFERENCES builds (id)</text>
</g>
<!-- available_domains -->
<g id="node5" class="node">
<title>available_domains</title>
<polygon fill="#efefef" stroke="transparent" points="1293.5,-1293.5 1293.5,-1328.5 1553.5,-1328.5 1553.5,-1293.5 1293.5,-1293.5"/>
<polygon fill="none" stroke="#000000" points="1293.5,-1293.5 1293.5,-1328.5 1553.5,-1328.5 1553.5,-1293.5 1293.5,-1293.5"/>
<text text-anchor="start" x="1300.3576" y="-1306.3" font-family="Arial Bold" font-size="18.00" fill="#000000">available_domains</text>
<text text-anchor="start" x="1449.3886" y="-1306.3" font-family="Arial" font-size="14.00" fill="#000000"> </text>
<text text-anchor="start" x="1453.2792" y="-1306.3" font-family="Arial" font-size="14.00" fill="#666666">[BASE TABLE]</text>
<polygon fill="none" stroke="#000000" points="1293.5,-1263.5 1293.5,-1293.5 1553.5,-1293.5 1553.5,-1263.5 1293.5,-1263.5"/>
<text text-anchor="start" x="1300.5" y="-1274.9" font-family="Arial" font-size="14.00" fill="#000000">id </text>
<text text-anchor="start" x="1315.2798" y="-1274.9" font-family="Arial" font-size="14.00" fill="#666666">[varchar(22)]</text>
<polygon fill="none" stroke="#000000" points="1293.5,-1233.5 1293.5,-1263.5 1553.5,-1263.5 1553.5,-1233.5 1293.5,-1233.5"/>
<text text-anchor="start" x="1300.5" y="-1244.9" font-family="Arial" font-size="14.00" fill="#000000">domain </text>
<text text-anchor="start" x="1350.2882" y="-1244.9" font-family="Arial" font-size="14.00" fill="#666666">[varchar(100)]</text>
<polygon fill="none" stroke="#000000" points="1293.5,-1203.5 1293.5,-1233.5 1553.5,-1233.5 1553.5,-1203.5 1293.5,-1203.5"/>
<text text-anchor="start" x="1300.5" y="-1214.9" font-family="Arial" font-size="14.00" fill="#000000">subdomain </text>
<text text-anchor="start" x="1372.8534" y="-1214.9" font-family="Arial" font-size="14.00" fill="#666666">[tinyint(1)]</text>
</g>
<!-- builds&#45;&gt;applications -->
<g id="edge5" class="edge">
<title>builds:application_id&#45;&gt;applications:id</title>
<path fill="none" stroke="#000000" d="M1005.4291,-783.2583C981.7647,-743.6207 900.5456,-574.5 894.5,-574.5"/>
<polygon fill="#000000" stroke="#000000" points="1005.5692,-783.4485 1007.8768,-794.1689 1008.5346,-787.4743 1011.5,-791.5 1011.5,-791.5 1011.5,-791.5 1008.5346,-787.4743 1015.1232,-788.8311 1005.5692,-783.4485 1005.5692,-783.4485"/>
<text text-anchor="start" x="1018.102" y="-775.5" font-family="Arial" font-size="10.00" fill="#000000">FOREIGN KEY (application_id) REFERENCES applications (id)</text>
</g>
<!-- build_status -->
<g id="node7" class="node">
<title>build_status</title>
<polygon fill="#efefef" stroke="transparent" points="998.5,-454.5 998.5,-489.5 1205.5,-489.5 1205.5,-454.5 998.5,-454.5"/>
<polygon fill="none" stroke="#000000" points="998.5,-454.5 998.5,-489.5 1205.5,-489.5 1205.5,-454.5 998.5,-454.5"/>
<text text-anchor="start" x="1005.3581" y="-467.3" font-family="Arial Bold" font-size="18.00" fill="#000000">build_status</text>
<text text-anchor="start" x="1101.3881" y="-467.3" font-family="Arial" font-size="14.00" fill="#000000"> </text>
<text text-anchor="start" x="1105.2787" y="-467.3" font-family="Arial" font-size="14.00" fill="#666666">[BASE TABLE]</text>
<polygon fill="none" stroke="#000000" points="998.5,-424.5 998.5,-454.5 1205.5,-454.5 1205.5,-424.5 998.5,-424.5"/>
<text text-anchor="start" x="1005.5" y="-435.9" font-family="Arial" font-size="14.00" fill="#000000">status </text>
<text text-anchor="start" x="1046.737" y="-435.9" font-family="Arial" font-size="14.00" fill="#666666">[varchar(10)]</text>
</g>
<!-- builds&#45;&gt;build_status -->
<g id="edge6" class="edge">
<title>builds:status&#45;&gt;build_status:status</title>
<path fill="none" stroke="#000000" d="M1001.2363,-910.8261C937.1938,-901.7856 983.3423,-803.7196 1011.5,-734 1057.9943,-618.8784 1159.0057,-648.1216 1205.5,-533 1221.0619,-494.4683 1247.0556,-439.5 1205.5,-439.5"/>
<polygon fill="#000000" stroke="#000000" points="1001.5215,-910.8447 1011.2051,-915.9903 1006.5107,-911.1724 1011.5,-911.5 1011.5,-911.5 1011.5,-911.5 1006.5107,-911.1724 1011.7949,-907.0097 1001.5215,-910.8447 1001.5215,-910.8447"/>
<text text-anchor="start" x="807.8485" y="-895.5" font-family="Arial" font-size="10.00" fill="#000000">FOREIGN KEY (status) REFERENCES build_status (status)</text>
</g>
<!-- environments -->
<g id="node8" class="node">
<title>environments</title>
<polygon fill="#efefef" stroke="transparent" points="402.5,-941.5 402.5,-976.5 621.5,-976.5 621.5,-941.5 402.5,-941.5"/>
<polygon fill="none" stroke="#000000" points="402.5,-941.5 402.5,-976.5 621.5,-976.5 621.5,-941.5 402.5,-941.5"/>
<text text-anchor="start" x="409.3641" y="-954.3" font-family="Arial Bold" font-size="18.00" fill="#000000">environments</text>
<text text-anchor="start" x="517.3821" y="-954.3" font-family="Arial" font-size="14.00" fill="#000000"> </text>
<text text-anchor="start" x="521.2727" y="-954.3" font-family="Arial" font-size="14.00" fill="#666666">[BASE TABLE]</text>
<polygon fill="none" stroke="#000000" points="402.5,-911.5 402.5,-941.5 621.5,-941.5 621.5,-911.5 402.5,-911.5"/>
<text text-anchor="start" x="409.5" y="-922.9" font-family="Arial" font-size="14.00" fill="#000000">id </text>
<text text-anchor="start" x="424.2798" y="-922.9" font-family="Arial" font-size="14.00" fill="#666666">[varchar(22)]</text>
<polygon fill="none" stroke="#000000" points="402.5,-881.5 402.5,-911.5 621.5,-911.5 621.5,-881.5 402.5,-881.5"/>
<text text-anchor="start" x="409.5" y="-892.9" font-family="Arial" font-size="14.00" fill="#000000">application_id </text>
<text text-anchor="start" x="498.9684" y="-892.9" font-family="Arial" font-size="14.00" fill="#666666">[varchar(22)]</text>
<polygon fill="none" stroke="#000000" points="402.5,-851.5 402.5,-881.5 621.5,-881.5 621.5,-851.5 402.5,-851.5"/>
<text text-anchor="start" x="409.5" y="-862.9" font-family="Arial" font-size="14.00" fill="#000000">key </text>
<text text-anchor="start" x="435.1732" y="-862.9" font-family="Arial" font-size="14.00" fill="#666666">[varchar(100)]</text>
<polygon fill="none" stroke="#000000" points="402.5,-821.5 402.5,-851.5 621.5,-851.5 621.5,-821.5 402.5,-821.5"/>
<text text-anchor="start" x="409.5" y="-832.9" font-family="Arial" font-size="14.00" fill="#000000">value </text>
<text text-anchor="start" x="446.845" y="-832.9" font-family="Arial" font-size="14.00" fill="#666666">[text]</text>
</g>
<!-- environments&#45;&gt;applications -->
<g id="edge7" class="edge">
<title>environments:application_id&#45;&gt;applications:id</title>
<path fill="none" stroke="#000000" d="M631.7621,-895.8878C753.7566,-880.356 524.7264,-574.5 665.5,-574.5"/>
<polygon fill="#000000" stroke="#000000" points="631.4823,-895.9044 621.232,-892.008 626.4911,-896.2022 621.5,-896.5 621.5,-896.5 621.5,-896.5 626.4911,-896.2022 621.768,-900.992 631.4823,-895.9044 631.4823,-895.9044"/>
<text text-anchor="start" x="480.102" y="-880.5" font-family="Arial" font-size="10.00" fill="#000000">FOREIGN KEY (application_id) REFERENCES applications (id)</text>
</g>
<!-- owners -->
<g id="node9" class="node">
<title>owners</title>
<polygon fill="#efefef" stroke="transparent" points="1300.5,-911.5 1300.5,-946.5 1469.5,-946.5 1469.5,-911.5 1300.5,-911.5"/>
<polygon fill="none" stroke="#000000" points="1300.5,-911.5 1300.5,-946.5 1469.5,-946.5 1469.5,-911.5 1300.5,-911.5"/>
<text text-anchor="start" x="1307.3706" y="-924.3" font-family="Arial Bold" font-size="18.00" fill="#000000">owners</text>
<text text-anchor="start" x="1365.3756" y="-924.3" font-family="Arial" font-size="14.00" fill="#000000"> </text>
<text text-anchor="start" x="1369.2662" y="-924.3" font-family="Arial" font-size="14.00" fill="#666666">[BASE TABLE]</text>
<polygon fill="none" stroke="#000000" points="1300.5,-881.5 1300.5,-911.5 1469.5,-911.5 1469.5,-881.5 1300.5,-881.5"/>
<text text-anchor="start" x="1307.5" y="-892.9" font-family="Arial" font-size="14.00" fill="#000000">user_id </text>
<text text-anchor="start" x="1357.2882" y="-892.9" font-family="Arial" font-size="14.00" fill="#666666">[char(36)]</text>
<polygon fill="none" stroke="#000000" points="1300.5,-851.5 1300.5,-881.5 1469.5,-881.5 1469.5,-851.5 1300.5,-851.5"/>
<text text-anchor="start" x="1307.5" y="-862.9" font-family="Arial" font-size="14.00" fill="#000000">application_id </text>
<text text-anchor="start" x="1396.9684" y="-862.9" font-family="Arial" font-size="14.00" fill="#666666">[char(36)]</text>
</g>
<!-- owners&#45;&gt;applications -->
<g id="edge8" class="edge">
<title>owners:application_id&#45;&gt;applications:id</title>
<path fill="none" stroke="#000000" d="M1290.4173,-865.7025C1231.7759,-855.4823 1301.8043,-749.7114 1245.5,-704 1141.2433,-619.3577 1056.6789,-743.3195 945.5,-668 906.3109,-641.4509 941.8354,-574.5 894.5,-574.5"/>
<polygon fill="#000000" stroke="#000000" points="1290.5311,-865.7114 1300.1451,-870.986 1295.5156,-866.1057 1300.5,-866.5 1300.5,-866.5 1300.5,-866.5 1295.5156,-866.1057 1300.8549,-862.014 1290.5311,-865.7114 1290.5311,-865.7114"/>
<text text-anchor="start" x="1307.102" y="-876.5" font-family="Arial" font-size="10.00" fill="#000000">FOREIGN KEY (application_id) REFERENCES applications (id)</text>
</g>
<!-- users -->
<g id="node11" class="node">
<title>users</title>
<polygon fill="#efefef" stroke="transparent" points="1309.5,-469.5 1309.5,-504.5 1464.5,-504.5 1464.5,-469.5 1309.5,-469.5"/>
<polygon fill="none" stroke="#000000" points="1309.5,-469.5 1309.5,-504.5 1464.5,-504.5 1464.5,-469.5 1309.5,-469.5"/>
<text text-anchor="start" x="1316.3708" y="-482.3" font-family="Arial Bold" font-size="18.00" fill="#000000">users</text>
<text text-anchor="start" x="1360.3754" y="-482.3" font-family="Arial" font-size="14.00" fill="#000000"> </text>
<text text-anchor="start" x="1364.266" y="-482.3" font-family="Arial" font-size="14.00" fill="#666666">[BASE TABLE]</text>
<polygon fill="none" stroke="#000000" points="1309.5,-439.5 1309.5,-469.5 1464.5,-469.5 1464.5,-439.5 1309.5,-439.5"/>
<text text-anchor="start" x="1316.5" y="-450.9" font-family="Arial" font-size="14.00" fill="#000000">id </text>
<text text-anchor="start" x="1331.2798" y="-450.9" font-family="Arial" font-size="14.00" fill="#666666">[char(36)]</text>
<polygon fill="none" stroke="#000000" points="1309.5,-409.5 1309.5,-439.5 1464.5,-439.5 1464.5,-409.5 1309.5,-409.5"/>
<text text-anchor="start" x="1316.5" y="-420.9" font-family="Arial" font-size="14.00" fill="#000000">name </text>
<text text-anchor="start" x="1355.399" y="-420.9" font-family="Arial" font-size="14.00" fill="#666666">[varchar(255)]</text>
</g>
<!-- owners&#45;&gt;users -->
<g id="edge9" class="edge">
<title>owners:user_id&#45;&gt;users:id</title>
<path fill="none" stroke="#000000" d="M1479.5297,-896.1171C1658.8986,-881.5217 1104.1512,-454.5 1309.5,-454.5"/>
<polygon fill="#000000" stroke="#000000" points="1479.4927,-896.1185 1469.3283,-892.0033 1474.4964,-896.3092 1469.5,-896.5 1469.5,-896.5 1469.5,-896.5 1474.4964,-896.3092 1469.6717,-900.9967 1479.4927,-896.1185 1479.4927,-896.1185"/>
<text text-anchor="start" x="1476.445" y="-906.5" font-family="Arial" font-size="10.00" fill="#000000">FOREIGN KEY (user_id) REFERENCES users (id)</text>
</g>
<!-- websites -->
<g id="node12" class="node">
<title>websites</title>
<polygon fill="#efefef" stroke="transparent" points="725.5,-971.5 725.5,-1006.5 907.5,-1006.5 907.5,-971.5 725.5,-971.5"/>
<polygon fill="none" stroke="#000000" points="725.5,-971.5 725.5,-1006.5 907.5,-1006.5 907.5,-971.5 725.5,-971.5"/>
<text text-anchor="start" x="732.8685" y="-984.3" font-family="Arial Bold" font-size="18.00" fill="#000000">websites</text>
<text text-anchor="start" x="802.8777" y="-984.3" font-family="Arial" font-size="14.00" fill="#000000"> </text>
<text text-anchor="start" x="806.7683" y="-984.3" font-family="Arial" font-size="14.00" fill="#666666">[BASE TABLE]</text>
<polygon fill="none" stroke="#000000" points="725.5,-941.5 725.5,-971.5 907.5,-971.5 907.5,-941.5 725.5,-941.5"/>
<text text-anchor="start" x="732.5" y="-952.9" font-family="Arial" font-size="14.00" fill="#000000">id </text>
<text text-anchor="start" x="747.2798" y="-952.9" font-family="Arial" font-size="14.00" fill="#666666">[varchar(22)]</text>
<polygon fill="none" stroke="#000000" points="725.5,-911.5 725.5,-941.5 907.5,-941.5 907.5,-911.5 725.5,-911.5"/>
<text text-anchor="start" x="732.5" y="-922.9" font-family="Arial" font-size="14.00" fill="#000000">fqdn </text>
<text text-anchor="start" x="763.629" y="-922.9" font-family="Arial" font-size="14.00" fill="#666666">[varchar(50)]</text>
<polygon fill="none" stroke="#000000" points="725.5,-881.5 725.5,-911.5 907.5,-911.5 907.5,-881.5 725.5,-881.5"/>
<text text-anchor="start" x="732.5" y="-892.9" font-family="Arial" font-size="14.00" fill="#000000">http_port </text>
<text text-anchor="start" x="791.636" y="-892.9" font-family="Arial" font-size="14.00" fill="#666666">[int(11)]</text>
<polygon fill="none" stroke="#000000" points="725.5,-851.5 725.5,-881.5 907.5,-881.5 907.5,-851.5 725.5,-851.5"/>
<text text-anchor="start" x="732.5" y="-862.9" font-family="Arial" font-size="14.00" fill="#000000">created_at </text>
<text text-anchor="start" x="802.528" y="-862.9" font-family="Arial" font-size="14.00" fill="#666666">[datetime(6)]</text>
<polygon fill="none" stroke="#000000" points="725.5,-821.5 725.5,-851.5 907.5,-851.5 907.5,-821.5 725.5,-821.5"/>
<text text-anchor="start" x="732.5" y="-832.9" font-family="Arial" font-size="14.00" fill="#000000">updated_at </text>
<text text-anchor="start" x="806.4326" y="-832.9" font-family="Arial" font-size="14.00" fill="#666666">[datetime(6)]</text>
<polygon fill="none" stroke="#000000" points="725.5,-791.5 725.5,-821.5 907.5,-821.5 907.5,-791.5 725.5,-791.5"/>
<text text-anchor="start" x="732.0975" y="-802.9" font-family="Arial" font-size="14.00" fill="#000000">application_id </text>
<text text-anchor="start" x="821.5659" y="-802.9" font-family="Arial" font-size="14.00" fill="#666666">[varchar(22)]</text>
</g>
<!-- websites&#45;&gt;applications -->
<g id="edge10" class="edge">
<title>websites:application_id&#45;&gt;applications:id</title>
<path fill="none" stroke="#000000" d="M817.0213,-781.4435C822.9323,-726.7961 877.4424,-726.9512 894.5,-668 906.0503,-628.0819 936.0556,-574.5 894.5,-574.5"/>
<polygon fill="#000000" stroke="#000000" points="817.0177,-781.5134 812.006,-791.267 816.7589,-786.5067 816.5,-791.5 816.5,-791.5 816.5,-791.5 816.7589,-786.5067 820.994,-791.733 817.0177,-781.5134 817.0177,-781.5134"/>
<text text-anchor="start" x="527.102" y="-775.5" font-family="Arial" font-size="10.00" fill="#000000">FOREIGN KEY (application_id) REFERENCES applications (id)</text>
</g>
</g>
</svg>
