<?xml version="1.0" encoding="UTF-8" standalone="no"?>
<!DOCTYPE svg PUBLIC "-//W3C//DTD SVG 1.1//EN"
 "http://www.w3.org/Graphics/SVG/1.1/DTD/svg11.dtd">
<!-- Generated by graphviz version 2.40.1 (20161225.0304)
 -->
<!-- Title: neoshowcase Pages: 1 -->
<svg width="2714pt" height="1500pt"
 viewBox="0.00 0.00 2714.00 1500.00" xmlns="http://www.w3.org/2000/svg" xmlns:xlink="http://www.w3.org/1999/xlink">
<g id="graph0" class="graph" transform="scale(1 1) rotate(0) translate(4 1496)">
<title>neoshowcase</title>
<polygon fill="#ffffff" stroke="transparent" points="-4,4 -4,-1496 2710,-1496 2710,4 -4,4"/>
<!-- applications -->
<g id="node1" class="node">
<title>applications</title>
<polygon fill="#efefef" stroke="transparent" points="1225.5,-619.5 1225.5,-654.5 1687.5,-654.5 1687.5,-619.5 1225.5,-619.5"/>
<polygon fill="none" stroke="#000000" points="1225.5,-619.5 1225.5,-654.5 1687.5,-654.5 1687.5,-619.5 1225.5,-619.5"/>
<text text-anchor="start" x="1360.3621" y="-632.3" font-family="Arial Bold" font-size="18.00" fill="#000000">applications</text>
<text text-anchor="start" x="1455.3841" y="-632.3" font-family="Arial" font-size="14.00" fill="#000000"> </text>
<text text-anchor="start" x="1459.2747" y="-632.3" font-family="Arial" font-size="14.00" fill="#666666">[BASE TABLE]</text>
<polygon fill="none" stroke="#000000" points="1225.5,-589.5 1225.5,-619.5 1687.5,-619.5 1687.5,-589.5 1225.5,-589.5"/>
<text text-anchor="start" x="1232.5" y="-600.9" font-family="Arial" font-size="14.00" fill="#000000">id </text>
<text text-anchor="start" x="1247.2798" y="-600.9" font-family="Arial" font-size="14.00" fill="#666666">[char(22)]</text>
<polygon fill="none" stroke="#000000" points="1225.5,-559.5 1225.5,-589.5 1687.5,-589.5 1687.5,-559.5 1225.5,-559.5"/>
<text text-anchor="start" x="1232.5" y="-570.9" font-family="Arial" font-size="14.00" fill="#000000">name </text>
<text text-anchor="start" x="1271.399" y="-570.9" font-family="Arial" font-size="14.00" fill="#666666">[varchar(100)]</text>
<polygon fill="none" stroke="#000000" points="1225.5,-529.5 1225.5,-559.5 1687.5,-559.5 1687.5,-529.5 1225.5,-529.5"/>
<text text-anchor="start" x="1232.5" y="-540.9" font-family="Arial" font-size="14.00" fill="#000000">repository_id </text>
<text text-anchor="start" x="1316.5112" y="-540.9" font-family="Arial" font-size="14.00" fill="#666666">[varchar(22)]</text>
<polygon fill="none" stroke="#000000" points="1225.5,-499.5 1225.5,-529.5 1687.5,-529.5 1687.5,-499.5 1225.5,-499.5"/>
<text text-anchor="start" x="1232.5" y="-510.9" font-family="Arial" font-size="14.00" fill="#000000">ref_name </text>
<text text-anchor="start" x="1295.5154" y="-510.9" font-family="Arial" font-size="14.00" fill="#666666">[varchar(100)]</text>
<polygon fill="none" stroke="#000000" points="1225.5,-469.5 1225.5,-499.5 1687.5,-499.5 1687.5,-469.5 1225.5,-469.5"/>
<text text-anchor="start" x="1232.5" y="-480.9" font-family="Arial" font-size="14.00" fill="#000000">deploy_type </text>
<text text-anchor="start" x="1311.866" y="-480.9" font-family="Arial" font-size="14.00" fill="#666666">[enum(&#39;runtime&#39;,&#39;static&#39;)]</text>
<polygon fill="none" stroke="#000000" points="1225.5,-439.5 1225.5,-469.5 1687.5,-469.5 1687.5,-439.5 1225.5,-439.5"/>
<text text-anchor="start" x="1232.5" y="-450.9" font-family="Arial" font-size="14.00" fill="#000000">running </text>
<text text-anchor="start" x="1283.0708" y="-450.9" font-family="Arial" font-size="14.00" fill="#666666">[tinyint(1)]</text>
<polygon fill="none" stroke="#000000" points="1225.5,-409.5 1225.5,-439.5 1687.5,-439.5 1687.5,-409.5 1225.5,-409.5"/>
<text text-anchor="start" x="1232.1857" y="-420.9" font-family="Arial" font-size="14.00" fill="#000000">container </text>
<text text-anchor="start" x="1293.6471" y="-420.9" font-family="Arial" font-size="14.00" fill="#666666">[enum(&#39;missing&#39;,&#39;starting&#39;,&#39;running&#39;,&#39;exited&#39;,&#39;errored&#39;,&#39;unknown&#39;)]</text>
<polygon fill="none" stroke="#000000" points="1225.5,-379.5 1225.5,-409.5 1687.5,-409.5 1687.5,-379.5 1225.5,-379.5"/>
<text text-anchor="start" x="1232.5" y="-390.9" font-family="Arial" font-size="14.00" fill="#000000">current_commit </text>
<text text-anchor="start" x="1332.8338" y="-390.9" font-family="Arial" font-size="14.00" fill="#666666">[char(40)]</text>
<polygon fill="none" stroke="#000000" points="1225.5,-349.5 1225.5,-379.5 1687.5,-379.5 1687.5,-349.5 1225.5,-349.5"/>
<text text-anchor="start" x="1232.5" y="-360.9" font-family="Arial" font-size="14.00" fill="#000000">want_commit </text>
<text text-anchor="start" x="1318.8366" y="-360.9" font-family="Arial" font-size="14.00" fill="#666666">[char(40)]</text>
<polygon fill="none" stroke="#000000" points="1225.5,-319.5 1225.5,-349.5 1687.5,-349.5 1687.5,-319.5 1225.5,-319.5"/>
<text text-anchor="start" x="1232.5" y="-330.9" font-family="Arial" font-size="14.00" fill="#000000">created_at </text>
<text text-anchor="start" x="1302.528" y="-330.9" font-family="Arial" font-size="14.00" fill="#666666">[datetime(6)]</text>
<polygon fill="none" stroke="#000000" points="1225.5,-289.5 1225.5,-319.5 1687.5,-319.5 1687.5,-289.5 1225.5,-289.5"/>
<text text-anchor="start" x="1232.5" y="-300.9" font-family="Arial" font-size="14.00" fill="#000000">updated_at </text>
<text text-anchor="start" x="1306.4326" y="-300.9" font-family="Arial" font-size="14.00" fill="#666666">[datetime(6)]</text>
</g>
<!-- repositories -->
<g id="node8" class="node">
<title>repositories</title>
<polygon fill="#efefef" stroke="transparent" points="247.5,-132.5 247.5,-167.5 451.5,-167.5 451.5,-132.5 247.5,-132.5"/>
<polygon fill="none" stroke="#000000" points="247.5,-132.5 247.5,-167.5 451.5,-167.5 451.5,-132.5 247.5,-132.5"/>
<text text-anchor="start" x="254.3701" y="-145.3" font-family="Arial Bold" font-size="18.00" fill="#000000">repositories</text>
<text text-anchor="start" x="347.3761" y="-145.3" font-family="Arial" font-size="14.00" fill="#000000"> </text>
<text text-anchor="start" x="351.2667" y="-145.3" font-family="Arial" font-size="14.00" fill="#666666">[BASE TABLE]</text>
<polygon fill="none" stroke="#000000" points="247.5,-102.5 247.5,-132.5 451.5,-132.5 451.5,-102.5 247.5,-102.5"/>
<text text-anchor="start" x="254.5" y="-113.9" font-family="Arial" font-size="14.00" fill="#000000">id </text>
<text text-anchor="start" x="269.2798" y="-113.9" font-family="Arial" font-size="14.00" fill="#666666">[char(22)]</text>
<polygon fill="none" stroke="#000000" points="247.5,-72.5 247.5,-102.5 451.5,-102.5 451.5,-72.5 247.5,-72.5"/>
<text text-anchor="start" x="254.5" y="-83.9" font-family="Arial" font-size="14.00" fill="#000000">name </text>
<text text-anchor="start" x="293.399" y="-83.9" font-family="Arial" font-size="14.00" fill="#666666">[varchar(256)]</text>
<polygon fill="none" stroke="#000000" points="247.5,-42.5 247.5,-72.5 451.5,-72.5 451.5,-42.5 247.5,-42.5"/>
<text text-anchor="start" x="254.5" y="-53.9" font-family="Arial" font-size="14.00" fill="#000000">url </text>
<text text-anchor="start" x="273.9404" y="-53.9" font-family="Arial" font-size="14.00" fill="#666666">[varchar(256)]</text>
</g>
<!-- applications&#45;&gt;repositories -->
<g id="edge1" class="edge">
<title>applications:repository_id&#45;&gt;repositories:id</title>
<path fill="none" stroke="#000000" d="M1215.2342,-544.4016C832.7993,-537.0271 840.9231,-117.5 451.5,-117.5"/>
<polygon fill="#000000" stroke="#000000" points="1215.5005,-544.4041 1225.4568,-548.9998 1220.5002,-544.452 1225.5,-544.5 1225.5,-544.5 1225.5,-544.5 1220.5002,-544.452 1225.5432,-540.0002 1215.5005,-544.4041 1215.5005,-544.4041"/>
<text text-anchor="start" x="941.611" y="-554.5" font-family="Arial" font-size="10.00" fill="#000000">FOREIGN KEY (repository_id) REFERENCES repositories (id)</text>
</g>
<!-- application_config -->
<g id="node2" class="node">
<title>application_config</title>
<polygon fill="#efefef" stroke="transparent" points="898.5,-1106.5 898.5,-1141.5 1418.5,-1141.5 1418.5,-1106.5 898.5,-1106.5"/>
<polygon fill="none" stroke="#000000" points="898.5,-1106.5 898.5,-1141.5 1418.5,-1141.5 1418.5,-1106.5 898.5,-1106.5"/>
<text text-anchor="start" x="1037.8515" y="-1119.3" font-family="Arial Bold" font-size="18.00" fill="#000000">application_config</text>
<text text-anchor="start" x="1181.8947" y="-1119.3" font-family="Arial" font-size="14.00" fill="#000000"> </text>
<text text-anchor="start" x="1185.7853" y="-1119.3" font-family="Arial" font-size="14.00" fill="#666666">[BASE TABLE]</text>
<polygon fill="none" stroke="#000000" points="898.5,-1076.5 898.5,-1106.5 1418.5,-1106.5 1418.5,-1076.5 898.5,-1076.5"/>
<text text-anchor="start" x="905.5" y="-1087.9" font-family="Arial" font-size="14.00" fill="#000000">application_id </text>
<text text-anchor="start" x="994.9684" y="-1087.9" font-family="Arial" font-size="14.00" fill="#666666">[char(22)]</text>
<polygon fill="none" stroke="#000000" points="898.5,-1046.5 898.5,-1076.5 1418.5,-1076.5 1418.5,-1046.5 898.5,-1046.5"/>
<text text-anchor="start" x="905.5" y="-1057.9" font-family="Arial" font-size="14.00" fill="#000000">use_mariadb </text>
<text text-anchor="start" x="990.2966" y="-1057.9" font-family="Arial" font-size="14.00" fill="#666666">[tinyint(1)]</text>
<polygon fill="none" stroke="#000000" points="898.5,-1016.5 898.5,-1046.5 1418.5,-1046.5 1418.5,-1016.5 898.5,-1016.5"/>
<text text-anchor="start" x="905.5" y="-1027.9" font-family="Arial" font-size="14.00" fill="#000000">use_mongodb </text>
<text text-anchor="start" x="998.0946" y="-1027.9" font-family="Arial" font-size="14.00" fill="#666666">[tinyint(1)]</text>
<polygon fill="none" stroke="#000000" points="898.5,-986.5 898.5,-1016.5 1418.5,-1016.5 1418.5,-986.5 898.5,-986.5"/>
<text text-anchor="start" x="905.3975" y="-997.9" font-family="Arial" font-size="14.00" fill="#000000">build_type </text>
<text text-anchor="start" x="973.0875" y="-997.9" font-family="Arial" font-size="14.00" fill="#666666">[enum(&#39;runtime&#45;cmd&#39;,&#39;runtime&#45;dockerfile&#39;,&#39;static&#45;cmd&#39;,&#39;static&#45;dockerfile&#39;)]</text>
<polygon fill="none" stroke="#000000" points="898.5,-956.5 898.5,-986.5 1418.5,-986.5 1418.5,-956.5 898.5,-956.5"/>
<text text-anchor="start" x="905.5" y="-967.9" font-family="Arial" font-size="14.00" fill="#000000">base_image </text>
<text text-anchor="start" x="985.636" y="-967.9" font-family="Arial" font-size="14.00" fill="#666666">[varchar(1000)]</text>
<polygon fill="none" stroke="#000000" points="898.5,-926.5 898.5,-956.5 1418.5,-956.5 1418.5,-926.5 898.5,-926.5"/>
<text text-anchor="start" x="905.5" y="-937.9" font-family="Arial" font-size="14.00" fill="#000000">build_cmd </text>
<text text-anchor="start" x="973.1774" y="-937.9" font-family="Arial" font-size="14.00" fill="#666666">[text]</text>
<polygon fill="none" stroke="#000000" points="898.5,-896.5 898.5,-926.5 1418.5,-926.5 1418.5,-896.5 898.5,-896.5"/>
<text text-anchor="start" x="905.5" y="-907.9" font-family="Arial" font-size="14.00" fill="#000000">build_cmd_shell </text>
<text text-anchor="start" x="1009.7384" y="-907.9" font-family="Arial" font-size="14.00" fill="#666666">[tinyint(1)]</text>
<polygon fill="none" stroke="#000000" points="898.5,-866.5 898.5,-896.5 1418.5,-896.5 1418.5,-866.5 898.5,-866.5"/>
<text text-anchor="start" x="905.5" y="-877.9" font-family="Arial" font-size="14.00" fill="#000000">artifact_path </text>
<text text-anchor="start" x="986.4158" y="-877.9" font-family="Arial" font-size="14.00" fill="#666666">[varchar(100)]</text>
<polygon fill="none" stroke="#000000" points="898.5,-836.5 898.5,-866.5 1418.5,-866.5 1418.5,-836.5 898.5,-836.5"/>
<text text-anchor="start" x="905.5" y="-847.9" font-family="Arial" font-size="14.00" fill="#000000">dockerfile_name </text>
<text text-anchor="start" x="1012.0764" y="-847.9" font-family="Arial" font-size="14.00" fill="#666666">[varchar(100)]</text>
<polygon fill="none" stroke="#000000" points="898.5,-806.5 898.5,-836.5 1418.5,-836.5 1418.5,-806.5 898.5,-806.5"/>
<text text-anchor="start" x="905.5" y="-817.9" font-family="Arial" font-size="14.00" fill="#000000">entrypoint </text>
<text text-anchor="start" x="970.852" y="-817.9" font-family="Arial" font-size="14.00" fill="#666666">[text]</text>
<polygon fill="none" stroke="#000000" points="898.5,-776.5 898.5,-806.5 1418.5,-806.5 1418.5,-776.5 898.5,-776.5"/>
<text text-anchor="start" x="905.5" y="-787.9" font-family="Arial" font-size="14.00" fill="#000000">command </text>
<text text-anchor="start" x="970.8422" y="-787.9" font-family="Arial" font-size="14.00" fill="#666666">[text]</text>
</g>
<!-- application_config&#45;&gt;applications -->
<g id="edge2" class="edge">
<title>application_config:application_id&#45;&gt;applications:id</title>
<path fill="none" stroke="#000000" d="M1428.5596,-1089.7539C1495.3232,-1065.3459 1466.9843,-792.3643 1418.5,-734 1362.7429,-666.8809 1281.2571,-765.1191 1225.5,-698 1198.9461,-666.0351 1183.9444,-604.5 1225.5,-604.5"/>
<polygon fill="#000000" stroke="#000000" points="1428.3527,-1089.7897 1417.7304,-1087.0663 1423.4263,-1090.6449 1418.5,-1091.5 1418.5,-1091.5 1418.5,-1091.5 1423.4263,-1090.6449 1419.2696,-1095.9337 1428.3527,-1089.7897 1428.3527,-1089.7897"/>
<text text-anchor="start" x="1425.102" y="-1101.5" font-family="Arial" font-size="10.00" fill="#000000">FOREIGN KEY (application_id) REFERENCES applications (id)</text>
</g>
<!-- application_owners -->
<g id="node3" class="node">
<title>application_owners</title>
<polygon fill="#efefef" stroke="transparent" points="529.5,-971.5 529.5,-1006.5 794.5,-1006.5 794.5,-971.5 529.5,-971.5"/>
<polygon fill="none" stroke="#000000" points="529.5,-971.5 529.5,-1006.5 794.5,-1006.5 794.5,-971.5 529.5,-971.5"/>
<text text-anchor="start" x="536.3565" y="-984.3" font-family="Arial Bold" font-size="18.00" fill="#000000">application_owners</text>
<text text-anchor="start" x="690.3897" y="-984.3" font-family="Arial" font-size="14.00" fill="#000000"> </text>
<text text-anchor="start" x="694.2803" y="-984.3" font-family="Arial" font-size="14.00" fill="#666666">[BASE TABLE]</text>
<polygon fill="none" stroke="#000000" points="529.5,-941.5 529.5,-971.5 794.5,-971.5 794.5,-941.5 529.5,-941.5"/>
<text text-anchor="start" x="536.5" y="-952.9" font-family="Arial" font-size="14.00" fill="#000000">user_id </text>
<text text-anchor="start" x="586.2882" y="-952.9" font-family="Arial" font-size="14.00" fill="#666666">[char(22)]</text>
<polygon fill="none" stroke="#000000" points="529.5,-911.5 529.5,-941.5 794.5,-941.5 794.5,-911.5 529.5,-911.5"/>
<text text-anchor="start" x="536.5" y="-922.9" font-family="Arial" font-size="14.00" fill="#000000">application_id </text>
<text text-anchor="start" x="625.9684" y="-922.9" font-family="Arial" font-size="14.00" fill="#666666">[char(22)]</text>
</g>
<!-- application_owners&#45;&gt;applications -->
<g id="edge3" class="edge">
<title>application_owners:application_id&#45;&gt;applications:id</title>
<path fill="none" stroke="#000000" d="M804.4905,-925.8681C875.4137,-916.1211 788.4024,-796.0282 846.5,-734 907.3428,-669.0408 1136.4969,-604.5 1225.5,-604.5"/>
<polygon fill="#000000" stroke="#000000" points="804.4801,-925.8687 794.2159,-922.009 799.49,-926.1843 794.5,-926.5 794.5,-926.5 794.5,-926.5 799.49,-926.1843 794.7841,-930.991 804.4801,-925.8687 804.4801,-925.8687"/>
<text text-anchor="start" x="801.102" y="-936.5" font-family="Arial" font-size="10.00" fill="#000000">FOREIGN KEY (application_id) REFERENCES applications (id)</text>
</g>
<!-- users -->
<g id="node11" class="node">
<title>users</title>
<polygon fill="#efefef" stroke="transparent" points="476.5,-499.5 476.5,-534.5 631.5,-534.5 631.5,-499.5 476.5,-499.5"/>
<polygon fill="none" stroke="#000000" points="476.5,-499.5 476.5,-534.5 631.5,-534.5 631.5,-499.5 476.5,-499.5"/>
<text text-anchor="start" x="483.3708" y="-512.3" font-family="Arial Bold" font-size="18.00" fill="#000000">users</text>
<text text-anchor="start" x="527.3754" y="-512.3" font-family="Arial" font-size="14.00" fill="#000000"> </text>
<text text-anchor="start" x="531.266" y="-512.3" font-family="Arial" font-size="14.00" fill="#666666">[BASE TABLE]</text>
<polygon fill="none" stroke="#000000" points="476.5,-469.5 476.5,-499.5 631.5,-499.5 631.5,-469.5 476.5,-469.5"/>
<text text-anchor="start" x="483.5" y="-480.9" font-family="Arial" font-size="14.00" fill="#000000">id </text>
<text text-anchor="start" x="498.2798" y="-480.9" font-family="Arial" font-size="14.00" fill="#666666">[char(22)]</text>
<polygon fill="none" stroke="#000000" points="476.5,-439.5 476.5,-469.5 631.5,-469.5 631.5,-439.5 476.5,-439.5"/>
<text text-anchor="start" x="483.5" y="-450.9" font-family="Arial" font-size="14.00" fill="#000000">name </text>
<text text-anchor="start" x="522.399" y="-450.9" font-family="Arial" font-size="14.00" fill="#666666">[varchar(255)]</text>
<polygon fill="none" stroke="#000000" points="476.5,-409.5 476.5,-439.5 631.5,-439.5 631.5,-409.5 476.5,-409.5"/>
<text text-anchor="start" x="483.5" y="-420.9" font-family="Arial" font-size="14.00" fill="#000000">admin </text>
<text text-anchor="start" x="525.5056" y="-420.9" font-family="Arial" font-size="14.00" fill="#666666">[tinyint(1)]</text>
</g>
<!-- application_owners&#45;&gt;users -->
<g id="edge4" class="edge">
<title>application_owners:user_id&#45;&gt;users:id</title>
<path fill="none" stroke="#000000" d="M519.4208,-956.1141C332.3131,-940.9582 842.5572,-484.5 631.5,-484.5"/>
<polygon fill="#000000" stroke="#000000" points="519.5073,-956.1173 529.3278,-960.9967 524.5037,-956.3086 529.5,-956.5 529.5,-956.5 529.5,-956.5 524.5037,-956.3086 529.6722,-952.0033 519.5073,-956.1173 519.5073,-956.1173"/>
<text text-anchor="start" x="296.445" y="-966.5" font-family="Arial" font-size="10.00" fill="#000000">FOREIGN KEY (user_id) REFERENCES users (id)</text>
</g>
<!-- artifacts -->
<g id="node4" class="node">
<title>artifacts</title>
<polygon fill="#efefef" stroke="transparent" points="1667.5,-1413.5 1667.5,-1448.5 1841.5,-1448.5 1841.5,-1413.5 1667.5,-1413.5"/>
<polygon fill="none" stroke="#000000" points="1667.5,-1413.5 1667.5,-1448.5 1841.5,-1448.5 1841.5,-1413.5 1667.5,-1413.5"/>
<text text-anchor="start" x="1674.3704" y="-1426.3" font-family="Arial Bold" font-size="18.00" fill="#000000">artifacts</text>
<text text-anchor="start" x="1737.3758" y="-1426.3" font-family="Arial" font-size="14.00" fill="#000000"> </text>
<text text-anchor="start" x="1741.2664" y="-1426.3" font-family="Arial" font-size="14.00" fill="#666666">[BASE TABLE]</text>
<polygon fill="none" stroke="#000000" points="1667.5,-1383.5 1667.5,-1413.5 1841.5,-1413.5 1841.5,-1383.5 1667.5,-1383.5"/>
<text text-anchor="start" x="1674.5" y="-1394.9" font-family="Arial" font-size="14.00" fill="#000000">id </text>
<text text-anchor="start" x="1689.2798" y="-1394.9" font-family="Arial" font-size="14.00" fill="#666666">[char(22)]</text>
<polygon fill="none" stroke="#000000" points="1667.5,-1353.5 1667.5,-1383.5 1841.5,-1383.5 1841.5,-1353.5 1667.5,-1353.5"/>
<text text-anchor="start" x="1674.5" y="-1364.9" font-family="Arial" font-size="14.00" fill="#000000">size </text>
<text text-anchor="start" x="1703.2798" y="-1364.9" font-family="Arial" font-size="14.00" fill="#666666">[bigint(20)]</text>
<polygon fill="none" stroke="#000000" points="1667.5,-1323.5 1667.5,-1353.5 1841.5,-1353.5 1841.5,-1323.5 1667.5,-1323.5"/>
<text text-anchor="start" x="1674.5" y="-1334.9" font-family="Arial" font-size="14.00" fill="#000000">created_at </text>
<text text-anchor="start" x="1744.528" y="-1334.9" font-family="Arial" font-size="14.00" fill="#666666">[datetime(6)]</text>
<polygon fill="none" stroke="#000000" points="1667.5,-1293.5 1667.5,-1323.5 1841.5,-1323.5 1841.5,-1293.5 1667.5,-1293.5"/>
<text text-anchor="start" x="1674.5" y="-1304.9" font-family="Arial" font-size="14.00" fill="#000000">deleted_at </text>
<text text-anchor="start" x="1743.7566" y="-1304.9" font-family="Arial" font-size="14.00" fill="#666666">[datetime(6)]</text>
<polygon fill="none" stroke="#000000" points="1667.5,-1263.5 1667.5,-1293.5 1841.5,-1293.5 1841.5,-1263.5 1667.5,-1263.5"/>
<text text-anchor="start" x="1674.5" y="-1274.9" font-family="Arial" font-size="14.00" fill="#000000">build_id </text>
<text text-anchor="start" x="1726.6234" y="-1274.9" font-family="Arial" font-size="14.00" fill="#666666">[varchar(22)]</text>
</g>
<!-- builds -->
<g id="node6" class="node">
<title>builds</title>
<polygon fill="#efefef" stroke="transparent" points="1522.5,-1061.5 1522.5,-1096.5 1986.5,-1096.5 1986.5,-1061.5 1522.5,-1061.5"/>
<polygon fill="none" stroke="#000000" points="1522.5,-1061.5 1522.5,-1096.5 1986.5,-1096.5 1986.5,-1061.5 1522.5,-1061.5"/>
<text text-anchor="start" x="1682.3696" y="-1074.3" font-family="Arial Bold" font-size="18.00" fill="#000000">builds</text>
<text text-anchor="start" x="1729.3766" y="-1074.3" font-family="Arial" font-size="14.00" fill="#000000"> </text>
<text text-anchor="start" x="1733.2672" y="-1074.3" font-family="Arial" font-size="14.00" fill="#666666">[BASE TABLE]</text>
<polygon fill="none" stroke="#000000" points="1522.5,-1031.5 1522.5,-1061.5 1986.5,-1061.5 1986.5,-1031.5 1522.5,-1031.5"/>
<text text-anchor="start" x="1529.5" y="-1042.9" font-family="Arial" font-size="14.00" fill="#000000">id </text>
<text text-anchor="start" x="1544.2798" y="-1042.9" font-family="Arial" font-size="14.00" fill="#666666">[char(22)]</text>
<polygon fill="none" stroke="#000000" points="1522.5,-1001.5 1522.5,-1031.5 1986.5,-1031.5 1986.5,-1001.5 1522.5,-1001.5"/>
<text text-anchor="start" x="1529.5" y="-1012.9" font-family="Arial" font-size="14.00" fill="#000000">commit </text>
<text text-anchor="start" x="1578.4916" y="-1012.9" font-family="Arial" font-size="14.00" fill="#666666">[char(40)]</text>
<polygon fill="none" stroke="#000000" points="1522.5,-971.5 1522.5,-1001.5 1986.5,-1001.5 1986.5,-971.5 1522.5,-971.5"/>
<text text-anchor="start" x="1529.3779" y="-982.9" font-family="Arial" font-size="14.00" fill="#000000">status </text>
<text text-anchor="start" x="1570.6149" y="-982.9" font-family="Arial" font-size="14.00" fill="#666666">[enum(&#39;building&#39;,&#39;succeeded&#39;,&#39;failed&#39;,&#39;canceled&#39;,&#39;queued&#39;,&#39;skipped&#39;)]</text>
<polygon fill="none" stroke="#000000" points="1522.5,-941.5 1522.5,-971.5 1986.5,-971.5 1986.5,-941.5 1522.5,-941.5"/>
<text text-anchor="start" x="1529.5" y="-952.9" font-family="Arial" font-size="14.00" fill="#000000">started_at </text>
<text text-anchor="start" x="1595.636" y="-952.9" font-family="Arial" font-size="14.00" fill="#666666">[datetime(6)]</text>
<polygon fill="none" stroke="#000000" points="1522.5,-911.5 1522.5,-941.5 1986.5,-941.5 1986.5,-911.5 1522.5,-911.5"/>
<text text-anchor="start" x="1529.5" y="-922.9" font-family="Arial" font-size="14.00" fill="#000000">updated_at </text>
<text text-anchor="start" x="1603.4326" y="-922.9" font-family="Arial" font-size="14.00" fill="#666666">[datetime(6)]</text>
<polygon fill="none" stroke="#000000" points="1522.5,-881.5 1522.5,-911.5 1986.5,-911.5 1986.5,-881.5 1522.5,-881.5"/>
<text text-anchor="start" x="1529.5" y="-892.9" font-family="Arial" font-size="14.00" fill="#000000">finished_at </text>
<text text-anchor="start" x="1601.0806" y="-892.9" font-family="Arial" font-size="14.00" fill="#666666">[datetime(6)]</text>
<polygon fill="none" stroke="#000000" points="1522.5,-851.5 1522.5,-881.5 1986.5,-881.5 1986.5,-851.5 1522.5,-851.5"/>
<text text-anchor="start" x="1529.5" y="-862.9" font-family="Arial" font-size="14.00" fill="#000000">retriable </text>
<text text-anchor="start" x="1583.946" y="-862.9" font-family="Arial" font-size="14.00" fill="#666666">[tinyint(1)]</text>
<polygon fill="none" stroke="#000000" points="1522.5,-821.5 1522.5,-851.5 1986.5,-851.5 1986.5,-821.5 1522.5,-821.5"/>
<text text-anchor="start" x="1529.5" y="-832.9" font-family="Arial" font-size="14.00" fill="#000000">application_id </text>
<text text-anchor="start" x="1618.9684" y="-832.9" font-family="Arial" font-size="14.00" fill="#666666">[char(22)]</text>
</g>
<!-- artifacts&#45;&gt;builds -->
<g id="edge5" class="edge">
<title>artifacts:build_id&#45;&gt;builds:id</title>
<path fill="none" stroke="#000000" d="M1754.9647,-1253.4581C1764.8033,-1152.1703 1928.1828,-1237.109 1986.5,-1140 2007.8941,-1104.3748 2028.0556,-1046.5 1986.5,-1046.5"/>
<polygon fill="#000000" stroke="#000000" points="1754.9623,-1253.5107 1750.0048,-1263.292 1754.7312,-1258.5053 1754.5,-1263.5 1754.5,-1263.5 1754.5,-1263.5 1754.7312,-1258.5053 1758.9952,-1263.708 1754.9623,-1253.5107 1754.9623,-1253.5107"/>
<text text-anchor="start" x="1518.777" y="-1273.5" font-family="Arial" font-size="10.00" fill="#000000">FOREIGN KEY (build_id) REFERENCES builds (id)</text>
</g>
<!-- available_domains -->
<g id="node5" class="node">
<title>available_domains</title>
<polygon fill="#efefef" stroke="transparent" points="1945.5,-1368.5 1945.5,-1403.5 2205.5,-1403.5 2205.5,-1368.5 1945.5,-1368.5"/>
<polygon fill="none" stroke="#000000" points="1945.5,-1368.5 1945.5,-1403.5 2205.5,-1403.5 2205.5,-1368.5 1945.5,-1368.5"/>
<text text-anchor="start" x="1952.3576" y="-1381.3" font-family="Arial Bold" font-size="18.00" fill="#000000">available_domains</text>
<text text-anchor="start" x="2101.3886" y="-1381.3" font-family="Arial" font-size="14.00" fill="#000000"> </text>
<text text-anchor="start" x="2105.2792" y="-1381.3" font-family="Arial" font-size="14.00" fill="#666666">[BASE TABLE]</text>
<polygon fill="none" stroke="#000000" points="1945.5,-1338.5 1945.5,-1368.5 2205.5,-1368.5 2205.5,-1338.5 1945.5,-1338.5"/>
<text text-anchor="start" x="1952.5" y="-1349.9" font-family="Arial" font-size="14.00" fill="#000000">domain </text>
<text text-anchor="start" x="2002.2882" y="-1349.9" font-family="Arial" font-size="14.00" fill="#666666">[varchar(100)]</text>
<polygon fill="none" stroke="#000000" points="1945.5,-1308.5 1945.5,-1338.5 2205.5,-1338.5 2205.5,-1308.5 1945.5,-1308.5"/>
<text text-anchor="start" x="1952.5" y="-1319.9" font-family="Arial" font-size="14.00" fill="#000000">available </text>
<text text-anchor="start" x="2011.6234" y="-1319.9" font-family="Arial" font-size="14.00" fill="#666666">[tinyint(1)]</text>
</g>
<!-- builds&#45;&gt;applications -->
<g id="edge6" class="edge">
<title>builds:application_id&#45;&gt;applications:id</title>
<path fill="none" stroke="#000000" d="M1512.7983,-833.8288C1500.935,-825.1298 1511.2026,-797.1312 1522.5,-779 1565.702,-709.6648 1644.298,-767.3352 1687.5,-698 1709.4759,-662.7307 1729.0556,-604.5 1687.5,-604.5"/>
<polygon fill="#000000" stroke="#000000" points="1512.8588,-833.8454 1521.3054,-840.8386 1517.6794,-835.1727 1522.5,-836.5 1522.5,-836.5 1522.5,-836.5 1517.6794,-835.1727 1523.6946,-832.1614 1512.8588,-833.8454 1512.8588,-833.8454"/>
<text text-anchor="start" x="1529.102" y="-846.5" font-family="Arial" font-size="10.00" fill="#000000">FOREIGN KEY (application_id) REFERENCES applications (id)</text>
</g>
<!-- environments -->
<g id="node7" class="node">
<title>environments</title>
<polygon fill="#efefef" stroke="transparent" points="2091.5,-1001.5 2091.5,-1036.5 2310.5,-1036.5 2310.5,-1001.5 2091.5,-1001.5"/>
<polygon fill="none" stroke="#000000" points="2091.5,-1001.5 2091.5,-1036.5 2310.5,-1036.5 2310.5,-1001.5 2091.5,-1001.5"/>
<text text-anchor="start" x="2098.3641" y="-1014.3" font-family="Arial Bold" font-size="18.00" fill="#000000">environments</text>
<text text-anchor="start" x="2206.3821" y="-1014.3" font-family="Arial" font-size="14.00" fill="#000000"> </text>
<text text-anchor="start" x="2210.2727" y="-1014.3" font-family="Arial" font-size="14.00" fill="#666666">[BASE TABLE]</text>
<polygon fill="none" stroke="#000000" points="2091.5,-971.5 2091.5,-1001.5 2310.5,-1001.5 2310.5,-971.5 2091.5,-971.5"/>
<text text-anchor="start" x="2098.5" y="-982.9" font-family="Arial" font-size="14.00" fill="#000000">application_id </text>
<text text-anchor="start" x="2187.9684" y="-982.9" font-family="Arial" font-size="14.00" fill="#666666">[char(22)]</text>
<polygon fill="none" stroke="#000000" points="2091.5,-941.5 2091.5,-971.5 2310.5,-971.5 2310.5,-941.5 2091.5,-941.5"/>
<text text-anchor="start" x="2098.5" y="-952.9" font-family="Arial" font-size="14.00" fill="#000000">key </text>
<text text-anchor="start" x="2124.1732" y="-952.9" font-family="Arial" font-size="14.00" fill="#666666">[varchar(100)]</text>
<polygon fill="none" stroke="#000000" points="2091.5,-911.5 2091.5,-941.5 2310.5,-941.5 2310.5,-911.5 2091.5,-911.5"/>
<text text-anchor="start" x="2098.5" y="-922.9" font-family="Arial" font-size="14.00" fill="#000000">value </text>
<text text-anchor="start" x="2135.845" y="-922.9" font-family="Arial" font-size="14.00" fill="#666666">[text]</text>
<polygon fill="none" stroke="#000000" points="2091.5,-881.5 2091.5,-911.5 2310.5,-911.5 2310.5,-881.5 2091.5,-881.5"/>
<text text-anchor="start" x="2098.5" y="-892.9" font-family="Arial" font-size="14.00" fill="#000000">system </text>
<text text-anchor="start" x="2146.7244" y="-892.9" font-family="Arial" font-size="14.00" fill="#666666">[tinyint(1)]</text>
</g>
<!-- environments&#45;&gt;applications -->
<g id="edge7" class="edge">
<title>environments:application_id&#45;&gt;applications:id</title>
<path fill="none" stroke="#000000" d="M2081.4719,-986.022C1985.163,-976.2209 2111.087,-818.0884 2038.5,-734 1929.8467,-608.1306 1853.7788,-604.5 1687.5,-604.5"/>
<polygon fill="#000000" stroke="#000000" points="2081.5113,-986.0238 2091.2857,-990.9949 2086.5057,-986.2619 2091.5,-986.5 2091.5,-986.5 2091.5,-986.5 2086.5057,-986.2619 2091.7143,-982.0051 2081.5113,-986.0238 2081.5113,-986.0238"/>
<text text-anchor="start" x="2098.102" y="-996.5" font-family="Arial" font-size="10.00" fill="#000000">FOREIGN KEY (application_id) REFERENCES applications (id)</text>
</g>
<!-- repository_auth -->
<g id="node9" class="node">
<title>repository_auth</title>
<polygon fill="#efefef" stroke="transparent" points="43.5,-529.5 43.5,-564.5 278.5,-564.5 278.5,-529.5 43.5,-529.5"/>
<polygon fill="none" stroke="#000000" points="43.5,-529.5 43.5,-564.5 278.5,-564.5 278.5,-529.5 43.5,-529.5"/>
<text text-anchor="start" x="50.3568" y="-542.3" font-family="Arial Bold" font-size="18.00" fill="#000000">repository_auth</text>
<text text-anchor="start" x="174.3894" y="-542.3" font-family="Arial" font-size="14.00" fill="#000000"> </text>
<text text-anchor="start" x="178.28" y="-542.3" font-family="Arial" font-size="14.00" fill="#666666">[BASE TABLE]</text>
<polygon fill="none" stroke="#000000" points="43.5,-499.5 43.5,-529.5 278.5,-529.5 278.5,-499.5 43.5,-499.5"/>
<text text-anchor="start" x="50.5" y="-510.9" font-family="Arial" font-size="14.00" fill="#000000">repository_id </text>
<text text-anchor="start" x="134.5112" y="-510.9" font-family="Arial" font-size="14.00" fill="#666666">[char(22)]</text>
<polygon fill="none" stroke="#000000" points="43.5,-469.5 43.5,-499.5 278.5,-499.5 278.5,-469.5 43.5,-469.5"/>
<text text-anchor="start" x="50.5" y="-480.9" font-family="Arial" font-size="14.00" fill="#000000">method </text>
<text text-anchor="start" x="101.0722" y="-480.9" font-family="Arial" font-size="14.00" fill="#666666">[enum(&#39;basic&#39;,&#39;ssh&#39;)]</text>
<polygon fill="none" stroke="#000000" points="43.5,-439.5 43.5,-469.5 278.5,-469.5 278.5,-439.5 43.5,-439.5"/>
<text text-anchor="start" x="50.5" y="-450.9" font-family="Arial" font-size="14.00" fill="#000000">username </text>
<text text-anchor="start" x="116.6248" y="-450.9" font-family="Arial" font-size="14.00" fill="#666666">[varchar(256)]</text>
<polygon fill="none" stroke="#000000" points="43.5,-409.5 43.5,-439.5 278.5,-439.5 278.5,-409.5 43.5,-409.5"/>
<text text-anchor="start" x="50.5" y="-420.9" font-family="Arial" font-size="14.00" fill="#000000">password </text>
<text text-anchor="start" x="114.2882" y="-420.9" font-family="Arial" font-size="14.00" fill="#666666">[varchar(256)]</text>
<polygon fill="none" stroke="#000000" points="43.5,-379.5 43.5,-409.5 278.5,-409.5 278.5,-379.5 43.5,-379.5"/>
<text text-anchor="start" x="50.5" y="-390.9" font-family="Arial" font-size="14.00" fill="#000000">ssh_key </text>
<text text-anchor="start" x="105.7384" y="-390.9" font-family="Arial" font-size="14.00" fill="#666666">[text]</text>
</g>
<!-- repository_auth&#45;&gt;repositories -->
<g id="edge8" class="edge">
<title>repository_auth:repository_id&#45;&gt;repositories:id</title>
<path fill="none" stroke="#000000" d="M288.6369,-514.1515C406.2592,-505.6173 263.3852,-342.0564 247.5,-211 242.4997,-169.7464 205.9444,-117.5 247.5,-117.5"/>
<polygon fill="#000000" stroke="#000000" points="288.4941,-514.1563 278.3453,-510.0027 283.497,-514.3281 278.5,-514.5 278.5,-514.5 278.5,-514.5 283.497,-514.3281 278.6547,-518.9973 288.4941,-514.1563 288.4941,-514.1563"/>
<text text-anchor="start" x="212.861" y="-498.5" font-family="Arial" font-size="10.00" fill="#000000">FOREIGN KEY (repository_id) REFERENCES repositories (id)</text>
</g>
<!-- repository_owners -->
<g id="node10" class="node">
<title>repository_owners</title>
<polygon fill="#efefef" stroke="transparent" points="166.5,-971.5 166.5,-1006.5 424.5,-1006.5 424.5,-971.5 166.5,-971.5"/>
<polygon fill="none" stroke="#000000" points="166.5,-971.5 166.5,-1006.5 424.5,-1006.5 424.5,-971.5 166.5,-971.5"/>
<text text-anchor="start" x="173.3647" y="-984.3" font-family="Arial Bold" font-size="18.00" fill="#000000">repository_owners</text>
<text text-anchor="start" x="320.3815" y="-984.3" font-family="Arial" font-size="14.00" fill="#000000"> </text>
<text text-anchor="start" x="324.2721" y="-984.3" font-family="Arial" font-size="14.00" fill="#666666">[BASE TABLE]</text>
<polygon fill="none" stroke="#000000" points="166.5,-941.5 166.5,-971.5 424.5,-971.5 424.5,-941.5 166.5,-941.5"/>
<text text-anchor="start" x="173.5" y="-952.9" font-family="Arial" font-size="14.00" fill="#000000">user_id </text>
<text text-anchor="start" x="223.2882" y="-952.9" font-family="Arial" font-size="14.00" fill="#666666">[char(22)]</text>
<polygon fill="none" stroke="#000000" points="166.5,-911.5 166.5,-941.5 424.5,-941.5 424.5,-911.5 166.5,-911.5"/>
<text text-anchor="start" x="173.5" y="-922.9" font-family="Arial" font-size="14.00" fill="#000000">repository_id </text>
<text text-anchor="start" x="257.5112" y="-922.9" font-family="Arial" font-size="14.00" fill="#666666">[char(22)]</text>
</g>
<!-- repository_owners&#45;&gt;repositories -->
<g id="edge9" class="edge">
<title>repository_owners:repository_id&#45;&gt;repositories:id</title>
<path fill="none" stroke="#000000" d="M296.3749,-901.356C306.8833,-814.0506 408.7793,-279.4682 423.5,-247 431.87,-228.539 444.9217,-230.1726 451.5,-211 464.9863,-171.6937 493.0556,-117.5 451.5,-117.5"/>
<polygon fill="#000000" stroke="#000000" points="296.3594,-901.537 291.0166,-911.1133 295.9297,-906.5185 295.5,-911.5 295.5,-911.5 295.5,-911.5 295.9297,-906.5185 299.9834,-911.8867 296.3594,-901.537 296.3594,-901.537"/>
<text text-anchor="start" x="11.611" y="-921.5" font-family="Arial" font-size="10.00" fill="#000000">FOREIGN KEY (repository_id) REFERENCES repositories (id)</text>
</g>
<!-- repository_owners&#45;&gt;users -->
<g id="edge10" class="edge">
<title>repository_owners:user_id&#45;&gt;users:id</title>
<path fill="none" stroke="#000000" d="M434.4142,-954.8835C519.4602,-924.7858 374.5833,-484.5 476.5,-484.5"/>
<polygon fill="#000000" stroke="#000000" points="434.3697,-954.8906 423.7758,-952.0587 429.4348,-955.6953 424.5,-956.5 424.5,-956.5 424.5,-956.5 429.4348,-955.6953 425.2242,-960.9413 434.3697,-954.8906 434.3697,-954.8906"/>
<text text-anchor="start" x="311.445" y="-940.5" font-family="Arial" font-size="10.00" fill="#000000">FOREIGN KEY (user_id) REFERENCES users (id)</text>
</g>
<!-- websites -->
<g id="node12" class="node">
<title>websites</title>
<polygon fill="#efefef" stroke="transparent" points="2414.5,-1061.5 2414.5,-1096.5 2663.5,-1096.5 2663.5,-1061.5 2414.5,-1061.5"/>
<polygon fill="none" stroke="#000000" points="2414.5,-1061.5 2414.5,-1096.5 2663.5,-1096.5 2663.5,-1061.5 2414.5,-1061.5"/>
<text text-anchor="start" x="2455.3685" y="-1074.3" font-family="Arial Bold" font-size="18.00" fill="#000000">websites</text>
<text text-anchor="start" x="2525.3777" y="-1074.3" font-family="Arial" font-size="14.00" fill="#000000"> </text>
<text text-anchor="start" x="2529.2683" y="-1074.3" font-family="Arial" font-size="14.00" fill="#666666">[BASE TABLE]</text>
<polygon fill="none" stroke="#000000" points="2414.5,-1031.5 2414.5,-1061.5 2663.5,-1061.5 2663.5,-1031.5 2414.5,-1031.5"/>
<text text-anchor="start" x="2421.5" y="-1042.9" font-family="Arial" font-size="14.00" fill="#000000">id </text>
<text text-anchor="start" x="2436.2798" y="-1042.9" font-family="Arial" font-size="14.00" fill="#666666">[char(22)]</text>
<polygon fill="none" stroke="#000000" points="2414.5,-1001.5 2414.5,-1031.5 2663.5,-1031.5 2663.5,-1001.5 2414.5,-1001.5"/>
<text text-anchor="start" x="2421.5" y="-1012.9" font-family="Arial" font-size="14.00" fill="#000000">fqdn </text>
<text text-anchor="start" x="2452.629" y="-1012.9" font-family="Arial" font-size="14.00" fill="#666666">[varchar(100)]</text>
<polygon fill="none" stroke="#000000" points="2414.5,-971.5 2414.5,-1001.5 2663.5,-1001.5 2663.5,-971.5 2414.5,-971.5"/>
<text text-anchor="start" x="2421.5" y="-982.9" font-family="Arial" font-size="14.00" fill="#000000">path_prefix </text>
<text text-anchor="start" x="2494.6346" y="-982.9" font-family="Arial" font-size="14.00" fill="#666666">[varchar(100)]</text>
<polygon fill="none" stroke="#000000" points="2414.5,-941.5 2414.5,-971.5 2663.5,-971.5 2663.5,-941.5 2414.5,-941.5"/>
<text text-anchor="start" x="2421.5" y="-952.9" font-family="Arial" font-size="14.00" fill="#000000">strip_prefix </text>
<text text-anchor="start" x="2493.8366" y="-952.9" font-family="Arial" font-size="14.00" fill="#666666">[tinyint(1)]</text>
<polygon fill="none" stroke="#000000" points="2414.5,-911.5 2414.5,-941.5 2663.5,-941.5 2663.5,-911.5 2414.5,-911.5"/>
<text text-anchor="start" x="2421.5" y="-922.9" font-family="Arial" font-size="14.00" fill="#000000">https </text>
<text text-anchor="start" x="2455.737" y="-922.9" font-family="Arial" font-size="14.00" fill="#666666">[tinyint(1)]</text>
<polygon fill="none" stroke="#000000" points="2414.5,-881.5 2414.5,-911.5 2663.5,-911.5 2663.5,-881.5 2414.5,-881.5"/>
<text text-anchor="start" x="2421.5" y="-892.9" font-family="Arial" font-size="14.00" fill="#000000">http_port </text>
<text text-anchor="start" x="2480.636" y="-892.9" font-family="Arial" font-size="14.00" fill="#666666">[int(11)]</text>
<polygon fill="none" stroke="#000000" points="2414.5,-851.5 2414.5,-881.5 2663.5,-881.5 2663.5,-851.5 2414.5,-851.5"/>
<text text-anchor="start" x="2421.19" y="-862.9" font-family="Arial" font-size="14.00" fill="#000000">authentication </text>
<text text-anchor="start" x="2512.2264" y="-862.9" font-family="Arial" font-size="14.00" fill="#666666">[enum(&#39;off&#39;,&#39;soft&#39;,&#39;hard&#39;)]</text>
<polygon fill="none" stroke="#000000" points="2414.5,-821.5 2414.5,-851.5 2663.5,-851.5 2663.5,-821.5 2414.5,-821.5"/>
<text text-anchor="start" x="2421.5" y="-832.9" font-family="Arial" font-size="14.00" fill="#000000">application_id </text>
<text text-anchor="start" x="2510.9684" y="-832.9" font-family="Arial" font-size="14.00" fill="#666666">[char(22)]</text>
</g>
<!-- websites&#45;&gt;applications -->
<g id="edge11" class="edge">
<title>websites:application_id&#45;&gt;applications:id</title>
<path fill="none" stroke="#000000" d="M2404.5593,-835.3601C2368.894,-826.0725 2400.2782,-762.4477 2362.5,-734 2240.4886,-642.1231 1840.2356,-604.5 1687.5,-604.5"/>
<polygon fill="#000000" stroke="#000000" points="2404.5651,-835.3607 2413.9873,-840.9707 2409.5326,-835.9303 2414.5,-836.5 2414.5,-836.5 2414.5,-836.5 2409.5326,-835.9303 2415.0127,-832.0293 2404.5651,-835.3607 2404.5651,-835.3607"/>
<text text-anchor="start" x="2125.102" y="-820.5" font-family="Arial" font-size="10.00" fill="#000000">FOREIGN KEY (application_id) REFERENCES applications (id)</text>
</g>
</g>
</svg>
