<?xml version="1.0" encoding="UTF-8" standalone="no"?>
<!DOCTYPE svg PUBLIC "-//W3C//DTD SVG 1.1//EN"
 "http://www.w3.org/Graphics/SVG/1.1/DTD/svg11.dtd">
<!-- Generated by graphviz version 2.40.1 (20161225.0304)
 -->
<!-- Title: neoshowcase Pages: 1 -->
<svg width="1482pt" height="1290pt"
 viewBox="0.00 0.00 1482.00 1290.00" xmlns="http://www.w3.org/2000/svg" xmlns:xlink="http://www.w3.org/1999/xlink">
<g id="graph0" class="graph" transform="scale(1 1) rotate(0) translate(4 1286)">
<title>neoshowcase</title>
<polygon fill="#ffffff" stroke="transparent" points="-4,4 -4,-1286 1478,-1286 1478,4 -4,4"/>
<!-- applications -->
<g id="node1" class="node">
<title>applications</title>
<polygon fill="#efefef" stroke="transparent" points="720,-559.5 720,-594.5 940,-594.5 940,-559.5 720,-559.5"/>
<polygon fill="none" stroke="#000000" points="720,-559.5 720,-594.5 940,-594.5 940,-559.5 720,-559.5"/>
<text text-anchor="start" x="733.8621" y="-572.3" font-family="Arial Bold" font-size="18.00" fill="#000000">applications</text>
<text text-anchor="start" x="828.8841" y="-572.3" font-family="Arial" font-size="14.00" fill="#000000"> </text>
<text text-anchor="start" x="832.7747" y="-572.3" font-family="Arial" font-size="14.00" fill="#666666">[BASE TABLE]</text>
<polygon fill="none" stroke="#000000" points="720,-529.5 720,-559.5 940,-559.5 940,-529.5 720,-529.5"/>
<text text-anchor="start" x="727" y="-540.9" font-family="Arial" font-size="14.00" fill="#000000">id </text>
<text text-anchor="start" x="741.7798" y="-540.9" font-family="Arial" font-size="14.00" fill="#666666">[varchar(22)]</text>
<polygon fill="none" stroke="#000000" points="720,-499.5 720,-529.5 940,-529.5 940,-499.5 720,-499.5"/>
<text text-anchor="start" x="727" y="-510.9" font-family="Arial" font-size="14.00" fill="#000000">repository_id </text>
<text text-anchor="start" x="811.0112" y="-510.9" font-family="Arial" font-size="14.00" fill="#666666">[varchar(22)]</text>
<polygon fill="none" stroke="#000000" points="720,-469.5 720,-499.5 940,-499.5 940,-469.5 720,-469.5"/>
<text text-anchor="start" x="727" y="-480.9" font-family="Arial" font-size="14.00" fill="#000000">branch_name </text>
<text text-anchor="start" x="816.4726" y="-480.9" font-family="Arial" font-size="14.00" fill="#666666">[varchar(100)]</text>
<polygon fill="none" stroke="#000000" points="720,-439.5 720,-469.5 940,-469.5 940,-439.5 720,-439.5"/>
<text text-anchor="start" x="726.5764" y="-450.9" font-family="Arial" font-size="14.00" fill="#000000">build_type </text>
<text text-anchor="start" x="794.2664" y="-450.9" font-family="Arial" font-size="14.00" fill="#666666">[enum(&#39;image&#39;,&#39;static&#39;)]</text>
<polygon fill="none" stroke="#000000" points="720,-409.5 720,-439.5 940,-439.5 940,-409.5 720,-409.5"/>
<text text-anchor="start" x="727" y="-420.9" font-family="Arial" font-size="14.00" fill="#000000">state </text>
<text text-anchor="start" x="761.237" y="-420.9" font-family="Arial" font-size="14.00" fill="#666666">[varchar(10)]</text>
<polygon fill="none" stroke="#000000" points="720,-379.5 720,-409.5 940,-409.5 940,-379.5 720,-379.5"/>
<text text-anchor="start" x="727" y="-390.9" font-family="Arial" font-size="14.00" fill="#000000">current_commit </text>
<text text-anchor="start" x="827.3338" y="-390.9" font-family="Arial" font-size="14.00" fill="#666666">[char(40)]</text>
<polygon fill="none" stroke="#000000" points="720,-349.5 720,-379.5 940,-379.5 940,-349.5 720,-349.5"/>
<text text-anchor="start" x="727" y="-360.9" font-family="Arial" font-size="14.00" fill="#000000">want_commit </text>
<text text-anchor="start" x="813.3366" y="-360.9" font-family="Arial" font-size="14.00" fill="#666666">[char(40)]</text>
<polygon fill="none" stroke="#000000" points="720,-319.5 720,-349.5 940,-349.5 940,-319.5 720,-319.5"/>
<text text-anchor="start" x="727" y="-330.9" font-family="Arial" font-size="14.00" fill="#000000">created_at </text>
<text text-anchor="start" x="797.028" y="-330.9" font-family="Arial" font-size="14.00" fill="#666666">[datetime(6)]</text>
<polygon fill="none" stroke="#000000" points="720,-289.5 720,-319.5 940,-319.5 940,-289.5 720,-289.5"/>
<text text-anchor="start" x="727" y="-300.9" font-family="Arial" font-size="14.00" fill="#000000">updated_at </text>
<text text-anchor="start" x="800.9326" y="-300.9" font-family="Arial" font-size="14.00" fill="#666666">[datetime(6)]</text>
</g>
<!-- application_state -->
<g id="node2" class="node">
<title>application_state</title>
<polygon fill="#efefef" stroke="transparent" points="543,-102.5 543,-137.5 789,-137.5 789,-102.5 543,-102.5"/>
<polygon fill="none" stroke="#000000" points="543,-102.5 543,-137.5 789,-137.5 789,-102.5 543,-102.5"/>
<text text-anchor="start" x="549.8506" y="-115.3" font-family="Arial Bold" font-size="18.00" fill="#000000">application_state</text>
<text text-anchor="start" x="684.8956" y="-115.3" font-family="Arial" font-size="14.00" fill="#000000"> </text>
<text text-anchor="start" x="688.7862" y="-115.3" font-family="Arial" font-size="14.00" fill="#666666">[BASE TABLE]</text>
<polygon fill="none" stroke="#000000" points="543,-72.5 543,-102.5 789,-102.5 789,-72.5 543,-72.5"/>
<text text-anchor="start" x="550" y="-83.9" font-family="Arial" font-size="14.00" fill="#000000">state </text>
<text text-anchor="start" x="584.237" y="-83.9" font-family="Arial" font-size="14.00" fill="#666666">[varchar(10)]</text>
</g>
<!-- applications&#45;&gt;application_state -->
<g id="edge2" class="edge">
<title>applications:state&#45;&gt;application_state:state</title>
<path fill="none" stroke="#000000" d="M709.9152,-424.3954C445.4179,-418.775 785.7884,-188.5161 789,-181 805.3281,-142.7867 830.5556,-87.5 789,-87.5"/>
<polygon fill="#000000" stroke="#000000" points="710.0005,-424.3962 719.9533,-428.9998 715.0003,-424.4481 720,-424.5 720,-424.5 720,-424.5 715.0003,-424.4481 720.0467,-420.0002 710.0005,-424.3962 710.0005,-424.3962"/>
<text text-anchor="start" x="434.261" y="-434.5" font-family="Arial" font-size="10.00" fill="#000000">FOREIGN KEY (state) REFERENCES application_state (state)</text>
</g>
<!-- repositories -->
<g id="node9" class="node">
<title>repositories</title>
<polygon fill="#efefef" stroke="transparent" points="893,-132.5 893,-167.5 1097,-167.5 1097,-132.5 893,-132.5"/>
<polygon fill="none" stroke="#000000" points="893,-132.5 893,-167.5 1097,-167.5 1097,-132.5 893,-132.5"/>
<text text-anchor="start" x="899.8701" y="-145.3" font-family="Arial Bold" font-size="18.00" fill="#000000">repositories</text>
<text text-anchor="start" x="992.8761" y="-145.3" font-family="Arial" font-size="14.00" fill="#000000"> </text>
<text text-anchor="start" x="996.7667" y="-145.3" font-family="Arial" font-size="14.00" fill="#666666">[BASE TABLE]</text>
<polygon fill="none" stroke="#000000" points="893,-102.5 893,-132.5 1097,-132.5 1097,-102.5 893,-102.5"/>
<text text-anchor="start" x="900" y="-113.9" font-family="Arial" font-size="14.00" fill="#000000">id </text>
<text text-anchor="start" x="914.7798" y="-113.9" font-family="Arial" font-size="14.00" fill="#666666">[varchar(22)]</text>
<polygon fill="none" stroke="#000000" points="893,-72.5 893,-102.5 1097,-102.5 1097,-72.5 893,-72.5"/>
<text text-anchor="start" x="900" y="-83.9" font-family="Arial" font-size="14.00" fill="#000000">name </text>
<text text-anchor="start" x="938.899" y="-83.9" font-family="Arial" font-size="14.00" fill="#666666">[varchar(256)]</text>
<polygon fill="none" stroke="#000000" points="893,-42.5 893,-72.5 1097,-72.5 1097,-42.5 893,-42.5"/>
<text text-anchor="start" x="900" y="-53.9" font-family="Arial" font-size="14.00" fill="#000000">url </text>
<text text-anchor="start" x="919.4404" y="-53.9" font-family="Arial" font-size="14.00" fill="#666666">[varchar(256)]</text>
</g>
<!-- applications&#45;&gt;repositories -->
<g id="edge1" class="edge">
<title>applications:repository_id&#45;&gt;repositories:id</title>
<path fill="none" stroke="#000000" d="M950.294,-514.0636C1054.8896,-504.8081 991.0359,-350.3782 940,-247 928.3521,-223.4061 904.6479,-234.5939 893,-211 874.6044,-173.7379 851.4444,-117.5 893,-117.5"/>
<polygon fill="#000000" stroke="#000000" points="949.991,-514.0764 939.8094,-510.004 944.9955,-514.2882 940,-514.5 940,-514.5 940,-514.5 944.9955,-514.2882 940.1906,-518.996 949.991,-514.0764 949.991,-514.0764"/>
<text text-anchor="start" x="947.111" y="-524.5" font-family="Arial" font-size="10.00" fill="#000000">FOREIGN KEY (repository_id) REFERENCES repositories (id)</text>
</g>
<!-- artifacts -->
<g id="node3" class="node">
<title>artifacts</title>
<polygon fill="#efefef" stroke="transparent" points="285,-1203.5 285,-1238.5 459,-1238.5 459,-1203.5 285,-1203.5"/>
<polygon fill="none" stroke="#000000" points="285,-1203.5 285,-1238.5 459,-1238.5 459,-1203.5 285,-1203.5"/>
<text text-anchor="start" x="291.8704" y="-1216.3" font-family="Arial Bold" font-size="18.00" fill="#000000">artifacts</text>
<text text-anchor="start" x="354.8758" y="-1216.3" font-family="Arial" font-size="14.00" fill="#000000"> </text>
<text text-anchor="start" x="358.7664" y="-1216.3" font-family="Arial" font-size="14.00" fill="#666666">[BASE TABLE]</text>
<polygon fill="none" stroke="#000000" points="285,-1173.5 285,-1203.5 459,-1203.5 459,-1173.5 285,-1173.5"/>
<text text-anchor="start" x="292" y="-1184.9" font-family="Arial" font-size="14.00" fill="#000000">id </text>
<text text-anchor="start" x="306.7798" y="-1184.9" font-family="Arial" font-size="14.00" fill="#666666">[varchar(22)]</text>
<polygon fill="none" stroke="#000000" points="285,-1143.5 285,-1173.5 459,-1173.5 459,-1143.5 285,-1143.5"/>
<text text-anchor="start" x="292" y="-1154.9" font-family="Arial" font-size="14.00" fill="#000000">size </text>
<text text-anchor="start" x="320.7798" y="-1154.9" font-family="Arial" font-size="14.00" fill="#666666">[bigint(20)]</text>
<polygon fill="none" stroke="#000000" points="285,-1113.5 285,-1143.5 459,-1143.5 459,-1113.5 285,-1113.5"/>
<text text-anchor="start" x="292" y="-1124.9" font-family="Arial" font-size="14.00" fill="#000000">created_at </text>
<text text-anchor="start" x="362.028" y="-1124.9" font-family="Arial" font-size="14.00" fill="#666666">[datetime(6)]</text>
<polygon fill="none" stroke="#000000" points="285,-1083.5 285,-1113.5 459,-1113.5 459,-1083.5 285,-1083.5"/>
<text text-anchor="start" x="292" y="-1094.9" font-family="Arial" font-size="14.00" fill="#000000">deleted_at </text>
<text text-anchor="start" x="361.2566" y="-1094.9" font-family="Arial" font-size="14.00" fill="#666666">[datetime(6)]</text>
<polygon fill="none" stroke="#000000" points="285,-1053.5 285,-1083.5 459,-1083.5 459,-1053.5 285,-1053.5"/>
<text text-anchor="start" x="292" y="-1064.9" font-family="Arial" font-size="14.00" fill="#000000">build_id </text>
<text text-anchor="start" x="344.1234" y="-1064.9" font-family="Arial" font-size="14.00" fill="#666666">[varchar(22)]</text>
</g>
<!-- builds -->
<g id="node5" class="node">
<title>builds</title>
<polygon fill="#efefef" stroke="transparent" points="281,-896.5 281,-931.5 463,-931.5 463,-896.5 281,-896.5"/>
<polygon fill="none" stroke="#000000" points="281,-896.5 281,-931.5 463,-931.5 463,-896.5 281,-896.5"/>
<text text-anchor="start" x="299.8696" y="-909.3" font-family="Arial Bold" font-size="18.00" fill="#000000">builds</text>
<text text-anchor="start" x="346.8766" y="-909.3" font-family="Arial" font-size="14.00" fill="#000000"> </text>
<text text-anchor="start" x="350.7672" y="-909.3" font-family="Arial" font-size="14.00" fill="#666666">[BASE TABLE]</text>
<polygon fill="none" stroke="#000000" points="281,-866.5 281,-896.5 463,-896.5 463,-866.5 281,-866.5"/>
<text text-anchor="start" x="288" y="-877.9" font-family="Arial" font-size="14.00" fill="#000000">id </text>
<text text-anchor="start" x="302.7798" y="-877.9" font-family="Arial" font-size="14.00" fill="#666666">[varchar(22)]</text>
<polygon fill="none" stroke="#000000" points="281,-836.5 281,-866.5 463,-866.5 463,-836.5 281,-836.5"/>
<text text-anchor="start" x="288" y="-847.9" font-family="Arial" font-size="14.00" fill="#000000">commit </text>
<text text-anchor="start" x="336.9916" y="-847.9" font-family="Arial" font-size="14.00" fill="#666666">[char(40)]</text>
<polygon fill="none" stroke="#000000" points="281,-806.5 281,-836.5 463,-836.5 463,-806.5 281,-806.5"/>
<text text-anchor="start" x="288" y="-817.9" font-family="Arial" font-size="14.00" fill="#000000">status </text>
<text text-anchor="start" x="329.237" y="-817.9" font-family="Arial" font-size="14.00" fill="#666666">[varchar(10)]</text>
<polygon fill="none" stroke="#000000" points="281,-776.5 281,-806.5 463,-806.5 463,-776.5 281,-776.5"/>
<text text-anchor="start" x="288" y="-787.9" font-family="Arial" font-size="14.00" fill="#000000">started_at </text>
<text text-anchor="start" x="354.136" y="-787.9" font-family="Arial" font-size="14.00" fill="#666666">[datetime(6)]</text>
<polygon fill="none" stroke="#000000" points="281,-746.5 281,-776.5 463,-776.5 463,-746.5 281,-746.5"/>
<text text-anchor="start" x="288" y="-757.9" font-family="Arial" font-size="14.00" fill="#000000">finished_at </text>
<text text-anchor="start" x="359.5806" y="-757.9" font-family="Arial" font-size="14.00" fill="#666666">[datetime(6)]</text>
<polygon fill="none" stroke="#000000" points="281,-716.5 281,-746.5 463,-746.5 463,-716.5 281,-716.5"/>
<text text-anchor="start" x="287.5975" y="-727.9" font-family="Arial" font-size="14.00" fill="#000000">application_id </text>
<text text-anchor="start" x="377.0659" y="-727.9" font-family="Arial" font-size="14.00" fill="#666666">[varchar(22)]</text>
</g>
<!-- artifacts&#45;&gt;builds -->
<g id="edge3" class="edge">
<title>artifacts:build_id&#45;&gt;builds:id</title>
<path fill="none" stroke="#000000" d="M372.9797,-1043.3217C381.4391,-1003.0317 442.3215,-1020.1474 463,-975 480.3046,-937.2189 504.5556,-881.5 463,-881.5"/>
<polygon fill="#000000" stroke="#000000" points="372.9582,-1043.546 367.5207,-1053.0688 372.4791,-1048.523 372,-1053.5 372,-1053.5 372,-1053.5 372.4791,-1048.523 376.4793,-1053.9312 372.9582,-1043.546 372.9582,-1043.546"/>
<text text-anchor="start" x="136.277" y="-1063.5" font-family="Arial" font-size="10.00" fill="#000000">FOREIGN KEY (build_id) REFERENCES builds (id)</text>
</g>
<!-- available_domains -->
<g id="node4" class="node">
<title>available_domains</title>
<polygon fill="#efefef" stroke="transparent" points="563,-1173.5 563,-1208.5 823,-1208.5 823,-1173.5 563,-1173.5"/>
<polygon fill="none" stroke="#000000" points="563,-1173.5 563,-1208.5 823,-1208.5 823,-1173.5 563,-1173.5"/>
<text text-anchor="start" x="569.8576" y="-1186.3" font-family="Arial Bold" font-size="18.00" fill="#000000">available_domains</text>
<text text-anchor="start" x="718.8886" y="-1186.3" font-family="Arial" font-size="14.00" fill="#000000"> </text>
<text text-anchor="start" x="722.7792" y="-1186.3" font-family="Arial" font-size="14.00" fill="#666666">[BASE TABLE]</text>
<polygon fill="none" stroke="#000000" points="563,-1143.5 563,-1173.5 823,-1173.5 823,-1143.5 563,-1143.5"/>
<text text-anchor="start" x="570" y="-1154.9" font-family="Arial" font-size="14.00" fill="#000000">id </text>
<text text-anchor="start" x="584.7798" y="-1154.9" font-family="Arial" font-size="14.00" fill="#666666">[varchar(22)]</text>
<polygon fill="none" stroke="#000000" points="563,-1113.5 563,-1143.5 823,-1143.5 823,-1113.5 563,-1113.5"/>
<text text-anchor="start" x="570" y="-1124.9" font-family="Arial" font-size="14.00" fill="#000000">domain </text>
<text text-anchor="start" x="619.7882" y="-1124.9" font-family="Arial" font-size="14.00" fill="#666666">[varchar(100)]</text>
<polygon fill="none" stroke="#000000" points="563,-1083.5 563,-1113.5 823,-1113.5 823,-1083.5 563,-1083.5"/>
<text text-anchor="start" x="570" y="-1094.9" font-family="Arial" font-size="14.00" fill="#000000">subdomain </text>
<text text-anchor="start" x="642.3534" y="-1094.9" font-family="Arial" font-size="14.00" fill="#666666">[tinyint(1)]</text>
</g>
<!-- builds&#45;&gt;applications -->
<g id="edge4" class="edge">
<title>builds:application_id&#45;&gt;applications:id</title>
<path fill="none" stroke="#000000" d="M473.1576,-730.2108C495.909,-723.6672 491.6221,-693.6708 515,-674 597.4603,-604.6157 612.2323,-544.5 720,-544.5"/>
<polygon fill="#000000" stroke="#000000" points="472.9204,-730.2409 462.4334,-727.0358 467.9602,-730.8704 463,-731.5 463,-731.5 463,-731.5 467.9602,-730.8704 463.5666,-735.9642 472.9204,-730.2409 472.9204,-730.2409"/>
<text text-anchor="start" x="173.602" y="-741.5" font-family="Arial" font-size="10.00" fill="#000000">FOREIGN KEY (application_id) REFERENCES applications (id)</text>
</g>
<!-- build_status -->
<g id="node6" class="node">
<title>build_status</title>
<polygon fill="#efefef" stroke="transparent" points="268,-439.5 268,-474.5 475,-474.5 475,-439.5 268,-439.5"/>
<polygon fill="none" stroke="#000000" points="268,-439.5 268,-474.5 475,-474.5 475,-439.5 268,-439.5"/>
<text text-anchor="start" x="274.8581" y="-452.3" font-family="Arial Bold" font-size="18.00" fill="#000000">build_status</text>
<text text-anchor="start" x="370.8881" y="-452.3" font-family="Arial" font-size="14.00" fill="#000000"> </text>
<text text-anchor="start" x="374.7787" y="-452.3" font-family="Arial" font-size="14.00" fill="#666666">[BASE TABLE]</text>
<polygon fill="none" stroke="#000000" points="268,-409.5 268,-439.5 475,-439.5 475,-409.5 268,-409.5"/>
<text text-anchor="start" x="275" y="-420.9" font-family="Arial" font-size="14.00" fill="#000000">status </text>
<text text-anchor="start" x="316.237" y="-420.9" font-family="Arial" font-size="14.00" fill="#666666">[varchar(10)]</text>
</g>
<!-- builds&#45;&gt;build_status -->
<g id="edge5" class="edge">
<title>builds:status&#45;&gt;build_status:status</title>
<path fill="none" stroke="#000000" d="M270.8297,-820.6708C219.6335,-811.5822 254.2805,-729.7724 281,-674 328.8032,-574.219 427.1968,-617.781 475,-518 492.9544,-480.5233 516.5556,-424.5 475,-424.5"/>
<polygon fill="#000000" stroke="#000000" points="271.0331,-820.6873 280.6343,-825.9851 276.0165,-821.0936 281,-821.5 281,-821.5 281,-821.5 276.0165,-821.0936 281.3657,-817.0149 271.0331,-820.6873 271.0331,-820.6873"/>
<text text-anchor="start" x="7.0985" y="-831.5" font-family="Arial" font-size="10.00" fill="#000000">FOREIGN KEY (status) REFERENCES build_status (status)</text>
</g>
<!-- environments -->
<g id="node7" class="node">
<title>environments</title>
<polygon fill="#efefef" stroke="transparent" points="568,-866.5 568,-901.5 787,-901.5 787,-866.5 568,-866.5"/>
<polygon fill="none" stroke="#000000" points="568,-866.5 568,-901.5 787,-901.5 787,-866.5 568,-866.5"/>
<text text-anchor="start" x="574.8641" y="-879.3" font-family="Arial Bold" font-size="18.00" fill="#000000">environments</text>
<text text-anchor="start" x="682.8821" y="-879.3" font-family="Arial" font-size="14.00" fill="#000000"> </text>
<text text-anchor="start" x="686.7727" y="-879.3" font-family="Arial" font-size="14.00" fill="#666666">[BASE TABLE]</text>
<polygon fill="none" stroke="#000000" points="568,-836.5 568,-866.5 787,-866.5 787,-836.5 568,-836.5"/>
<text text-anchor="start" x="575" y="-847.9" font-family="Arial" font-size="14.00" fill="#000000">id </text>
<text text-anchor="start" x="589.7798" y="-847.9" font-family="Arial" font-size="14.00" fill="#666666">[varchar(22)]</text>
<polygon fill="none" stroke="#000000" points="568,-806.5 568,-836.5 787,-836.5 787,-806.5 568,-806.5"/>
<text text-anchor="start" x="575" y="-817.9" font-family="Arial" font-size="14.00" fill="#000000">application_id </text>
<text text-anchor="start" x="664.4684" y="-817.9" font-family="Arial" font-size="14.00" fill="#666666">[varchar(22)]</text>
<polygon fill="none" stroke="#000000" points="568,-776.5 568,-806.5 787,-806.5 787,-776.5 568,-776.5"/>
<text text-anchor="start" x="575" y="-787.9" font-family="Arial" font-size="14.00" fill="#000000">key </text>
<text text-anchor="start" x="600.6732" y="-787.9" font-family="Arial" font-size="14.00" fill="#666666">[varchar(100)]</text>
<polygon fill="none" stroke="#000000" points="568,-746.5 568,-776.5 787,-776.5 787,-746.5 568,-746.5"/>
<text text-anchor="start" x="575" y="-757.9" font-family="Arial" font-size="14.00" fill="#000000">value </text>
<text text-anchor="start" x="612.345" y="-757.9" font-family="Arial" font-size="14.00" fill="#666666">[text]</text>
</g>
<!-- environments&#45;&gt;applications -->
<g id="edge6" class="edge">
<title>environments:application_id&#45;&gt;applications:id</title>
<path fill="none" stroke="#000000" d="M797.2742,-820.3913C834.5293,-811.3256 805.6691,-748.5963 787,-704 770.8591,-665.4431 736.1409,-676.5569 720,-638 703.9532,-599.6677 678.4444,-544.5 720,-544.5"/>
<polygon fill="#000000" stroke="#000000" points="796.9423,-820.4271 786.5172,-817.026 791.9711,-820.9635 787,-821.5 787,-821.5 787,-821.5 791.9711,-820.9635 787.4828,-825.974 796.9423,-820.4271 796.9423,-820.4271"/>
<text text-anchor="start" x="497.602" y="-831.5" font-family="Arial" font-size="10.00" fill="#000000">FOREIGN KEY (application_id) REFERENCES applications (id)</text>
</g>
<!-- owners -->
<g id="node8" class="node">
<title>owners</title>
<polygon fill="#efefef" stroke="transparent" points="1178,-836.5 1178,-871.5 1347,-871.5 1347,-836.5 1178,-836.5"/>
<polygon fill="none" stroke="#000000" points="1178,-836.5 1178,-871.5 1347,-871.5 1347,-836.5 1178,-836.5"/>
<text text-anchor="start" x="1184.8706" y="-849.3" font-family="Arial Bold" font-size="18.00" fill="#000000">owners</text>
<text text-anchor="start" x="1242.8756" y="-849.3" font-family="Arial" font-size="14.00" fill="#000000"> </text>
<text text-anchor="start" x="1246.7662" y="-849.3" font-family="Arial" font-size="14.00" fill="#666666">[BASE TABLE]</text>
<polygon fill="none" stroke="#000000" points="1178,-806.5 1178,-836.5 1347,-836.5 1347,-806.5 1178,-806.5"/>
<text text-anchor="start" x="1185" y="-817.9" font-family="Arial" font-size="14.00" fill="#000000">user_id </text>
<text text-anchor="start" x="1234.7882" y="-817.9" font-family="Arial" font-size="14.00" fill="#666666">[char(36)]</text>
<polygon fill="none" stroke="#000000" points="1178,-776.5 1178,-806.5 1347,-806.5 1347,-776.5 1178,-776.5"/>
<text text-anchor="start" x="1185" y="-787.9" font-family="Arial" font-size="14.00" fill="#000000">application_id </text>
<text text-anchor="start" x="1274.4684" y="-787.9" font-family="Arial" font-size="14.00" fill="#666666">[char(36)]</text>
</g>
<!-- owners&#45;&gt;applications -->
<g id="edge7" class="edge">
<title>owners:application_id&#45;&gt;applications:id</title>
<path fill="none" stroke="#000000" d="M1167.8337,-790.5592C1125.7938,-781.8825 1159.1234,-715.1849 1125,-674 1060.9666,-596.7157 1040.365,-544.5 940,-544.5"/>
<polygon fill="#000000" stroke="#000000" points="1168.0425,-790.5784 1177.5853,-795.9809 1173.0213,-791.0392 1178,-791.5 1178,-791.5 1178,-791.5 1173.0213,-791.0392 1178.4147,-787.0191 1168.0425,-790.5784 1168.0425,-790.5784"/>
<text text-anchor="start" x="1184.602" y="-801.5" font-family="Arial" font-size="10.00" fill="#000000">FOREIGN KEY (application_id) REFERENCES applications (id)</text>
</g>
<!-- users -->
<g id="node10" class="node">
<title>users</title>
<polygon fill="#efefef" stroke="transparent" points="1185,-454.5 1185,-489.5 1340,-489.5 1340,-454.5 1185,-454.5"/>
<polygon fill="none" stroke="#000000" points="1185,-454.5 1185,-489.5 1340,-489.5 1340,-454.5 1185,-454.5"/>
<text text-anchor="start" x="1191.8708" y="-467.3" font-family="Arial Bold" font-size="18.00" fill="#000000">users</text>
<text text-anchor="start" x="1235.8754" y="-467.3" font-family="Arial" font-size="14.00" fill="#000000"> </text>
<text text-anchor="start" x="1239.766" y="-467.3" font-family="Arial" font-size="14.00" fill="#666666">[BASE TABLE]</text>
<polygon fill="none" stroke="#000000" points="1185,-424.5 1185,-454.5 1340,-454.5 1340,-424.5 1185,-424.5"/>
<text text-anchor="start" x="1192" y="-435.9" font-family="Arial" font-size="14.00" fill="#000000">id </text>
<text text-anchor="start" x="1206.7798" y="-435.9" font-family="Arial" font-size="14.00" fill="#666666">[char(36)]</text>
<polygon fill="none" stroke="#000000" points="1185,-394.5 1185,-424.5 1340,-424.5 1340,-394.5 1185,-394.5"/>
<text text-anchor="start" x="1192" y="-405.9" font-family="Arial" font-size="14.00" fill="#000000">name </text>
<text text-anchor="start" x="1230.899" y="-405.9" font-family="Arial" font-size="14.00" fill="#666666">[varchar(255)]</text>
</g>
<!-- owners&#45;&gt;users -->
<g id="edge8" class="edge">
<title>owners:user_id&#45;&gt;users:id</title>
<path fill="none" stroke="#000000" d="M1169.5661,-815.8035C1136.7453,-768.284 1145.6162,-439.5 1185,-439.5"/>
<polygon fill="#000000" stroke="#000000" points="1169.7131,-815.9028 1175.4813,-825.2291 1173.8566,-818.7014 1178,-821.5 1178,-821.5 1178,-821.5 1173.8566,-818.7014 1180.5187,-817.7709 1169.7131,-815.9028 1169.7131,-815.9028"/>
<text text-anchor="start" x="1184.945" y="-831.5" font-family="Arial" font-size="10.00" fill="#000000">FOREIGN KEY (user_id) REFERENCES users (id)</text>
</g>
<!-- websites -->
<g id="node11" class="node">
<title>websites</title>
<polygon fill="#efefef" stroke="transparent" points="891,-896.5 891,-931.5 1073,-931.5 1073,-896.5 891,-896.5"/>
<polygon fill="none" stroke="#000000" points="891,-896.5 891,-931.5 1073,-931.5 1073,-896.5 891,-896.5"/>
<text text-anchor="start" x="898.3685" y="-909.3" font-family="Arial Bold" font-size="18.00" fill="#000000">websites</text>
<text text-anchor="start" x="968.3777" y="-909.3" font-family="Arial" font-size="14.00" fill="#000000"> </text>
<text text-anchor="start" x="972.2683" y="-909.3" font-family="Arial" font-size="14.00" fill="#666666">[BASE TABLE]</text>
<polygon fill="none" stroke="#000000" points="891,-866.5 891,-896.5 1073,-896.5 1073,-866.5 891,-866.5"/>
<text text-anchor="start" x="898" y="-877.9" font-family="Arial" font-size="14.00" fill="#000000">id </text>
<text text-anchor="start" x="912.7798" y="-877.9" font-family="Arial" font-size="14.00" fill="#666666">[varchar(22)]</text>
<polygon fill="none" stroke="#000000" points="891,-836.5 891,-866.5 1073,-866.5 1073,-836.5 891,-836.5"/>
<text text-anchor="start" x="898" y="-847.9" font-family="Arial" font-size="14.00" fill="#000000">fqdn </text>
<text text-anchor="start" x="929.129" y="-847.9" font-family="Arial" font-size="14.00" fill="#666666">[varchar(50)]</text>
<polygon fill="none" stroke="#000000" points="891,-806.5 891,-836.5 1073,-836.5 1073,-806.5 891,-806.5"/>
<text text-anchor="start" x="898" y="-817.9" font-family="Arial" font-size="14.00" fill="#000000">http_port </text>
<text text-anchor="start" x="957.136" y="-817.9" font-family="Arial" font-size="14.00" fill="#666666">[int(11)]</text>
<polygon fill="none" stroke="#000000" points="891,-776.5 891,-806.5 1073,-806.5 1073,-776.5 891,-776.5"/>
<text text-anchor="start" x="898" y="-787.9" font-family="Arial" font-size="14.00" fill="#000000">created_at </text>
<text text-anchor="start" x="968.028" y="-787.9" font-family="Arial" font-size="14.00" fill="#666666">[datetime(6)]</text>
<polygon fill="none" stroke="#000000" points="891,-746.5 891,-776.5 1073,-776.5 1073,-746.5 891,-746.5"/>
<text text-anchor="start" x="898" y="-757.9" font-family="Arial" font-size="14.00" fill="#000000">updated_at </text>
<text text-anchor="start" x="971.9326" y="-757.9" font-family="Arial" font-size="14.00" fill="#666666">[datetime(6)]</text>
<polygon fill="none" stroke="#000000" points="891,-716.5 891,-746.5 1073,-746.5 1073,-716.5 891,-716.5"/>
<text text-anchor="start" x="897.5975" y="-727.9" font-family="Arial" font-size="14.00" fill="#000000">application_id </text>
<text text-anchor="start" x="987.0659" y="-727.9" font-family="Arial" font-size="14.00" fill="#666666">[varchar(22)]</text>
</g>
<!-- websites&#45;&gt;applications -->
<g id="edge9" class="edge">
<title>websites:application_id&#45;&gt;applications:id</title>
<path fill="none" stroke="#000000" d="M881.1162,-728.6615C870.1888,-719.9237 881.4423,-692.882 891,-674 903.2044,-649.8893 927.7956,-662.1107 940,-638 958.7674,-600.9237 981.5556,-544.5 940,-544.5"/>
<polygon fill="#000000" stroke="#000000" points="881.3885,-728.7396 889.7578,-735.8252 886.1943,-730.1198 891,-731.5 891,-731.5 891,-731.5 886.1943,-730.1198 892.2422,-727.1748 881.3885,-728.7396 881.3885,-728.7396"/>
<text text-anchor="start" x="897.602" y="-715.5" font-family="Arial" font-size="10.00" fill="#000000">FOREIGN KEY (application_id) REFERENCES applications (id)</text>
</g>
</g>
</svg>
