<?xml version="1.0" encoding="UTF-8" standalone="no"?>
<!DOCTYPE svg PUBLIC "-//W3C//DTD SVG 1.1//EN"
 "http://www.w3.org/Graphics/SVG/1.1/DTD/svg11.dtd">
<!-- Generated by graphviz version 2.40.1 (20161225.0304)
 -->
<!-- Title: neoshowcase Pages: 1 -->
<svg width="2450pt" height="1410pt"
 viewBox="0.00 0.00 2449.50 1410.00" xmlns="http://www.w3.org/2000/svg" xmlns:xlink="http://www.w3.org/1999/xlink">
<g id="graph0" class="graph" transform="scale(1 1) rotate(0) translate(4 1406)">
<title>neoshowcase</title>
<polygon fill="#ffffff" stroke="transparent" points="-4,4 -4,-1406 2445.5,-1406 2445.5,4 -4,4"/>
<!-- applications -->
<g id="node1" class="node">
<title>applications</title>
<polygon fill="#efefef" stroke="transparent" points="1080.5,-589.5 1080.5,-624.5 1309.5,-624.5 1309.5,-589.5 1080.5,-589.5"/>
<polygon fill="none" stroke="#000000" points="1080.5,-589.5 1080.5,-624.5 1309.5,-624.5 1309.5,-589.5 1080.5,-589.5"/>
<text text-anchor="start" x="1098.8621" y="-602.3" font-family="Arial Bold" font-size="18.00" fill="#000000">applications</text>
<text text-anchor="start" x="1193.8841" y="-602.3" font-family="Arial" font-size="14.00" fill="#000000"> </text>
<text text-anchor="start" x="1197.7747" y="-602.3" font-family="Arial" font-size="14.00" fill="#666666">[BASE TABLE]</text>
<polygon fill="none" stroke="#000000" points="1080.5,-559.5 1080.5,-589.5 1309.5,-589.5 1309.5,-559.5 1080.5,-559.5"/>
<text text-anchor="start" x="1087.5" y="-570.9" font-family="Arial" font-size="14.00" fill="#000000">id </text>
<text text-anchor="start" x="1102.2798" y="-570.9" font-family="Arial" font-size="14.00" fill="#666666">[char(22)]</text>
<polygon fill="none" stroke="#000000" points="1080.5,-529.5 1080.5,-559.5 1309.5,-559.5 1309.5,-529.5 1080.5,-529.5"/>
<text text-anchor="start" x="1087.5" y="-540.9" font-family="Arial" font-size="14.00" fill="#000000">name </text>
<text text-anchor="start" x="1126.399" y="-540.9" font-family="Arial" font-size="14.00" fill="#666666">[varchar(100)]</text>
<polygon fill="none" stroke="#000000" points="1080.5,-499.5 1080.5,-529.5 1309.5,-529.5 1309.5,-499.5 1080.5,-499.5"/>
<text text-anchor="start" x="1087.5" y="-510.9" font-family="Arial" font-size="14.00" fill="#000000">repository_id </text>
<text text-anchor="start" x="1171.5112" y="-510.9" font-family="Arial" font-size="14.00" fill="#666666">[varchar(22)]</text>
<polygon fill="none" stroke="#000000" points="1080.5,-469.5 1080.5,-499.5 1309.5,-499.5 1309.5,-469.5 1080.5,-469.5"/>
<text text-anchor="start" x="1087.5" y="-480.9" font-family="Arial" font-size="14.00" fill="#000000">branch_name </text>
<text text-anchor="start" x="1176.9726" y="-480.9" font-family="Arial" font-size="14.00" fill="#666666">[varchar(100)]</text>
<polygon fill="none" stroke="#000000" points="1080.5,-439.5 1080.5,-469.5 1309.5,-469.5 1309.5,-439.5 1080.5,-439.5"/>
<text text-anchor="start" x="1087.3008" y="-450.9" font-family="Arial" font-size="14.00" fill="#000000">build_type </text>
<text text-anchor="start" x="1154.9908" y="-450.9" font-family="Arial" font-size="14.00" fill="#666666">[enum(&#39;runtime&#39;,&#39;static&#39;)]</text>
<polygon fill="none" stroke="#000000" points="1080.5,-409.5 1080.5,-439.5 1309.5,-439.5 1309.5,-409.5 1080.5,-409.5"/>
<text text-anchor="start" x="1087.5" y="-420.9" font-family="Arial" font-size="14.00" fill="#000000">state </text>
<text text-anchor="start" x="1121.737" y="-420.9" font-family="Arial" font-size="14.00" fill="#666666">[varchar(10)]</text>
<polygon fill="none" stroke="#000000" points="1080.5,-379.5 1080.5,-409.5 1309.5,-409.5 1309.5,-379.5 1080.5,-379.5"/>
<text text-anchor="start" x="1087.5" y="-390.9" font-family="Arial" font-size="14.00" fill="#000000">current_commit </text>
<text text-anchor="start" x="1187.8338" y="-390.9" font-family="Arial" font-size="14.00" fill="#666666">[char(40)]</text>
<polygon fill="none" stroke="#000000" points="1080.5,-349.5 1080.5,-379.5 1309.5,-379.5 1309.5,-349.5 1080.5,-349.5"/>
<text text-anchor="start" x="1087.5" y="-360.9" font-family="Arial" font-size="14.00" fill="#000000">want_commit </text>
<text text-anchor="start" x="1173.8366" y="-360.9" font-family="Arial" font-size="14.00" fill="#666666">[char(40)]</text>
<polygon fill="none" stroke="#000000" points="1080.5,-319.5 1080.5,-349.5 1309.5,-349.5 1309.5,-319.5 1080.5,-319.5"/>
<text text-anchor="start" x="1087.5" y="-330.9" font-family="Arial" font-size="14.00" fill="#000000">created_at </text>
<text text-anchor="start" x="1157.528" y="-330.9" font-family="Arial" font-size="14.00" fill="#666666">[datetime(6)]</text>
<polygon fill="none" stroke="#000000" points="1080.5,-289.5 1080.5,-319.5 1309.5,-319.5 1309.5,-289.5 1080.5,-289.5"/>
<text text-anchor="start" x="1087.5" y="-300.9" font-family="Arial" font-size="14.00" fill="#000000">updated_at </text>
<text text-anchor="start" x="1161.4326" y="-300.9" font-family="Arial" font-size="14.00" fill="#666666">[datetime(6)]</text>
</g>
<!-- application_state -->
<g id="node4" class="node">
<title>application_state</title>
<polygon fill="#efefef" stroke="transparent" points="1072.5,-102.5 1072.5,-137.5 1318.5,-137.5 1318.5,-102.5 1072.5,-102.5"/>
<polygon fill="none" stroke="#000000" points="1072.5,-102.5 1072.5,-137.5 1318.5,-137.5 1318.5,-102.5 1072.5,-102.5"/>
<text text-anchor="start" x="1079.3506" y="-115.3" font-family="Arial Bold" font-size="18.00" fill="#000000">application_state</text>
<text text-anchor="start" x="1214.3956" y="-115.3" font-family="Arial" font-size="14.00" fill="#000000"> </text>
<text text-anchor="start" x="1218.2862" y="-115.3" font-family="Arial" font-size="14.00" fill="#666666">[BASE TABLE]</text>
<polygon fill="none" stroke="#000000" points="1072.5,-72.5 1072.5,-102.5 1318.5,-102.5 1318.5,-72.5 1072.5,-72.5"/>
<text text-anchor="start" x="1079.5" y="-83.9" font-family="Arial" font-size="14.00" fill="#000000">state </text>
<text text-anchor="start" x="1113.737" y="-83.9" font-family="Arial" font-size="14.00" fill="#666666">[varchar(10)]</text>
</g>
<!-- applications&#45;&gt;application_state -->
<g id="edge2" class="edge">
<title>applications:state&#45;&gt;application_state:state</title>
<path fill="none" stroke="#000000" d="M1319.9257,-424.1407C1467.8382,-413.7756 1470.8118,-181.8118 1361.5,-72.5 1309.3312,-20.3312 1195.5,1.2778 1195.5,-72.5"/>
<polygon fill="#000000" stroke="#000000" points="1319.4941,-424.1555 1309.345,-420.0027 1314.497,-424.3277 1309.5,-424.5 1309.5,-424.5 1309.5,-424.5 1314.497,-424.3277 1309.655,-428.9973 1319.4941,-424.1555 1319.4941,-424.1555"/>
<text text-anchor="start" x="1316.761" y="-434.5" font-family="Arial" font-size="10.00" fill="#000000">FOREIGN KEY (state) REFERENCES application_state (state)</text>
</g>
<!-- repositories -->
<g id="node10" class="node">
<title>repositories</title>
<polygon fill="#efefef" stroke="transparent" points="247.5,-132.5 247.5,-167.5 451.5,-167.5 451.5,-132.5 247.5,-132.5"/>
<polygon fill="none" stroke="#000000" points="247.5,-132.5 247.5,-167.5 451.5,-167.5 451.5,-132.5 247.5,-132.5"/>
<text text-anchor="start" x="254.3701" y="-145.3" font-family="Arial Bold" font-size="18.00" fill="#000000">repositories</text>
<text text-anchor="start" x="347.3761" y="-145.3" font-family="Arial" font-size="14.00" fill="#000000"> </text>
<text text-anchor="start" x="351.2667" y="-145.3" font-family="Arial" font-size="14.00" fill="#666666">[BASE TABLE]</text>
<polygon fill="none" stroke="#000000" points="247.5,-102.5 247.5,-132.5 451.5,-132.5 451.5,-102.5 247.5,-102.5"/>
<text text-anchor="start" x="254.5" y="-113.9" font-family="Arial" font-size="14.00" fill="#000000">id </text>
<text text-anchor="start" x="269.2798" y="-113.9" font-family="Arial" font-size="14.00" fill="#666666">[char(22)]</text>
<polygon fill="none" stroke="#000000" points="247.5,-72.5 247.5,-102.5 451.5,-102.5 451.5,-72.5 247.5,-72.5"/>
<text text-anchor="start" x="254.5" y="-83.9" font-family="Arial" font-size="14.00" fill="#000000">name </text>
<text text-anchor="start" x="293.399" y="-83.9" font-family="Arial" font-size="14.00" fill="#666666">[varchar(256)]</text>
<polygon fill="none" stroke="#000000" points="247.5,-42.5 247.5,-72.5 451.5,-72.5 451.5,-42.5 247.5,-42.5"/>
<text text-anchor="start" x="254.5" y="-53.9" font-family="Arial" font-size="14.00" fill="#000000">url </text>
<text text-anchor="start" x="273.9404" y="-53.9" font-family="Arial" font-size="14.00" fill="#666666">[varchar(256)]</text>
</g>
<!-- applications&#45;&gt;repositories -->
<g id="edge1" class="edge">
<title>applications:repository_id&#45;&gt;repositories:id</title>
<path fill="none" stroke="#000000" d="M1070.4599,-514.3463C886.949,-508.6449 898.63,-345.6024 735.5,-247 616.7773,-175.2392 590.2252,-117.5 451.5,-117.5"/>
<polygon fill="#000000" stroke="#000000" points="1070.5012,-514.3469 1080.4311,-518.9995 1075.5006,-514.4234 1080.5,-514.5 1080.5,-514.5 1080.5,-514.5 1075.5006,-514.4234 1080.5689,-510.0005 1070.5012,-514.3469 1070.5012,-514.3469"/>
<text text-anchor="start" x="796.611" y="-524.5" font-family="Arial" font-size="10.00" fill="#000000">FOREIGN KEY (repository_id) REFERENCES repositories (id)</text>
</g>
<!-- application_config -->
<g id="node2" class="node">
<title>application_config</title>
<polygon fill="#efefef" stroke="transparent" points="897.5,-1016.5 897.5,-1051.5 1152.5,-1051.5 1152.5,-1016.5 897.5,-1016.5"/>
<polygon fill="none" stroke="#000000" points="897.5,-1016.5 897.5,-1051.5 1152.5,-1051.5 1152.5,-1016.5 897.5,-1016.5"/>
<text text-anchor="start" x="904.3515" y="-1029.3" font-family="Arial Bold" font-size="18.00" fill="#000000">application_config</text>
<text text-anchor="start" x="1048.3947" y="-1029.3" font-family="Arial" font-size="14.00" fill="#000000"> </text>
<text text-anchor="start" x="1052.2853" y="-1029.3" font-family="Arial" font-size="14.00" fill="#666666">[BASE TABLE]</text>
<polygon fill="none" stroke="#000000" points="897.5,-986.5 897.5,-1016.5 1152.5,-1016.5 1152.5,-986.5 897.5,-986.5"/>
<text text-anchor="start" x="904.5" y="-997.9" font-family="Arial" font-size="14.00" fill="#000000">application_id </text>
<text text-anchor="start" x="993.9684" y="-997.9" font-family="Arial" font-size="14.00" fill="#666666">[char(22)]</text>
<polygon fill="none" stroke="#000000" points="897.5,-956.5 897.5,-986.5 1152.5,-986.5 1152.5,-956.5 897.5,-956.5"/>
<text text-anchor="start" x="904.5" y="-967.9" font-family="Arial" font-size="14.00" fill="#000000">use_mariadb </text>
<text text-anchor="start" x="989.2966" y="-967.9" font-family="Arial" font-size="14.00" fill="#666666">[tinyint(1)]</text>
<polygon fill="none" stroke="#000000" points="897.5,-926.5 897.5,-956.5 1152.5,-956.5 1152.5,-926.5 897.5,-926.5"/>
<text text-anchor="start" x="904.5" y="-937.9" font-family="Arial" font-size="14.00" fill="#000000">use_mongodb </text>
<text text-anchor="start" x="997.0946" y="-937.9" font-family="Arial" font-size="14.00" fill="#666666">[tinyint(1)]</text>
<polygon fill="none" stroke="#000000" points="897.5,-896.5 897.5,-926.5 1152.5,-926.5 1152.5,-896.5 897.5,-896.5"/>
<text text-anchor="start" x="904.5" y="-907.9" font-family="Arial" font-size="14.00" fill="#000000">base_image </text>
<text text-anchor="start" x="984.636" y="-907.9" font-family="Arial" font-size="14.00" fill="#666666">[varchar(1000)]</text>
<polygon fill="none" stroke="#000000" points="897.5,-866.5 897.5,-896.5 1152.5,-896.5 1152.5,-866.5 897.5,-866.5"/>
<text text-anchor="start" x="904.5" y="-877.9" font-family="Arial" font-size="14.00" fill="#000000">dockerfile_name </text>
<text text-anchor="start" x="1011.0764" y="-877.9" font-family="Arial" font-size="14.00" fill="#666666">[varchar(100)]</text>
<polygon fill="none" stroke="#000000" points="897.5,-836.5 897.5,-866.5 1152.5,-866.5 1152.5,-836.5 897.5,-836.5"/>
<text text-anchor="start" x="904.5" y="-847.9" font-family="Arial" font-size="14.00" fill="#000000">artifact_path </text>
<text text-anchor="start" x="985.4158" y="-847.9" font-family="Arial" font-size="14.00" fill="#666666">[varchar(100)]</text>
<polygon fill="none" stroke="#000000" points="897.5,-806.5 897.5,-836.5 1152.5,-836.5 1152.5,-806.5 897.5,-806.5"/>
<text text-anchor="start" x="904.5" y="-817.9" font-family="Arial" font-size="14.00" fill="#000000">build_cmd </text>
<text text-anchor="start" x="972.1774" y="-817.9" font-family="Arial" font-size="14.00" fill="#666666">[text]</text>
<polygon fill="none" stroke="#000000" points="897.5,-776.5 897.5,-806.5 1152.5,-806.5 1152.5,-776.5 897.5,-776.5"/>
<text text-anchor="start" x="904.5" y="-787.9" font-family="Arial" font-size="14.00" fill="#000000">entrypoint_cmd </text>
<text text-anchor="start" x="1004.0778" y="-787.9" font-family="Arial" font-size="14.00" fill="#666666">[text]</text>
<polygon fill="none" stroke="#000000" points="897.5,-746.5 897.5,-776.5 1152.5,-776.5 1152.5,-746.5 897.5,-746.5"/>
<text text-anchor="start" x="904.5" y="-757.9" font-family="Arial" font-size="14.00" fill="#000000">authentication </text>
<text text-anchor="start" x="995.5364" y="-757.9" font-family="Arial" font-size="14.00" fill="#666666">[enum(&#39;off&#39;,&#39;soft&#39;,&#39;hard&#39;)]</text>
</g>
<!-- application_config&#45;&gt;applications -->
<g id="edge3" class="edge">
<title>application_config:application_id&#45;&gt;applications:id</title>
<path fill="none" stroke="#000000" d="M1162.4873,-999.4051C1215.1715,-975.6653 1185.3559,-757.162 1152.5,-704 1133.6909,-673.5662 1099.3091,-698.4338 1080.5,-668 1058.653,-632.6507 1038.9444,-574.5 1080.5,-574.5"/>
<polygon fill="#000000" stroke="#000000" points="1162.287,-999.447 1151.5762,-997.0958 1157.3935,-1000.4735 1152.5,-1001.5 1152.5,-1001.5 1152.5,-1001.5 1157.3935,-1000.4735 1153.4238,-1005.9042 1162.287,-999.447 1162.287,-999.447"/>
<text text-anchor="start" x="1159.102" y="-1011.5" font-family="Arial" font-size="10.00" fill="#000000">FOREIGN KEY (application_id) REFERENCES applications (id)</text>
</g>
<!-- application_owners -->
<g id="node3" class="node">
<title>application_owners</title>
<polygon fill="#efefef" stroke="transparent" points="528.5,-911.5 528.5,-946.5 793.5,-946.5 793.5,-911.5 528.5,-911.5"/>
<polygon fill="none" stroke="#000000" points="528.5,-911.5 528.5,-946.5 793.5,-946.5 793.5,-911.5 528.5,-911.5"/>
<text text-anchor="start" x="535.3565" y="-924.3" font-family="Arial Bold" font-size="18.00" fill="#000000">application_owners</text>
<text text-anchor="start" x="689.3897" y="-924.3" font-family="Arial" font-size="14.00" fill="#000000"> </text>
<text text-anchor="start" x="693.2803" y="-924.3" font-family="Arial" font-size="14.00" fill="#666666">[BASE TABLE]</text>
<polygon fill="none" stroke="#000000" points="528.5,-881.5 528.5,-911.5 793.5,-911.5 793.5,-881.5 528.5,-881.5"/>
<text text-anchor="start" x="535.5" y="-892.9" font-family="Arial" font-size="14.00" fill="#000000">user_id </text>
<text text-anchor="start" x="585.2882" y="-892.9" font-family="Arial" font-size="14.00" fill="#666666">[char(22)]</text>
<polygon fill="none" stroke="#000000" points="528.5,-851.5 528.5,-881.5 793.5,-881.5 793.5,-851.5 528.5,-851.5"/>
<text text-anchor="start" x="535.5" y="-862.9" font-family="Arial" font-size="14.00" fill="#000000">application_id </text>
<text text-anchor="start" x="624.9684" y="-862.9" font-family="Arial" font-size="14.00" fill="#666666">[char(22)]</text>
</g>
<!-- application_owners&#45;&gt;applications -->
<g id="edge4" class="edge">
<title>application_owners:application_id&#45;&gt;applications:id</title>
<path fill="none" stroke="#000000" d="M803.5583,-865.7739C862.3861,-856.4566 798.8631,-759.6885 844.5,-704 920.3353,-611.4618 960.8575,-574.5 1080.5,-574.5"/>
<polygon fill="#000000" stroke="#000000" points="803.474,-865.7799 793.1759,-862.0117 798.487,-866.1399 793.5,-866.5 793.5,-866.5 793.5,-866.5 798.487,-866.1399 793.8241,-870.9883 803.474,-865.7799 803.474,-865.7799"/>
<text text-anchor="start" x="800.102" y="-876.5" font-family="Arial" font-size="10.00" fill="#000000">FOREIGN KEY (application_id) REFERENCES applications (id)</text>
</g>
<!-- users -->
<g id="node13" class="node">
<title>users</title>
<polygon fill="#efefef" stroke="transparent" points="529.5,-469.5 529.5,-504.5 684.5,-504.5 684.5,-469.5 529.5,-469.5"/>
<polygon fill="none" stroke="#000000" points="529.5,-469.5 529.5,-504.5 684.5,-504.5 684.5,-469.5 529.5,-469.5"/>
<text text-anchor="start" x="536.3708" y="-482.3" font-family="Arial Bold" font-size="18.00" fill="#000000">users</text>
<text text-anchor="start" x="580.3754" y="-482.3" font-family="Arial" font-size="14.00" fill="#000000"> </text>
<text text-anchor="start" x="584.266" y="-482.3" font-family="Arial" font-size="14.00" fill="#666666">[BASE TABLE]</text>
<polygon fill="none" stroke="#000000" points="529.5,-439.5 529.5,-469.5 684.5,-469.5 684.5,-439.5 529.5,-439.5"/>
<text text-anchor="start" x="536.5" y="-450.9" font-family="Arial" font-size="14.00" fill="#000000">id </text>
<text text-anchor="start" x="551.2798" y="-450.9" font-family="Arial" font-size="14.00" fill="#666666">[char(22)]</text>
<polygon fill="none" stroke="#000000" points="529.5,-409.5 529.5,-439.5 684.5,-439.5 684.5,-409.5 529.5,-409.5"/>
<text text-anchor="start" x="536.5" y="-420.9" font-family="Arial" font-size="14.00" fill="#000000">name </text>
<text text-anchor="start" x="575.399" y="-420.9" font-family="Arial" font-size="14.00" fill="#666666">[varchar(255)]</text>
</g>
<!-- application_owners&#45;&gt;users -->
<g id="edge5" class="edge">
<title>application_owners:user_id&#45;&gt;users:id</title>
<path fill="none" stroke="#000000" d="M518.496,-896.1171C339.5239,-881.5217 889.2606,-454.5 684.5,-454.5"/>
<polygon fill="#000000" stroke="#000000" points="518.5073,-896.1175 528.3279,-900.9967 523.5037,-896.3087 528.5,-896.5 528.5,-896.5 528.5,-896.5 523.5037,-896.3087 528.6721,-892.0033 518.5073,-896.1175 518.5073,-896.1175"/>
<text text-anchor="start" x="475.445" y="-880.5" font-family="Arial" font-size="10.00" fill="#000000">FOREIGN KEY (user_id) REFERENCES users (id)</text>
</g>
<!-- artifacts -->
<g id="node5" class="node">
<title>artifacts</title>
<polygon fill="#efefef" stroke="transparent" points="1860.5,-1323.5 1860.5,-1358.5 2034.5,-1358.5 2034.5,-1323.5 1860.5,-1323.5"/>
<polygon fill="none" stroke="#000000" points="1860.5,-1323.5 1860.5,-1358.5 2034.5,-1358.5 2034.5,-1323.5 1860.5,-1323.5"/>
<text text-anchor="start" x="1867.3704" y="-1336.3" font-family="Arial Bold" font-size="18.00" fill="#000000">artifacts</text>
<text text-anchor="start" x="1930.3758" y="-1336.3" font-family="Arial" font-size="14.00" fill="#000000"> </text>
<text text-anchor="start" x="1934.2664" y="-1336.3" font-family="Arial" font-size="14.00" fill="#666666">[BASE TABLE]</text>
<polygon fill="none" stroke="#000000" points="1860.5,-1293.5 1860.5,-1323.5 2034.5,-1323.5 2034.5,-1293.5 1860.5,-1293.5"/>
<text text-anchor="start" x="1867.5" y="-1304.9" font-family="Arial" font-size="14.00" fill="#000000">id </text>
<text text-anchor="start" x="1882.2798" y="-1304.9" font-family="Arial" font-size="14.00" fill="#666666">[char(22)]</text>
<polygon fill="none" stroke="#000000" points="1860.5,-1263.5 1860.5,-1293.5 2034.5,-1293.5 2034.5,-1263.5 1860.5,-1263.5"/>
<text text-anchor="start" x="1867.5" y="-1274.9" font-family="Arial" font-size="14.00" fill="#000000">size </text>
<text text-anchor="start" x="1896.2798" y="-1274.9" font-family="Arial" font-size="14.00" fill="#666666">[bigint(20)]</text>
<polygon fill="none" stroke="#000000" points="1860.5,-1233.5 1860.5,-1263.5 2034.5,-1263.5 2034.5,-1233.5 1860.5,-1233.5"/>
<text text-anchor="start" x="1867.5" y="-1244.9" font-family="Arial" font-size="14.00" fill="#000000">created_at </text>
<text text-anchor="start" x="1937.528" y="-1244.9" font-family="Arial" font-size="14.00" fill="#666666">[datetime(6)]</text>
<polygon fill="none" stroke="#000000" points="1860.5,-1203.5 1860.5,-1233.5 2034.5,-1233.5 2034.5,-1203.5 1860.5,-1203.5"/>
<text text-anchor="start" x="1867.5" y="-1214.9" font-family="Arial" font-size="14.00" fill="#000000">deleted_at </text>
<text text-anchor="start" x="1936.7566" y="-1214.9" font-family="Arial" font-size="14.00" fill="#666666">[datetime(6)]</text>
<polygon fill="none" stroke="#000000" points="1860.5,-1173.5 1860.5,-1203.5 2034.5,-1203.5 2034.5,-1173.5 1860.5,-1173.5"/>
<text text-anchor="start" x="1867.5" y="-1184.9" font-family="Arial" font-size="14.00" fill="#000000">build_id </text>
<text text-anchor="start" x="1919.6234" y="-1184.9" font-family="Arial" font-size="14.00" fill="#666666">[varchar(22)]</text>
</g>
<!-- builds -->
<g id="node7" class="node">
<title>builds</title>
<polygon fill="#efefef" stroke="transparent" points="1864.5,-1001.5 1864.5,-1036.5 2030.5,-1036.5 2030.5,-1001.5 1864.5,-1001.5"/>
<polygon fill="none" stroke="#000000" points="1864.5,-1001.5 1864.5,-1036.5 2030.5,-1036.5 2030.5,-1001.5 1864.5,-1001.5"/>
<text text-anchor="start" x="1875.3696" y="-1014.3" font-family="Arial Bold" font-size="18.00" fill="#000000">builds</text>
<text text-anchor="start" x="1922.3766" y="-1014.3" font-family="Arial" font-size="14.00" fill="#000000"> </text>
<text text-anchor="start" x="1926.2672" y="-1014.3" font-family="Arial" font-size="14.00" fill="#666666">[BASE TABLE]</text>
<polygon fill="none" stroke="#000000" points="1864.5,-971.5 1864.5,-1001.5 2030.5,-1001.5 2030.5,-971.5 1864.5,-971.5"/>
<text text-anchor="start" x="1871.5" y="-982.9" font-family="Arial" font-size="14.00" fill="#000000">id </text>
<text text-anchor="start" x="1886.2798" y="-982.9" font-family="Arial" font-size="14.00" fill="#666666">[char(22)]</text>
<polygon fill="none" stroke="#000000" points="1864.5,-941.5 1864.5,-971.5 2030.5,-971.5 2030.5,-941.5 1864.5,-941.5"/>
<text text-anchor="start" x="1871.5" y="-952.9" font-family="Arial" font-size="14.00" fill="#000000">commit </text>
<text text-anchor="start" x="1920.4916" y="-952.9" font-family="Arial" font-size="14.00" fill="#666666">[char(40)]</text>
<polygon fill="none" stroke="#000000" points="1864.5,-911.5 1864.5,-941.5 2030.5,-941.5 2030.5,-911.5 1864.5,-911.5"/>
<text text-anchor="start" x="1871.5" y="-922.9" font-family="Arial" font-size="14.00" fill="#000000">status </text>
<text text-anchor="start" x="1912.737" y="-922.9" font-family="Arial" font-size="14.00" fill="#666666">[varchar(10)]</text>
<polygon fill="none" stroke="#000000" points="1864.5,-881.5 1864.5,-911.5 2030.5,-911.5 2030.5,-881.5 1864.5,-881.5"/>
<text text-anchor="start" x="1871.5" y="-892.9" font-family="Arial" font-size="14.00" fill="#000000">started_at </text>
<text text-anchor="start" x="1937.636" y="-892.9" font-family="Arial" font-size="14.00" fill="#666666">[datetime(6)]</text>
<polygon fill="none" stroke="#000000" points="1864.5,-851.5 1864.5,-881.5 2030.5,-881.5 2030.5,-851.5 1864.5,-851.5"/>
<text text-anchor="start" x="1871.2518" y="-862.9" font-family="Arial" font-size="14.00" fill="#000000">updated_at </text>
<text text-anchor="start" x="1945.1844" y="-862.9" font-family="Arial" font-size="14.00" fill="#666666">[datetime(6)]</text>
<polygon fill="none" stroke="#000000" points="1864.5,-821.5 1864.5,-851.5 2030.5,-851.5 2030.5,-821.5 1864.5,-821.5"/>
<text text-anchor="start" x="1871.5" y="-832.9" font-family="Arial" font-size="14.00" fill="#000000">finished_at </text>
<text text-anchor="start" x="1943.0806" y="-832.9" font-family="Arial" font-size="14.00" fill="#666666">[datetime(6)]</text>
<polygon fill="none" stroke="#000000" points="1864.5,-791.5 1864.5,-821.5 2030.5,-821.5 2030.5,-791.5 1864.5,-791.5"/>
<text text-anchor="start" x="1871.5" y="-802.9" font-family="Arial" font-size="14.00" fill="#000000">retriable </text>
<text text-anchor="start" x="1925.946" y="-802.9" font-family="Arial" font-size="14.00" fill="#666666">[tinyint(1)]</text>
<polygon fill="none" stroke="#000000" points="1864.5,-761.5 1864.5,-791.5 2030.5,-791.5 2030.5,-761.5 1864.5,-761.5"/>
<text text-anchor="start" x="1871.5" y="-772.9" font-family="Arial" font-size="14.00" fill="#000000">application_id </text>
<text text-anchor="start" x="1960.9684" y="-772.9" font-family="Arial" font-size="14.00" fill="#666666">[char(22)]</text>
</g>
<!-- artifacts&#45;&gt;builds -->
<g id="edge6" class="edge">
<title>artifacts:build_id&#45;&gt;builds:id</title>
<path fill="none" stroke="#000000" d="M1948.3057,-1163.3109C1955.711,-1119.5035 2012.0801,-1128.4964 2030.5,-1080 2045.2551,-1041.1522 2072.0556,-986.5 2030.5,-986.5"/>
<polygon fill="#000000" stroke="#000000" points="1948.2884,-1163.5311 1943.014,-1173.1452 1947.8942,-1168.5156 1947.5,-1173.5 1947.5,-1173.5 1947.5,-1173.5 1947.8942,-1168.5156 1951.986,-1173.8548 1948.2884,-1163.5311 1948.2884,-1163.5311"/>
<text text-anchor="start" x="1711.777" y="-1183.5" font-family="Arial" font-size="10.00" fill="#000000">FOREIGN KEY (build_id) REFERENCES builds (id)</text>
</g>
<!-- available_domains -->
<g id="node6" class="node">
<title>available_domains</title>
<polygon fill="#efefef" stroke="transparent" points="2138.5,-1278.5 2138.5,-1313.5 2398.5,-1313.5 2398.5,-1278.5 2138.5,-1278.5"/>
<polygon fill="none" stroke="#000000" points="2138.5,-1278.5 2138.5,-1313.5 2398.5,-1313.5 2398.5,-1278.5 2138.5,-1278.5"/>
<text text-anchor="start" x="2145.3576" y="-1291.3" font-family="Arial Bold" font-size="18.00" fill="#000000">available_domains</text>
<text text-anchor="start" x="2294.3886" y="-1291.3" font-family="Arial" font-size="14.00" fill="#000000"> </text>
<text text-anchor="start" x="2298.2792" y="-1291.3" font-family="Arial" font-size="14.00" fill="#666666">[BASE TABLE]</text>
<polygon fill="none" stroke="#000000" points="2138.5,-1248.5 2138.5,-1278.5 2398.5,-1278.5 2398.5,-1248.5 2138.5,-1248.5"/>
<text text-anchor="start" x="2145.5" y="-1259.9" font-family="Arial" font-size="14.00" fill="#000000">domain </text>
<text text-anchor="start" x="2195.2882" y="-1259.9" font-family="Arial" font-size="14.00" fill="#666666">[varchar(100)]</text>
<polygon fill="none" stroke="#000000" points="2138.5,-1218.5 2138.5,-1248.5 2398.5,-1248.5 2398.5,-1218.5 2138.5,-1218.5"/>
<text text-anchor="start" x="2145.5" y="-1229.9" font-family="Arial" font-size="14.00" fill="#000000">available </text>
<text text-anchor="start" x="2204.6234" y="-1229.9" font-family="Arial" font-size="14.00" fill="#666666">[tinyint(1)]</text>
</g>
<!-- builds&#45;&gt;applications -->
<g id="edge7" class="edge">
<title>builds:application_id&#45;&gt;applications:id</title>
<path fill="none" stroke="#000000" d="M1854.4948,-775.1391C1828.3196,-766.9789 1842.0255,-724.212 1812.5,-704 1717.2562,-638.8 1424.9228,-574.5 1309.5,-574.5"/>
<polygon fill="#000000" stroke="#000000" points="1854.5912,-775.1521 1863.8934,-780.9589 1859.5456,-775.826 1864.5,-776.5 1864.5,-776.5 1864.5,-776.5 1859.5456,-775.826 1865.1066,-772.0411 1854.5912,-775.1521 1854.5912,-775.1521"/>
<text text-anchor="start" x="1871.102" y="-786.5" font-family="Arial" font-size="10.00" fill="#000000">FOREIGN KEY (application_id) REFERENCES applications (id)</text>
</g>
<!-- build_status -->
<g id="node8" class="node">
<title>build_status</title>
<polygon fill="#efefef" stroke="transparent" points="1843.5,-454.5 1843.5,-489.5 2050.5,-489.5 2050.5,-454.5 1843.5,-454.5"/>
<polygon fill="none" stroke="#000000" points="1843.5,-454.5 1843.5,-489.5 2050.5,-489.5 2050.5,-454.5 1843.5,-454.5"/>
<text text-anchor="start" x="1850.3581" y="-467.3" font-family="Arial Bold" font-size="18.00" fill="#000000">build_status</text>
<text text-anchor="start" x="1946.3881" y="-467.3" font-family="Arial" font-size="14.00" fill="#000000"> </text>
<text text-anchor="start" x="1950.2787" y="-467.3" font-family="Arial" font-size="14.00" fill="#666666">[BASE TABLE]</text>
<polygon fill="none" stroke="#000000" points="1843.5,-424.5 1843.5,-454.5 2050.5,-454.5 2050.5,-424.5 1843.5,-424.5"/>
<text text-anchor="start" x="1850.5" y="-435.9" font-family="Arial" font-size="14.00" fill="#000000">status </text>
<text text-anchor="start" x="1891.737" y="-435.9" font-family="Arial" font-size="14.00" fill="#666666">[varchar(10)]</text>
</g>
<!-- builds&#45;&gt;build_status -->
<g id="edge8" class="edge">
<title>builds:status&#45;&gt;build_status:status</title>
<path fill="none" stroke="#000000" d="M1854.3653,-925.9497C1776.6924,-917.0021 1830.5867,-800.874 1864.5,-719 1909.2389,-610.9908 2005.7611,-641.0092 2050.5,-533 2066.4026,-494.6077 2092.0556,-439.5 2050.5,-439.5"/>
<polygon fill="#000000" stroke="#000000" points="1854.5147,-925.9577 1864.256,-930.9934 1859.5074,-926.2288 1864.5,-926.5 1864.5,-926.5 1864.5,-926.5 1859.5074,-926.2288 1864.744,-922.0066 1854.5147,-925.9577 1854.5147,-925.9577"/>
<text text-anchor="start" x="1871.5985" y="-936.5" font-family="Arial" font-size="10.00" fill="#000000">FOREIGN KEY (status) REFERENCES build_status (status)</text>
</g>
<!-- environments -->
<g id="node9" class="node">
<title>environments</title>
<polygon fill="#efefef" stroke="transparent" points="1256.5,-941.5 1256.5,-976.5 1475.5,-976.5 1475.5,-941.5 1256.5,-941.5"/>
<polygon fill="none" stroke="#000000" points="1256.5,-941.5 1256.5,-976.5 1475.5,-976.5 1475.5,-941.5 1256.5,-941.5"/>
<text text-anchor="start" x="1263.3641" y="-954.3" font-family="Arial Bold" font-size="18.00" fill="#000000">environments</text>
<text text-anchor="start" x="1371.3821" y="-954.3" font-family="Arial" font-size="14.00" fill="#000000"> </text>
<text text-anchor="start" x="1375.2727" y="-954.3" font-family="Arial" font-size="14.00" fill="#666666">[BASE TABLE]</text>
<polygon fill="none" stroke="#000000" points="1256.5,-911.5 1256.5,-941.5 1475.5,-941.5 1475.5,-911.5 1256.5,-911.5"/>
<text text-anchor="start" x="1263.5" y="-922.9" font-family="Arial" font-size="14.00" fill="#000000">id </text>
<text text-anchor="start" x="1278.2798" y="-922.9" font-family="Arial" font-size="14.00" fill="#666666">[char(22)]</text>
<polygon fill="none" stroke="#000000" points="1256.5,-881.5 1256.5,-911.5 1475.5,-911.5 1475.5,-881.5 1256.5,-881.5"/>
<text text-anchor="start" x="1263.5" y="-892.9" font-family="Arial" font-size="14.00" fill="#000000">application_id </text>
<text text-anchor="start" x="1352.9684" y="-892.9" font-family="Arial" font-size="14.00" fill="#666666">[char(22)]</text>
<polygon fill="none" stroke="#000000" points="1256.5,-851.5 1256.5,-881.5 1475.5,-881.5 1475.5,-851.5 1256.5,-851.5"/>
<text text-anchor="start" x="1263.5" y="-862.9" font-family="Arial" font-size="14.00" fill="#000000">key </text>
<text text-anchor="start" x="1289.1732" y="-862.9" font-family="Arial" font-size="14.00" fill="#666666">[varchar(100)]</text>
<polygon fill="none" stroke="#000000" points="1256.5,-821.5 1256.5,-851.5 1475.5,-851.5 1475.5,-821.5 1256.5,-821.5"/>
<text text-anchor="start" x="1263.5" y="-832.9" font-family="Arial" font-size="14.00" fill="#000000">value </text>
<text text-anchor="start" x="1300.845" y="-832.9" font-family="Arial" font-size="14.00" fill="#666666">[text]</text>
</g>
<!-- environments&#45;&gt;applications -->
<g id="edge9" class="edge">
<title>environments:application_id&#45;&gt;applications:id</title>
<path fill="none" stroke="#000000" d="M1246.4683,-895.5961C1172.7177,-880.9572 1303.8175,-693.089 1309.5,-668 1318.6795,-627.471 1351.0556,-574.5 1309.5,-574.5"/>
<polygon fill="#000000" stroke="#000000" points="1246.5403,-895.6025 1256.0961,-900.9818 1251.5202,-896.0512 1256.5,-896.5 1256.5,-896.5 1256.5,-896.5 1251.5202,-896.0512 1256.9039,-892.0182 1246.5403,-895.6025 1246.5403,-895.6025"/>
<text text-anchor="start" x="1115.102" y="-880.5" font-family="Arial" font-size="10.00" fill="#000000">FOREIGN KEY (application_id) REFERENCES applications (id)</text>
</g>
<!-- repository_auth -->
<g id="node11" class="node">
<title>repository_auth</title>
<polygon fill="#efefef" stroke="transparent" points="43.5,-514.5 43.5,-549.5 278.5,-549.5 278.5,-514.5 43.5,-514.5"/>
<polygon fill="none" stroke="#000000" points="43.5,-514.5 43.5,-549.5 278.5,-549.5 278.5,-514.5 43.5,-514.5"/>
<text text-anchor="start" x="50.3568" y="-527.3" font-family="Arial Bold" font-size="18.00" fill="#000000">repository_auth</text>
<text text-anchor="start" x="174.3894" y="-527.3" font-family="Arial" font-size="14.00" fill="#000000"> </text>
<text text-anchor="start" x="178.28" y="-527.3" font-family="Arial" font-size="14.00" fill="#666666">[BASE TABLE]</text>
<polygon fill="none" stroke="#000000" points="43.5,-484.5 43.5,-514.5 278.5,-514.5 278.5,-484.5 43.5,-484.5"/>
<text text-anchor="start" x="50.5" y="-495.9" font-family="Arial" font-size="14.00" fill="#000000">repository_id </text>
<text text-anchor="start" x="134.5112" y="-495.9" font-family="Arial" font-size="14.00" fill="#666666">[char(22)]</text>
<polygon fill="none" stroke="#000000" points="43.5,-454.5 43.5,-484.5 278.5,-484.5 278.5,-454.5 43.5,-454.5"/>
<text text-anchor="start" x="50.5" y="-465.9" font-family="Arial" font-size="14.00" fill="#000000">method </text>
<text text-anchor="start" x="101.0722" y="-465.9" font-family="Arial" font-size="14.00" fill="#666666">[enum(&#39;basic&#39;,&#39;ssh&#39;)]</text>
<polygon fill="none" stroke="#000000" points="43.5,-424.5 43.5,-454.5 278.5,-454.5 278.5,-424.5 43.5,-424.5"/>
<text text-anchor="start" x="50.5" y="-435.9" font-family="Arial" font-size="14.00" fill="#000000">username </text>
<text text-anchor="start" x="116.6248" y="-435.9" font-family="Arial" font-size="14.00" fill="#666666">[varchar(256)]</text>
<polygon fill="none" stroke="#000000" points="43.5,-394.5 43.5,-424.5 278.5,-424.5 278.5,-394.5 43.5,-394.5"/>
<text text-anchor="start" x="50.5" y="-405.9" font-family="Arial" font-size="14.00" fill="#000000">password </text>
<text text-anchor="start" x="114.2882" y="-405.9" font-family="Arial" font-size="14.00" fill="#666666">[varchar(256)]</text>
<polygon fill="none" stroke="#000000" points="43.5,-364.5 43.5,-394.5 278.5,-394.5 278.5,-364.5 43.5,-364.5"/>
<text text-anchor="start" x="50.5" y="-375.9" font-family="Arial" font-size="14.00" fill="#000000">ssh_key </text>
<text text-anchor="start" x="105.7384" y="-375.9" font-family="Arial" font-size="14.00" fill="#666666">[text]</text>
</g>
<!-- repository_auth&#45;&gt;repositories -->
<g id="edge10" class="edge">
<title>repository_auth:repository_id&#45;&gt;repositories:id</title>
<path fill="none" stroke="#000000" d="M288.8125,-499.1177C399.4919,-490.4224 264.5105,-335.1482 247.5,-211 241.8588,-169.8291 205.9444,-117.5 247.5,-117.5"/>
<polygon fill="#000000" stroke="#000000" points="288.4931,-499.1294 278.3332,-495.0031 283.4966,-499.3147 278.5,-499.5 278.5,-499.5 278.5,-499.5 283.4966,-499.3147 278.6668,-503.9969 288.4931,-499.1294 288.4931,-499.1294"/>
<text text-anchor="start" x="212.861" y="-483.5" font-family="Arial" font-size="10.00" fill="#000000">FOREIGN KEY (repository_id) REFERENCES repositories (id)</text>
</g>
<!-- repository_owners -->
<g id="node12" class="node">
<title>repository_owners</title>
<polygon fill="#efefef" stroke="transparent" points="165.5,-911.5 165.5,-946.5 423.5,-946.5 423.5,-911.5 165.5,-911.5"/>
<polygon fill="none" stroke="#000000" points="165.5,-911.5 165.5,-946.5 423.5,-946.5 423.5,-911.5 165.5,-911.5"/>
<text text-anchor="start" x="172.3647" y="-924.3" font-family="Arial Bold" font-size="18.00" fill="#000000">repository_owners</text>
<text text-anchor="start" x="319.3815" y="-924.3" font-family="Arial" font-size="14.00" fill="#000000"> </text>
<text text-anchor="start" x="323.2721" y="-924.3" font-family="Arial" font-size="14.00" fill="#666666">[BASE TABLE]</text>
<polygon fill="none" stroke="#000000" points="165.5,-881.5 165.5,-911.5 423.5,-911.5 423.5,-881.5 165.5,-881.5"/>
<text text-anchor="start" x="172.5" y="-892.9" font-family="Arial" font-size="14.00" fill="#000000">user_id </text>
<text text-anchor="start" x="222.2882" y="-892.9" font-family="Arial" font-size="14.00" fill="#666666">[char(22)]</text>
<polygon fill="none" stroke="#000000" points="165.5,-851.5 165.5,-881.5 423.5,-881.5 423.5,-851.5 165.5,-851.5"/>
<text text-anchor="start" x="172.5" y="-862.9" font-family="Arial" font-size="14.00" fill="#000000">repository_id </text>
<text text-anchor="start" x="256.5112" y="-862.9" font-family="Arial" font-size="14.00" fill="#666666">[char(22)]</text>
</g>
<!-- repository_owners&#45;&gt;repositories -->
<g id="edge11" class="edge">
<title>repository_owners:repository_id&#45;&gt;repositories:id</title>
<path fill="none" stroke="#000000" d="M295.2744,-841.3612C310.1071,-725.613 532.1312,-117.5 451.5,-117.5"/>
<polygon fill="#000000" stroke="#000000" points="295.2617,-841.529 290.0131,-851.1572 294.8809,-846.5145 294.5,-851.5 294.5,-851.5 294.5,-851.5 294.8809,-846.5145 298.9869,-851.8428 295.2617,-841.529 295.2617,-841.529"/>
<text text-anchor="start" x="10.611" y="-861.5" font-family="Arial" font-size="10.00" fill="#000000">FOREIGN KEY (repository_id) REFERENCES repositories (id)</text>
</g>
<!-- repository_owners&#45;&gt;users -->
<g id="edge12" class="edge">
<title>repository_owners:user_id&#45;&gt;users:id</title>
<path fill="none" stroke="#000000" d="M432.4583,-891.5361C474.8055,-842.9766 482.1528,-454.5 529.5,-454.5"/>
<polygon fill="#000000" stroke="#000000" points="432.247,-891.6532 421.3189,-892.5639 427.8735,-894.0766 423.5,-896.5 423.5,-896.5 423.5,-896.5 427.8735,-894.0766 425.6811,-900.4361 432.247,-891.6532 432.247,-891.6532"/>
<text text-anchor="start" x="430.445" y="-906.5" font-family="Arial" font-size="10.00" fill="#000000">FOREIGN KEY (user_id) REFERENCES users (id)</text>
</g>
<!-- websites -->
<g id="node14" class="node">
<title>websites</title>
<polygon fill="#efefef" stroke="transparent" points="1579.5,-1016.5 1579.5,-1051.5 1760.5,-1051.5 1760.5,-1016.5 1579.5,-1016.5"/>
<polygon fill="none" stroke="#000000" points="1579.5,-1016.5 1579.5,-1051.5 1760.5,-1051.5 1760.5,-1016.5 1579.5,-1016.5"/>
<text text-anchor="start" x="1586.3685" y="-1029.3" font-family="Arial Bold" font-size="18.00" fill="#000000">websites</text>
<text text-anchor="start" x="1656.3777" y="-1029.3" font-family="Arial" font-size="14.00" fill="#000000"> </text>
<text text-anchor="start" x="1660.2683" y="-1029.3" font-family="Arial" font-size="14.00" fill="#666666">[BASE TABLE]</text>
<polygon fill="none" stroke="#000000" points="1579.5,-986.5 1579.5,-1016.5 1760.5,-1016.5 1760.5,-986.5 1579.5,-986.5"/>
<text text-anchor="start" x="1586.5" y="-997.9" font-family="Arial" font-size="14.00" fill="#000000">id </text>
<text text-anchor="start" x="1601.2798" y="-997.9" font-family="Arial" font-size="14.00" fill="#666666">[char(22)]</text>
<polygon fill="none" stroke="#000000" points="1579.5,-956.5 1579.5,-986.5 1760.5,-986.5 1760.5,-956.5 1579.5,-956.5"/>
<text text-anchor="start" x="1586.5" y="-967.9" font-family="Arial" font-size="14.00" fill="#000000">fqdn </text>
<text text-anchor="start" x="1617.629" y="-967.9" font-family="Arial" font-size="14.00" fill="#666666">[varchar(100)]</text>
<polygon fill="none" stroke="#000000" points="1579.5,-926.5 1579.5,-956.5 1760.5,-956.5 1760.5,-926.5 1579.5,-926.5"/>
<text text-anchor="start" x="1586.5" y="-937.9" font-family="Arial" font-size="14.00" fill="#000000">path_prefix </text>
<text text-anchor="start" x="1659.6346" y="-937.9" font-family="Arial" font-size="14.00" fill="#666666">[varchar(100)]</text>
<polygon fill="none" stroke="#000000" points="1579.5,-896.5 1579.5,-926.5 1760.5,-926.5 1760.5,-896.5 1579.5,-896.5"/>
<text text-anchor="start" x="1586.5" y="-907.9" font-family="Arial" font-size="14.00" fill="#000000">strip_prefix </text>
<text text-anchor="start" x="1658.8366" y="-907.9" font-family="Arial" font-size="14.00" fill="#666666">[tinyint(1)]</text>
<polygon fill="none" stroke="#000000" points="1579.5,-866.5 1579.5,-896.5 1760.5,-896.5 1760.5,-866.5 1579.5,-866.5"/>
<text text-anchor="start" x="1586.5" y="-877.9" font-family="Arial" font-size="14.00" fill="#000000">https </text>
<text text-anchor="start" x="1620.737" y="-877.9" font-family="Arial" font-size="14.00" fill="#666666">[tinyint(1)]</text>
<polygon fill="none" stroke="#000000" points="1579.5,-836.5 1579.5,-866.5 1760.5,-866.5 1760.5,-836.5 1579.5,-836.5"/>
<text text-anchor="start" x="1586.5" y="-847.9" font-family="Arial" font-size="14.00" fill="#000000">http_port </text>
<text text-anchor="start" x="1645.636" y="-847.9" font-family="Arial" font-size="14.00" fill="#666666">[int(11)]</text>
<polygon fill="none" stroke="#000000" points="1579.5,-806.5 1579.5,-836.5 1760.5,-836.5 1760.5,-806.5 1579.5,-806.5"/>
<text text-anchor="start" x="1586.5" y="-817.9" font-family="Arial" font-size="14.00" fill="#000000">created_at </text>
<text text-anchor="start" x="1656.528" y="-817.9" font-family="Arial" font-size="14.00" fill="#666666">[datetime(6)]</text>
<polygon fill="none" stroke="#000000" points="1579.5,-776.5 1579.5,-806.5 1760.5,-806.5 1760.5,-776.5 1579.5,-776.5"/>
<text text-anchor="start" x="1586.5" y="-787.9" font-family="Arial" font-size="14.00" fill="#000000">updated_at </text>
<text text-anchor="start" x="1660.4326" y="-787.9" font-family="Arial" font-size="14.00" fill="#666666">[datetime(6)]</text>
<polygon fill="none" stroke="#000000" points="1579.5,-746.5 1579.5,-776.5 1760.5,-776.5 1760.5,-746.5 1579.5,-746.5"/>
<text text-anchor="start" x="1586.5" y="-757.9" font-family="Arial" font-size="14.00" fill="#000000">application_id </text>
<text text-anchor="start" x="1675.9684" y="-757.9" font-family="Arial" font-size="14.00" fill="#666666">[char(22)]</text>
</g>
<!-- websites&#45;&gt;applications -->
<g id="edge13" class="edge">
<title>websites:application_id&#45;&gt;applications:id</title>
<path fill="none" stroke="#000000" d="M1569.3526,-760.1984C1546.6515,-753.5943 1551.1451,-723.3489 1527.5,-704 1440.2844,-632.631 1422.1947,-574.5 1309.5,-574.5"/>
<polygon fill="#000000" stroke="#000000" points="1569.5813,-760.2277 1578.9275,-765.9634 1574.5406,-760.8638 1579.5,-761.5 1579.5,-761.5 1579.5,-761.5 1574.5406,-760.8638 1580.0725,-757.0366 1569.5813,-760.2277 1569.5813,-760.2277"/>
<text text-anchor="start" x="1290.102" y="-745.5" font-family="Arial" font-size="10.00" fill="#000000">FOREIGN KEY (application_id) REFERENCES applications (id)</text>
</g>
</g>
</svg>
