<?xml version="1.0" encoding="UTF-8" standalone="no"?>
<!DOCTYPE svg PUBLIC "-//W3C//DTD SVG 1.1//EN"
        "http://www.w3.org/Graphics/SVG/1.1/DTD/svg11.dtd">
<!-- Generated by graphviz version 2.40.1 (20161225.0304)
 -->
<!-- Title: sites Pages: 1 -->
<svg width="769pt" height="959pt"
     viewBox="0.00 0.00 769.00 959.00" xmlns="http://www.w3.org/2000/svg" xmlns:xlink="http://www.w3.org/1999/xlink">
    <g id="graph0" class="graph" transform="scale(1 1) rotate(0) translate(4 955)">
        <title>sites</title>
        <polygon fill="#ffffff" stroke="transparent" points="-4,4 -4,-955 765,-955 765,4 -4,4"/>
        <!-- sites -->
        <g id="node1" class="node">
            <title>sites</title>
            <polygon fill="#efefef" stroke="transparent"
                     points="268,-652.5 268,-687.5 465,-687.5 465,-652.5 268,-652.5"/>
            <polygon fill="none" stroke="#000000" points="268,-652.5 268,-687.5 465,-687.5 465,-652.5 268,-652.5"/>
            <text text-anchor="start" x="299.3718" y="-665.3" font-family="Arial Bold" font-size="18.00" fill="#000000">
                sites
            </text>
            <text text-anchor="start" x="336.3744" y="-665.3" font-family="Arial" font-size="14.00"
                  fill="#000000"></text>
            <text text-anchor="start" x="340.265" y="-665.3" font-family="Arial" font-size="14.00" fill="#666666">[BASE
                TABLE]
            </text>
            <polygon fill="none" stroke="#000000" points="268,-622.5 268,-652.5 465,-652.5 465,-622.5 268,-622.5"/>
            <text text-anchor="start" x="275" y="-633.9" font-family="Arial" font-size="14.00" fill="#000000">id</text>
            <text text-anchor="start" x="289.7798" y="-633.9" font-family="Arial" font-size="14.00" fill="#666666">
                [varchar(22)]
            </text>
            <polygon fill="none" stroke="#000000" points="268,-592.5 268,-622.5 465,-622.5 465,-592.5 268,-592.5"/>
            <text text-anchor="start" x="275" y="-603.9" font-family="Arial" font-size="14.00" fill="#000000">fqdn
            </text>
            <text text-anchor="start" x="306.129" y="-603.9" font-family="Arial" font-size="14.00" fill="#666666">
                [varchar(50)]
            </text>
            <polygon fill="none" stroke="#000000" points="268,-562.5 268,-592.5 465,-592.5 465,-562.5 268,-562.5"/>
            <text text-anchor="start" x="275" y="-573.9" font-family="Arial" font-size="14.00" fill="#000000">
                path_prefix
            </text>
            <text text-anchor="start" x="348.1346" y="-573.9" font-family="Arial" font-size="14.00" fill="#666666">
                [varchar(50)]
            </text>
            <polygon fill="none" stroke="#000000" points="268,-532.5 268,-562.5 465,-562.5 465,-532.5 268,-532.5"/>
            <text text-anchor="start" x="274.7482" y="-543.9" font-family="Arial" font-size="14.00" fill="#000000">
                type
            </text>
            <text text-anchor="start" x="305.0946" y="-543.9" font-family="Arial" font-size="14.00" fill="#666666">
                [enum(&#39;static&#39;,&#39;dynamic&#39;)]
            </text>
            <polygon fill="none" stroke="#000000" points="268,-502.5 268,-532.5 465,-532.5 465,-502.5 268,-502.5"/>
            <text text-anchor="start" x="275" y="-513.9" font-family="Arial" font-size="14.00" fill="#000000">
                application_id
            </text>
            <text text-anchor="start" x="364.4684" y="-513.9" font-family="Arial" font-size="14.00" fill="#666666">
                [varchar(22)]
            </text>
            <polygon fill="none" stroke="#000000" points="268,-472.5 268,-502.5 465,-502.5 465,-472.5 268,-472.5"/>
            <text text-anchor="start" x="275" y="-483.9" font-family="Arial" font-size="14.00" fill="#000000">
                created_at
            </text>
            <text text-anchor="start" x="345.028" y="-483.9" font-family="Arial" font-size="14.00" fill="#666666">
                [datetime(6)]
            </text>
            <polygon fill="none" stroke="#000000" points="268,-442.5 268,-472.5 465,-472.5 465,-442.5 268,-442.5"/>
            <text text-anchor="start" x="275" y="-453.9" font-family="Arial" font-size="14.00" fill="#000000">
                updated_at
            </text>
            <text text-anchor="start" x="348.9326" y="-453.9" font-family="Arial" font-size="14.00" fill="#666666">
                [datetime(6)]
            </text>
            <polygon fill="none" stroke="#000000" stroke-width="3"
                     points="266,-441.5 266,-689.5 466,-689.5 466,-441.5 266,-441.5"/>
        </g>
        <!-- applications -->
        <g id="node4" class="node">
            <title>applications</title>
            <polygon fill="#efefef" stroke="transparent"
                     points="257,-282.5 257,-317.5 477,-317.5 477,-282.5 257,-282.5"/>
            <polygon fill="none" stroke="#000000" points="257,-282.5 257,-317.5 477,-317.5 477,-282.5 257,-282.5"/>
            <text text-anchor="start" x="270.8621" y="-295.3" font-family="Arial Bold" font-size="18.00" fill="#000000">
                applications
            </text>
            <text text-anchor="start" x="365.8841" y="-295.3" font-family="Arial" font-size="14.00"
                  fill="#000000"></text>
            <text text-anchor="start" x="369.7747" y="-295.3" font-family="Arial" font-size="14.00" fill="#666666">[BASE
                TABLE]
            </text>
            <polygon fill="none" stroke="#000000" points="257,-252.5 257,-282.5 477,-282.5 477,-252.5 257,-252.5"/>
            <text text-anchor="start" x="264" y="-263.9" font-family="Arial" font-size="14.00" fill="#000000">id</text>
            <text text-anchor="start" x="278.7798" y="-263.9" font-family="Arial" font-size="14.00" fill="#666666">
                [varchar(22)]
            </text>
            <polygon fill="none" stroke="#000000" points="257,-222.5 257,-252.5 477,-252.5 477,-222.5 257,-222.5"/>
            <text text-anchor="start" x="264" y="-233.9" font-family="Arial" font-size="14.00" fill="#000000">owner
            </text>
            <text text-anchor="start" x="306.0056" y="-233.9" font-family="Arial" font-size="14.00" fill="#666666">
                [varchar(100)]
            </text>
            <polygon fill="none" stroke="#000000" points="257,-192.5 257,-222.5 477,-222.5 477,-192.5 257,-192.5"/>
            <text text-anchor="start" x="264" y="-203.9" font-family="Arial" font-size="14.00" fill="#000000">name
            </text>
            <text text-anchor="start" x="302.899" y="-203.9" font-family="Arial" font-size="14.00" fill="#666666">
                [varchar(100)]
            </text>
            <polygon fill="none" stroke="#000000" points="257,-162.5 257,-192.5 477,-192.5 477,-162.5 257,-162.5"/>
            <text text-anchor="start" x="264" y="-173.9" font-family="Arial" font-size="14.00" fill="#000000">
                repository_id
            </text>
            <text text-anchor="start" x="348.0112" y="-173.9" font-family="Arial" font-size="14.00" fill="#666666">
                [varchar(22)]
            </text>
            <polygon fill="none" stroke="#000000" points="257,-132.5 257,-162.5 477,-162.5 477,-132.5 257,-132.5"/>
            <text text-anchor="start" x="264" y="-143.9" font-family="Arial" font-size="14.00" fill="#000000">
                created_at
            </text>
            <text text-anchor="start" x="334.028" y="-143.9" font-family="Arial" font-size="14.00" fill="#666666">
                [datetime(6)]
            </text>
            <polygon fill="none" stroke="#000000" points="257,-102.5 257,-132.5 477,-132.5 477,-102.5 257,-102.5"/>
            <text text-anchor="start" x="264" y="-113.9" font-family="Arial" font-size="14.00" fill="#000000">
                updated_at
            </text>
            <text text-anchor="start" x="337.9326" y="-113.9" font-family="Arial" font-size="14.00" fill="#666666">
                [datetime(6)]
            </text>
            <polygon fill="none" stroke="#000000" points="257,-72.5 257,-102.5 477,-102.5 477,-72.5 257,-72.5"/>
            <text text-anchor="start" x="264" y="-83.9" font-family="Arial" font-size="14.00" fill="#000000">
                deleted_at
            </text>
            <text text-anchor="start" x="333.2566" y="-83.9" font-family="Arial" font-size="14.00" fill="#666666">
                [datetime(6)]
            </text>
            <polygon fill="none" stroke="#000000" points="257,-42.5 257,-72.5 477,-72.5 477,-42.5 257,-42.5"/>
            <text text-anchor="start" x="263.5764" y="-53.9" font-family="Arial" font-size="14.00" fill="#000000">
                build_type
            </text>
            <text text-anchor="start" x="331.2664" y="-53.9" font-family="Arial" font-size="14.00" fill="#666666">[enum(&#39;image&#39;,&#39;static&#39;)]</text>
        </g>
        <!-- sites&#45;&gt;applications -->
        <g id="edge3" class="edge">
            <title>sites:application_id&#45;&gt;applications:id</title>
            <path fill="none" stroke="#000000"
                  d="M474.9833,-516.4228C515.8768,-506.8072 497.1318,-435.1708 465,-397 404.5812,-325.2258 317.4188,-432.7742 257,-361 230.2384,-329.2088 215.4444,-267.5 257,-267.5"/>
            <polygon fill="#000000" stroke="#000000"
                     points="474.9423,-516.4271 464.5172,-513.026 469.9711,-516.9636 465,-517.5 465,-517.5 465,-517.5 469.9711,-516.9636 465.4828,-521.974 474.9423,-516.4271 474.9423,-516.4271"/>
            <text text-anchor="start" x="471.602" y="-527.5" font-family="Arial" font-size="10.00" fill="#000000">
                FOREIGN KEY (application_id) REFERENCES applications (id)
            </text>
        </g>
        <!-- dynamic_site_details -->
        <g id="node2" class="node">
            <title>dynamic_site_details</title>
            <polygon fill="#efefef" stroke="transparent" points="43,-857.5 43,-892.5 321,-892.5 321,-857.5 43,-857.5"/>
            <polygon fill="none" stroke="#000000" points="43,-857.5 43,-892.5 321,-892.5 321,-857.5 43,-857.5"/>
            <text text-anchor="start" x="49.8585" y="-870.3" font-family="Arial Bold" font-size="18.00" fill="#000000">
                dynamic_site_details
            </text>
            <text text-anchor="start" x="216.8877" y="-870.3" font-family="Arial" font-size="14.00"
                  fill="#000000"></text>
            <text text-anchor="start" x="220.7783" y="-870.3" font-family="Arial" font-size="14.00" fill="#666666">[BASE
                TABLE]
            </text>
            <polygon fill="none" stroke="#000000" points="43,-827.5 43,-857.5 321,-857.5 321,-827.5 43,-827.5"/>
            <text text-anchor="start" x="50" y="-838.9" font-family="Arial" font-size="14.00" fill="#000000">site_id
            </text>
            <text text-anchor="start" x="94.3422" y="-838.9" font-family="Arial" font-size="14.00" fill="#666666">
                [varchar(22)]
            </text>
        </g>
        <!-- dynamic_site_details&#45;&gt;sites -->
        <g id="edge1" class="edge">
            <title>dynamic_site_details:site_id&#45;&gt;sites:id</title>
            <path fill="none" stroke="#000000"
                  d="M330.7711,-839.7139C341.3742,-831.127 329.2864,-804.4735 321,-785 308.2003,-754.92 280.7997,-764.08 268,-734 251.2069,-694.5355 225.1111,-637.5 268,-637.5"/>
            <polygon fill="#000000" stroke="#000000"
                     points="330.6167,-839.7578 319.766,-838.1725 325.8084,-841.1289 321,-842.5 321,-842.5 321,-842.5 325.8084,-841.1289 322.234,-846.8275 330.6167,-839.7578 330.6167,-839.7578"/>
            <text text-anchor="start" x="327.835" y="-852.5" font-family="Arial" font-size="10.00" fill="#000000">
                FOREIGN KEY (site_id) REFERENCES sites (id)
            </text>
        </g>
        <!-- static_site_details -->
        <g id="node3" class="node">
            <title>static_site_details</title>
            <polygon fill="#efefef" stroke="transparent"
                     points="426,-872.5 426,-907.5 679,-907.5 679,-872.5 426,-872.5"/>
            <polygon fill="none" stroke="#000000" points="426,-872.5 426,-907.5 679,-907.5 679,-872.5 426,-872.5"/>
            <text text-anchor="start" x="432.8586" y="-885.3" font-family="Arial Bold" font-size="18.00" fill="#000000">
                static_site_details
            </text>
            <text text-anchor="start" x="574.8876" y="-885.3" font-family="Arial" font-size="14.00"
                  fill="#000000"></text>
            <text text-anchor="start" x="578.7782" y="-885.3" font-family="Arial" font-size="14.00" fill="#666666">[BASE
                TABLE]
            </text>
            <polygon fill="none" stroke="#000000" points="426,-842.5 426,-872.5 679,-872.5 679,-842.5 426,-842.5"/>
            <text text-anchor="start" x="433" y="-853.9" font-family="Arial" font-size="14.00" fill="#000000">site_id
            </text>
            <text text-anchor="start" x="477.3422" y="-853.9" font-family="Arial" font-size="14.00" fill="#666666">
                [varchar(22)]
            </text>
            <polygon fill="none" stroke="#000000" points="426,-812.5 426,-842.5 679,-842.5 679,-812.5 426,-812.5"/>
            <text text-anchor="start" x="433" y="-823.9" font-family="Arial" font-size="14.00" fill="#000000">
                artifact_id
            </text>
            <text text-anchor="start" x="497.5666" y="-823.9" font-family="Arial" font-size="14.00" fill="#666666">
                [varchar(22)]
            </text>
        </g>
        <!-- static_site_details&#45;&gt;sites -->
        <g id="edge2" class="edge">
            <title>static_site_details:site_id&#45;&gt;sites:id</title>
            <path fill="none" stroke="#000000"
                  d="M416.002,-855.9661C391.7628,-847.1303 411.9868,-802.0059 426,-770 435.461,-748.3913 455.539,-755.6087 465,-734 482.2016,-694.7118 507.8889,-637.5 465,-637.5"/>
            <polygon fill="#000000" stroke="#000000"
                     points="416.1157,-855.9834 425.3175,-861.948 421.0578,-856.7417 426,-857.5 426,-857.5 426,-857.5 421.0578,-856.7417 426.6825,-853.052 416.1157,-855.9834 416.1157,-855.9834"/>
            <text text-anchor="start" x="432.835" y="-867.5" font-family="Arial" font-size="10.00" fill="#000000">
                FOREIGN KEY (site_id) REFERENCES sites (id)
            </text>
        </g>
    </g>
</svg>
