<?xml version="1.0" encoding="UTF-8" standalone="no"?>
<!DOCTYPE svg PUBLIC "-//W3C//DTD SVG 1.1//EN"
        "http://www.w3.org/Graphics/SVG/1.1/DTD/svg11.dtd">
<!-- Generated by graphviz version 2.40.1 (20161225.0304)
 -->
<!-- Title: sites Pages: 1 -->
<svg width="769pt" height="929pt"
     viewBox="0.00 0.00 769.00 929.00" xmlns="http://www.w3.org/2000/svg" xmlns:xlink="http://www.w3.org/1999/xlink">
    <g id="graph0" class="graph" transform="scale(1 1) rotate(0) translate(4 925)">
        <title>sites</title>
        <polygon fill="#ffffff" stroke="transparent" points="-4,4 -4,-925 765,-925 765,4 -4,4"/>
        <!-- sites -->
        <g id="node1" class="node">
            <title>sites</title>
            <polygon fill="#efefef" stroke="transparent"
                     points="268,-622.5 268,-657.5 465,-657.5 465,-622.5 268,-622.5"/>
            <polygon fill="none" stroke="#000000" points="268,-622.5 268,-657.5 465,-657.5 465,-622.5 268,-622.5"/>
            <text text-anchor="start" x="299.3718" y="-635.3" font-family="Arial Bold" font-size="18.00" fill="#000000">
                sites
            </text>
            <text text-anchor="start" x="336.3744" y="-635.3" font-family="Arial" font-size="14.00"
                  fill="#000000"></text>
            <text text-anchor="start" x="340.265" y="-635.3" font-family="Arial" font-size="14.00" fill="#666666">[BASE
                TABLE]
            </text>
            <polygon fill="none" stroke="#000000" points="268,-592.5 268,-622.5 465,-622.5 465,-592.5 268,-592.5"/>
            <text text-anchor="start" x="275" y="-603.9" font-family="Arial" font-size="14.00" fill="#000000">id</text>
            <text text-anchor="start" x="289.7798" y="-603.9" font-family="Arial" font-size="14.00" fill="#666666">
                [varchar(22)]
            </text>
            <polygon fill="none" stroke="#000000" points="268,-562.5 268,-592.5 465,-592.5 465,-562.5 268,-562.5"/>
            <text text-anchor="start" x="275" y="-573.9" font-family="Arial" font-size="14.00" fill="#000000">fqdn
            </text>
            <text text-anchor="start" x="306.129" y="-573.9" font-family="Arial" font-size="14.00" fill="#666666">
                [varchar(50)]
            </text>
            <polygon fill="none" stroke="#000000" points="268,-532.5 268,-562.5 465,-562.5 465,-532.5 268,-532.5"/>
            <text text-anchor="start" x="275" y="-543.9" font-family="Arial" font-size="14.00" fill="#000000">
                path_prefix
            </text>
            <text text-anchor="start" x="348.1346" y="-543.9" font-family="Arial" font-size="14.00" fill="#666666">
                [varchar(50)]
            </text>
            <polygon fill="none" stroke="#000000" points="268,-502.5 268,-532.5 465,-532.5 465,-502.5 268,-502.5"/>
            <text text-anchor="start" x="274.7482" y="-513.9" font-family="Arial" font-size="14.00" fill="#000000">
                type
            </text>
            <text text-anchor="start" x="305.0946" y="-513.9" font-family="Arial" font-size="14.00" fill="#666666">
                [enum(&#39;static&#39;,&#39;dynamic&#39;)]
            </text>
            <polygon fill="none" stroke="#000000" points="268,-472.5 268,-502.5 465,-502.5 465,-472.5 268,-472.5"/>
            <text text-anchor="start" x="275" y="-483.9" font-family="Arial" font-size="14.00" fill="#000000">
                application_id
            </text>
            <text text-anchor="start" x="364.4684" y="-483.9" font-family="Arial" font-size="14.00" fill="#666666">
                [varchar(22)]
            </text>
            <polygon fill="none" stroke="#000000" points="268,-442.5 268,-472.5 465,-472.5 465,-442.5 268,-442.5"/>
            <text text-anchor="start" x="275" y="-453.9" font-family="Arial" font-size="14.00" fill="#000000">
                created_at
            </text>
            <text text-anchor="start" x="345.028" y="-453.9" font-family="Arial" font-size="14.00" fill="#666666">
                [datetime(6)]
            </text>
            <polygon fill="none" stroke="#000000" points="268,-412.5 268,-442.5 465,-442.5 465,-412.5 268,-412.5"/>
            <text text-anchor="start" x="275" y="-423.9" font-family="Arial" font-size="14.00" fill="#000000">
                updated_at
            </text>
            <text text-anchor="start" x="348.9326" y="-423.9" font-family="Arial" font-size="14.00" fill="#666666">
                [datetime(6)]
            </text>
            <polygon fill="none" stroke="#000000" stroke-width="3"
                     points="266,-411.5 266,-659.5 466,-659.5 466,-411.5 266,-411.5"/>
        </g>
        <!-- applications -->
        <g id="node4" class="node">
            <title>applications</title>
            <polygon fill="#efefef" stroke="transparent"
                     points="264,-252.5 264,-287.5 470,-287.5 470,-252.5 264,-252.5"/>
            <polygon fill="none" stroke="#000000" points="264,-252.5 264,-287.5 470,-287.5 470,-252.5 264,-252.5"/>
            <text text-anchor="start" x="270.8621" y="-265.3" font-family="Arial Bold" font-size="18.00" fill="#000000">
                applications
            </text>
            <text text-anchor="start" x="365.8841" y="-265.3" font-family="Arial" font-size="14.00"
                  fill="#000000"></text>
            <text text-anchor="start" x="369.7747" y="-265.3" font-family="Arial" font-size="14.00" fill="#666666">[BASE
                TABLE]
            </text>
            <polygon fill="none" stroke="#000000" points="264,-222.5 264,-252.5 470,-252.5 470,-222.5 264,-222.5"/>
            <text text-anchor="start" x="271" y="-233.9" font-family="Arial" font-size="14.00" fill="#000000">id</text>
            <text text-anchor="start" x="285.7798" y="-233.9" font-family="Arial" font-size="14.00" fill="#666666">
                [varchar(22)]
            </text>
            <polygon fill="none" stroke="#000000" points="264,-192.5 264,-222.5 470,-222.5 470,-192.5 264,-192.5"/>
            <text text-anchor="start" x="271" y="-203.9" font-family="Arial" font-size="14.00" fill="#000000">owner
            </text>
            <text text-anchor="start" x="313.0056" y="-203.9" font-family="Arial" font-size="14.00" fill="#666666">
                [varchar(100)]
            </text>
            <polygon fill="none" stroke="#000000" points="264,-162.5 264,-192.5 470,-192.5 470,-162.5 264,-162.5"/>
            <text text-anchor="start" x="271" y="-173.9" font-family="Arial" font-size="14.00" fill="#000000">name
            </text>
            <text text-anchor="start" x="309.899" y="-173.9" font-family="Arial" font-size="14.00" fill="#666666">
                [varchar(100)]
            </text>
            <polygon fill="none" stroke="#000000" points="264,-132.5 264,-162.5 470,-162.5 470,-132.5 264,-132.5"/>
            <text text-anchor="start" x="271" y="-143.9" font-family="Arial" font-size="14.00" fill="#000000">
                repository_id
            </text>
            <text text-anchor="start" x="355.0112" y="-143.9" font-family="Arial" font-size="14.00" fill="#666666">
                [varchar(22)]
            </text>
            <polygon fill="none" stroke="#000000" points="264,-102.5 264,-132.5 470,-132.5 470,-102.5 264,-102.5"/>
            <text text-anchor="start" x="271" y="-113.9" font-family="Arial" font-size="14.00" fill="#000000">
                created_at
            </text>
            <text text-anchor="start" x="341.028" y="-113.9" font-family="Arial" font-size="14.00" fill="#666666">
                [datetime(6)]
            </text>
            <polygon fill="none" stroke="#000000" points="264,-72.5 264,-102.5 470,-102.5 470,-72.5 264,-72.5"/>
            <text text-anchor="start" x="271" y="-83.9" font-family="Arial" font-size="14.00" fill="#000000">
                updated_at
            </text>
            <text text-anchor="start" x="344.9326" y="-83.9" font-family="Arial" font-size="14.00" fill="#666666">
                [datetime(6)]
            </text>
            <polygon fill="none" stroke="#000000" points="264,-42.5 264,-72.5 470,-72.5 470,-42.5 264,-42.5"/>
            <text text-anchor="start" x="271" y="-53.9" font-family="Arial" font-size="14.00" fill="#000000">
                deleted_at
            </text>
            <text text-anchor="start" x="340.2566" y="-53.9" font-family="Arial" font-size="14.00" fill="#666666">
                [datetime(6)]
            </text>
        </g>
        <!-- sites&#45;&gt;applications -->
        <g id="edge3" class="edge">
            <title>sites:application_id&#45;&gt;applications:id</title>
            <path fill="none" stroke="#000000"
                  d="M474.9817,-486.4241C515.8615,-476.82 497.0201,-405.2646 465,-367 406.7575,-297.3993 322.2425,-400.6007 264,-331 237.3315,-299.1307 222.4444,-237.5 264,-237.5"/>
            <polygon fill="#000000" stroke="#000000"
                     points="474.9424,-486.4283 464.5177,-483.0259 469.9712,-486.9641 465,-487.5 465,-487.5 465,-487.5 469.9712,-486.9641 465.4823,-491.9741 474.9424,-486.4283 474.9424,-486.4283"/>
            <text text-anchor="start" x="471.602" y="-497.5" font-family="Arial" font-size="10.00" fill="#000000">
                FOREIGN KEY (application_id) REFERENCES applications (id)
            </text>
        </g>
        <!-- dynamic_site_details -->
        <g id="node2" class="node">
            <title>dynamic_site_details</title>
            <polygon fill="#efefef" stroke="transparent" points="43,-827.5 43,-862.5 321,-862.5 321,-827.5 43,-827.5"/>
            <polygon fill="none" stroke="#000000" points="43,-827.5 43,-862.5 321,-862.5 321,-827.5 43,-827.5"/>
            <text text-anchor="start" x="49.8585" y="-840.3" font-family="Arial Bold" font-size="18.00" fill="#000000">
                dynamic_site_details
            </text>
            <text text-anchor="start" x="216.8877" y="-840.3" font-family="Arial" font-size="14.00"
                  fill="#000000"></text>
            <text text-anchor="start" x="220.7783" y="-840.3" font-family="Arial" font-size="14.00" fill="#666666">[BASE
                TABLE]
            </text>
            <polygon fill="none" stroke="#000000" points="43,-797.5 43,-827.5 321,-827.5 321,-797.5 43,-797.5"/>
            <text text-anchor="start" x="50" y="-808.9" font-family="Arial" font-size="14.00" fill="#000000">site_id
            </text>
            <text text-anchor="start" x="94.3422" y="-808.9" font-family="Arial" font-size="14.00" fill="#666666">
                [varchar(22)]
            </text>
        </g>
        <!-- dynamic_site_details&#45;&gt;sites -->
        <g id="edge1" class="edge">
            <title>dynamic_site_details:site_id&#45;&gt;sites:id</title>
            <path fill="none" stroke="#000000"
                  d="M330.7711,-809.7139C341.3742,-801.127 329.2864,-774.4735 321,-755 308.2003,-724.92 280.7997,-734.08 268,-704 251.2069,-664.5355 225.1111,-607.5 268,-607.5"/>
            <polygon fill="#000000" stroke="#000000"
                     points="330.6167,-809.7578 319.766,-808.1725 325.8084,-811.1289 321,-812.5 321,-812.5 321,-812.5 325.8084,-811.1289 322.234,-816.8275 330.6167,-809.7578 330.6167,-809.7578"/>
            <text text-anchor="start" x="327.835" y="-822.5" font-family="Arial" font-size="10.00" fill="#000000">
                FOREIGN KEY (site_id) REFERENCES sites (id)
            </text>
        </g>
        <!-- static_site_details -->
        <g id="node3" class="node">
            <title>static_site_details</title>
            <polygon fill="#efefef" stroke="transparent"
                     points="426,-842.5 426,-877.5 679,-877.5 679,-842.5 426,-842.5"/>
            <polygon fill="none" stroke="#000000" points="426,-842.5 426,-877.5 679,-877.5 679,-842.5 426,-842.5"/>
            <text text-anchor="start" x="432.8586" y="-855.3" font-family="Arial Bold" font-size="18.00" fill="#000000">
                static_site_details
            </text>
            <text text-anchor="start" x="574.8876" y="-855.3" font-family="Arial" font-size="14.00"
                  fill="#000000"></text>
            <text text-anchor="start" x="578.7782" y="-855.3" font-family="Arial" font-size="14.00" fill="#666666">[BASE
                TABLE]
            </text>
            <polygon fill="none" stroke="#000000" points="426,-812.5 426,-842.5 679,-842.5 679,-812.5 426,-812.5"/>
            <text text-anchor="start" x="433" y="-823.9" font-family="Arial" font-size="14.00" fill="#000000">site_id
            </text>
            <text text-anchor="start" x="477.3422" y="-823.9" font-family="Arial" font-size="14.00" fill="#666666">
                [varchar(22)]
            </text>
            <polygon fill="none" stroke="#000000" points="426,-782.5 426,-812.5 679,-812.5 679,-782.5 426,-782.5"/>
            <text text-anchor="start" x="433" y="-793.9" font-family="Arial" font-size="14.00" fill="#000000">
                artifact_id
            </text>
            <text text-anchor="start" x="497.5666" y="-793.9" font-family="Arial" font-size="14.00" fill="#666666">
                [varchar(22)]
            </text>
        </g>
        <!-- static_site_details&#45;&gt;sites -->
        <g id="edge2" class="edge">
            <title>static_site_details:site_id&#45;&gt;sites:id</title>
            <path fill="none" stroke="#000000"
                  d="M416.002,-825.9661C391.7628,-817.1303 411.9868,-772.0059 426,-740 435.461,-718.3913 455.539,-725.6087 465,-704 482.2016,-664.7118 507.8889,-607.5 465,-607.5"/>
            <polygon fill="#000000" stroke="#000000"
                     points="416.1157,-825.9834 425.3175,-831.948 421.0578,-826.7417 426,-827.5 426,-827.5 426,-827.5 421.0578,-826.7417 426.6825,-823.052 416.1157,-825.9834 416.1157,-825.9834"/>
            <text text-anchor="start" x="432.835" y="-837.5" font-family="Arial" font-size="10.00" fill="#000000">
                FOREIGN KEY (site_id) REFERENCES sites (id)
            </text>
        </g>
    </g>
</svg>
