<?xml version="1.0" encoding="UTF-8" standalone="no"?>
<!DOCTYPE svg PUBLIC "-//W3C//DTD SVG 1.1//EN"
        "http://www.w3.org/Graphics/SVG/1.1/DTD/svg11.dtd">
<!-- Generated by graphviz version 2.40.1 (20161225.0304)
 -->
<!-- Title: static_site_details Pages: 1 -->
<svg width="754pt" height="562pt"
     viewBox="0.00 0.00 754.00 562.00" xmlns="http://www.w3.org/2000/svg" xmlns:xlink="http://www.w3.org/1999/xlink">
    <g id="graph0" class="graph" transform="scale(1 1) rotate(0) translate(4 558)">
        <title>static_site_details</title>
        <polygon fill="#ffffff" stroke="transparent" points="-4,4 -4,-558 750,-558 750,4 -4,4"/>
        <!-- static_site_details -->
        <g id="node1" class="node">
            <title>static_site_details</title>
            <polygon fill="#efefef" stroke="transparent"
                     points="232,-472.5 232,-507.5 485,-507.5 485,-472.5 232,-472.5"/>
            <polygon fill="none" stroke="#000000" points="232,-472.5 232,-507.5 485,-507.5 485,-472.5 232,-472.5"/>
            <text text-anchor="start" x="238.8586" y="-485.3" font-family="Arial Bold" font-size="18.00" fill="#000000">
                static_site_details
            </text>
            <text text-anchor="start" x="380.8876" y="-485.3" font-family="Arial" font-size="14.00"
                  fill="#000000"></text>
            <text text-anchor="start" x="384.7782" y="-485.3" font-family="Arial" font-size="14.00" fill="#666666">[BASE
                TABLE]
            </text>
            <polygon fill="none" stroke="#000000" points="232,-442.5 232,-472.5 485,-472.5 485,-442.5 232,-442.5"/>
            <text text-anchor="start" x="239" y="-453.9" font-family="Arial" font-size="14.00" fill="#000000">site_id
            </text>
            <text text-anchor="start" x="283.3422" y="-453.9" font-family="Arial" font-size="14.00" fill="#666666">
                [varchar(22)]
            </text>
            <polygon fill="none" stroke="#000000" points="232,-412.5 232,-442.5 485,-442.5 485,-412.5 232,-412.5"/>
            <text text-anchor="start" x="239" y="-423.9" font-family="Arial" font-size="14.00" fill="#000000">
                artifact_id
            </text>
            <text text-anchor="start" x="303.5666" y="-423.9" font-family="Arial" font-size="14.00" fill="#666666">
                [varchar(22)]
            </text>
            <polygon fill="none" stroke="#000000" stroke-width="3"
                     points="230,-411.5 230,-509.5 486,-509.5 486,-411.5 230,-411.5"/>
        </g>
        <!-- sites -->
        <g id="node2" class="node">
            <title>sites</title>
            <polygon fill="#efefef" stroke="transparent"
                     points="116,-252.5 116,-287.5 313,-287.5 313,-252.5 116,-252.5"/>
            <polygon fill="none" stroke="#000000" points="116,-252.5 116,-287.5 313,-287.5 313,-252.5 116,-252.5"/>
            <text text-anchor="start" x="147.3718" y="-265.3" font-family="Arial Bold" font-size="18.00" fill="#000000">
                sites
            </text>
            <text text-anchor="start" x="184.3744" y="-265.3" font-family="Arial" font-size="14.00"
                  fill="#000000"></text>
            <text text-anchor="start" x="188.265" y="-265.3" font-family="Arial" font-size="14.00" fill="#666666">[BASE
                TABLE]
            </text>
            <polygon fill="none" stroke="#000000" points="116,-222.5 116,-252.5 313,-252.5 313,-222.5 116,-222.5"/>
            <text text-anchor="start" x="123" y="-233.9" font-family="Arial" font-size="14.00" fill="#000000">id</text>
            <text text-anchor="start" x="137.7798" y="-233.9" font-family="Arial" font-size="14.00" fill="#666666">
                [varchar(22)]
            </text>
            <polygon fill="none" stroke="#000000" points="116,-192.5 116,-222.5 313,-222.5 313,-192.5 116,-192.5"/>
            <text text-anchor="start" x="123" y="-203.9" font-family="Arial" font-size="14.00" fill="#000000">fqdn
            </text>
            <text text-anchor="start" x="154.129" y="-203.9" font-family="Arial" font-size="14.00" fill="#666666">
                [varchar(50)]
            </text>
            <polygon fill="none" stroke="#000000" points="116,-162.5 116,-192.5 313,-192.5 313,-162.5 116,-162.5"/>
            <text text-anchor="start" x="123" y="-173.9" font-family="Arial" font-size="14.00" fill="#000000">
                path_prefix
            </text>
            <text text-anchor="start" x="196.1346" y="-173.9" font-family="Arial" font-size="14.00" fill="#666666">
                [varchar(50)]
            </text>
            <polygon fill="none" stroke="#000000" points="116,-132.5 116,-162.5 313,-162.5 313,-132.5 116,-132.5"/>
            <text text-anchor="start" x="122.7482" y="-143.9" font-family="Arial" font-size="14.00" fill="#000000">
                type
            </text>
            <text text-anchor="start" x="153.0946" y="-143.9" font-family="Arial" font-size="14.00" fill="#666666">
                [enum(&#39;static&#39;,&#39;dynamic&#39;)]
            </text>
            <polygon fill="none" stroke="#000000" points="116,-102.5 116,-132.5 313,-132.5 313,-102.5 116,-102.5"/>
            <text text-anchor="start" x="123" y="-113.9" font-family="Arial" font-size="14.00" fill="#000000">
                application_id
            </text>
            <text text-anchor="start" x="212.4684" y="-113.9" font-family="Arial" font-size="14.00" fill="#666666">
                [varchar(22)]
            </text>
            <polygon fill="none" stroke="#000000" points="116,-72.5 116,-102.5 313,-102.5 313,-72.5 116,-72.5"/>
            <text text-anchor="start" x="123" y="-83.9" font-family="Arial" font-size="14.00" fill="#000000">
                created_at
            </text>
            <text text-anchor="start" x="193.028" y="-83.9" font-family="Arial" font-size="14.00" fill="#666666">
                [datetime(6)]
            </text>
            <polygon fill="none" stroke="#000000" points="116,-42.5 116,-72.5 313,-72.5 313,-42.5 116,-42.5"/>
            <text text-anchor="start" x="123" y="-53.9" font-family="Arial" font-size="14.00" fill="#000000">
                updated_at
            </text>
            <text text-anchor="start" x="196.9326" y="-53.9" font-family="Arial" font-size="14.00" fill="#666666">
                [datetime(6)]
            </text>
        </g>
        <!-- static_site_details&#45;&gt;sites -->
        <g id="edge1" class="edge">
            <title>static_site_details:site_id&#45;&gt;sites:id</title>
            <path fill="none" stroke="#000000"
                  d="M221.8395,-455.95C195.3873,-446.6311 212.2228,-397.4325 232,-367 253.4671,-333.9672 291.5329,-364.0328 313,-331 335.6442,-296.156 354.5556,-237.5 313,-237.5"/>
            <polygon fill="#000000" stroke="#000000"
                     points="222.1144,-455.9919 231.3213,-461.9485 227.0572,-456.7459 232,-457.5 232,-457.5 232,-457.5 227.0572,-456.7459 232.6787,-453.0515 222.1144,-455.9919 222.1144,-455.9919"/>
            <text text-anchor="start" x="6.835" y="-467.5" font-family="Arial" font-size="10.00" fill="#000000">FOREIGN
                KEY (site_id) REFERENCES sites (id)
            </text>
        </g>
        <!-- artifacts -->
        <g id="node3" class="node">
            <title>artifacts</title>
            <polygon fill="#efefef" stroke="transparent"
                     points="417,-222.5 417,-257.5 591,-257.5 591,-222.5 417,-222.5"/>
            <polygon fill="none" stroke="#000000" points="417,-222.5 417,-257.5 591,-257.5 591,-222.5 417,-222.5"/>
            <text text-anchor="start" x="423.8704" y="-235.3" font-family="Arial Bold" font-size="18.00" fill="#000000">
                artifacts
            </text>
            <text text-anchor="start" x="486.8758" y="-235.3" font-family="Arial" font-size="14.00"
                  fill="#000000"></text>
            <text text-anchor="start" x="490.7664" y="-235.3" font-family="Arial" font-size="14.00" fill="#666666">[BASE
                TABLE]
            </text>
            <polygon fill="none" stroke="#000000" points="417,-192.5 417,-222.5 591,-222.5 591,-192.5 417,-192.5"/>
            <text text-anchor="start" x="424" y="-203.9" font-family="Arial" font-size="14.00" fill="#000000">id</text>
            <text text-anchor="start" x="438.7798" y="-203.9" font-family="Arial" font-size="14.00" fill="#666666">
                [varchar(22)]
            </text>
            <polygon fill="none" stroke="#000000" points="417,-162.5 417,-192.5 591,-192.5 591,-162.5 417,-162.5"/>
            <text text-anchor="start" x="424" y="-173.9" font-family="Arial" font-size="14.00" fill="#000000">
                build_log_id
            </text>
            <text text-anchor="start" x="502.5778" y="-173.9" font-family="Arial" font-size="14.00" fill="#666666">
                [varchar(22)]
            </text>
            <polygon fill="none" stroke="#000000" points="417,-132.5 417,-162.5 591,-162.5 591,-132.5 417,-132.5"/>
            <text text-anchor="start" x="424" y="-143.9" font-family="Arial" font-size="14.00" fill="#000000">size
            </text>
            <text text-anchor="start" x="452.7798" y="-143.9" font-family="Arial" font-size="14.00" fill="#666666">
                [bigint(20)]
            </text>
            <polygon fill="none" stroke="#000000" points="417,-102.5 417,-132.5 591,-132.5 591,-102.5 417,-102.5"/>
            <text text-anchor="start" x="424" y="-113.9" font-family="Arial" font-size="14.00" fill="#000000">
                created_at
            </text>
            <text text-anchor="start" x="494.028" y="-113.9" font-family="Arial" font-size="14.00" fill="#666666">
                [datetime(6)]
            </text>
            <polygon fill="none" stroke="#000000" points="417,-72.5 417,-102.5 591,-102.5 591,-72.5 417,-72.5"/>
            <text text-anchor="start" x="424" y="-83.9" font-family="Arial" font-size="14.00" fill="#000000">
                deleted_at
            </text>
            <text text-anchor="start" x="493.2566" y="-83.9" font-family="Arial" font-size="14.00" fill="#666666">
                [datetime(6)]
            </text>
        </g>
        <!-- static_site_details&#45;&gt;artifacts -->
        <g id="edge2" class="edge">
            <title>static_site_details:artifact_id&#45;&gt;artifacts:id</title>
            <path fill="none" stroke="#000000"
                  d="M494.9551,-424.8206C506.6629,-416.0696 493.7565,-387.7017 485,-367 468.5927,-328.2105 433.4073,-339.7895 417,-301 400.8113,-262.7274 375.4444,-207.5 417,-207.5"/>
            <polygon fill="#000000" stroke="#000000"
                     points="494.6564,-424.901 483.8304,-423.1546 489.8282,-426.2005 485,-427.5 485,-427.5 485,-427.5 489.8282,-426.2005 486.1696,-431.8454 494.6564,-424.901 494.6564,-424.901"/>
            <text text-anchor="start" x="492.389" y="-437.5" font-family="Arial" font-size="10.00" fill="#000000">
                FOREIGN KEY (artifact_id) REFERENCES artifacts (id)
            </text>
        </g>
    </g>
</svg>
