<?xml version="1.0" encoding="UTF-8" standalone="no"?>
<!DOCTYPE svg PUBLIC "-//W3C//DTD SVG 1.1//EN"
 "http://www.w3.org/Graphics/SVG/1.1/DTD/svg11.dtd">
<!-- Generated by graphviz version 2.40.1 (20161225.0304)
 -->
<!-- Title: users Pages: 1 -->
<svg width="722pt" height="442pt"
 viewBox="0.00 0.00 721.50 442.00" xmlns="http://www.w3.org/2000/svg" xmlns:xlink="http://www.w3.org/1999/xlink">
<g id="graph0" class="graph" transform="scale(1 1) rotate(0) translate(4 438)">
<title>users</title>
<polygon fill="#ffffff" stroke="transparent" points="-4,4 -4,-438 717.5,-438 717.5,4 -4,4"/>
<!-- users -->
<g id="node1" class="node">
<title>users</title>
<polygon fill="#efefef" stroke="transparent" points="280.5,-135.5 280.5,-170.5 435.5,-170.5 435.5,-135.5 280.5,-135.5"/>
<polygon fill="none" stroke="#000000" points="280.5,-135.5 280.5,-170.5 435.5,-170.5 435.5,-135.5 280.5,-135.5"/>
<text text-anchor="start" x="287.3708" y="-148.3" font-family="Arial Bold" font-size="18.00" fill="#000000">users</text>
<text text-anchor="start" x="331.3754" y="-148.3" font-family="Arial" font-size="14.00" fill="#000000"> </text>
<text text-anchor="start" x="335.266" y="-148.3" font-family="Arial" font-size="14.00" fill="#666666">[BASE TABLE]</text>
<polygon fill="none" stroke="#000000" points="280.5,-105.5 280.5,-135.5 435.5,-135.5 435.5,-105.5 280.5,-105.5"/>
<text text-anchor="start" x="287.5" y="-116.9" font-family="Arial" font-size="14.00" fill="#000000">id </text>
<text text-anchor="start" x="302.2798" y="-116.9" font-family="Arial" font-size="14.00" fill="#666666">[char(22)]</text>
<polygon fill="none" stroke="#000000" points="280.5,-75.5 280.5,-105.5 435.5,-105.5 435.5,-75.5 280.5,-75.5"/>
<text text-anchor="start" x="287.5" y="-86.9" font-family="Arial" font-size="14.00" fill="#000000">name </text>
<text text-anchor="start" x="326.399" y="-86.9" font-family="Arial" font-size="14.00" fill="#666666">[varchar(255)]</text>
<polygon fill="none" stroke="#000000" points="280.5,-45.5 280.5,-75.5 435.5,-75.5 435.5,-45.5 280.5,-45.5"/>
<text text-anchor="start" x="287.5" y="-56.9" font-family="Arial" font-size="14.00" fill="#000000">admin </text>
<text text-anchor="start" x="329.5056" y="-56.9" font-family="Arial" font-size="14.00" fill="#666666">[tinyint(1)]</text>
<polygon fill="none" stroke="#000000" stroke-width="3" points="278.5,-44.5 278.5,-172.5 436.5,-172.5 436.5,-44.5 278.5,-44.5"/>
</g>
<!-- application_owners -->
<g id="node2" class="node">
<title>application_owners</title>
<polygon fill="#efefef" stroke="transparent" points="43.5,-355.5 43.5,-390.5 308.5,-390.5 308.5,-355.5 43.5,-355.5"/>
<polygon fill="none" stroke="#000000" points="43.5,-355.5 43.5,-390.5 308.5,-390.5 308.5,-355.5 43.5,-355.5"/>
<text text-anchor="start" x="50.3565" y="-368.3" font-family="Arial Bold" font-size="18.00" fill="#000000">application_owners</text>
<text text-anchor="start" x="204.3897" y="-368.3" font-family="Arial" font-size="14.00" fill="#000000"> </text>
<text text-anchor="start" x="208.2803" y="-368.3" font-family="Arial" font-size="14.00" fill="#666666">[BASE TABLE]</text>
<polygon fill="none" stroke="#000000" points="43.5,-325.5 43.5,-355.5 308.5,-355.5 308.5,-325.5 43.5,-325.5"/>
<text text-anchor="start" x="50.5" y="-336.9" font-family="Arial" font-size="14.00" fill="#000000">user_id </text>
<text text-anchor="start" x="100.2882" y="-336.9" font-family="Arial" font-size="14.00" fill="#666666">[char(22)]</text>
<polygon fill="none" stroke="#000000" points="43.5,-295.5 43.5,-325.5 308.5,-325.5 308.5,-295.5 43.5,-295.5"/>
<text text-anchor="start" x="50.5" y="-306.9" font-family="Arial" font-size="14.00" fill="#000000">application_id </text>
<text text-anchor="start" x="139.9684" y="-306.9" font-family="Arial" font-size="14.00" fill="#666666">[char(22)]</text>
</g>
<!-- application_owners&#45;&gt;users -->
<g id="edge1" class="edge">
<title>application_owners:user_id&#45;&gt;users:id</title>
<path fill="none" stroke="#000000" d="M318.4152,-338.9983C342.194,-330.342 319.8391,-286.0481 308.5,-253 301.9217,-233.8274 287.0783,-236.1726 280.5,-217 266.581,-176.4325 237.6111,-120.5 280.5,-120.5"/>
<polygon fill="#000000" stroke="#000000" points="318.3873,-339.0025 307.8261,-336.0507 313.4436,-339.7512 308.5,-340.5 308.5,-340.5 308.5,-340.5 313.4436,-339.7512 309.1739,-344.9493 318.3873,-339.0025 318.3873,-339.0025"/>
<text text-anchor="start" x="315.445" y="-350.5" font-family="Arial" font-size="10.00" fill="#000000">FOREIGN KEY (user_id) REFERENCES users (id)</text>
</g>
<!-- repository_owners -->
<g id="node3" class="node">
<title>repository_owners</title>
<polygon fill="#efefef" stroke="transparent" points="412.5,-355.5 412.5,-390.5 670.5,-390.5 670.5,-355.5 412.5,-355.5"/>
<polygon fill="none" stroke="#000000" points="412.5,-355.5 412.5,-390.5 670.5,-390.5 670.5,-355.5 412.5,-355.5"/>
<text text-anchor="start" x="419.3647" y="-368.3" font-family="Arial Bold" font-size="18.00" fill="#000000">repository_owners</text>
<text text-anchor="start" x="566.3815" y="-368.3" font-family="Arial" font-size="14.00" fill="#000000"> </text>
<text text-anchor="start" x="570.2721" y="-368.3" font-family="Arial" font-size="14.00" fill="#666666">[BASE TABLE]</text>
<polygon fill="none" stroke="#000000" points="412.5,-325.5 412.5,-355.5 670.5,-355.5 670.5,-325.5 412.5,-325.5"/>
<text text-anchor="start" x="419.5" y="-336.9" font-family="Arial" font-size="14.00" fill="#000000">user_id </text>
<text text-anchor="start" x="469.2882" y="-336.9" font-family="Arial" font-size="14.00" fill="#666666">[char(22)]</text>
<polygon fill="none" stroke="#000000" points="412.5,-295.5 412.5,-325.5 670.5,-325.5 670.5,-295.5 412.5,-295.5"/>
<text text-anchor="start" x="419.5" y="-306.9" font-family="Arial" font-size="14.00" fill="#000000">repository_id </text>
<text text-anchor="start" x="503.5112" y="-306.9" font-family="Arial" font-size="14.00" fill="#666666">[char(22)]</text>
</g>
<!-- repository_owners&#45;&gt;users -->
<g id="edge2" class="edge">
<title>repository_owners:user_id&#45;&gt;users:id</title>
<path fill="none" stroke="#000000" d="M402.3284,-338.8996C379.3237,-330.0598 402.7439,-286.3913 412.5,-253 417.8248,-234.7753 430.1752,-235.2247 435.5,-217 447.5282,-175.8323 478.3889,-120.5 435.5,-120.5"/>
<polygon fill="#000000" stroke="#000000" points="402.6215,-338.9457 411.8006,-344.9453 407.5608,-339.7228 412.5,-340.5 412.5,-340.5 412.5,-340.5 407.5608,-339.7228 413.1994,-336.0547 402.6215,-338.9457 402.6215,-338.9457"/>
<text text-anchor="start" x="359.445" y="-324.5" font-family="Arial" font-size="10.00" fill="#000000">FOREIGN KEY (user_id) REFERENCES users (id)</text>
</g>
</g>
</svg>
