<?xml version="1.0" encoding="UTF-8" standalone="no"?>
<!DOCTYPE svg PUBLIC "-//W3C//DTD SVG 1.1//EN"
 "http://www.w3.org/Graphics/SVG/1.1/DTD/svg11.dtd">
<!-- Generated by graphviz version 2.40.1 (20161225.0304)
 -->
<!-- Title: users Pages: 1 -->
<svg width="722pt" height="412pt"
 viewBox="0.00 0.00 721.50 412.00" xmlns="http://www.w3.org/2000/svg" xmlns:xlink="http://www.w3.org/1999/xlink">
<g id="graph0" class="graph" transform="scale(1 1) rotate(0) translate(4 408)">
<title>users</title>
<polygon fill="#ffffff" stroke="transparent" points="-4,4 -4,-408 717.5,-408 717.5,4 -4,4"/>
<!-- users -->
<g id="node1" class="node">
<title>users</title>
<polygon fill="#efefef" stroke="transparent" points="280.5,-105.5 280.5,-140.5 435.5,-140.5 435.5,-105.5 280.5,-105.5"/>
<polygon fill="none" stroke="#000000" points="280.5,-105.5 280.5,-140.5 435.5,-140.5 435.5,-105.5 280.5,-105.5"/>
<text text-anchor="start" x="287.3708" y="-118.3" font-family="Arial Bold" font-size="18.00" fill="#000000">users</text>
<text text-anchor="start" x="331.3754" y="-118.3" font-family="Arial" font-size="14.00" fill="#000000"> </text>
<text text-anchor="start" x="335.266" y="-118.3" font-family="Arial" font-size="14.00" fill="#666666">[BASE TABLE]</text>
<polygon fill="none" stroke="#000000" points="280.5,-75.5 280.5,-105.5 435.5,-105.5 435.5,-75.5 280.5,-75.5"/>
<text text-anchor="start" x="287.5" y="-86.9" font-family="Arial" font-size="14.00" fill="#000000">id </text>
<text text-anchor="start" x="302.2798" y="-86.9" font-family="Arial" font-size="14.00" fill="#666666">[char(22)]</text>
<polygon fill="none" stroke="#000000" points="280.5,-45.5 280.5,-75.5 435.5,-75.5 435.5,-45.5 280.5,-45.5"/>
<text text-anchor="start" x="287.5" y="-56.9" font-family="Arial" font-size="14.00" fill="#000000">name </text>
<text text-anchor="start" x="326.399" y="-56.9" font-family="Arial" font-size="14.00" fill="#666666">[varchar(255)]</text>
<polygon fill="none" stroke="#000000" stroke-width="3" points="278.5,-44.5 278.5,-142.5 436.5,-142.5 436.5,-44.5 278.5,-44.5"/>
</g>
<!-- application_owners -->
<g id="node2" class="node">
<title>application_owners</title>
<polygon fill="#efefef" stroke="transparent" points="43.5,-325.5 43.5,-360.5 308.5,-360.5 308.5,-325.5 43.5,-325.5"/>
<polygon fill="none" stroke="#000000" points="43.5,-325.5 43.5,-360.5 308.5,-360.5 308.5,-325.5 43.5,-325.5"/>
<text text-anchor="start" x="50.3565" y="-338.3" font-family="Arial Bold" font-size="18.00" fill="#000000">application_owners</text>
<text text-anchor="start" x="204.3897" y="-338.3" font-family="Arial" font-size="14.00" fill="#000000"> </text>
<text text-anchor="start" x="208.2803" y="-338.3" font-family="Arial" font-size="14.00" fill="#666666">[BASE TABLE]</text>
<polygon fill="none" stroke="#000000" points="43.5,-295.5 43.5,-325.5 308.5,-325.5 308.5,-295.5 43.5,-295.5"/>
<text text-anchor="start" x="50.5" y="-306.9" font-family="Arial" font-size="14.00" fill="#000000">user_id </text>
<text text-anchor="start" x="100.2882" y="-306.9" font-family="Arial" font-size="14.00" fill="#666666">[char(22)]</text>
<polygon fill="none" stroke="#000000" points="43.5,-265.5 43.5,-295.5 308.5,-295.5 308.5,-265.5 43.5,-265.5"/>
<text text-anchor="start" x="50.5" y="-276.9" font-family="Arial" font-size="14.00" fill="#000000">application_id </text>
<text text-anchor="start" x="139.9684" y="-276.9" font-family="Arial" font-size="14.00" fill="#666666">[char(22)]</text>
</g>
<!-- application_owners&#45;&gt;users -->
<g id="edge1" class="edge">
<title>application_owners:user_id&#45;&gt;users:id</title>
<path fill="none" stroke="#000000" d="M318.4152,-308.9983C342.194,-300.342 319.8391,-256.0481 308.5,-223 301.9217,-203.8274 287.0783,-206.1726 280.5,-187 266.581,-146.4325 237.6111,-90.5 280.5,-90.5"/>
<polygon fill="#000000" stroke="#000000" points="318.3873,-309.0025 307.8261,-306.0507 313.4436,-309.7512 308.5,-310.5 308.5,-310.5 308.5,-310.5 313.4436,-309.7512 309.1739,-314.9493 318.3873,-309.0025 318.3873,-309.0025"/>
<text text-anchor="start" x="315.445" y="-320.5" font-family="Arial" font-size="10.00" fill="#000000">FOREIGN KEY (user_id) REFERENCES users (id)</text>
</g>
<!-- repository_owners -->
<g id="node3" class="node">
<title>repository_owners</title>
<polygon fill="#efefef" stroke="transparent" points="412.5,-325.5 412.5,-360.5 670.5,-360.5 670.5,-325.5 412.5,-325.5"/>
<polygon fill="none" stroke="#000000" points="412.5,-325.5 412.5,-360.5 670.5,-360.5 670.5,-325.5 412.5,-325.5"/>
<text text-anchor="start" x="419.3647" y="-338.3" font-family="Arial Bold" font-size="18.00" fill="#000000">repository_owners</text>
<text text-anchor="start" x="566.3815" y="-338.3" font-family="Arial" font-size="14.00" fill="#000000"> </text>
<text text-anchor="start" x="570.2721" y="-338.3" font-family="Arial" font-size="14.00" fill="#666666">[BASE TABLE]</text>
<polygon fill="none" stroke="#000000" points="412.5,-295.5 412.5,-325.5 670.5,-325.5 670.5,-295.5 412.5,-295.5"/>
<text text-anchor="start" x="419.5" y="-306.9" font-family="Arial" font-size="14.00" fill="#000000">user_id </text>
<text text-anchor="start" x="469.2882" y="-306.9" font-family="Arial" font-size="14.00" fill="#666666">[char(22)]</text>
<polygon fill="none" stroke="#000000" points="412.5,-265.5 412.5,-295.5 670.5,-295.5 670.5,-265.5 412.5,-265.5"/>
<text text-anchor="start" x="419.5" y="-276.9" font-family="Arial" font-size="14.00" fill="#000000">repository_id </text>
<text text-anchor="start" x="503.5112" y="-276.9" font-family="Arial" font-size="14.00" fill="#666666">[char(22)]</text>
</g>
<!-- repository_owners&#45;&gt;users -->
<g id="edge2" class="edge">
<title>repository_owners:user_id&#45;&gt;users:id</title>
<path fill="none" stroke="#000000" d="M402.3284,-308.8996C379.3237,-300.0598 402.7439,-256.3913 412.5,-223 417.8248,-204.7753 430.1752,-205.2247 435.5,-187 447.5282,-145.8323 478.3889,-90.5 435.5,-90.5"/>
<polygon fill="#000000" stroke="#000000" points="402.6215,-308.9457 411.8006,-314.9453 407.5608,-309.7228 412.5,-310.5 412.5,-310.5 412.5,-310.5 407.5608,-309.7228 413.1994,-306.0547 402.6215,-308.9457 402.6215,-308.9457"/>
<text text-anchor="start" x="359.445" y="-294.5" font-family="Arial" font-size="10.00" fill="#000000">FOREIGN KEY (user_id) REFERENCES users (id)</text>
</g>
</g>
</svg>
