<?xml version="1.0" encoding="UTF-8" standalone="no"?>
<!DOCTYPE svg PUBLIC "-//W3C//DTD SVG 1.1//EN"
 "http://www.w3.org/Graphics/SVG/1.1/DTD/svg11.dtd">
<!-- Generated by graphviz version 2.40.1 (20161225.0304)
 -->
<!-- Title: users Pages: 1 -->
<svg width="460pt" height="412pt"
 viewBox="0.00 0.00 459.50 412.00" xmlns="http://www.w3.org/2000/svg" xmlns:xlink="http://www.w3.org/1999/xlink">
<g id="graph0" class="graph" transform="scale(1 1) rotate(0) translate(4 408)">
<title>users</title>
<polygon fill="#ffffff" stroke="transparent" points="-4,4 -4,-408 455.5,-408 455.5,4 -4,4"/>
<!-- users -->
<g id="node1" class="node">
<title>users</title>
<polygon fill="#efefef" stroke="transparent" points="247,-105.5 247,-140.5 402,-140.5 402,-105.5 247,-105.5"/>
<polygon fill="none" stroke="#000000" points="247,-105.5 247,-140.5 402,-140.5 402,-105.5 247,-105.5"/>
<text text-anchor="start" x="253.8708" y="-118.3" font-family="Arial Bold" font-size="18.00" fill="#000000">users</text>
<text text-anchor="start" x="297.8754" y="-118.3" font-family="Arial" font-size="14.00" fill="#000000"> </text>
<text text-anchor="start" x="301.766" y="-118.3" font-family="Arial" font-size="14.00" fill="#666666">[BASE TABLE]</text>
<polygon fill="none" stroke="#000000" points="247,-75.5 247,-105.5 402,-105.5 402,-75.5 247,-75.5"/>
<text text-anchor="start" x="254" y="-86.9" font-family="Arial" font-size="14.00" fill="#000000">id </text>
<text text-anchor="start" x="268.7798" y="-86.9" font-family="Arial" font-size="14.00" fill="#666666">[char(36)]</text>
<polygon fill="none" stroke="#000000" points="247,-45.5 247,-75.5 402,-75.5 402,-45.5 247,-45.5"/>
<text text-anchor="start" x="254" y="-56.9" font-family="Arial" font-size="14.00" fill="#000000">name </text>
<text text-anchor="start" x="292.899" y="-56.9" font-family="Arial" font-size="14.00" fill="#666666">[varchar(255)]</text>
<polygon fill="none" stroke="#000000" stroke-width="3" points="245,-44.5 245,-142.5 403,-142.5 403,-44.5 245,-44.5"/>
</g>
<!-- owners -->
<g id="node2" class="node">
<title>owners</title>
<polygon fill="#efefef" stroke="transparent" points="240,-325.5 240,-360.5 409,-360.5 409,-325.5 240,-325.5"/>
<polygon fill="none" stroke="#000000" points="240,-325.5 240,-360.5 409,-360.5 409,-325.5 240,-325.5"/>
<text text-anchor="start" x="246.8706" y="-338.3" font-family="Arial Bold" font-size="18.00" fill="#000000">owners</text>
<text text-anchor="start" x="304.8756" y="-338.3" font-family="Arial" font-size="14.00" fill="#000000"> </text>
<text text-anchor="start" x="308.7662" y="-338.3" font-family="Arial" font-size="14.00" fill="#666666">[BASE TABLE]</text>
<polygon fill="none" stroke="#000000" points="240,-295.5 240,-325.5 409,-325.5 409,-295.5 240,-295.5"/>
<text text-anchor="start" x="247" y="-306.9" font-family="Arial" font-size="14.00" fill="#000000">user_id </text>
<text text-anchor="start" x="296.7882" y="-306.9" font-family="Arial" font-size="14.00" fill="#666666">[char(36)]</text>
<polygon fill="none" stroke="#000000" points="240,-265.5 240,-295.5 409,-295.5 409,-265.5 240,-265.5"/>
<text text-anchor="start" x="247" y="-276.9" font-family="Arial" font-size="14.00" fill="#000000">application_id </text>
<text text-anchor="start" x="336.4684" y="-276.9" font-family="Arial" font-size="14.00" fill="#666666">[char(36)]</text>
</g>
<!-- owners&#45;&gt;users -->
<g id="edge1" class="edge">
<title>owners:user_id&#45;&gt;users:id</title>
<path fill="none" stroke="#000000" d="M229.8056,-309.6591C142.7972,-294.8888 152.7075,-90.5 247,-90.5"/>
<polygon fill="#000000" stroke="#000000" points="230.0338,-309.6778 239.63,-314.9848 235.0169,-310.0889 240,-310.5 240,-310.5 240,-310.5 235.0169,-310.0889 240.37,-306.0152 230.0338,-309.6778 230.0338,-309.6778"/>
<text text-anchor="start" x="6.945" y="-320.5" font-family="Arial" font-size="10.00" fill="#000000">FOREIGN KEY (user_id) REFERENCES users (id)</text>
</g>
</g>
</svg>
