<?xml version="1.0" encoding="UTF-8" standalone="no"?>
<!DOCTYPE svg PUBLIC "-//W3C//DTD SVG 1.1//EN"
        "http://www.w3.org/Graphics/SVG/1.1/DTD/svg11.dtd">
<!-- Generated by graphviz version 2.40.1 (20161225.0304)
 -->
<!-- Title: websites Pages: 1 -->
<svg width="860pt" height="742pt"
     viewBox="0.00 0.00 859.50 742.00" xmlns="http://www.w3.org/2000/svg" xmlns:xlink="http://www.w3.org/1999/xlink">
    <g id="graph0" class="graph" transform="scale(1 1) rotate(0) translate(4 738)">
        <title>websites</title>
        <polygon fill="#ffffff" stroke="transparent" points="-4,4 -4,-738 855.5,-738 855.5,4 -4,4"/>
        <!-- websites -->
        <g id="node1" class="node">
            <title>websites</title>
            <polygon fill="#efefef" stroke="transparent"
                     points="296,-652.5 296,-687.5 478,-687.5 478,-652.5 296,-652.5"/>
            <polygon fill="none" stroke="#000000" points="296,-652.5 296,-687.5 478,-687.5 478,-652.5 296,-652.5"/>
            <text text-anchor="start" x="303.3685" y="-665.3" font-family="Arial Bold" font-size="18.00" fill="#000000">
                websites
            </text>
            <text text-anchor="start" x="373.3777" y="-665.3" font-family="Arial" font-size="14.00"
                  fill="#000000"></text>
            <text text-anchor="start" x="377.2683" y="-665.3" font-family="Arial" font-size="14.00" fill="#666666">[BASE
                TABLE]
            </text>
            <polygon fill="none" stroke="#000000" points="296,-622.5 296,-652.5 478,-652.5 478,-622.5 296,-622.5"/>
            <text text-anchor="start" x="303" y="-633.9" font-family="Arial" font-size="14.00" fill="#000000">id</text>
            <text text-anchor="start" x="317.7798" y="-633.9" font-family="Arial" font-size="14.00" fill="#666666">
                [varchar(22)]
            </text>
            <polygon fill="none" stroke="#000000" points="296,-592.5 296,-622.5 478,-622.5 478,-592.5 296,-592.5"/>
            <text text-anchor="start" x="303" y="-603.9" font-family="Arial" font-size="14.00" fill="#000000">fqdn
            </text>
            <text text-anchor="start" x="334.129" y="-603.9" font-family="Arial" font-size="14.00" fill="#666666">
                [varchar(50)]
            </text>
            <polygon fill="none" stroke="#000000" points="296,-562.5 296,-592.5 478,-592.5 478,-562.5 296,-562.5"/>
            <text text-anchor="start" x="302.5975" y="-573.9" font-family="Arial" font-size="14.00" fill="#000000">
                application_id
            </text>
            <text text-anchor="start" x="392.0659" y="-573.9" font-family="Arial" font-size="14.00" fill="#666666">
                [varchar(22)]
            </text>
            <polygon fill="none" stroke="#000000" points="296,-532.5 296,-562.5 478,-562.5 478,-532.5 296,-532.5"/>
            <text text-anchor="start" x="303" y="-543.9" font-family="Arial" font-size="14.00" fill="#000000">build_id
            </text>
            <text text-anchor="start" x="355.1234" y="-543.9" font-family="Arial" font-size="14.00" fill="#666666">
                [varchar(22)]
            </text>
            <polygon fill="none" stroke="#000000" points="296,-502.5 296,-532.5 478,-532.5 478,-502.5 296,-502.5"/>
            <text text-anchor="start" x="303" y="-513.9" font-family="Arial" font-size="14.00" fill="#000000">
                http_port
            </text>
            <text text-anchor="start" x="362.136" y="-513.9" font-family="Arial" font-size="14.00" fill="#666666">
                [int(11)]
            </text>
            <polygon fill="none" stroke="#000000" points="296,-472.5 296,-502.5 478,-502.5 478,-472.5 296,-472.5"/>
            <text text-anchor="start" x="303" y="-483.9" font-family="Arial" font-size="14.00" fill="#000000">
                created_at
            </text>
            <text text-anchor="start" x="373.028" y="-483.9" font-family="Arial" font-size="14.00" fill="#666666">
                [datetime(6)]
            </text>
            <polygon fill="none" stroke="#000000" points="296,-442.5 296,-472.5 478,-472.5 478,-442.5 296,-442.5"/>
            <text text-anchor="start" x="303" y="-453.9" font-family="Arial" font-size="14.00" fill="#000000">
                updated_at
            </text>
            <text text-anchor="start" x="376.9326" y="-453.9" font-family="Arial" font-size="14.00" fill="#666666">
                [datetime(6)]
            </text>
            <polygon fill="none" stroke="#000000" stroke-width="3"
                     points="294.5,-441.5 294.5,-689.5 479.5,-689.5 479.5,-441.5 294.5,-441.5"/>
        </g>
        <!-- applications -->
        <g id="node2" class="node">
            <title>applications</title>
            <polygon fill="#efefef" stroke="transparent" points="65,-282.5 65,-317.5 285,-317.5 285,-282.5 65,-282.5"/>
            <polygon fill="none" stroke="#000000" points="65,-282.5 65,-317.5 285,-317.5 285,-282.5 65,-282.5"/>
            <text text-anchor="start" x="78.8621" y="-295.3" font-family="Arial Bold" font-size="18.00" fill="#000000">
                applications
            </text>
            <text text-anchor="start" x="173.8841" y="-295.3" font-family="Arial" font-size="14.00"
                  fill="#000000"></text>
            <text text-anchor="start" x="177.7747" y="-295.3" font-family="Arial" font-size="14.00" fill="#666666">[BASE
                TABLE]
            </text>
            <polygon fill="none" stroke="#000000" points="65,-252.5 65,-282.5 285,-282.5 285,-252.5 65,-252.5"/>
            <text text-anchor="start" x="72" y="-263.9" font-family="Arial" font-size="14.00" fill="#000000">id</text>
            <text text-anchor="start" x="86.7798" y="-263.9" font-family="Arial" font-size="14.00" fill="#666666">
                [varchar(22)]
            </text>
            <polygon fill="none" stroke="#000000" points="65,-222.5 65,-252.5 285,-252.5 285,-222.5 65,-222.5"/>
            <text text-anchor="start" x="72" y="-233.9" font-family="Arial" font-size="14.00" fill="#000000">owner
            </text>
            <text text-anchor="start" x="114.0056" y="-233.9" font-family="Arial" font-size="14.00" fill="#666666">
                [varchar(100)]
            </text>
            <polygon fill="none" stroke="#000000" points="65,-192.5 65,-222.5 285,-222.5 285,-192.5 65,-192.5"/>
            <text text-anchor="start" x="72" y="-203.9" font-family="Arial" font-size="14.00" fill="#000000">name</text>
            <text text-anchor="start" x="110.899" y="-203.9" font-family="Arial" font-size="14.00" fill="#666666">
                [varchar(100)]
            </text>
            <polygon fill="none" stroke="#000000" points="65,-162.5 65,-192.5 285,-192.5 285,-162.5 65,-162.5"/>
            <text text-anchor="start" x="72" y="-173.9" font-family="Arial" font-size="14.00" fill="#000000">
                repository_id
            </text>
            <text text-anchor="start" x="156.0112" y="-173.9" font-family="Arial" font-size="14.00" fill="#666666">
                [varchar(22)]
            </text>
            <polygon fill="none" stroke="#000000" points="65,-132.5 65,-162.5 285,-162.5 285,-132.5 65,-132.5"/>
            <text text-anchor="start" x="72" y="-143.9" font-family="Arial" font-size="14.00" fill="#000000">
                created_at
            </text>
            <text text-anchor="start" x="142.028" y="-143.9" font-family="Arial" font-size="14.00" fill="#666666">
                [datetime(6)]
            </text>
            <polygon fill="none" stroke="#000000" points="65,-102.5 65,-132.5 285,-132.5 285,-102.5 65,-102.5"/>
            <text text-anchor="start" x="72" y="-113.9" font-family="Arial" font-size="14.00" fill="#000000">
                updated_at
            </text>
            <text text-anchor="start" x="145.9326" y="-113.9" font-family="Arial" font-size="14.00" fill="#666666">
                [datetime(6)]
            </text>
            <polygon fill="none" stroke="#000000" points="65,-72.5 65,-102.5 285,-102.5 285,-72.5 65,-72.5"/>
            <text text-anchor="start" x="72" y="-83.9" font-family="Arial" font-size="14.00" fill="#000000">deleted_at
            </text>
            <text text-anchor="start" x="141.2566" y="-83.9" font-family="Arial" font-size="14.00" fill="#666666">
                [datetime(6)]
            </text>
            <polygon fill="none" stroke="#000000" points="65,-42.5 65,-72.5 285,-72.5 285,-42.5 65,-42.5"/>
            <text text-anchor="start" x="71.5764" y="-53.9" font-family="Arial" font-size="14.00" fill="#000000">
                build_type
            </text>
            <text text-anchor="start" x="139.2664" y="-53.9" font-family="Arial" font-size="14.00" fill="#666666">[enum(&#39;image&#39;,&#39;static&#39;)]</text>
        </g>
        <!-- websites&#45;&gt;applications -->
        <g id="edge1" class="edge">
            <title>websites:application_id&#45;&gt;applications:id</title>
            <path fill="none" stroke="#000000" d="M286.1002,-574.6291C240.811,-543.3773 350.0279,-267.5 285,-267.5"/>
            <polygon fill="#000000" stroke="#000000"
                     points="286.3957,-574.7147 294.7466,-581.8219 291.1979,-576.1074 296,-577.5 296,-577.5 296,-577.5 291.1979,-576.1074 297.2534,-573.1781 286.3957,-574.7147 286.3957,-574.7147"/>
            <text text-anchor="start" x="6.602" y="-587.5" font-family="Arial" font-size="10.00" fill="#000000">FOREIGN
                KEY (application_id) REFERENCES applications (id)
            </text>
        </g>
        <!-- build_logs -->
        <g id="node3" class="node">
            <title>build_logs</title>
            <polygon fill="#efefef" stroke="transparent"
                     points="390,-237.5 390,-272.5 809,-272.5 809,-237.5 390,-237.5"/>
            <polygon fill="none" stroke="#000000" points="390,-237.5 390,-272.5 809,-272.5 809,-237.5 390,-237.5"/>
            <text text-anchor="start" x="510.3632" y="-250.3" font-family="Arial Bold" font-size="18.00" fill="#000000">
                build_logs
            </text>
            <text text-anchor="start" x="591.383" y="-250.3" font-family="Arial" font-size="14.00"
                  fill="#000000"></text>
            <text text-anchor="start" x="595.2736" y="-250.3" font-family="Arial" font-size="14.00" fill="#666666">[BASE
                TABLE]
            </text>
            <polygon fill="none" stroke="#000000" points="390,-207.5 390,-237.5 809,-237.5 809,-207.5 390,-207.5"/>
            <text text-anchor="start" x="397" y="-218.9" font-family="Arial" font-size="14.00" fill="#000000">id</text>
            <text text-anchor="start" x="411.7798" y="-218.9" font-family="Arial" font-size="14.00" fill="#666666">
                [varchar(22)]
            </text>
            <polygon fill="none" stroke="#000000" points="390,-177.5 390,-207.5 809,-207.5 809,-177.5 390,-177.5"/>
            <text text-anchor="start" x="397" y="-188.9" font-family="Arial" font-size="14.00" fill="#000000">
                application_id
            </text>
            <text text-anchor="start" x="486.4684" y="-188.9" font-family="Arial" font-size="14.00" fill="#666666">
                [varchar(22)]
            </text>
            <polygon fill="none" stroke="#000000" points="390,-147.5 390,-177.5 809,-177.5 809,-147.5 390,-147.5"/>
            <text text-anchor="start" x="396.5742" y="-158.9" font-family="Arial" font-size="14.00" fill="#000000">
                result
            </text>
            <text text-anchor="start" x="434.6878" y="-158.9" font-family="Arial" font-size="14.00" fill="#666666">
                [enum(&#39;BUILDING&#39;,&#39;SUCCEEDED&#39;,&#39;FAILED&#39;,&#39;CANCELED&#39;)]
            </text>
            <polygon fill="none" stroke="#000000" points="390,-117.5 390,-147.5 809,-147.5 809,-117.5 390,-117.5"/>
            <text text-anchor="start" x="397" y="-128.9" font-family="Arial" font-size="14.00" fill="#000000">
                started_at
            </text>
            <text text-anchor="start" x="463.136" y="-128.9" font-family="Arial" font-size="14.00" fill="#666666">
                [datetime(6)]
            </text>
            <polygon fill="none" stroke="#000000" points="390,-87.5 390,-117.5 809,-117.5 809,-87.5 390,-87.5"/>
            <text text-anchor="start" x="397" y="-98.9" font-family="Arial" font-size="14.00" fill="#000000">
                finished_at
            </text>
            <text text-anchor="start" x="468.5806" y="-98.9" font-family="Arial" font-size="14.00" fill="#666666">
                [datetime(6)]
            </text>
        </g>
        <!-- websites&#45;&gt;build_logs -->
        <g id="edge2" class="edge">
            <title>websites:build_id&#45;&gt;build_logs:id</title>
            <path fill="none" stroke="#000000"
                  d="M488.0344,-546.7184C540.5512,-537.8225 503.4013,-454.9044 478,-397 456.6456,-348.3208 411.3544,-364.6792 390,-316 373.3062,-277.945 348.4444,-222.5 390,-222.5"/>
            <polygon fill="#000000" stroke="#000000"
                     points="487.9698,-546.7234 477.6505,-543.0136 482.9849,-547.1117 478,-547.5 478,-547.5 478,-547.5 482.9849,-547.1117 478.3495,-551.9864 487.9698,-546.7234 487.9698,-546.7234"/>
            <text text-anchor="start" x="484.829" y="-557.5" font-family="Arial" font-size="10.00" fill="#000000">
                FOREIGN KEY (build_id) REFERENCES build_logs (id)
            </text>
        </g>
    </g>
</svg>
