<?xml version="1.0" encoding="UTF-8" standalone="no"?>
<!DOCTYPE svg PUBLIC "-//W3C//DTD SVG 1.1//EN"
 "http://www.w3.org/Graphics/SVG/1.1/DTD/svg11.dtd">
<!-- Generated by graphviz version 2.40.1 (20161225.0304)
 -->
<!-- Title: websites Pages: 1 -->
<svg width="463pt" height="862pt"
 viewBox="0.00 0.00 462.50 862.00" xmlns="http://www.w3.org/2000/svg" xmlns:xlink="http://www.w3.org/1999/xlink">
<g id="graph0" class="graph" transform="scale(1 1) rotate(0) translate(4 858)">
<title>websites</title>
<polygon fill="#ffffff" stroke="transparent" points="-4,4 -4,-858 458.5,-858 458.5,4 -4,4"/>
<!-- websites -->
<g id="node1" class="node">
<title>websites</title>
<polygon fill="#efefef" stroke="transparent" points="67.5,-772.5 67.5,-807.5 248.5,-807.5 248.5,-772.5 67.5,-772.5"/>
<polygon fill="none" stroke="#000000" points="67.5,-772.5 67.5,-807.5 248.5,-807.5 248.5,-772.5 67.5,-772.5"/>
<text text-anchor="start" x="74.3685" y="-785.3" font-family="Arial Bold" font-size="18.00" fill="#000000">websites</text>
<text text-anchor="start" x="144.3777" y="-785.3" font-family="Arial" font-size="14.00" fill="#000000"> </text>
<text text-anchor="start" x="148.2683" y="-785.3" font-family="Arial" font-size="14.00" fill="#666666">[BASE TABLE]</text>
<polygon fill="none" stroke="#000000" points="67.5,-742.5 67.5,-772.5 248.5,-772.5 248.5,-742.5 67.5,-742.5"/>
<text text-anchor="start" x="74.5" y="-753.9" font-family="Arial" font-size="14.00" fill="#000000">id </text>
<text text-anchor="start" x="89.2798" y="-753.9" font-family="Arial" font-size="14.00" fill="#666666">[char(22)]</text>
<polygon fill="none" stroke="#000000" points="67.5,-712.5 67.5,-742.5 248.5,-742.5 248.5,-712.5 67.5,-712.5"/>
<text text-anchor="start" x="74.5" y="-723.9" font-family="Arial" font-size="14.00" fill="#000000">fqdn </text>
<text text-anchor="start" x="105.629" y="-723.9" font-family="Arial" font-size="14.00" fill="#666666">[varchar(100)]</text>
<polygon fill="none" stroke="#000000" points="67.5,-682.5 67.5,-712.5 248.5,-712.5 248.5,-682.5 67.5,-682.5"/>
<text text-anchor="start" x="74.5" y="-693.9" font-family="Arial" font-size="14.00" fill="#000000">path_prefix </text>
<text text-anchor="start" x="147.6346" y="-693.9" font-family="Arial" font-size="14.00" fill="#666666">[varchar(100)]</text>
<polygon fill="none" stroke="#000000" points="67.5,-652.5 67.5,-682.5 248.5,-682.5 248.5,-652.5 67.5,-652.5"/>
<text text-anchor="start" x="74.5" y="-663.9" font-family="Arial" font-size="14.00" fill="#000000">strip_prefix </text>
<text text-anchor="start" x="146.8366" y="-663.9" font-family="Arial" font-size="14.00" fill="#666666">[tinyint(1)]</text>
<polygon fill="none" stroke="#000000" points="67.5,-622.5 67.5,-652.5 248.5,-652.5 248.5,-622.5 67.5,-622.5"/>
<text text-anchor="start" x="74.5" y="-633.9" font-family="Arial" font-size="14.00" fill="#000000">https </text>
<text text-anchor="start" x="108.737" y="-633.9" font-family="Arial" font-size="14.00" fill="#666666">[tinyint(1)]</text>
<polygon fill="none" stroke="#000000" points="67.5,-592.5 67.5,-622.5 248.5,-622.5 248.5,-592.5 67.5,-592.5"/>
<text text-anchor="start" x="74.5" y="-603.9" font-family="Arial" font-size="14.00" fill="#000000">http_port </text>
<text text-anchor="start" x="133.636" y="-603.9" font-family="Arial" font-size="14.00" fill="#666666">[int(11)]</text>
<polygon fill="none" stroke="#000000" points="67.5,-562.5 67.5,-592.5 248.5,-592.5 248.5,-562.5 67.5,-562.5"/>
<text text-anchor="start" x="74.5" y="-573.9" font-family="Arial" font-size="14.00" fill="#000000">created_at </text>
<text text-anchor="start" x="144.528" y="-573.9" font-family="Arial" font-size="14.00" fill="#666666">[datetime(6)]</text>
<polygon fill="none" stroke="#000000" points="67.5,-532.5 67.5,-562.5 248.5,-562.5 248.5,-532.5 67.5,-532.5"/>
<text text-anchor="start" x="74.5" y="-543.9" font-family="Arial" font-size="14.00" fill="#000000">updated_at </text>
<text text-anchor="start" x="148.4326" y="-543.9" font-family="Arial" font-size="14.00" fill="#666666">[datetime(6)]</text>
<polygon fill="none" stroke="#000000" points="67.5,-502.5 67.5,-532.5 248.5,-532.5 248.5,-502.5 67.5,-502.5"/>
<text text-anchor="start" x="74.5" y="-513.9" font-family="Arial" font-size="14.00" fill="#000000">application_id </text>
<text text-anchor="start" x="163.9684" y="-513.9" font-family="Arial" font-size="14.00" fill="#666666">[char(22)]</text>
<polygon fill="none" stroke="#000000" stroke-width="3" points="65.5,-501.5 65.5,-809.5 249.5,-809.5 249.5,-501.5 65.5,-501.5"/>
</g>
<!-- applications -->
<g id="node2" class="node">
<title>applications</title>
<polygon fill="#efefef" stroke="transparent" points="43.5,-342.5 43.5,-377.5 272.5,-377.5 272.5,-342.5 43.5,-342.5"/>
<polygon fill="none" stroke="#000000" points="43.5,-342.5 43.5,-377.5 272.5,-377.5 272.5,-342.5 43.5,-342.5"/>
<text text-anchor="start" x="61.8621" y="-355.3" font-family="Arial Bold" font-size="18.00" fill="#000000">applications</text>
<text text-anchor="start" x="156.8841" y="-355.3" font-family="Arial" font-size="14.00" fill="#000000"> </text>
<text text-anchor="start" x="160.7747" y="-355.3" font-family="Arial" font-size="14.00" fill="#666666">[BASE TABLE]</text>
<polygon fill="none" stroke="#000000" points="43.5,-312.5 43.5,-342.5 272.5,-342.5 272.5,-312.5 43.5,-312.5"/>
<text text-anchor="start" x="50.5" y="-323.9" font-family="Arial" font-size="14.00" fill="#000000">id </text>
<text text-anchor="start" x="65.2798" y="-323.9" font-family="Arial" font-size="14.00" fill="#666666">[char(22)]</text>
<polygon fill="none" stroke="#000000" points="43.5,-282.5 43.5,-312.5 272.5,-312.5 272.5,-282.5 43.5,-282.5"/>
<text text-anchor="start" x="50.5" y="-293.9" font-family="Arial" font-size="14.00" fill="#000000">name </text>
<text text-anchor="start" x="89.399" y="-293.9" font-family="Arial" font-size="14.00" fill="#666666">[varchar(100)]</text>
<polygon fill="none" stroke="#000000" points="43.5,-252.5 43.5,-282.5 272.5,-282.5 272.5,-252.5 43.5,-252.5"/>
<text text-anchor="start" x="50.5" y="-263.9" font-family="Arial" font-size="14.00" fill="#000000">repository_id </text>
<text text-anchor="start" x="134.5112" y="-263.9" font-family="Arial" font-size="14.00" fill="#666666">[varchar(22)]</text>
<polygon fill="none" stroke="#000000" points="43.5,-222.5 43.5,-252.5 272.5,-252.5 272.5,-222.5 43.5,-222.5"/>
<text text-anchor="start" x="50.5" y="-233.9" font-family="Arial" font-size="14.00" fill="#000000">branch_name </text>
<text text-anchor="start" x="139.9726" y="-233.9" font-family="Arial" font-size="14.00" fill="#666666">[varchar(100)]</text>
<polygon fill="none" stroke="#000000" points="43.5,-192.5 43.5,-222.5 272.5,-222.5 272.5,-192.5 43.5,-192.5"/>
<text text-anchor="start" x="50.3008" y="-203.9" font-family="Arial" font-size="14.00" fill="#000000">build_type </text>
<text text-anchor="start" x="117.9908" y="-203.9" font-family="Arial" font-size="14.00" fill="#666666">[enum(&#39;runtime&#39;,&#39;static&#39;)]</text>
<polygon fill="none" stroke="#000000" points="43.5,-162.5 43.5,-192.5 272.5,-192.5 272.5,-162.5 43.5,-162.5"/>
<text text-anchor="start" x="50.5" y="-173.9" font-family="Arial" font-size="14.00" fill="#000000">state </text>
<text text-anchor="start" x="84.737" y="-173.9" font-family="Arial" font-size="14.00" fill="#666666">[varchar(10)]</text>
<polygon fill="none" stroke="#000000" points="43.5,-132.5 43.5,-162.5 272.5,-162.5 272.5,-132.5 43.5,-132.5"/>
<text text-anchor="start" x="50.5" y="-143.9" font-family="Arial" font-size="14.00" fill="#000000">current_commit </text>
<text text-anchor="start" x="150.8338" y="-143.9" font-family="Arial" font-size="14.00" fill="#666666">[char(40)]</text>
<polygon fill="none" stroke="#000000" points="43.5,-102.5 43.5,-132.5 272.5,-132.5 272.5,-102.5 43.5,-102.5"/>
<text text-anchor="start" x="50.5" y="-113.9" font-family="Arial" font-size="14.00" fill="#000000">want_commit </text>
<text text-anchor="start" x="136.8366" y="-113.9" font-family="Arial" font-size="14.00" fill="#666666">[char(40)]</text>
<polygon fill="none" stroke="#000000" points="43.5,-72.5 43.5,-102.5 272.5,-102.5 272.5,-72.5 43.5,-72.5"/>
<text text-anchor="start" x="50.5" y="-83.9" font-family="Arial" font-size="14.00" fill="#000000">created_at </text>
<text text-anchor="start" x="120.528" y="-83.9" font-family="Arial" font-size="14.00" fill="#666666">[datetime(6)]</text>
<polygon fill="none" stroke="#000000" points="43.5,-42.5 43.5,-72.5 272.5,-72.5 272.5,-42.5 43.5,-42.5"/>
<text text-anchor="start" x="50.5" y="-53.9" font-family="Arial" font-size="14.00" fill="#000000">updated_at </text>
<text text-anchor="start" x="124.4326" y="-53.9" font-family="Arial" font-size="14.00" fill="#666666">[datetime(6)]</text>
</g>
<!-- websites&#45;&gt;applications -->
<g id="edge1" class="edge">
<title>websites:application_id&#45;&gt;applications:id</title>
<path fill="none" stroke="#000000" d="M157.6407,-492.4738C148.592,-443.8494 70.5829,-473.388 43.5,-421 24.4164,-384.0855 1.9444,-327.5 43.5,-327.5"/>
<polygon fill="#000000" stroke="#000000" points="157.646,-492.5365 154.0164,-502.8843 158.073,-497.5183 158.5,-502.5 158.5,-502.5 158.5,-502.5 158.073,-497.5183 162.9836,-502.1157 157.646,-492.5365 157.646,-492.5365"/>
<text text-anchor="start" x="165.102" y="-512.5" font-family="Arial" font-size="10.00" fill="#000000">FOREIGN KEY (application_id) REFERENCES applications (id)</text>
</g>
</g>
</svg>
