<?xml version="1.0" encoding="UTF-8" standalone="no"?>
<!DOCTYPE svg PUBLIC "-//W3C//DTD SVG 1.1//EN"
 "http://www.w3.org/Graphics/SVG/1.1/DTD/svg11.dtd">
<!-- Generated by graphviz version 2.40.1 (20161225.0304)
 -->
<!-- Title: websites Pages: 1 -->
<svg width="461pt" height="802pt"
 viewBox="0.00 0.00 460.50 802.00" xmlns="http://www.w3.org/2000/svg" xmlns:xlink="http://www.w3.org/1999/xlink">
<g id="graph0" class="graph" transform="scale(1 1) rotate(0) translate(4 798)">
<title>websites</title>
<polygon fill="#ffffff" stroke="transparent" points="-4,4 -4,-798 456.5,-798 456.5,4 -4,4"/>
<!-- websites -->
<g id="node1" class="node">
<title>websites</title>
<polygon fill="#efefef" stroke="transparent" points="205,-712.5 205,-747.5 387,-747.5 387,-712.5 205,-712.5"/>
<polygon fill="none" stroke="#000000" points="205,-712.5 205,-747.5 387,-747.5 387,-712.5 205,-712.5"/>
<text text-anchor="start" x="212.3685" y="-725.3" font-family="Arial Bold" font-size="18.00" fill="#000000">websites</text>
<text text-anchor="start" x="282.3777" y="-725.3" font-family="Arial" font-size="14.00" fill="#000000"> </text>
<text text-anchor="start" x="286.2683" y="-725.3" font-family="Arial" font-size="14.00" fill="#666666">[BASE TABLE]</text>
<polygon fill="none" stroke="#000000" points="205,-682.5 205,-712.5 387,-712.5 387,-682.5 205,-682.5"/>
<text text-anchor="start" x="212" y="-693.9" font-family="Arial" font-size="14.00" fill="#000000">id </text>
<text text-anchor="start" x="226.7798" y="-693.9" font-family="Arial" font-size="14.00" fill="#666666">[varchar(22)]</text>
<polygon fill="none" stroke="#000000" points="205,-652.5 205,-682.5 387,-682.5 387,-652.5 205,-652.5"/>
<text text-anchor="start" x="212" y="-663.9" font-family="Arial" font-size="14.00" fill="#000000">fqdn </text>
<text text-anchor="start" x="243.129" y="-663.9" font-family="Arial" font-size="14.00" fill="#666666">[varchar(50)]</text>
<polygon fill="none" stroke="#000000" points="205,-622.5 205,-652.5 387,-652.5 387,-622.5 205,-622.5"/>
<text text-anchor="start" x="212" y="-633.9" font-family="Arial" font-size="14.00" fill="#000000">https </text>
<text text-anchor="start" x="246.237" y="-633.9" font-family="Arial" font-size="14.00" fill="#666666">[tinyint(1)]</text>
<polygon fill="none" stroke="#000000" points="205,-592.5 205,-622.5 387,-622.5 387,-592.5 205,-592.5"/>
<text text-anchor="start" x="212" y="-603.9" font-family="Arial" font-size="14.00" fill="#000000">http_port </text>
<text text-anchor="start" x="271.136" y="-603.9" font-family="Arial" font-size="14.00" fill="#666666">[int(11)]</text>
<polygon fill="none" stroke="#000000" points="205,-562.5 205,-592.5 387,-592.5 387,-562.5 205,-562.5"/>
<text text-anchor="start" x="212" y="-573.9" font-family="Arial" font-size="14.00" fill="#000000">created_at </text>
<text text-anchor="start" x="282.028" y="-573.9" font-family="Arial" font-size="14.00" fill="#666666">[datetime(6)]</text>
<polygon fill="none" stroke="#000000" points="205,-532.5 205,-562.5 387,-562.5 387,-532.5 205,-532.5"/>
<text text-anchor="start" x="212" y="-543.9" font-family="Arial" font-size="14.00" fill="#000000">updated_at </text>
<text text-anchor="start" x="285.9326" y="-543.9" font-family="Arial" font-size="14.00" fill="#666666">[datetime(6)]</text>
<polygon fill="none" stroke="#000000" points="205,-502.5 205,-532.5 387,-532.5 387,-502.5 205,-502.5"/>
<text text-anchor="start" x="211.5975" y="-513.9" font-family="Arial" font-size="14.00" fill="#000000">application_id </text>
<text text-anchor="start" x="301.0659" y="-513.9" font-family="Arial" font-size="14.00" fill="#666666">[varchar(22)]</text>
<polygon fill="none" stroke="#000000" stroke-width="3" points="203.5,-501.5 203.5,-749.5 388.5,-749.5 388.5,-501.5 203.5,-501.5"/>
</g>
<!-- applications -->
<g id="node2" class="node">
<title>applications</title>
<polygon fill="#efefef" stroke="transparent" points="181,-342.5 181,-377.5 410,-377.5 410,-342.5 181,-342.5"/>
<polygon fill="none" stroke="#000000" points="181,-342.5 181,-377.5 410,-377.5 410,-342.5 181,-342.5"/>
<text text-anchor="start" x="199.3621" y="-355.3" font-family="Arial Bold" font-size="18.00" fill="#000000">applications</text>
<text text-anchor="start" x="294.3841" y="-355.3" font-family="Arial" font-size="14.00" fill="#000000"> </text>
<text text-anchor="start" x="298.2747" y="-355.3" font-family="Arial" font-size="14.00" fill="#666666">[BASE TABLE]</text>
<polygon fill="none" stroke="#000000" points="181,-312.5 181,-342.5 410,-342.5 410,-312.5 181,-312.5"/>
<text text-anchor="start" x="188" y="-323.9" font-family="Arial" font-size="14.00" fill="#000000">id </text>
<text text-anchor="start" x="202.7798" y="-323.9" font-family="Arial" font-size="14.00" fill="#666666">[varchar(22)]</text>
<polygon fill="none" stroke="#000000" points="181,-282.5 181,-312.5 410,-312.5 410,-282.5 181,-282.5"/>
<text text-anchor="start" x="188" y="-293.9" font-family="Arial" font-size="14.00" fill="#000000">name </text>
<text text-anchor="start" x="226.899" y="-293.9" font-family="Arial" font-size="14.00" fill="#666666">[varchar(100)]</text>
<polygon fill="none" stroke="#000000" points="181,-252.5 181,-282.5 410,-282.5 410,-252.5 181,-252.5"/>
<text text-anchor="start" x="188" y="-263.9" font-family="Arial" font-size="14.00" fill="#000000">repository_id </text>
<text text-anchor="start" x="272.0112" y="-263.9" font-family="Arial" font-size="14.00" fill="#666666">[varchar(22)]</text>
<polygon fill="none" stroke="#000000" points="181,-222.5 181,-252.5 410,-252.5 410,-222.5 181,-222.5"/>
<text text-anchor="start" x="188" y="-233.9" font-family="Arial" font-size="14.00" fill="#000000">branch_name </text>
<text text-anchor="start" x="277.4726" y="-233.9" font-family="Arial" font-size="14.00" fill="#666666">[varchar(100)]</text>
<polygon fill="none" stroke="#000000" points="181,-192.5 181,-222.5 410,-222.5 410,-192.5 181,-192.5"/>
<text text-anchor="start" x="187.8008" y="-203.9" font-family="Arial" font-size="14.00" fill="#000000">build_type </text>
<text text-anchor="start" x="255.4908" y="-203.9" font-family="Arial" font-size="14.00" fill="#666666">[enum(&#39;runtime&#39;,&#39;static&#39;)]</text>
<polygon fill="none" stroke="#000000" points="181,-162.5 181,-192.5 410,-192.5 410,-162.5 181,-162.5"/>
<text text-anchor="start" x="188" y="-173.9" font-family="Arial" font-size="14.00" fill="#000000">state </text>
<text text-anchor="start" x="222.237" y="-173.9" font-family="Arial" font-size="14.00" fill="#666666">[varchar(10)]</text>
<polygon fill="none" stroke="#000000" points="181,-132.5 181,-162.5 410,-162.5 410,-132.5 181,-132.5"/>
<text text-anchor="start" x="188" y="-143.9" font-family="Arial" font-size="14.00" fill="#000000">current_commit </text>
<text text-anchor="start" x="288.3338" y="-143.9" font-family="Arial" font-size="14.00" fill="#666666">[char(40)]</text>
<polygon fill="none" stroke="#000000" points="181,-102.5 181,-132.5 410,-132.5 410,-102.5 181,-102.5"/>
<text text-anchor="start" x="188" y="-113.9" font-family="Arial" font-size="14.00" fill="#000000">want_commit </text>
<text text-anchor="start" x="274.3366" y="-113.9" font-family="Arial" font-size="14.00" fill="#666666">[char(40)]</text>
<polygon fill="none" stroke="#000000" points="181,-72.5 181,-102.5 410,-102.5 410,-72.5 181,-72.5"/>
<text text-anchor="start" x="188" y="-83.9" font-family="Arial" font-size="14.00" fill="#000000">created_at </text>
<text text-anchor="start" x="258.028" y="-83.9" font-family="Arial" font-size="14.00" fill="#666666">[datetime(6)]</text>
<polygon fill="none" stroke="#000000" points="181,-42.5 181,-72.5 410,-72.5 410,-42.5 181,-42.5"/>
<text text-anchor="start" x="188" y="-53.9" font-family="Arial" font-size="14.00" fill="#000000">updated_at </text>
<text text-anchor="start" x="261.9326" y="-53.9" font-family="Arial" font-size="14.00" fill="#666666">[datetime(6)]</text>
</g>
<!-- websites&#45;&gt;applications -->
<g id="edge1" class="edge">
<title>websites:application_id&#45;&gt;applications:id</title>
<path fill="none" stroke="#000000" d="M296.8521,-492.5276C305.8252,-444.1413 383.1812,-473.1406 410,-421 429.0074,-384.0462 451.5556,-327.5 410,-327.5"/>
<polygon fill="#000000" stroke="#000000" points="296.8514,-492.5363 291.5163,-502.1169 296.4257,-497.5182 296,-502.5 296,-502.5 296,-502.5 296.4257,-497.5182 300.4837,-502.8831 296.8514,-492.5363 296.8514,-492.5363"/>
<text text-anchor="start" x="6.602" y="-512.5" font-family="Arial" font-size="10.00" fill="#000000">FOREIGN KEY (application_id) REFERENCES applications (id)</text>
</g>
</g>
</svg>
