<?xml version="1.0" encoding="UTF-8" standalone="no"?>
<!DOCTYPE svg PUBLIC "-//W3C//DTD SVG 1.1//EN"
 "http://www.w3.org/Graphics/SVG/1.1/DTD/svg11.dtd">
<!-- Generated by graphviz version 2.40.1 (20161225.0304)
 -->
<!-- Title: websites Pages: 1 -->
<svg width="457pt" height="652pt"
 viewBox="0.00 0.00 457.00 652.00" xmlns="http://www.w3.org/2000/svg" xmlns:xlink="http://www.w3.org/1999/xlink">
<g id="graph0" class="graph" transform="scale(1 1) rotate(0) translate(4 648)">
<title>websites</title>
<polygon fill="#ffffff" stroke="transparent" points="-4,4 -4,-648 453,-648 453,4 -4,4"/>
<!-- websites -->
<g id="node1" class="node">
<title>websites</title>
<polygon fill="#efefef" stroke="transparent" points="205,-562.5 205,-597.5 387,-597.5 387,-562.5 205,-562.5"/>
<polygon fill="none" stroke="#000000" points="205,-562.5 205,-597.5 387,-597.5 387,-562.5 205,-562.5"/>
<text text-anchor="start" x="212.3685" y="-575.3" font-family="Arial Bold" font-size="18.00" fill="#000000">websites</text>
<text text-anchor="start" x="282.3777" y="-575.3" font-family="Arial" font-size="14.00" fill="#000000"> </text>
<text text-anchor="start" x="286.2683" y="-575.3" font-family="Arial" font-size="14.00" fill="#666666">[BASE TABLE]</text>
<polygon fill="none" stroke="#000000" points="205,-532.5 205,-562.5 387,-562.5 387,-532.5 205,-532.5"/>
<text text-anchor="start" x="212" y="-543.9" font-family="Arial" font-size="14.00" fill="#000000">id </text>
<text text-anchor="start" x="226.7798" y="-543.9" font-family="Arial" font-size="14.00" fill="#666666">[varchar(22)]</text>
<polygon fill="none" stroke="#000000" points="205,-502.5 205,-532.5 387,-532.5 387,-502.5 205,-502.5"/>
<text text-anchor="start" x="212" y="-513.9" font-family="Arial" font-size="14.00" fill="#000000">fqdn </text>
<text text-anchor="start" x="243.129" y="-513.9" font-family="Arial" font-size="14.00" fill="#666666">[varchar(50)]</text>
<polygon fill="none" stroke="#000000" points="205,-472.5 205,-502.5 387,-502.5 387,-472.5 205,-472.5"/>
<text text-anchor="start" x="212" y="-483.9" font-family="Arial" font-size="14.00" fill="#000000">http_port </text>
<text text-anchor="start" x="271.136" y="-483.9" font-family="Arial" font-size="14.00" fill="#666666">[int(11)]</text>
<polygon fill="none" stroke="#000000" points="205,-442.5 205,-472.5 387,-472.5 387,-442.5 205,-442.5"/>
<text text-anchor="start" x="212" y="-453.9" font-family="Arial" font-size="14.00" fill="#000000">created_at </text>
<text text-anchor="start" x="282.028" y="-453.9" font-family="Arial" font-size="14.00" fill="#666666">[datetime(6)]</text>
<polygon fill="none" stroke="#000000" points="205,-412.5 205,-442.5 387,-442.5 387,-412.5 205,-412.5"/>
<text text-anchor="start" x="212" y="-423.9" font-family="Arial" font-size="14.00" fill="#000000">updated_at </text>
<text text-anchor="start" x="285.9326" y="-423.9" font-family="Arial" font-size="14.00" fill="#666666">[datetime(6)]</text>
<polygon fill="none" stroke="#000000" points="205,-382.5 205,-412.5 387,-412.5 387,-382.5 205,-382.5"/>
<text text-anchor="start" x="211.5975" y="-393.9" font-family="Arial" font-size="14.00" fill="#000000">application_id </text>
<text text-anchor="start" x="301.0659" y="-393.9" font-family="Arial" font-size="14.00" fill="#666666">[varchar(22)]</text>
<polygon fill="none" stroke="#000000" stroke-width="3" points="203.5,-381.5 203.5,-599.5 388.5,-599.5 388.5,-381.5 203.5,-381.5"/>
</g>
<!-- applications -->
<g id="node2" class="node">
<title>applications</title>
<polygon fill="#efefef" stroke="transparent" points="186,-222.5 186,-257.5 406,-257.5 406,-222.5 186,-222.5"/>
<polygon fill="none" stroke="#000000" points="186,-222.5 186,-257.5 406,-257.5 406,-222.5 186,-222.5"/>
<text text-anchor="start" x="199.8621" y="-235.3" font-family="Arial Bold" font-size="18.00" fill="#000000">applications</text>
<text text-anchor="start" x="294.8841" y="-235.3" font-family="Arial" font-size="14.00" fill="#000000"> </text>
<text text-anchor="start" x="298.7747" y="-235.3" font-family="Arial" font-size="14.00" fill="#666666">[BASE TABLE]</text>
<polygon fill="none" stroke="#000000" points="186,-192.5 186,-222.5 406,-222.5 406,-192.5 186,-192.5"/>
<text text-anchor="start" x="193" y="-203.9" font-family="Arial" font-size="14.00" fill="#000000">id </text>
<text text-anchor="start" x="207.7798" y="-203.9" font-family="Arial" font-size="14.00" fill="#666666">[varchar(22)]</text>
<polygon fill="none" stroke="#000000" points="186,-162.5 186,-192.5 406,-192.5 406,-162.5 186,-162.5"/>
<text text-anchor="start" x="193" y="-173.9" font-family="Arial" font-size="14.00" fill="#000000">repository_id </text>
<text text-anchor="start" x="277.0112" y="-173.9" font-family="Arial" font-size="14.00" fill="#666666">[varchar(22)]</text>
<polygon fill="none" stroke="#000000" points="186,-132.5 186,-162.5 406,-162.5 406,-132.5 186,-132.5"/>
<text text-anchor="start" x="193" y="-143.9" font-family="Arial" font-size="14.00" fill="#000000">branch_name </text>
<text text-anchor="start" x="282.4726" y="-143.9" font-family="Arial" font-size="14.00" fill="#666666">[varchar(100)]</text>
<polygon fill="none" stroke="#000000" points="186,-102.5 186,-132.5 406,-132.5 406,-102.5 186,-102.5"/>
<text text-anchor="start" x="192.5764" y="-113.9" font-family="Arial" font-size="14.00" fill="#000000">build_type </text>
<text text-anchor="start" x="260.2664" y="-113.9" font-family="Arial" font-size="14.00" fill="#666666">[enum(&#39;image&#39;,&#39;static&#39;)]</text>
<polygon fill="none" stroke="#000000" points="186,-72.5 186,-102.5 406,-102.5 406,-72.5 186,-72.5"/>
<text text-anchor="start" x="193" y="-83.9" font-family="Arial" font-size="14.00" fill="#000000">created_at </text>
<text text-anchor="start" x="263.028" y="-83.9" font-family="Arial" font-size="14.00" fill="#666666">[datetime(6)]</text>
<polygon fill="none" stroke="#000000" points="186,-42.5 186,-72.5 406,-72.5 406,-42.5 186,-42.5"/>
<text text-anchor="start" x="193" y="-53.9" font-family="Arial" font-size="14.00" fill="#000000">updated_at </text>
<text text-anchor="start" x="266.9326" y="-53.9" font-family="Arial" font-size="14.00" fill="#666666">[datetime(6)]</text>
</g>
<!-- websites&#45;&gt;applications -->
<g id="edge1" class="edge">
<title>websites:application_id&#45;&gt;applications:id</title>
<path fill="none" stroke="#000000" d="M296.8781,-372.4471C305.8034,-325.4112 380.2873,-352.0519 406,-301 424.6927,-263.886 447.5556,-207.5 406,-207.5"/>
<polygon fill="#000000" stroke="#000000" points="296.8703,-372.5379 291.5171,-382.1084 296.4351,-377.519 296,-382.5 296,-382.5 296,-382.5 296.4351,-377.519 300.4829,-382.8916 296.8703,-372.5379 296.8703,-372.5379"/>
<text text-anchor="start" x="6.602" y="-392.5" font-family="Arial" font-size="10.00" fill="#000000">FOREIGN KEY (application_id) REFERENCES applications (id)</text>
</g>
</g>
</svg>
