<?xml version="1.0" encoding="UTF-8" standalone="no"?>
<!DOCTYPE svg PUBLIC "-//W3C//DTD SVG 1.1//EN"
 "http://www.w3.org/Graphics/SVG/1.1/DTD/svg11.dtd">
<!-- Generated by graphviz version 2.40.1 (20161225.0304)
 -->
<!-- Title: websites Pages: 1 -->
<svg width="502pt" height="862pt"
 viewBox="0.00 0.00 502.00 862.00" xmlns="http://www.w3.org/2000/svg" xmlns:xlink="http://www.w3.org/1999/xlink">
<g id="graph0" class="graph" transform="scale(1 1) rotate(0) translate(4 858)">
<title>websites</title>
<polygon fill="#ffffff" stroke="transparent" points="-4,4 -4,-858 498,-858 498,4 -4,4"/>
<!-- websites -->
<g id="node1" class="node">
<title>websites</title>
<polygon fill="#efefef" stroke="transparent" points="107,-772.5 107,-807.5 288,-807.5 288,-772.5 107,-772.5"/>
<polygon fill="none" stroke="#000000" points="107,-772.5 107,-807.5 288,-807.5 288,-772.5 107,-772.5"/>
<text text-anchor="start" x="113.8685" y="-785.3" font-family="Arial Bold" font-size="18.00" fill="#000000">websites</text>
<text text-anchor="start" x="183.8777" y="-785.3" font-family="Arial" font-size="14.00" fill="#000000"> </text>
<text text-anchor="start" x="187.7683" y="-785.3" font-family="Arial" font-size="14.00" fill="#666666">[BASE TABLE]</text>
<polygon fill="none" stroke="#000000" points="107,-742.5 107,-772.5 288,-772.5 288,-742.5 107,-742.5"/>
<text text-anchor="start" x="114" y="-753.9" font-family="Arial" font-size="14.00" fill="#000000">id </text>
<text text-anchor="start" x="128.7798" y="-753.9" font-family="Arial" font-size="14.00" fill="#666666">[char(22)]</text>
<polygon fill="none" stroke="#000000" points="107,-712.5 107,-742.5 288,-742.5 288,-712.5 107,-712.5"/>
<text text-anchor="start" x="114" y="-723.9" font-family="Arial" font-size="14.00" fill="#000000">fqdn </text>
<text text-anchor="start" x="145.129" y="-723.9" font-family="Arial" font-size="14.00" fill="#666666">[varchar(100)]</text>
<polygon fill="none" stroke="#000000" points="107,-682.5 107,-712.5 288,-712.5 288,-682.5 107,-682.5"/>
<text text-anchor="start" x="114" y="-693.9" font-family="Arial" font-size="14.00" fill="#000000">path_prefix </text>
<text text-anchor="start" x="187.1346" y="-693.9" font-family="Arial" font-size="14.00" fill="#666666">[varchar(100)]</text>
<polygon fill="none" stroke="#000000" points="107,-652.5 107,-682.5 288,-682.5 288,-652.5 107,-652.5"/>
<text text-anchor="start" x="114" y="-663.9" font-family="Arial" font-size="14.00" fill="#000000">strip_prefix </text>
<text text-anchor="start" x="186.3366" y="-663.9" font-family="Arial" font-size="14.00" fill="#666666">[tinyint(1)]</text>
<polygon fill="none" stroke="#000000" points="107,-622.5 107,-652.5 288,-652.5 288,-622.5 107,-622.5"/>
<text text-anchor="start" x="114" y="-633.9" font-family="Arial" font-size="14.00" fill="#000000">https </text>
<text text-anchor="start" x="148.237" y="-633.9" font-family="Arial" font-size="14.00" fill="#666666">[tinyint(1)]</text>
<polygon fill="none" stroke="#000000" points="107,-592.5 107,-622.5 288,-622.5 288,-592.5 107,-592.5"/>
<text text-anchor="start" x="114" y="-603.9" font-family="Arial" font-size="14.00" fill="#000000">http_port </text>
<text text-anchor="start" x="173.136" y="-603.9" font-family="Arial" font-size="14.00" fill="#666666">[int(11)]</text>
<polygon fill="none" stroke="#000000" points="107,-562.5 107,-592.5 288,-592.5 288,-562.5 107,-562.5"/>
<text text-anchor="start" x="114" y="-573.9" font-family="Arial" font-size="14.00" fill="#000000">created_at </text>
<text text-anchor="start" x="184.028" y="-573.9" font-family="Arial" font-size="14.00" fill="#666666">[datetime(6)]</text>
<polygon fill="none" stroke="#000000" points="107,-532.5 107,-562.5 288,-562.5 288,-532.5 107,-532.5"/>
<text text-anchor="start" x="114" y="-543.9" font-family="Arial" font-size="14.00" fill="#000000">updated_at </text>
<text text-anchor="start" x="187.9326" y="-543.9" font-family="Arial" font-size="14.00" fill="#666666">[datetime(6)]</text>
<polygon fill="none" stroke="#000000" points="107,-502.5 107,-532.5 288,-532.5 288,-502.5 107,-502.5"/>
<text text-anchor="start" x="114" y="-513.9" font-family="Arial" font-size="14.00" fill="#000000">application_id </text>
<text text-anchor="start" x="203.4684" y="-513.9" font-family="Arial" font-size="14.00" fill="#666666">[char(22)]</text>
<polygon fill="none" stroke="#000000" stroke-width="3" points="105,-501.5 105,-809.5 289,-809.5 289,-501.5 105,-501.5"/>
</g>
<!-- applications -->
<g id="node2" class="node">
<title>applications</title>
<polygon fill="#efefef" stroke="transparent" points="43,-342.5 43,-377.5 353,-377.5 353,-342.5 43,-342.5"/>
<polygon fill="none" stroke="#000000" points="43,-342.5 43,-377.5 353,-377.5 353,-342.5 43,-342.5"/>
<text text-anchor="start" x="101.8621" y="-355.3" font-family="Arial Bold" font-size="18.00" fill="#000000">applications</text>
<text text-anchor="start" x="196.8841" y="-355.3" font-family="Arial" font-size="14.00" fill="#000000"> </text>
<text text-anchor="start" x="200.7747" y="-355.3" font-family="Arial" font-size="14.00" fill="#666666">[BASE TABLE]</text>
<polygon fill="none" stroke="#000000" points="43,-312.5 43,-342.5 353,-342.5 353,-312.5 43,-312.5"/>
<text text-anchor="start" x="50" y="-323.9" font-family="Arial" font-size="14.00" fill="#000000">id </text>
<text text-anchor="start" x="64.7798" y="-323.9" font-family="Arial" font-size="14.00" fill="#666666">[char(22)]</text>
<polygon fill="none" stroke="#000000" points="43,-282.5 43,-312.5 353,-312.5 353,-282.5 43,-282.5"/>
<text text-anchor="start" x="50" y="-293.9" font-family="Arial" font-size="14.00" fill="#000000">name </text>
<text text-anchor="start" x="88.899" y="-293.9" font-family="Arial" font-size="14.00" fill="#666666">[varchar(100)]</text>
<polygon fill="none" stroke="#000000" points="43,-252.5 43,-282.5 353,-282.5 353,-252.5 43,-252.5"/>
<text text-anchor="start" x="50" y="-263.9" font-family="Arial" font-size="14.00" fill="#000000">repository_id </text>
<text text-anchor="start" x="134.0112" y="-263.9" font-family="Arial" font-size="14.00" fill="#666666">[varchar(22)]</text>
<polygon fill="none" stroke="#000000" points="43,-222.5 43,-252.5 353,-252.5 353,-222.5 43,-222.5"/>
<text text-anchor="start" x="50" y="-233.9" font-family="Arial" font-size="14.00" fill="#000000">ref_name </text>
<text text-anchor="start" x="113.0154" y="-233.9" font-family="Arial" font-size="14.00" fill="#666666">[varchar(100)]</text>
<polygon fill="none" stroke="#000000" points="43,-192.5 43,-222.5 353,-222.5 353,-192.5 43,-192.5"/>
<text text-anchor="start" x="50" y="-203.9" font-family="Arial" font-size="14.00" fill="#000000">build_type </text>
<text text-anchor="start" x="117.69" y="-203.9" font-family="Arial" font-size="14.00" fill="#666666">[enum(&#39;runtime&#39;,&#39;static&#39;)]</text>
<polygon fill="none" stroke="#000000" points="43,-162.5 43,-192.5 353,-192.5 353,-162.5 43,-162.5"/>
<text text-anchor="start" x="49.88" y="-173.9" font-family="Arial" font-size="14.00" fill="#000000">state </text>
<text text-anchor="start" x="84.117" y="-173.9" font-family="Arial" font-size="14.00" fill="#666666">[enum(&#39;idle&#39;,&#39;deploying&#39;,&#39;running&#39;,&#39;errored&#39;)]</text>
<polygon fill="none" stroke="#000000" points="43,-132.5 43,-162.5 353,-162.5 353,-132.5 43,-132.5"/>
<text text-anchor="start" x="50" y="-143.9" font-family="Arial" font-size="14.00" fill="#000000">current_commit </text>
<text text-anchor="start" x="150.3338" y="-143.9" font-family="Arial" font-size="14.00" fill="#666666">[char(40)]</text>
<polygon fill="none" stroke="#000000" points="43,-102.5 43,-132.5 353,-132.5 353,-102.5 43,-102.5"/>
<text text-anchor="start" x="50" y="-113.9" font-family="Arial" font-size="14.00" fill="#000000">want_commit </text>
<text text-anchor="start" x="136.3366" y="-113.9" font-family="Arial" font-size="14.00" fill="#666666">[char(40)]</text>
<polygon fill="none" stroke="#000000" points="43,-72.5 43,-102.5 353,-102.5 353,-72.5 43,-72.5"/>
<text text-anchor="start" x="50" y="-83.9" font-family="Arial" font-size="14.00" fill="#000000">created_at </text>
<text text-anchor="start" x="120.028" y="-83.9" font-family="Arial" font-size="14.00" fill="#666666">[datetime(6)]</text>
<polygon fill="none" stroke="#000000" points="43,-42.5 43,-72.5 353,-72.5 353,-42.5 43,-42.5"/>
<text text-anchor="start" x="50" y="-53.9" font-family="Arial" font-size="14.00" fill="#000000">updated_at </text>
<text text-anchor="start" x="123.9326" y="-53.9" font-family="Arial" font-size="14.00" fill="#666666">[datetime(6)]</text>
</g>
<!-- websites&#45;&gt;applications -->
<g id="edge1" class="edge">
<title>websites:application_id&#45;&gt;applications:id</title>
<path fill="none" stroke="#000000" d="M197.263,-492.4551C187.405,-430.2858 81.3537,-484.499 43,-421 21.5152,-385.4294 1.4444,-327.5 43,-327.5"/>
<polygon fill="#000000" stroke="#000000" points="197.2682,-492.5268 193.5121,-502.8293 197.6341,-497.5134 198,-502.5 198,-502.5 198,-502.5 197.6341,-497.5134 202.4879,-502.1707 197.2682,-492.5268 197.2682,-492.5268"/>
<text text-anchor="start" x="204.602" y="-512.5" font-family="Arial" font-size="10.00" fill="#000000">FOREIGN KEY (application_id) REFERENCES applications (id)</text>
</g>
</g>
</svg>
