<?xml version="1.0" encoding="UTF-8" standalone="no"?>
<!DOCTYPE svg PUBLIC "-//W3C//DTD SVG 1.1//EN"
        "http://www.w3.org/Graphics/SVG/1.1/DTD/svg11.dtd">
<!-- Generated by graphviz version 2.40.1 (20161225.0304)
 -->
<!-- Title: websites Pages: 1 -->
<svg width="472pt" height="682pt"
     viewBox="0.00 0.00 472.00 682.00" xmlns="http://www.w3.org/2000/svg" xmlns:xlink="http://www.w3.org/1999/xlink">
    <g id="graph0" class="graph" transform="scale(1 1) rotate(0) translate(4 678)">
        <title>websites</title>
        <polygon fill="#ffffff" stroke="transparent" points="-4,4 -4,-678 468,-678 468,4 -4,4"/>
        <!-- websites -->
        <g id="node1" class="node">
            <title>websites</title>
            <polygon fill="#efefef" stroke="transparent"
                     points="215,-592.5 215,-627.5 407,-627.5 407,-592.5 215,-592.5"/>
            <polygon fill="none" stroke="#000000" points="215,-592.5 215,-627.5 407,-627.5 407,-592.5 215,-592.5"/>
            <text text-anchor="start" x="227.3685" y="-605.3" font-family="Arial Bold" font-size="18.00" fill="#000000">
                websites
            </text>
            <text text-anchor="start" x="297.3777" y="-605.3" font-family="Arial" font-size="14.00"
                  fill="#000000"></text>
            <text text-anchor="start" x="301.2683" y="-605.3" font-family="Arial" font-size="14.00" fill="#666666">[BASE
                TABLE]
            </text>
            <polygon fill="none" stroke="#000000" points="215,-562.5 215,-592.5 407,-592.5 407,-562.5 215,-562.5"/>
            <text text-anchor="start" x="222" y="-573.9" font-family="Arial" font-size="14.00" fill="#000000">id</text>
            <text text-anchor="start" x="236.7798" y="-573.9" font-family="Arial" font-size="14.00" fill="#666666">
                [varchar(22)]
            </text>
            <polygon fill="none" stroke="#000000" points="215,-532.5 215,-562.5 407,-562.5 407,-532.5 215,-532.5"/>
            <text text-anchor="start" x="222" y="-543.9" font-family="Arial" font-size="14.00" fill="#000000">fqdn
            </text>
            <text text-anchor="start" x="253.129" y="-543.9" font-family="Arial" font-size="14.00" fill="#666666">
                [varchar(50)]
            </text>
            <polygon fill="none" stroke="#000000" points="215,-502.5 215,-532.5 407,-532.5 407,-502.5 215,-502.5"/>
            <text text-anchor="start" x="222" y="-513.9" font-family="Arial" font-size="14.00" fill="#000000">
                http_port
            </text>
            <text text-anchor="start" x="281.136" y="-513.9" font-family="Arial" font-size="14.00" fill="#666666">
                [int(11)]
            </text>
            <polygon fill="none" stroke="#000000" points="215,-472.5 215,-502.5 407,-502.5 407,-472.5 215,-472.5"/>
            <text text-anchor="start" x="222" y="-483.9" font-family="Arial" font-size="14.00" fill="#000000">
                created_at
            </text>
            <text text-anchor="start" x="292.028" y="-483.9" font-family="Arial" font-size="14.00" fill="#666666">
                [datetime(6)]
            </text>
            <polygon fill="none" stroke="#000000" points="215,-442.5 215,-472.5 407,-472.5 407,-442.5 215,-442.5"/>
            <text text-anchor="start" x="222" y="-453.9" font-family="Arial" font-size="14.00" fill="#000000">
                updated_at
            </text>
            <text text-anchor="start" x="295.9326" y="-453.9" font-family="Arial" font-size="14.00" fill="#666666">
                [datetime(6)]
            </text>
            <polygon fill="none" stroke="#000000" points="215,-412.5 215,-442.5 407,-442.5 407,-412.5 215,-412.5"/>
            <text text-anchor="start" x="221.5435" y="-423.9" font-family="Arial" font-size="14.00" fill="#000000">
                environment_id
            </text>
            <text text-anchor="start" x="321.1199" y="-423.9" font-family="Arial" font-size="14.00" fill="#666666">
                [varchar(22)]
            </text>
            <polygon fill="none" stroke="#000000" stroke-width="3"
                     points="213.5,-411.5 213.5,-629.5 408.5,-629.5 408.5,-411.5 213.5,-411.5"/>
        </g>
        <!-- environments -->
        <g id="node2" class="node">
            <title>environments</title>
            <polygon fill="#efefef" stroke="transparent"
                     points="201,-252.5 201,-287.5 421,-287.5 421,-252.5 201,-252.5"/>
            <polygon fill="none" stroke="#000000" points="201,-252.5 201,-287.5 421,-287.5 421,-252.5 201,-252.5"/>
            <text text-anchor="start" x="208.3641" y="-265.3" font-family="Arial Bold" font-size="18.00" fill="#000000">
                environments
            </text>
            <text text-anchor="start" x="316.3821" y="-265.3" font-family="Arial" font-size="14.00"
                  fill="#000000"></text>
            <text text-anchor="start" x="320.2727" y="-265.3" font-family="Arial" font-size="14.00" fill="#666666">[BASE
                TABLE]
            </text>
            <polygon fill="none" stroke="#000000" points="201,-222.5 201,-252.5 421,-252.5 421,-222.5 201,-222.5"/>
            <text text-anchor="start" x="208" y="-233.9" font-family="Arial" font-size="14.00" fill="#000000">id</text>
            <text text-anchor="start" x="222.7798" y="-233.9" font-family="Arial" font-size="14.00" fill="#666666">
                [varchar(22)]
            </text>
            <polygon fill="none" stroke="#000000" points="201,-192.5 201,-222.5 421,-222.5 421,-192.5 201,-192.5"/>
            <text text-anchor="start" x="208" y="-203.9" font-family="Arial" font-size="14.00" fill="#000000">
                application_id
            </text>
            <text text-anchor="start" x="297.4684" y="-203.9" font-family="Arial" font-size="14.00" fill="#666666">
                [varchar(22)]
            </text>
            <polygon fill="none" stroke="#000000" points="201,-162.5 201,-192.5 421,-192.5 421,-162.5 201,-162.5"/>
            <text text-anchor="start" x="208" y="-173.9" font-family="Arial" font-size="14.00" fill="#000000">
                branch_name
            </text>
            <text text-anchor="start" x="297.4726" y="-173.9" font-family="Arial" font-size="14.00" fill="#666666">
                [varchar(100)]
            </text>
            <polygon fill="none" stroke="#000000" points="201,-132.5 201,-162.5 421,-162.5 421,-132.5 201,-132.5"/>
            <text text-anchor="start" x="207.5764" y="-143.9" font-family="Arial" font-size="14.00" fill="#000000">
                build_type
            </text>
            <text text-anchor="start" x="275.2664" y="-143.9" font-family="Arial" font-size="14.00" fill="#666666">
                [enum(&#39;image&#39;,&#39;static&#39;)]
            </text>
            <polygon fill="none" stroke="#000000" points="201,-102.5 201,-132.5 421,-132.5 421,-102.5 201,-102.5"/>
            <text text-anchor="start" x="208" y="-113.9" font-family="Arial" font-size="14.00" fill="#000000">
                created_at
            </text>
            <text text-anchor="start" x="278.028" y="-113.9" font-family="Arial" font-size="14.00" fill="#666666">
                [datetime(6)]
            </text>
            <polygon fill="none" stroke="#000000" points="201,-72.5 201,-102.5 421,-102.5 421,-72.5 201,-72.5"/>
            <text text-anchor="start" x="208" y="-83.9" font-family="Arial" font-size="14.00" fill="#000000">
                updated_at
            </text>
            <text text-anchor="start" x="281.9326" y="-83.9" font-family="Arial" font-size="14.00" fill="#666666">
                [datetime(6)]
            </text>
            <polygon fill="none" stroke="#000000" points="201,-42.5 201,-72.5 421,-72.5 421,-42.5 201,-42.5"/>
            <text text-anchor="start" x="208" y="-53.9" font-family="Arial" font-size="14.00" fill="#000000">build_id
            </text>
            <text text-anchor="start" x="260.1234" y="-53.9" font-family="Arial" font-size="14.00" fill="#666666">
                [varchar(22)]
            </text>
        </g>
        <!-- websites&#45;&gt;environments -->
        <g id="edge1" class="edge">
            <title>websites:environment_id&#45;&gt;environments:id</title>
            <path fill="none" stroke="#000000"
                  d="M311.8781,-402.4471C320.8034,-355.4112 395.2873,-382.0519 421,-331 439.6927,-293.886 462.5556,-237.5 421,-237.5"/>
            <polygon fill="#000000" stroke="#000000"
                     points="311.8703,-402.5379 306.5171,-412.1084 311.4351,-407.519 311,-412.5 311,-412.5 311,-412.5 311.4351,-407.519 315.4829,-412.8916 311.8703,-402.5379 311.8703,-402.5379"/>
            <text text-anchor="start" x="7.382" y="-422.5" font-family="Arial" font-size="10.00" fill="#000000">FOREIGN
                KEY (environment_id) REFERENCES environments (id)
            </text>
        </g>
    </g>
</svg>
