<?xml version="1.0" encoding="UTF-8" standalone="no"?>
<!DOCTYPE svg PUBLIC "-//W3C//DTD SVG 1.1//EN"
 "http://www.w3.org/Graphics/SVG/1.1/DTD/svg11.dtd">
<!-- Generated by graphviz version 2.40.1 (20161225.0304)
 -->
<!-- Title: websites Pages: 1 -->
<svg width="578pt" height="832pt"
 viewBox="0.00 0.00 578.00 832.00" xmlns="http://www.w3.org/2000/svg" xmlns:xlink="http://www.w3.org/1999/xlink">
<g id="graph0" class="graph" transform="scale(1 1) rotate(0) translate(4 828)">
<title>websites</title>
<polygon fill="#ffffff" stroke="transparent" points="-4,4 -4,-828 574,-828 574,4 -4,4"/>
<!-- websites -->
<g id="node1" class="node">
<title>websites</title>
<polygon fill="#efefef" stroke="transparent" points="183,-742.5 183,-777.5 364,-777.5 364,-742.5 183,-742.5"/>
<polygon fill="none" stroke="#000000" points="183,-742.5 183,-777.5 364,-777.5 364,-742.5 183,-742.5"/>
<text text-anchor="start" x="189.8685" y="-755.3" font-family="Arial Bold" font-size="18.00" fill="#000000">websites</text>
<text text-anchor="start" x="259.8777" y="-755.3" font-family="Arial" font-size="14.00" fill="#000000"> </text>
<text text-anchor="start" x="263.7683" y="-755.3" font-family="Arial" font-size="14.00" fill="#666666">[BASE TABLE]</text>
<polygon fill="none" stroke="#000000" points="183,-712.5 183,-742.5 364,-742.5 364,-712.5 183,-712.5"/>
<text text-anchor="start" x="190" y="-723.9" font-family="Arial" font-size="14.00" fill="#000000">id </text>
<text text-anchor="start" x="204.7798" y="-723.9" font-family="Arial" font-size="14.00" fill="#666666">[char(22)]</text>
<polygon fill="none" stroke="#000000" points="183,-682.5 183,-712.5 364,-712.5 364,-682.5 183,-682.5"/>
<text text-anchor="start" x="190" y="-693.9" font-family="Arial" font-size="14.00" fill="#000000">fqdn </text>
<text text-anchor="start" x="221.129" y="-693.9" font-family="Arial" font-size="14.00" fill="#666666">[varchar(100)]</text>
<polygon fill="none" stroke="#000000" points="183,-652.5 183,-682.5 364,-682.5 364,-652.5 183,-652.5"/>
<text text-anchor="start" x="190" y="-663.9" font-family="Arial" font-size="14.00" fill="#000000">path_prefix </text>
<text text-anchor="start" x="263.1346" y="-663.9" font-family="Arial" font-size="14.00" fill="#666666">[varchar(100)]</text>
<polygon fill="none" stroke="#000000" points="183,-622.5 183,-652.5 364,-652.5 364,-622.5 183,-622.5"/>
<text text-anchor="start" x="190" y="-633.9" font-family="Arial" font-size="14.00" fill="#000000">strip_prefix </text>
<text text-anchor="start" x="262.3366" y="-633.9" font-family="Arial" font-size="14.00" fill="#666666">[tinyint(1)]</text>
<polygon fill="none" stroke="#000000" points="183,-592.5 183,-622.5 364,-622.5 364,-592.5 183,-592.5"/>
<text text-anchor="start" x="190" y="-603.9" font-family="Arial" font-size="14.00" fill="#000000">https </text>
<text text-anchor="start" x="224.237" y="-603.9" font-family="Arial" font-size="14.00" fill="#666666">[tinyint(1)]</text>
<polygon fill="none" stroke="#000000" points="183,-562.5 183,-592.5 364,-592.5 364,-562.5 183,-562.5"/>
<text text-anchor="start" x="190" y="-573.9" font-family="Arial" font-size="14.00" fill="#000000">http_port </text>
<text text-anchor="start" x="249.136" y="-573.9" font-family="Arial" font-size="14.00" fill="#666666">[int(11)]</text>
<polygon fill="none" stroke="#000000" points="183,-532.5 183,-562.5 364,-562.5 364,-532.5 183,-532.5"/>
<text text-anchor="start" x="190" y="-543.9" font-family="Arial" font-size="14.00" fill="#000000">application_id </text>
<text text-anchor="start" x="279.4684" y="-543.9" font-family="Arial" font-size="14.00" fill="#666666">[char(22)]</text>
<polygon fill="none" stroke="#000000" stroke-width="3" points="181,-531.5 181,-779.5 365,-779.5 365,-531.5 181,-531.5"/>
</g>
<!-- applications -->
<g id="node2" class="node">
<title>applications</title>
<polygon fill="#efefef" stroke="transparent" points="43,-372.5 43,-407.5 505,-407.5 505,-372.5 43,-372.5"/>
<polygon fill="none" stroke="#000000" points="43,-372.5 43,-407.5 505,-407.5 505,-372.5 43,-372.5"/>
<text text-anchor="start" x="177.8621" y="-385.3" font-family="Arial Bold" font-size="18.00" fill="#000000">applications</text>
<text text-anchor="start" x="272.8841" y="-385.3" font-family="Arial" font-size="14.00" fill="#000000"> </text>
<text text-anchor="start" x="276.7747" y="-385.3" font-family="Arial" font-size="14.00" fill="#666666">[BASE TABLE]</text>
<polygon fill="none" stroke="#000000" points="43,-342.5 43,-372.5 505,-372.5 505,-342.5 43,-342.5"/>
<text text-anchor="start" x="50" y="-353.9" font-family="Arial" font-size="14.00" fill="#000000">id </text>
<text text-anchor="start" x="64.7798" y="-353.9" font-family="Arial" font-size="14.00" fill="#666666">[char(22)]</text>
<polygon fill="none" stroke="#000000" points="43,-312.5 43,-342.5 505,-342.5 505,-312.5 43,-312.5"/>
<text text-anchor="start" x="50" y="-323.9" font-family="Arial" font-size="14.00" fill="#000000">name </text>
<text text-anchor="start" x="88.899" y="-323.9" font-family="Arial" font-size="14.00" fill="#666666">[varchar(100)]</text>
<polygon fill="none" stroke="#000000" points="43,-282.5 43,-312.5 505,-312.5 505,-282.5 43,-282.5"/>
<text text-anchor="start" x="50" y="-293.9" font-family="Arial" font-size="14.00" fill="#000000">repository_id </text>
<text text-anchor="start" x="134.0112" y="-293.9" font-family="Arial" font-size="14.00" fill="#666666">[varchar(22)]</text>
<polygon fill="none" stroke="#000000" points="43,-252.5 43,-282.5 505,-282.5 505,-252.5 43,-252.5"/>
<text text-anchor="start" x="50" y="-263.9" font-family="Arial" font-size="14.00" fill="#000000">ref_name </text>
<text text-anchor="start" x="113.0154" y="-263.9" font-family="Arial" font-size="14.00" fill="#666666">[varchar(100)]</text>
<polygon fill="none" stroke="#000000" points="43,-222.5 43,-252.5 505,-252.5 505,-222.5 43,-222.5"/>
<text text-anchor="start" x="50" y="-233.9" font-family="Arial" font-size="14.00" fill="#000000">build_type </text>
<text text-anchor="start" x="117.69" y="-233.9" font-family="Arial" font-size="14.00" fill="#666666">[enum(&#39;runtime&#39;,&#39;static&#39;)]</text>
<polygon fill="none" stroke="#000000" points="43,-192.5 43,-222.5 505,-222.5 505,-192.5 43,-192.5"/>
<text text-anchor="start" x="50" y="-203.9" font-family="Arial" font-size="14.00" fill="#000000">running </text>
<text text-anchor="start" x="100.5708" y="-203.9" font-family="Arial" font-size="14.00" fill="#666666">[tinyint(1)]</text>
<polygon fill="none" stroke="#000000" points="43,-162.5 43,-192.5 505,-192.5 505,-162.5 43,-162.5"/>
<text text-anchor="start" x="49.6857" y="-173.9" font-family="Arial" font-size="14.00" fill="#000000">container </text>
<text text-anchor="start" x="111.1471" y="-173.9" font-family="Arial" font-size="14.00" fill="#666666">[enum(&#39;missing&#39;,&#39;starting&#39;,&#39;running&#39;,&#39;exited&#39;,&#39;errored&#39;,&#39;unknown&#39;)]</text>
<polygon fill="none" stroke="#000000" points="43,-132.5 43,-162.5 505,-162.5 505,-132.5 43,-132.5"/>
<text text-anchor="start" x="50" y="-143.9" font-family="Arial" font-size="14.00" fill="#000000">current_commit </text>
<text text-anchor="start" x="150.3338" y="-143.9" font-family="Arial" font-size="14.00" fill="#666666">[char(40)]</text>
<polygon fill="none" stroke="#000000" points="43,-102.5 43,-132.5 505,-132.5 505,-102.5 43,-102.5"/>
<text text-anchor="start" x="50" y="-113.9" font-family="Arial" font-size="14.00" fill="#000000">want_commit </text>
<text text-anchor="start" x="136.3366" y="-113.9" font-family="Arial" font-size="14.00" fill="#666666">[char(40)]</text>
<polygon fill="none" stroke="#000000" points="43,-72.5 43,-102.5 505,-102.5 505,-72.5 43,-72.5"/>
<text text-anchor="start" x="50" y="-83.9" font-family="Arial" font-size="14.00" fill="#000000">created_at </text>
<text text-anchor="start" x="120.028" y="-83.9" font-family="Arial" font-size="14.00" fill="#666666">[datetime(6)]</text>
<polygon fill="none" stroke="#000000" points="43,-42.5 43,-72.5 505,-72.5 505,-42.5 43,-42.5"/>
<text text-anchor="start" x="50" y="-53.9" font-family="Arial" font-size="14.00" fill="#000000">updated_at </text>
<text text-anchor="start" x="123.9326" y="-53.9" font-family="Arial" font-size="14.00" fill="#666666">[datetime(6)]</text>
</g>
<!-- websites&#45;&gt;applications -->
<g id="edge1" class="edge">
<title>websites:application_id&#45;&gt;applications:id</title>
<path fill="none" stroke="#000000" d="M273.454,-522.3844C262.9521,-431.1238 103.7969,-536.9198 43,-451 18.9967,-417.0779 1.4444,-357.5 43,-357.5"/>
<polygon fill="#000000" stroke="#000000" points="273.4609,-522.5145 269.5065,-532.7426 273.7305,-527.5073 274,-532.5 274,-532.5 274,-532.5 273.7305,-527.5073 278.4935,-532.2574 273.4609,-522.5145 273.4609,-522.5145"/>
<text text-anchor="start" x="280.602" y="-542.5" font-family="Arial" font-size="10.00" fill="#000000">FOREIGN KEY (application_id) REFERENCES applications (id)</text>
</g>
</g>
</svg>
