<?xml version="1.0" encoding="UTF-8" standalone="no"?>
<!DOCTYPE svg PUBLIC "-//W3C//DTD SVG 1.1//EN"
        "http://www.w3.org/Graphics/SVG/1.1/DTD/svg11.dtd">
<!-- Generated by graphviz version 2.40.1 (20161225.0304)
 -->
<!-- Title: websites Pages: 1 -->
<svg width="880pt" height="682pt"
     viewBox="0.00 0.00 879.50 682.00" xmlns="http://www.w3.org/2000/svg" xmlns:xlink="http://www.w3.org/1999/xlink">
    <g id="graph0" class="graph" transform="scale(1 1) rotate(0) translate(4 678)">
        <title>websites</title>
        <polygon fill="#ffffff" stroke="transparent" points="-4,4 -4,-678 875.5,-678 875.5,4 -4,4"/>
        <!-- websites -->
        <g id="node1" class="node">
            <title>websites</title>
            <polygon fill="#efefef" stroke="transparent"
                     points="368.5,-592.5 368.5,-627.5 560.5,-627.5 560.5,-592.5 368.5,-592.5"/>
            <polygon fill="none" stroke="#000000"
                     points="368.5,-592.5 368.5,-627.5 560.5,-627.5 560.5,-592.5 368.5,-592.5"/>
            <text text-anchor="start" x="380.8685" y="-605.3" font-family="Arial Bold" font-size="18.00" fill="#000000">
                websites
            </text>
            <text text-anchor="start" x="450.8777" y="-605.3" font-family="Arial" font-size="14.00"
                  fill="#000000"></text>
            <text text-anchor="start" x="454.7683" y="-605.3" font-family="Arial" font-size="14.00" fill="#666666">[BASE
                TABLE]
            </text>
            <polygon fill="none" stroke="#000000"
                     points="368.5,-562.5 368.5,-592.5 560.5,-592.5 560.5,-562.5 368.5,-562.5"/>
            <text text-anchor="start" x="375.5" y="-573.9" font-family="Arial" font-size="14.00" fill="#000000">id
            </text>
            <text text-anchor="start" x="390.2798" y="-573.9" font-family="Arial" font-size="14.00" fill="#666666">
                [varchar(22)]
            </text>
            <polygon fill="none" stroke="#000000"
                     points="368.5,-532.5 368.5,-562.5 560.5,-562.5 560.5,-532.5 368.5,-532.5"/>
            <text text-anchor="start" x="375.5" y="-543.9" font-family="Arial" font-size="14.00" fill="#000000">fqdn
            </text>
            <text text-anchor="start" x="406.629" y="-543.9" font-family="Arial" font-size="14.00" fill="#666666">
                [varchar(50)]
            </text>
            <polygon fill="none" stroke="#000000"
                     points="368.5,-502.5 368.5,-532.5 560.5,-532.5 560.5,-502.5 368.5,-502.5"/>
            <text text-anchor="start" x="375.5" y="-513.9" font-family="Arial" font-size="14.00" fill="#000000">
                build_id
            </text>
            <text text-anchor="start" x="427.6234" y="-513.9" font-family="Arial" font-size="14.00" fill="#666666">
                [varchar(22)]
            </text>
            <polygon fill="none" stroke="#000000"
                     points="368.5,-472.5 368.5,-502.5 560.5,-502.5 560.5,-472.5 368.5,-472.5"/>
            <text text-anchor="start" x="375.5" y="-483.9" font-family="Arial" font-size="14.00" fill="#000000">
                http_port
            </text>
            <text text-anchor="start" x="434.636" y="-483.9" font-family="Arial" font-size="14.00" fill="#666666">
                [int(11)]
            </text>
            <polygon fill="none" stroke="#000000"
                     points="368.5,-442.5 368.5,-472.5 560.5,-472.5 560.5,-442.5 368.5,-442.5"/>
            <text text-anchor="start" x="375.5" y="-453.9" font-family="Arial" font-size="14.00" fill="#000000">
                created_at
            </text>
            <text text-anchor="start" x="445.528" y="-453.9" font-family="Arial" font-size="14.00" fill="#666666">
                [datetime(6)]
            </text>
            <polygon fill="none" stroke="#000000"
                     points="368.5,-412.5 368.5,-442.5 560.5,-442.5 560.5,-412.5 368.5,-412.5"/>
            <text text-anchor="start" x="375.5" y="-423.9" font-family="Arial" font-size="14.00" fill="#000000">
                updated_at
            </text>
            <text text-anchor="start" x="449.4326" y="-423.9" font-family="Arial" font-size="14.00" fill="#666666">
                [datetime(6)]
            </text>
            <polygon fill="none" stroke="#000000"
                     points="368.5,-382.5 368.5,-412.5 560.5,-412.5 560.5,-382.5 368.5,-382.5"/>
            <text text-anchor="start" x="375.0435" y="-393.9" font-family="Arial" font-size="14.00" fill="#000000">
                environment_id
            </text>
            <text text-anchor="start" x="474.6199" y="-393.9" font-family="Arial" font-size="14.00" fill="#666666">
                [varchar(22)]
            </text>
            <polygon fill="none" stroke="#000000" stroke-width="3"
                     points="367,-381.5 367,-629.5 562,-629.5 562,-381.5 367,-381.5"/>
        </g>
        <!-- build_logs -->
        <g id="node2" class="node">
            <title>build_logs</title>
            <polygon fill="#efefef" stroke="transparent"
                     points="43.5,-207.5 43.5,-242.5 462.5,-242.5 462.5,-207.5 43.5,-207.5"/>
            <polygon fill="none" stroke="#000000"
                     points="43.5,-207.5 43.5,-242.5 462.5,-242.5 462.5,-207.5 43.5,-207.5"/>
            <text text-anchor="start" x="163.8632" y="-220.3" font-family="Arial Bold" font-size="18.00" fill="#000000">
                build_logs
            </text>
            <text text-anchor="start" x="244.883" y="-220.3" font-family="Arial" font-size="14.00"
                  fill="#000000"></text>
            <text text-anchor="start" x="248.7736" y="-220.3" font-family="Arial" font-size="14.00" fill="#666666">[BASE
                TABLE]
            </text>
            <polygon fill="none" stroke="#000000"
                     points="43.5,-177.5 43.5,-207.5 462.5,-207.5 462.5,-177.5 43.5,-177.5"/>
            <text text-anchor="start" x="50.5" y="-188.9" font-family="Arial" font-size="14.00" fill="#000000">id</text>
            <text text-anchor="start" x="65.2798" y="-188.9" font-family="Arial" font-size="14.00" fill="#666666">
                [varchar(22)]
            </text>
            <polygon fill="none" stroke="#000000"
                     points="43.5,-147.5 43.5,-177.5 462.5,-177.5 462.5,-147.5 43.5,-147.5"/>
            <text text-anchor="start" x="50.0742" y="-158.9" font-family="Arial" font-size="14.00" fill="#000000">
                result
            </text>
            <text text-anchor="start" x="88.1878" y="-158.9" font-family="Arial" font-size="14.00" fill="#666666">[enum(&#39;BUILDING&#39;,&#39;SUCCEEDED&#39;,&#39;FAILED&#39;,&#39;CANCELED&#39;)]</text>
            <polygon fill="none" stroke="#000000"
                     points="43.5,-117.5 43.5,-147.5 462.5,-147.5 462.5,-117.5 43.5,-117.5"/>
            <text text-anchor="start" x="50.5" y="-128.9" font-family="Arial" font-size="14.00" fill="#000000">
                started_at
            </text>
            <text text-anchor="start" x="116.636" y="-128.9" font-family="Arial" font-size="14.00" fill="#666666">
                [datetime(6)]
            </text>
            <polygon fill="none" stroke="#000000" points="43.5,-87.5 43.5,-117.5 462.5,-117.5 462.5,-87.5 43.5,-87.5"/>
            <text text-anchor="start" x="50.5" y="-98.9" font-family="Arial" font-size="14.00" fill="#000000">
                finished_at
            </text>
            <text text-anchor="start" x="122.0806" y="-98.9" font-family="Arial" font-size="14.00" fill="#666666">
                [datetime(6)]
            </text>
            <polygon fill="none" stroke="#000000" points="43.5,-57.5 43.5,-87.5 462.5,-87.5 462.5,-57.5 43.5,-57.5"/>
            <text text-anchor="start" x="50.5" y="-68.9" font-family="Arial" font-size="14.00" fill="#000000">
                environment_id
            </text>
            <text text-anchor="start" x="150.0764" y="-68.9" font-family="Arial" font-size="14.00" fill="#666666">
                [varchar(22)]
            </text>
        </g>
        <!-- websites&#45;&gt;build_logs -->
        <g id="edge1" class="edge">
            <title>websites:build_id&#45;&gt;build_logs:id</title>
            <path fill="none" stroke="#000000"
                  d="M358.4011,-516.8386C291.8029,-507.5628 329.3153,-402.8403 368.5,-337 392.8084,-296.1557 438.1916,-326.8443 462.5,-286 483.7526,-250.2902 504.0556,-192.5 462.5,-192.5"/>
            <polygon fill="#000000" stroke="#000000"
                     points="358.5214,-516.8464 368.2059,-521.9904 363.5107,-517.1732 368.5,-517.5 368.5,-517.5 368.5,-517.5 363.5107,-517.1732 368.7941,-513.0096 358.5214,-516.8464 358.5214,-516.8464"/>
            <text text-anchor="start" x="113.329" y="-527.5" font-family="Arial" font-size="10.00" fill="#000000">
                FOREIGN KEY (build_id) REFERENCES build_logs (id)
            </text>
        </g>
        <!-- environments -->
        <g id="node3" class="node">
            <title>environments</title>
            <polygon fill="#efefef" stroke="transparent"
                     points="566.5,-222.5 566.5,-257.5 786.5,-257.5 786.5,-222.5 566.5,-222.5"/>
            <polygon fill="none" stroke="#000000"
                     points="566.5,-222.5 566.5,-257.5 786.5,-257.5 786.5,-222.5 566.5,-222.5"/>
            <text text-anchor="start" x="573.8641" y="-235.3" font-family="Arial Bold" font-size="18.00" fill="#000000">
                environments
            </text>
            <text text-anchor="start" x="681.8821" y="-235.3" font-family="Arial" font-size="14.00"
                  fill="#000000"></text>
            <text text-anchor="start" x="685.7727" y="-235.3" font-family="Arial" font-size="14.00" fill="#666666">[BASE
                TABLE]
            </text>
            <polygon fill="none" stroke="#000000"
                     points="566.5,-192.5 566.5,-222.5 786.5,-222.5 786.5,-192.5 566.5,-192.5"/>
            <text text-anchor="start" x="573.5" y="-203.9" font-family="Arial" font-size="14.00" fill="#000000">id
            </text>
            <text text-anchor="start" x="588.2798" y="-203.9" font-family="Arial" font-size="14.00" fill="#666666">
                [varchar(22)]
            </text>
            <polygon fill="none" stroke="#000000"
                     points="566.5,-162.5 566.5,-192.5 786.5,-192.5 786.5,-162.5 566.5,-162.5"/>
            <text text-anchor="start" x="573.5" y="-173.9" font-family="Arial" font-size="14.00" fill="#000000">
                application_id
            </text>
            <text text-anchor="start" x="662.9684" y="-173.9" font-family="Arial" font-size="14.00" fill="#666666">
                [varchar(22)]
            </text>
            <polygon fill="none" stroke="#000000"
                     points="566.5,-132.5 566.5,-162.5 786.5,-162.5 786.5,-132.5 566.5,-132.5"/>
            <text text-anchor="start" x="573.5" y="-143.9" font-family="Arial" font-size="14.00" fill="#000000">
                branch_name
            </text>
            <text text-anchor="start" x="662.9726" y="-143.9" font-family="Arial" font-size="14.00" fill="#666666">
                [varchar(100)]
            </text>
            <polygon fill="none" stroke="#000000"
                     points="566.5,-102.5 566.5,-132.5 786.5,-132.5 786.5,-102.5 566.5,-102.5"/>
            <text text-anchor="start" x="573.0764" y="-113.9" font-family="Arial" font-size="14.00" fill="#000000">
                build_type
            </text>
            <text text-anchor="start" x="640.7664" y="-113.9" font-family="Arial" font-size="14.00" fill="#666666">
                [enum(&#39;image&#39;,&#39;static&#39;)]
            </text>
            <polygon fill="none" stroke="#000000"
                     points="566.5,-72.5 566.5,-102.5 786.5,-102.5 786.5,-72.5 566.5,-72.5"/>
            <text text-anchor="start" x="573.5" y="-83.9" font-family="Arial" font-size="14.00" fill="#000000">
                created_at
            </text>
            <text text-anchor="start" x="643.528" y="-83.9" font-family="Arial" font-size="14.00" fill="#666666">
                [datetime(6)]
            </text>
            <polygon fill="none" stroke="#000000" points="566.5,-42.5 566.5,-72.5 786.5,-72.5 786.5,-42.5 566.5,-42.5"/>
            <text text-anchor="start" x="573.5" y="-53.9" font-family="Arial" font-size="14.00" fill="#000000">
                updated_at
            </text>
            <text text-anchor="start" x="647.4326" y="-53.9" font-family="Arial" font-size="14.00" fill="#666666">
                [datetime(6)]
            </text>
        </g>
        <!-- websites&#45;&gt;environments -->
        <g id="edge2" class="edge">
            <title>websites:environment_id&#45;&gt;environments:id</title>
            <path fill="none" stroke="#000000" d="M570.8007,-396.2867C630.2515,-380.105 485.9738,-207.5 566.5,-207.5"/>
            <polygon fill="#000000" stroke="#000000"
                     points="570.4313,-396.3301 559.9736,-393.0309 565.4657,-396.9151 560.5,-397.5 560.5,-397.5 560.5,-397.5 565.4657,-396.9151 561.0264,-401.9691 570.4313,-396.3301 570.4313,-396.3301"/>
            <text text-anchor="start" x="567.882" y="-407.5" font-family="Arial" font-size="10.00" fill="#000000">
                FOREIGN KEY (environment_id) REFERENCES environments (id)
            </text>
        </g>
    </g>
</svg>
