<?xml version="1.0" encoding="UTF-8" standalone="no"?>
<!DOCTYPE svg PUBLIC "-//W3C//DTD SVG 1.1//EN"
 "http://www.w3.org/Graphics/SVG/1.1/DTD/svg11.dtd">
<!-- Generated by graphviz version 2.40.1 (20161225.0304)
 -->
<!-- Title: websites Pages: 1 -->
<svg width="457pt" height="742pt"
 viewBox="0.00 0.00 457.00 742.00" xmlns="http://www.w3.org/2000/svg" xmlns:xlink="http://www.w3.org/1999/xlink">
<g id="graph0" class="graph" transform="scale(1 1) rotate(0) translate(4 738)">
<title>websites</title>
<polygon fill="#ffffff" stroke="transparent" points="-4,4 -4,-738 453,-738 453,4 -4,4"/>
<!-- websites -->
<g id="node1" class="node">
<title>websites</title>
<polygon fill="#efefef" stroke="transparent" points="205,-652.5 205,-687.5 387,-687.5 387,-652.5 205,-652.5"/>
<polygon fill="none" stroke="#000000" points="205,-652.5 205,-687.5 387,-687.5 387,-652.5 205,-652.5"/>
<text text-anchor="start" x="212.3685" y="-665.3" font-family="Arial Bold" font-size="18.00" fill="#000000">websites</text>
<text text-anchor="start" x="282.3777" y="-665.3" font-family="Arial" font-size="14.00" fill="#000000"> </text>
<text text-anchor="start" x="286.2683" y="-665.3" font-family="Arial" font-size="14.00" fill="#666666">[BASE TABLE]</text>
<polygon fill="none" stroke="#000000" points="205,-622.5 205,-652.5 387,-652.5 387,-622.5 205,-622.5"/>
<text text-anchor="start" x="212" y="-633.9" font-family="Arial" font-size="14.00" fill="#000000">id </text>
<text text-anchor="start" x="226.7798" y="-633.9" font-family="Arial" font-size="14.00" fill="#666666">[varchar(22)]</text>
<polygon fill="none" stroke="#000000" points="205,-592.5 205,-622.5 387,-622.5 387,-592.5 205,-592.5"/>
<text text-anchor="start" x="212" y="-603.9" font-family="Arial" font-size="14.00" fill="#000000">fqdn </text>
<text text-anchor="start" x="243.129" y="-603.9" font-family="Arial" font-size="14.00" fill="#666666">[varchar(50)]</text>
<polygon fill="none" stroke="#000000" points="205,-562.5 205,-592.5 387,-592.5 387,-562.5 205,-562.5"/>
<text text-anchor="start" x="212" y="-573.9" font-family="Arial" font-size="14.00" fill="#000000">http_port </text>
<text text-anchor="start" x="271.136" y="-573.9" font-family="Arial" font-size="14.00" fill="#666666">[int(11)]</text>
<polygon fill="none" stroke="#000000" points="205,-532.5 205,-562.5 387,-562.5 387,-532.5 205,-532.5"/>
<text text-anchor="start" x="212" y="-543.9" font-family="Arial" font-size="14.00" fill="#000000">created_at </text>
<text text-anchor="start" x="282.028" y="-543.9" font-family="Arial" font-size="14.00" fill="#666666">[datetime(6)]</text>
<polygon fill="none" stroke="#000000" points="205,-502.5 205,-532.5 387,-532.5 387,-502.5 205,-502.5"/>
<text text-anchor="start" x="212" y="-513.9" font-family="Arial" font-size="14.00" fill="#000000">updated_at </text>
<text text-anchor="start" x="285.9326" y="-513.9" font-family="Arial" font-size="14.00" fill="#666666">[datetime(6)]</text>
<polygon fill="none" stroke="#000000" points="205,-472.5 205,-502.5 387,-502.5 387,-472.5 205,-472.5"/>
<text text-anchor="start" x="211.5975" y="-483.9" font-family="Arial" font-size="14.00" fill="#000000">application_id </text>
<text text-anchor="start" x="301.0659" y="-483.9" font-family="Arial" font-size="14.00" fill="#666666">[varchar(22)]</text>
<polygon fill="none" stroke="#000000" stroke-width="3" points="203.5,-471.5 203.5,-689.5 388.5,-689.5 388.5,-471.5 203.5,-471.5"/>
</g>
<!-- applications -->
<g id="node2" class="node">
<title>applications</title>
<polygon fill="#efefef" stroke="transparent" points="186,-312.5 186,-347.5 406,-347.5 406,-312.5 186,-312.5"/>
<polygon fill="none" stroke="#000000" points="186,-312.5 186,-347.5 406,-347.5 406,-312.5 186,-312.5"/>
<text text-anchor="start" x="199.8621" y="-325.3" font-family="Arial Bold" font-size="18.00" fill="#000000">applications</text>
<text text-anchor="start" x="294.8841" y="-325.3" font-family="Arial" font-size="14.00" fill="#000000"> </text>
<text text-anchor="start" x="298.7747" y="-325.3" font-family="Arial" font-size="14.00" fill="#666666">[BASE TABLE]</text>
<polygon fill="none" stroke="#000000" points="186,-282.5 186,-312.5 406,-312.5 406,-282.5 186,-282.5"/>
<text text-anchor="start" x="193" y="-293.9" font-family="Arial" font-size="14.00" fill="#000000">id </text>
<text text-anchor="start" x="207.7798" y="-293.9" font-family="Arial" font-size="14.00" fill="#666666">[varchar(22)]</text>
<polygon fill="none" stroke="#000000" points="186,-252.5 186,-282.5 406,-282.5 406,-252.5 186,-252.5"/>
<text text-anchor="start" x="193" y="-263.9" font-family="Arial" font-size="14.00" fill="#000000">repository_id </text>
<text text-anchor="start" x="277.0112" y="-263.9" font-family="Arial" font-size="14.00" fill="#666666">[varchar(22)]</text>
<polygon fill="none" stroke="#000000" points="186,-222.5 186,-252.5 406,-252.5 406,-222.5 186,-222.5"/>
<text text-anchor="start" x="193" y="-233.9" font-family="Arial" font-size="14.00" fill="#000000">branch_name </text>
<text text-anchor="start" x="282.4726" y="-233.9" font-family="Arial" font-size="14.00" fill="#666666">[varchar(100)]</text>
<polygon fill="none" stroke="#000000" points="186,-192.5 186,-222.5 406,-222.5 406,-192.5 186,-192.5"/>
<text text-anchor="start" x="192.5764" y="-203.9" font-family="Arial" font-size="14.00" fill="#000000">build_type </text>
<text text-anchor="start" x="260.2664" y="-203.9" font-family="Arial" font-size="14.00" fill="#666666">[enum(&#39;image&#39;,&#39;static&#39;)]</text>
<polygon fill="none" stroke="#000000" points="186,-162.5 186,-192.5 406,-192.5 406,-162.5 186,-162.5"/>
<text text-anchor="start" x="193" y="-173.9" font-family="Arial" font-size="14.00" fill="#000000">state </text>
<text text-anchor="start" x="227.237" y="-173.9" font-family="Arial" font-size="14.00" fill="#666666">[varchar(10)]</text>
<polygon fill="none" stroke="#000000" points="186,-132.5 186,-162.5 406,-162.5 406,-132.5 186,-132.5"/>
<text text-anchor="start" x="193" y="-143.9" font-family="Arial" font-size="14.00" fill="#000000">current_commit </text>
<text text-anchor="start" x="293.3338" y="-143.9" font-family="Arial" font-size="14.00" fill="#666666">[char(40)]</text>
<polygon fill="none" stroke="#000000" points="186,-102.5 186,-132.5 406,-132.5 406,-102.5 186,-102.5"/>
<text text-anchor="start" x="193" y="-113.9" font-family="Arial" font-size="14.00" fill="#000000">want_commit </text>
<text text-anchor="start" x="279.3366" y="-113.9" font-family="Arial" font-size="14.00" fill="#666666">[char(40)]</text>
<polygon fill="none" stroke="#000000" points="186,-72.5 186,-102.5 406,-102.5 406,-72.5 186,-72.5"/>
<text text-anchor="start" x="193" y="-83.9" font-family="Arial" font-size="14.00" fill="#000000">created_at </text>
<text text-anchor="start" x="263.028" y="-83.9" font-family="Arial" font-size="14.00" fill="#666666">[datetime(6)]</text>
<polygon fill="none" stroke="#000000" points="186,-42.5 186,-72.5 406,-72.5 406,-42.5 186,-42.5"/>
<text text-anchor="start" x="193" y="-53.9" font-family="Arial" font-size="14.00" fill="#000000">updated_at </text>
<text text-anchor="start" x="266.9326" y="-53.9" font-family="Arial" font-size="14.00" fill="#666666">[datetime(6)]</text>
</g>
<!-- websites&#45;&gt;applications -->
<g id="edge1" class="edge">
<title>websites:application_id&#45;&gt;applications:id</title>
<path fill="none" stroke="#000000" d="M296.8781,-462.4471C305.8034,-415.4112 380.2873,-442.0519 406,-391 424.6927,-353.886 447.5556,-297.5 406,-297.5"/>
<polygon fill="#000000" stroke="#000000" points="296.8703,-462.5379 291.5171,-472.1084 296.4351,-467.519 296,-472.5 296,-472.5 296,-472.5 296.4351,-467.519 300.4829,-472.8916 296.8703,-462.5379 296.8703,-462.5379"/>
<text text-anchor="start" x="6.602" y="-482.5" font-family="Arial" font-size="10.00" fill="#000000">FOREIGN KEY (application_id) REFERENCES applications (id)</text>
</g>
</g>
</svg>
