<?xml version="1.0" encoding="UTF-8" standalone="no"?>
<!DOCTYPE svg PUBLIC "-//W3C//DTD SVG 1.1//EN"
 "http://www.w3.org/Graphics/SVG/1.1/DTD/svg11.dtd">
<!-- Generated by graphviz version 2.40.1 (20161225.0304)
 -->
<!-- Title: websites Pages: 1 -->
<svg width="428pt" height="682pt"
 viewBox="0.00 0.00 428.00 682.00" xmlns="http://www.w3.org/2000/svg" xmlns:xlink="http://www.w3.org/1999/xlink">
<g id="graph0" class="graph" transform="scale(1 1) rotate(0) translate(4 678)">
<title>websites</title>
<polygon fill="#ffffff" stroke="transparent" points="-4,4 -4,-678 424,-678 424,4 -4,4"/>
<!-- websites -->
<g id="node1" class="node">
<title>websites</title>
<polygon fill="#efefef" stroke="transparent" points="62,-592.5 62,-627.5 243,-627.5 243,-592.5 62,-592.5"/>
<polygon fill="none" stroke="#000000" points="62,-592.5 62,-627.5 243,-627.5 243,-592.5 62,-592.5"/>
<text text-anchor="start" x="68.8685" y="-605.3" font-family="Arial Bold" font-size="18.00" fill="#000000">websites</text>
<text text-anchor="start" x="138.8777" y="-605.3" font-family="Arial" font-size="14.00" fill="#000000"> </text>
<text text-anchor="start" x="142.7683" y="-605.3" font-family="Arial" font-size="14.00" fill="#666666">[BASE TABLE]</text>
<polygon fill="none" stroke="#000000" points="62,-562.5 62,-592.5 243,-592.5 243,-562.5 62,-562.5"/>
<text text-anchor="start" x="69" y="-573.9" font-family="Arial" font-size="14.00" fill="#000000">id </text>
<text text-anchor="start" x="83.7798" y="-573.9" font-family="Arial" font-size="14.00" fill="#666666">[varchar(22)]</text>
<polygon fill="none" stroke="#000000" points="62,-532.5 62,-562.5 243,-562.5 243,-532.5 62,-532.5"/>
<text text-anchor="start" x="69" y="-543.9" font-family="Arial" font-size="14.00" fill="#000000">fqdn </text>
<text text-anchor="start" x="100.129" y="-543.9" font-family="Arial" font-size="14.00" fill="#666666">[varchar(50)]</text>
<polygon fill="none" stroke="#000000" points="62,-502.5 62,-532.5 243,-532.5 243,-502.5 62,-502.5"/>
<text text-anchor="start" x="69" y="-513.9" font-family="Arial" font-size="14.00" fill="#000000">http_port </text>
<text text-anchor="start" x="128.136" y="-513.9" font-family="Arial" font-size="14.00" fill="#666666">[int(11)]</text>
<polygon fill="none" stroke="#000000" points="62,-472.5 62,-502.5 243,-502.5 243,-472.5 62,-472.5"/>
<text text-anchor="start" x="69" y="-483.9" font-family="Arial" font-size="14.00" fill="#000000">created_at </text>
<text text-anchor="start" x="139.028" y="-483.9" font-family="Arial" font-size="14.00" fill="#666666">[datetime(6)]</text>
<polygon fill="none" stroke="#000000" points="62,-442.5 62,-472.5 243,-472.5 243,-442.5 62,-442.5"/>
<text text-anchor="start" x="69" y="-453.9" font-family="Arial" font-size="14.00" fill="#000000">updated_at </text>
<text text-anchor="start" x="142.9326" y="-453.9" font-family="Arial" font-size="14.00" fill="#666666">[datetime(6)]</text>
<polygon fill="none" stroke="#000000" points="62,-412.5 62,-442.5 243,-442.5 243,-412.5 62,-412.5"/>
<text text-anchor="start" x="69" y="-423.9" font-family="Arial" font-size="14.00" fill="#000000">branch_id </text>
<text text-anchor="start" x="134.3534" y="-423.9" font-family="Arial" font-size="14.00" fill="#666666">[varchar(22)]</text>
<polygon fill="none" stroke="#000000" stroke-width="3" points="60,-411.5 60,-629.5 244,-629.5 244,-411.5 60,-411.5"/>
</g>
<!-- branches -->
<g id="node2" class="node">
<title>branches</title>
<polygon fill="#efefef" stroke="transparent" points="43,-252.5 43,-287.5 263,-287.5 263,-252.5 43,-252.5"/>
<polygon fill="none" stroke="#000000" points="43,-252.5 43,-287.5 263,-287.5 263,-252.5 43,-252.5"/>
<text text-anchor="start" x="67.3615" y="-265.3" font-family="Arial Bold" font-size="18.00" fill="#000000">branches</text>
<text text-anchor="start" x="141.3847" y="-265.3" font-family="Arial" font-size="14.00" fill="#000000"> </text>
<text text-anchor="start" x="145.2753" y="-265.3" font-family="Arial" font-size="14.00" fill="#666666">[BASE TABLE]</text>
<polygon fill="none" stroke="#000000" points="43,-222.5 43,-252.5 263,-252.5 263,-222.5 43,-222.5"/>
<text text-anchor="start" x="50" y="-233.9" font-family="Arial" font-size="14.00" fill="#000000">id </text>
<text text-anchor="start" x="64.7798" y="-233.9" font-family="Arial" font-size="14.00" fill="#666666">[varchar(22)]</text>
<polygon fill="none" stroke="#000000" points="43,-192.5 43,-222.5 263,-222.5 263,-192.5 43,-192.5"/>
<text text-anchor="start" x="50" y="-203.9" font-family="Arial" font-size="14.00" fill="#000000">application_id </text>
<text text-anchor="start" x="139.4684" y="-203.9" font-family="Arial" font-size="14.00" fill="#666666">[varchar(22)]</text>
<polygon fill="none" stroke="#000000" points="43,-162.5 43,-192.5 263,-192.5 263,-162.5 43,-162.5"/>
<text text-anchor="start" x="50" y="-173.9" font-family="Arial" font-size="14.00" fill="#000000">branch_name </text>
<text text-anchor="start" x="139.4726" y="-173.9" font-family="Arial" font-size="14.00" fill="#666666">[varchar(100)]</text>
<polygon fill="none" stroke="#000000" points="43,-132.5 43,-162.5 263,-162.5 263,-132.5 43,-132.5"/>
<text text-anchor="start" x="49.5764" y="-143.9" font-family="Arial" font-size="14.00" fill="#000000">build_type </text>
<text text-anchor="start" x="117.2664" y="-143.9" font-family="Arial" font-size="14.00" fill="#666666">[enum(&#39;image&#39;,&#39;static&#39;)]</text>
<polygon fill="none" stroke="#000000" points="43,-102.5 43,-132.5 263,-132.5 263,-102.5 43,-102.5"/>
<text text-anchor="start" x="50" y="-113.9" font-family="Arial" font-size="14.00" fill="#000000">created_at </text>
<text text-anchor="start" x="120.028" y="-113.9" font-family="Arial" font-size="14.00" fill="#666666">[datetime(6)]</text>
<polygon fill="none" stroke="#000000" points="43,-72.5 43,-102.5 263,-102.5 263,-72.5 43,-72.5"/>
<text text-anchor="start" x="50" y="-83.9" font-family="Arial" font-size="14.00" fill="#000000">updated_at </text>
<text text-anchor="start" x="123.9326" y="-83.9" font-family="Arial" font-size="14.00" fill="#666666">[datetime(6)]</text>
<polygon fill="none" stroke="#000000" points="43,-42.5 43,-72.5 263,-72.5 263,-42.5 43,-42.5"/>
<text text-anchor="start" x="50" y="-53.9" font-family="Arial" font-size="14.00" fill="#000000">build_id </text>
<text text-anchor="start" x="102.1234" y="-53.9" font-family="Arial" font-size="14.00" fill="#666666">[varchar(22)]</text>
</g>
<!-- websites&#45;&gt;branches -->
<g id="edge1" class="edge">
<title>websites:branch_id&#45;&gt;branches:id</title>
<path fill="none" stroke="#000000" d="M152.1219,-402.4471C143.1966,-355.4112 68.7127,-382.0519 43,-331 24.3073,-293.886 1.4444,-237.5 43,-237.5"/>
<polygon fill="#000000" stroke="#000000" points="152.1297,-402.5379 148.5171,-412.8916 152.5649,-407.519 153,-412.5 153,-412.5 153,-412.5 152.5649,-407.519 157.4829,-412.1084 152.1297,-402.5379 152.1297,-402.5379"/>
<text text-anchor="start" x="160.0475" y="-422.5" font-family="Arial" font-size="10.00" fill="#000000">FOREIGN KEY (branch_id) REFERENCES branches (id)</text>
</g>
</g>
</svg>
