<svg width="24" height="24" viewBox="0 0 24 24" fill="none" xmlns="http://www.w3.org/2000/svg">
<mask id="mask0_2456_2935" style="mask-type:alpha" maskUnits="userSpaceOnUse" x="0" y="0" width="24" height="24">
<rect width="24" height="24" fill="#D9D9D9"/>
</mask>
<g mask="url(#mask0_2456_2935)">
<path d="M11.0963 19.0884L4.64052 12.6326C4.54693 12.5391 4.48091 12.4403 4.44244 12.3365C4.40399 12.2327 4.38477 12.1205 4.38477 12C4.38477 11.8795 4.40399 11.7673 4.44244 11.6634C4.48091 11.5596 4.54693 11.4609 4.64052 11.3673L11.1059 4.90193C11.2444 4.76346 11.4142 4.69166 11.6155 4.68652C11.8168 4.68141 11.995 4.75641 12.1501 4.91152C12.3052 5.05639 12.3854 5.22947 12.3905 5.43075C12.3956 5.63202 12.3206 5.81022 12.1655 5.96535L6.88084 11.25H18.4886C18.7014 11.25 18.8796 11.3218 19.0232 11.4654C19.1667 11.609 19.2385 11.7872 19.2385 12C19.2385 12.2128 19.1667 12.391 19.0232 12.5346C18.8796 12.6782 18.7014 12.7499 18.4886 12.7499H6.88084L12.1751 18.0442C12.3136 18.1827 12.3854 18.3551 12.3905 18.5615C12.3956 18.7679 12.3206 18.9436 12.1655 19.0884C12.0206 19.2435 11.845 19.3211 11.6386 19.3211C11.4322 19.3211 11.2514 19.2435 11.0963 19.0884Z" fill="currentColor"/>
</g>
</svg>
