<svg width="24" height="24" viewBox="0 0 24 24" fill="none" xmlns="http://www.w3.org/2000/svg">
<mask id="mask0_2456_2941" style="mask-type:alpha" maskUnits="userSpaceOnUse" x="0" y="0" width="24" height="24">
<rect width="24" height="24" fill="#D9D9D9"/>
</mask>
<g mask="url(#mask0_2456_2941)">
<path d="M11.3769 14.0211L9.14237 11.7865C8.85776 11.5019 8.79333 11.1747 8.9491 10.8048C9.10487 10.4349 9.38531 10.25 9.79042 10.25H14.2288C14.634 10.25 14.9144 10.4349 15.0702 10.8048C15.2259 11.1747 15.1615 11.5019 14.8769 11.7865L12.6423 14.0211C12.5487 14.1147 12.45 14.1833 12.3462 14.2269C12.2423 14.2705 12.1301 14.2923 12.0096 14.2923C11.8891 14.2923 11.7769 14.2705 11.6731 14.2269C11.5693 14.1833 11.4705 14.1147 11.3769 14.0211Z" fill="currentColor"/>
</g>
</svg>
