<svg width="24" height="24" viewBox="0 0 24 24" fill="none" xmlns="http://www.w3.org/2000/svg">
<mask id="mask0_2456_2944" style="mask-type:alpha" maskUnits="userSpaceOnUse" x="0" y="0" width="24" height="24">
<rect width="24" height="24" fill="#D9D9D9"/>
</mask>
<g mask="url(#mask0_2456_2944)">
<path d="M9.79042 13.75C9.38531 13.75 9.10487 13.5651 8.9491 13.1952C8.79333 12.8253 8.85776 12.4981 9.14237 12.2135L11.3769 9.97891C11.4705 9.88531 11.5693 9.81672 11.6731 9.77314C11.7769 9.72956 11.8891 9.70776 12.0096 9.70776C12.1301 9.70776 12.2423 9.72956 12.3462 9.77314C12.45 9.81672 12.5487 9.88531 12.6423 9.97891L14.8769 12.2135C15.1615 12.4981 15.2259 12.8253 15.0702 13.1952C14.9144 13.5651 14.634 13.75 14.2288 13.75H9.79042Z" fill="currentColor"/>
</g>
</svg>
