<svg width="24" height="24" viewBox="0 0 24 24" fill="none" xmlns="http://www.w3.org/2000/svg">
<mask id="mask0_2456_2936" style="mask-type:alpha" maskUnits="userSpaceOnUse" x="0" y="0" width="24" height="24">
<rect width="24" height="24" fill="#D9D9D9"/>
</mask>
<g mask="url(#mask0_2456_2936)">
<path d="M11.4732 19.0885C11.3283 18.9437 11.2533 18.768 11.2482 18.5616C11.2431 18.3552 11.3129 18.1796 11.4578 18.0347L16.7425 12.7501H5.13474C4.92192 12.7501 4.74372 12.6783 4.60014 12.5347C4.45656 12.3911 4.38477 12.2129 4.38477 12.0001C4.38477 11.7873 4.45656 11.6091 4.60014 11.4655C4.74372 11.3219 4.92192 11.2501 5.13474 11.2501H16.7425L11.4578 5.96546C11.3129 5.82059 11.2431 5.64496 11.2482 5.43856C11.2533 5.23214 11.3283 5.0565 11.4732 4.91163C11.6181 4.76677 11.7937 4.69434 12.0001 4.69434C12.2065 4.69434 12.3821 4.76677 12.527 4.91163L18.9828 11.3674C19.0764 11.4507 19.1424 11.5469 19.1809 11.6559C19.2193 11.7648 19.2385 11.8796 19.2385 12.0001C19.2385 12.1142 19.2193 12.2248 19.1809 12.3318C19.1424 12.4389 19.0764 12.5392 18.9828 12.6328L12.527 19.0885C12.3821 19.2334 12.2065 19.3058 12.0001 19.3058C11.7937 19.3058 11.6181 19.2334 11.4732 19.0885Z" fill="currentColor"/>
</g>
</svg>
