<svg width="24" height="24" viewBox="0 0 24 24" fill="none" xmlns="http://www.w3.org/2000/svg">
<mask id="mask0_2456_2940" style="mask-type:alpha" maskUnits="userSpaceOnUse" x="0" y="0" width="24" height="24">
<rect width="24" height="24" fill="#D9D9D9"/>
</mask>
<g mask="url(#mask0_2456_2940)">
<path d="M2.50014 9.48069V5.53839C2.50014 5.03327 2.67514 4.60571 3.02514 4.25571C3.37514 3.90571 3.80271 3.73071 4.30784 3.73071H19.6924C20.1975 3.73071 20.6251 3.90571 20.9751 4.25571C21.3251 4.60571 21.5001 5.03327 21.5001 5.53839V9.48069H20.0001V5.53839C20.0001 5.46145 19.9681 5.39094 19.904 5.32684C19.8398 5.26272 19.7693 5.23066 19.6924 5.23066H4.30784C4.23091 5.23066 4.16038 5.26272 4.09627 5.32684C4.03217 5.39094 4.00012 5.46145 4.00012 5.53839V9.48069H2.50014ZM4.30784 17.7306C3.80271 17.7306 3.37514 17.5556 3.02514 17.2056C2.67514 16.8556 2.50014 16.4281 2.50014 15.923V10.9807H4.00012V15.923C4.00012 15.9999 4.03217 16.0704 4.09627 16.1345C4.16038 16.1986 4.23091 16.2307 4.30784 16.2307H19.6924C19.7693 16.2307 19.8398 16.1986 19.904 16.1345C19.9681 16.0704 20.0001 15.9999 20.0001 15.923V10.9807H21.5001V15.923C21.5001 16.4281 21.3251 16.8556 20.9751 17.2056C20.6251 17.5556 20.1975 17.7306 19.6924 17.7306H4.30784ZM2.13474 20.2306C1.92192 20.2306 1.74372 20.1588 1.60014 20.0152C1.45656 19.8716 1.38477 19.6934 1.38477 19.4806C1.38477 19.2678 1.45655 19.0896 1.60012 18.946C1.7437 18.8024 1.9219 18.7306 2.13472 18.7306H21.8655C22.0783 18.7306 22.2565 18.8024 22.4001 18.946C22.5436 19.0896 22.6154 19.2678 22.6154 19.4806C22.6154 19.6934 22.5436 19.8716 22.4001 20.0152C22.2565 20.1588 22.0783 20.2306 21.8655 20.2306H2.13474ZM2.50014 10.9807V9.48069H8.00012C8.13857 9.48069 8.27029 9.51787 8.39529 9.59224C8.52029 9.66659 8.61484 9.76786 8.67894 9.89606L10.0751 12.673L13.3521 6.86529C13.4162 6.74736 13.5056 6.65698 13.6203 6.59416C13.7351 6.53133 13.8617 6.49991 14.0001 6.49991C14.1386 6.49991 14.2703 6.53133 14.3953 6.59416C14.5203 6.65698 14.6148 6.75761 14.6789 6.89606L15.9713 9.48069H21.5001V10.9807H15.5963C15.4322 10.9807 15.2748 10.938 15.1242 10.8528C14.9735 10.7675 14.8597 10.6428 14.7828 10.4787L13.9501 8.80756L10.6636 14.596C10.5995 14.7243 10.5049 14.8204 10.3799 14.8845C10.2549 14.9486 10.1232 14.9807 9.98474 14.9807C9.84627 14.9807 9.71711 14.9435 9.59724 14.8691C9.47738 14.7948 9.38539 14.6935 9.32129 14.5653L7.52897 10.9807H2.50014Z" fill="currentColor"/>
</g>
</svg>
