<svg width="24" height="24" viewBox="0 0 24 24" fill="none" xmlns="http://www.w3.org/2000/svg">
<mask id="mask0_2731_7646" style="mask-type:alpha" maskUnits="userSpaceOnUse" x="0" y="0" width="24" height="24">
<rect width="24" height="24" fill="#D9D9D9"/>
</mask>
<g mask="url(#mask0_2731_7646)">
<path d="M4.99997 20.75C4.78747 20.75 4.60936 20.6781 4.46563 20.5343C4.32188 20.3906 4.25 20.2125 4.25 20V18.9423H3.9846C3.77112 18.9423 3.59532 18.8732 3.4572 18.7351C3.31907 18.597 3.25 18.4212 3.25 18.2077V15.1923C3.25 14.9798 3.32188 14.8017 3.46563 14.6579C3.60936 14.5142 3.78747 14.4423 3.99997 14.4423H5.25V6.99998C5.25 5.96408 5.61602 5.08011 6.34807 4.34808C7.08011 3.61603 7.96408 3.25 8.99998 3.25C10.0359 3.25 10.9198 3.61603 11.6519 4.34808C12.3839 5.08011 12.75 5.96408 12.75 6.99998V17C12.75 17.6269 12.9682 18.1586 13.4048 18.5952C13.8413 19.0317 14.373 19.25 15 19.25C15.6269 19.25 16.1586 19.0317 16.5952 18.5952C17.0317 18.1586 17.25 17.6269 17.25 17V9.55763H16C15.7875 9.55763 15.6094 9.48576 15.4656 9.34203C15.3219 9.19828 15.25 9.02015 15.25 8.80765V5.79228C15.25 5.57879 15.3191 5.40299 15.4572 5.26488C15.5953 5.12674 15.7711 5.05768 15.9846 5.05768H16.25V3.99998C16.25 3.78748 16.3219 3.60935 16.4656 3.4656C16.6094 3.32187 16.7875 3.25 17 3.25H19C19.2125 3.25 19.3906 3.32187 19.5344 3.4656C19.6781 3.60935 19.75 3.78748 19.75 3.99998V5.05768H20.0154C20.2288 5.05768 20.4046 5.12674 20.5428 5.26488C20.6809 5.40299 20.75 5.57879 20.75 5.79228V8.80765C20.75 9.02015 20.6781 9.19828 20.5344 9.34203C20.3906 9.48576 20.2125 9.55763 20 9.55763H18.75V17C18.75 18.0359 18.3839 18.9198 17.6519 19.6519C16.9198 20.3839 16.0359 20.75 15 20.75C13.9641 20.75 13.0801 20.3839 12.3481 19.6519C11.616 18.9198 11.25 18.0359 11.25 17V6.99998C11.25 6.37304 11.0317 5.84131 10.5952 5.40478C10.1586 4.96823 9.62691 4.74995 8.99998 4.74995C8.37304 4.74995 7.84131 4.96823 7.40477 5.40478C6.96822 5.84131 6.74995 6.37304 6.74995 6.99998V14.4423H7.99998C8.21248 14.4423 8.39059 14.5142 8.53433 14.6579C8.67808 14.8017 8.74995 14.9798 8.74995 15.1923V18.2077C8.74995 18.4212 8.68088 18.597 8.54275 18.7351C8.40463 18.8732 8.22883 18.9423 8.01535 18.9423H7.74995V20C7.74995 20.2125 7.67808 20.3906 7.53433 20.5343C7.39059 20.6781 7.21248 20.75 6.99998 20.75H4.99997Z" fill="currentColor"/>
</g>
</svg>
