<svg width="24" height="24" viewBox="0 0 24 24" fill="none" xmlns="http://www.w3.org/2000/svg">
<mask id="mask0_2494_13675" style="mask-type:alpha" maskUnits="userSpaceOnUse" x="0" y="0" width="24" height="24">
<rect width="24" height="24" fill="#D9D9D9"/>
</mask>
<g mask="url(#mask0_2494_13675)">
<path d="M12 13.0538L6.92689 18.1269C6.78844 18.2654 6.6144 18.3362 6.40479 18.3394C6.19519 18.3426 6.01795 18.2718 5.87309 18.1269C5.7282 17.982 5.65576 17.8064 5.65576 17.6C5.65576 17.3936 5.7282 17.218 5.87309 17.0731L10.9462 12L5.87309 6.92689C5.73462 6.78844 5.66379 6.6144 5.66059 6.40479C5.65737 6.19519 5.7282 6.01795 5.87309 5.87309C6.01795 5.7282 6.19359 5.65576 6.39999 5.65576C6.60639 5.65576 6.78202 5.7282 6.92689 5.87309L12 10.9462L17.0731 5.87309C17.2115 5.73462 17.3856 5.66379 17.5952 5.66059C17.8048 5.65737 17.982 5.7282 18.1269 5.87309C18.2718 6.01795 18.3442 6.19359 18.3442 6.39999C18.3442 6.60639 18.2718 6.78202 18.1269 6.92689L13.0538 12L18.1269 17.0731C18.2654 17.2115 18.3362 17.3856 18.3394 17.5952C18.3426 17.8048 18.2718 17.982 18.1269 18.1269C17.982 18.2718 17.8064 18.3442 17.6 18.3442C17.3936 18.3442 17.218 18.2718 17.0731 18.1269L12 13.0538Z" fill="currentColor"/>
</g>
</svg>
