<svg width="24" height="24" viewBox="0 0 24 24" fill="none" xmlns="http://www.w3.org/2000/svg">
<mask id="mask0_2494_8265" style="mask-type:alpha" maskUnits="userSpaceOnUse" x="0" y="0" width="24" height="24">
<rect width="24" height="24" fill="#D9D9D9"/>
</mask>
<g mask="url(#mask0_2494_8265)">
<path d="M19 20.75C18.3756 20.75 17.8195 20.5625 17.3317 20.1875C16.8439 19.8125 16.5224 19.3333 16.3673 18.75H11C9.96408 18.75 9.08011 18.3839 8.34808 17.6519C7.61603 16.9198 7.25 16.0359 7.25 15C7.25 13.9641 7.61603 13.0801 8.34808 12.3481C9.08011 11.616 9.96408 11.25 11 11.25H13C13.6187 11.25 14.1484 11.0295 14.5891 10.5885C15.0297 10.1475 15.25 9.61737 15.25 8.9981C15.25 8.37883 15.0297 7.84933 14.5891 7.40958C14.1484 6.96983 13.6187 6.74995 13 6.74995H7.63265C7.46727 7.33328 7.14323 7.81245 6.66055 8.18745C6.17785 8.56245 5.62433 8.74995 4.99998 8.74995C4.23609 8.74995 3.58679 8.4827 3.05208 7.9482C2.51736 7.4137 2.25 6.76467 2.25 6.0011C2.25 5.23753 2.51736 4.58813 3.05208 4.05288C3.58679 3.51763 4.23609 3.25 4.99998 3.25C5.62433 3.25 6.17785 3.4375 6.66055 3.8125C7.14323 4.1875 7.46727 4.66667 7.63265 5.25H13C14.0359 5.25 14.9198 5.61603 15.6519 6.34808C16.3839 7.08011 16.75 7.96408 16.75 8.99998C16.75 10.0359 16.3839 10.9198 15.6519 11.6519C14.9198 12.3839 14.0359 12.75 13 12.75H11C10.3812 12.75 9.85153 12.9705 9.4109 13.4115C8.97027 13.8525 8.74995 14.3826 8.74995 15.0019C8.74995 15.6211 8.97027 16.1506 9.4109 16.5904C9.85153 17.0301 10.3812 17.25 11 17.25H16.3673C16.5327 16.6667 16.8567 16.1875 17.3394 15.8125C17.8221 15.4375 18.3756 15.25 19 15.25C19.7639 15.25 20.4132 15.5173 20.9479 16.0518C21.4826 16.5863 21.75 17.2353 21.75 17.9989C21.75 18.7624 21.4826 19.4118 20.9479 19.9471C20.4132 20.4823 19.7639 20.75 19 20.75ZM4.99998 7.25C5.34741 7.25 5.64261 7.12853 5.88558 6.88558C6.12853 6.64261 6.25 6.34741 6.25 5.99998C6.25 5.65254 6.12853 5.35734 5.88558 5.11438C5.64261 4.87143 5.34741 4.74995 4.99998 4.74995C4.65254 4.74995 4.35734 4.87143 4.11438 5.11438C3.87143 5.35734 3.74995 5.65254 3.74995 5.99998C3.74995 6.34741 3.87143 6.64261 4.11438 6.88558C4.35734 7.12853 4.65254 7.25 4.99998 7.25Z" fill="currentColor"/>
</g>
</svg>
