<svg width="24" height="24" viewBox="0 0 24 24" fill="none" xmlns="http://www.w3.org/2000/svg">
<mask id="mask0_2456_2939" style="mask-type:alpha" maskUnits="userSpaceOnUse" x="0" y="0" width="24" height="24">
<rect width="24" height="24" fill="#D9D9D9"/>
</mask>
<g mask="url(#mask0_2456_2939)">
<path d="M11.25 19.5692V12.4307L4.99997 8.8115V15.7769C4.99997 15.8282 5.0128 15.8763 5.03845 15.9211C5.06408 15.966 5.10254 16.0045 5.15383 16.0365L11.25 19.5692ZM12.75 19.5692L18.8461 16.0365C18.8974 16.0045 18.9359 15.966 18.9615 15.9211C18.9872 15.8763 19 15.8282 19 15.7769V8.8115L12.75 12.4307V19.5692ZM12 11.1384L18.175 7.56922L12.1538 4.08652C12.1025 4.05447 12.0513 4.03845 12 4.03845C11.9487 4.03845 11.8974 4.05447 11.8461 4.08652L5.82495 7.56922L12 11.1384ZM4.40385 17.3538C4.11923 17.1897 3.89744 16.9705 3.73847 16.6961C3.57949 16.4217 3.5 16.1205 3.5 15.7923V8.20767C3.5 7.87947 3.57949 7.5782 3.73847 7.30385C3.89744 7.02948 4.11923 6.81025 4.40385 6.64615L11.0961 2.79425C11.3807 2.63015 11.682 2.5481 12 2.5481C12.3179 2.5481 12.6192 2.63015 12.9038 2.79425L19.5961 6.64615C19.8807 6.81025 20.1025 7.02948 20.2615 7.30385C20.4205 7.5782 20.5 7.87947 20.5 8.20767V15.7923C20.5 16.1205 20.4205 16.4217 20.2615 16.6961C20.1025 16.9705 19.8807 17.1897 19.5961 17.3538L12.9038 21.2057C12.6192 21.3698 12.3179 21.4518 12 21.4518C11.682 21.4518 11.3807 21.3698 11.0961 21.2057L4.40385 17.3538Z" fill="currentColor"/>
</g>
</svg>
