<svg width="24" height="24" viewBox="0 0 24 24" fill="none" xmlns="http://www.w3.org/2000/svg">
<mask id="mask0_2714_4915" style="mask-type:alpha" maskUnits="userSpaceOnUse" x="0" y="0" width="24" height="24">
<rect width="24" height="24" fill="#D9D9D9"/>
</mask>
<g mask="url(#mask0_2714_4915)">
<path d="M4.42315 20.5C3.91804 20.5 3.49048 20.325 3.14048 19.975C2.79048 19.625 2.61548 19.1974 2.61548 18.6923V5.3077C2.61548 4.80257 2.79048 4.375 3.14048 4.025C3.49048 3.675 3.91804 3.5 4.42315 3.5H17.8077C18.3129 3.5 18.7404 3.675 19.0904 4.025C19.4404 4.375 19.6154 4.80257 19.6154 5.3077V7.38463H20.6347C20.8471 7.38463 21.0253 7.45653 21.169 7.60033C21.3128 7.74414 21.3846 7.92234 21.3846 8.13493C21.3846 8.34753 21.3128 8.52562 21.169 8.6692C21.0253 8.81278 20.8471 8.88458 20.6347 8.88458H19.6154V11.25H20.6347C20.8471 11.25 21.0253 11.3219 21.169 11.4657C21.3128 11.6095 21.3846 11.7877 21.3846 12.0003C21.3846 12.2129 21.3128 12.391 21.169 12.5346C21.0253 12.6782 20.8471 12.75 20.6347 12.75H19.6154V15.1154H20.6347C20.8471 15.1154 21.0253 15.1873 21.169 15.3311C21.3128 15.4749 21.3846 15.6531 21.3846 15.8657C21.3846 16.0783 21.3128 16.2564 21.169 16.4C21.0253 16.5435 20.8471 16.6153 20.6347 16.6153H19.6154V18.6923C19.6154 19.1974 19.4404 19.625 19.0904 19.975C18.7404 20.325 18.3129 20.5 17.8077 20.5H4.42315ZM4.42315 19H17.8077C17.8847 19 17.9552 18.9679 18.0193 18.9038C18.0834 18.8397 18.1155 18.7692 18.1155 18.6923V5.3077C18.1155 5.23077 18.0834 5.16024 18.0193 5.09613C17.9552 5.03203 17.8847 4.99998 17.8077 4.99998H4.42315C4.34624 4.99998 4.27572 5.03203 4.2116 5.09613C4.1475 5.16024 4.11545 5.23077 4.11545 5.3077V18.6923C4.11545 18.7692 4.1475 18.8397 4.2116 18.9038C4.27572 18.9679 4.34624 19 4.42315 19ZM7.40448 16.6153H10.1176C10.3739 16.6153 10.5882 16.5287 10.7606 16.3555C10.9331 16.1822 11.0193 15.9676 11.0193 15.7115V14C11.0193 13.7439 10.9326 13.5292 10.7593 13.356C10.5859 13.1828 10.3712 13.0961 10.1149 13.0961H7.40175C7.14552 13.0961 6.93119 13.1828 6.75875 13.356C6.5863 13.5292 6.50008 13.7439 6.50008 14V15.7115C6.50008 15.9676 6.58675 16.1822 6.7601 16.3555C6.93344 16.5287 7.14823 16.6153 7.40448 16.6153ZM13.1155 9.90383H14.827C15.0831 9.90383 15.2977 9.8172 15.471 9.64395C15.6442 9.47072 15.7308 9.25606 15.7308 8.99998V8.28845C15.7308 8.03237 15.6442 7.81771 15.471 7.64448C15.2977 7.47124 15.0831 7.38463 14.827 7.38463H13.1155C12.8594 7.38463 12.6447 7.47124 12.4715 7.64448C12.2982 7.81771 12.2116 8.03237 12.2116 8.28845V8.99998C12.2116 9.25606 12.2982 9.47072 12.4715 9.64395C12.6447 9.8172 12.8594 9.90383 13.1155 9.90383ZM7.40448 11.9038H10.1176C10.3739 11.9038 10.5882 11.8172 10.7606 11.6438C10.9331 11.4705 11.0193 11.2557 11.0193 10.9994V8.28628C11.0193 8.03004 10.9326 7.81571 10.7593 7.64328C10.5859 7.47084 10.3712 7.38463 10.1149 7.38463H7.40175C7.14552 7.38463 6.93119 7.47129 6.75875 7.64463C6.5863 7.81798 6.50008 8.03277 6.50008 8.289V11.0022C6.50008 11.2584 6.58675 11.4727 6.7601 11.6452C6.93344 11.8176 7.14823 11.9038 7.40448 11.9038ZM13.1155 16.6153H14.827C15.0831 16.6153 15.2977 16.5287 15.471 16.3555C15.6442 16.1822 15.7308 15.9676 15.7308 15.7115V12C15.7308 11.7439 15.6442 11.5292 15.471 11.356C15.2977 11.1828 15.0831 11.0961 14.827 11.0961H13.1155C12.8594 11.0961 12.6447 11.1828 12.4715 11.356C12.2982 11.5292 12.2116 11.7439 12.2116 12V15.7115C12.2116 15.9676 12.2982 16.1822 12.4715 16.3555C12.6447 16.5287 12.8594 16.6153 13.1155 16.6153Z" fill="currentColor"/>
</g>
</svg>
