<svg width="24" height="24" viewBox="0 0 24 24" fill="none" xmlns="http://www.w3.org/2000/svg">
<mask id="mask0_2456_2943" style="mask-type:alpha" maskUnits="userSpaceOnUse" x="0" y="0" width="24" height="24">
<rect width="24" height="24" fill="#D9D9D9"/>
</mask>
<g mask="url(#mask0_2456_2943)">
<path d="M6.87309 14.5116C6.7282 14.3667 6.65576 14.1911 6.65576 13.9847C6.65576 13.7782 6.7282 13.6026 6.87309 13.4577L11.3673 8.96351C11.4609 8.86993 11.5596 8.80391 11.6635 8.76544C11.7673 8.72699 11.8795 8.70776 12 8.70776C12.1205 8.70776 12.2327 8.72699 12.3365 8.76544C12.4404 8.80391 12.5391 8.86993 12.6327 8.96351L17.1519 13.4827C17.2904 13.6212 17.3596 13.7885 17.3596 13.9847C17.3596 14.1808 17.282 14.3564 17.1269 14.5116C16.982 14.6564 16.8064 14.7289 16.6 14.7289C16.3936 14.7289 16.218 14.6564 16.0731 14.5116L12 10.4385L7.90189 14.5366C7.76344 14.675 7.59614 14.7443 7.39999 14.7443C7.20384 14.7443 7.0282 14.6667 6.87309 14.5116Z" fill="currentColor"/>
</g>
</svg>
