<svg width="24" height="24" viewBox="0 0 24 24" fill="none" xmlns="http://www.w3.org/2000/svg">
<mask id="mask0_2456_2945" style="mask-type:alpha" maskUnits="userSpaceOnUse" x="0" y="0" width="24" height="24">
<rect width="24" height="24" fill="#D9D9D9"/>
</mask>
<g mask="url(#mask0_2456_2945)">
<path d="M12 19.4962L16.0577 15.4577C16.2064 15.309 16.3804 15.233 16.5798 15.2298C16.7791 15.2266 16.9564 15.3026 17.1115 15.4577C17.2666 15.6128 17.3442 15.791 17.3442 15.9923C17.3442 16.1936 17.2666 16.3718 17.1115 16.5269L13.0788 20.575C12.7852 20.8686 12.4256 21.0154 12 21.0154C11.5743 21.0154 11.2147 20.8686 10.9211 20.575L6.87307 16.5269C6.72435 16.3782 6.65095 16.2016 6.65287 15.9971C6.65479 15.7926 6.73331 15.6128 6.88844 15.4577C7.04356 15.3026 7.22176 15.2266 7.42304 15.2298C7.62433 15.233 7.80253 15.309 7.95764 15.4577L12 19.4962ZM12 4.50382L7.95764 8.52689C7.80893 8.67561 7.63489 8.74901 7.43554 8.74709C7.23619 8.74518 7.05895 8.67178 6.90382 8.52689C6.7487 8.37178 6.66858 8.19358 6.66344 7.99229C6.65831 7.79103 6.73331 7.61283 6.88844 7.45769L10.9211 3.42499C11.2147 3.13141 11.5743 2.98462 12 2.98462C12.4256 2.98462 12.7852 3.13141 13.0788 3.42499L17.1115 7.45769C17.2602 7.60641 17.3336 7.78301 17.3317 7.98749C17.3298 8.19198 17.2512 8.37178 17.0961 8.52689C16.941 8.67178 16.7653 8.74518 16.5692 8.74709C16.373 8.74901 16.1974 8.67561 16.0423 8.52689L12 4.50382Z" fill="currentColor"/>
</g>
</svg>
