<svg width="24" height="24" viewBox="0 0 24 24" fill="none" xmlns="http://www.w3.org/2000/svg">
<mask id="mask0_2456_2942" style="mask-type:alpha" maskUnits="userSpaceOnUse" x="0" y="0" width="24" height="24">
<rect width="24" height="24" fill="#D9D9D9"/>
</mask>
<g mask="url(#mask0_2456_2942)">
<path d="M12.0001 14.6614C11.886 14.6614 11.7754 14.6422 11.6684 14.6037C11.5613 14.5652 11.461 14.4992 11.3674 14.4056L6.85781 9.89604C6.71295 9.75117 6.64308 9.5781 6.64821 9.37681C6.65333 9.17553 6.72833 9.00245 6.87321 8.85759C7.01808 8.71272 7.19371 8.64029 7.40011 8.64029C7.60651 8.64029 7.78215 8.71272 7.92701 8.85759L12.0001 12.9307L16.0886 8.84221C16.2335 8.69734 16.4065 8.62747 16.6078 8.63259C16.8091 8.63772 16.9821 8.71272 17.127 8.85759C17.2719 9.00245 17.3443 9.1781 17.3443 9.38451C17.3443 9.59091 17.2719 9.76654 17.127 9.91141L12.6328 14.4056C12.5392 14.4992 12.4405 14.5652 12.3366 14.6037C12.2328 14.6422 12.1206 14.6614 12.0001 14.6614Z" fill="currentColor"/>
</g>
</svg>
