<svg width="24" height="24" viewBox="0 0 24 24" fill="none" xmlns="http://www.w3.org/2000/svg">
<mask id="mask0_2640_7173" style="mask-type:alpha" maskUnits="userSpaceOnUse" x="0" y="0" width="24" height="24">
<rect width="24" height="24" fill="#D9D9D9"/>
</mask>
<g mask="url(#mask0_2640_7173)">
<path d="M10.0577 18.7501C9.84518 18.7501 9.66705 18.6782 9.5233 18.5344C9.37957 18.3906 9.3077 18.2124 9.3077 17.9998C9.3077 17.7872 9.37957 17.6091 9.5233 17.4655C9.66705 17.3219 9.84518 17.2501 10.0577 17.2501H19.75C19.9625 17.2501 20.1406 17.322 20.2843 17.4658C20.4281 17.6096 20.5 17.7878 20.5 18.0004C20.5 18.213 20.4281 18.3911 20.2843 18.5347C20.1406 18.6783 19.9625 18.7501 19.75 18.7501H10.0577ZM10.0577 12.7501C9.84518 12.7501 9.66705 12.6782 9.5233 12.5344C9.37957 12.3906 9.3077 12.2124 9.3077 11.9998C9.3077 11.7872 9.37957 11.6091 9.5233 11.4655C9.66705 11.3219 9.84518 11.2501 10.0577 11.2501H19.75C19.9625 11.2501 20.1406 11.322 20.2843 11.4658C20.4281 11.6096 20.5 11.7878 20.5 12.0004C20.5 12.213 20.4281 12.3911 20.2843 12.5347C20.1406 12.6783 19.9625 12.7501 19.75 12.7501H10.0577ZM10.0577 6.75007C9.84518 6.75007 9.66705 6.67817 9.5233 6.53437C9.37957 6.39055 9.3077 6.21235 9.3077 5.99977C9.3077 5.78717 9.37957 5.60908 9.5233 5.4655C9.66705 5.32191 9.84518 5.25012 10.0577 5.25012H19.75C19.9625 5.25012 20.1406 5.32202 20.2843 5.46582C20.4281 5.60964 20.5 5.78784 20.5 6.00042C20.5 6.21302 20.4281 6.39111 20.2843 6.53469C20.1406 6.67828 19.9625 6.75007 19.75 6.75007H10.0577ZM5.16345 19.6635C4.706 19.6635 4.3144 19.5006 3.98865 19.1749C3.66288 18.8491 3.5 18.4575 3.5 18.0001C3.5 17.5426 3.66288 17.151 3.98865 16.8253C4.3144 16.4995 4.706 16.3367 5.16345 16.3367C5.6209 16.3367 6.0125 16.4995 6.33825 16.8253C6.664 17.151 6.82687 17.5426 6.82687 18.0001C6.82687 18.4575 6.664 18.8491 6.33825 19.1749C6.0125 19.5006 5.6209 19.6635 5.16345 19.6635ZM5.16345 13.6635C4.706 13.6635 4.3144 13.5006 3.98865 13.1749C3.66288 12.8491 3.5 12.4575 3.5 12.0001C3.5 11.5426 3.66288 11.151 3.98865 10.8253C4.3144 10.4995 4.706 10.3367 5.16345 10.3367C5.6209 10.3367 6.0125 10.4995 6.33825 10.8253C6.664 11.151 6.82687 11.5426 6.82687 12.0001C6.82687 12.4575 6.664 12.8491 6.33825 13.1749C6.0125 13.5006 5.6209 13.6635 5.16345 13.6635ZM5.16345 7.66352C4.706 7.66352 4.3144 7.50064 3.98865 7.17489C3.66288 6.84914 3.5 6.45754 3.5 6.00009C3.5 5.54264 3.66288 5.15104 3.98865 4.82529C4.3144 4.49954 4.706 4.33667 5.16345 4.33667C5.6209 4.33667 6.0125 4.49954 6.33825 4.82529C6.664 5.15104 6.82687 5.54264 6.82687 6.00009C6.82687 6.45754 6.664 6.84914 6.33825 7.17489C6.0125 7.50064 5.6209 7.66352 5.16345 7.66352Z" fill="currentColor"/>
</g>
</svg>
