<svg width="24" height="24" viewBox="0 0 24 24" fill="none" xmlns="http://www.w3.org/2000/svg">
<mask id="mask0_2470_3457" style="mask-type:alpha" maskUnits="userSpaceOnUse" x="0" y="0" width="24" height="24">
<rect width="24" height="24" fill="#D9D9D9"/>
</mask>
<g mask="url(#mask0_2470_3457)">
<path d="M11.989 17.6153C12.2745 17.6153 12.5157 17.5168 12.7125 17.3196C12.9093 17.1225 13.0077 16.8811 13.0077 16.5956C13.0077 16.31 12.9091 16.0689 12.7119 15.8721C12.5148 15.6753 12.2734 15.5769 11.9879 15.5769C11.7024 15.5769 11.4612 15.6755 11.2644 15.8726C11.0676 16.0698 10.9692 16.3111 10.9692 16.5967C10.9692 16.8822 11.0678 17.1234 11.265 17.3202C11.4621 17.5169 11.7034 17.6153 11.989 17.6153ZM12.0016 21.5C10.6877 21.5 9.45268 21.2506 8.29655 20.752C7.1404 20.2533 6.13472 19.5765 5.2795 18.7217C4.42427 17.8669 3.74721 16.8616 3.24833 15.706C2.74944 14.5504 2.5 13.3156 2.5 12.0017C2.5 10.6877 2.74933 9.45268 3.248 8.29655C3.74667 7.1404 4.42342 6.13472 5.27825 5.2795C6.1331 4.42427 7.13834 3.74721 8.29398 3.24833C9.44959 2.74944 10.6844 2.5 11.9983 2.5C13.3122 2.5 14.5473 2.74933 15.7034 3.248C16.8596 3.74667 17.8652 4.42342 18.7205 5.27825C19.5757 6.1331 20.2527 7.13834 20.7516 8.29398C21.2505 9.44959 21.5 10.6844 21.5 11.9983C21.5 13.3122 21.2506 14.5473 20.752 15.7034C20.2533 16.8596 19.5765 17.8652 18.7217 18.7205C17.8669 19.5757 16.8616 20.2527 15.706 20.7516C14.5504 21.2505 13.3156 21.5 12.0016 21.5ZM12 20C14.2333 20 16.125 19.225 17.675 17.675C19.225 16.125 20 14.2333 20 12C20 9.76664 19.225 7.87498 17.675 6.32498C16.125 4.77498 14.2333 3.99998 12 3.99998C9.76664 3.99998 7.87498 4.77498 6.32498 6.32498C4.77498 7.87498 3.99998 9.76664 3.99998 12C3.99998 14.2333 4.77498 16.125 6.32498 17.675C7.87498 19.225 9.76664 20 12 20ZM12.081 7.7192C12.5424 7.7192 12.9416 7.86444 13.2788 8.15493C13.616 8.44541 13.7846 8.80851 13.7846 9.24423C13.7846 9.61089 13.6769 9.93909 13.4615 10.2288C13.2461 10.5186 13 10.7885 12.7231 11.0385C12.3601 11.3605 12.0405 11.7147 11.7643 12.1011C11.4881 12.4875 11.3404 12.9179 11.3211 13.3923C11.3147 13.5743 11.3788 13.7269 11.5135 13.85C11.6481 13.973 11.8051 14.0346 11.9846 14.0346C12.1769 14.0346 12.3397 13.9705 12.4731 13.8423C12.6064 13.7141 12.6916 13.557 12.7288 13.3711C12.7955 13.0275 12.9375 12.7215 13.1548 12.4529C13.3721 12.1843 13.6075 11.9289 13.861 11.6867C14.2254 11.3314 14.5435 10.9441 14.8153 10.5247C15.0871 10.1052 15.223 9.63738 15.223 9.12115C15.223 8.32885 14.9109 7.67789 14.2865 7.16828C13.6622 6.65866 12.9333 6.40385 12.1 6.40385C11.5051 6.40385 10.9442 6.53558 10.4173 6.79905C9.89038 7.0625 9.48013 7.44679 9.18653 7.95193C9.09551 8.10704 9.06629 8.27032 9.09888 8.44175C9.13146 8.61317 9.21943 8.74333 9.3628 8.83223C9.54528 8.93381 9.73268 8.9628 9.92498 8.9192C10.1173 8.87562 10.2807 8.76601 10.4154 8.59038C10.6179 8.32754 10.8631 8.11664 11.1509 7.95768C11.4387 7.79869 11.7488 7.7192 12.081 7.7192Z" fill="currentColor"/>
</g>
</svg>
