<svg width="24" height="24" viewBox="0 0 24 24" fill="none" xmlns="http://www.w3.org/2000/svg">
<mask id="mask0_2494_6696" style="mask-type:alpha" maskUnits="userSpaceOnUse" x="0" y="0" width="24" height="24">
<rect width="24" height="24" fill="#D9D9D9"/>
</mask>
<g mask="url(#mask0_2494_6696)">
<path d="M8.11538 16.75C8.32819 16.75 8.50639 16.6782 8.64998 16.5346C8.79356 16.391 8.86535 16.2128 8.86535 16V11C8.86535 10.7872 8.79356 10.609 8.64998 10.4654C8.50639 10.3218 8.32819 10.25 8.11538 10.25C7.90256 10.25 7.72436 10.3218 7.58078 10.4654C7.43718 10.609 7.36538 10.7872 7.36538 11V16C7.36538 16.2128 7.43718 16.391 7.58078 16.5346C7.72436 16.6782 7.90256 16.75 8.11538 16.75ZM12 16.75C12.2128 16.75 12.391 16.6782 12.5346 16.5346C12.6782 16.391 12.75 16.2128 12.75 16V7.99998C12.75 7.78716 12.6782 7.60896 12.5346 7.46538C12.391 7.32179 12.2128 7.25 12 7.25C11.7872 7.25 11.609 7.32179 11.4654 7.46538C11.3218 7.60896 11.25 7.78716 11.25 7.99998V16C11.25 16.2128 11.3218 16.391 11.4654 16.5346C11.609 16.6782 11.7872 16.75 12 16.75ZM15.8846 16.75C16.0974 16.75 16.2756 16.6782 16.4192 16.5346C16.5628 16.391 16.6346 16.2128 16.6346 16V14C16.6346 13.7872 16.5628 13.609 16.4192 13.4654C16.2756 13.3218 16.0974 13.25 15.8846 13.25C15.6718 13.25 15.4936 13.3218 15.35 13.4654C15.2064 13.609 15.1346 13.7872 15.1346 14V16C15.1346 16.2128 15.2064 16.391 15.35 16.5346C15.4936 16.6782 15.6718 16.75 15.8846 16.75ZM5.3077 20.5C4.80257 20.5 4.375 20.325 4.025 19.975C3.675 19.625 3.5 19.1974 3.5 18.6923V5.3077C3.5 4.80257 3.675 4.375 4.025 4.025C4.375 3.675 4.80257 3.5 5.3077 3.5H18.6923C19.1974 3.5 19.625 3.675 19.975 4.025C20.325 4.375 20.5 4.80257 20.5 5.3077V18.6923C20.5 19.1974 20.325 19.625 19.975 19.975C19.625 20.325 19.1974 20.5 18.6923 20.5H5.3077ZM5.3077 19H18.6923C18.7692 19 18.8397 18.9679 18.9038 18.9038C18.9679 18.8397 19 18.7692 19 18.6923V5.3077C19 5.23077 18.9679 5.16024 18.9038 5.09613C18.8397 5.03203 18.7692 4.99998 18.6923 4.99998H5.3077C5.23077 4.99998 5.16024 5.03203 5.09612 5.09613C5.03202 5.16024 4.99997 5.23077 4.99997 5.3077V18.6923C4.99997 18.7692 5.03202 18.8397 5.09612 18.9038C5.16024 18.9679 5.23077 19 5.3077 19Z" fill="currentColor"/>
</g>
</svg>
