<svg width="24" height="24" viewBox="0 0 24 24" fill="none" xmlns="http://www.w3.org/2000/svg">
<mask id="mask0_2731_7647" style="mask-type:alpha" maskUnits="userSpaceOnUse" x="0" y="0" width="24" height="24">
<rect width="24" height="24" fill="#D9D9D9"/>
</mask>
<g mask="url(#mask0_2731_7647)">
<path d="M4.74995 21.75C4.34098 21.75 3.98875 21.6022 3.69325 21.3067C3.39775 21.0112 3.25 20.659 3.25 20.25V16.75C3.25 16.341 3.39775 15.9887 3.69325 15.6932C3.98875 15.3977 4.34098 15.25 4.74995 15.25H6.25V12.75C6.25 12.341 6.39775 11.9888 6.69325 11.6933C6.98875 11.3978 7.34098 11.25 7.74995 11.25H11.25V8.74995H9.74995C9.34098 8.74995 8.98875 8.6022 8.69325 8.3067C8.39775 8.0112 8.25 7.65897 8.25 7.25V3.74995C8.25 3.34098 8.39775 2.98875 8.69325 2.69325C8.98875 2.39775 9.34098 2.25 9.74995 2.25H14.25C14.659 2.25 15.0112 2.39775 15.3067 2.69325C15.6022 2.98875 15.75 3.34098 15.75 3.74995V7.25C15.75 7.65897 15.6022 8.0112 15.3067 8.3067C15.0112 8.6022 14.659 8.74995 14.25 8.74995H12.75V11.25H16.25C16.659 11.25 17.0112 11.3978 17.3067 11.6933C17.6022 11.9888 17.75 12.341 17.75 12.75V15.25H19.25C19.659 15.25 20.0112 15.3977 20.3067 15.6932C20.6022 15.9887 20.75 16.341 20.75 16.75V20.25C20.75 20.659 20.6022 21.0112 20.3067 21.3067C20.0112 21.6022 19.659 21.75 19.25 21.75H14.75C14.341 21.75 13.9888 21.6022 13.6933 21.3067C13.3978 21.0112 13.25 20.659 13.25 20.25V16.75C13.25 16.341 13.3978 15.9887 13.6933 15.6932C13.9888 15.3977 14.341 15.25 14.75 15.25H16.25V12.75H7.74995V15.25H9.25C9.65897 15.25 10.0112 15.3977 10.3067 15.6932C10.6022 15.9887 10.75 16.341 10.75 16.75V20.25C10.75 20.659 10.6022 21.0112 10.3067 21.3067C10.0112 21.6022 9.65897 21.75 9.25 21.75L4.74995 21.75ZM9.74995 7.25H14.25V3.74995H9.74995V7.25ZM4.74995 20.25H9.25V16.75H4.74995V20.25ZM14.75 20.25H19.25V16.75H14.75V20.25Z" fill="currentColor"/>
</g>
</svg>
