<svg width="24" height="24" viewBox="0 0 24 24" fill="none" xmlns="http://www.w3.org/2000/svg">
<mask id="mask0_2714_4916" style="mask-type:alpha" maskUnits="userSpaceOnUse" x="0" y="0" width="24" height="24">
<rect width="24" height="24" fill="#D9D9D9"/>
</mask>
<g mask="url(#mask0_2714_4916)">
<path d="M10.4038 14.4999C10.1477 14.4999 9.93302 14.4132 9.75979 14.24C9.58654 14.0668 9.49991 13.8521 9.49991 13.596V10.4038C9.49991 10.1477 9.58654 9.93302 9.75979 9.75979C9.93302 9.58654 10.1477 9.49991 10.4038 9.49991H13.596C13.8521 9.49991 14.0668 9.58654 14.24 9.75979C14.4132 9.93302 14.4999 10.1477 14.4999 10.4038V13.596C14.4999 13.8521 14.4132 14.0668 14.24 14.24C14.0668 14.4132 13.8521 14.4999 13.596 14.4999H10.4038ZM9.99956 20.2691C9.78696 20.2691 9.60887 20.1972 9.46529 20.0534C9.3217 19.9097 9.24991 19.7316 9.24991 19.5191V18.4999H7.30761C6.80248 18.4999 6.37491 18.3249 6.02491 17.9749C5.67491 17.6249 5.49991 17.1973 5.49991 16.6922V14.7499H4.48069C4.26819 14.7499 4.09007 14.678 3.94634 14.5342C3.80259 14.3903 3.73071 14.2121 3.73071 13.9996C3.73071 13.787 3.80259 13.6089 3.94634 13.4653C4.09007 13.3217 4.26819 13.2499 4.48069 13.2499H5.49991V10.7499H4.48069C4.26819 10.7499 4.09007 10.678 3.94634 10.5342C3.80259 10.3903 3.73071 10.2121 3.73071 9.99956C3.73071 9.78696 3.80259 9.60887 3.94634 9.46529C4.09007 9.32171 4.26819 9.24991 4.48069 9.24991H5.49991V7.30761C5.49991 6.80248 5.67491 6.37491 6.02491 6.02491C6.37491 5.67491 6.80248 5.49991 7.30761 5.49991H9.24991V4.48069C9.24991 4.26819 9.32181 4.09007 9.46561 3.94634C9.60943 3.80259 9.78763 3.73071 10.0002 3.73071C10.2128 3.73071 10.3909 3.80259 10.5345 3.94634C10.6781 4.09007 10.7499 4.26819 10.7499 4.48069V5.49991H13.2499V4.48069C13.2499 4.26819 13.3218 4.09007 13.4656 3.94634C13.6094 3.80259 13.7876 3.73071 14.0002 3.73071C14.2128 3.73071 14.3909 3.80259 14.5345 3.94634C14.6781 4.09007 14.7499 4.26819 14.7499 4.48069V5.49991H16.6922C17.1973 5.49991 17.6249 5.67491 17.9749 6.02491C18.3249 6.37491 18.4999 6.80248 18.4999 7.30761V9.24991H19.5191C19.7316 9.24991 19.9097 9.32181 20.0534 9.46561C20.1972 9.60943 20.2691 9.78763 20.2691 10.0002C20.2691 10.2128 20.1972 10.3909 20.0534 10.5345C19.9097 10.6781 19.7316 10.7499 19.5191 10.7499H18.4999V13.2499H19.5191C19.7316 13.2499 19.9097 13.3218 20.0534 13.4656C20.1972 13.6094 20.2691 13.7876 20.2691 14.0002C20.2691 14.2128 20.1972 14.3909 20.0534 14.5345C19.9097 14.6781 19.7316 14.7499 19.5191 14.7499H18.4999V16.6922C18.4999 17.1973 18.3249 17.6249 17.9749 17.9749C17.6249 18.3249 17.1973 18.4999 16.6922 18.4999H14.7499V19.5191C14.7499 19.7316 14.678 19.9097 14.5342 20.0534C14.3903 20.1972 14.2121 20.2691 13.9996 20.2691C13.787 20.2691 13.6089 20.1972 13.4653 20.0534C13.3217 19.9097 13.2499 19.7316 13.2499 19.5191V18.4999H10.7499V19.5191C10.7499 19.7316 10.678 19.9097 10.5342 20.0534C10.3903 20.1972 10.2121 20.2691 9.99956 20.2691ZM7.30761 16.9999H16.6922C16.7691 16.9999 16.8396 16.9678 16.9037 16.9037C16.9678 16.8396 16.9999 16.7691 16.9999 16.6922V7.30761C16.9999 7.23068 16.9678 7.16016 16.9037 7.09604C16.8396 7.03194 16.7691 6.99989 16.6922 6.99989H7.30761C7.23068 6.99989 7.16015 7.03194 7.09604 7.09604C7.03194 7.16016 6.99989 7.23068 6.99989 7.30761V16.6922C6.99989 16.7691 7.03194 16.8396 7.09604 16.9037C7.16015 16.9678 7.23068 16.9999 7.30761 16.9999ZM10.9999 12.9999H12.9999V10.9999H10.9999V12.9999Z" fill="currentColor"/>
</g>
</svg>
