<svg width="24" height="24" viewBox="0 0 24 24" fill="none" xmlns="http://www.w3.org/2000/svg">
<mask id="mask0_2456_2946" style="mask-type:alpha" maskUnits="userSpaceOnUse" x="0" y="0" width="24" height="24">
<rect width="24" height="24" fill="#D9D9D9"/>
</mask>
<g mask="url(#mask0_2456_2946)">
<path d="M4.99997 18.8653C4.78747 18.8653 4.60936 18.7934 4.46563 18.6495C4.32188 18.5057 4.25 18.3275 4.25 18.1149C4.25 17.9024 4.32188 17.7243 4.46563 17.5807C4.60936 17.4371 4.78747 17.3653 4.99997 17.3653H6.25V10.1153C6.25 8.78324 6.66667 7.58933 7.5 6.53357C8.33333 5.4778 9.41667 4.80248 10.75 4.50762V3.80762C10.75 3.45505 10.8702 3.15857 11.1106 2.91819C11.3509 2.67781 11.6474 2.55762 12 2.55762C12.3525 2.55762 12.649 2.67781 12.8894 2.91819C13.1298 3.15857 13.25 3.45505 13.25 3.80762V4.50762C14.5833 4.80248 15.6666 5.4778 16.5 6.53357C17.3333 7.58933 17.75 8.78324 17.75 10.1153V17.3653H19C19.2125 17.3653 19.3906 17.4372 19.5344 17.581C19.6781 17.7248 19.75 17.903 19.75 18.1156C19.75 18.3282 19.6781 18.5063 19.5344 18.6499C19.3906 18.7935 19.2125 18.8653 19 18.8653H4.99997ZM12 21.8076C11.5077 21.8076 11.0833 21.6326 10.7269 21.2826C10.3705 20.9326 10.1923 20.505 10.1923 19.9999H13.8077C13.8077 20.505 13.6327 20.9326 13.2826 21.2826C12.9326 21.6326 12.5051 21.8076 12 21.8076ZM7.74995 17.3653H16.25V10.1153C16.25 8.94653 15.8337 7.946 15.001 7.11372C14.1683 6.28142 13.1674 5.86527 11.9981 5.86527C10.8288 5.86527 9.82849 6.28142 8.99708 7.11372C8.16566 7.946 7.74995 8.94653 7.74995 10.1153V17.3653Z" fill="currentColor"/>
</g>
</svg>
