<svg width="24" height="24" viewBox="0 0 24 24" fill="none" xmlns="http://www.w3.org/2000/svg">
<mask id="mask0_2491_5042" style="mask-type:alpha" maskUnits="userSpaceOnUse" x="0" y="0" width="24" height="24">
<rect width="24" height="24" fill="#D9D9D9"/>
</mask>
<g mask="url(#mask0_2491_5042)">
<path d="M12 22C10.6167 22 9.31667 21.7375 8.1 21.2125C6.88333 20.6875 5.825 19.975 4.925 19.075C4.025 18.175 3.3125 17.1167 2.7875 15.9C2.2625 14.6833 2 13.3833 2 12C2 10.6167 2.2625 9.31667 2.7875 8.1C3.3125 6.88333 4.025 5.825 4.925 4.925C5.825 4.025 6.88333 3.3125 8.1 2.7875C9.31667 2.2625 10.6167 2 12 2C13.3833 2 14.6833 2.2625 15.9 2.7875C17.1167 3.3125 18.175 4.025 19.075 4.925C19.975 5.825 20.6875 6.88333 21.2125 8.1C21.7375 9.31667 22 10.6167 22 12C22 13.3833 21.7375 14.6833 21.2125 15.9C20.6875 17.1167 19.975 18.175 19.075 19.075C18.175 19.975 17.1167 20.6875 15.9 21.2125C14.6833 21.7375 13.3833 22 12 22ZM11.4 13.5V16.925C11.4 17.1917 11.525 17.3542 11.775 17.4125C12.025 17.4708 12.2167 17.3833 12.35 17.15L15.375 11.225C15.4583 11.0583 15.45 10.8958 15.35 10.7375C15.25 10.5792 15.1083 10.5 14.925 10.5H12.75V7.025C12.75 6.75833 12.625 6.59167 12.375 6.525C12.125 6.45833 11.9333 6.54167 11.8 6.775L8.65 12.775C8.56667 12.9583 8.57083 13.125 8.6625 13.275C8.75417 13.425 8.89167 13.5 9.075 13.5H11.4Z" fill="currentColor"/>
</g>
</svg>
