<svg width="24" height="24" viewBox="0 0 24 24" fill="none" xmlns="http://www.w3.org/2000/svg">
<mask id="mask0_2494_6113" style="mask-type:alpha" maskUnits="userSpaceOnUse" x="0" y="0" width="24" height="24">
<rect width="24" height="24" fill="#D9D9D9"/>
</mask>
<g mask="url(#mask0_2494_6113)">
<path d="M5.3077 20.5C4.80257 20.5 4.375 20.325 4.025 19.975C3.675 19.625 3.5 19.1974 3.5 18.6923V5.3077C3.5 4.80257 3.675 4.375 4.025 4.025C4.375 3.675 4.80257 3.5 5.3077 3.5H10.8654C11.0782 3.5 11.2564 3.5718 11.4 3.7154C11.5435 3.85898 11.6153 4.03718 11.6153 4.25C11.6153 4.46282 11.5435 4.64102 11.4 4.7846C11.2564 4.92818 11.0782 4.99998 10.8654 4.99998H5.3077C5.23077 4.99998 5.16024 5.03203 5.09612 5.09613C5.03202 5.16024 4.99997 5.23077 4.99997 5.3077V18.6923C4.99997 18.7692 5.03202 18.8397 5.09612 18.9038C5.16024 18.9679 5.23077 19 5.3077 19H18.6923C18.7692 19 18.8397 18.9679 18.9038 18.9038C18.9679 18.8397 19 18.7692 19 18.6923V13.1346C19 12.9218 19.0718 12.7436 19.2154 12.6C19.3589 12.4564 19.5371 12.3846 19.75 12.3846C19.9628 12.3846 20.141 12.4564 20.2845 12.6C20.4282 12.7436 20.5 12.9218 20.5 13.1346V18.6923C20.5 19.1974 20.325 19.625 19.975 19.975C19.625 20.325 19.1974 20.5 18.6923 20.5H5.3077ZM9.1923 14.8077C9.04743 14.6628 8.975 14.4872 8.975 14.2808C8.975 14.0743 9.04743 13.8987 9.1923 13.7538L17.9461 4.99998H14.75C14.5371 4.99998 14.3589 4.92818 14.2154 4.7846C14.0718 4.64102 14 4.46282 14 4.25C14 4.03718 14.0718 3.85898 14.2154 3.7154C14.3589 3.5718 14.5371 3.5 14.75 3.5H19.5961C19.8538 3.5 20.0688 3.58623 20.2413 3.75868C20.4137 3.93111 20.5 4.14617 20.5 4.40385V9.25C20.5 9.46282 20.4282 9.64102 20.2845 9.7846C20.141 9.92818 19.9628 9.99998 19.75 9.99998C19.5371 9.99998 19.3589 9.92818 19.2154 9.7846C19.0718 9.64102 19 9.46282 19 9.25V6.0538L10.2211 14.8327C10.0827 14.9711 9.91535 15.0404 9.7192 15.0404C9.52305 15.0404 9.34742 14.9628 9.1923 14.8077Z" fill="currentColor"/>
</g>
</svg>
