<svg width="24" height="24" viewBox="0 0 24 24" fill="none" xmlns="http://www.w3.org/2000/svg">
<mask id="mask0_2731_7648" style="mask-type:alpha" maskUnits="userSpaceOnUse" x="0" y="0" width="24" height="24">
<rect width="24" height="24" fill="#D9D9D9"/>
</mask>
<g mask="url(#mask0_2731_7648)">
<path d="M2.99996 18.7499C2.78746 18.7499 2.60934 18.678 2.46561 18.5342C2.32184 18.3904 2.24996 18.2122 2.24996 17.9996C2.24996 17.787 2.32183 17.6089 2.46556 17.4653C2.60931 17.3217 2.78743 17.2499 2.99993 17.2499H20.9999C21.2124 17.2499 21.3906 17.3218 21.5343 17.4656C21.678 17.6095 21.7499 17.7877 21.7499 18.0002C21.7499 18.2128 21.678 18.3909 21.5343 18.5345C21.3906 18.6781 21.2124 18.7499 20.9999 18.7499H2.99996ZM2.57586 12.4419C2.43031 12.3622 2.33768 12.2426 2.29798 12.0832C2.25828 11.9238 2.27882 11.7717 2.35958 11.6268L2.96921 10.5461H1.74996C1.57774 10.5461 1.43533 10.4898 1.32271 10.3773C1.21011 10.2648 1.15381 10.1225 1.15381 9.95037C1.15381 9.77829 1.21012 9.63583 1.32273 9.52299C1.43533 9.41018 1.57774 9.35377 1.74996 9.35377H2.96921L2.35958 8.32299C2.27882 8.17813 2.25828 8.026 2.29798 7.8666C2.33768 7.7072 2.43031 7.58764 2.57586 7.50794C2.72141 7.42824 2.87368 7.4083 3.03266 7.44812C3.19163 7.48794 3.31085 7.58085 3.39033 7.72685L3.99996 8.75765L4.60958 7.72685C4.68907 7.58085 4.80829 7.48794 4.96726 7.44812C5.12624 7.4083 5.27851 7.42824 5.42406 7.50794C5.56961 7.58764 5.66223 7.7072 5.70193 7.8666C5.74163 8.026 5.7211 8.17813 5.64033 8.32299L5.03071 9.35377H6.24996C6.42218 9.35377 6.56458 9.41004 6.67718 9.52257C6.7898 9.63509 6.84611 9.77739 6.84611 9.94947C6.84611 10.1216 6.7898 10.264 6.67718 10.3768C6.56458 10.4897 6.42218 10.5461 6.24996 10.5461H5.03071L5.64033 11.6268C5.7211 11.7717 5.74163 11.9238 5.70193 12.0832C5.66223 12.2426 5.56961 12.3622 5.42406 12.4419C5.27851 12.5216 5.12624 12.5415 4.96726 12.5017C4.80829 12.4619 4.68907 12.369 4.60958 12.223L3.99996 11.1422L3.39033 12.223C3.31085 12.369 3.19163 12.4619 3.03266 12.5017C2.87368 12.5415 2.72141 12.5216 2.57586 12.4419ZM10.5759 12.4419C10.4303 12.3622 10.3377 12.2426 10.298 12.0832C10.2583 11.9238 10.2788 11.7717 10.3596 11.6268L10.9692 10.5461H9.74996C9.57774 10.5461 9.43533 10.4898 9.32273 10.3773C9.21012 10.2648 9.15381 10.1225 9.15381 9.95037C9.15381 9.77829 9.21012 9.63583 9.32273 9.52299C9.43533 9.41018 9.57774 9.35377 9.74996 9.35377H10.9692L10.3596 8.32299C10.2788 8.17813 10.2583 8.026 10.298 7.8666C10.3377 7.7072 10.4303 7.58764 10.5759 7.50794C10.7214 7.42824 10.8737 7.4083 11.0327 7.44812C11.1916 7.48794 11.3109 7.58085 11.3903 7.72685L12 8.75765L12.6096 7.72685C12.6891 7.58085 12.8083 7.48794 12.9673 7.44812C13.1262 7.4083 13.2785 7.42824 13.4241 7.50794C13.5696 7.58764 13.6622 7.7072 13.7019 7.8666C13.7416 8.026 13.7211 8.17813 13.6403 8.32299L13.0307 9.35377H14.25C14.4222 9.35377 14.5646 9.41004 14.6772 9.52257C14.7898 9.63509 14.8461 9.77739 14.8461 9.94947C14.8461 10.1216 14.7898 10.264 14.6772 10.3768C14.5646 10.4897 14.4222 10.5461 14.25 10.5461H13.0307L13.6403 11.6268C13.7211 11.7717 13.7416 11.9238 13.7019 12.0832C13.6622 12.2426 13.5696 12.3622 13.4241 12.4419C13.2785 12.5216 13.1262 12.5415 12.9673 12.5017C12.8083 12.4619 12.6891 12.369 12.6096 12.223L12 11.1422L11.3903 12.223C11.3109 12.369 11.1916 12.4619 11.0327 12.5017C10.8737 12.5415 10.7214 12.5216 10.5759 12.4419ZM18.5759 12.4419C18.4303 12.3622 18.3377 12.2426 18.298 12.0832C18.2583 11.9238 18.2788 11.7717 18.3596 11.6268L18.9692 10.5461H17.75C17.5777 10.5461 17.4353 10.4898 17.3227 10.3773C17.2101 10.2648 17.1538 10.1225 17.1538 9.95037C17.1538 9.77829 17.2101 9.63583 17.3227 9.52299C17.4353 9.41018 17.5777 9.35377 17.75 9.35377H18.9692L18.3596 8.32299C18.2788 8.17813 18.2583 8.026 18.298 7.8666C18.3377 7.7072 18.4303 7.58764 18.5759 7.50794C18.7214 7.42824 18.8737 7.4083 19.0327 7.44812C19.1916 7.48794 19.3109 7.58085 19.3903 7.72685L20 8.75765L20.6096 7.72685C20.6891 7.58085 20.8083 7.48794 20.9673 7.44812C21.1262 7.4083 21.2785 7.42824 21.4241 7.50794C21.5696 7.58764 21.6622 7.7072 21.7019 7.8666C21.7416 8.026 21.7211 8.17813 21.6403 8.32299L21.0307 9.35377H22.25C22.4222 9.35377 22.5646 9.41004 22.6772 9.52257C22.7898 9.63509 22.8461 9.77739 22.8461 9.94947C22.8461 10.1216 22.7898 10.264 22.6772 10.3768C22.5646 10.4897 22.4222 10.5461 22.25 10.5461H21.0307L21.6403 11.6268C21.7211 11.7717 21.7416 11.9238 21.7019 12.0832C21.6622 12.2426 21.5696 12.3622 21.4241 12.4419C21.2785 12.5216 21.1262 12.5415 20.9673 12.5017C20.8083 12.4619 20.6891 12.369 20.6096 12.223L20 11.1422L19.3903 12.223C19.3109 12.369 19.1916 12.4619 19.0327 12.5017C18.8737 12.5415 18.7214 12.5216 18.5759 12.4419Z" fill="currentColor"/>
</g>
</svg>
