<svg width="24" height="24" viewBox="0 0 24 24" fill="none" xmlns="http://www.w3.org/2000/svg">
<mask id="mask0_2456_2938" style="mask-type:alpha" maskUnits="userSpaceOnUse" x="0" y="0" width="24" height="24">
<rect width="24" height="24" fill="#D9D9D9"/>
</mask>
<g mask="url(#mask0_2456_2938)">
<path d="M13.5097 21.5H10.4809C10.2566 21.5 10.0623 21.4246 9.89822 21.274C9.73412 21.1233 9.6354 20.9358 9.60207 20.7115L9.31169 18.4538C9.04374 18.3641 8.76906 18.2384 8.48764 18.0769C8.20623 17.9153 7.95462 17.7422 7.73282 17.5576L5.64437 18.4384C5.43027 18.5217 5.21777 18.5301 5.00687 18.4634C4.79597 18.3967 4.63026 18.2647 4.50974 18.0673L3.00594 15.4481C2.88543 15.2506 2.84857 15.0397 2.89537 14.8154C2.94215 14.591 3.05593 14.4102 3.23669 14.2731L5.04439 12.9058C5.02131 12.757 5.00496 12.6077 4.99534 12.4577C4.98573 12.3077 4.98092 12.1583 4.98092 12.0096C4.98092 11.8673 4.98573 11.7227 4.99534 11.5759C5.00496 11.4291 5.02131 11.2686 5.04439 11.0942L3.23669 9.72688C3.05593 9.58971 2.94215 9.40894 2.89537 9.18458C2.84857 8.96023 2.88543 8.74934 3.00594 8.5519L4.50974 5.95195C4.62001 5.74425 4.78155 5.60963 4.99437 5.5481C5.20719 5.48657 5.42064 5.49747 5.63474 5.5808L7.72319 6.45195C7.96423 6.26092 8.2216 6.08623 8.49532 5.9279C8.76905 5.76955 9.03797 5.6423 9.30207 5.54615L9.60207 3.28848C9.6354 3.06411 9.73412 2.87661 9.89822 2.72598C10.0623 2.57533 10.2566 2.5 10.4809 2.5H13.5097C13.7341 2.5 13.9299 2.57533 14.0972 2.72598C14.2645 2.87661 14.3648 3.06411 14.3982 3.28848L14.6885 5.55578C14.9885 5.66474 15.26 5.79198 15.503 5.9375C15.7459 6.08302 15.9911 6.2545 16.2386 6.45195L18.3655 5.5808C18.5796 5.49747 18.7905 5.48753 18.9982 5.55098C19.2059 5.61444 19.37 5.74489 19.4905 5.94233L20.9943 8.5519C21.1148 8.74934 21.1517 8.96023 21.1049 9.18458C21.0581 9.40894 20.9443 9.58971 20.7635 9.72688L18.9174 11.123C18.9533 11.2846 18.9728 11.4355 18.976 11.5759C18.9792 11.7163 18.9808 11.8577 18.9808 12C18.9808 12.1359 18.9776 12.274 18.9712 12.4144C18.9648 12.5548 18.9417 12.7154 18.902 12.8962L20.7289 14.2731C20.9161 14.4038 21.0315 14.583 21.0751 14.8106C21.1187 15.0381 21.0802 15.2506 20.9597 15.4481L19.4559 18.0519C19.3354 18.2493 19.1671 18.3823 18.9511 18.4509C18.735 18.5195 18.52 18.5121 18.3059 18.4288L16.2386 17.548C15.9911 17.7455 15.7386 17.9201 15.4809 18.0721C15.2232 18.224 14.9591 18.348 14.6885 18.4442L14.3982 20.7115C14.3648 20.9358 14.2645 21.1233 14.0972 21.274C13.9299 21.4246 13.7341 21.5 13.5097 21.5ZM12.0116 15C12.8437 15 13.5517 14.708 14.1357 14.124C14.7196 13.54 15.0116 12.832 15.0116 12C15.0116 11.1679 14.7196 10.4599 14.1357 9.87595C13.5517 9.29198 12.8437 9 12.0116 9C11.1694 9 10.4588 9.29198 9.87994 9.87595C9.30111 10.4599 9.01169 11.1679 9.01169 12C9.01169 12.832 9.30111 13.54 9.87994 14.124C10.4588 14.708 11.1694 15 12.0116 15ZM12.0116 13.5C11.595 13.5 11.2408 13.3541 10.9491 13.0625C10.6575 12.7708 10.5116 12.4166 10.5116 12C10.5116 11.5833 10.6575 11.2291 10.9491 10.9375C11.2408 10.6458 11.595 10.5 12.0116 10.5C12.4283 10.5 12.7825 10.6458 13.0741 10.9375C13.3658 11.2291 13.5116 11.5833 13.5116 12C13.5116 12.4166 13.3658 12.7708 13.0741 13.0625C12.7825 13.3541 12.4283 13.5 12.0116 13.5ZM11.0001 20H12.9655L13.3251 17.3211C13.8354 17.1878 14.3017 16.9984 14.7241 16.7529C15.1466 16.5074 15.554 16.1917 15.9463 15.8058L18.4309 16.85L19.4155 15.15L17.2463 13.5154C17.3296 13.2564 17.3863 13.0025 17.4165 12.7538C17.4466 12.5051 17.4616 12.2538 17.4616 12C17.4616 11.7397 17.4466 11.4884 17.4165 11.2461C17.3863 11.0038 17.3296 10.7564 17.2463 10.5038L19.4347 8.84998L18.4501 7.14998L15.9366 8.2096C15.602 7.8519 15.2011 7.53588 14.7338 7.26153C14.2665 6.98716 13.7937 6.79293 13.3155 6.67883L13.0001 3.99998H11.0155L10.6847 6.6692C10.1745 6.78972 9.70332 6.97433 9.27127 7.22305C8.83922 7.47177 8.42704 7.79228 8.03474 8.1846L5.55012 7.14998L4.56549 8.84998L6.72512 10.4596C6.64178 10.6968 6.58345 10.9436 6.55012 11.2C6.51678 11.4564 6.50012 11.7263 6.50012 12.0096C6.50012 12.2699 6.51678 12.525 6.55012 12.775C6.58345 13.025 6.63858 13.2718 6.71549 13.5154L4.56549 15.15L5.55012 16.85L8.02512 15.8C8.4046 16.1897 8.81037 16.509 9.24242 16.7577C9.67447 17.0064 10.152 17.1974 10.6751 17.3308L11.0001 20Z" fill="currentColor"/>
</g>
</svg>
