<svg width="24" height="24" viewBox="0 0 24 24" fill="none" xmlns="http://www.w3.org/2000/svg">
<mask id="mask0_2491_3583" style="mask-type:alpha" maskUnits="userSpaceOnUse" x="0" y="0" width="24" height="24">
<rect width="24" height="24" fill="#D9D9D9"/>
</mask>
<g mask="url(#mask0_2491_3583)">
<path d="M15.7731 12.9729L14.6501 11.8499C14.8001 11.0217 14.5638 10.2771 13.9414 9.61624C13.319 8.95534 12.5552 8.69989 11.6501 8.84989L10.527 7.72684C10.7526 7.62556 10.9841 7.5496 11.2212 7.49897C11.4584 7.44832 11.718 7.42299 12.0001 7.42299C13.1347 7.42299 14.0978 7.81882 14.8895 8.61049C15.6811 9.40216 16.077 10.3653 16.077 11.4999C16.077 11.7819 16.0516 12.0448 16.001 12.2883C15.9504 12.5319 15.8744 12.7601 15.7731 12.9729ZM18.9539 16.0845L17.8501 15.0499C18.4834 14.5666 19.0459 14.0374 19.5376 13.4624C20.0292 12.8874 20.4501 12.2332 20.8001 11.4999C19.9667 9.81656 18.7709 8.47906 17.2126 7.48739C15.6542 6.49572 13.9167 5.99989 12.0001 5.99989C11.5167 5.99989 11.0417 6.03322 10.5751 6.09989C10.1084 6.16656 9.65006 6.26656 9.20006 6.39989L8.03471 5.23454C8.66676 4.98326 9.31227 4.798 9.97124 4.67877C10.6302 4.55953 11.3065 4.49991 12.0001 4.49991C14.2231 4.49991 16.2462 5.08902 18.0693 6.26722C19.8923 7.44542 21.266 8.98836 22.1904 10.896C22.234 10.973 22.2641 11.0643 22.2808 11.1701C22.2975 11.2759 22.3058 11.3858 22.3058 11.4999C22.3058 11.614 22.2949 11.7239 22.2731 11.8297C22.2513 11.9355 22.2237 12.0268 22.1904 12.1037C21.8199 12.8832 21.3632 13.6072 20.8202 14.2758C20.2773 14.9444 19.6552 15.5473 18.9539 16.0845ZM19.2347 21.3422L15.7155 17.8537C15.2026 18.0434 14.6344 18.1986 14.0107 18.3191C13.3869 18.4396 12.7167 18.4999 12.0001 18.4999C9.76418 18.4999 7.7395 17.9108 5.92604 16.7326C4.11259 15.5544 2.74048 14.0114 1.80971 12.1037C1.76613 12.0268 1.736 11.9355 1.71934 11.8297C1.70267 11.7239 1.69434 11.614 1.69434 11.4999C1.69434 11.3858 1.70267 11.2784 1.71934 11.1778C1.736 11.0771 1.76613 10.9884 1.80971 10.9114C2.18536 10.1422 2.64049 9.43131 3.17511 8.77874C3.70973 8.12617 4.28473 7.54605 4.90011 7.03837L2.64241 4.76526C2.50394 4.6268 2.43311 4.45533 2.42991 4.25087C2.42671 4.04638 2.50267 3.86657 2.65779 3.71144C2.80265 3.56657 2.97829 3.49414 3.18471 3.49414C3.39111 3.49414 3.56674 3.56657 3.71161 3.71144L20.2885 20.2883C20.427 20.4268 20.5004 20.5983 20.5087 20.8027C20.517 21.0072 20.4436 21.187 20.2885 21.3422C20.1436 21.487 19.968 21.5595 19.7616 21.5595C19.5552 21.5595 19.3796 21.487 19.2347 21.3422ZM5.95394 8.09216C5.42574 8.51268 4.91195 9.01814 4.41259 9.60854C3.91322 10.1989 3.50904 10.8294 3.20006 11.4999C4.03339 13.1832 5.22923 14.5207 6.78756 15.5124C8.34589 16.5041 10.0834 16.9999 12.0001 16.9999C12.4552 16.9999 12.9084 16.9614 13.3597 16.8845C13.811 16.8076 14.1937 16.7281 14.5078 16.646L13.2424 15.3499C13.0719 15.4191 12.8744 15.4742 12.6501 15.5152C12.4257 15.5563 12.209 15.5768 12.0001 15.5768C10.8655 15.5768 9.90233 15.181 9.11066 14.3893C8.31899 13.5976 7.92316 12.6345 7.92316 11.4999C7.92316 11.2973 7.94368 11.0855 7.98471 10.8643C8.02574 10.6431 8.08087 10.4409 8.15009 10.2576L5.95394 8.09216Z" fill="currentColor"/>
</g>
</svg>
